<?xml version="1.0" encoding="utf-8"?>
<!-- Generator: Adobe Illustrator 24.0.0, SVG Export Plug-In . SVG Version: 6.00 Build 0)  -->
<svg version="1.1" xmlns="http://www.w3.org/2000/svg" xmlns:xlink="http://www.w3.org/1999/xlink" x="0px" y="0px"
	 viewBox="0 0 324 296.64" style="enable-background:new 0 0 324 296.64;" xml:space="preserve">
<style type="text/css">
	.st0{fill:#1CA804;}
	.st1{fill:none;stroke:#000000;stroke-width:0.5;stroke-linecap:round;stroke-linejoin:round;}
	.st2{fill:none;}
	.st3{fill:#082B00;}
	.st4{fill:#1CA804;stroke:#000000;stroke-width:4;stroke-linecap:round;stroke-linejoin:round;}
</style>
<g id="Layer_4">
	<g id="XMLID_1_">
		<g>
			<rect x="0" y="-37.44" class="st0" width="324" height="361.8"/>
		</g>
		<g>
			<rect x="0" y="-37.44" class="st1" width="324" height="361.8"/>
		</g>
	</g>
</g>
<g id="Search">
	<g>
		<path class="st2" d="M193.97,51.08c1.05-5.06-2.22-10.03-7.28-11.08c-0.63-0.13-1.27-0.2-1.91-0.2c-1.81,0-3.59,0.52-5.14,1.54
			c-2.09,1.38-3.52,3.48-4.03,5.94c-0.51,2.45-0.03,4.96,1.35,7.05c1.38,2.09,3.48,3.53,5.94,4.03
			C187.95,59.41,192.93,56.14,193.97,51.08z M190.03,55.68l-0.16-0.14c1.09-1.34,1.65-3.04,1.73-4.74c0.07-1.71-0.34-3.44-1.21-4.9
			c-0.84-1.48-2.15-2.69-3.72-3.36c-1.57-0.66-3.38-0.76-5-0.17l-0.08-0.2c1.39-1.37,3.7-1.76,5.72-1.18
			c2.05,0.54,3.84,2.01,4.9,3.85c1.08,1.84,1.43,4.03,1.06,6.04C192.93,52.9,191.77,54.81,190.03,55.68z"/>
		<path d="M192.22,44.85c-1.06-1.84-2.84-3.31-4.9-3.85c-2.02-0.58-4.33-0.19-5.72,1.18l0.08,0.2c1.62-0.59,3.43-0.49,5,0.17
			c1.57,0.67,2.88,1.89,3.72,3.36c0.87,1.46,1.29,3.19,1.21,4.9c-0.08,1.7-0.65,3.4-1.73,4.74l0.16,0.14
			c1.74-0.87,2.9-2.79,3.24-4.79C193.65,48.88,193.3,46.68,192.22,44.85z"/>
		<path d="M198.95,74.39c0.12-0.29-0.36-0.57-0.41-1.01c-0.28-2.15-1.41-4.52-2.45-6.35c-0.74-1.28-1.47-2.56-2.27-3.81
			c-0.46-0.73-0.95-1.46-1.45-2.18c3.21-2.16,5.55-5.6,6.17-9.72c1.18-7.79-4.21-15.09-12-16.27c-3.77-0.57-7.55,0.36-10.62,2.63
			c-3.07,2.27-5.08,5.59-5.65,9.37c-0.57,3.78,0.37,7.55,2.63,10.62c2.27,3.07,5.59,5.08,9.37,5.65c0.98,0.15,1.94,0.19,2.89,0.14
			c0.65-0.03,1.28-0.12,1.91-0.24c0.14,0.86,0.3,1.71,0.48,2.55c0.3,1.46,0.67,2.88,1.04,4.31c0.38,1.42,0.64,2.9,1.04,4.31
			c1.13,4.01,4.22,2.74,7.34,1.38C197.95,75.36,198.61,75.2,198.95,74.39z M183.01,58.46c-2.48-0.37-4.66-1.69-6.15-3.7
			c-1.49-2.02-2.1-4.49-1.73-6.97c0.37-2.48,1.69-4.66,3.7-6.15c1.49-1.1,3.24-1.72,5.05-1.82c0.63-0.03,1.27,0,1.91,0.09
			c5.11,0.77,8.64,5.56,7.87,10.67C192.91,55.7,188.12,59.23,183.01,58.46z"/>
	</g>
</g>
<g id="Elly">
	<path d="M116.76,195.96c0,0-27.6-45.84-14.64-62.64c5.59-6.72,18.24-10.8,18.24-10.8s24.72,24.96,38.4,27.6
		c11.28-0.96,13.2-10.56,13.2-10.56s-10.8,7.68-12,6.48c-1.2-1.2-34.08-16.32-35.04-23.52c-0.96-7.2,12.48-29.28,16.08-28.32
		c3.6,0.96,20.64,1.38,21.6-0.03c0.96-1.41,18.96-4.05,24.96,3.63s26.4,16.56,24.72,1.2c-1.68-15.36-31.92-16.8-23.52-29.28
		c0,0,3.36,0.24,3.12,2.4c-0.24,2.16,2.04-2.4,2.04-2.4s5.76,7.68,21.84,13.44c16.08,5.76,21,30.72,5.76,43.56
		c-15.24,12.84-25.2,8.76-25.2,8.76s7.92,5.52,14.88,3.84c0.96,4.2-19.08,5.88-23.64,1.08c-4.56-4.8,3.78,31.04-18,54.52h-20.34
		c0,0,6.66-20.44-6.12-23.14s-6.48,24.18-6.48,24.18H116.76z"/>
</g>
<g id="env">
	<g>
		<path class="st3" d="M175.79,193.88c4.71-0.25,9.23-1.11,13.47-2.7c4.23-1.61,8.12-3.92,11.61-6.73c3.45-2.85,6.72-6.03,9.49-9.71
			c2.77-3.66,4.88-7.9,5.97-12.41l0.71,0.77c-5.67,1.08-10.92,3.72-15.56,6.98c-2.33,1.62-4.55,3.38-6.67,5.24l-3.17,2.82
			c-1.02,0.98-2.06,1.95-3.2,2.85l-0.02,0.01l-4.33,3.55l2.25-5.13c0.53-1.22,1.13-2.39,1.73-3.56c0.6-1.16,1.27-2.29,1.78-3.48
			c1.04-2.37,2.33-4.63,3.25-7.02c0.98-2.37,1.87-4.79,2.52-7.27c0.7-2.47,1.16-5,1.45-7.56l1.74,1.37c-1.9,0.4-3.78,1.24-5.58,2.3
			c-0.91,0.52-1.77,1.09-2.58,1.73c-0.8,0.65-1.61,1.45-2.58,2.01l-0.24-0.32c0.75-0.74,1.3-1.64,2.01-2.5
			c0.71-0.88,1.53-1.64,2.37-2.37c1.69-1.42,3.62-2.72,5.86-3.48l1.69-0.57l0.05,1.95c0.07,2.76-0.21,5.52-0.69,8.24
			c-0.54,2.71-1.26,5.38-2.24,7.96c-0.49,1.29-1.01,2.56-1.68,3.76c-0.62,1.22-1.27,2.43-1.94,3.62c-0.61,1.23-1.46,2.3-2.24,3.41
			c-0.8,1.1-1.62,2.18-2.49,3.23l-2.09-1.58l0.01-0.02c0.84-1.24,1.78-2.42,2.75-3.57c1.01-1.12,2.1-2.16,3.25-3.12
			c2.31-1.93,4.82-3.62,7.47-5.04c2.66-1.4,5.42-2.58,8.26-3.5c2.83-0.94,5.72-1.63,8.63-2.16l0.98-0.18l-0.27,0.95
			c-1.3,4.58-2.97,9.06-5.28,13.3c-2.28,4.25-5.29,8.2-9.12,11.29c-3.83,3.07-8.3,5.36-13.02,6.63c-4.72,1.25-9.71,1.42-14.36,0.4
			L175.79,193.88z"/>
	</g>
</g>
<g id="Sep_x26_text">
	<g>
		<path class="st0" d="M194.7,76.34c-0.69,0.24-1.41,0.37-2.16,0.37c-0.74,0-1.52-0.17-2.17-0.6c-0.65-0.45-1.09-1.15-1.26-1.89
			c-0.18-0.73-0.17-1.48-0.04-2.19c0.08,0.72,0.17,1.43,0.41,2.08c0.24,0.64,0.62,1.21,1.17,1.59c0.55,0.37,1.22,0.55,1.91,0.63
			C193.25,76.4,193.97,76.37,194.7,76.34z"/>
	</g>
	<g>
		<g>
			<path d="M120,250.29c-1.46-0.74-2.57-1.83-3.33-3.26s-1.15-3.15-1.15-5.16v-2.4c0-2.11,0.37-3.9,1.1-5.39s1.8-2.63,3.2-3.4
				s3.09-1.17,5.08-1.17c1.86,0,3.45,0.46,4.78,1.39s2.33,2.28,3.02,4.05c0.69,1.77,1.04,3.91,1.04,6.41v1.39h-14.56v-3.79h9.43
				l-0.06-0.49c-0.15-1.23-0.54-2.18-1.16-2.85c-0.62-0.67-1.45-1-2.49-1c-1.35,0-2.4,0.4-3.15,1.21s-1.12,1.95-1.12,3.42v2.71
				c0,1.45,0.41,2.57,1.22,3.36s1.95,1.19,3.41,1.19c0.75,0,1.5-0.13,2.24-0.4c0.74-0.27,1.41-0.65,2.01-1.14l3.67,3.26
				c-1.11,1.01-2.35,1.79-3.73,2.35c-1.38,0.55-2.78,0.83-4.18,0.83C123.21,251.41,121.45,251.04,120,250.29z"/>
			<path d="M144.27,244.07c0,0.52,0.15,0.92,0.44,1.2s0.71,0.42,1.26,0.42h0.94v5.41h-2.87c-1.71,0-3.04-0.49-3.98-1.48
				s-1.42-2.37-1.42-4.16v-24.18h5.62V244.07z"/>
			<path d="M156.43,244.07c0,0.52,0.15,0.92,0.44,1.2s0.71,0.42,1.26,0.42h0.94v5.41h-2.87c-1.71,0-3.04-0.49-3.98-1.48
				s-1.42-2.37-1.42-4.16v-24.18h5.62V244.07z"/>
			<path d="M160.71,229.82h5.29l7.16,18.5l-3.55,4.53L160.71,229.82z M180.38,229.82l-9.47,26.27c-0.36,0.97-0.8,1.74-1.32,2.31
				c-0.53,0.57-1.18,0.97-1.95,1.22s-1.73,0.37-2.86,0.37h-1.25v-5.46h1.25c0.6,0,1.1-0.13,1.51-0.4c0.4-0.27,0.71-0.7,0.91-1.3
				l7.9-23.01H180.38z"/>
		</g>
	</g>
</g>
<g id="C_logo">
	<circle class="st4" cx="-286.87" cy="49.19" r="139.59"/>
</g>
<g id="C_logo_elly">
	<g>
		<path class="st2" d="M-257.59-59.98c1.05-5.06-2.22-10.03-7.28-11.08c-0.63-0.13-1.27-0.2-1.9-0.2c-1.81,0-3.59,0.52-5.14,1.54
			c-2.09,1.38-3.52,3.48-4.03,5.94c-0.51,2.45-0.03,4.96,1.35,7.05c1.38,2.09,3.48,3.53,5.94,4.03
			C-263.61-51.65-258.64-54.92-257.59-59.98z M-261.53-55.38l-0.16-0.14c1.09-1.34,1.65-3.04,1.73-4.74
			c0.07-1.71-0.34-3.44-1.21-4.9c-0.84-1.48-2.15-2.69-3.72-3.36c-1.57-0.66-3.38-0.76-5-0.17l-0.08-0.2
			c1.39-1.37,3.7-1.76,5.72-1.18c2.05,0.54,3.84,2.01,4.9,3.85c1.08,1.84,1.43,4.03,1.06,6.04
			C-258.63-58.17-259.79-56.25-261.53-55.38z"/>
		<path d="M-259.35-66.21c-1.06-1.84-2.84-3.31-4.9-3.85c-2.02-0.58-4.33-0.19-5.72,1.18l0.08,0.2c1.62-0.59,3.43-0.49,5,0.17
			c1.57,0.67,2.88,1.89,3.72,3.36c0.87,1.46,1.29,3.19,1.21,4.9c-0.08,1.7-0.65,3.4-1.73,4.74l0.16,0.14
			c1.74-0.87,2.9-2.79,3.24-4.79C-257.92-62.19-258.26-64.38-259.35-66.21z"/>
		<path d="M-252.61-36.67c0.12-0.29-0.36-0.57-0.41-1.01c-0.28-2.15-1.41-4.52-2.45-6.35c-0.74-1.28-1.47-2.56-2.27-3.81
			c-0.46-0.73-0.95-1.46-1.45-2.18c3.21-2.16,5.55-5.6,6.17-9.72c1.18-7.79-4.21-15.09-12-16.27c-3.77-0.57-7.55,0.36-10.62,2.63
			c-3.07,2.27-5.08,5.59-5.65,9.37s0.37,7.55,2.63,10.62c2.27,3.07,5.59,5.08,9.37,5.65c0.98,0.15,1.94,0.19,2.89,0.14
			c0.65-0.03,1.28-0.12,1.91-0.24c0.14,0.86,0.3,1.71,0.48,2.55c0.3,1.46,0.67,2.88,1.04,4.31c0.38,1.42,0.64,2.9,1.04,4.31
			c1.13,4.01,4.22,2.74,7.34,1.38C-253.62-35.71-252.95-35.86-252.61-36.67z M-268.55-52.6c-2.48-0.37-4.66-1.69-6.15-3.7
			c-1.49-2.02-2.1-4.49-1.73-6.97c0.37-2.48,1.69-4.66,3.7-6.15c1.49-1.1,3.24-1.72,5.05-1.82c0.63-0.03,1.27,0,1.91,0.09
			c5.11,0.77,8.64,5.56,7.87,10.67C-258.65-55.36-263.44-51.83-268.55-52.6z"/>
	</g>
	<path d="M-334.8,84.9c0,0-27.6-45.84-14.64-62.64c5.59-6.72,18.24-10.8,18.24-10.8s24.72,24.96,38.4,27.6
		c11.28-0.96,13.2-10.56,13.2-10.56s-10.8,7.68-12,6.48c-1.2-1.2-34.08-16.32-35.04-23.52s12.48-29.28,16.08-28.32
		c3.6,0.96,20.64,1.38,21.6-0.03C-288-18.3-270-20.94-264-13.26s26.4,16.56,24.72,1.2c-1.68-15.36-31.92-16.8-23.52-29.28
		c0,0,3.36,0.24,3.12,2.4c-0.24,2.16,2.04-2.4,2.04-2.4s5.76,7.68,21.84,13.44s21,30.72,5.76,43.56
		c-15.24,12.84-25.2,8.76-25.2,8.76s7.92,5.52,14.88,3.84c0.96,4.2-19.08,5.88-23.64,1.08c-4.56-4.8,3.78,31.04-18,54.52h-20.34
		c0,0,6.66-20.44-6.12-23.14c-12.78-2.7-6.48,24.18-6.48,24.18H-334.8z"/>
	<g>
		<path class="st3" d="M-275.77,82.82c4.71-0.25,9.23-1.11,13.47-2.7c4.23-1.61,8.12-3.92,11.61-6.73c3.45-2.85,6.72-6.03,9.49-9.71
			c2.77-3.66,4.88-7.9,5.97-12.41l0.71,0.77c-5.67,1.08-10.92,3.72-15.56,6.98c-2.33,1.62-4.55,3.38-6.67,5.24l-3.17,2.82
			c-1.02,0.98-2.06,1.95-3.2,2.85l-0.02,0.01l-4.33,3.55l2.25-5.13c0.53-1.22,1.13-2.39,1.73-3.56c0.6-1.16,1.27-2.29,1.78-3.48
			c1.04-2.37,2.33-4.63,3.25-7.02c0.98-2.37,1.87-4.79,2.52-7.27c0.7-2.47,1.16-5,1.45-7.56l1.74,1.37c-1.9,0.4-3.78,1.24-5.58,2.3
			c-0.91,0.52-1.77,1.09-2.58,1.73c-0.8,0.65-1.61,1.45-2.58,2.01l-0.24-0.32c0.75-0.74,1.3-1.64,2.01-2.5
			c0.71-0.88,1.53-1.64,2.37-2.37c1.69-1.42,3.62-2.72,5.86-3.48l1.69-0.57l0.05,1.95c0.07,2.76-0.21,5.52-0.69,8.24
			c-0.54,2.71-1.26,5.38-2.24,7.96c-0.49,1.29-1.01,2.56-1.68,3.76c-0.62,1.22-1.27,2.43-1.94,3.62c-0.61,1.23-1.46,2.3-2.24,3.41
			c-0.8,1.1-1.62,2.18-2.49,3.23l-2.09-1.58l0.01-0.02c0.84-1.24,1.78-2.42,2.75-3.57c1.01-1.12,2.1-2.16,3.25-3.12
			c2.31-1.93,4.82-3.62,7.47-5.04c2.66-1.4,5.42-2.58,8.26-3.5c2.83-0.94,5.72-1.63,8.63-2.16l0.98-0.18l-0.27,0.95
			c-1.3,4.58-2.97,9.06-5.28,13.3c-2.28,4.25-5.29,8.2-9.12,11.29c-3.83,3.07-8.3,5.36-13.02,6.63c-4.72,1.25-9.71,1.42-14.36,0.4
			L-275.77,82.82z"/>
	</g>
	<g>
		<path class="st0" d="M-256.87-34.73c-0.69,0.24-1.41,0.37-2.16,0.37c-0.74,0-1.52-0.17-2.17-0.6c-0.65-0.45-1.09-1.15-1.26-1.89
			c-0.18-0.73-0.17-1.48-0.04-2.19c0.08,0.72,0.17,1.43,0.41,2.08c0.24,0.64,0.62,1.21,1.17,1.59c0.55,0.37,1.22,0.55,1.91,0.63
			C-258.31-34.66-257.59-34.69-256.87-34.73z"/>
	</g>
	<g>
		<g>
			<path d="M-331.57,139.23c-1.46-0.74-2.57-1.83-3.33-3.26s-1.15-3.15-1.15-5.16v-2.4c0-2.11,0.37-3.9,1.1-5.39s1.8-2.63,3.2-3.4
				s3.09-1.17,5.08-1.17c1.86,0,3.45,0.46,4.78,1.39s2.33,2.28,3.02,4.05c0.69,1.77,1.04,3.91,1.04,6.41v1.39h-14.56v-3.79h9.43
				l-0.06-0.49c-0.15-1.23-0.54-2.18-1.16-2.85s-1.45-1-2.49-1c-1.35,0-2.4,0.4-3.15,1.21s-1.12,1.95-1.12,3.42v2.71
				c0,1.45,0.41,2.57,1.22,3.36s1.95,1.19,3.42,1.19c0.75,0,1.5-0.13,2.24-0.4c0.74-0.27,1.41-0.65,2.01-1.14l3.67,3.26
				c-1.11,1.01-2.35,1.79-3.73,2.35c-1.38,0.55-2.78,0.83-4.18,0.83C-328.36,140.35-330.11,139.97-331.57,139.23z"/>
			<path d="M-307.29,133.01c0,0.52,0.15,0.92,0.44,1.2s0.71,0.42,1.26,0.42h0.94v5.41h-2.87c-1.71,0-3.04-0.49-3.98-1.48
				s-1.42-2.37-1.42-4.16v-24.18h5.62V133.01z"/>
			<path d="M-295.13,133.01c0,0.52,0.15,0.92,0.44,1.2s0.71,0.42,1.26,0.42h0.94v5.41h-2.87c-1.71,0-3.04-0.49-3.98-1.48
				s-1.42-2.37-1.42-4.16v-24.18h5.62V133.01z"/>
			<path d="M-290.85,118.75h5.29l7.16,18.5l-3.55,4.53L-290.85,118.75z M-271.18,118.75l-9.47,26.27c-0.36,0.97-0.8,1.74-1.32,2.31
				c-0.53,0.57-1.18,0.97-1.95,1.22s-1.73,0.37-2.86,0.37h-1.25v-5.46h1.25c0.6,0,1.1-0.13,1.51-0.4c0.4-0.27,0.71-0.7,0.91-1.3
				l7.9-23.01H-271.18z"/>
		</g>
	</g>
</g>
</svg>
