<svg id="图层_1" data-name="图层 1" xmlns="http://www.w3.org/2000/svg" viewBox="0 0 775.63 1389.9"><defs><style>.cls-1{fill:#c69c6d;}.cls-2{fill:#a67c52;}.cls-3,.cls-5{fill:none;}.cls-3{stroke:#fff;stroke-miterlimit:10;stroke-width:4px;}.cls-4{fill:#42210b;}</style></defs><title>parklogo</title><path class="cls-1" d="M414.45,402.1c-5.31,13-48.1,118.93-58.81,194.66-6.21,43.93,27.61-9.81,59.76-68,14.41-50.76,20.27-83.3,20.78-86.18Z" transform="translate(-173.37 464)"/><path class="cls-1" d="M586.5,402.1c5.31,13,48.1,118.93,58.81,194.66,6.21,43.93-27.6-9.81-59.75-68-14.42-50.76-20.28-83.3-20.79-86.18Z" transform="translate(-173.37 464)"/><path class="cls-2" d="M788.92,116.67c-49.14-43.68-55.28-82-199.37-36.61-4-.74-7.86-1.25-11.55-1.56V78l-143.78.12c-2.84-.09-6-.11-9.32,0h0c-3,.11-6.26.34-9.6.71-149.39-47.93-155.18-9.1-205.08,35.26-50.16,44.59-34.55,121.49-34.55,121.49s9.08,87.64,180.44,168.11c.06.26.09.41.09.41l6.42,4.45,37.78,26.15c.86,2.79,10.45,34.43,20.74,86.19a1378.66,1378.66,0,0,1,25,211.62c6.88,173.08-45.85,134.11-45.85,134.11l-10.32,31s43.56,44.7,115.78,21.78c43-13.67,66.94-183.32,79.23-318.13,8.1-88.91,11.15-162.67,11.31-166.56l34.48-23.87q3.56-1.59,7-3.18c176.22-80.82,185.48-170,185.48-170S838.84,161,788.92,116.67Zm-373.69,92a16,16,0,1,1,16-16A16,16,0,0,1,415.23,208.67Zm183.4-32.09a16,16,0,1,1-16,16A16,16,0,0,1,598.63,176.58Z" transform="translate(-173.37 464)"/><path class="cls-3" d="M413.92,75.58s-106.55,21.36-79.11,131.5,63,230.12,63,230.12" transform="translate(-173.37 464)"/><path class="cls-3" d="M585.37,72.35s106.55,21.37,79.11,131.5-63,230.13-63,230.13" transform="translate(-173.37 464)"/><circle class="cls-4" cx="242.13" cy="656.5" r="16.5"/><circle class="cls-4" cx="425.13" cy="656.5" r="16.5"/><ellipse class="cls-5" cx="750.63" cy="34" rx="25" ry="34"/></svg>