<svg id="Layer_1" data-name="Layer 1" xmlns="http://www.w3.org/2000/svg" viewBox="0 0 293.07 234.35"><defs><style>.cls-1{fill:#1ca0e2;}.cls-2{fill:#fff;}</style></defs><title>eele</title><path class="cls-1" d="M352.28,413.53l.06,0h0Z" transform="translate(-264.33 -337.69)"/><path class="cls-1" d="M360.84,405.21v.71A1.32,1.32,0,0,1,360.84,405.21Z" transform="translate(-264.33 -337.69)"/><path class="cls-1" d="M497.72,491.66c-.17.24-.33.5-.52.72h0l0,0h0l0,0h0C497.35,492.15,497.53,491.9,497.72,491.66Z" transform="translate(-264.33 -337.69)"/><path class="cls-1" d="M497.15,492.4l0,0h0l.28.26A1.67,1.67,0,0,0,497.15,492.4Zm.05,0c.19-.22.35-.48.52-.72-.19.24-.37.49-.58.71h.06a12,12,0,0,0,1.7,0A13.74,13.74,0,0,1,497.2,492.38Z" transform="translate(-264.33 -337.69)"/><path class="cls-1" d="M552.42,440.18a127.74,127.74,0,0,0-37.8-64.26,139.55,139.55,0,0,0-59.87-32.79c-25-6.62-50-8.26-74.84,1.11a50.66,50.66,0,0,0-16.38,9.6c-10.88,9.94-14.68,22.61-11.92,37,1.36,7.1,2.71,14.46,8.34,19.89-.92,3.17,1.8,4.67,3.12,6.81,3.42-.19,5.33,1.17,5.53,4.84a43.35,43.35,0,0,0,1.36,6.45c-1.72-.8-1.47-4.55-4.41-2.08-1.41,1.18-6.26-4.28-6.53-7.31l0-.07c-3.48.3-5.58-1.07-5.76-4.75h0c-.31-.33-.6-.66-.9-1A3.05,3.05,0,0,1,348.7,412c-1.28-2.71-4.24-3.68-5.84-5.86-5-6.83-11-4.69-17.22-2.49-3.52,1.24-7.51-.4-10.93,2.29-4.28,3.36-9.68,4.95-14.25,7.75-3.29,2-7.23,3.8-9.11,7.84a2.49,2.49,0,0,1-4,.89c-8.31,7.5-13,17.16-16.68,27.48-4.72,13.42-6.1,27.39-6.27,41.46a305.5,305.5,0,0,0,2.35,45.34c1.38.11,1.9.93,1.9,2.24,0,8.62.05,17.24-.06,25.86,0,1.31-.78,2.6-1.19,3.9,1.34,1,2.82.59,4.2.59,20.44,0,40.87-.1,61.3.1,4.42,0,5.87-1.53,6-5.79.13-5.75-.87-11.41-1-17.12-.1-5.5,2.48-7.26,7.11-4.67,2.64,1.49,5.63.86,8.13,2.3l12.57.05c3.19-.12,6.43.09,9.54-.43,4-.67,5,.87,4.85,4.56-.23,6.23.12,12.47-.16,18.69-.15,3.49,1.13,4.32,4.39,4.24,8.78-.2,17.57-.1,26.36-.11,13.42,0,26.84,0,40.27,0,2.43,0,4.22-.06,2.92-3.37a54.77,54.77,0,0,1-2.74-30.15c3.62-20,13.17-35.72,33.82-42.36a21.73,21.73,0,0,1,23.75,8c3.31,4.63,5.05,9.89,6.86,15.15a2.78,2.78,0,0,0,.89,3c.44.16,1.2.24,1.27.49a82.16,82.16,0,0,0,2.34,8.16,6.62,6.62,0,0,1-3.48,8.58,49.11,49.11,0,0,0-1.84,4.9c-2.3,8.64-12,13.16-20.71,6.31-2.4-1.88-4.28-5.92-7.53-5.07-3,.79-5.42,3.74-8.1,5.74a13.05,13.05,0,0,1-1.55,1.13c-1.3.69-1.4,1.62-.59,2.72,7,9.56,15.07,17.48,27.82,17.84,11.81.33,20.07-6.5,27.64-14.46,2-4.59,4.34-9.13,1.89-14.33-.16-.36.09-.94.23-1.4a3.23,3.23,0,0,1,.47-.79c3.09-.56,2.48,6.94,7,3.22l.05-.07c7.33-10.19,11-21.92,13.3-34A164.42,164.42,0,0,0,552.42,440.18Zm-191.58-35v.71a1.32,1.32,0,0,1,0-.71v-5C364.22,401.6,361.25,403.53,360.84,405.21ZM480.7,494.08c0-.12-.07-.24-.1-.36l.63.2Zm16.68-1.45-.28-.26h0c.21-.22.39-.47.58-.71-.17.24-.33.5-.52.72a13.74,13.74,0,0,0,1.7.05.81.81,0,0,1,.22,0l.14,0,.13,0,.25.07a2.1,2.1,0,0,1,1.1,1C499.21,494.36,498.33,493.5,497.38,492.63Zm3.43-54.83a7.42,7.42,0,0,1-7.76-7.78,7.52,7.52,0,0,1,7.81-7.75,7.63,7.63,0,0,1,7.83,7.84A7.48,7.48,0,0,1,500.81,437.8Z" transform="translate(-264.33 -337.69)"/><path class="cls-1" d="M353.11,544.06a62.27,62.27,0,0,1-8.56-.6c-3.7-.74-5.19.09-5,4.16.3,6.54,0,13.1.18,19.65.09,2.91-.84,3.88-3.8,3.86-22.37-.1-44.73,0-67.1-.09-1.55,0-4.08.66-3.24-2.44,2.55-9.46,1-19.06,1.06-28.6,0-1.11,0-2.23.07-3.35,1.38.11,1.9.93,1.9,2.24,0,8.62.05,17.24-.06,25.86,0,1.31-.78,2.6-1.19,3.9,1.34,1,2.82.59,4.2.59,20.44,0,40.87-.1,61.3.1,4.42,0,5.87-1.53,6-5.79.13-5.75-.87-11.41-1-17.12-.1-5.5,2.48-7.26,7.11-4.67C347.62,543.25,350.61,542.62,353.11,544.06Z" transform="translate(-264.33 -337.69)"/><path class="cls-1" d="M352.34,413.56h0A3.05,3.05,0,0,1,348.7,412c-1.28-2.71-4.24-3.68-5.84-5.86-5-6.83-11-4.69-17.22-2.49-3.52,1.24-7.51-.4-10.93,2.29-4.28,3.36-9.68,4.95-14.25,7.75-3.29,2-7.23,3.8-9.11,7.84a2.49,2.49,0,0,1-4,.89c8.47-10.59,20.3-15.69,32.63-20,.75-.26,1.56-.34,2.32-.57,16.68-4.83,20.29-3.43,30.06,11.73Z" transform="translate(-264.33 -337.69)"/><path class="cls-1" d="M541.31,544.27a36.88,36.88,0,0,1-9.61,13.3c2-4.59,4.34-9.13,1.89-14.33-.16-.36.09-.94.23-1.4a3.23,3.23,0,0,1,.47-.79C537.38,540.49,536.77,548,541.31,544.27Z" transform="translate(-264.33 -337.69)"/><path class="cls-1" d="M370,428.79c-1.72-.8-1.47-4.55-4.41-2.08-1.41,1.18-6.26-4.28-6.53-7.31l5.33,3.4-1.28-5.3c3.42-.19,5.33,1.17,5.53,4.84A43.35,43.35,0,0,0,370,428.79Z" transform="translate(-264.33 -337.69)"/><path class="cls-1" d="M516.56,538.46q-.06-8.62-.13-17.23c.44.16,1.2.24,1.27.49a82.16,82.16,0,0,0,2.34,8.16A6.62,6.62,0,0,1,516.56,538.46Z" transform="translate(-264.33 -337.69)"/><path class="cls-1" d="M359,419.33c-3.48.3-5.58-1.07-5.76-4.75h0C355,416.37,357.79,416.86,359,419.33Z" transform="translate(-264.33 -337.69)"/><path class="cls-1" d="M353.21,414.58h0c-.31-.33-.6-.66-.9-1l0,0h.05c.58.11.95.39.9,1Z" transform="translate(-264.33 -337.69)"/><path class="cls-1" d="M360.84,405.21v.71A1.32,1.32,0,0,1,360.84,405.21Z" transform="translate(-264.33 -337.69)"/><path class="cls-1" d="M360.84,405.21v-5C364.22,401.6,361.25,403.53,360.84,405.21Z" transform="translate(-264.33 -337.69)"/><path class="cls-2" d="M508.69,430.11a7.82,7.82,0,1,1-7.83-7.84A7.63,7.63,0,0,1,508.69,430.11Z" transform="translate(-264.33 -337.69)"/><path class="cls-1" d="M500.74,493.58c-1.53.78-2.41-.08-3.36-.95l-.28-.26h.1a13.74,13.74,0,0,0,1.7.05.81.81,0,0,1,.22,0l.14,0,.13,0,.25.07A2.1,2.1,0,0,1,500.74,493.58Z" transform="translate(-264.33 -337.69)"/><path class="cls-1" d="M481.23,493.92l-.53.16c0-.12-.07-.24-.1-.36Z" transform="translate(-264.33 -337.69)"/></svg>