<svg id="Layer_1" data-name="Layer 1" xmlns="http://www.w3.org/2000/svg" viewBox="0 0 663.57 663.57"><defs><style>.cls-1{fill:#4d4d4d;}.cls-2{fill:#3fa9f5;stroke:#4d5357;stroke-miterlimit:10;}.cls-3{fill:#0071bc;}.cls-4{fill:#404d58;}</style></defs><title>eleph</title><path class="cls-1" d="M138,771q0-325.61-.29-651.22c0-10.09,2-12.09,12.07-12.07q319.73.57,639.43,0c10.09,0,12.09,2,12.07,12.07q-.56,319.72,0,639.43c0,10.09-2,12.09-12.07,12.07Q463.56,770.68,138,771ZM647.56,455.17c12.52-3.47,18.61-11.2,17.83-24.67-.67-11.72.16-23.52-.2-35.27-2.16-70.67-58.47-131.5-123.63-133.7a3.05,3.05,0,0,0-2.83-.22c-11.75-.2-23.5-.57-35.25-.57-67.58,0-120.8,41.77-135.79,107.49-7.27,31.87-2.33,64.47-3.09,96.72-.21,8.86-2.4,15-10.32,19.06-13,6.73-25.8,13.94-38.9,20.51-8.48,4.25-17.35,7.72-26,11.53,22.29,3.1,43.14-.2,63.37-6.73,9.28-3,13.21-3.7,16.52,8.49,16.2,59.48,66,97.87,127.9,100.71,2.55,0,3.14-1.56,3.07-3.7l-.06-41.35c.14-1.89-.8-2.66-2.62-2.53-44.73-8.33-72-33.43-79.59-73.12-4.67-24.54,3.23-36.53,28.09-39.57,16-2,32.23-1.6,48.35-2.28,2.34.18,3.66-1.19,4.63-3.08,14-24.42,24.18-51.1,44.16-72.57q-10.85,34.77-21.7,69.54c-1.88,4.2-.72,6.74,4.08,6.67C566.21,456,606.92,458.51,647.56,455.17Z" transform="translate(-137.66 -107.66)"/><path class="cls-2" d="M500.14,573.47l.06,41.35-3.07,3.7c-61.86-2.84-111.7-41.23-127.9-100.71-3.31-12.19-7.24-11.49-16.52-8.49-20.23,6.53-41.08,9.83-63.37,6.73,8.69-3.81,17.56-7.28,26-11.53,13.1-6.57,25.88-13.78,38.9-20.51,7.92-4.09,10.11-10.2,10.32-19.06.76-32.25-4.18-64.85,3.09-96.72,15-65.72,68.21-107.49,135.79-107.49,11.75,0,23.5.37,35.25.57l2.83.22c65.16,2.2,121.47,63,123.63,133.7.36,11.75-.47,23.55.2,35.27.78,13.47-5.31,21.2-17.83,24.67-5.28-3.6-11.29-2.4-17-2.42-30.18-.1-60.36-.05-90.54-.05-6.32,0-12.71.44-18.52-2.84q10.85-34.77,21.7-69.54c-20,21.47-30.13,48.15-44.16,72.58L494.37,456c-16.12.68-32.38.32-48.35,2.28-24.86,3-32.76,15-28.09,39.57,7.54,39.69,34.86,64.79,79.59,73.12Zm-39.25-184c-1.42-3.6-2.69-7.43-7.56-7.41-4.55,0-7.59,2.69-7.58,6.94,0,4,2.46,7.41,7.16,7.47C457.46,396.56,459.66,393.49,460.89,389.51Z" transform="translate(-137.66 -107.66)"/><path class="cls-3" d="M521.46,449.86c5.81,3.28,12.2,2.84,18.52,2.84,30.18,0,60.36-.05,90.54.05,5.75,0,11.76-1.18,17,2.42-40.64,3.34-81.35.79-122,1.36C520.74,456.6,519.58,454.06,521.46,449.86Z" transform="translate(-137.66 -107.66)"/><path class="cls-4" d="M541.56,261.53l-2.83-.22A3.05,3.05,0,0,1,541.56,261.53Z" transform="translate(-137.66 -107.66)"/><path class="cls-4" d="M494.37,456,499,452.9C498,454.78,496.71,456.15,494.37,456Z" transform="translate(-137.66 -107.66)"/><path class="cls-4" d="M500.14,573.47l-2.62-2.53C499.34,570.81,500.28,571.58,500.14,573.47Z" transform="translate(-137.66 -107.66)"/><path class="cls-4" d="M497.13,618.52l3.07-3.7C500.27,617,499.68,618.55,497.13,618.52Z" transform="translate(-137.66 -107.66)"/><path class="cls-1" d="M460.9,389.53c-1.24,4-3.44,7-8,7-4.7-.06-7.16-3.45-7.16-7.47,0-4.25,3-6.93,7.58-6.94C458.2,382.08,459.47,385.91,460.9,389.53Z" transform="translate(-137.66 -107.66)"/></svg>