<svg id="Layer_1" data-name="Layer 1" xmlns="http://www.w3.org/2000/svg" viewBox="0 0 376.12 357.78"><defs><style>.cls-1{fill:#3fa9f5;}.cls-2{fill:#404d58;}</style></defs><title>elle</title><path class="cls-1" d="M500.14,573.47l.06,41.35-3.07,3.7c-61.86-2.84-111.7-41.23-127.9-100.71-3.31-12.19-7.24-11.49-16.52-8.49-20.23,6.53-41.08,9.83-63.37,6.73,8.69-3.81,17.56-7.28,26-11.53,13.1-6.57,25.88-13.78,38.9-20.51,7.92-4.09,10.11-10.2,10.32-19.06.76-32.25-4.18-64.85,3.09-96.72,15-65.72,68.21-107.49,135.79-107.49,11.75,0,23.5.37,35.25.57l2.83.22c65.16,2.2,121.47,63,123.63,133.7.36,11.75-.47,23.55.2,35.27.78,13.47-5.31,21.2-17.83,24.67-5.28-3.6-11.29-2.4-17-2.42-30.18-.1-60.36-.05-90.54-.05-6.32,0-12.71.44-18.52-2.84q10.85-34.77,21.7-69.54c-20,21.47-30.13,48.15-44.16,72.58L494.37,456c-16.12.68-32.38.32-48.35,2.28-24.86,3-32.76,15-28.09,39.57,7.54,39.69,34.86,64.79,79.59,73.12Zm-39.25-184c-1.42-3.6-2.69-7.43-7.56-7.41-4.55,0-7.59,2.69-7.58,6.94,0,4,2.46,7.41,7.16,7.47C457.46,396.56,459.66,393.49,460.89,389.51Z" transform="translate(-289.34 -260.74)"/><path class="cls-1" d="M521.46,449.86c5.81,3.28,12.2,2.84,18.52,2.84,30.18,0,60.36-.05,90.54.05,5.75,0,11.76-1.18,17,2.42-40.64,3.34-81.35.79-122,1.36C520.74,456.6,519.58,454.06,521.46,449.86Z" transform="translate(-289.34 -260.74)"/><path class="cls-2" d="M541.56,261.53l-2.83-.22A3.05,3.05,0,0,1,541.56,261.53Z" transform="translate(-289.34 -260.74)"/><path class="cls-2" d="M500.14,573.47l-2.62-2.53C499.34,570.81,500.28,571.58,500.14,573.47Z" transform="translate(-289.34 -260.74)"/><path class="cls-2" d="M497.13,618.52l3.07-3.7C500.27,617,499.68,618.55,497.13,618.52Z" transform="translate(-289.34 -260.74)"/></svg>