<svg id="svg" version="1.1" xmlns="http://www.w3.org/2000/svg" xmlns:xlink="http://www.w3.org/1999/xlink" width="400" height="400" viewBox="0, 0, 400,400"><g id="svgg"><path id="path0" d="M192.167 68.865 C 143.749 72.545,108.174 110.440,108.174 158.333 C 108.174 233.551,194.731 275.028,253.610 228.023 C 300.203 190.828,297.507 118.810,248.239 84.547 C 232.436 73.558,210.637 67.461,192.167 68.865 M208.333 73.194 C 253.597 78.578,287.492 120.734,282.990 166.048 C 275.769 238.731,188.414 270.283,136.798 218.851 C 79.156 161.413,127.221 63.546,208.333 73.194 M152.667 115.333 C 152.667 115.885,152.371 116.629,152.007 116.993 C 151.350 117.650,151.350 117.657,152.019 118.790 C 153.093 120.612,152.333 122.028,148.976 124.456 C 146.827 126.010,145.931 126.944,144.439 129.186 L 142.580 131.981 142.413 135.755 C 142.141 141.921,143.859 145.487,148.963 149.351 C 151.356 151.164,157.337 154.333,158.364 154.333 C 158.714 154.333,159.000 154.466,159.000 154.628 C 159.000 155.714,149.594 155.625,145.393 154.499 C 141.044 153.334,140.731 153.479,144.000 155.144 C 149.323 157.855,157.697 158.698,164.333 157.190 C 167.465 156.478,167.359 156.482,172.417 156.844 C 176.544 157.139,176.495 157.088,174.320 158.805 C 171.945 160.678,172.419 161.316,176.194 161.330 C 176.760 161.332,177.335 161.446,177.472 161.583 C 177.610 161.721,177.884 161.833,178.081 161.833 C 180.066 161.833,179.680 171.728,177.577 174.767 C 177.222 175.280,176.733 176.452,176.490 177.370 C 176.248 178.289,175.462 179.819,174.745 180.770 C 173.081 182.976,171.000 188.445,171.000 190.614 C 171.000 193.290,170.119 195.600,168.471 197.249 C 165.576 200.143,168.249 202.333,174.675 202.333 L 177.917 202.333 178.125 201.292 C 178.240 200.719,178.333 199.370,178.333 198.295 C 178.333 195.900,179.433 191.687,180.585 189.667 C 182.451 186.396,184.099 184.280,185.433 183.438 C 187.765 181.968,190.987 178.900,191.406 177.750 C 191.727 176.867,192.333 176.248,192.333 176.802 C 192.333 176.877,193.165 179.676,194.182 183.022 C 197.009 192.321,197.565 195.725,196.489 197.147 C 196.220 197.503,195.995 198.103,195.989 198.480 C 195.984 198.858,195.759 199.458,195.489 199.814 C 193.906 201.907,194.804 202.335,200.777 202.328 C 206.530 202.322,206.565 202.306,206.028 199.949 C 205.805 198.969,205.505 197.263,205.362 196.159 C 205.219 195.055,204.942 193.630,204.746 192.993 C 204.357 191.724,203.922 174.664,204.279 174.671 C 204.401 174.673,205.475 174.982,206.667 175.358 C 210.585 176.593,216.443 177.751,219.832 177.960 L 223.164 178.167 223.550 179.833 C 224.040 181.949,224.098 185.032,223.669 186.161 C 223.487 186.640,223.286 188.637,223.223 190.599 C 223.068 195.454,222.659 196.596,220.280 198.829 C 216.940 201.965,217.406 202.333,224.725 202.333 L 230.316 202.333 230.846 201.308 C 231.521 200.003,232.115 196.847,231.971 195.333 C 231.604 191.470,233.452 184.468,235.706 181.177 C 236.758 179.642,237.044 180.012,237.954 184.095 C 238.354 185.890,239.296 188.740,240.046 190.429 C 241.864 194.520,243.159 198.080,243.679 200.417 L 244.106 202.333 246.970 202.332 C 252.029 202.330,255.158 198.539,252.333 195.833 C 251.783 195.306,251.333 194.651,251.333 194.377 C 251.333 194.102,250.471 192.451,249.417 190.708 L 247.500 187.538 247.623 176.352 C 247.740 165.724,247.833 164.682,248.667 164.675 C 248.758 164.675,250.108 166.719,251.667 169.218 L 254.500 173.761 254.600 172.078 C 254.679 170.742,254.391 169.571,253.205 166.399 C 252.383 164.201,251.607 161.825,251.480 161.118 C 251.354 160.412,250.978 159.533,250.644 159.165 C 250.310 158.797,249.374 157.072,248.563 155.332 C 246.355 150.589,243.919 147.693,239.992 145.145 C 238.214 143.991,236.251 142.460,235.630 141.741 C 231.423 136.876,222.332 135.487,210.167 137.851 C 202.706 139.300,195.534 137.348,190.325 132.450 C 186.841 129.173,180.366 129.104,175.399 132.291 C 174.506 132.864,173.619 133.333,173.428 133.333 C 173.238 133.333,172.898 133.554,172.674 133.825 C 172.450 134.095,171.719 134.417,171.050 134.540 C 168.575 134.996,167.202 135.713,165.178 137.607 C 160.893 141.615,152.990 142.005,150.056 138.353 C 147.241 134.851,147.962 131.975,153.014 126.545 C 156.876 122.395,157.594 121.071,157.037 119.129 C 156.020 115.584,152.667 112.671,152.667 115.333 M193.074 267.186 C 192.017 267.926,191.896 287.501,192.943 288.448 C 193.735 289.165,194.430 289.147,195.115 288.390 C 195.999 287.413,195.946 268.023,195.057 267.218 C 194.302 266.535,194.010 266.530,193.074 267.186 M201.147 267.139 C 200.483 267.625,199.944 284.261,200.496 287.246 C 200.745 288.595,201.758 289.217,202.875 288.708 L 203.667 288.348 203.667 277.852 C 203.667 267.817,203.638 267.342,203.022 267.012 C 202.174 266.558,201.919 266.575,201.147 267.139 M176.074 268.519 C 175.338 269.034,175.333 269.100,175.333 278.500 C 175.333 290.093,174.629 289.000,182.096 289.000 C 187.747 289.000,188.667 288.791,188.667 287.507 C 188.667 286.006,187.607 285.667,182.926 285.667 L 178.667 285.667 178.667 282.861 L 178.667 280.056 182.679 279.945 C 186.839 279.829,187.316 279.658,187.328 278.274 C 187.340 276.958,186.462 276.667,182.476 276.667 L 178.667 276.667 178.667 274.025 L 178.667 271.384 183.346 271.275 C 188.325 271.160,188.650 271.047,188.662 269.428 C 188.670 268.216,187.678 268.000,182.096 268.000 C 177.856 268.000,176.669 268.102,176.074 268.519 M208.333 273.667 C 206.847 275.153,207.499 285.624,209.204 287.650 C 210.716 289.447,215.348 289.756,216.682 288.149 C 217.314 287.387,217.667 287.582,217.667 288.692 C 217.667 291.280,215.067 292.169,210.446 291.163 C 208.110 290.654,207.787 293.408,210.071 294.371 C 213.909 295.990,219.084 294.274,220.487 290.915 C 221.253 289.083,221.243 274.291,220.476 273.524 C 218.557 271.604,217.667 273.449,217.667 279.348 C 217.667 285.356,217.349 286.009,214.432 285.989 C 211.447 285.970,211.000 285.021,211.000 278.697 C 211.000 273.188,210.242 271.758,208.333 273.667 " stroke="none" fill="#0564b3" fill-rule="evenodd"></path><path id="path1" d="M0.000 200.000 L 0.000 400.000 200.000 400.000 L 400.000 400.000 400.000 200.000 L 400.000 0.000 200.000 0.000 L 0.000 0.000 0.000 200.000 M211.000 69.468 C 263.265 77.683,297.287 128.731,284.636 179.955 C 270.942 235.397,209.065 264.131,157.833 238.837 C 94.806 207.720,90.379 119.742,149.944 82.033 C 166.925 71.283,191.010 66.326,211.000 69.468 M189.833 73.022 C 123.060 79.294,88.988 155.940,129.066 209.718 C 170.441 265.236,258.175 250.201,279.137 184.001 C 297.434 126.220,250.073 67.363,189.833 73.022 M154.874 114.930 C 156.950 116.731,157.999 120.466,156.971 122.388 C 156.771 122.761,155.104 124.664,153.265 126.616 C 147.494 132.746,147.186 137.239,152.351 139.942 C 155.353 141.513,161.984 140.235,164.930 137.518 C 167.130 135.488,168.279 134.838,170.240 134.512 C 171.014 134.383,172.013 133.990,172.459 133.639 C 172.906 133.288,173.473 132.996,173.719 132.991 C 173.965 132.986,174.733 132.553,175.425 132.029 C 176.195 131.446,177.960 130.720,179.978 130.156 L 183.273 129.236 186.220 130.147 C 188.285 130.784,189.516 131.383,190.333 132.146 C 195.989 137.426,202.253 138.961,211.667 137.374 C 223.412 135.394,231.589 136.788,235.714 141.474 C 236.426 142.284,238.357 143.797,240.004 144.836 C 243.807 147.235,246.015 149.840,248.693 155.083 C 249.792 157.237,250.826 159.000,250.989 159.000 C 251.152 159.000,251.463 159.862,251.679 160.917 C 251.895 161.971,252.565 164.108,253.168 165.667 C 254.783 169.837,255.059 170.975,254.941 172.953 L 254.833 174.739 251.833 169.979 C 250.183 167.362,248.670 165.166,248.470 165.100 C 248.216 165.016,248.045 168.295,247.898 176.024 C 247.664 188.321,247.562 187.601,250.064 191.254 C 250.600 192.035,251.203 193.160,251.405 193.754 C 251.607 194.348,252.210 195.339,252.745 195.958 C 253.780 197.154,253.788 197.496,252.834 199.780 C 251.982 201.820,250.718 202.359,247.032 202.255 L 243.897 202.167 243.137 199.301 C 242.720 197.725,241.712 194.950,240.899 193.135 C 239.008 188.912,238.165 186.473,237.478 183.235 C 236.659 179.375,235.795 180.272,233.354 187.516 C 231.909 191.806,231.827 192.354,232.186 195.374 C 232.334 196.616,232.284 197.325,232.038 197.477 C 231.834 197.603,231.667 198.227,231.667 198.864 C 231.667 199.500,231.449 200.542,231.184 201.177 L 230.701 202.333 224.750 202.333 C 217.076 202.333,216.521 201.940,219.880 198.879 C 222.312 196.663,222.707 195.661,223.054 190.833 C 223.212 188.633,223.433 185.721,223.545 184.362 C 223.667 182.881,223.589 181.177,223.350 180.112 L 222.952 178.333 220.654 178.333 C 217.933 178.333,210.158 176.738,204.883 175.097 C 204.212 174.888,204.310 189.821,205.002 193.333 C 205.165 194.158,205.606 196.385,205.982 198.282 C 206.847 202.642,207.252 202.333,200.653 202.333 L 195.013 202.333 194.808 201.518 C 194.682 201.016,194.808 200.411,195.135 199.944 C 195.427 199.527,195.667 198.872,195.667 198.490 C 195.667 198.107,195.887 197.503,196.156 197.147 C 197.258 195.690,196.735 192.320,193.997 183.250 C 192.219 177.359,191.858 176.622,191.482 178.121 C 191.267 178.978,187.443 182.565,185.559 183.676 C 181.971 185.793,178.333 193.867,178.333 199.714 L 178.333 202.399 173.851 202.283 L 169.370 202.167 168.185 201.018 C 166.652 199.531,166.690 198.733,168.381 196.991 C 169.919 195.406,170.667 193.437,170.667 190.972 C 170.667 188.691,172.774 183.047,174.503 180.699 C 175.332 179.572,176.071 178.092,176.318 177.065 C 176.547 176.111,176.885 175.238,177.071 175.123 C 178.172 174.442,179.000 171.283,179.000 167.764 C 179.000 162.373,178.347 161.333,174.961 161.333 C 171.855 161.333,171.631 160.784,173.914 158.763 L 175.500 157.359 173.833 157.344 C 172.917 157.335,171.236 157.177,170.098 156.993 C 168.315 156.703,167.441 156.777,163.765 157.531 C 156.660 158.987,149.718 158.255,144.083 155.455 C 139.361 153.108,139.827 152.785,145.705 154.331 C 148.913 155.175,150.119 155.329,153.500 155.326 C 157.480 155.323,159.421 154.912,157.667 154.444 C 154.647 153.638,147.720 149.126,145.640 146.610 C 142.496 142.807,141.909 140.865,142.211 135.261 L 142.396 131.833 144.253 129.048 C 145.720 126.848,146.655 125.867,148.703 124.381 C 152.066 121.940,152.770 120.629,151.695 118.806 L 150.970 117.578 151.652 116.942 C 152.027 116.593,152.333 116.025,152.333 115.681 C 152.333 113.813,153.269 113.537,154.874 114.930 M195.476 267.190 C 195.929 267.644,196.000 269.079,196.000 277.833 C 196.000 288.876,195.979 289.000,194.086 289.000 C 192.018 289.000,192.000 288.902,192.000 277.891 C 192.000 269.049,192.064 267.815,192.552 267.276 C 193.228 266.528,194.769 266.483,195.476 267.190 M203.908 267.667 C 204.497 268.824,204.481 286.823,203.891 288.014 C 203.590 288.620,203.170 288.860,202.274 288.935 C 200.052 289.121,200.000 288.867,200.000 277.833 C 200.000 266.799,200.052 266.545,202.274 266.732 C 203.173 266.807,203.594 267.048,203.908 267.667 M188.600 268.400 C 188.820 268.620,189.000 269.190,189.000 269.667 C 189.000 271.183,188.528 271.333,183.767 271.333 L 179.333 271.333 179.333 274.000 L 179.333 276.667 183.100 276.667 C 187.156 276.667,187.667 276.853,187.667 278.333 C 187.667 279.814,187.156 280.000,183.100 280.000 L 179.333 280.000 179.333 282.833 L 179.333 285.667 183.522 285.667 C 188.661 285.667,190.482 286.718,188.600 288.600 C 187.915 289.285,176.385 289.150,175.610 288.448 C 174.721 287.644,174.669 269.585,175.552 268.610 C 176.235 267.854,187.867 267.667,188.600 268.400 M210.897 273.417 C 211.045 273.646,211.242 276.181,211.333 279.049 C 211.517 284.799,211.731 285.408,213.723 285.846 C 216.570 286.471,217.333 285.035,217.333 279.058 C 217.333 273.799,217.613 273.000,219.452 273.000 C 221.316 273.000,221.333 273.082,221.333 281.859 C 221.333 290.637,221.207 291.387,219.444 293.066 C 216.000 296.346,206.982 295.388,208.314 291.884 C 208.753 290.731,209.735 290.525,211.693 291.175 C 214.423 292.082,217.333 290.967,217.333 289.015 C 217.333 288.217,217.127 288.189,216.000 288.833 C 213.416 290.311,209.459 289.066,208.083 286.343 C 207.084 284.366,206.933 274.661,207.885 273.610 C 208.518 272.910,210.487 272.784,210.897 273.417 " stroke="none" fill="#fb9c23" fill-rule="evenodd"></path><path id="path2" d="M283.084 155.500 C 283.088 156.233,283.156 156.494,283.236 156.079 C 283.315 155.665,283.312 155.065,283.229 154.746 C 283.146 154.427,283.080 154.767,283.084 155.500 M283.084 161.167 C 283.088 161.900,283.156 162.161,283.236 161.746 C 283.315 161.331,283.312 160.731,283.229 160.413 C 283.146 160.094,283.080 160.433,283.084 161.167 M195.814 277.833 C 195.814 283.150,195.860 285.278,195.916 282.563 C 195.972 279.848,195.972 275.498,195.916 272.896 C 195.860 270.295,195.814 272.517,195.814 277.833 M211.131 278.667 C 211.131 281.142,211.183 282.154,211.247 280.917 C 211.311 279.679,211.311 277.654,211.247 276.417 C 211.183 275.179,211.131 276.192,211.131 278.667 " stroke="none" fill="#988761" fill-rule="evenodd"></path><path id="path3" d="M195.587 72.569 C 196.002 72.649,196.602 72.646,196.921 72.562 C 197.239 72.479,196.900 72.414,196.167 72.417 C 195.433 72.421,195.173 72.489,195.587 72.569 M198.254 72.569 C 198.669 72.649,199.269 72.646,199.587 72.562 C 199.906 72.479,199.567 72.414,198.833 72.417 C 198.100 72.421,197.839 72.489,198.254 72.569 M153.156 126.417 L 151.167 128.500 153.250 126.510 C 155.185 124.662,155.486 124.333,155.240 124.333 C 155.188 124.333,154.250 125.271,153.156 126.417 M107.773 158.333 C 107.773 159.525,107.834 160.012,107.908 159.417 C 107.982 158.821,107.982 157.846,107.908 157.250 C 107.834 156.654,107.773 157.142,107.773 158.333 M173.000 157.186 C 174.262 157.461,176.000 157.507,176.000 157.266 C 176.000 157.120,175.213 157.017,174.250 157.039 C 173.287 157.060,172.725 157.126,173.000 157.186 M157.750 158.230 C 158.071 158.314,158.596 158.314,158.917 158.230 C 159.237 158.146,158.975 158.077,158.333 158.077 C 157.692 158.077,157.429 158.146,157.750 158.230 M179.126 167.667 C 179.126 169.775,179.180 170.637,179.246 169.583 C 179.312 168.529,179.312 166.804,179.246 165.750 C 179.180 164.696,179.126 165.558,179.126 167.667 M204.103 177.167 C 204.105 178.267,204.167 178.676,204.242 178.077 C 204.316 177.478,204.314 176.578,204.238 176.077 C 204.162 175.576,204.101 176.067,204.103 177.167 M204.411 191.333 C 204.411 191.975,204.479 192.237,204.563 191.917 C 204.647 191.596,204.647 191.071,204.563 190.750 C 204.479 190.429,204.411 190.692,204.411 191.333 M167.000 199.771 C 167.000 199.828,167.487 200.316,168.083 200.854 L 169.167 201.833 168.188 200.750 C 167.275 199.740,167.000 199.513,167.000 199.771 M203.814 277.833 C 203.814 283.333,203.860 285.630,203.916 282.937 C 203.972 280.244,203.972 275.744,203.916 272.937 C 203.860 270.130,203.815 272.333,203.814 277.833 M178.783 274.000 C 178.783 275.558,178.841 276.196,178.911 275.417 C 178.981 274.637,178.981 273.362,178.911 272.583 C 178.841 271.804,178.783 272.442,178.783 274.000 M221.142 281.500 C 221.142 285.533,221.190 287.138,221.249 285.065 C 221.308 282.992,221.307 279.692,221.249 277.732 C 221.190 275.771,221.142 277.467,221.142 281.500 M178.785 282.833 C 178.784 284.483,178.840 285.200,178.910 284.427 C 178.980 283.653,178.981 282.303,178.912 281.427 C 178.843 280.550,178.786 281.183,178.785 282.833 " stroke="none" fill="#747c74" fill-rule="evenodd"></path><path id="path4" d="M200.147 277.833 C 200.147 283.150,200.193 285.278,200.249 282.563 C 200.305 279.848,200.305 275.498,200.249 272.896 C 200.193 270.295,200.147 272.517,200.147 277.833 M217.463 278.833 C 217.463 281.217,217.517 282.148,217.581 280.903 C 217.645 279.658,217.645 277.708,217.580 276.569 C 217.515 275.431,217.462 276.450,217.463 278.833 " stroke="none" fill="#e19434" fill-rule="evenodd"></path><path id="path5" d="M254.767 172.667 C 254.767 173.675,254.829 174.088,254.905 173.583 C 254.982 173.079,254.982 172.254,254.905 171.750 C 254.829 171.246,254.767 171.658,254.767 172.667 M219.417 178.243 C 220.104 178.315,221.229 178.315,221.917 178.243 C 222.604 178.171,222.042 178.112,220.667 178.112 C 219.292 178.112,218.729 178.171,219.417 178.243 M204.437 188.500 C 204.438 189.600,204.501 190.010,204.575 189.411 C 204.649 188.812,204.648 187.912,204.572 187.411 C 204.495 186.910,204.435 187.400,204.437 188.500 M170.757 190.667 C 170.757 191.492,170.822 191.829,170.902 191.417 C 170.981 191.004,170.981 190.329,170.902 189.917 C 170.822 189.504,170.757 189.842,170.757 190.667 M196.744 195.000 C 196.744 195.642,196.813 195.904,196.896 195.583 C 196.980 195.262,196.980 194.737,196.896 194.417 C 196.813 194.096,196.744 194.358,196.744 195.000 " stroke="none" fill="#7e8474" fill-rule="evenodd"></path><path id="path6" d="M189.000 131.104 C 189.000 131.162,189.487 131.649,190.083 132.188 L 191.167 133.167 190.188 132.083 C 189.275 131.074,189.000 130.847,189.000 131.104 M207.467 279.333 C 207.467 282.175,207.519 283.337,207.581 281.917 C 207.644 280.496,207.644 278.171,207.581 276.750 C 207.519 275.329,207.467 276.492,207.467 279.333 " stroke="none" fill="#cc933f" fill-rule="evenodd"></path><path id="path7" d="M257.000 96.771 C 257.000 96.828,257.487 97.316,258.083 97.854 L 259.167 98.833 258.188 97.750 C 257.275 96.740,257.000 96.513,257.000 96.771 M222.088 136.573 C 222.595 136.649,223.345 136.647,223.755 136.568 C 224.165 136.489,223.750 136.426,222.833 136.429 C 221.917 136.431,221.581 136.496,222.088 136.573 M142.084 138.167 C 142.088 138.900,142.156 139.161,142.236 138.746 C 142.315 138.331,142.312 137.731,142.229 137.413 C 142.146 137.094,142.080 137.433,142.084 138.167 M283.100 158.333 C 283.100 159.342,283.162 159.754,283.239 159.250 C 283.315 158.746,283.315 157.921,283.239 157.417 C 283.162 156.912,283.100 157.325,283.100 158.333 M247.809 172.667 C 247.809 176.792,247.857 178.479,247.916 176.417 C 247.974 174.354,247.974 170.979,247.916 168.917 C 247.857 166.854,247.809 168.542,247.809 172.667 M223.757 183.667 C 223.757 184.492,223.822 184.829,223.902 184.417 C 223.981 184.004,223.981 183.329,223.902 182.917 C 223.822 182.504,223.757 182.842,223.757 183.667 M204.437 184.833 C 204.438 185.933,204.501 186.343,204.575 185.744 C 204.649 185.145,204.648 184.245,204.572 183.744 C 204.495 183.243,204.435 183.733,204.437 184.833 M247.429 184.500 C 247.431 185.417,247.496 185.752,247.573 185.245 C 247.649 184.739,247.647 183.989,247.568 183.579 C 247.489 183.169,247.426 183.583,247.429 184.500 M257.812 219.083 L 256.833 220.167 257.917 219.188 C 258.512 218.649,259.000 218.162,259.000 218.104 C 259.000 217.847,258.725 218.074,257.812 219.083 M192.147 277.833 C 192.147 283.150,192.193 285.278,192.249 282.563 C 192.305 279.848,192.305 275.498,192.249 272.896 C 192.193 270.295,192.147 272.517,192.147 277.833 M175.146 278.500 C 175.146 283.450,175.192 285.521,175.249 283.103 C 175.306 280.685,175.306 276.635,175.249 274.103 C 175.193 271.571,175.146 273.550,175.146 278.500 " stroke="none" fill="#bc8c4c" fill-rule="evenodd"></path><path id="path8" d="M204.146 277.167 C 204.146 282.117,204.192 284.188,204.249 281.770 C 204.306 279.352,204.306 275.302,204.249 272.770 C 204.193 270.238,204.146 272.217,204.146 277.167 M179.116 274.000 C 179.116 275.558,179.174 276.196,179.244 275.417 C 179.314 274.637,179.314 273.362,179.244 272.583 C 179.174 271.804,179.116 272.442,179.116 274.000 M179.118 282.833 C 179.117 284.483,179.174 285.200,179.244 284.427 C 179.313 283.653,179.314 282.303,179.245 281.427 C 179.177 280.550,179.119 281.183,179.118 282.833 " stroke="none" fill="#e49c34" fill-rule="evenodd"></path></g></svg>