<svg id="svg" version="1.1" xmlns="http://www.w3.org/2000/svg" xmlns:xlink="http://www.w3.org/1999/xlink" width="400" height="400" viewBox="0, 0, 400,400"><g id="svgg"><path id="path0" d="M187.833 68.996 C 186.917 69.138,185.342 69.361,184.333 69.493 C 183.325 69.624,182.415 69.784,182.310 69.848 C 182.206 69.912,181.381 70.062,180.477 70.181 C 172.493 71.229,158.402 76.639,150.667 81.627 C 149.658 82.277,148.483 83.000,148.054 83.233 C 144.286 85.284,127.667 100.288,127.667 101.639 C 127.667 101.788,127.212 102.417,126.657 103.038 C 121.934 108.319,114.656 122.041,111.915 130.833 C 111.208 133.098,110.072 137.278,109.830 138.500 C 109.269 141.335,108.699 144.700,108.503 146.333 C 108.382 147.342,108.207 148.767,108.113 149.500 C 107.206 156.624,107.917 168.505,109.830 178.167 C 116.640 212.565,149.162 242.746,184.167 247.153 C 185.083 247.268,186.733 247.498,187.833 247.664 C 191.774 248.259,207.381 247.857,211.825 247.047 C 239.636 241.975,261.884 226.467,275.650 202.557 C 288.076 180.976,290.734 152.352,282.449 129.341 C 281.821 127.595,281.002 125.314,280.630 124.273 C 271.820 99.596,243.887 75.949,217.333 70.687 C 216.325 70.487,215.125 70.249,214.667 70.157 C 209.082 69.042,207.368 68.899,198.667 68.821 C 193.625 68.776,188.750 68.855,187.833 68.996 M205.167 73.044 C 215.504 74.070,225.777 76.930,234.667 81.257 C 238.151 82.953,245.928 87.425,246.333 87.966 C 246.425 88.089,247.318 88.781,248.317 89.506 C 259.259 97.434,268.498 108.578,274.459 121.038 C 279.271 131.097,281.167 137.889,282.825 151.000 C 283.070 152.935,283.072 163.711,282.828 165.667 C 281.200 178.707,279.222 185.736,274.297 195.967 C 272.476 199.749,267.008 208.788,266.008 209.667 C 265.904 209.758,265.007 210.883,264.015 212.167 C 260.547 216.651,256.454 220.686,250.895 225.098 C 248.845 226.726,246.936 228.241,246.653 228.466 C 230.035 241.673,200.612 247.158,177.000 241.449 C 166.597 238.933,148.664 230.290,145.000 226.025 C 144.908 225.918,143.783 224.991,142.500 223.964 C 115.932 202.707,104.953 163.334,116.484 130.667 C 121.384 116.785,128.366 105.960,138.820 96.036 C 140.096 94.824,141.570 93.421,142.096 92.917 C 142.621 92.412,143.137 92.000,143.241 92.000 C 143.346 92.000,144.047 91.503,144.799 90.895 C 160.970 77.828,184.191 70.961,205.167 73.044 M152.536 114.527 C 152.424 114.817,152.333 115.336,152.333 115.681 C 152.333 116.025,152.027 116.593,151.652 116.942 L 150.970 117.578 151.695 118.806 C 152.770 120.629,152.066 121.940,148.703 124.381 C 146.655 125.867,145.720 126.848,144.253 129.048 L 142.396 131.833 142.211 135.261 C 141.909 140.865,142.496 142.807,145.640 146.610 C 147.720 149.126,154.647 153.638,157.667 154.444 C 159.421 154.912,157.480 155.323,153.500 155.326 C 150.119 155.329,148.913 155.175,145.705 154.331 C 139.827 152.785,139.361 153.108,144.083 155.455 C 149.718 158.255,156.660 158.987,163.765 157.531 C 167.441 156.777,168.315 156.703,170.098 156.993 C 171.236 157.177,172.917 157.335,173.833 157.344 L 175.500 157.359 173.914 158.763 C 171.631 160.784,171.855 161.333,174.961 161.333 C 178.347 161.333,179.000 162.373,179.000 167.764 C 179.000 171.283,178.172 174.442,177.071 175.123 C 176.885 175.238,176.547 176.111,176.318 177.065 C 176.071 178.092,175.332 179.572,174.503 180.699 C 172.774 183.047,170.667 188.691,170.667 190.972 C 170.667 193.437,169.919 195.406,168.381 196.991 C 166.690 198.733,166.652 199.531,168.185 201.018 L 169.370 202.167 173.851 202.283 L 178.333 202.399 178.333 199.714 C 178.333 193.867,181.971 185.793,185.559 183.676 C 187.443 182.565,191.267 178.978,191.482 178.121 C 191.858 176.622,192.219 177.359,193.997 183.250 C 196.735 192.320,197.258 195.690,196.156 197.147 C 195.887 197.503,195.667 198.107,195.667 198.490 C 195.667 198.872,195.427 199.527,195.135 199.944 C 194.808 200.411,194.682 201.016,194.808 201.518 L 195.013 202.333 200.653 202.333 C 207.252 202.333,206.847 202.642,205.982 198.282 C 205.606 196.385,205.165 194.158,205.002 193.333 C 204.310 189.821,204.212 174.888,204.883 175.097 C 210.158 176.738,217.933 178.333,220.654 178.333 L 222.952 178.333 223.350 180.112 C 223.589 181.177,223.667 182.881,223.545 184.362 C 223.433 185.721,223.212 188.633,223.054 190.833 C 222.707 195.661,222.312 196.663,219.880 198.879 C 216.521 201.940,217.076 202.333,224.750 202.333 L 230.701 202.333 231.184 201.177 C 231.449 200.542,231.667 199.500,231.667 198.864 C 231.667 198.227,231.834 197.603,232.038 197.477 C 232.284 197.325,232.334 196.616,232.186 195.374 C 231.827 192.354,231.909 191.806,233.354 187.516 C 235.795 180.272,236.659 179.375,237.478 183.235 C 238.165 186.473,239.008 188.912,240.899 193.135 C 241.712 194.950,242.720 197.725,243.137 199.301 L 243.897 202.167 247.032 202.255 C 250.718 202.359,251.982 201.820,252.834 199.780 C 253.788 197.496,253.780 197.154,252.745 195.958 C 252.210 195.339,251.607 194.348,251.405 193.754 C 251.203 193.160,250.600 192.035,250.064 191.254 C 247.562 187.601,247.664 188.321,247.898 176.024 C 248.045 168.295,248.216 165.016,248.470 165.100 C 248.670 165.166,250.183 167.362,251.833 169.979 L 254.833 174.739 254.941 172.953 C 255.059 170.975,254.783 169.837,253.168 165.667 C 252.565 164.108,251.895 161.971,251.679 160.917 C 251.463 159.862,251.152 159.000,250.989 159.000 C 250.826 159.000,249.792 157.237,248.693 155.083 C 246.015 149.840,243.807 147.235,240.004 144.836 C 238.357 143.797,236.426 142.284,235.714 141.474 C 231.589 136.788,223.412 135.394,211.667 137.374 C 202.253 138.961,195.989 137.426,190.333 132.146 C 189.516 131.383,188.285 130.784,186.220 130.147 L 183.273 129.236 179.978 130.156 C 177.960 130.720,176.195 131.446,175.425 132.029 C 174.733 132.553,173.965 132.986,173.719 132.991 C 173.473 132.996,172.906 133.288,172.459 133.639 C 172.013 133.990,171.014 134.383,170.240 134.512 C 168.279 134.838,167.130 135.488,164.930 137.518 C 161.984 140.235,155.353 141.513,152.351 139.942 C 147.186 137.239,147.494 132.746,153.265 126.616 C 157.162 122.478,157.333 122.206,157.333 120.175 C 157.333 116.930,153.393 112.292,152.536 114.527 M192.309 267.378 C 191.875 268.190,191.908 287.538,192.345 288.355 C 192.744 289.100,194.935 289.265,195.600 288.600 C 196.128 288.072,196.172 268.278,195.648 267.299 C 195.190 266.442,192.780 266.499,192.309 267.378 M200.552 267.276 C 200.064 267.815,200.000 269.049,200.000 277.891 C 200.000 289.020,199.996 289.000,202.257 289.000 C 204.265 289.000,204.333 288.633,204.333 277.833 C 204.333 269.607,204.255 268.037,203.814 267.408 C 203.160 266.474,201.344 266.400,200.552 267.276 M175.331 268.672 C 175.135 269.037,175.000 273.047,175.000 278.500 C 175.000 290.117,174.228 288.937,181.865 288.985 C 188.540 289.027,189.000 288.923,189.000 287.359 C 189.000 285.814,188.544 285.667,183.767 285.667 L 179.333 285.667 179.333 282.833 L 179.333 280.000 183.100 280.000 C 187.156 280.000,187.667 279.814,187.667 278.333 C 187.667 276.853,187.156 276.667,183.100 276.667 L 179.333 276.667 179.333 274.000 L 179.333 271.333 183.767 271.333 C 188.544 271.333,189.000 271.186,189.000 269.641 C 189.000 268.077,188.540 267.973,181.865 268.015 C 176.189 268.051,175.633 268.106,175.331 268.672 M207.678 273.645 C 206.978 274.953,207.246 284.942,208.024 286.549 C 209.286 289.157,212.977 290.188,216.213 288.835 L 217.405 288.338 217.175 289.250 C 216.660 291.306,214.629 292.031,211.844 291.155 C 209.256 290.341,207.528 291.322,208.142 293.256 C 208.839 295.452,216.143 295.661,219.122 293.570 C 221.068 292.204,221.287 291.057,221.322 282.058 C 221.356 273.220,221.312 272.996,219.543 273.005 C 217.565 273.015,217.515 273.149,217.333 278.954 C 217.151 284.766,216.935 285.408,215.023 285.828 C 212.164 286.456,211.333 284.825,211.333 278.583 C 211.333 275.307,211.207 273.674,210.933 273.400 C 210.268 272.735,208.077 272.900,207.678 273.645 " stroke="none" fill="#0c64b4" fill-rule="evenodd"></path><path id="path1" d="" stroke="none" fill="#0c6cb4" fill-rule="evenodd"></path><path id="path2" d="" stroke="none" fill="#1064b4" fill-rule="evenodd"></path><path id="path3" d="" stroke="none" fill="#1064b4" fill-rule="evenodd"></path><path id="path4" d="" stroke="none" fill="#1064b4" fill-rule="evenodd"></path><path id="path5" d="" stroke="none" fill="#1064b4" fill-rule="evenodd"></path><path id="path6" d="" stroke="none" fill="#1064b4" fill-rule="evenodd"></path><path id="path7" d="" stroke="none" fill="#1064b4" fill-rule="evenodd"></path><path id="path8" d="" stroke="none" fill="#1064b4" fill-rule="evenodd"></path></g></svg>