<?xml version="1.0" standalone="no"?>
<!DOCTYPE svg PUBLIC "-//W3C//DTD SVG 20010904//EN"
 "http://www.w3.org/TR/2001/REC-SVG-20010904/DTD/svg10.dtd">
<svg version="1.0" xmlns="http://www.w3.org/2000/svg"
 width="1280.000000pt" height="982.000000pt" viewBox="0 0 1280.000000 982.000000"
 preserveAspectRatio="xMidYMid meet">
<metadata>
Created by potrace 1.15, written by Peter Selinger 2001-2017
</metadata>
<g transform="translate(0.000000,982.000000) scale(0.100000,-0.100000)"
fill="#000000" stroke="none">
<path d="M8590 9814 c-372 -32 -632 -99 -882 -226 -159 -80 -273 -163 -398
-288 -317 -317 -474 -705 -556 -1370 -23 -187 -24 -601 -1 -765 84 -602 292
-1053 662 -1434 290 -299 631 -505 998 -603 62 -16 112 -22 207 -22 l126 -1
79 39 c242 120 542 571 822 1236 l44 105 -6 -55 c-3 -30 -17 -113 -31 -185
-86 -443 -208 -791 -361 -1030 -61 -94 -193 -224 -263 -258 -212 -102 -625
-101 -992 3 -768 217 -1331 815 -1582 1681 -54 187 -107 446 -137 674 -20 144
-23 215 -24 460 0 383 24 563 136 1010 64 251 63 336 -1 402 -55 56 -122 79
-400 138 -213 45 -428 76 -740 107 -201 20 -829 17 -1030 -5 -476 -52 -846
-133 -1224 -269 -902 -323 -1628 -907 -2191 -1758 -397 -600 -699 -1303 -812
-1890 -36 -188 -39 -405 -6 -466 27 -51 55 -60 108 -34 115 56 250 209 427
482 79 120 147 198 173 198 9 0 27 -11 39 -25 24 -26 35 -62 96 -315 145 -604
533 -1364 888 -1743 74 -79 104 -139 134 -268 21 -86 22 -120 22 -404 1 -377
-7 -467 -114 -1311 -92 -726 -109 -917 -91 -1037 44 -300 362 -499 899 -562
152 -18 759 -21 1007 -5 370 24 615 94 675 193 42 68 21 153 -142 561 -137
342 -199 515 -247 686 -158 564 -119 948 118 1175 99 95 190 138 291 138 62 0
77 -6 232 -103 129 -81 221 -121 354 -154 297 -74 737 -69 974 11 25 8 99 38
165 67 118 50 122 51 220 51 89 0 105 -3 151 -27 254 -134 417 -624 401 -1203
-7 -218 -17 -304 -77 -650 -53 -304 -60 -355 -60 -451 0 -68 4 -86 21 -108
132 -167 1017 -259 1639 -170 157 22 266 51 358 95 106 51 131 85 139 191 10
142 -18 246 -210 788 -30 85 -68 209 -83 275 -28 119 -29 123 -28 435 0 403
27 620 105 862 59 182 127 304 228 412 69 72 104 96 256 176 66 34 239 134
385 222 375 226 520 292 675 305 124 10 250 -38 326 -125 43 -49 61 -95 60
-161 -1 -142 -88 -288 -403 -673 -283 -345 -376 -476 -458 -644 -69 -139 -91
-231 -91 -372 1 -306 125 -667 348 -1005 114 -174 253 -325 327 -357 50 -22
116 -14 250 31 301 101 499 273 536 466 19 105 -21 221 -97 280 -21 16 -84 57
-140 92 -187 114 -251 219 -241 394 6 101 38 184 115 300 127 189 282 343 733
727 464 395 618 555 811 842 511 759 685 1809 493 2982 -201 1228 -840 2405
-1480 2725 -80 40 -322 119 -709 230 -496 142 -879 222 -1283 266 -131 15
-567 27 -662 19z"/>
</g>
</svg>
