<?xml version="1.0" standalone="no"?>
<!DOCTYPE svg PUBLIC "-//W3C//DTD SVG 20010904//EN"
 "http://www.w3.org/TR/2001/REC-SVG-20010904/DTD/svg10.dtd">
<svg version="1.0" xmlns="http://www.w3.org/2000/svg"
 width="151.000000pt" height="188.000000pt" viewBox="0 0 151.000000 188.000000"
 preserveAspectRatio="xMidYMid meet">

<g transform="translate(0.000000,188.000000) scale(0.100000,-0.100000)"
fill="#000000" stroke="none">
<path d="M880 1485 c-25 -8 -78 -42 -120 -76 -150 -123 -218 -129 -303 -27
-29 34 -38 41 -48 31 -7 -7 -21 -13 -31 -13 -10 0 -18 -4 -18 -9 0 -22 50 -78
94 -106 67 -41 157 -43 231 -4 28 14 79 41 114 59 47 24 81 34 131 38 63 4 68
3 88 -23 27 -34 27 -46 4 -75 -13 -16 -31 -23 -68 -26 -62 -5 -99 -20 -118
-49 -13 -19 -21 -22 -64 -17 -57 5 -115 -17 -139 -54 -39 -60 -36 -154 9 -216
24 -34 81 -51 126 -39 25 8 32 7 32 -5 0 -25 38 -54 73 -54 50 0 94 32 108 80
12 40 9 63 -17 160 -7 23 -6 24 10 11 52 -43 66 -152 27 -214 -46 -75 -153
-96 -208 -41 -16 16 -35 24 -60 24 -80 0 -149 72 -162 171 l-6 48 -85 -34
c-96 -38 -162 -98 -180 -163 -5 -20 -10 -107 -10 -193 0 -150 1 -156 23 -177
20 -19 35 -22 100 -22 64 0 77 3 77 16 0 29 39 72 82 89 79 31 168 -2 198 -75
12 -29 14 -30 85 -30 109 0 118 10 123 141 6 133 22 179 112 319 l75 115 1 81
c1 45 4 87 8 93 11 18 9 113 -4 146 -37 99 -177 157 -290 120z m100 -285 c0
-13 -7 -20 -20 -20 -13 0 -20 7 -20 20 0 13 7 20 20 20 13 0 20 -7 20 -20z"/>
<path d="M600 380 c-22 -6 -23 -8 -7 -15 15 -6 17 -22 17 -126 0 -99 -3 -119
-15 -119 -8 0 -15 -4 -15 -10 0 -5 20 -10 45 -10 25 0 45 5 45 10 0 6 -7 10
-15 10 -13 0 -15 22 -15 135 0 74 -3 135 -7 134 -5 -1 -19 -4 -33 -9z"/>
<path d="M718 383 c-19 -5 -25 -23 -8 -23 6 0 10 -47 10 -120 0 -73 -4 -120
-10 -120 -5 0 -10 -4 -10 -10 0 -5 20 -10 45 -10 25 0 45 5 45 10 0 6 -7 10
-15 10 -12 0 -15 24 -17 132 -3 131 -6 140 -40 131z"/>
<path d="M370 350 c0 -5 5 -10 10 -10 6 0 10 -42 10 -106 0 -90 -3 -109 -17
-120 -15 -12 -4 -13 82 -11 l100 2 3 28 c4 31 -14 37 -23 7 -5 -16 -15 -20
-56 -20 l-49 0 0 50 c0 49 1 50 30 50 20 0 30 -5 30 -15 0 -8 5 -15 10 -15 6
0 10 18 10 40 0 22 -4 40 -10 40 -5 0 -10 -7 -10 -15 0 -10 -10 -15 -30 -15
-29 0 -30 1 -30 50 l0 50 39 0 c29 0 43 -6 54 -22 16 -23 16 -23 16 10 l1 32
-85 0 c-50 0 -85 -4 -85 -10z"/>
<path d="M800 282 c0 -4 4 -12 10 -18 5 -5 21 -41 35 -79 15 -39 31 -75 36
-81 15 -19 -1 -45 -32 -51 -35 -7 -39 -33 -5 -33 36 0 60 38 97 148 18 53 36
99 40 100 20 8 7 22 -21 22 -16 0 -30 -4 -30 -10 0 -5 4 -10 9 -10 5 0 -1 -32
-12 -70 -11 -39 -23 -67 -27 -63 -4 4 -17 36 -28 71 -17 51 -18 62 -6 62 8 0
14 5 14 10 0 6 -18 10 -40 10 -22 0 -40 -4 -40 -8z"/>
</g>
</svg>
