<?xml version="1.0" standalone="no"?>
<!DOCTYPE svg PUBLIC "-//W3C//DTD SVG 20010904//EN"
 "http://www.w3.org/TR/2001/REC-SVG-20010904/DTD/svg10.dtd">
<svg version="1.0" xmlns="http://www.w3.org/2000/svg"
 width="96.000000pt" height="96.000000pt" viewBox="0 0 96.000000 96.000000"
 preserveAspectRatio="xMidYMid meet">
<metadata>
Created by potrace 1.15, written by Peter Selinger 2001-2017
</metadata>
<g transform="translate(0.000000,96.000000) scale(0.100000,-0.100000)"
fill="#000000" stroke="none">
<path d="M333 502 c-39 -4 -39 -3 -35 -194 l3 -148 28 0 29 0 7 170 c4 94 6
172 4 173 -2 1 -18 1 -36 -1z"/>
<path d="M390 433 c0 -43 3 -122 7 -175 l6 -98 27 0 27 0 6 166 c4 92 4 171 1
175 -3 5 -21 9 -40 9 l-34 0 0 -77z"/>
<path d="M480 396 c0 -8 5 -18 10 -21 6 -3 10 -17 10 -30 0 -13 4 -26 9 -30 5
-3 19 -35 31 -71 12 -36 24 -63 27 -61 2 3 -8 43 -24 89 l-29 85 23 -5 c17 -3
26 -15 37 -51 8 -27 20 -47 30 -49 9 -2 16 1 16 6 0 6 9 8 19 5 16 -4 18 -9
10 -30 -17 -45 -9 -39 16 12 28 57 55 132 55 152 0 10 -11 13 -37 11 -33 -3
-38 -7 -45 -38 -17 -74 -29 -110 -37 -110 -6 0 -17 36 -35 123 -6 24 -11 27
-46 27 -28 0 -40 -4 -40 -14z"/>
</g>
</svg>
