<?xml version="1.0" standalone="no"?>
<!DOCTYPE svg PUBLIC "-//W3C//DTD SVG 20010904//EN"
 "http://www.w3.org/TR/2001/REC-SVG-20010904/DTD/svg10.dtd">
<svg version="1.0" xmlns="http://www.w3.org/2000/svg"
 width="192.000000pt" height="192.000000pt" viewBox="0 0 192.000000 192.000000"
 preserveAspectRatio="xMidYMid meet">
<metadata>
Created by potrace 1.15, written by Peter Selinger 2001-2017
</metadata>
<g transform="translate(0.000000,192.000000) scale(0.100000,-0.100000)"
fill="#000000" stroke="none">
<path d="M840 1022 c-30 -2 -58 -8 -61 -14 -4 -7 -6 -55 -4 -107 2 -53 6 -205
10 -338 l8 -243 63 0 64 0 0 123 c0 67 3 224 6 348 6 257 14 237 -86 231z m60
-582 l0 -105 -44 3 -44 4 3 101 c2 56 4 102 4 102 1 0 19 0 41 0 l40 0 0 -105z"/>
<path d="M655 1011 c-59 -6 -60 -7 -60 -36 0 -16 -5 -39 -12 -50 -9 -16 -8
-24 3 -40 11 -15 14 -73 14 -292 l0 -274 61 3 61 3 -1 162 c-1 103 2 164 9
168 6 4 10 67 10 170 0 155 -4 197 -19 193 -3 -1 -33 -4 -66 -7z m35 -30 c0
-4 -3 -11 -7 -15 -15 -15 -15 -153 1 -206 12 -41 16 -99 16 -240 l0 -186 -40
4 -40 4 0 258 c0 249 1 258 20 263 16 4 20 14 20 47 0 37 -3 42 -19 37 -14 -3
-20 2 -24 19 -2 13 -3 25 -1 27 6 6 74 -5 74 -12z"/>
<path d="M960 798 c0 -13 9 -34 20 -48 11 -14 20 -38 20 -54 0 -16 9 -43 20
-61 11 -18 43 -98 70 -179 47 -139 49 -148 35 -176 -21 -41 -53 -60 -102 -60
l-43 0 0 -54 0 -54 40 -7 c88 -15 170 21 203 87 10 20 41 101 68 180 27 78 56
149 63 158 17 19 84 214 88 255 l3 30 -71 3 -71 3 -16 -58 c-9 -32 -28 -100
-42 -152 -26 -100 -31 -110 -44 -95 -12 14 -63 183 -57 193 3 4 -2 31 -11 59
l-17 52 -78 0 c-74 0 -78 -1 -78 -22z m85 -88 c3 -5 22 -10 40 -10 41 0 48
-11 66 -100 8 -36 23 -75 34 -87 19 -21 22 -22 42 -8 13 9 19 22 16 34 -3 10
0 22 6 25 7 4 9 1 5 -8 -4 -10 6 -18 30 -27 32 -12 49 -29 29 -29 -5 0 -9 -19
-10 -41 -2 -23 -7 -47 -13 -53 -5 -7 -18 -39 -29 -72 -46 -140 -53 -154 -72
-154 -11 0 -16 -5 -14 -13 7 -17 -28 -36 -80 -43 -64 -9 -95 1 -95 31 0 14 6
25 13 25 8 0 7 4 -3 10 -11 7 -4 10 26 10 32 0 48 7 77 34 31 28 37 40 37 74
0 23 -5 43 -12 45 -9 4 -10 8 -2 14 6 5 7 18 3 33 -4 14 -8 21 -8 15 -3 -15
-41 87 -41 108 0 9 -4 17 -9 17 -5 0 -12 17 -15 38 -11 60 -30 122 -38 122 -4
0 -8 5 -8 10 0 6 4 10 9 10 6 0 13 -4 16 -10z"/>
<path d="M234 801 c-141 -36 -209 -198 -148 -351 54 -133 272 -176 378 -73 20
19 36 38 36 42 0 3 -20 18 -45 33 -43 26 -44 26 -61 7 -9 -11 -34 -24 -56 -31
-32 -9 -44 -8 -78 7 -43 19 -70 52 -70 85 0 21 4 21 168 19 l167 -1 -3 58 c-5
84 -43 152 -102 181 -51 24 -139 36 -186 24z m141 -21 c3 -5 14 -10 23 -10 25
0 79 -55 90 -92 6 -18 12 -53 15 -78 l4 -45 -106 1 c-58 1 -121 3 -138 6 -18
2 -33 1 -33 -4 0 -4 -9 -8 -19 -8 -30 0 -53 -28 -41 -50 8 -14 6 -19 -6 -22
-16 -3 7 -17 99 -66 34 -17 77 -10 119 20 28 19 33 20 56 7 32 -18 34 -33 4
-37 -12 -2 -20 -8 -16 -13 3 -5 10 -6 16 -3 7 4 8 2 4 -4 -4 -7 -16 -12 -26
-12 -10 0 -22 -5 -25 -11 -4 -6 -13 -8 -20 -5 -8 3 -15 0 -17 -5 -4 -12 -31
-13 -78 -4 -19 3 -46 7 -60 8 -14 2 -24 8 -23 15 2 6 -3 9 -10 7 -16 -7 -74
41 -64 52 5 4 14 0 21 -10 20 -26 29 -20 11 7 -10 15 -22 22 -34 19 -15 -4
-20 5 -29 49 -11 56 -7 133 8 173 13 33 80 101 107 108 13 3 21 0 20 -5 -1 -6
4 -13 12 -16 10 -3 12 0 8 12 -5 11 -1 16 13 16 11 0 20 -4 20 -10 0 -15 36
-12 50 5 14 17 36 20 45 5z"/>
<path d="M270 730 c-7 -5 -20 -6 -29 -3 -13 4 -13 3 -2 -5 10 -8 5 -13 -22
-23 -20 -7 -33 -17 -30 -25 2 -6 0 -15 -6 -19 -15 -9 -14 -42 2 -49 8 -3 6
-10 -8 -22 -17 -14 -17 -16 -2 -11 9 4 17 2 17 -3 0 -6 7 -10 15 -10 8 0 15 5
15 10 0 6 -7 10 -16 10 -8 0 -13 3 -11 8 6 9 211 7 227 -3 9 -6 10 1 5 26 -11
58 -14 64 -44 83 -16 11 -27 25 -25 30 5 13 -67 18 -86 6z m106 -51 c13 -12
24 -33 24 -46 0 -23 -2 -23 -105 -23 -78 0 -105 3 -105 13 1 22 27 60 51 74
34 19 105 10 135 -18z"/>
</g>
</svg>
