<?xml version="1.0" encoding="utf-8"?>
<!-- Generator: Adobe Illustrator 22.0.0, SVG Export Plug-In . SVG Version: 6.00 Build 0)  -->
<svg version="1.1" id="Layer_1" xmlns="http://www.w3.org/2000/svg" xmlns:xlink="http://www.w3.org/1999/xlink" x="0px" y="0px"
	 viewBox="0 0 432 319.5" style="enable-background:new 0 0 432 319.5;" xml:space="preserve">
<style type="text/css">
	.st0{fill:#FFFFFF;}
	.st1{fill:#006E21;}
</style>
<title>best2</title>
<rect x="-0.6" class="st0" width="432" height="319.5"/>
<path class="st1" d="M156.8,111.8L156.8,111.8z"/>
<path class="st1" d="M165.4,103.5v0.7C165.3,104,165.3,103.8,165.4,103.5z"/>
<path class="st1" d="M302.3,190c-0.2,0.2-0.3,0.5-0.5,0.7l0,0C301.9,190.5,302.1,190.2,302.3,190z"/>
<path class="st1" d="M301.7,190.7L301.7,190.7l0.3,0.3C301.9,190.9,301.8,190.8,301.7,190.7z M301.8,190.7c0.2-0.2,0.4-0.5,0.5-0.7
	C302.1,190.2,301.9,190.5,301.8,190.7L301.8,190.7c0.6,0,1.1,0,1.7,0C302.9,190.7,302.3,190.7,301.8,190.7L301.8,190.7z"/>
<path class="st1" d="M357,138.5c-5.9-24.7-19.1-47.1-37.8-64.3c-16.9-15.7-37.5-27-59.9-32.8c-25-6.6-50-8.3-74.8,1.1
	c-6,2.1-11.6,5.4-16.4,9.6c-10.9,9.9-14.7,22.6-11.9,37c1.4,7.1,2.7,14.5,8.3,19.9c-0.9,3.2,1.8,4.7,3.1,6.8
	c3.4-0.2,5.3,1.2,5.5,4.8c0.3,2.2,0.7,4.3,1.4,6.4c-1.7-0.8-1.5-4.6-4.4-2.1c-1.4,1.2-6.3-4.3-6.5-7.3v-0.1
	c-3.5,0.3-5.6-1.1-5.8-4.8l0,0c-0.3-0.3-0.6-0.7-0.9-1c-1.5,0.5-3-0.2-3.7-1.6c-1.3-2.7-4.2-3.7-5.8-5.9c-5-6.8-11-4.7-17.2-2.5
	c-3.5,1.2-7.5-0.4-10.9,2.3c-4.3,3.4-9.7,5-14.2,7.8c-3.3,2-7.2,3.8-9.1,7.8c-0.5,1.3-2,1.9-3.2,1.4c-0.3-0.1-0.5-0.3-0.8-0.5
	c-8.3,7.5-13,17.2-16.7,27.5c-4.7,13.4-6.1,27.4-6.3,41.5c-0.3,15.1,0.4,30.3,2.3,45.3c1.4,0.1,1.9,0.9,1.9,2.2
	c0,8.6,0.1,17.2-0.1,25.9c0,1.3-0.8,2.6-1.2,3.9c1.3,1,2.8,0.6,4.2,0.6c20.4,0,40.9-0.1,61.3,0.1c4.4,0,5.9-1.5,6-5.8
	c0.1-5.8-0.9-11.4-1-17.1c-0.1-5.5,2.5-7.3,7.1-4.7c2.6,1.5,5.6,0.9,8.1,2.3l12.6,0.1c3.2-0.1,6.4,0.1,9.5-0.4c4-0.7,5,0.9,4.9,4.6
	c-0.2,6.2,0.1,12.5-0.2,18.7c-0.1,3.5,1.1,4.3,4.4,4.2c8.8-0.2,17.6-0.1,26.4-0.1h40.3c2.4,0,4.2-0.1,2.9-3.4
	c-3.7-9.6-4.7-20-2.7-30.1c3.6-20,13.2-35.7,33.8-42.4c8.8-2.6,18.3,0.6,23.8,8c3.3,4.6,5,9.9,6.9,15.1c-0.4,1.1,0,2.3,0.9,3
	c0.4,0.2,1.2,0.2,1.3,0.5c0.6,2.8,1.4,5.5,2.3,8.2c1.4,3.3-0.2,7.1-3.5,8.6c-0.7,1.6-1.3,3.2-1.8,4.9c-2.3,8.6-12,13.2-20.7,6.3
	c-2.4-1.9-4.3-5.9-7.5-5.1c-3,0.8-5.4,3.7-8.1,5.7c-0.5,0.4-1,0.8-1.5,1.1c-1.3,0.7-1.4,1.6-0.6,2.7c7,9.6,15.1,17.5,27.8,17.8
	c11.8,0.3,20.1-6.5,27.6-14.5c2-4.6,4.3-9.1,1.9-14.3c-0.2-0.4,0.1-0.9,0.2-1.4c0.1-0.3,0.3-0.6,0.5-0.8c3.1-0.6,2.5,6.9,7,3.2
	l0-0.1c7.3-10.2,11-21.9,13.3-34C363.5,185.4,362.8,161.4,357,138.5z M165.4,103.5v0.7C165.3,104,165.3,103.7,165.4,103.5v-5
	C168.8,99.9,165.8,101.8,165.4,103.5z M285.3,192.4c0-0.1-0.1-0.2-0.1-0.4l0.6,0.2L285.3,192.4z M301.9,190.9l-0.3-0.3l0,0
	c0.2-0.2,0.4-0.5,0.6-0.7c-0.2,0.2-0.3,0.5-0.5,0.7c0.6,0.1,1.1,0.1,1.7,0.1c0.1,0,0.1,0,0.2,0h0.3l0.2,0.1c0.5,0.2,0.9,0.5,1.1,1
	C303.8,192.7,302.9,191.8,301.9,190.9L301.9,190.9z M305.4,136.1c-4.1,0.2-7.6-3-7.8-7.1c0-0.2,0-0.5,0-0.7
	c-0.1-4.1,3.1-7.6,7.3-7.7c0,0,0,0,0,0c0.2,0,0.4,0,0.5,0c4.2-0.1,7.7,3.2,7.8,7.4v0.4c0.1,4.1-3.1,7.6-7.3,7.7L305.4,136.1z"/>
<path class="st1" d="M157.7,242.4c-2.9,0-5.7-0.2-8.6-0.6c-3.7-0.7-5.2,0.1-5,4.2c0.3,6.5,0,13.1,0.2,19.6c0.1,2.9-0.8,3.9-3.8,3.9
	c-22.4-0.1-44.7,0-67.1-0.1c-1.6,0-4.1,0.7-3.2-2.4c2.6-9.5,1-19.1,1.1-28.6c0-1.1,0-2.2,0.1-3.4c1.4,0.1,1.9,0.9,1.9,2.2
	c0,8.6,0,17.2-0.1,25.9c0,1.3-0.8,2.6-1.2,3.9c1.3,1,2.8,0.6,4.2,0.6c20.4,0,40.9-0.1,61.3,0.1c4.4,0,5.9-1.5,6-5.8
	c0.1-5.8-0.9-11.4-1-17.1c-0.1-5.5,2.5-7.3,7.1-4.7C152.2,241.6,155.2,240.9,157.7,242.4z"/>
<path class="st1" d="M156.9,111.9L156.9,111.9c-1.4,0.4-3-0.2-3.6-1.6c-1.3-2.7-4.2-3.7-5.8-5.9c-5-6.8-11-4.7-17.2-2.5
	c-3.5,1.2-7.5-0.4-10.9,2.3c-4.3,3.4-9.7,5-14.2,7.8c-3.3,2-7.2,3.8-9.1,7.8c-0.5,1.3-2,1.9-3.2,1.4c-0.3-0.1-0.5-0.3-0.8-0.5
	c8.5-10.6,20.3-15.7,32.6-20c0.8-0.3,1.6-0.3,2.3-0.6C143.6,95.3,147.2,96.7,156.9,111.9L156.9,111.9z"/>
<path class="st1" d="M345.9,242.6c-2.2,5.1-5.5,9.6-9.6,13.3c2-4.6,4.3-9.1,1.9-14.3c-0.2-0.4,0.1-0.9,0.2-1.4
	c0.1-0.3,0.3-0.6,0.5-0.8C341.9,238.8,341.3,246.3,345.9,242.6z"/>
<path class="st1" d="M174.6,127.1c-1.7-0.8-1.5-4.6-4.4-2.1c-1.4,1.2-6.3-4.3-6.5-7.3l5.3,3.4l-1.3-5.3c3.4-0.2,5.3,1.2,5.5,4.8
	C173.5,122.8,173.9,125,174.6,127.1z"/>
<path class="st1" d="M321.1,236.8c0-5.7-0.1-11.5-0.1-17.2c0.4,0.2,1.2,0.2,1.3,0.5c0.6,2.8,1.4,5.5,2.3,8.2
	C326,231.5,324.4,235.3,321.1,236.8z"/>
<path class="st1" d="M163.6,117.6c-3.5,0.3-5.6-1.1-5.8-4.8l0,0C159.6,114.7,162.4,115.2,163.6,117.6z"/>
<path class="st1" d="M157.8,112.9L157.8,112.9c-0.3-0.3-0.6-0.7-0.9-1h0.1C157.5,112,157.9,112.3,157.8,112.9L157.8,112.9z"/>
<path class="st1" d="M165.4,103.5v0.7C165.3,104,165.3,103.8,165.4,103.5z"/>
<path class="st1" d="M165.4,103.5v-5C168.8,99.9,165.8,101.8,165.4,103.5z"/>
<path class="st0" d="M313.3,128.4c0,4.3-3.5,7.8-7.8,7.8c-4.3,0-7.8-3.5-7.8-7.8c0-4.3,3.5-7.8,7.8-7.8c4.2-0.1,7.7,3.2,7.8,7.4
	V128.4z"/>
<path class="st1" d="M305.3,191.9c-1.5,0.8-2.4-0.1-3.4-0.9l-0.3-0.3h0.1c0.6,0,1.1,0,1.7,0h0.5l0.2,0.1
	C304.7,191,305.1,191.4,305.3,191.9z"/>
<path class="st1" d="M285.8,192.2l-0.5,0.2c0-0.1-0.1-0.2-0.1-0.4L285.8,192.2z"/>
</svg>
