<svg id="Layer_1" data-name="Layer 1" xmlns="http://www.w3.org/2000/svg" viewBox="0 0 544 350"><defs><style>.cls-1{fill:#fff;}.cls-2{fill:none;stroke:#006e21;stroke-linecap:round;stroke-miterlimit:10;stroke-width:10px;}</style></defs><title>ellee</title><rect class="cls-1" width="544" height="350"/><path class="cls-2" d="M475,418.18c24.43-8.22,48.86-20.19,64.19-40.91A79.13,79.13,0,0,0,434.27,262.69C409,274.84,395.57,303,389.39,330.35s-7.14,55.94-16.78,82.25c-3.17,8.65-7.58,17.36-15.21,22.51-11.34,7.65-27.31,5.27-38.48-2.62S300.57,412.26,295,399.76" transform="translate(-236 -228)"/><circle class="cls-2" cx="199.5" cy="105.5" r="7.5"/><path class="cls-2" d="M555,334s46.63-11,73.22,35.37a94.4,94.4,0,0,1,12.22,47.33L640,519H597l.5-54.5" transform="translate(-236 -228)"/><polyline class="cls-2" points="211 236 211 291 361 291"/><line class="cls-2" x1="261.5" y1="236" x2="261.5" y2="288.5"/><line class="cls-2" x1="211.5" y1="235.5" x2="238.5" y2="235.5"/><line class="cls-2" x1="211.5" y1="263.5" x2="228.5" y2="263.5"/><line class="cls-2" x1="311.5" y1="236" x2="311.5" y2="288.5"/><line class="cls-2" x1="365.5" y1="263.5" x2="382.5" y2="263.5"/><line class="cls-2" x1="361.5" y1="235.5" x2="388.5" y2="235.5"/></svg>