<?xml version="1.0" encoding="UTF-8" standalone="no"?>
<!-- Created with Inkscape (http://www.inkscape.org/) -->

<svg
   xmlns:dc="http://purl.org/dc/elements/1.1/"
   xmlns:cc="http://creativecommons.org/ns#"
   xmlns:rdf="http://www.w3.org/1999/02/22-rdf-syntax-ns#"
   xmlns:svg="http://www.w3.org/2000/svg"
   xmlns="http://www.w3.org/2000/svg"
   xmlns:sodipodi="http://sodipodi.sourceforge.net/DTD/sodipodi-0.dtd"
   xmlns:inkscape="http://www.inkscape.org/namespaces/inkscape"
   width="48"
   height="48"
   viewBox="0 0 12.7 12.7"
   version="1.1"
   id="svg8"
   inkscape:version="0.92.4 (5da689c313, 2019-01-14)"
   sodipodi:docname="48logo.svg">
  <defs
     id="defs2">
    <inkscape:path-effect
       effect="simplify"
       id="path-effect3894"
       is_visible="true"
       steps="1"
       threshold="0.00113885"
       smooth_angles="360"
       helper_size="0"
       simplify_individual_paths="false"
       simplify_just_coalesce="false"
       simplifyindividualpaths="false"
       simplifyJustCoalesce="false" />
    <inkscape:path-effect
       effect="simplify"
       id="path-effect3890"
       is_visible="true"
       steps="1"
       threshold="0.00113885"
       smooth_angles="360"
       helper_size="0"
       simplify_individual_paths="false"
       simplify_just_coalesce="false"
       simplifyindividualpaths="false"
       simplifyJustCoalesce="false" />
    <inkscape:path-effect
       effect="simplify"
       id="path-effect3886"
       is_visible="true"
       steps="1"
       threshold="0.00113885"
       smooth_angles="360"
       helper_size="0"
       simplify_individual_paths="false"
       simplify_just_coalesce="false"
       simplifyindividualpaths="false"
       simplifyJustCoalesce="false" />
    <inkscape:path-effect
       effect="simplify"
       id="path-effect3882"
       is_visible="true"
       steps="1"
       threshold="0.00113885"
       smooth_angles="360"
       helper_size="0"
       simplify_individual_paths="false"
       simplify_just_coalesce="false"
       simplifyindividualpaths="false"
       simplifyJustCoalesce="false" />
  </defs>
  <sodipodi:namedview
     id="base"
     pagecolor="#ffffff"
     bordercolor="#666666"
     borderopacity="1.0"
     inkscape:pageopacity="0.0"
     inkscape:pageshadow="2"
     inkscape:zoom="11.313709"
     inkscape:cx="20.230508"
     inkscape:cy="23.839358"
     inkscape:document-units="mm"
     inkscape:current-layer="layer1"
     showgrid="false"
     inkscape:window-width="1366"
     inkscape:window-height="705"
     inkscape:window-x="-8"
     inkscape:window-y="-8"
     inkscape:window-maximized="1"
     units="px"
     height="8.5in"
     fit-margin-left="-0.2"
     fit-margin-bottom="-0.3" />
  <metadata
     id="metadata5">
    <rdf:RDF>
      <cc:Work
         rdf:about="">
        <dc:format>image/svg+xml</dc:format>
        <dc:type
           rdf:resource="http://purl.org/dc/dcmitype/StillImage" />
        <dc:title></dc:title>
      </cc:Work>
    </rdf:RDF>
  </metadata>
  <g
     inkscape:label="Layer 1"
     inkscape:groupmode="layer"
     id="layer1"
     transform="translate(0,-284.3)">
    <path
       inkscape:connector-curvature="0"
       d="m 1.8248527,289.3634 c 0.082984,0.10116 0.1581876,0.21264 0.2930363,0.25932 0.07261,0.0414 0.1400352,0.0933 0.2282052,0.10117 0,0 0,0 0,0 0.1452211,0.0674 0.3008156,0.083 0.4564099,0.10632 0.1504083,0.0208 0.2904429,0.0132 0.4356647,-0.0155 0.018154,-0.003 0.036307,0.008 0.054456,0.0106 v 0 c 0,0.0181 0.00518,0.0311 0.025933,0.0311 v 0 c 0,0.0106 0.00262,0.0181 0.00262,0.0285 0,0 0,0 0,0 0.00779,0.0571 0.044086,0.096 0.08817,0.12711 0,0 0,0 0,0 v 0 c 0.00779,0.0493 -0.020749,0.10368 0.028521,0.14264 v 0 0 c 0.00779,0.0155 0.018154,0.0311 0.025933,0.0466 v 0 c 0,0.003 0,0.008 0.00262,0.0106 0.00262,0.0285 0.020749,0.0441 0.044086,0.0571 v 0 0 0 c 0.023338,0.0208 0.036307,0.0466 0.025933,0.0804 -0.00518,0.0181 -0.00779,0.0389 0.015558,0.0493 v 0 c 0.012963,0.0155 0.025933,0.0311 0.038897,0.0441 v 0 c 0.00779,0.0311 0.028528,0.0493 0.057052,0.0596 v 0 c 0.080391,0.0363 0.1270699,0.11149 0.1996796,0.15559 0,0 0,0 0,0 0.018154,0.026 0.046676,0.0363 0.075204,0.0414 0.057051,0.0156 0.1141028,0.0285 0.171154,0.0441 v 0 c 0.051865,0.0208 0.1037297,0.0233 0.1581876,0.0311 0.015558,0.0155 0.036307,0.0106 0.057051,0.0132 0,0 0,0 0,0 0.044086,0.0311 0.093357,0.0336 0.1452218,0.0285 0.028528,0 0.057051,0 0.082984,0 0.00518,-0.003 0.010368,-0.005 0.018154,-0.008 0,0 0,0 0,0 0.044086,-0.0106 0.038897,0.0441 0.070016,0.0493 v 0 0 c 0.023337,0.0208 0.015558,0.0649 0.054461,0.0779 0,0 0,0 0,0 0.041491,0.2256 0.093357,0.45122 0.059645,0.6846 v 0 c 0,0.0106 0,0.0208 0,0.0311 v 0 c -0.020749,0.0233 -0.015558,0.0466 -0.00262,0.0726 -0.00262,0.005 -0.00262,0.008 0,0.0132 v 0 c -0.018154,0.0674 -0.015558,0.13743 -0.041491,0.20227 v 0 0 0 c -0.00518,0.005 -0.00518,0.008 -0.00518,0.0132 -0.020742,0.0441 -0.020742,0.0933 -0.025933,0.14262 0,0 0,0 0,0 -0.033712,0.0778 -0.018154,0.16596 -0.033712,0.24636 -0.025933,0.13485 -0.057051,0.2697 -0.085576,0.40454 -0.00262,0.0181 -0.00518,0.0363 -0.00518,0.0571 -0.020749,0.0855 -0.041491,0.17374 -0.059645,0.26191 -0.00779,0.0363 -0.041491,0.0571 -0.044086,0.0933 0,0 0,0 0,0 -0.015558,0.0336 -0.028528,0.0674 -0.044086,0.10368 -0.031117,0.0414 -0.018154,0.0908 -0.025933,0.13485 -0.010368,0.0544 -0.00262,0.11149 -0.00262,0.16598 0,0.0181 0,0.0389 0,0.0571 0,0.0778 0.00518,0.153 0.057051,0.21523 v 0 c 0.00779,0.0441 0.033712,0.0777 0.072612,0.0985 0.00518,0.005 0.00779,0.0106 0.012963,0.0155 v 0 c 0.020742,0.0544 0.044086,0.10632 0.064831,0.16078 0,0.005 0.00262,0.008 0.00518,0.0132 0.023338,0.0882 0.023338,0.17635 -0.00779,0.26452 -0.00779,0.0233 -0.00779,0.0519 -0.010368,0.0779 -0.015558,0.0285 -0.036302,0.0544 -0.041491,0.0855 v 0 c -0.015558,0.0208 -0.00518,0.0336 0.012963,0.0441 v 0 c 0.028528,0.026 0.038902,0.0726 0.08817,0.0701 0.038902,0.005 0.077797,0.008 0.1141028,0.0132 v 0 0 c 0.010368,0 0.018154,0 0.028528,0 v 0 c 0.028528,0 0.057052,0 0.085577,0 0.044086,0.0155 0.085576,0.0233 0.1296612,0 v 0 0 0 c 0,0 0,0 0,0 0.038897,-0.008 0.064831,-0.0363 0.08817,-0.0674 v 0 c 0.036307,-0.0181 0.059645,-0.0493 0.08817,-0.0752 0.00518,-0.005 0.00779,-0.0106 0.012963,-0.0155 0,-0.008 0,-0.0132 0,-0.0181 0.00262,0.003 0.00262,0.008 0,0.0181 0.010368,-0.0132 0.018154,-0.0285 0.028528,-0.0414 0.051865,-0.0596 0.1141028,-0.11413 0.147815,-0.18671 0.054455,-0.0519 0.018154,-0.0907 -0.015558,-0.13228 v 0 c -0.00262,-0.0181 -0.012963,-0.0311 -0.028528,-0.0441 -0.015558,-0.0414 -0.044086,-0.0726 -0.088171,-0.0855 -0.121882,-0.0882 -0.1763395,-0.20745 -0.1555944,-0.35785 v 0 c 0.028528,-0.0181 0.00262,-0.0363 0,-0.0544 0.041491,-0.0414 0.023338,-0.10368 0.057052,-0.14782 0.041491,-0.10897 0.082982,-0.22042 0.1270686,-0.32934 v 0 c 0.031117,-0.0674 0.062237,-0.13485 0.090764,-0.19968 v 0 c 0.023338,-0.0414 0.046676,-0.083 0.070016,-0.12447 0,0 0,0 0,0 0.018154,-0.0336 0.038897,-0.07 0.057052,-0.10367 v 0 c 0.018154,-0.0285 0.038897,-0.0571 0.057051,-0.0855 0,0 0,0 0,0 0.00779,-0.0208 0.018154,-0.0389 0.025933,-0.0596 0.031117,-0.0208 0.023338,-0.0544 0.028528,-0.0855 v 0 c 0.064831,-0.0132 0.025933,0.0544 0.054461,0.07 0,0.0311 -0.00262,0.0622 0.015558,0.0907 0.015558,0.16339 0,0.32676 0.044086,0.48753 0.057051,0.14263 0,0.28527 0,0.42789 0,0 0,0 0,0 -0.015558,0.0414 -0.025933,0.083 -0.028528,0.12963 v 0 c -0.00779,0.0106 -0.00518,0.0208 0.00262,0.0285 v 0 c 0.00518,0.0338 -0.012963,0.07 0.015558,0.0985 v 0 c 0.00518,0.003 0.00779,0.005 0.012963,0.008 v 0 c 0,0.0311 -0.012963,0.0649 0.012963,0.0934 0.062237,0.10633 0.075204,0.21264 0.015558,0.32416 0,0 0,0 0,0 -0.041491,0.0779 -0.044086,0.16856 -0.085578,0.24895 v 0 c -0.031117,0.0155 -0.031117,0.0466 -0.041491,0.0726 v 0 c -0.020742,0.0208 -0.031117,0.0441 -0.025933,0.0726 -0.00518,0.005 -0.010368,0.0106 -0.012963,0.0155 v 0 0 c -0.023338,0.008 -0.036307,0.0208 -0.044086,0.0441 -0.00262,0.005 -0.00262,0.008 0,0.0132 -0.062237,0.0649 -0.054461,0.17892 0.012963,0.21523 v 0 0 c 0.023338,0 0.04927,0 0.07261,0 0.012963,0.005 0.025933,0.0106 0.041491,0.0132 0.080391,0.0544 0.171154,0.0208 0.2567313,0.0285 0.059643,0.0181 0.1166954,0.008 0.1763406,0 v 0 c 0.028523,0 0.057051,-0.003 0.085576,-0.003 0,0 0,0 0,0 0,0 0,0 0,0 0.080391,0 0.1659669,0.0156 0.230798,-0.0571 0.015558,-0.0285 0.031117,-0.0571 0.046682,-0.083 0.015558,-0.0155 0.028528,-0.0336 0.025933,-0.0571 0,0 0,0 0,0 0.018154,-0.026 0.015558,-0.0571 0.015558,-0.0882 0,0 0,0 0,0 0.023338,-0.0336 0.012963,-0.07 0,-0.10368 0.00262,-0.005 0.00262,-0.008 0,-0.0106 -0.018154,-0.0649 -0.025933,-0.13227 -0.070018,-0.1893 0.00262,-0.0208 -0.00779,-0.0363 -0.015558,-0.0544 0,0 0,0 0,0 0,0 0,0 0,0 -0.015558,-0.11413 -0.010368,-0.22819 -0.010368,-0.3423 -0.00262,-0.003 -0.00518,-0.003 -0.00518,-0.005 v 0 c 0,0 0,0 0,0 0.00262,0.003 0.00518,0.003 0.00518,0.005 0.041491,-0.0388 0.023338,-0.0907 0.023338,-0.13484 -0.00262,-0.26452 0.062237,-0.51865 0.093357,-0.77798 0.018154,-0.153 0.044086,-0.30341 0.064831,-0.45641 0.00779,-0.0181 0.012963,-0.0363 0.020749,-0.0519 v 0 c 0.023338,-0.0389 0.044086,-0.0777 0.067424,-0.11665 v 0 0 c 0.00779,-0.0106 0.00779,-0.0233 0.00779,-0.0363 0.020749,-0.0597 0.077797,-0.0571 0.1400352,-0.0493 0.031117,0.005 0.062237,0 0.093357,0 0.00262,0.003 0.00518,0.003 0.00779,0.003 0.036307,0.0181 0.075204,0.008 0.1115089,0.008 0.04927,0 0.088171,0.003 0.067425,0.0674 -0.00262,0.0132 0.00518,0.0285 0.018154,0.0363 v 0 c 0.033712,0.0674 0.051865,0.14264 0.1011358,0.19969 0.046682,0.026 -0.00779,0.0908 0.044086,0.11414 v 0 c 0.00518,0.0181 0.00779,0.0389 0.012963,0.0571 v 0 c 0,0.0233 0.00262,0.0466 0.00262,0.07 0.018154,0.0779 0.00518,0.16336 0.057051,0.23079 0.025933,0.0181 0.00518,0.0544 0.025933,0.0752 0.025933,0.1193 0.00779,0.23858 0.015558,0.35528 v 0 c -0.023338,0.0363 -0.015558,0.0752 -0.012963,0.11414 v 0 c -0.00518,0.0389 -0.010368,0.0752 -0.012963,0.11414 v 0 c -0.038897,0.0649 -0.1089162,0.11149 -0.1296624,0.18671 v 0 c -0.054455,0.0544 -0.054455,0.12964 -0.07261,0.19968 v 0 c -0.04927,0.0363 -0.036307,0.0779 -0.012963,0.1193 0.00262,0.005 0.00779,0.0106 0.010368,0.0155 v 0 0 c 0.020749,0.0311 0.057052,0.026 0.085577,0.0311 v 0 c 0.038897,0.0311 0.085577,0.0233 0.1322551,0.026 0.090763,0.0285 0.1815278,0.0106 0.2748844,0.0132 0.057051,0 0.1115089,-0.0106 0.1659669,-0.0233 0.00779,0 0.015558,-0.003 0.023337,-0.005 0.015558,0.003 0.028528,0.005 0.041491,-0.0106 v 0 c 0.044086,-0.0106 0.090764,-0.0155 0.1296611,-0.0466 v 0 c 0.028528,-0.005 0.044086,-0.0208 0.054461,-0.0441 v 0 c 0.00779,-0.0106 0.018154,-0.0207 0.025933,-0.0311 v 0 0 c 0.04927,-0.0285 0.012963,-0.0726 0.020749,-0.11149 v 0 c -0.015558,-0.0855 0.028528,-0.17634 -0.018154,-0.26192 -0.025933,-0.0336 -0.00262,-0.083 -0.033712,-0.11665 0,0 0,0 0,0 -0.020742,-0.17635 -0.031117,-0.35268 -0.018154,-0.52903 v 0 c 0.023338,-0.0285 0.012963,-0.0674 0.025933,-0.10116 0.025933,-0.0752 0.059645,-0.14521 0.059645,-0.2282 0,-0.0233 0.015558,-0.0311 0.028528,-0.0466 v 0 c 0.025933,-0.0181 0.012963,-0.0363 0,-0.0544 0,0 0,0 0,0 0.015558,-0.0233 0.033712,-0.0441 0.028528,-0.0752 0.023338,-0.0414 0.00262,-0.0933 0.038896,-0.12963 v 0 c 0,0 0,0 0,0 0.03631,-0.0181 0.05446,-0.0466 0.05705,-0.0882 0.03631,-0.0233 0.02334,-0.0855 0.07261,-0.0985 0.01815,0.0233 0.0389,0.0466 0.05705,0.0726 0.01296,0.0466 0.04409,0.0804 0.07002,0.11666 0.0078,0.0181 0.02075,0.0336 0.0389,0.0441 0.04149,0.0622 0.0752,0.12963 0.106323,0.19968 v 0 0 c 0.0052,0.005 0.0078,0.0106 0.01296,0.0155 0.01296,0.026 0.0052,0.0596 0.03112,0.083 v 0 c 0.01037,0.0155 0.02075,0.0311 0.02853,0.0466 v 0 c 0.02853,0.0907 0.05964,0.17893 0.134849,0.24376 0.03371,0.0311 0.04409,0.0779 0.06224,0.11665 v 0 c 0,0.0208 -0.0078,0.0414 0.01037,0.0571 v 0 c 0.01815,0.0674 0.03112,0.13485 0.06224,0.19969 0.05705,0.11149 0.03371,0.23079 0,0.34489 -0.0026,0.003 -0.0052,0.008 -0.0026,0.0106 0,0 0,0 0,0 -0.06224,0.0649 -0.11151,0.13484 -0.140035,0.21784 -0.0052,0.0106 -0.01037,0.0208 -0.01556,0.0311 v 0 c 0,0 0,0 0,0 0,0.003 -0.0026,0.003 -0.0026,0.005 -0.02593,0.0622 -0.01296,0.12963 -0.0389,0.19191 0.01037,0.0233 0.02074,0.0466 0.02853,0.0674 v 0 0 c 0.04927,0.0571 0.111508,0.026 0.171154,0.0311 v 0 c 0.01815,0.005 0.0389,0.0106 0.05705,0.0155 0,0 0,0 0,0 v 0 c 0.01815,0.0208 0.04149,0.0181 0.06483,0.0155 0.106322,-0.0132 0.215238,0 0.324154,-0.0181 0.04409,-0.005 0.08558,-0.0106 0.129662,-0.0132 v 0 c 0.0778,-0.008 0.158187,-0.005 0.215239,-0.0752 v 0 c 0,0 0,0 0,0 0.0052,-0.005 0.01037,-0.008 0.01556,-0.0132 v 0 0 c 0.04149,-0.0311 0.04149,-0.07 0.03112,-0.11665 -0.01296,-0.0649 -0.0052,-0.13485 -0.03112,-0.1971 -0.0052,-0.005 -0.0078,-0.0106 -0.01296,-0.0155 0,0 0,0 0,0 -0.01037,-0.07 -0.02593,-0.13744 -0.05965,-0.19968 v 0 c -0.0052,-0.0181 -0.0078,-0.0389 -0.01296,-0.0571 -0.01037,-0.0674 -0.02074,-0.13227 -0.03112,-0.19967 0,0 0,0 0,0 v 0 c -0.02593,-0.0414 0.02593,-0.0908 -0.01296,-0.12963 0.0026,-0.0389 0,-0.0752 -0.02334,-0.10898 0,-0.003 -0.0026,-0.005 -0.0052,-0.008 -0.01296,-0.0441 -0.02593,-0.0882 -0.04149,-0.13228 v 0 c -0.0026,-0.0181 0.0026,-0.0389 -0.01556,-0.0544 -0.02074,-0.15041 -0.01556,-0.30341 -0.01296,-0.45381 0,-0.0389 0.0078,-0.0804 0.01296,-0.11931 0,0 0,0 0,0 -0.01037,-0.0544 -0.0078,-0.10632 0.01556,-0.15559 0.0026,-0.003 0.0026,-0.005 0.0026,-0.008 0.04668,-0.10897 0.108916,-0.21264 0.09854,-0.33712 -0.0026,-0.0311 0,-0.0622 -0.01556,-0.0882 0,-0.0181 0,-0.0363 0,-0.0544 -0.0052,-0.0726 0,-0.14522 0.02593,-0.21524 v 0 c -0.0026,-0.0106 -0.0078,-0.0181 -0.01037,-0.0285 v 0 c 0.01037,-0.0882 0.0026,-0.17634 -0.01296,-0.26192 v 0 c 0.0052,-0.008 0.01815,-0.0155 0.0026,-0.0259 0,0 0,0 0,0 0.0026,-0.0132 0.01296,-0.0132 0.02334,-0.0132 v 0 c 0.01296,0.0208 0.02853,0.0389 0.04149,0.0596 0.0078,0.0155 0.0078,0.0363 0.02593,0.0466 0,0 0,0 0.0026,-0.003 0,0 0,0 0,0 0,0 0,0 -0.0026,0 v 0 c 0.0026,0.0181 0.01556,0.0285 0.02853,0.0414 v 0 c 0.0052,0.0311 0.0078,0.0649 0.04409,0.0752 v 0 c -0.0026,0.003 0,0.008 0.0026,0.008 0.0026,0.0181 0.01037,0.0336 0.02334,0.0466 v 0 c 0.01815,0.0285 0.03112,0.0622 0.06224,0.0804 0.0052,0.0106 0.01037,0.0208 0.01556,0.0311 v 0 c -0.0026,0.0233 0.01296,0.0414 0.02853,0.0571 v 0 c 0.01815,0.0233 0.03631,0.0493 0.05705,0.0726 0.01037,0.0311 0.03112,0.0544 0.05964,0.0701 v 0 0 c 0.0052,0.005 0.0078,0.0106 0.01296,0.0155 0,0.0414 0.02593,0.0649 0.05446,0.0882 0.06224,0.0779 0.116696,0.16597 0.217832,0.20228 0.07521,0.0466 0.132252,0.11413 0.199679,0.17115 0,0 0,0 0,0 0.03371,0.0597 0.07779,0.10368 0.150408,0.10368 0.0026,0 0.0078,0 0.01298,0 0.0052,0.003 0.0078,0.008 0.01298,0.0106 v 0 0 c 0.01033,0.0233 0.02852,0.0336 0.05446,0.0336 v 0 c 0.01033,0.0181 0.02593,0.0389 0.04927,0.026 0.02593,-0.0132 0.0078,-0.0336 0.0026,-0.0544 -0.01298,-0.0389 -0.02334,-0.0804 -0.03631,-0.11931 -0.01298,-0.0233 -0.02852,-0.0492 -0.04148,-0.0726 v 0 0 0 0 0 c -0.0052,-0.0285 0,-0.0622 -0.03112,-0.0804 -0.0078,-0.008 -0.01556,-0.0132 -0.02334,-0.0208 0,0 0,0 0,0 -0.0752,-0.0519 -0.163375,-0.0597 -0.246358,-0.0855 0,0 0,0 0,0 v 0 0 0 0 c 0,0 0,0 0,0 -0.04927,-0.0363 -0.103731,-0.0674 -0.127062,-0.12963 -0.02593,-0.0336 -0.05187,-0.0649 -0.0778,-0.0985 v 0 c 0,0 0,0 0,0 -0.03112,-0.0519 -0.04668,-0.11149 -0.08558,-0.1582 -0.0026,-0.003 -0.0078,-0.003 -0.01037,-0.003 v 0 c -0.01037,-0.0132 -0.02075,-0.0285 -0.03112,-0.0414 v 0 c -0.04927,-0.11414 -0.09595,-0.2282 -0.1452221,-0.34489 -0.03631,-0.0493 -0.05186,-0.10897 -0.07002,-0.16596 -0.01037,-0.0338 -0.02075,-0.0674 -0.04409,-0.0933 v 0 c -0.01815,-0.0208 -0.01556,-0.0544 -0.04409,-0.07 -0.01037,-0.0414 -0.03631,-0.0752 -0.05964,-0.10884 -0.04149,-0.0908 -0.108917,-0.16598 -0.142629,-0.26193 -0.0078,-0.0466 -0.0389,-0.0752 -0.07002,-0.10367 v 0 c 0,-0.0208 -0.01037,-0.0311 -0.02593,-0.0414 0,0 0,0 0,0 -0.03371,-0.0597 -0.08298,-0.10897 -0.129663,-0.16077 0,0 0,0 0,0 -0.03112,-0.0544 -0.0752,-0.096 -0.129662,-0.12712 -0.01296,-0.0389 -0.04409,-0.0622 -0.0752,-0.083 -0.0052,-0.005 -0.0078,-0.0106 -0.01296,-0.0155 -0.0052,-0.005 -0.01037,-0.008 -0.01556,-0.0132 v 0 0 c -0.04409,-0.0649 -0.116697,-0.10633 -0.171154,-0.16078 v 0 c -0.02334,-0.0285 -0.04668,-0.0597 -0.08558,-0.07 0,-0.005 -0.0026,-0.008 -0.0052,-0.0106 v 0 c -0.0078,-0.0208 -0.02334,-0.0336 -0.04149,-0.0441 v 0 c -0.01296,-0.0208 -0.02853,-0.0389 -0.05446,-0.0441 v 0 c -0.01037,-0.008 -0.02075,-0.0181 -0.03112,-0.026 v 0 0 c -0.05446,-0.0726 -0.124476,-0.12447 -0.19968,-0.17374 -0.01815,-0.0208 -0.03371,-0.0441 -0.05964,-0.0544 v 0 0 c -0.01296,-0.0208 -0.03631,-0.0233 -0.05446,-0.0336 -0.0052,-0.003 -0.0078,-0.008 -0.01296,-0.0106 0,0 0,0 0,0 -0.03371,-0.0285 -0.07261,-0.0519 -0.116697,-0.0571 -0.01037,-0.0106 -0.02075,-0.0181 -0.03112,-0.0285 v 0 c -0.0026,-0.005 -0.0078,-0.0106 -0.01037,-0.0156 0,0 0,0 0,0 -0.04409,-0.0336 -0.09076,-0.0571 -0.1426287,-0.0726 -0.00779,0 -0.015558,0 -0.025933,-0.003 0,0 0,0 0,0 -0.031117,-0.0181 -0.067425,-0.0285 -0.1037297,-0.0285 -0.020744,-0.008 -0.038897,-0.0181 -0.059645,-0.026 0,0 0,0 0,0 0,0 0,0 0,0 -0.093357,-0.0336 -0.1918998,-0.0233 -0.2878492,-0.0336 -0.046682,-0.005 -0.1089162,-0.0181 -0.1581876,0.0181 -0.075204,-0.008 -0.147815,0.005 -0.2152387,0.0441 -0.054461,0.0181 -0.1115102,0.026 -0.1607814,0.0544 0,0 0,0 0,0 -0.04927,0.0156 -0.059643,-0.005 -0.057051,-0.0519 0.00262,-0.0649 0.018154,-0.13228 -0.025933,-0.19189 -0.010368,-0.026 -0.018154,-0.0493 -0.028523,-0.0752 v 0 c 0,-0.0106 -0.00262,-0.0208 -0.010368,-0.026 -0.031117,-0.10116 -0.080391,-0.19189 -0.1452217,-0.27487 v 0 c -0.00779,-0.0285 -0.018154,-0.0519 -0.044086,-0.07 -0.070018,-0.0441 -0.098543,-0.13228 -0.1737473,-0.16856 v 0 c -0.00518,-0.003 -0.00779,-0.003 -0.012963,-0.003 v 0 c -0.020749,-0.0181 -0.041491,-0.0285 -0.070018,-0.0285 0,0 0,0 0,0 -0.054455,-0.0233 -0.1089163,-0.008 -0.1607803,0 -0.1581883,0.026 -0.3163759,0.0132 -0.4745635,0.003 -0.1166954,-0.0155 -0.2307979,-0.0233 -0.3449008,0.0132 v 0 c -0.028528,0 -0.057051,0.005 -0.077797,0.0285 -0.033712,0.0363 -0.082982,0.0285 -0.1244759,0.0441 -0.012963,0 -0.028528,0 -0.041491,0 v 0 c -0.018154,-0.005 -0.036307,-0.0106 -0.057051,-0.0155 v 0 c -0.059645,-0.0311 -0.121882,-0.0311 -0.1867131,-0.0285 -0.1374413,-0.0467 -0.2774765,-0.0285 -0.414919,-0.0208 -0.046676,0.003 -0.088169,-0.0132 -0.1322551,-0.008 -0.020749,-0.0132 -0.044086,-0.0155 -0.067424,-0.0155 0,0 0,0 0,0 -0.044086,-0.0208 -0.08817,-0.0181 -0.1322551,0.003 -0.00518,0.003 -0.010368,0.005 -0.012963,0.008 0,0 0,0 0,0 -0.080391,-0.0336 -0.1037297,0.0389 -0.1452218,0.0779 -0.036307,0.0311 -0.085577,0.0441 -0.1166967,0.0855 0,0 0,0 0,0 -0.046676,0.0132 -0.093357,0.026 -0.1400347,0.0389 -0.00518,0 -0.010368,0.003 -0.018154,0.005 -0.070018,0.0493 -0.1348491,0.0233 -0.1996801,-0.0132 v 0 c -0.012963,-0.0106 -0.025933,-0.0208 -0.038897,-0.0285 v 0 c -0.036307,-0.0208 -0.025933,-0.0752 -0.062237,-0.0985 v 0 0 c -0.012963,-0.0285 -0.028528,-0.0571 -0.041491,-0.0855 -0.012963,-0.0493 -0.025933,-0.096 -0.038902,-0.14523 v 0 c -0.00262,-0.0907 -0.00262,-0.18152 -0.00518,-0.27229 0,-0.005 0.00262,-0.008 0.00262,-0.0132 v 0 c 0.010368,-0.0106 0.00518,-0.0208 -0.00262,-0.0285 0,-0.0181 0.00262,-0.0363 0.00262,-0.0544 v 0 c 0.023338,-0.0311 0.00779,-0.0674 0.015558,-0.10116 0.015558,-0.0156 0.031117,-0.0363 0.015558,-0.0544 -0.025933,-0.0311 0.00262,-0.0519 0.00779,-0.0752 0,-0.0106 0,-0.0181 0,-0.0285 0,-0.0181 0.00262,-0.0388 0.00262,-0.0571 v 0 c 0,-0.0233 -0.00518,-0.0493 0.012963,-0.07 0.023338,-0.0132 0.036307,-0.0336 0.025933,-0.0597 -0.010368,-0.0233 0,-0.0414 0.018154,-0.0571 v 0 0 c 0.00262,-0.003 0.00518,-0.008 0.00518,-0.0106 0.025933,-0.0597 0.031117,-0.12447 0.023338,-0.18932 v 0 c 0,0 0,0 0,0 0,0 0,0 0,0 -0.00262,-0.0233 0.033712,-0.0466 0,-0.0726 -0.00518,-0.005 -0.010368,-0.0106 -0.012963,-0.0155 0.020742,-0.0519 0.00518,-0.10368 0,-0.1582 v 0 0 c -0.00518,-0.005 -0.010368,-0.0106 -0.012963,-0.0155 0,-0.0233 0,-0.0466 0,-0.0726 0.010368,-0.0106 0.012963,-0.0181 0.00262,-0.0311 -0.010368,-0.0132 -0.020742,-0.0285 -0.031117,-0.0414 0.00779,-0.0155 0.010368,-0.0285 0,-0.0441 -0.015558,-0.0622 -0.010368,-0.13485 -0.06483,-0.18412 -0.00779,-0.0259 -0.015558,-0.0544 -0.036307,-0.0752 v 0 c -0.010368,-0.0233 -0.036307,-0.0311 -0.054461,-0.0441 v 0 c -0.012963,-0.0466 -0.057051,-0.0596 -0.090763,-0.083 0,0 0,0 0,0 0,0 0,0 0,0 -0.028528,-0.0389 -0.067424,-0.0571 -0.1141015,-0.0571 -0.04927,-0.0441 -0.1089163,-0.0596 -0.171154,-0.0571 -0.057052,-0.005 -0.1141028,-0.005 -0.1685613,-0.0233 -0.057051,-0.0181 -0.1011358,0.008 -0.1374414,0.0519 -0.018154,0.0233 -0.038896,0.0441 -0.00779,0.0726 v 0 c 0.00518,0.0106 0.00779,0.0208 0.012963,0.0311 0.00518,0.008 0.010368,0.0181 0.015558,0.026 -0.025933,0.17634 0.051865,0.22042 0.2307985,0.14523 v 0 c 0.044086,-0.005 0.075203,0.0106 0.095951,0.0466 0,0.003 0.00262,0.005 0.00262,0.008 0,0 0,0 0,0 v 0 0 c 0.031117,0.0285 0.018154,0.0726 0.041491,0.10368 v 0 0 c 0.00518,0.0106 0.010368,0.0181 0.015558,0.0285 v 0 0 c 0,0.0106 0,0.0181 0,0.0285 v 0 c -0.00779,0.0208 -0.00518,0.0414 0.012963,0.0596 0.00518,0.0106 0.010368,0.0181 0.012963,0.0285 v 0 c 0,0.008 0,0.0181 0,0.0259 0,0 0,0 0,0 -0.010368,0.008 -0.015558,0.0181 -0.012963,0.0285 v 0 c 0,0.005 0,0.0106 0.00262,0.0155 0,0 0,0 0,0 0,0 0,0 0,0 0,0.0233 0,0.0466 0,0.0726 0.010368,0.0389 0.012963,0.0752 0,0.11414 v 0 c 0,0.026 -0.023338,0.0466 -0.015558,0.0726 -0.018154,0.0208 -0.015558,0.0441 -0.015558,0.0674 -0.028528,0.0389 -0.059645,0.0779 -0.057051,0.13228 -0.015558,0.0155 -0.038896,0.0285 -0.044086,0.0544 0,0 0,0.003 0,0.003 -0.00779,0.0233 -0.015558,0.0492 -0.023338,0.0726 v 0 c -0.012963,0.0155 -0.020744,0.0336 -0.015558,0.0544 0,0 0,0 0,0 -0.010368,0.0208 -0.028528,0.0336 -0.028528,0.0597 v 0 c -0.010368,0.0285 -0.018154,0.0544 -0.028528,0.083 -0.020749,0.0311 -0.028528,0.0649 -0.028528,0.10116 0,0 0,0 0,0 -0.015558,0.0571 -0.028528,0.11666 -0.025933,0.17633 v 0 0 c 0,0.0132 0,0.0285 0,0.0414 0,0.0622 0,0.12182 0,0.18412 0,0 0,0 0,0 -0.010368,0.0181 -0.025933,0.0363 -0.015558,0.0622 0,0.0106 0,0.0181 0,0.0285 v 0 c -0.00779,0.0908 -0.012963,0.18153 0.041491,0.26192 0,0 0,0 0,0 v 0 0 0 c 0,0.0132 0.00262,0.0259 0.00262,0.0414 0,0.0259 0.00262,0.0492 0.015558,0.0726 0.012963,0.0389 0.00779,0.0855 0.054456,0.10632 -0.00518,0.0389 0.020749,0.0649 0.038902,0.096 0,0.003 0.00262,0.008 0,0.0106 -0.033712,0.0804 0.023338,0.13227 0.062237,0.1893 0,0 0,0 0,0 0.028528,0.0933 0.1011358,0.15559 0.1581876,0.2308 0.00779,0.0441 -0.015558,0.0596 -0.057052,0.0726 -0.1089162,0.0363 -0.2204247,0.0466 -0.3345277,0.0414 -0.015558,0 -0.028528,0 -0.038896,0.0132 v 0 0 c -0.1659669,0.0132 -0.3267479,-0.0181 -0.4875288,-0.0571 0,0 0,0.003 0,0.003 0,0 0,0 0,0 v -0.003 c -0.020749,-0.0233 -0.046682,-0.0106 -0.07261,-0.0155 v 0 c -0.054455,-0.0363 -0.1115089,-0.0649 -0.1711534,-0.0855 -0.062239,-0.0363 -0.1218834,-0.0779 -0.1867138,-0.11149 -0.025933,-0.0132 -0.051865,0 -0.057051,0.0336 -0.012963,0.0106 -0.015558,0.0336 -0.00262,0.0519 z m 2.8525637,2.73327 v 0 c 0,0 0,0 0,0 0,0 -0.00262,-0.003 0,0 -0.00262,-0.003 0,-0.003 0,0 z"
       id="path7173"
       style="stroke-width:0.02593239" />
    <g
       transform="matrix(0.01095226,0,0,0.00907482,0.62235777,285.94418)"
       id="g9450">
      <linearGradient
         id="SVGID_1_"
         gradientUnits="userSpaceOnUse"
         x1="110.147"
         y1="851.46082"
         x2="175.0506"
         y2="851.46082"
         gradientTransform="matrix(0.6794,-0.7338,0.7338,0.6794,-405.8327,434.1327)">
        <stop
           offset="0"
           style="stop-color:#54B948"
           id="stop9016" />
        <stop
           offset="0.3764"
           style="stop-color:#00A651"
           id="stop9018" />
        <stop
           offset="1"
           style="stop-color:#005826"
           id="stop9020" />
      </linearGradient>
      <path
         inkscape:connector-curvature="0"
         d="m 360.3,904.9 c 0,0 -32.1,15.8 -88.9,6.1 0,0 32.1,-1.6 49.5,-5.3 20.6,-4.3 37.2,-1.4 39.4,-0.8 z"
         style="fill:#000000"
         id="path9023" />
      <linearGradient
         id="SVGID_2_"
         gradientUnits="userSpaceOnUse"
         x1="88.230301"
         y1="812.1275"
         x2="174.897"
         y2="812.1275"
         gradientTransform="matrix(0.6794,-0.7338,0.7338,0.6794,-405.8327,434.1327)">
        <stop
           offset="0"
           style="stop-color:#54B948"
           id="stop9025" />
        <stop
           offset="0.3764"
           style="stop-color:#00A651"
           id="stop9027" />
        <stop
           offset="1"
           style="stop-color:#005826"
           id="stop9029" />
      </linearGradient>
      <path
         inkscape:connector-curvature="0"
         d="m 346.9,892.8 c 0,0 -71.4,19.3 -134.9,-6.8 0,0 34.9,12.8 71.5,7.2 36.6,-5.7 56.1,-3.5 63.4,-0.4 z"
         style="fill:#000000"
         id="path9032" />
      <linearGradient
         id="SVGID_3_"
         gradientUnits="userSpaceOnUse"
         x1="104.2303"
         y1="782.16913"
         x2="174.897"
         y2="782.16913"
         gradientTransform="matrix(0.6794,-0.7338,0.7338,0.6794,-405.8327,434.1327)">
        <stop
           offset="0"
           style="stop-color:#54B948"
           id="stop9034" />
        <stop
           offset="0.3764"
           style="stop-color:#00A651"
           id="stop9036" />
        <stop
           offset="1"
           style="stop-color:#005826"
           id="stop9038" />
      </linearGradient>
      <path
         inkscape:connector-curvature="0"
         d="m 334.7,881.5 c 0,0 -92.6,9.2 -143.6,-36.7 0,0 30.6,23.4 81.7,25.6 51,2.3 61.9,11.1 61.9,11.1 z"
         style="fill:#000000"
         id="path9041" />
      <linearGradient
         id="SVGID_4_"
         gradientUnits="userSpaceOnUse"
         x1="112.2303"
         y1="764.5025"
         x2="176.5636"
         y2="764.5025"
         gradientTransform="matrix(0.6794,-0.7338,0.7338,0.6794,-405.8327,434.1327)">
        <stop
           offset="0"
           style="stop-color:#54B948"
           id="stop9043" />
        <stop
           offset="0.3764"
           style="stop-color:#00A651"
           id="stop9045" />
        <stop
           offset="1"
           style="stop-color:#005826"
           id="stop9047" />
      </linearGradient>
      <path
         inkscape:connector-curvature="0"
         d="m 317.8,863.5 c 0,0 -76,3.6 -129.1,-31.8 0,0 46,16.8 84.4,20.5 24.5,2.3 44.7,11.3 44.7,11.3 z"
         style="fill:#000000"
         id="path9050" />
      <linearGradient
         id="SVGID_5_"
         gradientUnits="userSpaceOnUse"
         x1="118.5636"
         y1="734.66913"
         x2="179.897"
         y2="734.66913"
         gradientTransform="matrix(0.6794,-0.7338,0.7338,0.6794,-405.8327,434.1327)">
        <stop
           offset="0"
           style="stop-color:#54B948"
           id="stop9052" />
        <stop
           offset="0.3764"
           style="stop-color:#00A651"
           id="stop9054" />
        <stop
           offset="1"
           style="stop-color:#005826"
           id="stop9056" />
      </linearGradient>
      <path
         inkscape:connector-curvature="0"
         d="m 161.9,798.3 c 0,0 59,48.7 145.4,51 0,0 -28.7,-15.3 -68.5,-21.7 -39.8,-6.3 -76.9,-29.3 -76.9,-29.3 z"
         style="fill:#000000"
         id="path9059" />
      <linearGradient
         id="SVGID_6_"
         gradientUnits="userSpaceOnUse"
         x1="126.5636"
         y1="714.91913"
         x2="182.5636"
         y2="714.91913"
         gradientTransform="matrix(0.6794,-0.7338,0.7338,0.6794,-405.8327,434.1327)">
        <stop
           offset="0"
           style="stop-color:#54B948"
           id="stop9061" />
        <stop
           offset="0.3764"
           style="stop-color:#00A651"
           id="stop9063" />
        <stop
           offset="1"
           style="stop-color:#005826"
           id="stop9065" />
      </linearGradient>
      <path
         inkscape:connector-curvature="0"
         d="m 155.4,781.3 c 0,0 47.9,43.9 136.7,50.3 0,0 -26.2,-15.2 -52.3,-19.3 -26.1,-4.2 -52,-9.6 -84.4,-31 z"
         style="fill:#000000"
         id="path9068" />
      <linearGradient
         id="SVGID_7_"
         gradientUnits="userSpaceOnUse"
         x1="137.2303"
         y1="693.33582"
         x2="186.2303"
         y2="693.33582"
         gradientTransform="matrix(0.6794,-0.7338,0.7338,0.6794,-405.8327,434.1327)">
        <stop
           offset="0"
           style="stop-color:#54B948"
           id="stop9070" />
        <stop
           offset="0.3764"
           style="stop-color:#00A651"
           id="stop9072" />
        <stop
           offset="1"
           style="stop-color:#005826"
           id="stop9074" />
      </linearGradient>
      <path
         inkscape:connector-curvature="0"
         d="m 149.2,761 c 0,0 65.8,55.5 127.2,51 0,0 -22,-12.4 -57.7,-20.1 C 183,784.2 149.2,761 149.2,761 Z"
         style="fill:#000000"
         id="path9077" />
      <linearGradient
         id="SVGID_8_"
         gradientUnits="userSpaceOnUse"
         x1="144.397"
         y1="672.5025"
         x2="189.897"
         y2="672.5025"
         gradientTransform="matrix(0.6794,-0.7338,0.7338,0.6794,-405.8327,434.1327)">
        <stop
           offset="0"
           style="stop-color:#54B948"
           id="stop9079" />
        <stop
           offset="0.3764"
           style="stop-color:#00A651"
           id="stop9081" />
        <stop
           offset="1"
           style="stop-color:#005826"
           id="stop9083" />
      </linearGradient>
      <path
         inkscape:connector-curvature="0"
         d="m 140.1,742.9 c 0,0 60.5,44 122.1,51.1 0,0 -17.5,-13.5 -52.5,-23.2 -35,-9.7 -58.8,-21.4 -69.6,-27.9 z"
         style="fill:#000000"
         id="path9086" />
      <linearGradient
         id="SVGID_9_"
         gradientUnits="userSpaceOnUse"
         x1="152.8951"
         y1="638.5025"
         x2="195.897"
         y2="638.5025"
         gradientTransform="matrix(0.6794,-0.7338,0.7338,0.6794,-405.8327,434.1327)">
        <stop
           offset="0"
           style="stop-color:#54B948"
           id="stop9088" />
        <stop
           offset="0.3764"
           style="stop-color:#00A651"
           id="stop9090" />
        <stop
           offset="1"
           style="stop-color:#005826"
           id="stop9092" />
      </linearGradient>
      <path
         inkscape:connector-curvature="0"
         d="m 116.8,709.7 c 0,0 58.5,55.5 128.8,60.6 0,0 -13.9,-10.6 -37.9,-16.9 -24.1,-6.4 -60.1,-22 -90.9,-43.7 z"
         style="fill:#000000"
         id="path9095" />
      <linearGradient
         id="SVGID_10_"
         gradientUnits="userSpaceOnUse"
         x1="161.6795"
         y1="609.16913"
         x2="202.2303"
         y2="609.16913"
         gradientTransform="matrix(0.6794,-0.7338,0.7338,0.6794,-405.8327,434.1327)">
        <stop
           offset="0"
           style="stop-color:#54B948"
           id="stop9097" />
        <stop
           offset="0.3764"
           style="stop-color:#00A651"
           id="stop9099" />
        <stop
           offset="1"
           style="stop-color:#005826"
           id="stop9101" />
      </linearGradient>
      <path
         inkscape:connector-curvature="0"
         d="m 93.4,676 c 0,0 70,69.1 142.7,77 0,0 -21.6,-15 -39.9,-20.2 C 177.9,727.6 134.7,709.9 93.4,676 Z"
         style="fill:#000000"
         id="path9104" />
      <linearGradient
         id="SVGID_11_"
         gradientUnits="userSpaceOnUse"
         x1="180.6864"
         y1="591.0025"
         x2="207.3221"
         y2="591.0025"
         gradientTransform="matrix(0.6794,-0.7338,0.7338,0.6794,-405.8327,434.1327)">
        <stop
           offset="0"
           style="stop-color:#54B948"
           id="stop9106" />
        <stop
           offset="0.3764"
           style="stop-color:#00A651"
           id="stop9108" />
        <stop
           offset="1"
           style="stop-color:#005826"
           id="stop9110" />
      </linearGradient>
      <path
         inkscape:connector-curvature="0"
         d="m 96.1,645.1 c 0,0 42.3,68.7 130.5,92.6 0,0 -1.2,-5.6 -38.4,-23.8 C 151,695.7 129.4,682.3 96.1,645.1 Z"
         style="fill:#000000"
         id="path9113" />
      <linearGradient
         id="SVGID_12_"
         gradientUnits="userSpaceOnUse"
         x1="195.6622"
         y1="587.33582"
         x2="213.1273"
         y2="587.33582"
         gradientTransform="matrix(0.6794,-0.7338,0.7338,0.6794,-405.8327,434.1327)">
        <stop
           offset="0"
           style="stop-color:#54B948"
           id="stop9115" />
        <stop
           offset="0.3764"
           style="stop-color:#00A651"
           id="stop9117" />
        <stop
           offset="1"
           style="stop-color:#005826"
           id="stop9119" />
      </linearGradient>
      <path
         inkscape:connector-curvature="0"
         d="m 109.5,644.2 c 0,0 69.4,69.7 108.9,78.1 0,0 -12,-15 -41.7,-31.5 C 147,674.4 139,669.2 109.5,644.2 Z"
         style="fill:#000000"
         id="path9122" />
      <linearGradient
         id="SVGID_13_"
         gradientUnits="userSpaceOnUse"
         x1="208.26871"
         y1="554.5423"
         x2="217.82809"
         y2="554.5423"
         gradientTransform="matrix(0.6794,-0.7338,0.7338,0.6794,-405.8327,434.1327)">
        <stop
           offset="0"
           style="stop-color:#54B948"
           id="stop9124" />
        <stop
           offset="0.3764"
           style="stop-color:#00A651"
           id="stop9126" />
        <stop
           offset="1"
           style="stop-color:#005826"
           id="stop9128" />
      </linearGradient>
      <path
         inkscape:connector-curvature="0"
         d="m 87.6,599.9 c 0,0 76.3,90.3 120.1,105.5 0,0 -28.3,-27 -53.8,-44.2 -25.6,-17.1 -66.3,-61.3 -66.3,-61.3 z"
         style="fill:#000000"
         id="path9131" />
      <linearGradient
         id="SVGID_14_"
         gradientUnits="userSpaceOnUse"
         x1="218.5032"
         y1="544.18707"
         x2="226.5584"
         y2="544.18707"
         gradientTransform="matrix(0.6794,-0.7338,0.7338,0.6794,-405.8327,434.1327)">
        <stop
           offset="0"
           style="stop-color:#54B948"
           id="stop9133" />
        <stop
           offset="0.3764"
           style="stop-color:#00A651"
           id="stop9135" />
        <stop
           offset="1"
           style="stop-color:#005826"
           id="stop9137" />
      </linearGradient>
      <path
         inkscape:connector-curvature="0"
         d="m 90.4,585.8 c 0,0 64.7,82.3 112.8,104.9 0,0 -10.9,-12.8 -35.5,-33.4 -24.6,-20.6 -52.2,-44.2 -77.3,-71.5 z"
         style="fill:#000000"
         id="path9140" />
      <linearGradient
         id="SVGID_15_"
         gradientUnits="userSpaceOnUse"
         x1="232.1745"
         y1="528.58728"
         x2="247.5636"
         y2="528.58728"
         gradientTransform="matrix(0.6794,-0.7338,0.7338,0.6794,-405.8327,434.1327)">
        <stop
           offset="0"
           style="stop-color:#54B948"
           id="stop9142" />
        <stop
           offset="0.3764"
           style="stop-color:#00A651"
           id="stop9144" />
        <stop
           offset="1"
           style="stop-color:#005826"
           id="stop9146" />
      </linearGradient>
      <path
         inkscape:connector-curvature="0"
         d="m 97.4,562.7 c 0,0 30.5,58.3 96.4,107.5 0,0 -14.4,-18.5 -32.7,-38.1 -18.3,-19.6 -41.2,-32.7 -63.7,-69.4 z"
         style="fill:#000000"
         id="path9149" />
      <path
         inkscape:connector-curvature="0"
         d="m 360.3,904.9 c 0,0 -29.4,15.8 -88.6,6.2 0,0 34.1,1.6 54.8,-2.2 13.4,-2.4 28.3,-3.2 33.8,-4 z"
         style="fill:#000000"
         id="path9151" />
      <path
         inkscape:connector-curvature="0"
         d="m 347.2,892.9 c 0,0 -71.4,19.3 -134.9,-6.8 0,0 25.1,11.7 76.5,9.9 29.6,-1 42.9,-2 58.4,-3.1 z"
         style="fill:#000000"
         id="path9153" />
      <path
         inkscape:connector-curvature="0"
         d="m 335.1,881.6 c 0,0 -92.9,9.1 -144,-36.8 0,0 30.8,24.1 81.6,29.5 40.2,4.2 62.4,7.3 62.4,7.3 z"
         style="fill:#000000"
         id="path9155" />
      <path
         inkscape:connector-curvature="0"
         d="m 318.1,863.6 c 0,0 -76.4,3.5 -129.4,-31.9 0,0 33.4,17.4 84.1,24.7 19.3,2.8 45.3,7.2 45.3,7.2 z"
         style="fill:#000000"
         id="path9157" />
      <path
         inkscape:connector-curvature="0"
         d="m 161.9,798.3 c 0,0 59.3,48.8 145.7,51.1 0,0 -34,-8 -66.6,-16.3 -39,-9.9 -79.1,-34.8 -79.1,-34.8 z"
         style="fill:#000000"
         id="path9159" />
      <path
         inkscape:connector-curvature="0"
         d="m 155.4,781.3 c 0,0 47.9,43.9 136.7,50.3 0,0 -26.8,-9.9 -52.9,-14 -26.1,-4.1 -51.4,-14.9 -83.8,-36.3 z"
         style="fill:#000000"
         id="path9161" />
      <path
         inkscape:connector-curvature="0"
         d="m 149.5,761.1 c 0,0 65.8,55.5 127.2,51 0,0 -15.9,-3.6 -49.4,-12.1 -44.8,-11.4 -77.8,-38.9 -77.8,-38.9 z"
         style="fill:#000000"
         id="path9163" />
      <path
         inkscape:connector-curvature="0"
         d="m 140.5,743 c 0,0 60.5,44 122.1,51.1 0,0 -22.7,-8.3 -53.6,-18.6 -34.5,-11.6 -57.8,-26 -68.5,-32.5 z"
         style="fill:#000000"
         id="path9165" />
      <path
         inkscape:connector-curvature="0"
         d="m 117.1,709.8 c 0,0 58.5,55.5 128.8,60.6 0,0 -15.8,-6.5 -39.9,-12.7 -33.4,-8.4 -58.1,-26.2 -88.9,-47.9 z"
         style="fill:#000000"
         id="path9167" />
      <path
         inkscape:connector-curvature="0"
         d="m 93.8,676.1 c 0,0 70,69.1 142.7,77 0,0 -23.9,-10 -42.2,-15.2 C 175.9,732.7 135.1,710 93.8,676.1 Z"
         style="fill:#000000"
         id="path9169" />
      <path
         inkscape:connector-curvature="0"
         d="m 96.1,645.1 c 0,0 42.6,68.8 130.8,92.7 0,0 -3.6,-1.9 -40.9,-20.1 -37.3,-18.2 -63.5,-38.8 -89.9,-72.6 z"
         style="fill:#000000"
         id="path9171" />
      <path
         inkscape:connector-curvature="0"
         d="m 109.5,644.2 c 0,0 69.4,69.7 108.9,78.1 0,0 -9.6,-7.1 -36.9,-22.9 -30.4,-17.6 -42.5,-30.2 -72,-55.2 z"
         style="fill:#000000"
         id="path9173" />
      <path
         inkscape:connector-curvature="0"
         d="m 86.7,598.8 c 0,0 76.3,90.3 120.1,105.5 0,0 -20.7,-14.3 -49.2,-36.7 -24.2,-18.9 -70.9,-68.8 -70.9,-68.8 z"
         style="fill:#000000"
         id="path9175" />
      <path
         inkscape:connector-curvature="0"
         d="m 90.4,585.8 c 0,0 64.7,82.3 112.8,104.9 0,0 -12.9,-9.9 -37.5,-30.4 -24.6,-20.5 -50.2,-47.2 -75.3,-74.5 z"
         style="fill:#000000"
         id="path9177" />
      <path
         inkscape:connector-curvature="0"
         d="m 97.4,562.7 c 0,0 30.3,58 96.2,107.2 0,0 -18.4,-15.8 -36.6,-35.4 -18.2,-19.6 -37.1,-35.1 -59.6,-71.8 z"
         style="fill:#000000"
         id="path9179" />
      <g
         id="g9192">
        <linearGradient
           id="SVGID_16_"
           gradientUnits="userSpaceOnUse"
           x1="249.2355"
           y1="504.97891"
           x2="267.897"
           y2="504.97891"
           gradientTransform="matrix(0.6794,-0.7338,0.7338,0.6794,-405.8327,434.1327)">
          <stop
             offset="0"
             style="stop-color:#54B948"
             id="stop9181" />
          <stop
             offset="0.3764"
             style="stop-color:#00A651"
             id="stop9183" />
          <stop
             offset="1"
             style="stop-color:#005826"
             id="stop9185" />
        </linearGradient>
        <path
           inkscape:connector-curvature="0"
           d="m 100.5,537.9 c 0,0 41.6,69.2 80.1,98.8 0,0 -15.9,-24 -29.7,-39.5 -13.8,-15.5 -35.4,-36.3 -50.4,-59.3 z"
           style="fill:#000000"
           id="path9188" />
        <path
           inkscape:connector-curvature="0"
           d="m 100.5,537.9 c 0,0 41.6,69.2 80.1,98.8 0,0 -18.7,-18.2 -32.7,-36.1 -12.7,-16.3 -32.4,-39.7 -47.4,-62.7 z"
           style="fill:#000000"
           id="path9190" />
      </g>
      <g
         id="g9205">
        <linearGradient
           id="SVGID_17_"
           gradientUnits="userSpaceOnUse"
           x1="261.92249"
           y1="491.1781"
           x2="293.5636"
           y2="491.1781"
           gradientTransform="matrix(0.6794,-0.7338,0.7338,0.6794,-405.8327,434.1327)">
          <stop
             offset="0"
             style="stop-color:#54B948"
             id="stop9194" />
          <stop
             offset="0.3764"
             style="stop-color:#00A651"
             id="stop9196" />
          <stop
             offset="1"
             style="stop-color:#005826"
             id="stop9198" />
        </linearGradient>
        <path
           inkscape:connector-curvature="0"
           d="m 114.3,515.6 c 0,0 20.4,61.9 58,96.8 0,0 -3.4,-7.2 -14.7,-24.9 -11.3,-17.7 -30.2,-37 -43.3,-71.9 z"
           style="fill:#000000"
           id="path9201" />
        <path
           inkscape:connector-curvature="0"
           d="m 114.3,515.6 c 0,0 20.4,61.9 58,96.8 0,0 -8.3,-8.4 -19.6,-26.1 -11.3,-17.7 -25.3,-35.8 -38.4,-70.7 z"
           style="fill:#000000"
           id="path9203" />
      </g>
      <g
         id="g9218">
        <linearGradient
           id="SVGID_18_"
           gradientUnits="userSpaceOnUse"
           x1="-597.16931"
           y1="94.3386"
           x2="-578.50781"
           y2="94.3386"
           gradientTransform="matrix(-0.9975,-0.07095607,-0.07095607,0.9975,-404.5641,434.8991)">
          <stop
             offset="0"
             style="stop-color:#54B948"
             id="stop9207" />
          <stop
             offset="0.3764"
             style="stop-color:#00A651"
             id="stop9209" />
          <stop
             offset="1"
             style="stop-color:#005826"
             id="stop9211" />
        </linearGradient>
        <path
           inkscape:connector-curvature="0"
           d="m 170.3,507.2 c 0,0 16.9,79 9.1,126.9 0,0 -4.8,-28.4 -5.3,-49.1 -0.5,-20.7 0.9,-50.7 -3.8,-77.8 z"
           style="fill:#000000"
           id="path9214" />
        <path
           inkscape:connector-curvature="0"
           d="m 170.3,507.2 c 0,0 16.9,79 9.1,126.9 0,0 1.2,-26.1 -0.8,-48.7 -1.9,-20.6 -3.6,-51.1 -8.3,-78.2 z"
           style="fill:#000000"
           id="path9216" />
      </g>
      <g
         id="g9231">
        <linearGradient
           id="SVGID_19_"
           gradientUnits="userSpaceOnUse"
           x1="-490.08069"
           y1="29.7125"
           x2="-458.43951"
           y2="29.7125"
           gradientTransform="matrix(-1.1796,-0.2452,-0.2027,0.9752,-391.6209,399.2818)">
          <stop
             offset="0"
             style="stop-color:#54B948"
             id="stop9220" />
          <stop
             offset="0.3764"
             style="stop-color:#00A651"
             id="stop9222" />
          <stop
             offset="1"
             style="stop-color:#005826"
             id="stop9224" />
        </linearGradient>
        <path
           inkscape:connector-curvature="0"
           d="m 154.1,487.8 c 0,0 25.7,63.4 15.4,113.4 0,0 -2,-7.9 -4.2,-29 -2.2,-21.1 1.7,-47.8 -11.2,-84.4 z"
           style="fill:#000000"
           id="path9227" />
        <path
           inkscape:connector-curvature="0"
           d="m 154.1,487.8 c 0,0 25.7,63.4 15.4,113.4 0,0 1.8,-11.6 -0.4,-32.8 -2.2,-21.2 -2.1,-44 -15,-80.6 z"
           style="fill:#000000"
           id="path9229" />
      </g>
      <g
         id="g9244">
        <linearGradient
           id="SVGID_20_"
           gradientUnits="userSpaceOnUse"
           x1="267.897"
           y1="484.7525"
           x2="322.46051"
           y2="484.7525"
           gradientTransform="matrix(0.6794,-0.7338,0.7338,0.6794,-405.8327,434.1327)">
          <stop
             offset="0"
             style="stop-color:#54B948"
             id="stop9233" />
          <stop
             offset="0.3764"
             style="stop-color:#00A651"
             id="stop9235" />
          <stop
             offset="1"
             style="stop-color:#005826"
             id="stop9237" />
        </linearGradient>
        <path
           inkscape:connector-curvature="0"
           d="m 169.2,601.5 c 0,0 -28.7,-49 -37.6,-109.2 0,0 32.6,71 37.6,109.2 z"
           style="fill:#000000"
           id="path9240" />
        <path
           inkscape:connector-curvature="0"
           d="m 169.2,601.5 c 0,0 -28.7,-49 -37.6,-109.2 0,0 20.1,67.6 37.6,109.2 z"
           style="fill:#000000"
           id="path9242" />
      </g>
      <g
         id="g9257">
        <linearGradient
           id="SVGID_21_"
           gradientUnits="userSpaceOnUse"
           x1="-880.60181"
           y1="787.59662"
           x2="-815.69818"
           y2="787.59662"
           gradientTransform="matrix(-0.813,0.5823,0.5823,0.813,-780.3392,714.4459)">
          <stop
             offset="0"
             style="stop-color:#54B948"
             id="stop9246" />
          <stop
             offset="0.3764"
             style="stop-color:#00A651"
             id="stop9248" />
          <stop
             offset="1"
             style="stop-color:#005826"
             id="stop9250" />
        </linearGradient>
        <path
           inkscape:connector-curvature="0"
           d="m 359.2,904.6 c 0,0 19.7,-29.9 17.2,-87.5 0,0 -5.6,31.7 -11.4,48.5 -7,20 -6.2,36.8 -5.8,39 z"
           style="fill:#000000"
           id="path9253" />
        <path
           inkscape:connector-curvature="0"
           d="m 359.2,904.6 c 0,0 19.3,-27.2 17.3,-87.1 0,0 -2.7,34 -9,54.1 -4.2,13 -6.9,27.7 -8.3,33 z"
           style="fill:#000000"
           id="path9255" />
      </g>
      <g
         id="g9270">
        <linearGradient
           id="SVGID_22_"
           gradientUnits="userSpaceOnUse"
           x1="-901.17889"
           y1="748.00818"
           x2="-814.51221"
           y2="748.00818"
           gradientTransform="matrix(-0.813,0.5823,0.5823,0.813,-780.3392,714.4459)">
          <stop
             offset="0"
             style="stop-color:#54B948"
             id="stop9259" />
          <stop
             offset="0.3764"
             style="stop-color:#00A651"
             id="stop9261" />
          <stop
             offset="1"
             style="stop-color:#005826"
             id="stop9263" />
        </linearGradient>
        <path
           inkscape:connector-curvature="0"
           d="m 347.6,890.4 c 0,0 28.1,-68.4 10.1,-134.7 0,0 8.3,36.3 -1.8,71.8 -10.2,35.7 -10.5,55.3 -8.3,62.9 z"
           style="fill:#000000"
           id="path9266" />
        <path
           inkscape:connector-curvature="0"
           d="m 347.6,890.8 c 0,0 28.1,-68.4 10.1,-134.7 0,0 8.4,26.3 0.3,77.2 -4.7,29.1 -7.3,42.1 -10.4,57.5 z"
           style="fill:#000000"
           id="path9268" />
      </g>
      <g
         id="g9283">
        <linearGradient
           id="SVGID_23_"
           gradientUnits="userSpaceOnUse"
           x1="-868.19757"
           y1="666.11719"
           x2="-797.53088"
           y2="666.11719"
           gradientTransform="matrix(-0.8699,0.4932,0.4932,0.8699,-717.2872,635.9059)">
          <stop
             offset="0"
             style="stop-color:#54B948"
             id="stop9272" />
          <stop
             offset="0.3764"
             style="stop-color:#00A651"
             id="stop9274" />
          <stop
             offset="1"
             style="stop-color:#005826"
             id="stop9276" />
        </linearGradient>
        <path
           inkscape:connector-curvature="0"
           d="m 337.2,878.7 c 0,0 30.2,-88 -2.8,-148.2 0,0 15.8,35.1 6.2,85.4 -9.5,50.1 -3.4,62.8 -3.4,62.8 z"
           style="fill:#000000"
           id="path9279" />
        <path
           inkscape:connector-curvature="0"
           d="m 337.2,879 c 0,0 30.2,-88.4 -2.8,-148.6 0,0 16.4,35.5 10,86.2 -5.1,40.1 -7.2,62.4 -7.2,62.4 z"
           style="fill:#000000"
           id="path9281" />
      </g>
      <g
         id="g9296">
        <linearGradient
           id="SVGID_24_"
           gradientUnits="userSpaceOnUse"
           x1="-847.12109"
           y1="624.41272"
           x2="-782.78778"
           y2="624.41272"
           gradientTransform="matrix(-0.8951,0.446,0.446,0.8951,-686.0966,601.3076)">
          <stop
             offset="0"
             style="stop-color:#54B948"
             id="stop9285" />
          <stop
             offset="0.3764"
             style="stop-color:#00A651"
             id="stop9287" />
          <stop
             offset="1"
             style="stop-color:#005826"
             id="stop9289" />
        </linearGradient>
        <path
           inkscape:connector-curvature="0"
           d="m 318.9,863.2 c 0,0 24.8,-72 5.7,-132.8 0,0 3.2,48.8 -4.1,86.8 -4.6,24.1 -1.6,46 -1.6,46 z"
           style="fill:#000000"
           id="path9292" />
        <path
           inkscape:connector-curvature="0"
           d="m 319,863.5 c 0,0 24.8,-72.3 5.7,-133.2 0,0 7.3,37 0.1,87.6 -2.8,19.4 -5.8,45.6 -5.8,45.6 z"
           style="fill:#000000"
           id="path9294" />
      </g>
      <g
         id="g9309">
        <linearGradient
           id="SVGID_25_"
           gradientUnits="userSpaceOnUse"
           x1="-849.87128"
           y1="607.46149"
           x2="-788.53802"
           y2="607.46149"
           gradientTransform="matrix(-0.88,0.475,0.475,0.88,-707.9734,624.7328)">
          <stop
             offset="0"
             style="stop-color:#54B948"
             id="stop9298" />
          <stop
             offset="0.3764"
             style="stop-color:#00A651"
             id="stop9300" />
          <stop
             offset="1"
             style="stop-color:#005826"
             id="stop9302" />
        </linearGradient>
        <path
           inkscape:connector-curvature="0"
           d="m 294.9,693.4 c 0,0 32.4,69.2 13.2,153.5 0,0 -7.7,-31.6 -3.9,-71.8 3.7,-40.1 -9.3,-81.7 -9.3,-81.7 z"
           style="fill:#000000"
           id="path9305" />
        <path
           inkscape:connector-curvature="0"
           d="m 294.9,693.4 c 0,0 32.5,69.6 13.2,153.9 0,0 0.8,-34.9 0.9,-68.6 0,-40.3 -14.1,-85.3 -14.1,-85.3 z"
           style="fill:#000000"
           id="path9307" />
      </g>
      <g
         id="g9322">
        <linearGradient
           id="SVGID_26_"
           gradientUnits="userSpaceOnUse"
           x1="-840.6239"
           y1="586.20172"
           x2="-784.6239"
           y2="586.20172"
           gradientTransform="matrix(-0.8829,0.4695,0.4695,0.8829,-706.2335,622.0685)">
          <stop
             offset="0"
             style="stop-color:#54B948"
             id="stop9311" />
          <stop
             offset="0.3764"
             style="stop-color:#00A651"
             id="stop9313" />
          <stop
             offset="1"
             style="stop-color:#005826"
             id="stop9315" />
        </linearGradient>
        <path
           inkscape:connector-curvature="0"
           d="m 279.6,685.6 c 0,0 30.2,57.5 13.7,145 0,0 -8,-29.2 -5.3,-55.5 2.6,-26.3 4,-52.7 -8.4,-89.5 z"
           style="fill:#000000"
           id="path9318" />
        <path
           inkscape:connector-curvature="0"
           d="m 279.6,685.6 c 0,0 30.2,57.5 13.7,145 0,0 -2.7,-28.4 -0.1,-54.8 2.7,-26.2 -1.2,-53.4 -13.6,-90.2 z"
           style="fill:#000000"
           id="path9320" />
      </g>
      <g
         id="g9335">
        <linearGradient
           id="SVGID_27_"
           gradientUnits="userSpaceOnUse"
           x1="-821.49908"
           y1="536.3551"
           x2="-772.49908"
           y2="536.3551"
           gradientTransform="matrix(-0.9072,0.4207,0.4207,0.9072,-676.3171,589.7834)">
          <stop
             offset="0"
             style="stop-color:#54B948"
             id="stop9324" />
          <stop
             offset="0.3764"
             style="stop-color:#00A651"
             id="stop9326" />
          <stop
             offset="1"
             style="stop-color:#005826"
             id="stop9328" />
        </linearGradient>
        <path
           inkscape:connector-curvature="0"
           d="m 267.7,672.7 c 0,0 32.5,79.7 9.4,136.7 0,0 -5,-24.7 -1.3,-61.1 3.7,-36.4 -8.1,-75.6 -8.1,-75.6 z"
           style="fill:#000000"
           id="path9331" />
        <path
           inkscape:connector-curvature="0"
           d="m 267.7,673.1 c 0,0 32.5,79.7 9.4,136.7 0,0 1.5,-16.2 3.6,-50.7 2.9,-46.2 -13,-86 -13,-86 z"
           style="fill:#000000"
           id="path9333" />
      </g>
      <g
         id="g9348">
        <linearGradient
           id="SVGID_28_"
           gradientUnits="userSpaceOnUse"
           x1="-834.40552"
           y1="467.2778"
           x2="-788.90552"
           y2="467.2778"
           gradientTransform="matrix(-0.9478,0.3188,0.3188,0.9478,-655.9698,539.6083)">
          <stop
             offset="0"
             style="stop-color:#54B948"
             id="stop9337" />
          <stop
             offset="0.3764"
             style="stop-color:#00A651"
             id="stop9339" />
          <stop
             offset="1"
             style="stop-color:#005826"
             id="stop9341" />
        </linearGradient>
        <path
           inkscape:connector-curvature="0"
           d="m 264,657.6 c 0,0 15.3,73.3 -3.5,132.4 0,0 -5.1,-21.5 0.4,-57.4 5.5,-36.1 4.7,-62.5 3.1,-75 z"
           style="fill:#000000"
           id="path9344" />
        <path
           inkscape:connector-curvature="0"
           d="m 264,657.9 c 0,0 15.3,73.3 -3.5,132.4 0,0 1.8,-24.2 5,-56.5 3.6,-36.2 0.1,-63.4 -1.5,-75.9 z"
           style="fill:#000000"
           id="path9346" />
      </g>
      <g
         id="g9361">
        <linearGradient
           id="SVGID_29_"
           gradientUnits="userSpaceOnUse"
           x1="-802.49408"
           y1="404.4552"
           x2="-759.49219"
           y2="404.4552"
           gradientTransform="matrix(-0.9694,0.2453,0.2453,0.9694,-605.6367,497.9318)">
          <stop
             offset="0"
             style="stop-color:#54B948"
             id="stop9350" />
          <stop
             offset="0.3764"
             style="stop-color:#00A651"
             id="stop9352" />
          <stop
             offset="1"
             style="stop-color:#005826"
             id="stop9354" />
        </linearGradient>
        <path
           inkscape:connector-curvature="0"
           d="m 254.9,627.4 c 0,0 20.8,78 -8.4,142.1 0,0 -2.6,-17.2 3.3,-41.4 5.9,-24.2 9.4,-63.3 5.1,-100.7 z"
           style="fill:#000000"
           id="path9357" />
        <path
           inkscape:connector-curvature="0"
           d="m 254.8,627.8 c 0,0 20.8,78 -8.4,142.1 0,0 1.8,-17 8,-41.1 8.6,-33.5 4.8,-63.6 0.4,-101 z"
           style="fill:#000000"
           id="path9359" />
      </g>
      <g
         id="g9374">
        <linearGradient
           id="SVGID_30_"
           gradientUnits="userSpaceOnUse"
           x1="-789.75677"
           y1="370.33179"
           x2="-749.20599"
           y2="370.33179"
           gradientTransform="matrix(-0.9732,0.2302,0.2302,0.9732,-596.031,490.48)">
          <stop
             offset="0"
             style="stop-color:#54B948"
             id="stop9363" />
          <stop
             offset="0.3764"
             style="stop-color:#00A651"
             id="stop9365" />
          <stop
             offset="1"
             style="stop-color:#005826"
             id="stop9367" />
        </linearGradient>
        <path
           inkscape:connector-curvature="0"
           d="m 239.6,592.7 c 0,0 25.7,95 -3.3,162.1 0,0 -2.4,-26.1 2.1,-44.7 4.6,-18.5 10.4,-64.7 1.2,-117.4 z"
           style="fill:#000000"
           id="path9370" />
        <path
           inkscape:connector-curvature="0"
           d="m 239.6,593.1 c 0,0 25.7,95 -3.3,162.1 0,0 3,-25.7 7.5,-44.3 4.6,-18.5 5,-65.2 -4.2,-117.8 z"
           style="fill:#000000"
           id="path9372" />
      </g>
      <g
         id="g9387">
        <linearGradient
           id="SVGID_31_"
           gradientUnits="userSpaceOnUse"
           x1="-747.19019"
           y1="320.42209"
           x2="-720.5545"
           y2="320.42209"
           gradientTransform="matrix(-0.9868,0.1617,0.1617,0.9868,-550.7617,458.8362)">
          <stop
             offset="0"
             style="stop-color:#54B948"
             id="stop9376" />
          <stop
             offset="0.3764"
             style="stop-color:#00A651"
             id="stop9378" />
          <stop
             offset="1"
             style="stop-color:#005826"
             id="stop9380" />
        </linearGradient>
        <path
           inkscape:connector-curvature="0"
           d="m 220.1,576.9 c 0,0 33.9,73.1 5.3,159.9 0,0 -4,-4.1 1.4,-45.2 5.4,-41.1 5.9,-66.5 -6.7,-114.7 z"
           style="fill:#000000"
           id="path9383" />
        <path
           inkscape:connector-curvature="0"
           d="m 220.1,576.9 c 0,0 33.8,73.5 5.2,160.3 0,0 0.4,-4.1 5.8,-45.2 5.4,-41.1 2.6,-74.6 -11,-115.1 z"
           style="fill:#000000"
           id="path9385" />
      </g>
      <g
         id="g9400">
        <linearGradient
           id="SVGID_32_"
           gradientUnits="userSpaceOnUse"
           x1="-728.1568"
           y1="304.19531"
           x2="-710.69171"
           y2="304.19531"
           gradientTransform="matrix(-0.9899,0.1414,0.1414,0.9899,-539.3928,451.1502)">
          <stop
             offset="0"
             style="stop-color:#54B948"
             id="stop9389" />
          <stop
             offset="0.3764"
             style="stop-color:#00A651"
             id="stop9391" />
          <stop
             offset="1"
             style="stop-color:#005826"
             id="stop9393" />
        </linearGradient>
        <path
           inkscape:connector-curvature="0"
           d="m 214.8,583.5 c 0,0 17.9,96.8 2.3,134 0,0 -5.5,-18.4 -2.2,-52.2 3.3,-33.8 3.7,-43.3 -0.1,-81.8 z"
           style="fill:#000000"
           id="path9396" />
        <path
           inkscape:connector-curvature="0"
           d="m 214.8,583.5 c 0,0 17.9,96.8 2.3,134 0,0 -0.4,-12 2.1,-43.4 2.8,-34.9 -0.6,-52.1 -4.4,-90.6 z"
           style="fill:#000000"
           id="path9398" />
      </g>
      <g
         id="g9413">
        <linearGradient
           id="SVGID_33_"
           gradientUnits="userSpaceOnUse"
           x1="-706.01801"
           y1="265.0199"
           x2="-696.4585"
           y2="265.0199"
           gradientTransform="matrix(-0.9938,0.1114,0.1114,0.9938,-521.5274,440.1482)">
          <stop
             offset="0"
             style="stop-color:#54B948"
             id="stop9402" />
          <stop
             offset="0.3764"
             style="stop-color:#00A651"
             id="stop9404" />
          <stop
             offset="1"
             style="stop-color:#005826"
             id="stop9406" />
        </linearGradient>
        <path
           inkscape:connector-curvature="0"
           d="m 195.4,546 c 0,0 27.5,115 13.7,159.3 0,0 -4.9,-38.8 -3.6,-69.5 1.3,-30.7 -10.1,-89.8 -10.1,-89.8 z"
           style="fill:#000000"
           id="path9409" />
        <path
           inkscape:connector-curvature="0"
           d="m 195.4,546 c 0,0 27.5,115 13.7,159.3 0,0 0.7,-25.2 -0.3,-61.4 C 207.9,613.2 195.4,546 195.4,546 Z"
           style="fill:#000000"
           id="path9411" />
      </g>
      <g
         id="g9426">
        <linearGradient
           id="SVGID_34_"
           gradientUnits="userSpaceOnUse"
           x1="-693.14587"
           y1="205.35539"
           x2="-685.09058"
           y2="205.35539"
           gradientTransform="matrix(-0.9964,0.08439438,0.08439438,0.9964,-516.5507,441.6334)">
          <stop
             offset="0"
             style="stop-color:#54B948"
             id="stop9415" />
          <stop
             offset="0.3764"
             style="stop-color:#00A651"
             id="stop9417" />
          <stop
             offset="1"
             style="stop-color:#005826"
             id="stop9419" />
        </linearGradient>
        <path
           inkscape:connector-curvature="0"
           d="m 177.6,511.6 c 0,0 25.1,101.7 13.4,153.5 0,0 -3.4,-16.5 -4.5,-48.5 -1.1,-32 -2.8,-68.3 -8.9,-105 z"
           style="fill:#000000"
           id="path9422" />
        <path
           inkscape:connector-curvature="0"
           d="m 177.6,511.6 c 0,0 25.1,101.7 13.4,153.5 0,0 0.1,-16.2 -0.9,-48.3 -1,-32.1 -6.4,-68.5 -12.5,-105.2 z"
           style="fill:#000000"
           id="path9424" />
      </g>
      <g
         id="g9439">
        <linearGradient
           id="SVGID_35_"
           gradientUnits="userSpaceOnUse"
           x1="283.76859"
           y1="557.46997"
           x2="237.1019"
           y2="607.30328"
           gradientTransform="matrix(0.6794,-0.7338,0.7338,0.6794,-405.8327,434.1327)">
          <stop
             offset="0"
             style="stop-color:#54B948"
             id="stop9428" />
          <stop
             offset="0.3764"
             style="stop-color:#00A651"
             id="stop9430" />
          <stop
             offset="1"
             style="stop-color:#005826"
             id="stop9432" />
        </linearGradient>
        <path
           inkscape:connector-curvature="0"
           d="m 187.5,544 c 0,0 21.7,63.1 12.9,144.9 0,0 -3.6,-24.2 -5.5,-50.8 -2,-26.7 4.1,-52.7 -7.4,-94.1 z"
           style="fill:#000000"
           id="path9435" />
        <path
           inkscape:connector-curvature="0"
           d="m 187.5,544 c 0,0 21.7,63.1 12.9,144.9 0,0 1,-25.6 -0.9,-52.3 -2,-26.7 -0.5,-51.2 -12,-92.6 z"
           style="fill:#000000"
           id="path9437" />
      </g>
      <linearGradient
         id="SVGID_36_"
         gradientUnits="userSpaceOnUse"
         x1="222.14951"
         y1="675.95001"
         x2="212.0276"
         y2="961.38849"
         gradientTransform="matrix(0.6794,-0.7338,0.7338,0.6794,-405.8327,434.1327)">
        <stop
           offset="0"
           style="stop-color:#54B948"
           id="stop9441" />
        <stop
           offset="0.3764"
           style="stop-color:#00A651"
           id="stop9443" />
        <stop
           offset="1"
           style="stop-color:#005826"
           id="stop9445" />
      </linearGradient>
      <path
         inkscape:connector-curvature="0"
         d="m 385.7,935.1 c 0,0 -180.3,-156 -216.8,-333.2 -0.5,-2.3 0.4,-3.4 0,-5.7 0,0 32.6,172.4 227.4,335.5 z"
         style="fill:#000000"
         id="path9448" />
    </g>
    <path
       inkscape:connector-curvature="0"
       d="m 7.4806114,290.65381 c 0,0 0.2439625,0.0401 0.4217832,0.0209 0.1778225,-0.0191 0.1366185,-0.0322 0.1951697,-0.0992 0.058551,-0.067 0.015177,-0.0305 -0.055298,-0.0426 -0.070479,-0.0119 0.016264,-0.0132 0.091078,-0.027 0.074815,-0.0139 0.1615574,0.005 0.2157704,-0.0557 0.05422,-0.0618 0.123608,-0.16709 0.123608,-0.16709 l -0.6212904,0.0626 -0.2537203,0.0853 z"
       style="fill:#000000;stroke-width:0.00971421"
       id="path10378" />
    <path
       inkscape:connector-curvature="0"
       d="m 7.5912077,290.4667 c 0,0 0.3144397,-0.0487 0.5117787,-0.0696 0.1973363,-0.0209 0.2884163,-0.0236 0.3209453,-0.0565 0.03253,-0.0331 0.09759,-0.11493 0.0412,-0.0914 -0.05638,0.0234 -0.2689,0.047 -0.222276,0.0183 0.04662,-0.0278 0.123607,-0.0356 0.260226,-0.0828 0.136619,-0.047 0.136619,-0.0348 0.186496,-0.10275 0.05096,-0.0679 -0.05639,-0.0217 -0.108428,-0.003 -0.05313,0.0191 -0.04554,-0.003 0.07373,-0.0575 0.11927,-0.0548 0.0965,-0.0139 0.169147,-0.11136 0,0 -0.307935,0.0583 -0.599605,0.12526 -0.2905852,0.067 -0.5096101,0.20627 -0.5096101,0.20627 z"
       style="fill:#000000;stroke-width:0.00971421"
       id="path10387" />
    <path
       inkscape:connector-curvature="0"
       d="m 7.734333,290.25086 c 0,0 0.2309504,-0.13664 0.5475587,-0.1906 0.317692,-0.0539 0.362149,-0.067 0.444552,-0.0975 0.08241,-0.0297 0.08241,-0.0297 0.110597,-0.0714 0.02819,-0.0409 -0.03036,-0.0132 -0.09,0.0156 -0.05964,0.0287 -0.294923,0.0765 -0.380581,0.0565 -0.08457,-0.02 -0.02928,-0.027 0.04012,-0.0522 0.06831,-0.0251 0.274322,-0.0304 0.458649,-0.15143 0.184326,-0.12103 0.211434,-0.26806 0.211434,-0.26806 0,0 -0.27107,0.19582 -0.639723,0.21062 -0.3686543,0.0148 -0.5356329,0.26892 -0.5356329,0.26892 z"
       style="fill:#000000;stroke-width:0.00971421"
       id="path10396" />
    <path
       inkscape:connector-curvature="0"
       d="m 7.9566089,289.92536 c 0,0 0.072646,-0.0826 0.3578108,-0.13228 0.285164,-0.0497 0.576835,-0.10354 0.655987,-0.16535 0.07915,-0.0609 0.125776,-0.14534 0.101923,-0.14796 -0.02386,-0.003 -0.33179,0.14099 -0.41311,0.1349 -0.08132,-0.007 -0.07265,-0.0183 0.02169,-0.0548 0.09433,-0.0375 0.320945,-0.0697 0.409856,-0.13664 0.08891,-0.067 0.124692,-0.18103 0.124692,-0.18103 l -0.436963,0.14099 -0.505274,0.004 c 0,0 -0.06722,0.10183 -0.1387856,0.18886 -0.071563,0.087 -0.1778219,0.34987 -0.1778219,0.34987 z"
       style="fill:#000000;stroke-width:0.00971421"
       id="path10405" />
    <path
       inkscape:connector-curvature="0"
       d="m 8.1626207,289.55113 c 0,0 0.12144,-0.0792 0.440217,-0.10355 0.318776,-0.0253 0.485755,-0.0478 0.56057,-0.12963 0.0759,-0.0818 0.06614,-0.10182 -0.01193,-0.0653 -0.07807,0.0365 -0.651649,0.11573 -0.63647,0.0653 0.01518,-0.0514 0.153968,-0.0322 0.405519,-0.0757 0.251552,-0.0436 0.344801,-0.0436 0.442386,-0.21236 0,0 -0.417448,-0.0453 -0.658156,-0.004 -0.241793,0.0417 -0.222277,-0.0209 -0.327452,0.094 -0.104091,0.11494 -0.214687,0.43168 -0.214687,0.43168 z"
       style="fill:#000000;stroke-width:0.00971421"
       id="path10414" />
    <path
       inkscape:connector-curvature="0"
       d="m 8.3708027,289.1682 c 0,0 0.07156,-0.0505 0.468406,-0.0723 0.39793,-0.0217 0.479251,0.009 0.539971,-0.0896 0.05963,-0.0984 0.08999,-0.13576 -0.01843,-0.094 -0.108428,0.0426 -0.455396,0.074 -0.426121,0.04 0.02927,-0.0331 0.376245,-0.0191 0.479251,-0.13402 0.103005,-0.11494 0.132281,-0.24282 0.132281,-0.24282 0,0 -0.20276,0.12791 -0.580087,0.12963 l -0.317693,0.0383 c 0,0 -0.08132,0.0401 -0.178905,0.23237 -0.09867,0.19234 -0.09867,0.19234 -0.09867,0.19234 z"
       style="fill:#000000;stroke-width:0.00971421"
       id="path10423" />
    <path
       inkscape:connector-curvature="0"
       d="m 8.5789837,288.79484 c 0,0 0.108427,-0.0339 0.416361,-0.0453 0.307934,-0.0119 0.449976,-0.0236 0.510694,-0.10884 0.06072,-0.0853 0.06397,-0.13664 0.0206,-0.10699 -0.04337,0.0295 -0.384918,0.06 -0.30685,0.0191 0.07807,-0.0417 0.250468,-0.0348 0.312272,-0.0992 0.0618,-0.0643 0.07807,-0.1671 0.07807,-0.1671 0,0 -0.581171,0.0295 -0.747066,0.16187 -0.165895,0.13317 -0.28408,0.34639 -0.28408,0.34639 z"
       style="fill:#000000;stroke-width:0.00971421"
       id="path10432" />
    <path
       inkscape:connector-curvature="0"
       d="m 8.8533037,288.46759 c 0,0 0.429375,-0.17842 0.739478,-0.12963 0,0 0.04771,-0.0948 -0.01193,-0.0914 -0.05964,0.004 -0.314441,0.027 -0.23095,-0.0119 0.08349,-0.0392 0.256972,-0.0522 0.294923,-0.10963 0.03795,-0.0575 0.08457,-0.14273 0.01735,-0.14883 -0.06722,-0.007 -0.07373,-0.0417 0,-0.0887 0.07373,-0.047 0.0553,-0.0801 0.06939,-0.20713 0,0 -0.568161,0.27502 -0.878265,0.78763 z"
       style="fill:#000000;stroke-width:0.00971421"
       id="path10441" />
    <path
       inkscape:connector-curvature="0"
       d="m 8.9498057,287.84967 c -0.013,0.0436 -0.05205,0.24282 0.01952,0.14708 0.07265,-0.0967 0.03036,-0.13402 0.252637,-0.19843 0.222276,-0.0643 0.220108,-0.0818 0.236372,-0.0626 0.01626,0.0192 -0.04879,0.10182 0.03144,0.0426 0.08024,-0.0592 0.194086,-0.0931 0.240708,-0.0975 0,0 -0.311187,0.17668 -0.506358,0.37424 -0.195167,0.19669 -0.395759,0.4543 -0.472743,0.53176 -0.07698,0.0765 -0.139871,-0.47954 -0.0965,-0.55004 0.04337,-0.0704 0.310103,-0.23499 0.294923,-0.18712 z"
       style="fill:#000000;stroke-width:0.00971421"
       id="path10450" />
    <path
       inkscape:connector-curvature="0"
       d="m 8.3339367,288.26481 c 0,0 0.12903,-0.1062 0.160473,-0.13751 0.03144,-0.0322 0.01626,0.0653 0.02927,0.15231 0.01302,0.087 0.05313,0.22628 0.07807,0.0487 0.02494,-0.17754 -0.01084,-0.24891 0.0553,-0.31418 0.06723,-0.0653 0.0618,-0.0531 0.101922,-0.0704 0.03903,-0.0173 0.0065,0.17929 0.04012,0.33943 0.03362,0.16013 0.06181,0.15753 0.02603,0.22366 -0.03578,0.0662 -0.296007,0.37858 -0.356728,0.4691 -0.05964,0.0906 -0.13445,-0.71105 -0.13445,-0.71105 z"
       style="fill:#000000;stroke-width:0.00971421"
       id="path10459" />
    <path
       inkscape:connector-curvature="0"
       d="m 8.5085047,288.92624 c -0.01193,0.0234 -0.233118,0.45518 -0.285164,0.52219 -0.05204,0.067 -0.07048,-0.52044 -0.1398725,-0.66579 -0.069392,-0.14446 -0.1127642,-0.11493 -0.073731,-0.16448 0.056385,-0.0714 0.1832435,-0.2054 0.1843275,-0.17668 0.0011,0.0287 0.12144,0.55004 0.127944,0.42471 0.0065,-0.12539 -0.06072,-0.45691 -0.04771,-0.51522 0.013,-0.0583 0.07048,-0.094 0.09975,-0.11917 0,0 0.08349,0.1845 0.104091,0.369 0.0206,0.1845 0.06506,0.25675 0.03036,0.32549 z"
       style="fill:#000000;stroke-width:0.00971421"
       id="path10468" />
    <path
       inkscape:connector-curvature="0"
       d="m 8.1073234,289.64861 c 0,0 0.2114323,-0.26719 0.1789053,-0.40034 -0.03253,-0.13317 -0.2287826,-0.69016 -0.2201076,-0.698 0.020601,-0.02 -0.092164,0.0731 -0.092164,0.14621 0,0.0731 0.047705,0.28286 0.023855,0.25762 -0.023855,-0.0253 -0.039034,-0.23151 -0.070477,-0.19756 -0.031441,0.0331 -0.074815,0.0453 -0.1040899,0.0896 -0.029274,0.0444 0.2298664,0.81984 0.2840806,0.80244 z"
       style="fill:#000000;stroke-width:0.00971421"
       id="path10477" />
    <path
       inkscape:connector-curvature="0"
       d="m 7.4936233,290.63554 0.2114323,-0.30635 c 0,0 -0.091079,-0.36641 -0.3155233,-0.43864 0,0 -0.016264,0.0548 0.013003,0.10699 0.029274,0.0523 0.14204,0.26284 0.1171019,0.37163 -0.026024,0.10884 -0.1095121,-0.17581 -0.1669788,-0.11229 -0.05855,0.0636 0.1084277,0.42557 0.1409565,0.37858 z"
       style="fill:#000000;stroke-width:0.00971421"
       id="path10486" />
    <path
       inkscape:connector-curvature="0"
       d="m 8.0953961,289.6808 c 0,0 -0.1409571,0.28547 -0.1951708,0.36293 -0.05421,0.0775 -0.2916705,-0.64577 -0.2916705,-0.64577 0,0 -0.0054,-0.10964 0.0065,-0.141 0.01193,-0.0314 0.045538,-0.14795 0.061803,-0.0618 0.0054,0.0278 0.035784,0.19409 0.097584,0.28111 0.061803,0.087 0.065056,0.10699 -0.01193,-0.22801 -0.076983,-0.33595 0.080239,-0.42734 0.080239,-0.42734 0,0 0.1257748,0.46911 0.1886623,0.58312 0.062889,0.114 0.1073432,0.19146 0.063973,0.27675 z"
       style="fill:#000000;stroke-width:0.00971421"
       id="path10495" />
    <path
       inkscape:connector-curvature="0"
       d="m 7.7039727,290.32919 c 0,0 -0.099754,-0.36466 -0.3155234,-0.43864 0,0 0.00867,-0.0548 0.073729,-0.0305 0.065058,0.0244 -0.055298,-0.1001 -0.04337,-0.14273 0.01193,-0.0426 0.056385,-0.16535 0.083489,-0.14099 0.027106,0.0244 0.1485452,0.36814 0.1854105,0.36379 0.036865,-0.004 -0.1171019,-0.28024 -0.1615558,-0.42819 -0.044456,-0.14795 0.06397,-0.21583 0.08891,-0.255 0,0 0.133365,0.37336 0.2146867,0.56396 0.081321,0.1906 0.069393,0.2228 0.069393,0.2228 z"
       style="fill:#000000;stroke-width:0.00971421"
       id="path10504" />
    <path
       inkscape:connector-curvature="0"
       d="m 7.3613414,290.24912 c 0,0 0.1485468,0.28372 0.1767372,0.32114 l -0.056385,0.0826 c 0,0 -0.2027595,-0.27761 -0.1702316,-0.33071 0.032528,-0.0522 0.044456,-0.0836 0.049879,-0.0731 z"
       style="fill:#000000;stroke-width:0.00971421"
       id="path10513" />
    <path
       inkscape:connector-curvature="0"
       d="m 9.7315687,287.67996 c -0.203845,0.10964 -0.330705,0.21061 -0.460817,0.33246 -0.131198,0.12182 -0.248299,0.25499 -0.357811,0.39163 -0.109513,0.13665 -0.238541,0.27242 -0.337211,0.41515 -0.09867,0.14273 -0.173484,0.28981 -0.265647,0.43516 l -0.05964,0.11228 c -0.02277,0.0365 -0.04554,0.0731 -0.06722,0.10964 l -0.066141,0.10963 -0.066141,0.10964 -0.1311984,0.22019 c -0.044457,0.0731 -0.087827,0.14621 -0.1322816,0.21931 -0.088912,0.14622 -0.1789066,0.29156 -0.2710698,0.43516 -0.022768,0.0356 -0.046625,0.0723 -0.069393,0.10791 -0.023855,0.0356 -0.047705,0.0714 -0.071562,0.10699 -0.023855,0.0356 -0.048792,0.0714 -0.072646,0.10619 -0.01193,0.0174 -0.024937,0.0348 -0.037952,0.0522 l -0.019513,0.0253 c -0.0065,0.008 -0.013003,0.0175 -0.018433,0.0236 l -0.00108,0.001 c -0.014097,0.0175 -0.013016,0.0392 0.00324,0.0487 0.016264,0.009 0.040121,0.004 0.055298,-0.0139 0,0 0,-0.001 0,-0.001 0.00867,-0.0106 0.014097,-0.0191 0.021682,-0.0278 l 0.01952,-0.027 c 0.013003,-0.0183 0.024937,-0.0356 0.037952,-0.054 0.024937,-0.0356 0.048792,-0.0723 0.072646,-0.10885 0.023855,-0.0365 0.046625,-0.0723 0.070479,-0.10884 0.022768,-0.0365 0.045538,-0.0731 0.06831,-0.10963 0.089995,-0.14623 0.1778213,-0.29243 0.2645641,-0.44039 0.04337,-0.074 0.085657,-0.14708 0.1279438,-0.22106 l 0.1268607,-0.22105 0.062888,-0.11056 0.06397,-0.11057 c 0.02169,-0.0365 0.04337,-0.0731 0.06506,-0.10963 l 0.05747,-0.11229 c 0.08891,-0.14622 0.161557,-0.2933 0.255888,-0.4369 0.09542,-0.1436 0.221194,-0.27936 0.328536,-0.41687 0.106259,-0.13751 0.220109,-0.27241 0.349136,-0.39513 0.127945,-0.12182 0.254806,-0.21583 0.454314,-0.3368 z"
       style="fill:#000000;stroke-width:0.00971421"
       id="path10522" />
    <g
       transform="matrix(0.01310079,0,0,0.0092231,-4.1844494,284.20198)"
       id="g10626">
      <linearGradient
         id="SVGID_96_"
         gradientUnits="userSpaceOnUse"
         x1="676.23181"
         y1="780.95813"
         x2="738.42279"
         y2="780.95813"
         gradientTransform="matrix(0.9913,-0.1315,0.1315,0.9913,-86.0899,149.6173)">
        <stop
           offset="0"
           style="stop-color:#54B948"
           id="stop10615" />
        <stop
           offset="0.3764"
           style="stop-color:#00A651"
           id="stop10617" />
        <stop
           offset="1"
           style="stop-color:#005826"
           id="stop10619" />
      </linearGradient>
      <path
         inkscape:connector-curvature="0"
         d="m 695,895.1 c 0,0 14.8,-69 45.7,-128.6 -0.1,0 -13.2,95.6 -45.7,128.6 z"
         style="fill:#000000"
         id="path10622" />
      <path
         inkscape:connector-curvature="0"
         d="m 695,895.1 c 0,0 -16.2,-34.8 45.7,-128.6 -0.1,0 -32.8,90.4 -45.7,128.6 z"
         style="fill:#000000"
         id="path10624" />
    </g>
    <path
       inkscape:connector-curvature="0"
       d="m 4.9651489,292.58209 c 0,0 -0.5174816,-0.22967 -1.1974131,-0.34218 -0.00131,0 0.622288,0.35232 1.1974131,0.34218 z"
       style="fill:#000000;stroke-width:0.01099227"
       id="path10635" />
    <path
       inkscape:connector-curvature="0"
       d="m 4.9651489,292.58209 c 0,0 0.043232,-0.22597 -1.1974131,-0.34218 -0.00131,0 0.8489316,0.23796 1.1974131,0.34218 z"
       style="fill:#000000;stroke-width:0.01099227"
       id="path10637" />
    <path
       inkscape:connector-curvature="0"
       d="m 4.7109931,292.29063 c 0,0 -0.6209774,-0.43624 -1.3703432,-0.72493 0,-10e-4 0.7729473,0.63916 1.3703432,0.72493 z"
       style="fill:#000000;stroke-width:0.01099227"
       id="path10646" />
    <path
       inkscape:connector-curvature="0"
       d="m 4.7109931,292.29063 c 0,0 -0.034059,-0.33386 -1.3703432,-0.72493 0,-10e-4 0.9707688,0.50636 1.3703432,0.72493 z"
       style="fill:#000000;stroke-width:0.01099227"
       id="path10648" />
    <path
       inkscape:connector-curvature="0"
       d="m 4.4699387,291.84148 c 0,0 -0.6052572,-0.48515 -1.3100801,-0.82363 0,0 0.7637766,0.70373 1.3100801,0.82363 z"
       style="fill:#000000;stroke-width:0.01099227"
       id="path10657" />
    <path
       inkscape:connector-curvature="0"
       d="m 4.4699387,291.84148 c 0,0 -0.065504,-0.34864 -1.3100801,-0.82363 0,0 0.9275365,0.57644 1.3100801,0.82363 z"
       style="fill:#000000;stroke-width:0.01099227"
       id="path10659" />
    <path
       inkscape:connector-curvature="0"
       d="m 4.3572716,291.51682 c 0,0 -0.6314581,-0.54509 -1.3546225,-0.93523 0,0 0.8043894,0.78767 1.3546225,0.93523 z"
       style="fill:#000000;stroke-width:0.01099227"
       id="path10668" />
    <path
       inkscape:connector-curvature="0"
       d="m 4.3572716,291.51682 c 0,0 -0.089085,-0.37907 -1.3546225,-0.93523 0,0 0.9589787,0.65577 1.3546225,0.93523 z"
       style="fill:#000000;stroke-width:0.01099227"
       id="path10670" />
    <path
       inkscape:connector-curvature="0"
       d="m 4.2432951,291.26225 c 0,0 -0.4978308,-0.60964 -1.1214288,-1.07725 0,0 0.6131174,0.86881 1.1214288,1.07725 z"
       style="fill:#000000;stroke-width:0.01099227"
       id="path10679" />
    <path
       inkscape:connector-curvature="0"
       d="m 4.2432951,291.26225 c 0,0 0,-0.3846 -1.1214288,-1.07725 0,0 0.7952187,0.75629 1.1214288,1.07725 z"
       style="fill:#000000;stroke-width:0.01099227"
       id="path10681" />
    <path
       inkscape:connector-curvature="0"
       d="m 4.0939458,290.743 c 0,0 -0.569885,-0.6198 -1.3035296,-1.08556 0,-0.001 0.6930323,0.88542 1.3035296,1.08556 z"
       style="fill:#000000;stroke-width:0.01099227"
       id="path10690" />
    <path
       inkscape:connector-curvature="0"
       d="m 4.0939458,290.743 c 0,0 0.0262,-0.4012 -1.3035296,-1.08556 0,-0.001 0.9249166,0.7609 1.3035296,1.08556 z"
       style="fill:#000000;stroke-width:0.01099227"
       id="path10692" />
    <path
       inkscape:connector-curvature="0"
       d="m 4.0480929,290.52164 c 0,0 -0.2698764,-0.71386 -0.7611565,-1.31706 0,0 0.2685665,0.99425 0.7611565,1.31706 z"
       style="fill:#000000;stroke-width:0.01099227"
       id="path10701" />
    <path
       inkscape:connector-curvature="0"
       d="m 4.0480929,290.52164 c 0,0 0.2017523,-0.3763 -0.7611565,-1.31706 0,0 0.5436836,0.92601 0.7611565,1.31706 z"
       style="fill:#000000;stroke-width:0.01099227"
       id="path10703" />
    <path
       inkscape:connector-curvature="0"
       d="m 4.0467829,290.04481 c 0,0 -0.1703107,-0.68528 -0.4978301,-1.26172 -0.00131,-0.001 0.1611394,0.95552 0.4978301,1.26172 z"
       style="fill:#000000;stroke-width:0.01099227"
       id="path10712" />
    <path
       inkscape:connector-curvature="0"
       d="m 4.0467829,290.04481 c 0,0 0.1519694,-0.36616 -0.4978301,-1.26172 -0.00131,-0.001 0.3550315,0.88634 0.4978301,1.26172 z"
       style="fill:#000000;stroke-width:0.01099227"
       id="path10714" />
    <path
       inkscape:connector-curvature="0"
       d="m 4.7162338,292.17903 c 0,0 0.1572094,-0.61425 0.5017608,-1.14274 0,0 -0.1349386,0.85314 -0.5017608,1.14274 z"
       style="fill:#000000;stroke-width:0.01099227"
       id="path10734" />
    <path
       inkscape:connector-curvature="0"
       d="m 4.7162338,292.17903 c 0,0 -0.1912721,-0.31266 0.5017608,-1.14274 0,0 -0.3589622,0.80426 -0.5017608,1.14274 z"
       style="fill:#000000;stroke-width:0.01099227"
       id="path10736" />
    <path
       inkscape:connector-curvature="0"
       d="m 4.5708145,291.86545 c 0,0 0.241055,-0.60043 0.6563502,-1.10307 0,0 -0.2502251,0.83928 -0.6563502,1.10307 z"
       style="fill:#000000;stroke-width:0.01099227"
       id="path10745" />
    <path
       inkscape:connector-curvature="0"
       d="m 4.5708145,291.86545 c 0,0 -0.1480386,-0.32465 0.6563502,-1.10307 0,0 -0.4676982,0.77565 -0.6563502,1.10307 z"
       style="fill:#000000;stroke-width:0.01099227"
       id="path10747" />
    <path
       inkscape:connector-curvature="0"
       d="m 4.4319465,291.63487 c 0,0 0.2004422,-0.57829 0.5502331,-1.06158 0,0 -0.2083022,0.80795 -0.5502331,1.06158 z"
       style="fill:#000000;stroke-width:0.01099227"
       id="path10756" />
    <path
       inkscape:connector-curvature="0"
       d="m 4.4319465,291.63487 c 0,0 -0.1270778,-0.31266 0.5502331,-1.06158 0,0 -0.3930237,0.74615 -0.5502331,1.06158 z"
       style="fill:#000000;stroke-width:0.01099227"
       id="path10758" />
    <path
       inkscape:connector-curvature="0"
       d="m 4.3205894,291.289 c 0,0 0.3117993,-0.60595 0.755916,-1.0957 0,-0.001 -0.3628917,0.85314 -0.755916,1.0957 z"
       style="fill:#000000;stroke-width:0.01099227"
       id="path10767" />
    <path
       inkscape:connector-curvature="0"
       d="m 4.3205894,291.289 c 0,0 -0.068124,-0.34955 0.755916,-1.0957 0,-0.001 -0.5371323,0.76922 -0.755916,1.0957 z"
       style="fill:#000000;stroke-width:0.01099227"
       id="path10769" />
    <path
       inkscape:connector-curvature="0"
       d="m 4.215783,291.02062 c 0,0 0.3117994,-0.60596 0.7559165,-1.09571 0,-0.001 -0.3628922,0.85314 -0.7559165,1.09571 z"
       style="fill:#000000;stroke-width:0.01099227"
       id="path10778" />
    <path
       inkscape:connector-curvature="0"
       d="m 4.215783,291.02062 c 0,0 -0.068124,-0.34956 0.7559165,-1.09571 0,-0.001 -0.5371329,0.76921 -0.7559165,1.09571 z"
       style="fill:#000000;stroke-width:0.01099227"
       id="path10780" />
    <path
       inkscape:connector-curvature="0"
       d="m 4.1266979,290.61848 c 0,0 0.3117988,-0.60595 0.7559159,-1.0957 0,0 -0.3628922,0.85314 -0.7559159,1.0957 z"
       style="fill:#000000;stroke-width:0.01099227"
       id="path10789" />
    <path
       inkscape:connector-curvature="0"
       d="m 4.1266979,290.61848 c 0,0 -0.068124,-0.34955 0.7559159,-1.0957 0,0 -0.5371329,0.7692 -0.7559159,1.0957 z"
       style="fill:#000000;stroke-width:0.01099227"
       id="path10791" />
    <path
       inkscape:connector-curvature="0"
       d="m 4.0625037,290.10107 c 0,0 0.3131092,-0.55431 0.7637765,-1.00071 0,0 -0.3615816,0.7812 -0.7637765,1.00071 z"
       style="fill:#000000;stroke-width:0.01099227"
       id="path10800" />
    <path
       inkscape:connector-curvature="0"
       d="m 4.0625037,290.10107 c 0,0 -0.075984,-0.32096 0.7637765,-1.00071 0,0 -0.542373,0.7028 -0.7637765,1.00071 z"
       style="fill:#000000;stroke-width:0.01099227"
       id="path10802" />
    <path
       inkscape:connector-curvature="0"
       d="m 4.0598836,289.66298 c 0,0 0.2829773,-0.50175 0.6904123,-0.90571 0,0 -0.3262101,0.70741 -0.6904123,0.90571 z"
       style="fill:#000000;stroke-width:0.01099227"
       id="path10811" />
    <path
       inkscape:connector-curvature="0"
       d="m 4.0598836,289.66298 c 0,0 -0.068124,-0.29054 0.6904123,-0.90571 0,0 -0.4899701,0.63638 -0.6904123,0.90571 z"
       style="fill:#000000;stroke-width:0.01099227"
       id="path10813" />
    <path
       inkscape:connector-curvature="0"
       d="m 4.0847751,289.52094 c 0,0 -0.1545893,0.58106 0.017032,1.27463 0.1716202,0.69359 0.6118073,1.77268 1.0873661,2.03001 0,0 0.1100457,-0.0286 0.024891,-0.0867 -0.086465,-0.0591 -0.3877835,-0.35601 -0.5698844,-0.74245 -0.1821013,-0.38737 -0.3956442,-0.76921 -0.4729392,-1.26542 -0.077294,-0.4962 -0.086465,-1.21007 -0.086466,-1.21007 z"
       style="fill:#000000;stroke-width:0.01099227"
       id="path10822" />
    <text
       xml:space="preserve"
       style="font-style:normal;font-variant:normal;font-weight:normal;font-stretch:normal;font-size:1.0372957px;line-height:1.25;font-family:Webdings;-inkscape-font-specification:Webdings;letter-spacing:0px;word-spacing:0px;fill:#000000;fill-opacity:1;stroke:none;stroke-width:0.02593239"
       x="3.9851582"
       y="287.93585"
       id="text11801"><tspan
         sodipodi:role="line"
         id="tspan11799"
         x="3.9851582"
         y="287.93585"
         style="font-style:normal;font-variant:normal;font-weight:normal;font-stretch:normal;font-size:1.65967309px;font-family:'Palatino Linotype';-inkscape-font-specification:'Palatino Linotype';stroke-width:0.02593239">ELLY</tspan></text>
  </g>
</svg>
