<?xml version="1.0" encoding="UTF-8" standalone="no"?>
<!-- Created with Inkscape (http://www.inkscape.org/) -->

<svg
   xmlns:dc="http://purl.org/dc/elements/1.1/"
   xmlns:cc="http://creativecommons.org/ns#"
   xmlns:rdf="http://www.w3.org/1999/02/22-rdf-syntax-ns#"
   xmlns:svg="http://www.w3.org/2000/svg"
   xmlns="http://www.w3.org/2000/svg"
   xmlns:sodipodi="http://sodipodi.sourceforge.net/DTD/sodipodi-0.dtd"
   xmlns:inkscape="http://www.inkscape.org/namespaces/inkscape"
   width="72"
   height="72"
   viewBox="0 0 19.05 19.05"
   version="1.1"
   id="svg8"
   inkscape:version="0.92.4 (5da689c313, 2019-01-14)"
   sodipodi:docname="72logo.svg">
  <defs
     id="defs2">
    <inkscape:path-effect
       effect="simplify"
       id="path-effect3894"
       is_visible="true"
       steps="1"
       threshold="0.00113885"
       smooth_angles="360"
       helper_size="0"
       simplify_individual_paths="false"
       simplify_just_coalesce="false"
       simplifyindividualpaths="false"
       simplifyJustCoalesce="false" />
    <inkscape:path-effect
       effect="simplify"
       id="path-effect3890"
       is_visible="true"
       steps="1"
       threshold="0.00113885"
       smooth_angles="360"
       helper_size="0"
       simplify_individual_paths="false"
       simplify_just_coalesce="false"
       simplifyindividualpaths="false"
       simplifyJustCoalesce="false" />
    <inkscape:path-effect
       effect="simplify"
       id="path-effect3886"
       is_visible="true"
       steps="1"
       threshold="0.00113885"
       smooth_angles="360"
       helper_size="0"
       simplify_individual_paths="false"
       simplify_just_coalesce="false"
       simplifyindividualpaths="false"
       simplifyJustCoalesce="false" />
    <inkscape:path-effect
       effect="simplify"
       id="path-effect3882"
       is_visible="true"
       steps="1"
       threshold="0.00113885"
       smooth_angles="360"
       helper_size="0"
       simplify_individual_paths="false"
       simplify_just_coalesce="false"
       simplifyindividualpaths="false"
       simplifyJustCoalesce="false" />
  </defs>
  <sodipodi:namedview
     id="base"
     pagecolor="#ffffff"
     bordercolor="#666666"
     borderopacity="1.0"
     inkscape:pageopacity="0.0"
     inkscape:pageshadow="2"
     inkscape:zoom="5.6568543"
     inkscape:cx="20.230508"
     inkscape:cy="23.839358"
     inkscape:document-units="mm"
     inkscape:current-layer="layer1"
     showgrid="false"
     inkscape:window-width="1366"
     inkscape:window-height="705"
     inkscape:window-x="-8"
     inkscape:window-y="-8"
     inkscape:window-maximized="1"
     units="px"
     height="8.5in"
     fit-margin-left="-0.2"
     fit-margin-bottom="-0.3" />
  <metadata
     id="metadata5">
    <rdf:RDF>
      <cc:Work
         rdf:about="">
        <dc:format>image/svg+xml</dc:format>
        <dc:type
           rdf:resource="http://purl.org/dc/dcmitype/StillImage" />
        <dc:title></dc:title>
      </cc:Work>
    </rdf:RDF>
  </metadata>
  <g
     inkscape:label="Layer 1"
     inkscape:groupmode="layer"
     id="layer1"
     transform="translate(0,-277.95)">
    <path
       inkscape:connector-curvature="0"
       d="m 2.3549798,284.9214 c 0.1341489,0.16353 0.2557203,0.34375 0.4737118,0.41921 0.1173786,0.0669 0.2263757,0.15083 0.3689081,0.16355 0,0 0,0 0,0 0.2347591,0.10895 0.4862875,0.13417 0.7378155,0.17187 0.2431446,0.0336 0.4695194,0.0213 0.7042796,-0.0251 0.029347,-0.005 0.058693,0.0129 0.088032,0.0171 v 0 c 0,0.0293 0.00837,0.0503 0.041922,0.0503 v 0 c 0,0.0171 0.00424,0.0293 0.00424,0.0461 0,0 0,0 0,0 0.012593,0.0923 0.071268,0.15519 0.1425324,0.20548 0,0 0,0 0,0 v 0 c 0.012593,0.0797 -0.033542,0.1676 0.046106,0.23058 v 0 0 c 0.012593,0.0251 0.029347,0.0503 0.041922,0.0753 v 0 c 0,0.005 0,0.0129 0.00424,0.0171 0.00424,0.0461 0.033542,0.0713 0.071268,0.0923 v 0 0 0 c 0.037727,0.0336 0.058693,0.0753 0.041922,0.12997 -0.00837,0.0293 -0.012593,0.0629 0.02515,0.0797 v 0 c 0.020956,0.0251 0.041922,0.0503 0.062879,0.0713 v 0 c 0.012593,0.0503 0.046117,0.0797 0.092228,0.0963 v 0 c 0.1299571,0.0587 0.2054165,0.18023 0.3227947,0.25152 0,0 0,0 0,0 0.029347,0.042 0.075455,0.0587 0.121572,0.0669 0.092227,0.0252 0.1844544,0.0461 0.2766813,0.0713 v 0 c 0.083843,0.0336 0.1676856,0.0377 0.2557203,0.0503 0.025151,0.025 0.058693,0.0171 0.092227,0.0213 0,0 0,0 0,0 0.071268,0.0503 0.1509175,0.0543 0.2347603,0.0461 0.046117,0 0.092226,0 0.1341489,0 0.00837,-0.005 0.01676,-0.008 0.029347,-0.0129 0,0 0,0 0,0 0.071268,-0.0171 0.062879,0.0713 0.1131853,0.0797 v 0 0 c 0.037726,0.0336 0.02515,0.10492 0.08804,0.12593 0,0 0,0 0,0 0.067073,0.3647 0.1509175,0.72943 0.09642,1.1067 v 0 c 0,0.0171 0,0.0336 0,0.0503 v 0 c -0.033542,0.0377 -0.02515,0.0753 -0.00424,0.11736 -0.00424,0.008 -0.00424,0.0129 0,0.0213 v 0 c -0.029347,0.10895 -0.02515,0.22216 -0.067073,0.32698 v 0 0 0 c -0.00837,0.008 -0.00837,0.0129 -0.00837,0.0213 -0.033531,0.0713 -0.033531,0.15082 -0.041922,0.23055 0,0 0,0 0,0 -0.054498,0.12577 -0.029347,0.26829 -0.054498,0.39826 -0.041922,0.21799 -0.092227,0.43599 -0.138339,0.65396 -0.00424,0.0293 -0.00837,0.0587 -0.00837,0.0923 -0.033542,0.13821 -0.067073,0.28086 -0.09642,0.42339 -0.012593,0.0587 -0.067073,0.0923 -0.071268,0.15083 0,0 0,0 0,0 -0.02515,0.0543 -0.046117,0.10895 -0.071268,0.1676 -0.050303,0.0669 -0.029347,0.14679 -0.041922,0.218 -0.016761,0.0879 -0.00424,0.18023 -0.00424,0.26831 0,0.0293 0,0.0629 0,0.0923 0,0.12577 0.00837,0.24733 0.092227,0.34793 v 0 c 0.012593,0.0713 0.054498,0.12561 0.1173819,0.15923 0.00837,0.008 0.012593,0.0171 0.020956,0.0251 v 0 c 0.033531,0.0879 0.071268,0.17187 0.1048034,0.25991 0,0.008 0.00424,0.0129 0.00837,0.0213 0.037727,0.14258 0.037727,0.28508 -0.012593,0.42761 -0.012593,0.0377 -0.012593,0.0839 -0.01676,0.12593 -0.025151,0.0461 -0.058685,0.0879 -0.067073,0.13822 v 0 c -0.025151,0.0336 -0.00837,0.0543 0.020955,0.0713 v 0 c 0.046117,0.042 0.062888,0.11736 0.1425324,0.11332 0.062887,0.008 0.1257638,0.0129 0.1844544,0.0213 v 0 0 c 0.016761,0 0.029347,0 0.046117,0 v 0 c 0.046117,0 0.092228,0 0.1383406,0 0.071268,0.0251 0.1383391,0.0377 0.2096056,0 v 0 0 0 c 0,0 0,0 0,0 0.062879,-0.0129 0.1048034,-0.0587 0.1425324,-0.10896 v 0 c 0.058693,-0.0293 0.09642,-0.0797 0.1425324,-0.12156 0.00837,-0.008 0.012593,-0.0171 0.020955,-0.0251 0,-0.0129 0,-0.0213 0,-0.0293 0.00424,0.005 0.00424,0.0129 0,0.0293 0.016761,-0.0213 0.029347,-0.0461 0.046117,-0.0669 0.083843,-0.0963 0.1844544,-0.1845 0.2389523,-0.30183 0.08803,-0.0839 0.029347,-0.14662 -0.02515,-0.21384 v 0 c -0.00424,-0.0293 -0.020956,-0.0503 -0.046117,-0.0713 -0.025151,-0.0669 -0.071268,-0.11736 -0.142534,-0.13822 -0.19703,-0.14258 -0.285064,-0.33535 -0.2515282,-0.57849 v 0 c 0.046117,-0.0293 0.00424,-0.0587 0,-0.0879 0.067073,-0.0669 0.037727,-0.1676 0.092228,-0.23896 0.067073,-0.17615 0.1341456,-0.35632 0.2054144,-0.5324 v 0 c 0.050303,-0.10895 0.10061,-0.21799 0.1467257,-0.32279 v 0 c 0.037727,-0.0669 0.075455,-0.13418 0.1131853,-0.20121 0,0 0,0 0,0 0.029347,-0.0543 0.062879,-0.11316 0.092228,-0.16759 v 0 c 0.029347,-0.0461 0.062879,-0.0923 0.092227,-0.13822 0,0 0,0 0,0 0.012593,-0.0336 0.029347,-0.0629 0.041922,-0.0964 0.050303,-0.0336 0.037727,-0.0879 0.046117,-0.13821 v 0 c 0.1048034,-0.0213 0.041922,0.0879 0.08804,0.11316 0,0.0503 -0.00424,0.10055 0.025151,0.14662 0.025151,0.26413 0,0.52823 0.071268,0.78812 0.092226,0.23057 0,0.46116 0,0.69171 0,0 0,0 0,0 -0.025151,0.0669 -0.041922,0.13418 -0.046117,0.20956 v 0 c -0.012593,0.0171 -0.00837,0.0336 0.00424,0.0461 v 0 c 0.00837,0.0546 -0.020956,0.11316 0.02515,0.15923 v 0 c 0.00837,0.005 0.012593,0.008 0.020956,0.0129 v 0 c 0,0.0503 -0.020956,0.10492 0.020955,0.15099 0.10061,0.17189 0.121572,0.34375 0.025151,0.52403 0,0 0,0 0,0 -0.067073,0.12593 -0.071268,0.27248 -0.1383423,0.40244 v 0 c -0.050303,0.0251 -0.050303,0.0753 -0.067073,0.11736 v 0 c -0.033531,0.0336 -0.050303,0.0713 -0.041922,0.11736 -0.00837,0.008 -0.016761,0.0171 -0.020956,0.0251 v 0 0 c -0.037727,0.0129 -0.058693,0.0336 -0.071268,0.0713 -0.00424,0.008 -0.00424,0.0129 0,0.0213 -0.10061,0.10492 -0.08804,0.28924 0.020956,0.34793 v 0 0 c 0.037727,0 0.079648,0 0.1173787,0 0.020955,0.008 0.041922,0.0171 0.067073,0.0213 0.1299572,0.0879 0.2766813,0.0336 0.4150224,0.0461 0.096417,0.0293 0.1886455,0.0129 0.2850658,0 v 0 c 0.046109,0 0.092226,-0.005 0.138339,-0.005 0,0 0,0 0,0 0,0 0,0 0,0 0.1299571,0 0.268296,0.0252 0.3730996,-0.0923 0.02515,-0.0461 0.050303,-0.0923 0.075464,-0.13418 0.025151,-0.0251 0.046117,-0.0543 0.041922,-0.0923 0,0 0,0 0,0 0.029347,-0.042 0.025151,-0.0923 0.025151,-0.14258 0,0 0,0 0,0 0.037727,-0.0543 0.020955,-0.11316 0,-0.16761 0.00424,-0.008 0.00424,-0.0129 0,-0.0171 -0.029347,-0.10492 -0.041922,-0.21383 -0.1131885,-0.30602 0.00424,-0.0336 -0.012593,-0.0587 -0.025151,-0.0879 0,0 0,0 0,0 0,0 0,0 0,0 -0.025151,-0.1845 -0.016761,-0.36888 -0.016761,-0.55335 -0.00424,-0.005 -0.00837,-0.005 -0.00837,-0.008 v 0 c 0,0 0,0 0,0 0.00424,0.005 0.00837,0.005 0.00837,0.008 0.067073,-0.0627 0.037727,-0.14662 0.037727,-0.21798 -0.00424,-0.42761 0.1006101,-0.83843 0.1509175,-1.25765 0.029347,-0.24734 0.071268,-0.49048 0.1048034,-0.73782 0.012593,-0.0293 0.020955,-0.0587 0.033542,-0.0839 v 0 c 0.03773,-0.0629 0.07127,-0.1256 0.108995,-0.18857 v 0 0 c 0.01259,-0.0171 0.01259,-0.0377 0.01259,-0.0587 0.03354,-0.0965 0.125764,-0.0923 0.226376,-0.0797 0.0503,0.008 0.10061,0 0.150917,0 0.0042,0.005 0.0084,0.005 0.01259,0.005 0.05869,0.0293 0.121572,0.0129 0.180261,0.0129 0.07965,0 0.142534,0.005 0.108997,0.10895 -0.0042,0.0213 0.0084,0.0461 0.02935,0.0587 v 0 c 0.0545,0.10896 0.08384,0.23059 0.163493,0.32281 0.07546,0.042 -0.01259,0.14679 0.07127,0.18452 v 0 c 0.0084,0.0293 0.01259,0.0629 0.02096,0.0923 v 0 c 0,0.0377 0.0042,0.0753 0.0042,0.11315 0.02935,0.12594 0.0084,0.26409 0.09223,0.37309 0.04192,0.0293 0.0084,0.0879 0.04192,0.12157 0.04192,0.19285 0.01259,0.38568 0.02515,0.57433 v 0 c -0.03773,0.0587 -0.02515,0.12157 -0.02096,0.18451 v 0 c -0.0084,0.0629 -0.01676,0.12157 -0.02096,0.18452 v 0 c -0.06288,0.10491 -0.17607,0.18023 -0.209608,0.30183 v 0 c -0.08803,0.0879 -0.08803,0.20957 -0.117378,0.32279 v 0 c -0.07965,0.0587 -0.05869,0.12593 -0.02096,0.19286 0.0042,0.008 0.01259,0.0171 0.01676,0.0251 v 0 0 c 0.03354,0.0503 0.09223,0.042 0.13834,0.0503 v 0 c 0.06288,0.0503 0.138341,0.0377 0.213799,0.042 0.146724,0.0461 0.293451,0.0171 0.444368,0.0213 0.09223,0 0.180261,-0.0171 0.268296,-0.0377 0.01259,0 0.02515,-0.005 0.03773,-0.008 0.02515,0.005 0.04612,0.008 0.06707,-0.0171 v 0 c 0.07127,-0.0171 0.146725,-0.0251 0.209605,-0.0753 v 0 c 0.04612,-0.008 0.07127,-0.0336 0.08804,-0.0713 v 0 c 0.01259,-0.0171 0.02935,-0.0335 0.04192,-0.0503 v 0 0 c 0.07965,-0.0461 0.02096,-0.11736 0.03354,-0.18023 v 0 c -0.02515,-0.13822 0.04612,-0.28507 -0.02935,-0.42341 -0.04192,-0.0543 -0.0042,-0.13418 -0.0545,-0.18858 0,0 0,0 0,0 -0.03353,-0.28508 -0.0503,-0.57012 -0.02935,-0.85521 v 0 c 0.03773,-0.0461 0.02096,-0.10895 0.04192,-0.16353 0.04192,-0.12156 0.09642,-0.23474 0.09642,-0.3689 0,-0.0377 0.02515,-0.0503 0.04612,-0.0753 v 0 c 0.04192,-0.0293 0.02096,-0.0587 0,-0.0879 0,0 0,0 0,0 0.02515,-0.0377 0.0545,-0.0713 0.04612,-0.12157 0.03773,-0.0669 0.0042,-0.15082 0.06288,-0.20955 v 0 c 0,0 0,0 0,0 0.0587,-0.0293 0.08804,-0.0753 0.09223,-0.14258 0.0587,-0.0377 0.03773,-0.13822 0.117379,-0.15923 0.02934,0.0377 0.06288,0.0753 0.09222,0.11736 0.02095,0.0753 0.07127,0.12997 0.113191,0.18859 0.01261,0.0293 0.03354,0.0543 0.06288,0.0713 0.06707,0.10055 0.121565,0.20955 0.171878,0.32279 v 0 0 c 0.0084,0.008 0.01261,0.0171 0.02095,0.0251 0.02095,0.042 0.0084,0.0963 0.05031,0.13418 v 0 c 0.01676,0.0251 0.03354,0.0503 0.04612,0.0753 v 0 c 0.04612,0.14662 0.09641,0.28925 0.217992,0.39405 0.05449,0.0503 0.07127,0.12593 0.100615,0.18857 v 0 c 0,0.0336 -0.01261,0.0669 0.01676,0.0923 v 0 c 0.02934,0.10895 0.05031,0.21799 0.100615,0.32281 0.09222,0.18023 0.05449,0.37309 0,0.55754 -0.0042,0.005 -0.0084,0.0129 -0.0042,0.0171 0,0 0,0 0,0 -0.100615,0.10492 -0.180263,0.21798 -0.226376,0.35215 -0.0084,0.0171 -0.01676,0.0336 -0.02515,0.0503 v 0 c 0,0 0,0 0,0 0,0.005 -0.0042,0.005 -0.0042,0.008 -0.04192,0.10055 -0.02095,0.20956 -0.06288,0.31024 0.01676,0.0377 0.03353,0.0753 0.04612,0.10895 v 0 0 c 0.07965,0.0923 0.180259,0.042 0.276681,0.0503 v 0 c 0.02934,0.008 0.06288,0.0171 0.09222,0.0251 0,0 0,0 0,0 v 0 c 0.02934,0.0336 0.06707,0.0292 0.104802,0.025 0.171876,-0.0213 0.347946,0 0.524015,-0.0293 0.07127,-0.008 0.138346,-0.0171 0.209607,-0.0213 v 0 c 0.125769,-0.0129 0.255719,-0.008 0.347947,-0.12156 v 0 c 0,0 0,0 0,0 0.0084,-0.008 0.01676,-0.0129 0.02515,-0.0213 v 0 0 c 0.06707,-0.0503 0.06707,-0.11316 0.05031,-0.18857 -0.02095,-0.10492 -0.0084,-0.218 -0.05031,-0.31863 -0.0084,-0.008 -0.01261,-0.0171 -0.02095,-0.0251 0,0 0,0 0,0 -0.01676,-0.11316 -0.04192,-0.22218 -0.09643,-0.3228 v 0 c -0.0084,-0.0293 -0.01261,-0.0629 -0.02095,-0.0923 -0.01676,-0.10895 -0.03353,-0.21382 -0.05031,-0.32277 0,0 0,0 0,0 v 0 c -0.04192,-0.0669 0.04192,-0.14679 -0.02095,-0.20956 0.0042,-0.0629 0,-0.12157 -0.03773,-0.17617 0,-0.005 -0.0042,-0.008 -0.0084,-0.0129 -0.02095,-0.0713 -0.04192,-0.14258 -0.06707,-0.21383 v 0 c -0.0042,-0.0293 0.0042,-0.0629 -0.02515,-0.0879 -0.03353,-0.24314 -0.02515,-0.49048 -0.02095,-0.73361 0,-0.0629 0.01261,-0.12997 0.02095,-0.19287 0,0 0,0 0,0 -0.01676,-0.0879 -0.01261,-0.17187 0.02515,-0.25152 0.0042,-0.005 0.0042,-0.008 0.0042,-0.0129 0.07546,-0.17616 0.176069,-0.34375 0.159296,-0.54498 -0.0042,-0.0503 0,-0.10055 -0.02515,-0.14258 0,-0.0293 0,-0.0587 0,-0.0879 -0.0084,-0.11736 0,-0.23476 0.04192,-0.34795 v 0 c -0.0042,-0.0171 -0.01261,-0.0293 -0.01676,-0.0461 v 0 c 0.01676,-0.14258 0.0042,-0.28507 -0.02095,-0.42341 v 0 c 0.0084,-0.0129 0.02934,-0.0251 0.0042,-0.0419 0,0 0,0 0,0 0.0042,-0.0213 0.02095,-0.0213 0.03773,-0.0213 v 0 c 0.02095,0.0336 0.04612,0.0629 0.06707,0.0964 0.01261,0.025 0.01261,0.0587 0.04192,0.0753 0,0 0,0 0.0042,-0.005 0,0 0,0 0,0 0,0 0,0 -0.0042,0 v 0 c 0.0042,0.0293 0.02515,0.0461 0.04612,0.0669 v 0 c 0.0084,0.0503 0.01261,0.10492 0.07127,0.12157 v 0 c -0.0042,0.005 0,0.0129 0.0042,0.0129 0.0042,0.0293 0.01676,0.0543 0.03773,0.0753 v 0 c 0.02934,0.0461 0.05031,0.10055 0.100615,0.12998 0.0084,0.0171 0.01676,0.0336 0.02515,0.0503 v 0 c -0.0042,0.0377 0.02095,0.0669 0.04612,0.0923 v 0 c 0.02934,0.0377 0.0587,0.0797 0.09222,0.11736 0.01676,0.0503 0.05031,0.0879 0.09641,0.11332 v 0 0 c 0.0084,0.008 0.01261,0.0171 0.02095,0.0251 0,0.0669 0.04192,0.10491 0.08804,0.14258 0.100615,0.12593 0.188646,0.2683 0.352139,0.327 0.121582,0.0753 0.213794,0.1845 0.322794,0.27667 0,0 0,0 0,0 0.05449,0.0965 0.125752,0.16761 0.243144,0.16761 0.0042,0 0.01261,0 0.02098,0 0.0084,0.005 0.01261,0.0129 0.02098,0.0171 v 0 0 c 0.0167,0.0377 0.0461,0.0543 0.08804,0.0543 v 0 c 0.0167,0.0293 0.04192,0.0629 0.07965,0.042 0.04192,-0.0213 0.01261,-0.0543 0.0042,-0.0879 -0.02098,-0.0629 -0.03773,-0.12997 -0.0587,-0.19287 -0.02098,-0.0377 -0.04611,-0.0795 -0.06705,-0.11737 v 0 0 0 0 0 c -0.0084,-0.0461 0,-0.10055 -0.05031,-0.12997 -0.01261,-0.0129 -0.02515,-0.0213 -0.03773,-0.0336 0,0 0,0 0,0 -0.121566,-0.0839 -0.264107,-0.0965 -0.398254,-0.13822 0,0 0,0 0,0 v 0 0 0 0 c 0,0 0,0 0,0 -0.07965,-0.0587 -0.167688,-0.10895 -0.205404,-0.20955 -0.04192,-0.0543 -0.08385,-0.10492 -0.125768,-0.15924 v 0 c 0,0 0,0 0,0 -0.05031,-0.0839 -0.07546,-0.18023 -0.138346,-0.25574 -0.0042,-0.005 -0.01261,-0.005 -0.01676,-0.005 v 0 c -0.01676,-0.0213 -0.03354,-0.0461 -0.05031,-0.0669 v 0 c -0.07965,-0.18452 -0.155109,-0.3689 -0.234761,-0.55754 -0.0587,-0.0797 -0.08384,-0.17615 -0.113192,-0.26828 -0.01676,-0.0546 -0.03354,-0.10896 -0.07127,-0.15083 v 0 c -0.02934,-0.0336 -0.02515,-0.0879 -0.07127,-0.11316 -0.01676,-0.0669 -0.0587,-0.12156 -0.09641,-0.17594 -0.06707,-0.14679 -0.176072,-0.26832 -0.230569,-0.42343 -0.01261,-0.0753 -0.06289,-0.12157 -0.113192,-0.16759 v 0 c 0,-0.0336 -0.01676,-0.0503 -0.04192,-0.0669 0,0 0,0 0,0 -0.05449,-0.0965 -0.134143,-0.17615 -0.209609,-0.25989 0,0 0,0 0,0 -0.05031,-0.0879 -0.121565,-0.15519 -0.209607,-0.2055 -0.02095,-0.0629 -0.07127,-0.10055 -0.121565,-0.13417 -0.0084,-0.008 -0.01261,-0.0171 -0.02095,-0.0251 -0.0084,-0.008 -0.01676,-0.0129 -0.02515,-0.0213 v 0 0 c -0.07127,-0.10491 -0.188648,-0.17189 -0.276681,-0.25991 v 0 c -0.03773,-0.0461 -0.07546,-0.0965 -0.138345,-0.11316 0,-0.008 -0.0042,-0.0129 -0.0084,-0.0171 v 0 c -0.01261,-0.0336 -0.03773,-0.0543 -0.06707,-0.0713 v 0 c -0.02095,-0.0336 -0.04612,-0.0629 -0.08804,-0.0713 v 0 c -0.01676,-0.0129 -0.03354,-0.0293 -0.05031,-0.042 v 0 0 c -0.08804,-0.11736 -0.201224,-0.20121 -0.322796,-0.28086 -0.02934,-0.0336 -0.05449,-0.0713 -0.09641,-0.0879 v 0 0 c -0.02095,-0.0336 -0.0587,-0.0377 -0.08804,-0.0543 -0.0084,-0.005 -0.01261,-0.0129 -0.02095,-0.0171 0,0 0,0 0,0 -0.05449,-0.0461 -0.117379,-0.0839 -0.188648,-0.0923 -0.01676,-0.0171 -0.03354,-0.0293 -0.05031,-0.0461 v 0 c -0.0042,-0.008 -0.01261,-0.0171 -0.01676,-0.0252 0,0 0,0 0,0 -0.07127,-0.0543 -0.14672,-0.0923 -0.230569,-0.11736 -0.01259,0 -0.02515,0 -0.04192,-0.005 0,0 0,0 0,0 -0.0503,-0.0293 -0.108997,-0.0461 -0.167686,-0.0461 -0.03353,-0.0129 -0.06288,-0.0293 -0.09642,-0.042 0,0 0,0 0,0 0,0 0,0 0,0 -0.150917,-0.0543 -0.310218,-0.0377 -0.465326,-0.0543 -0.07547,-0.008 -0.17607,-0.0293 -0.25572,0.0293 -0.121572,-0.0129 -0.238953,0.008 -0.347947,0.0713 -0.08804,0.0293 -0.180264,0.042 -0.259914,0.0879 0,0 0,0 0,0 -0.07965,0.0252 -0.09642,-0.008 -0.09223,-0.0839 0.0042,-0.10491 0.02935,-0.21384 -0.04192,-0.3102 -0.01676,-0.042 -0.02935,-0.0797 -0.04611,-0.12156 v 0 c 0,-0.0171 -0.0042,-0.0336 -0.01676,-0.042 -0.0503,-0.16354 -0.129958,-0.31021 -0.23476,-0.44435 v 0 c -0.01259,-0.0461 -0.02935,-0.0839 -0.07127,-0.11316 -0.113188,-0.0713 -0.159301,-0.21384 -0.280873,-0.27249 v 0 c -0.0084,-0.005 -0.01259,-0.005 -0.02096,-0.005 v 0 c -0.03354,-0.0293 -0.06707,-0.0461 -0.1131888,-0.0461 0,0 0,0 0,0 -0.08803,-0.0377 -0.1760701,-0.0129 -0.2599116,0 -0.2557214,0.042 -0.5114416,0.0213 -0.7671619,0.005 -0.1886455,-0.0251 -0.3730994,-0.0377 -0.557554,0.0213 v 0 c -0.046117,0 -0.092227,0.008 -0.1257638,0.0461 -0.054498,0.0587 -0.1341456,0.0461 -0.2012231,0.0713 -0.020956,0 -0.046117,0 -0.067073,0 v 0 c -0.029347,-0.008 -0.058693,-0.0171 -0.092227,-0.0251 v 0 c -0.09642,-0.0503 -0.19703,-0.0503 -0.3018336,-0.0461 -0.2221825,-0.0755 -0.4485583,-0.0461 -0.6707428,-0.0336 -0.075455,0.005 -0.1425308,-0.0213 -0.2137988,-0.0129 -0.033542,-0.0213 -0.071268,-0.0251 -0.1089951,-0.0251 0,0 0,0 0,0 -0.071268,-0.0336 -0.1425324,-0.0293 -0.2137988,0.005 -0.00837,0.005 -0.016761,0.008 -0.020956,0.0129 0,0 0,0 0,0 -0.1299571,-0.0543 -0.1676856,0.0629 -0.2347602,0.12593 -0.058693,0.0503 -0.1383407,0.0713 -0.1886476,0.13822 0,0 0,0 0,0 -0.075455,0.0213 -0.1509175,0.042 -0.226375,0.0629 -0.00837,0 -0.016761,0.005 -0.029347,0.008 -0.1131885,0.0797 -0.2179921,0.0377 -0.3227955,-0.0213 v 0 c -0.020955,-0.0171 -0.041922,-0.0336 -0.062879,-0.0461 v 0 c -0.058693,-0.0336 -0.041922,-0.12156 -0.10061,-0.15923 v 0 0 c -0.020955,-0.0461 -0.046117,-0.0923 -0.067073,-0.13821 -0.020955,-0.0797 -0.041922,-0.15519 -0.062888,-0.23478 v 0 c -0.00424,-0.14662 -0.00424,-0.29343 -0.00837,-0.44017 0,-0.008 0.00424,-0.0129 0.00424,-0.0213 v 0 c 0.01676,-0.0171 0.00837,-0.0336 -0.00424,-0.0461 0,-0.0293 0.00424,-0.0587 0.00424,-0.0879 v 0 c 0.037727,-0.0503 0.012593,-0.10896 0.02515,-0.16353 0.02515,-0.0252 0.050303,-0.0587 0.02515,-0.0879 -0.041922,-0.0503 0.00424,-0.0839 0.012593,-0.12157 0,-0.0171 0,-0.0293 0,-0.0461 0,-0.0293 0.00424,-0.0627 0.00424,-0.0923 v 0 c 0,-0.0377 -0.00837,-0.0797 0.020955,-0.11316 0.037727,-0.0213 0.058693,-0.0543 0.041922,-0.0965 -0.016761,-0.0377 0,-0.0669 0.029347,-0.0923 v 0 0 c 0.00424,-0.005 0.00837,-0.0129 0.00837,-0.0171 0.041922,-0.0965 0.050303,-0.20121 0.037727,-0.30605 v 0 c 0,0 0,0 0,0 0,0 0,0 0,0 -0.00424,-0.0377 0.054498,-0.0753 0,-0.11736 -0.00837,-0.008 -0.016761,-0.0171 -0.020955,-0.0251 0.033531,-0.0839 0.00837,-0.16761 0,-0.25574 v 0 0 c -0.00837,-0.008 -0.016761,-0.0171 -0.020956,-0.0251 0,-0.0377 0,-0.0753 0,-0.11736 0.016761,-0.0171 0.020956,-0.0293 0.00424,-0.0503 -0.016761,-0.0213 -0.033531,-0.0461 -0.050303,-0.0669 0.012593,-0.0251 0.016761,-0.0461 0,-0.0713 -0.02515,-0.10055 -0.01676,-0.21799 -0.1048018,-0.29764 -0.012593,-0.0419 -0.02515,-0.0879 -0.058693,-0.12156 v 0 c -0.016761,-0.0377 -0.058693,-0.0503 -0.08804,-0.0713 v 0 c -0.020956,-0.0753 -0.092227,-0.0964 -0.1467242,-0.13418 0,0 0,0 0,0 0,0 0,0 0,0 -0.046117,-0.0629 -0.1089951,-0.0923 -0.1844523,-0.0923 -0.079648,-0.0713 -0.1760701,-0.0963 -0.2766813,-0.0923 -0.092228,-0.008 -0.1844544,-0.008 -0.27249,-0.0377 -0.092227,-0.0293 -0.1634924,0.0129 -0.2221827,0.0839 -0.029347,0.0377 -0.062878,0.0713 -0.012593,0.11737 v 0 c 0.00837,0.0171 0.012593,0.0336 0.020955,0.0503 0.00837,0.0129 0.016761,0.0293 0.025151,0.042 -0.041922,0.28507 0.083843,0.35633 0.3731004,0.23478 v 0 c 0.071268,-0.008 0.1215704,0.0171 0.1551108,0.0753 0,0.005 0.00424,0.008 0.00424,0.0129 0,0 0,0 0,0 v 0 0 c 0.050303,0.0461 0.029347,0.11736 0.067073,0.16761 v 0 0 c 0.00837,0.0171 0.01676,0.0293 0.02515,0.0461 v 0 0 c 0,0.0171 0,0.0293 0,0.0461 v 0 c -0.012593,0.0336 -0.00837,0.0669 0.020956,0.0963 0.00837,0.0171 0.01676,0.0293 0.020955,0.0461 v 0 c 0,0.0129 0,0.0293 0,0.0419 0,0 0,0 0,0 -0.016761,0.0129 -0.02515,0.0293 -0.020955,0.0461 v 0 c 0,0.008 0,0.0171 0.00424,0.0251 0,0 0,0 0,0 0,0 0,0 0,0 0,0.0377 0,0.0753 0,0.11736 0.016761,0.0629 0.020956,0.12156 0,0.18451 v 0 c 0,0.042 -0.037727,0.0753 -0.025151,0.11737 -0.029347,0.0336 -0.02515,0.0713 -0.02515,0.10895 -0.046117,0.0629 -0.09642,0.12593 -0.092227,0.21384 -0.025151,0.0251 -0.062878,0.0461 -0.071268,0.0879 0,0 0,0.005 0,0.005 -0.012593,0.0377 -0.025151,0.0795 -0.037727,0.11737 v 0 c -0.020956,0.025 -0.033534,0.0543 -0.025151,0.0879 0,0 0,0 0,0 -0.016761,0.0336 -0.046117,0.0543 -0.046117,0.0965 v 0 c -0.01676,0.0461 -0.029347,0.0879 -0.046117,0.13418 -0.033542,0.0503 -0.046117,0.10491 -0.046117,0.16353 0,0 0,0 0,0 -0.025151,0.0923 -0.046117,0.18859 -0.041922,0.28505 v 0 0 c 0,0.0213 0,0.0461 0,0.0669 0,0.10055 0,0.19693 0,0.29764 0,0 0,0 0,0 -0.016761,0.0293 -0.041922,0.0587 -0.025151,0.10055 0,0.0171 0,0.0293 0,0.0461 v 0 c -0.012593,0.14678 -0.020955,0.29345 0.067073,0.42341 0,0 0,0 0,0 v 0 0 0 c 0,0.0213 0.00424,0.0419 0.00424,0.0669 0,0.0419 0.00424,0.0795 0.02515,0.11736 0.020956,0.0629 0.012593,0.13821 0.088032,0.17187 -0.00837,0.0629 0.033542,0.10492 0.062887,0.15519 0,0.005 0.00424,0.0129 0,0.0171 -0.054498,0.12997 0.037727,0.21382 0.1006101,0.30601 0,0 0,0 0,0 0.046117,0.15083 0.1634924,0.25152 0.2557202,0.3731 0.012593,0.0713 -0.02515,0.0963 -0.092228,0.11737 -0.17607,0.0587 -0.3563305,0.0753 -0.5407852,0.0669 -0.025151,0 -0.046117,0 -0.062878,0.0213 v 0 0 c -0.268296,0.0213 -0.5282087,-0.0293 -0.7881212,-0.0923 0,0 0,0.005 0,0.005 0,0 0,0 0,0 v -0.005 c -0.033542,-0.0377 -0.075464,-0.0171 -0.1173786,-0.0251 v 0 c -0.08803,-0.0587 -0.1802612,-0.10492 -0.2766803,-0.13822 -0.1006133,-0.0587 -0.1970323,-0.12593 -0.3018347,-0.18023 -0.041922,-0.0213 -0.083843,0 -0.092227,0.0543 -0.020955,0.0171 -0.025151,0.0543 -0.00424,0.0839 z m 4.6113499,4.41851 v 0 c 0,0 0,0 0,0 0,0 -0.00424,-0.005 0,0 -0.00424,-0.005 0,-0.005 0,0 z"
       id="path7173"
       style="stroke-width:0.04192135" />
    <g
       transform="matrix(0.01770502,0,0,0.01467002,0.41107066,279.39402)"
       id="g9450">
      <linearGradient
         id="SVGID_1_"
         gradientUnits="userSpaceOnUse"
         x1="110.147"
         y1="851.46082"
         x2="175.0506"
         y2="851.46082"
         gradientTransform="matrix(0.6794,-0.7338,0.7338,0.6794,-405.8327,434.1327)">
        <stop
           offset="0"
           style="stop-color:#54B948"
           id="stop9016" />
        <stop
           offset="0.3764"
           style="stop-color:#00A651"
           id="stop9018" />
        <stop
           offset="1"
           style="stop-color:#005826"
           id="stop9020" />
      </linearGradient>
      <path
         inkscape:connector-curvature="0"
         d="m 360.3,904.9 c 0,0 -32.1,15.8 -88.9,6.1 0,0 32.1,-1.6 49.5,-5.3 20.6,-4.3 37.2,-1.4 39.4,-0.8 z"
         style="fill:#000000"
         id="path9023" />
      <linearGradient
         id="SVGID_2_"
         gradientUnits="userSpaceOnUse"
         x1="88.230301"
         y1="812.1275"
         x2="174.897"
         y2="812.1275"
         gradientTransform="matrix(0.6794,-0.7338,0.7338,0.6794,-405.8327,434.1327)">
        <stop
           offset="0"
           style="stop-color:#54B948"
           id="stop9025" />
        <stop
           offset="0.3764"
           style="stop-color:#00A651"
           id="stop9027" />
        <stop
           offset="1"
           style="stop-color:#005826"
           id="stop9029" />
      </linearGradient>
      <path
         inkscape:connector-curvature="0"
         d="m 346.9,892.8 c 0,0 -71.4,19.3 -134.9,-6.8 0,0 34.9,12.8 71.5,7.2 36.6,-5.7 56.1,-3.5 63.4,-0.4 z"
         style="fill:#000000"
         id="path9032" />
      <linearGradient
         id="SVGID_3_"
         gradientUnits="userSpaceOnUse"
         x1="104.2303"
         y1="782.16913"
         x2="174.897"
         y2="782.16913"
         gradientTransform="matrix(0.6794,-0.7338,0.7338,0.6794,-405.8327,434.1327)">
        <stop
           offset="0"
           style="stop-color:#54B948"
           id="stop9034" />
        <stop
           offset="0.3764"
           style="stop-color:#00A651"
           id="stop9036" />
        <stop
           offset="1"
           style="stop-color:#005826"
           id="stop9038" />
      </linearGradient>
      <path
         inkscape:connector-curvature="0"
         d="m 334.7,881.5 c 0,0 -92.6,9.2 -143.6,-36.7 0,0 30.6,23.4 81.7,25.6 51,2.3 61.9,11.1 61.9,11.1 z"
         style="fill:#000000"
         id="path9041" />
      <linearGradient
         id="SVGID_4_"
         gradientUnits="userSpaceOnUse"
         x1="112.2303"
         y1="764.5025"
         x2="176.5636"
         y2="764.5025"
         gradientTransform="matrix(0.6794,-0.7338,0.7338,0.6794,-405.8327,434.1327)">
        <stop
           offset="0"
           style="stop-color:#54B948"
           id="stop9043" />
        <stop
           offset="0.3764"
           style="stop-color:#00A651"
           id="stop9045" />
        <stop
           offset="1"
           style="stop-color:#005826"
           id="stop9047" />
      </linearGradient>
      <path
         inkscape:connector-curvature="0"
         d="m 317.8,863.5 c 0,0 -76,3.6 -129.1,-31.8 0,0 46,16.8 84.4,20.5 24.5,2.3 44.7,11.3 44.7,11.3 z"
         style="fill:#000000"
         id="path9050" />
      <linearGradient
         id="SVGID_5_"
         gradientUnits="userSpaceOnUse"
         x1="118.5636"
         y1="734.66913"
         x2="179.897"
         y2="734.66913"
         gradientTransform="matrix(0.6794,-0.7338,0.7338,0.6794,-405.8327,434.1327)">
        <stop
           offset="0"
           style="stop-color:#54B948"
           id="stop9052" />
        <stop
           offset="0.3764"
           style="stop-color:#00A651"
           id="stop9054" />
        <stop
           offset="1"
           style="stop-color:#005826"
           id="stop9056" />
      </linearGradient>
      <path
         inkscape:connector-curvature="0"
         d="m 161.9,798.3 c 0,0 59,48.7 145.4,51 0,0 -28.7,-15.3 -68.5,-21.7 -39.8,-6.3 -76.9,-29.3 -76.9,-29.3 z"
         style="fill:#000000"
         id="path9059" />
      <linearGradient
         id="SVGID_6_"
         gradientUnits="userSpaceOnUse"
         x1="126.5636"
         y1="714.91913"
         x2="182.5636"
         y2="714.91913"
         gradientTransform="matrix(0.6794,-0.7338,0.7338,0.6794,-405.8327,434.1327)">
        <stop
           offset="0"
           style="stop-color:#54B948"
           id="stop9061" />
        <stop
           offset="0.3764"
           style="stop-color:#00A651"
           id="stop9063" />
        <stop
           offset="1"
           style="stop-color:#005826"
           id="stop9065" />
      </linearGradient>
      <path
         inkscape:connector-curvature="0"
         d="m 155.4,781.3 c 0,0 47.9,43.9 136.7,50.3 0,0 -26.2,-15.2 -52.3,-19.3 -26.1,-4.2 -52,-9.6 -84.4,-31 z"
         style="fill:#000000"
         id="path9068" />
      <linearGradient
         id="SVGID_7_"
         gradientUnits="userSpaceOnUse"
         x1="137.2303"
         y1="693.33582"
         x2="186.2303"
         y2="693.33582"
         gradientTransform="matrix(0.6794,-0.7338,0.7338,0.6794,-405.8327,434.1327)">
        <stop
           offset="0"
           style="stop-color:#54B948"
           id="stop9070" />
        <stop
           offset="0.3764"
           style="stop-color:#00A651"
           id="stop9072" />
        <stop
           offset="1"
           style="stop-color:#005826"
           id="stop9074" />
      </linearGradient>
      <path
         inkscape:connector-curvature="0"
         d="m 149.2,761 c 0,0 65.8,55.5 127.2,51 0,0 -22,-12.4 -57.7,-20.1 C 183,784.2 149.2,761 149.2,761 Z"
         style="fill:#000000"
         id="path9077" />
      <linearGradient
         id="SVGID_8_"
         gradientUnits="userSpaceOnUse"
         x1="144.397"
         y1="672.5025"
         x2="189.897"
         y2="672.5025"
         gradientTransform="matrix(0.6794,-0.7338,0.7338,0.6794,-405.8327,434.1327)">
        <stop
           offset="0"
           style="stop-color:#54B948"
           id="stop9079" />
        <stop
           offset="0.3764"
           style="stop-color:#00A651"
           id="stop9081" />
        <stop
           offset="1"
           style="stop-color:#005826"
           id="stop9083" />
      </linearGradient>
      <path
         inkscape:connector-curvature="0"
         d="m 140.1,742.9 c 0,0 60.5,44 122.1,51.1 0,0 -17.5,-13.5 -52.5,-23.2 -35,-9.7 -58.8,-21.4 -69.6,-27.9 z"
         style="fill:#000000"
         id="path9086" />
      <linearGradient
         id="SVGID_9_"
         gradientUnits="userSpaceOnUse"
         x1="152.8951"
         y1="638.5025"
         x2="195.897"
         y2="638.5025"
         gradientTransform="matrix(0.6794,-0.7338,0.7338,0.6794,-405.8327,434.1327)">
        <stop
           offset="0"
           style="stop-color:#54B948"
           id="stop9088" />
        <stop
           offset="0.3764"
           style="stop-color:#00A651"
           id="stop9090" />
        <stop
           offset="1"
           style="stop-color:#005826"
           id="stop9092" />
      </linearGradient>
      <path
         inkscape:connector-curvature="0"
         d="m 116.8,709.7 c 0,0 58.5,55.5 128.8,60.6 0,0 -13.9,-10.6 -37.9,-16.9 -24.1,-6.4 -60.1,-22 -90.9,-43.7 z"
         style="fill:#000000"
         id="path9095" />
      <linearGradient
         id="SVGID_10_"
         gradientUnits="userSpaceOnUse"
         x1="161.6795"
         y1="609.16913"
         x2="202.2303"
         y2="609.16913"
         gradientTransform="matrix(0.6794,-0.7338,0.7338,0.6794,-405.8327,434.1327)">
        <stop
           offset="0"
           style="stop-color:#54B948"
           id="stop9097" />
        <stop
           offset="0.3764"
           style="stop-color:#00A651"
           id="stop9099" />
        <stop
           offset="1"
           style="stop-color:#005826"
           id="stop9101" />
      </linearGradient>
      <path
         inkscape:connector-curvature="0"
         d="m 93.4,676 c 0,0 70,69.1 142.7,77 0,0 -21.6,-15 -39.9,-20.2 C 177.9,727.6 134.7,709.9 93.4,676 Z"
         style="fill:#000000"
         id="path9104" />
      <linearGradient
         id="SVGID_11_"
         gradientUnits="userSpaceOnUse"
         x1="180.6864"
         y1="591.0025"
         x2="207.3221"
         y2="591.0025"
         gradientTransform="matrix(0.6794,-0.7338,0.7338,0.6794,-405.8327,434.1327)">
        <stop
           offset="0"
           style="stop-color:#54B948"
           id="stop9106" />
        <stop
           offset="0.3764"
           style="stop-color:#00A651"
           id="stop9108" />
        <stop
           offset="1"
           style="stop-color:#005826"
           id="stop9110" />
      </linearGradient>
      <path
         inkscape:connector-curvature="0"
         d="m 96.1,645.1 c 0,0 42.3,68.7 130.5,92.6 0,0 -1.2,-5.6 -38.4,-23.8 C 151,695.7 129.4,682.3 96.1,645.1 Z"
         style="fill:#000000"
         id="path9113" />
      <linearGradient
         id="SVGID_12_"
         gradientUnits="userSpaceOnUse"
         x1="195.6622"
         y1="587.33582"
         x2="213.1273"
         y2="587.33582"
         gradientTransform="matrix(0.6794,-0.7338,0.7338,0.6794,-405.8327,434.1327)">
        <stop
           offset="0"
           style="stop-color:#54B948"
           id="stop9115" />
        <stop
           offset="0.3764"
           style="stop-color:#00A651"
           id="stop9117" />
        <stop
           offset="1"
           style="stop-color:#005826"
           id="stop9119" />
      </linearGradient>
      <path
         inkscape:connector-curvature="0"
         d="m 109.5,644.2 c 0,0 69.4,69.7 108.9,78.1 0,0 -12,-15 -41.7,-31.5 C 147,674.4 139,669.2 109.5,644.2 Z"
         style="fill:#000000"
         id="path9122" />
      <linearGradient
         id="SVGID_13_"
         gradientUnits="userSpaceOnUse"
         x1="208.26871"
         y1="554.5423"
         x2="217.82809"
         y2="554.5423"
         gradientTransform="matrix(0.6794,-0.7338,0.7338,0.6794,-405.8327,434.1327)">
        <stop
           offset="0"
           style="stop-color:#54B948"
           id="stop9124" />
        <stop
           offset="0.3764"
           style="stop-color:#00A651"
           id="stop9126" />
        <stop
           offset="1"
           style="stop-color:#005826"
           id="stop9128" />
      </linearGradient>
      <path
         inkscape:connector-curvature="0"
         d="m 87.6,599.9 c 0,0 76.3,90.3 120.1,105.5 0,0 -28.3,-27 -53.8,-44.2 -25.6,-17.1 -66.3,-61.3 -66.3,-61.3 z"
         style="fill:#000000"
         id="path9131" />
      <linearGradient
         id="SVGID_14_"
         gradientUnits="userSpaceOnUse"
         x1="218.5032"
         y1="544.18707"
         x2="226.5584"
         y2="544.18707"
         gradientTransform="matrix(0.6794,-0.7338,0.7338,0.6794,-405.8327,434.1327)">
        <stop
           offset="0"
           style="stop-color:#54B948"
           id="stop9133" />
        <stop
           offset="0.3764"
           style="stop-color:#00A651"
           id="stop9135" />
        <stop
           offset="1"
           style="stop-color:#005826"
           id="stop9137" />
      </linearGradient>
      <path
         inkscape:connector-curvature="0"
         d="m 90.4,585.8 c 0,0 64.7,82.3 112.8,104.9 0,0 -10.9,-12.8 -35.5,-33.4 -24.6,-20.6 -52.2,-44.2 -77.3,-71.5 z"
         style="fill:#000000"
         id="path9140" />
      <linearGradient
         id="SVGID_15_"
         gradientUnits="userSpaceOnUse"
         x1="232.1745"
         y1="528.58728"
         x2="247.5636"
         y2="528.58728"
         gradientTransform="matrix(0.6794,-0.7338,0.7338,0.6794,-405.8327,434.1327)">
        <stop
           offset="0"
           style="stop-color:#54B948"
           id="stop9142" />
        <stop
           offset="0.3764"
           style="stop-color:#00A651"
           id="stop9144" />
        <stop
           offset="1"
           style="stop-color:#005826"
           id="stop9146" />
      </linearGradient>
      <path
         inkscape:connector-curvature="0"
         d="m 97.4,562.7 c 0,0 30.5,58.3 96.4,107.5 0,0 -14.4,-18.5 -32.7,-38.1 -18.3,-19.6 -41.2,-32.7 -63.7,-69.4 z"
         style="fill:#000000"
         id="path9149" />
      <path
         inkscape:connector-curvature="0"
         d="m 360.3,904.9 c 0,0 -29.4,15.8 -88.6,6.2 0,0 34.1,1.6 54.8,-2.2 13.4,-2.4 28.3,-3.2 33.8,-4 z"
         style="fill:#000000"
         id="path9151" />
      <path
         inkscape:connector-curvature="0"
         d="m 347.2,892.9 c 0,0 -71.4,19.3 -134.9,-6.8 0,0 25.1,11.7 76.5,9.9 29.6,-1 42.9,-2 58.4,-3.1 z"
         style="fill:#000000"
         id="path9153" />
      <path
         inkscape:connector-curvature="0"
         d="m 335.1,881.6 c 0,0 -92.9,9.1 -144,-36.8 0,0 30.8,24.1 81.6,29.5 40.2,4.2 62.4,7.3 62.4,7.3 z"
         style="fill:#000000"
         id="path9155" />
      <path
         inkscape:connector-curvature="0"
         d="m 318.1,863.6 c 0,0 -76.4,3.5 -129.4,-31.9 0,0 33.4,17.4 84.1,24.7 19.3,2.8 45.3,7.2 45.3,7.2 z"
         style="fill:#000000"
         id="path9157" />
      <path
         inkscape:connector-curvature="0"
         d="m 161.9,798.3 c 0,0 59.3,48.8 145.7,51.1 0,0 -34,-8 -66.6,-16.3 -39,-9.9 -79.1,-34.8 -79.1,-34.8 z"
         style="fill:#000000"
         id="path9159" />
      <path
         inkscape:connector-curvature="0"
         d="m 155.4,781.3 c 0,0 47.9,43.9 136.7,50.3 0,0 -26.8,-9.9 -52.9,-14 -26.1,-4.1 -51.4,-14.9 -83.8,-36.3 z"
         style="fill:#000000"
         id="path9161" />
      <path
         inkscape:connector-curvature="0"
         d="m 149.5,761.1 c 0,0 65.8,55.5 127.2,51 0,0 -15.9,-3.6 -49.4,-12.1 -44.8,-11.4 -77.8,-38.9 -77.8,-38.9 z"
         style="fill:#000000"
         id="path9163" />
      <path
         inkscape:connector-curvature="0"
         d="m 140.5,743 c 0,0 60.5,44 122.1,51.1 0,0 -22.7,-8.3 -53.6,-18.6 -34.5,-11.6 -57.8,-26 -68.5,-32.5 z"
         style="fill:#000000"
         id="path9165" />
      <path
         inkscape:connector-curvature="0"
         d="m 117.1,709.8 c 0,0 58.5,55.5 128.8,60.6 0,0 -15.8,-6.5 -39.9,-12.7 -33.4,-8.4 -58.1,-26.2 -88.9,-47.9 z"
         style="fill:#000000"
         id="path9167" />
      <path
         inkscape:connector-curvature="0"
         d="m 93.8,676.1 c 0,0 70,69.1 142.7,77 0,0 -23.9,-10 -42.2,-15.2 C 175.9,732.7 135.1,710 93.8,676.1 Z"
         style="fill:#000000"
         id="path9169" />
      <path
         inkscape:connector-curvature="0"
         d="m 96.1,645.1 c 0,0 42.6,68.8 130.8,92.7 0,0 -3.6,-1.9 -40.9,-20.1 -37.3,-18.2 -63.5,-38.8 -89.9,-72.6 z"
         style="fill:#000000"
         id="path9171" />
      <path
         inkscape:connector-curvature="0"
         d="m 109.5,644.2 c 0,0 69.4,69.7 108.9,78.1 0,0 -9.6,-7.1 -36.9,-22.9 -30.4,-17.6 -42.5,-30.2 -72,-55.2 z"
         style="fill:#000000"
         id="path9173" />
      <path
         inkscape:connector-curvature="0"
         d="m 86.7,598.8 c 0,0 76.3,90.3 120.1,105.5 0,0 -20.7,-14.3 -49.2,-36.7 -24.2,-18.9 -70.9,-68.8 -70.9,-68.8 z"
         style="fill:#000000"
         id="path9175" />
      <path
         inkscape:connector-curvature="0"
         d="m 90.4,585.8 c 0,0 64.7,82.3 112.8,104.9 0,0 -12.9,-9.9 -37.5,-30.4 -24.6,-20.5 -50.2,-47.2 -75.3,-74.5 z"
         style="fill:#000000"
         id="path9177" />
      <path
         inkscape:connector-curvature="0"
         d="m 97.4,562.7 c 0,0 30.3,58 96.2,107.2 0,0 -18.4,-15.8 -36.6,-35.4 -18.2,-19.6 -37.1,-35.1 -59.6,-71.8 z"
         style="fill:#000000"
         id="path9179" />
      <g
         id="g9192">
        <linearGradient
           id="SVGID_16_"
           gradientUnits="userSpaceOnUse"
           x1="249.2355"
           y1="504.97891"
           x2="267.897"
           y2="504.97891"
           gradientTransform="matrix(0.6794,-0.7338,0.7338,0.6794,-405.8327,434.1327)">
          <stop
             offset="0"
             style="stop-color:#54B948"
             id="stop9181" />
          <stop
             offset="0.3764"
             style="stop-color:#00A651"
             id="stop9183" />
          <stop
             offset="1"
             style="stop-color:#005826"
             id="stop9185" />
        </linearGradient>
        <path
           inkscape:connector-curvature="0"
           d="m 100.5,537.9 c 0,0 41.6,69.2 80.1,98.8 0,0 -15.9,-24 -29.7,-39.5 -13.8,-15.5 -35.4,-36.3 -50.4,-59.3 z"
           style="fill:#000000"
           id="path9188" />
        <path
           inkscape:connector-curvature="0"
           d="m 100.5,537.9 c 0,0 41.6,69.2 80.1,98.8 0,0 -18.7,-18.2 -32.7,-36.1 -12.7,-16.3 -32.4,-39.7 -47.4,-62.7 z"
           style="fill:#000000"
           id="path9190" />
      </g>
      <g
         id="g9205">
        <linearGradient
           id="SVGID_17_"
           gradientUnits="userSpaceOnUse"
           x1="261.92249"
           y1="491.1781"
           x2="293.5636"
           y2="491.1781"
           gradientTransform="matrix(0.6794,-0.7338,0.7338,0.6794,-405.8327,434.1327)">
          <stop
             offset="0"
             style="stop-color:#54B948"
             id="stop9194" />
          <stop
             offset="0.3764"
             style="stop-color:#00A651"
             id="stop9196" />
          <stop
             offset="1"
             style="stop-color:#005826"
             id="stop9198" />
        </linearGradient>
        <path
           inkscape:connector-curvature="0"
           d="m 114.3,515.6 c 0,0 20.4,61.9 58,96.8 0,0 -3.4,-7.2 -14.7,-24.9 -11.3,-17.7 -30.2,-37 -43.3,-71.9 z"
           style="fill:#000000"
           id="path9201" />
        <path
           inkscape:connector-curvature="0"
           d="m 114.3,515.6 c 0,0 20.4,61.9 58,96.8 0,0 -8.3,-8.4 -19.6,-26.1 -11.3,-17.7 -25.3,-35.8 -38.4,-70.7 z"
           style="fill:#000000"
           id="path9203" />
      </g>
      <g
         id="g9218">
        <linearGradient
           id="SVGID_18_"
           gradientUnits="userSpaceOnUse"
           x1="-597.16931"
           y1="94.3386"
           x2="-578.50781"
           y2="94.3386"
           gradientTransform="matrix(-0.9975,-0.07095607,-0.07095607,0.9975,-404.5641,434.8991)">
          <stop
             offset="0"
             style="stop-color:#54B948"
             id="stop9207" />
          <stop
             offset="0.3764"
             style="stop-color:#00A651"
             id="stop9209" />
          <stop
             offset="1"
             style="stop-color:#005826"
             id="stop9211" />
        </linearGradient>
        <path
           inkscape:connector-curvature="0"
           d="m 170.3,507.2 c 0,0 16.9,79 9.1,126.9 0,0 -4.8,-28.4 -5.3,-49.1 -0.5,-20.7 0.9,-50.7 -3.8,-77.8 z"
           style="fill:#000000"
           id="path9214" />
        <path
           inkscape:connector-curvature="0"
           d="m 170.3,507.2 c 0,0 16.9,79 9.1,126.9 0,0 1.2,-26.1 -0.8,-48.7 -1.9,-20.6 -3.6,-51.1 -8.3,-78.2 z"
           style="fill:#000000"
           id="path9216" />
      </g>
      <g
         id="g9231">
        <linearGradient
           id="SVGID_19_"
           gradientUnits="userSpaceOnUse"
           x1="-490.08069"
           y1="29.7125"
           x2="-458.43951"
           y2="29.7125"
           gradientTransform="matrix(-1.1796,-0.2452,-0.2027,0.9752,-391.6209,399.2818)">
          <stop
             offset="0"
             style="stop-color:#54B948"
             id="stop9220" />
          <stop
             offset="0.3764"
             style="stop-color:#00A651"
             id="stop9222" />
          <stop
             offset="1"
             style="stop-color:#005826"
             id="stop9224" />
        </linearGradient>
        <path
           inkscape:connector-curvature="0"
           d="m 154.1,487.8 c 0,0 25.7,63.4 15.4,113.4 0,0 -2,-7.9 -4.2,-29 -2.2,-21.1 1.7,-47.8 -11.2,-84.4 z"
           style="fill:#000000"
           id="path9227" />
        <path
           inkscape:connector-curvature="0"
           d="m 154.1,487.8 c 0,0 25.7,63.4 15.4,113.4 0,0 1.8,-11.6 -0.4,-32.8 -2.2,-21.2 -2.1,-44 -15,-80.6 z"
           style="fill:#000000"
           id="path9229" />
      </g>
      <g
         id="g9244">
        <linearGradient
           id="SVGID_20_"
           gradientUnits="userSpaceOnUse"
           x1="267.897"
           y1="484.7525"
           x2="322.46051"
           y2="484.7525"
           gradientTransform="matrix(0.6794,-0.7338,0.7338,0.6794,-405.8327,434.1327)">
          <stop
             offset="0"
             style="stop-color:#54B948"
             id="stop9233" />
          <stop
             offset="0.3764"
             style="stop-color:#00A651"
             id="stop9235" />
          <stop
             offset="1"
             style="stop-color:#005826"
             id="stop9237" />
        </linearGradient>
        <path
           inkscape:connector-curvature="0"
           d="m 169.2,601.5 c 0,0 -28.7,-49 -37.6,-109.2 0,0 32.6,71 37.6,109.2 z"
           style="fill:#000000"
           id="path9240" />
        <path
           inkscape:connector-curvature="0"
           d="m 169.2,601.5 c 0,0 -28.7,-49 -37.6,-109.2 0,0 20.1,67.6 37.6,109.2 z"
           style="fill:#000000"
           id="path9242" />
      </g>
      <g
         id="g9257">
        <linearGradient
           id="SVGID_21_"
           gradientUnits="userSpaceOnUse"
           x1="-880.60181"
           y1="787.59662"
           x2="-815.69818"
           y2="787.59662"
           gradientTransform="matrix(-0.813,0.5823,0.5823,0.813,-780.3392,714.4459)">
          <stop
             offset="0"
             style="stop-color:#54B948"
             id="stop9246" />
          <stop
             offset="0.3764"
             style="stop-color:#00A651"
             id="stop9248" />
          <stop
             offset="1"
             style="stop-color:#005826"
             id="stop9250" />
        </linearGradient>
        <path
           inkscape:connector-curvature="0"
           d="m 359.2,904.6 c 0,0 19.7,-29.9 17.2,-87.5 0,0 -5.6,31.7 -11.4,48.5 -7,20 -6.2,36.8 -5.8,39 z"
           style="fill:#000000"
           id="path9253" />
        <path
           inkscape:connector-curvature="0"
           d="m 359.2,904.6 c 0,0 19.3,-27.2 17.3,-87.1 0,0 -2.7,34 -9,54.1 -4.2,13 -6.9,27.7 -8.3,33 z"
           style="fill:#000000"
           id="path9255" />
      </g>
      <g
         id="g9270">
        <linearGradient
           id="SVGID_22_"
           gradientUnits="userSpaceOnUse"
           x1="-901.17889"
           y1="748.00818"
           x2="-814.51221"
           y2="748.00818"
           gradientTransform="matrix(-0.813,0.5823,0.5823,0.813,-780.3392,714.4459)">
          <stop
             offset="0"
             style="stop-color:#54B948"
             id="stop9259" />
          <stop
             offset="0.3764"
             style="stop-color:#00A651"
             id="stop9261" />
          <stop
             offset="1"
             style="stop-color:#005826"
             id="stop9263" />
        </linearGradient>
        <path
           inkscape:connector-curvature="0"
           d="m 347.6,890.4 c 0,0 28.1,-68.4 10.1,-134.7 0,0 8.3,36.3 -1.8,71.8 -10.2,35.7 -10.5,55.3 -8.3,62.9 z"
           style="fill:#000000"
           id="path9266" />
        <path
           inkscape:connector-curvature="0"
           d="m 347.6,890.8 c 0,0 28.1,-68.4 10.1,-134.7 0,0 8.4,26.3 0.3,77.2 -4.7,29.1 -7.3,42.1 -10.4,57.5 z"
           style="fill:#000000"
           id="path9268" />
      </g>
      <g
         id="g9283">
        <linearGradient
           id="SVGID_23_"
           gradientUnits="userSpaceOnUse"
           x1="-868.19757"
           y1="666.11719"
           x2="-797.53088"
           y2="666.11719"
           gradientTransform="matrix(-0.8699,0.4932,0.4932,0.8699,-717.2872,635.9059)">
          <stop
             offset="0"
             style="stop-color:#54B948"
             id="stop9272" />
          <stop
             offset="0.3764"
             style="stop-color:#00A651"
             id="stop9274" />
          <stop
             offset="1"
             style="stop-color:#005826"
             id="stop9276" />
        </linearGradient>
        <path
           inkscape:connector-curvature="0"
           d="m 337.2,878.7 c 0,0 30.2,-88 -2.8,-148.2 0,0 15.8,35.1 6.2,85.4 -9.5,50.1 -3.4,62.8 -3.4,62.8 z"
           style="fill:#000000"
           id="path9279" />
        <path
           inkscape:connector-curvature="0"
           d="m 337.2,879 c 0,0 30.2,-88.4 -2.8,-148.6 0,0 16.4,35.5 10,86.2 -5.1,40.1 -7.2,62.4 -7.2,62.4 z"
           style="fill:#000000"
           id="path9281" />
      </g>
      <g
         id="g9296">
        <linearGradient
           id="SVGID_24_"
           gradientUnits="userSpaceOnUse"
           x1="-847.12109"
           y1="624.41272"
           x2="-782.78778"
           y2="624.41272"
           gradientTransform="matrix(-0.8951,0.446,0.446,0.8951,-686.0966,601.3076)">
          <stop
             offset="0"
             style="stop-color:#54B948"
             id="stop9285" />
          <stop
             offset="0.3764"
             style="stop-color:#00A651"
             id="stop9287" />
          <stop
             offset="1"
             style="stop-color:#005826"
             id="stop9289" />
        </linearGradient>
        <path
           inkscape:connector-curvature="0"
           d="m 318.9,863.2 c 0,0 24.8,-72 5.7,-132.8 0,0 3.2,48.8 -4.1,86.8 -4.6,24.1 -1.6,46 -1.6,46 z"
           style="fill:#000000"
           id="path9292" />
        <path
           inkscape:connector-curvature="0"
           d="m 319,863.5 c 0,0 24.8,-72.3 5.7,-133.2 0,0 7.3,37 0.1,87.6 -2.8,19.4 -5.8,45.6 -5.8,45.6 z"
           style="fill:#000000"
           id="path9294" />
      </g>
      <g
         id="g9309">
        <linearGradient
           id="SVGID_25_"
           gradientUnits="userSpaceOnUse"
           x1="-849.87128"
           y1="607.46149"
           x2="-788.53802"
           y2="607.46149"
           gradientTransform="matrix(-0.88,0.475,0.475,0.88,-707.9734,624.7328)">
          <stop
             offset="0"
             style="stop-color:#54B948"
             id="stop9298" />
          <stop
             offset="0.3764"
             style="stop-color:#00A651"
             id="stop9300" />
          <stop
             offset="1"
             style="stop-color:#005826"
             id="stop9302" />
        </linearGradient>
        <path
           inkscape:connector-curvature="0"
           d="m 294.9,693.4 c 0,0 32.4,69.2 13.2,153.5 0,0 -7.7,-31.6 -3.9,-71.8 3.7,-40.1 -9.3,-81.7 -9.3,-81.7 z"
           style="fill:#000000"
           id="path9305" />
        <path
           inkscape:connector-curvature="0"
           d="m 294.9,693.4 c 0,0 32.5,69.6 13.2,153.9 0,0 0.8,-34.9 0.9,-68.6 0,-40.3 -14.1,-85.3 -14.1,-85.3 z"
           style="fill:#000000"
           id="path9307" />
      </g>
      <g
         id="g9322">
        <linearGradient
           id="SVGID_26_"
           gradientUnits="userSpaceOnUse"
           x1="-840.6239"
           y1="586.20172"
           x2="-784.6239"
           y2="586.20172"
           gradientTransform="matrix(-0.8829,0.4695,0.4695,0.8829,-706.2335,622.0685)">
          <stop
             offset="0"
             style="stop-color:#54B948"
             id="stop9311" />
          <stop
             offset="0.3764"
             style="stop-color:#00A651"
             id="stop9313" />
          <stop
             offset="1"
             style="stop-color:#005826"
             id="stop9315" />
        </linearGradient>
        <path
           inkscape:connector-curvature="0"
           d="m 279.6,685.6 c 0,0 30.2,57.5 13.7,145 0,0 -8,-29.2 -5.3,-55.5 2.6,-26.3 4,-52.7 -8.4,-89.5 z"
           style="fill:#000000"
           id="path9318" />
        <path
           inkscape:connector-curvature="0"
           d="m 279.6,685.6 c 0,0 30.2,57.5 13.7,145 0,0 -2.7,-28.4 -0.1,-54.8 2.7,-26.2 -1.2,-53.4 -13.6,-90.2 z"
           style="fill:#000000"
           id="path9320" />
      </g>
      <g
         id="g9335">
        <linearGradient
           id="SVGID_27_"
           gradientUnits="userSpaceOnUse"
           x1="-821.49908"
           y1="536.3551"
           x2="-772.49908"
           y2="536.3551"
           gradientTransform="matrix(-0.9072,0.4207,0.4207,0.9072,-676.3171,589.7834)">
          <stop
             offset="0"
             style="stop-color:#54B948"
             id="stop9324" />
          <stop
             offset="0.3764"
             style="stop-color:#00A651"
             id="stop9326" />
          <stop
             offset="1"
             style="stop-color:#005826"
             id="stop9328" />
        </linearGradient>
        <path
           inkscape:connector-curvature="0"
           d="m 267.7,672.7 c 0,0 32.5,79.7 9.4,136.7 0,0 -5,-24.7 -1.3,-61.1 3.7,-36.4 -8.1,-75.6 -8.1,-75.6 z"
           style="fill:#000000"
           id="path9331" />
        <path
           inkscape:connector-curvature="0"
           d="m 267.7,673.1 c 0,0 32.5,79.7 9.4,136.7 0,0 1.5,-16.2 3.6,-50.7 2.9,-46.2 -13,-86 -13,-86 z"
           style="fill:#000000"
           id="path9333" />
      </g>
      <g
         id="g9348">
        <linearGradient
           id="SVGID_28_"
           gradientUnits="userSpaceOnUse"
           x1="-834.40552"
           y1="467.2778"
           x2="-788.90552"
           y2="467.2778"
           gradientTransform="matrix(-0.9478,0.3188,0.3188,0.9478,-655.9698,539.6083)">
          <stop
             offset="0"
             style="stop-color:#54B948"
             id="stop9337" />
          <stop
             offset="0.3764"
             style="stop-color:#00A651"
             id="stop9339" />
          <stop
             offset="1"
             style="stop-color:#005826"
             id="stop9341" />
        </linearGradient>
        <path
           inkscape:connector-curvature="0"
           d="m 264,657.6 c 0,0 15.3,73.3 -3.5,132.4 0,0 -5.1,-21.5 0.4,-57.4 5.5,-36.1 4.7,-62.5 3.1,-75 z"
           style="fill:#000000"
           id="path9344" />
        <path
           inkscape:connector-curvature="0"
           d="m 264,657.9 c 0,0 15.3,73.3 -3.5,132.4 0,0 1.8,-24.2 5,-56.5 3.6,-36.2 0.1,-63.4 -1.5,-75.9 z"
           style="fill:#000000"
           id="path9346" />
      </g>
      <g
         id="g9361">
        <linearGradient
           id="SVGID_29_"
           gradientUnits="userSpaceOnUse"
           x1="-802.49408"
           y1="404.4552"
           x2="-759.49219"
           y2="404.4552"
           gradientTransform="matrix(-0.9694,0.2453,0.2453,0.9694,-605.6367,497.9318)">
          <stop
             offset="0"
             style="stop-color:#54B948"
             id="stop9350" />
          <stop
             offset="0.3764"
             style="stop-color:#00A651"
             id="stop9352" />
          <stop
             offset="1"
             style="stop-color:#005826"
             id="stop9354" />
        </linearGradient>
        <path
           inkscape:connector-curvature="0"
           d="m 254.9,627.4 c 0,0 20.8,78 -8.4,142.1 0,0 -2.6,-17.2 3.3,-41.4 5.9,-24.2 9.4,-63.3 5.1,-100.7 z"
           style="fill:#000000"
           id="path9357" />
        <path
           inkscape:connector-curvature="0"
           d="m 254.8,627.8 c 0,0 20.8,78 -8.4,142.1 0,0 1.8,-17 8,-41.1 8.6,-33.5 4.8,-63.6 0.4,-101 z"
           style="fill:#000000"
           id="path9359" />
      </g>
      <g
         id="g9374">
        <linearGradient
           id="SVGID_30_"
           gradientUnits="userSpaceOnUse"
           x1="-789.75677"
           y1="370.33179"
           x2="-749.20599"
           y2="370.33179"
           gradientTransform="matrix(-0.9732,0.2302,0.2302,0.9732,-596.031,490.48)">
          <stop
             offset="0"
             style="stop-color:#54B948"
             id="stop9363" />
          <stop
             offset="0.3764"
             style="stop-color:#00A651"
             id="stop9365" />
          <stop
             offset="1"
             style="stop-color:#005826"
             id="stop9367" />
        </linearGradient>
        <path
           inkscape:connector-curvature="0"
           d="m 239.6,592.7 c 0,0 25.7,95 -3.3,162.1 0,0 -2.4,-26.1 2.1,-44.7 4.6,-18.5 10.4,-64.7 1.2,-117.4 z"
           style="fill:#000000"
           id="path9370" />
        <path
           inkscape:connector-curvature="0"
           d="m 239.6,593.1 c 0,0 25.7,95 -3.3,162.1 0,0 3,-25.7 7.5,-44.3 4.6,-18.5 5,-65.2 -4.2,-117.8 z"
           style="fill:#000000"
           id="path9372" />
      </g>
      <g
         id="g9387">
        <linearGradient
           id="SVGID_31_"
           gradientUnits="userSpaceOnUse"
           x1="-747.19019"
           y1="320.42209"
           x2="-720.5545"
           y2="320.42209"
           gradientTransform="matrix(-0.9868,0.1617,0.1617,0.9868,-550.7617,458.8362)">
          <stop
             offset="0"
             style="stop-color:#54B948"
             id="stop9376" />
          <stop
             offset="0.3764"
             style="stop-color:#00A651"
             id="stop9378" />
          <stop
             offset="1"
             style="stop-color:#005826"
             id="stop9380" />
        </linearGradient>
        <path
           inkscape:connector-curvature="0"
           d="m 220.1,576.9 c 0,0 33.9,73.1 5.3,159.9 0,0 -4,-4.1 1.4,-45.2 5.4,-41.1 5.9,-66.5 -6.7,-114.7 z"
           style="fill:#000000"
           id="path9383" />
        <path
           inkscape:connector-curvature="0"
           d="m 220.1,576.9 c 0,0 33.8,73.5 5.2,160.3 0,0 0.4,-4.1 5.8,-45.2 5.4,-41.1 2.6,-74.6 -11,-115.1 z"
           style="fill:#000000"
           id="path9385" />
      </g>
      <g
         id="g9400">
        <linearGradient
           id="SVGID_32_"
           gradientUnits="userSpaceOnUse"
           x1="-728.1568"
           y1="304.19531"
           x2="-710.69171"
           y2="304.19531"
           gradientTransform="matrix(-0.9899,0.1414,0.1414,0.9899,-539.3928,451.1502)">
          <stop
             offset="0"
             style="stop-color:#54B948"
             id="stop9389" />
          <stop
             offset="0.3764"
             style="stop-color:#00A651"
             id="stop9391" />
          <stop
             offset="1"
             style="stop-color:#005826"
             id="stop9393" />
        </linearGradient>
        <path
           inkscape:connector-curvature="0"
           d="m 214.8,583.5 c 0,0 17.9,96.8 2.3,134 0,0 -5.5,-18.4 -2.2,-52.2 3.3,-33.8 3.7,-43.3 -0.1,-81.8 z"
           style="fill:#000000"
           id="path9396" />
        <path
           inkscape:connector-curvature="0"
           d="m 214.8,583.5 c 0,0 17.9,96.8 2.3,134 0,0 -0.4,-12 2.1,-43.4 2.8,-34.9 -0.6,-52.1 -4.4,-90.6 z"
           style="fill:#000000"
           id="path9398" />
      </g>
      <g
         id="g9413">
        <linearGradient
           id="SVGID_33_"
           gradientUnits="userSpaceOnUse"
           x1="-706.01801"
           y1="265.0199"
           x2="-696.4585"
           y2="265.0199"
           gradientTransform="matrix(-0.9938,0.1114,0.1114,0.9938,-521.5274,440.1482)">
          <stop
             offset="0"
             style="stop-color:#54B948"
             id="stop9402" />
          <stop
             offset="0.3764"
             style="stop-color:#00A651"
             id="stop9404" />
          <stop
             offset="1"
             style="stop-color:#005826"
             id="stop9406" />
        </linearGradient>
        <path
           inkscape:connector-curvature="0"
           d="m 195.4,546 c 0,0 27.5,115 13.7,159.3 0,0 -4.9,-38.8 -3.6,-69.5 1.3,-30.7 -10.1,-89.8 -10.1,-89.8 z"
           style="fill:#000000"
           id="path9409" />
        <path
           inkscape:connector-curvature="0"
           d="m 195.4,546 c 0,0 27.5,115 13.7,159.3 0,0 0.7,-25.2 -0.3,-61.4 C 207.9,613.2 195.4,546 195.4,546 Z"
           style="fill:#000000"
           id="path9411" />
      </g>
      <g
         id="g9426">
        <linearGradient
           id="SVGID_34_"
           gradientUnits="userSpaceOnUse"
           x1="-693.14587"
           y1="205.35539"
           x2="-685.09058"
           y2="205.35539"
           gradientTransform="matrix(-0.9964,0.08439438,0.08439438,0.9964,-516.5507,441.6334)">
          <stop
             offset="0"
             style="stop-color:#54B948"
             id="stop9415" />
          <stop
             offset="0.3764"
             style="stop-color:#00A651"
             id="stop9417" />
          <stop
             offset="1"
             style="stop-color:#005826"
             id="stop9419" />
        </linearGradient>
        <path
           inkscape:connector-curvature="0"
           d="m 177.6,511.6 c 0,0 25.1,101.7 13.4,153.5 0,0 -3.4,-16.5 -4.5,-48.5 -1.1,-32 -2.8,-68.3 -8.9,-105 z"
           style="fill:#000000"
           id="path9422" />
        <path
           inkscape:connector-curvature="0"
           d="m 177.6,511.6 c 0,0 25.1,101.7 13.4,153.5 0,0 0.1,-16.2 -0.9,-48.3 -1,-32.1 -6.4,-68.5 -12.5,-105.2 z"
           style="fill:#000000"
           id="path9424" />
      </g>
      <g
         id="g9439">
        <linearGradient
           id="SVGID_35_"
           gradientUnits="userSpaceOnUse"
           x1="283.76859"
           y1="557.46997"
           x2="237.1019"
           y2="607.30328"
           gradientTransform="matrix(0.6794,-0.7338,0.7338,0.6794,-405.8327,434.1327)">
          <stop
             offset="0"
             style="stop-color:#54B948"
             id="stop9428" />
          <stop
             offset="0.3764"
             style="stop-color:#00A651"
             id="stop9430" />
          <stop
             offset="1"
             style="stop-color:#005826"
             id="stop9432" />
        </linearGradient>
        <path
           inkscape:connector-curvature="0"
           d="m 187.5,544 c 0,0 21.7,63.1 12.9,144.9 0,0 -3.6,-24.2 -5.5,-50.8 -2,-26.7 4.1,-52.7 -7.4,-94.1 z"
           style="fill:#000000"
           id="path9435" />
        <path
           inkscape:connector-curvature="0"
           d="m 187.5,544 c 0,0 21.7,63.1 12.9,144.9 0,0 1,-25.6 -0.9,-52.3 -2,-26.7 -0.5,-51.2 -12,-92.6 z"
           style="fill:#000000"
           id="path9437" />
      </g>
      <linearGradient
         id="SVGID_36_"
         gradientUnits="userSpaceOnUse"
         x1="222.14951"
         y1="675.95001"
         x2="212.0276"
         y2="961.38849"
         gradientTransform="matrix(0.6794,-0.7338,0.7338,0.6794,-405.8327,434.1327)">
        <stop
           offset="0"
           style="stop-color:#54B948"
           id="stop9441" />
        <stop
           offset="0.3764"
           style="stop-color:#00A651"
           id="stop9443" />
        <stop
           offset="1"
           style="stop-color:#005826"
           id="stop9445" />
      </linearGradient>
      <path
         inkscape:connector-curvature="0"
         d="m 385.7,935.1 c 0,0 -180.3,-156 -216.8,-333.2 -0.5,-2.3 0.4,-3.4 0,-5.7 0,0 32.6,172.4 227.4,335.5 z"
         style="fill:#000000"
         id="path9448" />
    </g>
    <path
       inkscape:connector-curvature="0"
       d="m 11.497872,287.00743 c 0,0 0.39438,0.0648 0.681839,0.0338 0.287461,-0.0309 0.220852,-0.0521 0.315504,-0.16036 0.09465,-0.10831 0.02454,-0.0493 -0.08939,-0.0689 -0.113933,-0.0192 0.02629,-0.0213 0.147234,-0.0437 0.120943,-0.0225 0.261167,0.008 0.348806,-0.09 0.08765,-0.0999 0.19982,-0.27011 0.19982,-0.27011 l -1.004355,0.1012 -0.410155,0.13789 z"
       style="fill:#000000;stroke-width:0.01570364"
       id="path10378" />
    <path
       inkscape:connector-curvature="0"
       d="m 11.676658,286.70496 c 0,0 0.508311,-0.0787 0.827322,-0.11252 0.319007,-0.0338 0.466243,-0.0381 0.518829,-0.0913 0.05259,-0.0535 0.15776,-0.18579 0.0666,-0.14776 -0.09114,0.0378 -0.434694,0.076 -0.359323,0.0296 0.07536,-0.0449 0.199818,-0.0575 0.420672,-0.13385 0.220853,-0.076 0.220853,-0.0563 0.301482,-0.16611 0.08238,-0.10976 -0.09116,-0.0351 -0.175281,-0.005 -0.08589,0.0309 -0.07362,-0.005 0.11919,-0.093 0.192807,-0.0886 0.155998,-0.0225 0.273436,-0.18002 0,0 -0.497796,0.0942 -0.969299,0.20249 -0.469749,0.10831 -0.823817,0.33345 -0.823817,0.33345 z"
       style="fill:#000000;stroke-width:0.01570364"
       id="path10387" />
    <path
       inkscape:connector-curvature="0"
       d="m 11.908029,286.35604 c 0,0 0.373346,-0.22089 0.885163,-0.30812 0.513569,-0.0871 0.585437,-0.10831 0.718646,-0.15761 0.133221,-0.048 0.133221,-0.048 0.178787,-0.11543 0.04557,-0.0661 -0.04908,-0.0213 -0.14549,0.0252 -0.09641,0.0464 -0.476762,0.12367 -0.615234,0.0913 -0.136712,-0.0323 -0.04733,-0.0436 0.06486,-0.0844 0.110427,-0.0406 0.443459,-0.0491 0.741435,-0.24479 0.297975,-0.19566 0.341797,-0.43334 0.341797,-0.43334 0,0 -0.438202,0.31656 -1.034153,0.34048 -0.595953,0.0239 -0.865885,0.43473 -0.865885,0.43473 z"
       style="fill:#000000;stroke-width:0.01570364"
       id="path10396" />
    <path
       inkscape:connector-curvature="0"
       d="m 12.267352,285.82985 c 0,0 0.117437,-0.13353 0.578424,-0.21384 0.460985,-0.0804 0.93249,-0.16738 1.060444,-0.2673 0.127951,-0.0985 0.203325,-0.23495 0.164765,-0.23919 -0.03857,-0.005 -0.53636,0.22792 -0.667818,0.21808 -0.131459,-0.0113 -0.117444,-0.0296 0.03506,-0.0886 0.15249,-0.0606 0.518828,-0.11268 0.662558,-0.22089 0.143729,-0.10831 0.201572,-0.29264 0.201572,-0.29264 l -0.706378,0.22791 -0.816807,0.006 c 0,0 -0.108666,0.16462 -0.224356,0.3053 -0.115686,0.14065 -0.28746,0.56559 -0.28746,0.56559 z"
       style="fill:#000000;stroke-width:0.01570364"
       id="path10405" />
    <path
       inkscape:connector-curvature="0"
       d="m 12.600383,285.22488 c 0,0 0.196315,-0.12803 0.711638,-0.1674 0.515322,-0.0409 0.785254,-0.0773 0.906197,-0.20955 0.122698,-0.13224 0.10692,-0.1646 -0.01928,-0.10556 -0.126205,0.059 -1.053432,0.18708 -1.028894,0.10556 0.02454,-0.0831 0.248899,-0.0521 0.655547,-0.12237 0.40665,-0.0705 0.557393,-0.0705 0.715145,-0.3433 0,0 -0.674831,-0.0732 -1.063951,-0.006 -0.390874,0.0674 -0.359325,-0.0338 -0.529347,0.15195 -0.16827,0.18581 -0.347055,0.69784 -0.347055,0.69784 z"
       style="fill:#000000;stroke-width:0.01570364"
       id="path10414" />
    <path
       inkscape:connector-curvature="0"
       d="m 12.936922,284.60585 c 0,0 0.115681,-0.0816 0.757208,-0.11688 0.643279,-0.0351 0.77474,0.0146 0.872897,-0.14484 0.0964,-0.15907 0.145475,-0.21947 -0.02979,-0.15196 -0.175281,0.0689 -0.736176,0.11963 -0.688851,0.0647 0.04732,-0.0535 0.608223,-0.0309 0.774739,-0.21665 0.166514,-0.18581 0.213841,-0.39253 0.213841,-0.39253 0,0 -0.327775,0.20677 -0.937748,0.20955 l -0.51357,0.0619 c 0,0 -0.131459,0.0648 -0.289212,0.37564 -0.159506,0.31093 -0.159506,0.31093 -0.159506,0.31093 z"
       style="fill:#000000;stroke-width:0.01570364"
       id="path10423" />
    <path
       inkscape:connector-curvature="0"
       d="m 13.27346,284.00229 c 0,0 0.175279,-0.0548 0.673074,-0.0732 0.497795,-0.0192 0.727415,-0.0381 0.825569,-0.17595 0.09816,-0.13789 0.103412,-0.22088 0.0333,-0.17295 -0.07011,0.0477 -0.622244,0.097 -0.496042,0.0309 0.126205,-0.0674 0.404897,-0.0563 0.504807,-0.16036 0.0999,-0.10395 0.126205,-0.27013 0.126205,-0.27013 0,0 -0.939499,0.0477 -1.207679,0.26167 -0.26818,0.21528 -0.459233,0.55997 -0.459233,0.55997 z"
       style="fill:#000000;stroke-width:0.01570364"
       id="path10432" />
    <path
       inkscape:connector-curvature="0"
       d="m 13.716916,283.47327 c 0,0 0.694111,-0.28843 1.195413,-0.20956 0,0 0.07713,-0.15325 -0.01929,-0.14775 -0.09641,0.006 -0.508314,0.0437 -0.373345,-0.0192 0.134967,-0.0634 0.415411,-0.0844 0.476761,-0.17722 0.06135,-0.093 0.136713,-0.23073 0.02805,-0.24059 -0.108666,-0.0113 -0.119189,-0.0674 0,-0.14339 0.119189,-0.076 0.0894,-0.12949 0.112173,-0.33484 0,0 -0.918468,0.44459 -1.419771,1.27325 z"
       style="fill:#000000;stroke-width:0.01570364"
       id="path10441" />
    <path
       inkscape:connector-curvature="0"
       d="m 13.872917,282.47436 c -0.02102,0.0705 -0.08414,0.39254 0.03156,0.23777 0.117443,-0.15633 0.04908,-0.21666 0.408403,-0.32078 0.359323,-0.10394 0.355819,-0.13223 0.382111,-0.1012 0.02628,0.031 -0.07887,0.1646 0.05082,0.0689 0.129713,-0.0957 0.313753,-0.1505 0.38912,-0.15761 0,0 -0.503053,0.28561 -0.81856,0.60498 -0.3155,0.31796 -0.639769,0.7344 -0.764219,0.85962 -0.124443,0.12367 -0.22611,-0.7752 -0.155998,-0.88917 0.07011,-0.11381 0.501301,-0.37988 0.476762,-0.30249 z"
       style="fill:#000000;stroke-width:0.01570364"
       id="path10450" />
    <path
       inkscape:connector-curvature="0"
       d="m 12.877326,283.14546 c 0,0 0.208585,-0.17168 0.259415,-0.22229 0.05082,-0.0521 0.02629,0.10556 0.04732,0.24622 0.02105,0.14064 0.08589,0.36579 0.126205,0.0787 0.04032,-0.287 -0.01752,-0.40237 0.0894,-0.50789 0.108681,-0.10556 0.0999,-0.0858 0.164763,-0.1138 0.06309,-0.028 0.01051,0.28983 0.06486,0.54871 0.05435,0.25886 0.09992,0.25465 0.04208,0.36156 -0.05784,0.10701 -0.478514,0.612 -0.576674,0.75833 -0.09641,0.14646 -0.217347,-1.14946 -0.217347,-1.14946 z"
       style="fill:#000000;stroke-width:0.01570364"
       id="path10459" />
    <path
       inkscape:connector-curvature="0"
       d="m 13.159526,284.21471 c -0.01928,0.0378 -0.37685,0.73582 -0.460985,0.84415 -0.08413,0.10831 -0.113936,-0.84133 -0.226113,-1.07629 -0.112177,-0.23353 -0.182291,-0.18579 -0.119191,-0.2659 0.09115,-0.11542 0.296225,-0.33204 0.297977,-0.28561 0.0018,0.0464 0.196315,0.88918 0.20683,0.68657 0.01051,-0.2027 -0.09816,-0.73862 -0.07713,-0.83288 0.02102,-0.0942 0.113936,-0.15196 0.161253,-0.19265 0,0 0.134966,0.29826 0.168269,0.59651 0.0333,0.29826 0.105174,0.41505 0.04908,0.52618 z"
       style="fill:#000000;stroke-width:0.01570364"
       id="path10468" />
    <path
       inkscape:connector-curvature="0"
       d="m 12.510991,285.38246 c 0,0 0.341794,-0.43193 0.289212,-0.64717 -0.05259,-0.21528 -0.369842,-1.11569 -0.355818,-1.12836 0.0333,-0.0323 -0.148989,0.11817 -0.148989,0.23635 0,0.11817 0.07712,0.45727 0.03856,0.41646 -0.03856,-0.0409 -0.0631,-0.37425 -0.11393,-0.31937 -0.05083,0.0535 -0.120943,0.0732 -0.168268,0.14485 -0.04732,0.0718 0.371593,1.32532 0.459234,1.29719 z"
       style="fill:#000000;stroke-width:0.01570364"
       id="path10477" />
    <path
       inkscape:connector-curvature="0"
       d="m 11.518906,286.9779 0.341794,-0.49524 c 0,0 -0.147235,-0.59232 -0.510064,-0.70909 0,0 -0.02629,0.0886 0.02102,0.17296 0.04732,0.0846 0.229616,0.4249 0.189302,0.60076 -0.04207,0.17595 -0.177033,-0.2842 -0.269932,-0.18152 -0.09465,0.10281 0.175281,0.68796 0.227866,0.612 z"
       style="fill:#000000;stroke-width:0.01570364"
       id="path10486" />
    <path
       inkscape:connector-curvature="0"
       d="m 12.49171,285.4345 c 0,0 -0.227866,0.46148 -0.315506,0.5867 -0.08763,0.12528 -0.471504,-1.04393 -0.471504,-1.04393 0,0 -0.0087,-0.17724 0.01051,-0.22793 0.01928,-0.0508 0.07362,-0.23917 0.09991,-0.0999 0.0087,0.0449 0.05785,0.31376 0.157751,0.45443 0.09991,0.14065 0.105167,0.17296 -0.01929,-0.36859 -0.124447,-0.54308 0.129712,-0.69082 0.129712,-0.69082 0,0 0.203323,0.75835 0.304984,0.94265 0.101664,0.18429 0.173527,0.30951 0.103417,0.44738 z"
       style="fill:#000000;stroke-width:0.01570364"
       id="path10495" />
    <path
       inkscape:connector-curvature="0"
       d="m 11.858949,286.48266 c 0,0 -0.161258,-0.58949 -0.510063,-0.70909 0,0 0.01401,-0.0886 0.119187,-0.0493 0.105171,0.0394 -0.08939,-0.16182 -0.07011,-0.23073 0.01929,-0.0689 0.09115,-0.2673 0.134965,-0.22792 0.04382,0.0394 0.240133,0.59512 0.299728,0.58809 0.05959,-0.006 -0.189303,-0.45303 -0.261165,-0.6922 -0.07187,-0.23917 0.103411,-0.3489 0.143729,-0.41222 0,0 0.215592,0.60356 0.347054,0.91167 0.131461,0.30812 0.112178,0.36017 0.112178,0.36017 z"
       style="fill:#000000;stroke-width:0.01570364"
       id="path10504" />
    <path
       inkscape:connector-curvature="0"
       d="m 11.305064,286.35323 c 0,0 0.240135,0.45865 0.285707,0.51914 l -0.09115,0.13353 c 0,0 -0.327774,-0.44878 -0.27519,-0.53462 0.05258,-0.0844 0.07187,-0.13514 0.08063,-0.11817 z"
       style="fill:#000000;stroke-width:0.01570364"
       id="path10513" />
    <path
       inkscape:connector-curvature="0"
       d="m 15.136687,282.20002 c -0.329529,0.17724 -0.534606,0.34046 -0.74494,0.53744 -0.21209,0.19693 -0.401391,0.41221 -0.578424,0.63309 -0.177035,0.22091 -0.385617,0.44039 -0.545123,0.67112 -0.159507,0.23073 -0.280448,0.4685 -0.429436,0.70346 l -0.09641,0.18151 c -0.03681,0.059 -0.07362,0.11817 -0.108666,0.17724 l -0.106921,0.17722 -0.106921,0.17724 -0.212091,0.35596 c -0.07187,0.11817 -0.141977,0.23635 -0.213841,0.35452 -0.143732,0.23638 -0.289214,0.47133 -0.438202,0.70347 -0.0368,0.0575 -0.07537,0.11687 -0.112178,0.17444 -0.03856,0.0575 -0.07712,0.11542 -0.115684,0.17296 -0.03856,0.0575 -0.07888,0.11542 -0.117437,0.17166 -0.01929,0.0281 -0.04031,0.0563 -0.06135,0.0844 l -0.03154,0.0409 c -0.01051,0.0129 -0.02102,0.0283 -0.0298,0.0381 l -0.0017,0.002 c -0.02279,0.0283 -0.02104,0.0634 0.0052,0.0787 0.02629,0.0145 0.06486,0.006 0.08939,-0.0225 0,0 0,-0.002 0,-0.002 0.01402,-0.0171 0.02279,-0.0309 0.03505,-0.0449 l 0.03155,-0.0437 c 0.02102,-0.0296 0.04031,-0.0575 0.06135,-0.0873 0.04031,-0.0575 0.07888,-0.11688 0.117437,-0.17596 0.03856,-0.059 0.07537,-0.11688 0.113934,-0.17595 0.03681,-0.059 0.07362,-0.11817 0.110427,-0.17722 0.145483,-0.2364 0.287459,-0.47274 0.427685,-0.71192 0.07011,-0.11963 0.13847,-0.23777 0.206829,-0.35736 l 0.205078,-0.35734 0.101663,-0.17873 0.103411,-0.17874 c 0.03506,-0.059 0.07011,-0.11817 0.105174,-0.17723 l 0.0929,-0.18152 c 0.143728,-0.23637 0.261167,-0.47414 0.413659,-0.70628 0.154252,-0.23214 0.357574,-0.4516 0.531099,-0.67389 0.171774,-0.2223 0.35582,-0.44037 0.564401,-0.63876 0.206831,-0.19693 0.41191,-0.3489 0.734427,-0.54445 z"
       style="fill:#000000;stroke-width:0.01570364"
       id="path10522" />
    <g
       transform="matrix(0.02117826,0,0,0.01490973,-7.3594375,276.57764)"
       id="g10626">
      <linearGradient
         id="SVGID_96_"
         gradientUnits="userSpaceOnUse"
         x1="676.23181"
         y1="780.95813"
         x2="738.42279"
         y2="780.95813"
         gradientTransform="matrix(0.9913,-0.1315,0.1315,0.9913,-86.0899,149.6173)">
        <stop
           offset="0"
           style="stop-color:#54B948"
           id="stop10615" />
        <stop
           offset="0.3764"
           style="stop-color:#00A651"
           id="stop10617" />
        <stop
           offset="1"
           style="stop-color:#005826"
           id="stop10619" />
      </linearGradient>
      <path
         inkscape:connector-curvature="0"
         d="m 695,895.1 c 0,0 14.8,-69 45.7,-128.6 -0.1,0 -13.2,95.6 -45.7,128.6 z"
         style="fill:#000000"
         id="path10622" />
      <path
         inkscape:connector-curvature="0"
         d="m 695,895.1 c 0,0 -16.2,-34.8 45.7,-128.6 -0.1,0 -32.8,90.4 -45.7,128.6 z"
         style="fill:#000000"
         id="path10624" />
    </g>
    <path
       inkscape:connector-curvature="0"
       d="m 7.4314675,290.12462 c 0,0 -0.8365418,-0.37128 -1.9356941,-0.55316 -0.00212,0 1.0059679,0.56955 1.9356941,0.55316 z"
       style="fill:#000000;stroke-width:0.0177697"
       id="path10635" />
    <path
       inkscape:connector-curvature="0"
       d="m 7.4314675,290.12462 c 0,0 0.069887,-0.3653 -1.9356941,-0.55316 -0.00212,0 1.3723517,0.38468 1.9356941,0.55316 z"
       style="fill:#000000;stroke-width:0.0177697"
       id="path10637" />
    <path
       inkscape:connector-curvature="0"
       d="m 7.0206085,289.65346 c 0,0 -1.0038493,-0.70521 -2.2152465,-1.1719 0,-0.002 1.2495182,1.03324 2.2152465,1.1719 z"
       style="fill:#000000;stroke-width:0.0177697"
       id="path10646" />
    <path
       inkscape:connector-curvature="0"
       d="m 7.0206085,289.65346 c 0,0 -0.055059,-0.53971 -2.2152465,-1.1719 0,-0.002 1.5693092,0.81856 2.2152465,1.1719 z"
       style="fill:#000000;stroke-width:0.0177697"
       id="path10648" />
    <path
       inkscape:connector-curvature="0"
       d="m 6.6309288,288.92738 c 0,0 -0.9784366,-0.78428 -2.1178274,-1.33145 0,0 1.2346932,1.13762 2.1178274,1.33145 z"
       style="fill:#000000;stroke-width:0.0177697"
       id="path10657" />
    <path
       inkscape:connector-curvature="0"
       d="m 6.6309288,288.92738 c 0,0 -0.1058913,-0.5636 -2.1178274,-1.33145 0,0 1.4994215,0.93185 2.1178274,1.33145 z"
       style="fill:#000000;stroke-width:0.0177697"
       id="path10659" />
    <path
       inkscape:connector-curvature="0"
       d="m 6.4487953,288.40254 c 0,0 -1.020792,-0.88117 -2.189833,-1.51186 0,0 1.3003464,1.27332 2.189833,1.51186 z"
       style="fill:#000000;stroke-width:0.0177697"
       id="path10668" />
    <path
       inkscape:connector-curvature="0"
       d="m 6.4487953,288.40254 c 0,0 -0.1440115,-0.61279 -2.189833,-1.51186 0,0 1.5502498,1.0601 2.189833,1.51186 z"
       style="fill:#000000;stroke-width:0.0177697"
       id="path10670" />
    <path
       inkscape:connector-curvature="0"
       d="m 6.2645451,287.99101 c 0,0 -0.804775,-0.98552 -1.8128607,-1.74144 0,0 0.9911431,1.40449 1.8128607,1.74144 z"
       style="fill:#000000;stroke-width:0.0177697"
       id="path10679" />
    <path
       inkscape:connector-curvature="0"
       d="m 6.2645451,287.99101 c 0,0 0,-0.62173 -1.8128607,-1.74144 0,0 1.2855214,1.22259 1.8128607,1.74144 z"
       style="fill:#000000;stroke-width:0.0177697"
       id="path10681" />
    <path
       inkscape:connector-curvature="0"
       d="m 6.0231125,287.15161 c 0,0 -0.9212552,-1.00194 -2.1072381,-1.75487 0,-0.002 1.1203306,1.43133 2.1072381,1.75487 z"
       style="fill:#000000;stroke-width:0.0177697"
       id="path10690" />
    <path
       inkscape:connector-curvature="0"
       d="m 6.0231125,287.15161 c 0,0 0.042354,-0.64856 -2.1072381,-1.75487 0,-0.002 1.4951862,1.23004 2.1072381,1.75487 z"
       style="fill:#000000;stroke-width:0.0177697"
       id="path10692" />
    <path
       inkscape:connector-curvature="0"
       d="m 5.9489884,286.79377 c 0,0 -0.4362723,-1.154 -1.2304577,-2.12911 0,0 0.4341548,1.60727 1.2304577,2.12911 z"
       style="fill:#000000;stroke-width:0.0177697"
       id="path10701" />
    <path
       inkscape:connector-curvature="0"
       d="m 5.9489884,286.79377 c 0,0 0.3261454,-0.60831 -1.2304577,-2.12911 0,0 0.878899,1.49695 1.2304577,2.12911 z"
       style="fill:#000000;stroke-width:0.0177697"
       id="path10703" />
    <path
       inkscape:connector-curvature="0"
       d="m 5.9468707,286.02294 c 0,0 -0.275318,-1.10779 -0.8047739,-2.03965 -0.00212,-0.002 0.260492,1.54466 0.8047739,2.03965 z"
       style="fill:#000000;stroke-width:0.0177697"
       id="path10712" />
    <path
       inkscape:connector-curvature="0"
       d="m 5.9468707,286.02294 c 0,0 0.2456681,-0.59192 -0.8047739,-2.03965 -0.00212,-0.002 0.5739309,1.43283 0.8047739,2.03965 z"
       style="fill:#000000;stroke-width:0.0177697"
       id="path10714" />
    <path
       inkscape:connector-curvature="0"
       d="m 7.0290805,289.47305 c 0,0 0.2541389,-0.99298 0.8111281,-1.84731 0,0 -0.2181368,1.37915 -0.8111281,1.84731 z"
       style="fill:#000000;stroke-width:0.0177697"
       id="path10734" />
    <path
       inkscape:connector-curvature="0"
       d="m 7.0290805,289.47305 c 0,0 -0.3092035,-0.50544 0.8111281,-1.84731 0,0 -0.5802852,1.30013 -0.8111281,1.84731 z"
       style="fill:#000000;stroke-width:0.0177697"
       id="path10736" />
    <path
       inkscape:connector-curvature="0"
       d="m 6.7940009,288.96612 c 0,0 0.3896807,-0.97063 1.0610317,-1.78318 0,0 -0.4045047,1.35675 -1.0610317,1.78318 z"
       style="fill:#000000;stroke-width:0.0177697"
       id="path10745" />
    <path
       inkscape:connector-curvature="0"
       d="m 6.7940009,288.96612 c 0,0 -0.2393137,-0.52481 1.0610317,-1.78318 0,0 -0.7560637,1.25389 -1.0610317,1.78318 z"
       style="fill:#000000;stroke-width:0.0177697"
       id="path10747" />
    <path
       inkscape:connector-curvature="0"
       d="m 6.569512,288.59338 c 0,0 0.3240275,-0.93484 0.8894867,-1.71611 0,0 -0.3367337,1.3061 -0.8894867,1.71611 z"
       style="fill:#000000;stroke-width:0.0177697"
       id="path10756" />
    <path
       inkscape:connector-curvature="0"
       d="m 6.569512,288.59338 c 0,0 -0.2054293,-0.50544 0.8894867,-1.71611 0,0 -0.6353477,1.2062 -0.8894867,1.71611 z"
       style="fill:#000000;stroke-width:0.0177697"
       id="path10758" />
    <path
       inkscape:connector-curvature="0"
       d="m 6.3894962,288.03426 c 0,0 0.5040433,-0.97956 1.2219861,-1.77127 0,-0.002 -0.5866374,1.37915 -1.2219861,1.77127 z"
       style="fill:#000000;stroke-width:0.0177697"
       id="path10767" />
    <path
       inkscape:connector-curvature="0"
       d="m 6.3894962,288.03426 c 0,0 -0.1101267,-0.56507 1.2219861,-1.77127 0,-0.002 -0.8683084,1.24349 -1.2219861,1.77127 z"
       style="fill:#000000;stroke-width:0.0177697"
       id="path10769" />
    <path
       inkscape:connector-curvature="0"
       d="m 6.22007,287.6004 c 0,0 0.5040435,-0.97957 1.2219869,-1.77128 0,-0.002 -0.5866382,1.37915 -1.2219869,1.77128 z"
       style="fill:#000000;stroke-width:0.0177697"
       id="path10778" />
    <path
       inkscape:connector-curvature="0"
       d="m 6.22007,287.6004 c 0,0 -0.1101267,-0.56508 1.2219869,-1.77128 0,-0.002 -0.8683093,1.24348 -1.2219869,1.77128 z"
       style="fill:#000000;stroke-width:0.0177697"
       id="path10780" />
    <path
       inkscape:connector-curvature="0"
       d="m 6.0760583,286.95032 c 0,0 0.5040425,-0.97956 1.221986,-1.77127 0,0 -0.5866383,1.37916 -1.221986,1.77127 z"
       style="fill:#000000;stroke-width:0.0177697"
       id="path10789" />
    <path
       inkscape:connector-curvature="0"
       d="m 6.0760583,286.95032 c 0,0 -0.1101267,-0.56507 1.221986,-1.77127 0,0 -0.8683094,1.24346 -1.221986,1.77127 z"
       style="fill:#000000;stroke-width:0.0177697"
       id="path10791" />
    <path
       inkscape:connector-curvature="0"
       d="m 5.9722844,286.11389 c 0,0 0.5061608,-0.89607 1.234693,-1.61771 0,0 -0.5845195,1.26286 -1.234693,1.61771 z"
       style="fill:#000000;stroke-width:0.0177697"
       id="path10800" />
    <path
       inkscape:connector-curvature="0"
       d="m 5.9722844,286.11389 c 0,0 -0.122833,-0.51885 1.234693,-1.61771 0,0 -0.8767803,1.13612 -1.234693,1.61771 z"
       style="fill:#000000;stroke-width:0.0177697"
       id="path10802" />
    <path
       inkscape:connector-curvature="0"
       d="m 5.9680488,285.40569 c 0,0 0.4574507,-0.81111 1.1160952,-1.46413 0,0 -0.5273393,1.14357 -1.1160952,1.46413 z"
       style="fill:#000000;stroke-width:0.0177697"
       id="path10811" />
    <path
       inkscape:connector-curvature="0"
       d="m 5.9680488,285.40569 c 0,0 -0.1101268,-0.46967 1.1160952,-1.46413 0,0 -0.7920677,1.02874 -1.1160952,1.46413 z"
       style="fill:#000000;stroke-width:0.0177697"
       id="path10813" />
    <path
       inkscape:connector-curvature="0"
       d="m 6.0082875,285.17608 c 0,0 -0.2499034,0.93932 0.027533,2.06052 0.2774349,1.12123 0.9890252,2.86565 1.7577961,3.28164 0,0 0.1778959,-0.0462 0.040238,-0.14016 -0.1397761,-0.0955 -0.6268766,-0.57551 -0.9212542,-1.20022 -0.2943781,-0.62621 -0.6395837,-1.24347 -0.764536,-2.04563 -0.1249506,-0.80214 -0.1397761,-1.95615 -0.1397769,-1.95615 z"
       style="fill:#000000;stroke-width:0.0177697"
       id="path10822" />
    <text
       xml:space="preserve"
       style="font-style:normal;font-variant:normal;font-weight:normal;font-stretch:normal;font-size:1.67685413px;line-height:1.25;font-family:Webdings;-inkscape-font-specification:Webdings;letter-spacing:0px;word-spacing:0px;fill:#000000;fill-opacity:1;stroke:none;stroke-width:0.04192135"
       x="5.8472505"
       y="282.61368"
       id="text11801"><tspan
         sodipodi:role="line"
         id="tspan11799"
         x="5.8472505"
         y="282.61368"
         style="font-style:normal;font-variant:normal;font-weight:normal;font-stretch:normal;font-size:2.68296671px;font-family:'Palatino Linotype';-inkscape-font-specification:'Palatino Linotype';stroke-width:0.04192135">ELLY</tspan></text>
  </g>
</svg>
