<?xml version="1.0" encoding="UTF-8" standalone="no"?>
<!-- Created with Inkscape (http://www.inkscape.org/) -->

<svg
   xmlns:dc="http://purl.org/dc/elements/1.1/"
   xmlns:cc="http://creativecommons.org/ns#"
   xmlns:rdf="http://www.w3.org/1999/02/22-rdf-syntax-ns#"
   xmlns:svg="http://www.w3.org/2000/svg"
   xmlns="http://www.w3.org/2000/svg"
   xmlns:sodipodi="http://sodipodi.sourceforge.net/DTD/sodipodi-0.dtd"
   xmlns:inkscape="http://www.inkscape.org/namespaces/inkscape"
   width="96"
   height="96"
   viewBox="0 0 25.4 25.4"
   version="1.1"
   id="svg8"
   inkscape:version="0.92.4 (5da689c313, 2019-01-14)"
   sodipodi:docname="96logo.svg">
  <defs
     id="defs2">
    <inkscape:path-effect
       effect="simplify"
       id="path-effect3894"
       is_visible="true"
       steps="1"
       threshold="0.00113885"
       smooth_angles="360"
       helper_size="0"
       simplify_individual_paths="false"
       simplify_just_coalesce="false"
       simplifyindividualpaths="false"
       simplifyJustCoalesce="false" />
    <inkscape:path-effect
       effect="simplify"
       id="path-effect3890"
       is_visible="true"
       steps="1"
       threshold="0.00113885"
       smooth_angles="360"
       helper_size="0"
       simplify_individual_paths="false"
       simplify_just_coalesce="false"
       simplifyindividualpaths="false"
       simplifyJustCoalesce="false" />
    <inkscape:path-effect
       effect="simplify"
       id="path-effect3886"
       is_visible="true"
       steps="1"
       threshold="0.00113885"
       smooth_angles="360"
       helper_size="0"
       simplify_individual_paths="false"
       simplify_just_coalesce="false"
       simplifyindividualpaths="false"
       simplifyJustCoalesce="false" />
    <inkscape:path-effect
       effect="simplify"
       id="path-effect3882"
       is_visible="true"
       steps="1"
       threshold="0.00113885"
       smooth_angles="360"
       helper_size="0"
       simplify_individual_paths="false"
       simplify_just_coalesce="false"
       simplifyindividualpaths="false"
       simplifyJustCoalesce="false" />
  </defs>
  <sodipodi:namedview
     id="base"
     pagecolor="#ffffff"
     bordercolor="#666666"
     borderopacity="1.0"
     inkscape:pageopacity="0.0"
     inkscape:pageshadow="2"
     inkscape:zoom="2.8284271"
     inkscape:cx="20.230508"
     inkscape:cy="23.839358"
     inkscape:document-units="mm"
     inkscape:current-layer="layer1"
     showgrid="false"
     inkscape:window-width="1366"
     inkscape:window-height="705"
     inkscape:window-x="-8"
     inkscape:window-y="-8"
     inkscape:window-maximized="1"
     units="px"
     height="8.5in"
     fit-margin-left="-0.2"
     fit-margin-bottom="-0.3" />
  <metadata
     id="metadata5">
    <rdf:RDF>
      <cc:Work
         rdf:about="">
        <dc:format>image/svg+xml</dc:format>
        <dc:type
           rdf:resource="http://purl.org/dc/dcmitype/StillImage" />
        <dc:title></dc:title>
      </cc:Work>
    </rdf:RDF>
  </metadata>
  <g
     inkscape:label="Layer 1"
     inkscape:groupmode="layer"
     id="layer1"
     transform="translate(0,-271.6)">
    <path
       inkscape:connector-curvature="0"
       d="m 2.5273451,281.09755 c 0.1906994,0.23247 0.3635194,0.48866 0.6734053,0.59593 0.1668596,0.0951 0.3218045,0.21441 0.5244216,0.23249 0,0 0,0 0,0 0.3337219,0.15488 0.6912823,0.19073 1.0488421,0.24432 0.3456424,0.0478 0.6674456,0.0303 1.0011691,-0.0357 0.041718,-0.007 0.083435,0.0183 0.125142,0.0243 v 0 c 0,0.0417 0.011898,0.0715 0.059594,0.0715 v 0 c 0,0.0243 0.00603,0.0417 0.00603,0.0655 0,0 0,0 0,0 0.017902,0.13121 0.1013111,0.22061 0.202617,0.2921 0,0 0,0 0,0 v 0 c 0.017902,0.1133 -0.047682,0.23825 0.065542,0.32778 v 0 0 c 0.017901,0.0357 0.041718,0.0715 0.059594,0.10704 v 0 c 0,0.007 0,0.0183 0.00603,0.0243 0.00603,0.0655 0.047682,0.10136 0.1013111,0.13121 v 0 0 0 c 0.053631,0.0478 0.083435,0.10704 0.059594,0.18476 -0.011898,0.0417 -0.017902,0.0894 0.035752,0.1133 v 0 c 0.02979,0.0357 0.059594,0.0715 0.089386,0.10135 v 0 c 0.017902,0.0715 0.065558,0.1133 0.1311068,0.1369 v 0 c 0.1847406,0.0834 0.2920099,0.25621 0.458869,0.35755 0,0 0,0 0,0 0.041718,0.0597 0.1072631,0.0834 0.1728207,0.0951 0.1311054,0.0358 0.2622113,0.0655 0.3933165,0.10136 v 0 c 0.1191871,0.0478 0.2383736,0.0536 0.3635194,0.0715 0.035753,0.0355 0.083435,0.0243 0.1311054,0.0303 0,0 0,0 0,0 0.101311,0.0715 0.2145368,0.0772 0.3337236,0.0655 0.065558,0 0.1311039,0 0.1906995,0 0.011898,-0.007 0.023825,-0.0114 0.041718,-0.0183 0,0 0,0 0,0 0.1013111,-0.0243 0.089386,0.10135 0.1608987,0.11329 v 0 0 c 0.053629,0.0478 0.035752,0.14915 0.1251533,0.17902 0,0 0,0 0,0 0.095348,0.51844 0.2145369,1.03692 0.1370659,1.57323 v 0 c 0,0.0243 0,0.0478 0,0.0715 v 0 c -0.047682,0.0536 -0.035752,0.10705 -0.00603,0.16684 -0.00603,0.0114 -0.00603,0.0183 0,0.0303 v 0 c -0.041718,0.15487 -0.035752,0.31581 -0.095348,0.46481 v 0 0 0 c -0.011898,0.0114 -0.011898,0.0183 -0.011898,0.0303 -0.047666,0.10136 -0.047666,0.2144 -0.059594,0.32774 0,0 0,0 0,0 -0.077472,0.17879 -0.041718,0.38139 -0.077472,0.56615 -0.059594,0.30988 -0.1311054,0.61978 -0.1966559,0.92964 -0.00603,0.0417 -0.011898,0.0834 -0.011898,0.1312 -0.047682,0.19648 -0.095348,0.39926 -0.1370659,0.60188 -0.017902,0.0834 -0.095348,0.1312 -0.1013111,0.21441 0,0 0,0 0,0 -0.035752,0.0772 -0.065558,0.15488 -0.1013111,0.23825 -0.071508,0.0951 -0.041718,0.20867 -0.059594,0.3099 -0.023827,0.12495 -0.00603,0.2562 -0.00603,0.38141 0,0.0417 0,0.0894 0,0.13121 0,0.17879 0.011898,0.35159 0.1311054,0.4946 v 0 c 0.017902,0.10136 0.077472,0.17856 0.1668643,0.22636 0.011898,0.0114 0.017902,0.0243 0.02979,0.0357 v 0 c 0.047666,0.12495 0.1013111,0.24432 0.1489833,0.36947 0,0.0114 0.00603,0.0183 0.011898,0.0303 0.053631,0.20269 0.053631,0.40526 -0.017902,0.60787 -0.017902,0.0536 -0.017902,0.11927 -0.023825,0.17902 -0.035753,0.0655 -0.083424,0.12495 -0.095348,0.19648 v 0 c -0.035754,0.0478 -0.011898,0.0772 0.029789,0.10136 v 0 c 0.065558,0.0597 0.089398,0.16683 0.202617,0.16109 0.089397,0.0114 0.1787796,0.0183 0.2622113,0.0303 v 0 0 c 0.023827,0 0.041718,0 0.065558,0 v 0 c 0.065558,0 0.1311068,0 0.1966582,0 0.1013111,0.0357 0.196656,0.0536 0.297965,0 v 0 0 0 c 0,0 0,0 0,0 0.089386,-0.0183 0.1489833,-0.0835 0.202617,-0.15489 v 0 c 0.083435,-0.0417 0.1370664,-0.1133 0.2026174,-0.17281 0.0119,-0.0114 0.0179,-0.0243 0.02979,-0.0357 0,-0.0183 0,-0.0303 0,-0.0417 0.006,0.007 0.006,0.0183 0,0.0417 0.02383,-0.0303 0.04172,-0.0655 0.06556,-0.0951 0.119187,-0.13689 0.262211,-0.26228 0.339683,-0.42907 0.125139,-0.11926 0.04172,-0.20842 -0.03575,-0.30398 v 0 c -0.006,-0.0417 -0.02979,-0.0715 -0.06556,-0.10136 -0.03575,-0.0951 -0.101311,-0.16683 -0.202619,-0.19648 -0.280088,-0.20269 -0.4052332,-0.47672 -0.3575604,-0.82236 v 0 c 0.065558,-0.0417 0.00603,-0.0834 0,-0.12495 0.095348,-0.0951 0.053631,-0.23825 0.1311074,-0.33969 0.09535,-0.25041 0.190694,-0.50653 0.292007,-0.75684 v 0 c 0.07151,-0.15488 0.143022,-0.30988 0.208578,-0.45886 v 0 c 0.05363,-0.0951 0.107263,-0.19074 0.160898,-0.28603 0,0 0,0 0,0 0.04172,-0.0772 0.08939,-0.16086 0.131107,-0.23824 v 0 c 0.04172,-0.0655 0.08939,-0.13121 0.131105,-0.19649 0,0 0,0 0,0 0.0179,-0.0478 0.04172,-0.0894 0.05959,-0.13703 0.07151,-0.0478 0.05363,-0.12496 0.06556,-0.19648 v 0 c 0.148984,-0.0303 0.05959,0.12496 0.125154,0.16087 0,0.0715 -0.006,0.14293 0.03575,0.20843 0.03575,0.37547 0,0.7509 0.101311,1.12035 0.131104,0.32776 0,0.65556 0,0.9833 0,0 0,0 0,0 -0.03575,0.0951 -0.05959,0.19074 -0.06556,0.2979 v 0 c -0.0179,0.0243 -0.0119,0.0478 0.006,0.0655 v 0 c 0.0119,0.0776 -0.02979,0.16087 0.03575,0.22636 v 0 c 0.0119,0.007 0.0179,0.0114 0.02979,0.0183 v 0 c 0,0.0715 -0.02979,0.14915 0.02979,0.21464 0.143022,0.24435 0.17282,0.48866 0.03575,0.74494 0,0 0,0 0,0 -0.09535,0.17901 -0.101311,0.38734 -0.196661,0.57209 v 0 c -0.07151,0.0357 -0.07151,0.10704 -0.09535,0.16683 v 0 c -0.04767,0.0478 -0.07151,0.10136 -0.05959,0.16683 -0.0119,0.0114 -0.02383,0.0243 -0.02979,0.0357 v 0 0 c -0.05363,0.0183 -0.08343,0.0478 -0.101311,0.10135 -0.006,0.0114 -0.006,0.0183 0,0.0303 -0.143022,0.14915 -0.125153,0.41117 0.02979,0.4946 v 0 0 c 0.05363,0 0.113224,0 0.16686,0 0.02979,0.0114 0.05959,0.0243 0.09535,0.0303 0.184741,0.12495 0.393316,0.0478 0.589975,0.0655 0.137062,0.0417 0.268169,0.0183 0.405236,0 v 0 c 0.06555,0 0.131104,-0.007 0.196656,-0.007 0,0 0,0 0,0 0,0 0,0 0,0 0.18474,0 0.381396,0.0358 0.53038,-0.13121 0.03575,-0.0655 0.07151,-0.13121 0.107275,-0.19075 0.03575,-0.0357 0.06556,-0.0772 0.05959,-0.13121 0,0 0,0 0,0 0.04172,-0.0597 0.03575,-0.13121 0.03575,-0.20268 0,0 0,0 0,0 0.05363,-0.0772 0.02979,-0.16086 0,-0.23827 0.006,-0.0114 0.006,-0.0183 0,-0.0243 -0.04172,-0.14914 -0.05959,-0.30397 -0.160903,-0.43502 0.006,-0.0478 -0.0179,-0.0834 -0.03575,-0.12495 0,0 0,0 0,0 0,0 0,0 0,0 -0.03575,-0.26228 -0.02383,-0.52438 -0.02383,-0.78662 -0.006,-0.007 -0.0119,-0.007 -0.0119,-0.0114 v 0 c 0,0 0,0 0,0 0.006,0.007 0.0119,0.007 0.0119,0.0114 0.09535,-0.0891 0.05363,-0.20843 0.05363,-0.30987 -0.006,-0.60787 0.143022,-1.19187 0.214537,-1.78781 0.04172,-0.35161 0.101311,-0.69724 0.148983,-1.04885 0.0179,-0.0417 0.02979,-0.0834 0.04768,-0.11927 v 0 c 0.05363,-0.0894 0.101314,-0.17854 0.154942,-0.26806 v 0 0 c 0.0179,-0.0243 0.0179,-0.0536 0.0179,-0.0834 0.04768,-0.13718 0.17878,-0.13121 0.321805,-0.1133 0.0715,0.0114 0.143022,0 0.214536,0 0.006,0.007 0.01194,0.007 0.0179,0.007 0.08343,0.0417 0.172821,0.0183 0.25625,0.0183 0.113227,0 0.20262,0.007 0.154945,0.15488 -0.006,0.0303 0.01194,0.0655 0.04172,0.0835 v 0 c 0.07747,0.15489 0.119183,0.32779 0.232413,0.45889 0.107271,0.0597 -0.0179,0.20867 0.101314,0.2623 v 0 c 0.01194,0.0417 0.0179,0.0894 0.0298,0.13121 v 0 c 0,0.0536 0.006,0.10704 0.006,0.16085 0.04172,0.17903 0.01194,0.37542 0.13111,0.53037 0.05959,0.0417 0.01194,0.12495 0.05959,0.17281 0.05959,0.27415 0.0179,0.54827 0.03575,0.81644 v 0 c -0.05363,0.0834 -0.03575,0.17282 -0.0298,0.26229 v 0 c -0.01194,0.0894 -0.02383,0.17282 -0.0298,0.26231 v 0 c -0.08939,0.14913 -0.250292,0.2562 -0.297968,0.42906 v 0 c -0.125139,0.12496 -0.125139,0.29792 -0.166859,0.45887 v 0 c -0.113227,0.0834 -0.08343,0.17901 -0.0298,0.27416 0.006,0.0114 0.0179,0.0243 0.02383,0.0357 v 0 0 c 0.04768,0.0715 0.13111,0.0597 0.196658,0.0715 v 0 c 0.08939,0.0715 0.196658,0.0536 0.303926,0.0597 0.208575,0.0655 0.417155,0.0243 0.631691,0.0303 0.13111,0 0.256251,-0.0243 0.381397,-0.0536 0.0179,0 0.03575,-0.007 0.05363,-0.0114 0.03575,0.007 0.06556,0.0114 0.09534,-0.0243 v 0 c 0.101314,-0.0243 0.208577,-0.0357 0.297964,-0.10704 v 0 c 0.06556,-0.0114 0.101314,-0.0478 0.125154,-0.10136 v 0 c 0.0179,-0.0243 0.04172,-0.0476 0.05959,-0.0715 v 0 0 c 0.113227,-0.0655 0.0298,-0.16683 0.04768,-0.25621 v 0 c -0.03575,-0.19648 0.06556,-0.40524 -0.04172,-0.6019 -0.05959,-0.0772 -0.006,-0.19074 -0.07747,-0.26807 0,0 0,0 0,0 -0.04766,-0.40526 -0.0715,-0.81046 -0.04172,-1.21573 v 0 c 0.05364,-0.0655 0.0298,-0.15487 0.05959,-0.23246 0.05959,-0.17281 0.137066,-0.3337 0.137066,-0.52441 0,-0.0536 0.03575,-0.0715 0.06556,-0.10704 v 0 c 0.05959,-0.0417 0.0298,-0.0834 0,-0.12496 0,0 0,0 0,0 0.03575,-0.0536 0.07747,-0.10136 0.06556,-0.17282 0.05363,-0.0951 0.006,-0.21439 0.08939,-0.29788 v 0 c 0,0 0,0 0,0 0.08345,-0.0417 0.125153,-0.10705 0.131109,-0.20269 0.08345,-0.0536 0.05363,-0.19648 0.166861,-0.22635 0.04171,0.0536 0.08939,0.10704 0.131095,0.16683 0.02978,0.10705 0.101314,0.18476 0.160907,0.26809 0.01793,0.0417 0.04768,0.0772 0.08939,0.10136 0.09534,0.14294 0.172811,0.29789 0.244333,0.45886 v 0 0 c 0.01194,0.0114 0.01793,0.0243 0.02978,0.0357 0.02978,0.0597 0.01194,0.1369 0.07152,0.19075 v 0 c 0.02382,0.0357 0.04768,0.0715 0.06556,0.10704 v 0 c 0.06556,0.20843 0.137051,0.41118 0.309886,0.56016 0.07746,0.0715 0.101314,0.17902 0.14303,0.26806 v 0 c 0,0.0478 -0.01793,0.0951 0.02383,0.13121 v 0 c 0.04171,0.15488 0.07152,0.30989 0.143029,0.45889 0.131096,0.25621 0.07746,0.53037 0,0.79257 -0.006,0.007 -0.01194,0.0183 -0.006,0.0243 0,0 0,0 0,0 -0.14303,0.14915 -0.256253,0.30987 -0.321805,0.5006 -0.01194,0.0243 -0.02383,0.0478 -0.03575,0.0715 v 0 c 0,0 0,0 0,0 0,0.007 -0.006,0.007 -0.006,0.0114 -0.05959,0.14293 -0.02978,0.2979 -0.08939,0.44102 0.02382,0.0536 0.04766,0.10704 0.06556,0.15488 v 0 0 c 0.113227,0.13121 0.256247,0.0597 0.393316,0.0715 v 0 c 0.04171,0.0114 0.08939,0.0243 0.131095,0.0357 0,0 0,0 0,0 v 0 c 0.04171,0.0478 0.09534,0.0415 0.148982,0.0355 0.24433,-0.0303 0.494623,0 0.744914,-0.0417 0.101314,-0.0114 0.196666,-0.0243 0.297967,-0.0303 v 0 c 0.178787,-0.0183 0.363517,-0.0114 0.494624,-0.1728 v 0 c 0,0 0,0 0,0 0.01194,-0.0114 0.02382,-0.0183 0.03575,-0.0303 v 0 0 c 0.09534,-0.0715 0.09534,-0.16086 0.07152,-0.26806 -0.02978,-0.14915 -0.01194,-0.3099 -0.07152,-0.45295 -0.01194,-0.0114 -0.01793,-0.0243 -0.02978,-0.0357 0,0 0,0 0,0 -0.02382,-0.16087 -0.05959,-0.31584 -0.13708,-0.45888 v 0 c -0.01194,-0.0417 -0.01792,-0.0894 -0.02978,-0.13121 -0.02382,-0.15488 -0.04766,-0.30395 -0.07152,-0.45883 0,0 0,0 0,0 v 0 c -0.05959,-0.0951 0.05959,-0.20867 -0.02978,-0.2979 0.006,-0.0894 0,-0.17282 -0.05363,-0.25044 0,-0.007 -0.006,-0.0114 -0.01194,-0.0183 -0.02978,-0.10135 -0.05959,-0.20268 -0.09534,-0.30397 v 0 c -0.006,-0.0417 0.006,-0.0894 -0.03575,-0.12495 -0.04767,-0.34564 -0.03575,-0.69724 -0.02978,-1.04286 0,-0.0894 0.01793,-0.18476 0.02978,-0.27418 0,0 0,0 0,0 -0.02383,-0.12495 -0.01793,-0.24432 0.03575,-0.35755 0.006,-0.007 0.006,-0.0114 0.006,-0.0183 0.10727,-0.25042 0.250291,-0.48866 0.226447,-0.77472 -0.006,-0.0715 0,-0.14294 -0.03575,-0.20269 0,-0.0417 0,-0.0834 0,-0.12495 -0.01194,-0.16683 0,-0.33372 0.05959,-0.49463 v 0 c -0.006,-0.0243 -0.01793,-0.0417 -0.02382,-0.0655 v 0 c 0.02382,-0.20269 0.006,-0.40524 -0.02978,-0.6019 v 0 c 0.01194,-0.0183 0.04171,-0.0357 0.006,-0.0596 0,0 0,0 0,0 0.006,-0.0303 0.02978,-0.0303 0.05363,-0.0303 v 0 c 0.02978,0.0478 0.06556,0.0894 0.09534,0.13703 0.01793,0.0355 0.01793,0.0834 0.05959,0.10705 0,0 0,0 0.006,-0.007 0,0 0,0 0,0 0,0 0,0 -0.006,0 v 0 c 0.006,0.0417 0.03575,0.0655 0.06556,0.0951 v 0 c 0.01194,0.0715 0.01793,0.14915 0.101313,0.17282 v 0 c -0.006,0.007 0,0.0183 0.006,0.0183 0.006,0.0417 0.02383,0.0772 0.05363,0.10704 v 0 c 0.04171,0.0655 0.07152,0.14294 0.143029,0.18477 0.01194,0.0243 0.02383,0.0478 0.03575,0.0715 v 0 c -0.006,0.0536 0.02978,0.0951 0.06556,0.13121 v 0 c 0.04171,0.0536 0.08345,0.11329 0.131096,0.16683 0.02383,0.0715 0.07152,0.12495 0.137051,0.16109 v 0 0 c 0.01194,0.0114 0.01793,0.0243 0.02978,0.0357 0,0.0951 0.05959,0.14914 0.125153,0.20269 0.14303,0.17901 0.26817,0.3814 0.500584,0.46484 0.172835,0.10704 0.303919,0.26228 0.458868,0.3933 0,0 0,0 0,0 0.07746,0.13718 0.178763,0.23827 0.345641,0.23827 0.006,0 0.01793,0 0.02982,0 0.01194,0.007 0.01793,0.0183 0.02982,0.0243 v 0 0 c 0.02374,0.0536 0.06553,0.0772 0.125154,0.0772 v 0 c 0.02374,0.0417 0.05959,0.0894 0.113226,0.0597 0.05959,-0.0303 0.01793,-0.0772 0.006,-0.12495 -0.02982,-0.0894 -0.05363,-0.18476 -0.08345,-0.27418 -0.02982,-0.0536 -0.06555,-0.11301 -0.09531,-0.16684 v 0 0 0 0 0 c -0.01194,-0.0655 0,-0.14294 -0.07152,-0.18476 -0.01793,-0.0183 -0.03575,-0.0303 -0.05363,-0.0478 0,0 0,0 0,0 -0.172813,-0.11926 -0.375442,-0.13718 -0.566139,-0.19648 0,0 0,0 0,0 v 0 0 0 0 c 0,0 0,0 0,0 -0.113226,-0.0835 -0.238377,-0.15488 -0.291992,-0.29789 -0.05959,-0.0772 -0.119197,-0.14915 -0.178786,-0.22637 v 0 c 0,0 0,0 0,0 -0.07152,-0.11927 -0.10727,-0.2562 -0.196665,-0.36354 -0.006,-0.007 -0.01793,-0.007 -0.02383,-0.007 v 0 c -0.02383,-0.0303 -0.04768,-0.0655 -0.07152,-0.0951 v 0 c -0.113226,-0.26231 -0.220495,-0.52441 -0.333724,-0.79258 -0.08345,-0.11329 -0.119183,-0.2504 -0.160909,-0.38137 -0.02382,-0.0776 -0.04768,-0.15489 -0.101314,-0.21441 v 0 c -0.04171,-0.0478 -0.03575,-0.12496 -0.101313,-0.16086 -0.02383,-0.0951 -0.08345,-0.17281 -0.137052,-0.25011 -0.09534,-0.20867 -0.250295,-0.38143 -0.327766,-0.60193 -0.01792,-0.10704 -0.0894,-0.17282 -0.160908,-0.23824 v 0 c 0,-0.0478 -0.02382,-0.0715 -0.05959,-0.0951 0,0 0,0 0,0 -0.07746,-0.13718 -0.190691,-0.2504 -0.29797,-0.36945 0,0 0,0 0,0 -0.07152,-0.12495 -0.172811,-0.22061 -0.297967,-0.29212 -0.02978,-0.0894 -0.101314,-0.14294 -0.172811,-0.19073 -0.01194,-0.0114 -0.01793,-0.0243 -0.02978,-0.0357 -0.01194,-0.0114 -0.02383,-0.0183 -0.03575,-0.0303 v 0 0 c -0.101314,-0.14914 -0.268173,-0.24435 -0.393316,-0.36948 v 0 c -0.05363,-0.0655 -0.107271,-0.13718 -0.196665,-0.16086 0,-0.0114 -0.006,-0.0183 -0.01194,-0.0243 v 0 c -0.01793,-0.0478 -0.05363,-0.0772 -0.09534,-0.10136 v 0 c -0.02978,-0.0478 -0.06556,-0.0894 -0.125154,-0.10135 v 0 c -0.02382,-0.0183 -0.04768,-0.0417 -0.07152,-0.0597 v 0 0 c -0.125153,-0.16683 -0.28605,-0.28603 -0.458871,-0.39925 -0.04171,-0.0478 -0.07746,-0.10136 -0.137051,-0.12496 v 0 0 c -0.02978,-0.0478 -0.08344,-0.0536 -0.125154,-0.0772 -0.01194,-0.007 -0.01793,-0.0183 -0.02978,-0.0243 0,0 0,0 0,0 -0.07746,-0.0655 -0.16686,-0.11927 -0.268173,-0.13121 -0.02382,-0.0243 -0.04768,-0.0417 -0.07152,-0.0655 v 0 c -0.006,-0.0114 -0.01793,-0.0243 -0.02382,-0.0358 0,0 0,0 0,0 -0.101314,-0.0772 -0.20857,-0.13121 -0.327766,-0.16684 -0.0179,0 -0.03575,0 -0.05959,-0.007 0,0 0,0 0,0 -0.0715,-0.0417 -0.154945,-0.0655 -0.238374,-0.0655 -0.04766,-0.0183 -0.08939,-0.0417 -0.137066,-0.0597 0,0 0,0 0,0 0,0 0,0 0,0 -0.214536,-0.0772 -0.440991,-0.0536 -0.661485,-0.0772 -0.107284,-0.0114 -0.250292,-0.0417 -0.363519,0.0417 -0.17282,-0.0183 -0.339683,0.0114 -0.494624,0.10135 -0.125153,0.0417 -0.256254,0.0597 -0.369481,0.12496 0,0 0,0 0,0 -0.113226,0.0358 -0.137066,-0.0114 -0.131109,-0.11927 0.006,-0.14913 0.04172,-0.30398 -0.05959,-0.44096 -0.02382,-0.0597 -0.04172,-0.1133 -0.06555,-0.17281 v 0 c 0,-0.0243 -0.006,-0.0478 -0.02383,-0.0597 -0.0715,-0.23248 -0.184742,-0.44098 -0.333723,-0.63167 v 0 c -0.0179,-0.0655 -0.04172,-0.11927 -0.101314,-0.16086 -0.160902,-0.10136 -0.226454,-0.30399 -0.399275,-0.38736 v 0 c -0.01194,-0.007 -0.0179,-0.007 -0.0298,-0.007 v 0 c -0.04768,-0.0417 -0.09534,-0.0655 -0.160902,-0.0655 0,0 0,0 0,0 -0.125139,-0.0536 -0.250293,-0.0183 -0.369478,0 -0.363521,0.0597 -0.72704,0.0303 -1.090559,0.007 -0.268169,-0.0357 -0.53038,-0.0536 -0.792592,0.0303 v 0 c -0.06556,0 -0.131105,0.0114 -0.178779,0.0655 -0.07747,0.0834 -0.190695,0.0655 -0.286049,0.10136 -0.02979,0 -0.06556,0 -0.09535,0 v 0 c -0.04172,-0.0114 -0.08343,-0.0243 -0.131105,-0.0357 v 0 c -0.137066,-0.0715 -0.280088,-0.0715 -0.4290721,-0.0655 -0.3158437,-0.10733 -0.6376484,-0.0655 -0.9534949,-0.0478 -0.1072631,0.007 -0.2026148,-0.0303 -0.3039258,-0.0183 -0.047682,-0.0303 -0.1013111,-0.0357 -0.1549421,-0.0357 0,0 0,0 0,0 -0.1013111,-0.0478 -0.202617,-0.0417 -0.3039258,0.007 -0.011898,0.007 -0.023827,0.0114 -0.02979,0.0183 0,0 0,0 0,0 -0.1847406,-0.0772 -0.2383736,0.0894 -0.3337236,0.17902 -0.083435,0.0715 -0.1966583,0.10136 -0.2681721,0.19649 0,0 0,0 0,0 -0.1072631,0.0303 -0.2145369,0.0597 -0.3218035,0.0894 -0.011898,0 -0.023827,0.007 -0.041718,0.0114 -0.1609032,0.1133 -0.3098868,0.0536 -0.4588701,-0.0303 v 0 c -0.029789,-0.0243 -0.059594,-0.0478 -0.089386,-0.0655 v 0 c -0.083436,-0.0478 -0.059595,-0.1728 -0.1430228,-0.22635 v 0 0 c -0.029789,-0.0655 -0.065558,-0.13121 -0.095348,-0.19647 -0.029789,-0.1133 -0.059594,-0.22061 -0.089398,-0.33376 v 0 c -0.00603,-0.20842 -0.00603,-0.41712 -0.011898,-0.62572 0,-0.0114 0.00603,-0.0183 0.00603,-0.0303 v 0 c 0.023825,-0.0243 0.011898,-0.0478 -0.00603,-0.0655 0,-0.0417 0.00603,-0.0835 0.00603,-0.12496 v 0 c 0.053631,-0.0715 0.017901,-0.15489 0.035752,-0.23246 0.035752,-0.0358 0.071508,-0.0835 0.035752,-0.12496 -0.059594,-0.0715 0.00603,-0.11927 0.017902,-0.17281 0,-0.0243 0,-0.0417 0,-0.0655 0,-0.0417 0.00603,-0.0891 0.00603,-0.13121 v 0 c 0,-0.0536 -0.011898,-0.1133 0.029789,-0.16086 0.053631,-0.0303 0.083435,-0.0772 0.059594,-0.13718 -0.023827,-0.0536 0,-0.0951 0.041718,-0.13121 v 0 0 c 0.00603,-0.007 0.011898,-0.0183 0.011898,-0.0243 0.059594,-0.13718 0.071508,-0.28603 0.053631,-0.43506 v 0 c 0,0 0,0 0,0 0,0 0,0 0,0 -0.00603,-0.0536 0.077472,-0.10705 0,-0.16684 -0.011898,-0.0114 -0.023827,-0.0243 -0.029789,-0.0357 0.047666,-0.11927 0.011898,-0.23826 0,-0.36354 v 0 0 c -0.011898,-0.0114 -0.023827,-0.0243 -0.02979,-0.0357 0,-0.0536 0,-0.10704 0,-0.16683 0.023827,-0.0243 0.02979,-0.0417 0.00603,-0.0715 -0.023827,-0.0303 -0.047666,-0.0655 -0.071508,-0.0951 0.017902,-0.0357 0.023827,-0.0655 0,-0.10136 -0.035752,-0.14294 -0.023825,-0.30988 -0.148981,-0.42311 -0.017902,-0.0596 -0.035752,-0.12496 -0.083435,-0.1728 v 0 c -0.023827,-0.0536 -0.083435,-0.0715 -0.1251533,-0.10136 v 0 c -0.02979,-0.10704 -0.1311054,-0.13704 -0.2085759,-0.19075 0,0 0,0 0,0 0,0 0,0 0,0 -0.065558,-0.0894 -0.1549421,-0.1312 -0.2622083,-0.1312 -0.1132237,-0.10136 -0.2502926,-0.1369 -0.3933165,-0.13121 -0.1311068,-0.0114 -0.2622113,-0.0114 -0.3873584,-0.0536 -0.1311053,-0.0417 -0.2324127,0.0183 -0.3158439,0.11927 -0.041718,0.0536 -0.089384,0.10136 -0.017902,0.16685 v 0 c 0.011898,0.0243 0.017902,0.0478 0.029789,0.0715 0.011898,0.0183 0.023827,0.0417 0.035753,0.0597 -0.059594,0.40524 0.1191871,0.50654 0.5303811,0.33375 v 0 c 0.1013111,-0.0114 0.1728185,0.0243 0.2204979,0.10704 0,0.007 0.00603,0.0114 0.00603,0.0183 0,0 0,0 0,0 v 0 0 c 0.071508,0.0655 0.041718,0.16683 0.095348,0.23827 v 0 0 c 0.011898,0.0243 0.023825,0.0417 0.035752,0.0655 v 0 0 c 0,0.0243 0,0.0417 0,0.0655 v 0 c -0.017902,0.0478 -0.011898,0.0951 0.02979,0.1369 0.011898,0.0243 0.023825,0.0417 0.029789,0.0655 v 0 c 0,0.0183 0,0.0417 0,0.0596 0,0 0,0 0,0 -0.023827,0.0183 -0.035752,0.0417 -0.029789,0.0655 v 0 c 0,0.0114 0,0.0243 0.00603,0.0357 0,0 0,0 0,0 0,0 0,0 0,0 0,0.0536 0,0.10704 0,0.16683 0.023827,0.0894 0.02979,0.17281 0,0.26229 v 0 c 0,0.0597 -0.053631,0.10705 -0.035753,0.16685 -0.041718,0.0478 -0.035752,0.10136 -0.035752,0.15488 -0.065558,0.0894 -0.1370659,0.17902 -0.1311053,0.30398 -0.035754,0.0357 -0.089384,0.0655 -0.1013111,0.12496 0,0 0,0.007 0,0.007 -0.017902,0.0536 -0.035753,0.11301 -0.053631,0.16684 v 0 c -0.02979,0.0355 -0.04767,0.0772 -0.035753,0.12496 0,0 0,0 0,0 -0.023827,0.0478 -0.065558,0.0772 -0.065558,0.13718 v 0 c -0.023825,0.0655 -0.041718,0.12495 -0.065558,0.19074 -0.047682,0.0715 -0.065558,0.14914 -0.065558,0.23247 0,0 0,0 0,0 -0.035753,0.13121 -0.065558,0.26809 -0.059594,0.40521 v 0 0 c 0,0.0303 0,0.0655 0,0.0951 0,0.14294 0,0.27995 0,0.42311 0,0 0,0 0,0 -0.023827,0.0417 -0.059594,0.0835 -0.035753,0.14294 0,0.0243 0,0.0417 0,0.0655 v 0 c -0.017902,0.20866 -0.029789,0.41716 0.095348,0.6019 0,0 0,0 0,0 v 0 0 0 c 0,0.0303 0.00603,0.0596 0.00603,0.0951 0,0.0596 0.00603,0.11302 0.035752,0.16684 0.02979,0.0894 0.017902,0.19647 0.125142,0.24432 -0.011898,0.0894 0.047682,0.14915 0.089397,0.22061 0,0.007 0.00603,0.0183 0,0.0243 -0.077472,0.18476 0.053631,0.30395 0.1430224,0.43501 0,0 0,0 0,0 0.065558,0.21441 0.2324127,0.35754 0.3635192,0.53038 0.017902,0.10135 -0.035752,0.13689 -0.1311068,0.16684 -0.2502924,0.0835 -0.5065418,0.10705 -0.7687535,0.0951 -0.035753,0 -0.065558,0 -0.089384,0.0303 v 0 0 c -0.3813963,0.0303 -0.7508754,-0.0417 -1.1203542,-0.1312 0,0 0,0.007 0,0.007 0,0 0,0 0,0 v -0.007 c -0.047682,-0.0536 -0.1072759,-0.0243 -0.1668596,-0.0357 v 0 c -0.1251391,-0.0834 -0.2562505,-0.14914 -0.3933151,-0.19648 -0.1430269,-0.0834 -0.2800914,-0.17902 -0.4290733,-0.25621 -0.059594,-0.0303 -0.1191871,0 -0.1311054,0.0772 -0.029789,0.0243 -0.035753,0.0772 -0.00603,0.11927 z m 6.5552676,6.28114 v 0 c 0,0 0,0 0,0 0,0 -0.00603,-0.007 0,0 -0.00603,-0.007 0,-0.007 0,0 z"
       id="path7173"
       style="stroke-width:0.05959332" />
    <g
       transform="matrix(0.02516858,0,0,0.02085418,-0.23602027,273.2401)"
       id="g9450">
      <linearGradient
         id="SVGID_1_"
         gradientUnits="userSpaceOnUse"
         x1="110.147"
         y1="851.46082"
         x2="175.0506"
         y2="851.46082"
         gradientTransform="matrix(0.6794,-0.7338,0.7338,0.6794,-405.8327,434.1327)">
        <stop
           offset="0"
           style="stop-color:#54B948"
           id="stop9016" />
        <stop
           offset="0.3764"
           style="stop-color:#00A651"
           id="stop9018" />
        <stop
           offset="1"
           style="stop-color:#005826"
           id="stop9020" />
      </linearGradient>
      <path
         inkscape:connector-curvature="0"
         d="m 360.3,904.9 c 0,0 -32.1,15.8 -88.9,6.1 0,0 32.1,-1.6 49.5,-5.3 20.6,-4.3 37.2,-1.4 39.4,-0.8 z"
         style="fill:#000000"
         id="path9023" />
      <linearGradient
         id="SVGID_2_"
         gradientUnits="userSpaceOnUse"
         x1="88.230301"
         y1="812.1275"
         x2="174.897"
         y2="812.1275"
         gradientTransform="matrix(0.6794,-0.7338,0.7338,0.6794,-405.8327,434.1327)">
        <stop
           offset="0"
           style="stop-color:#54B948"
           id="stop9025" />
        <stop
           offset="0.3764"
           style="stop-color:#00A651"
           id="stop9027" />
        <stop
           offset="1"
           style="stop-color:#005826"
           id="stop9029" />
      </linearGradient>
      <path
         inkscape:connector-curvature="0"
         d="m 346.9,892.8 c 0,0 -71.4,19.3 -134.9,-6.8 0,0 34.9,12.8 71.5,7.2 36.6,-5.7 56.1,-3.5 63.4,-0.4 z"
         style="fill:#000000"
         id="path9032" />
      <linearGradient
         id="SVGID_3_"
         gradientUnits="userSpaceOnUse"
         x1="104.2303"
         y1="782.16913"
         x2="174.897"
         y2="782.16913"
         gradientTransform="matrix(0.6794,-0.7338,0.7338,0.6794,-405.8327,434.1327)">
        <stop
           offset="0"
           style="stop-color:#54B948"
           id="stop9034" />
        <stop
           offset="0.3764"
           style="stop-color:#00A651"
           id="stop9036" />
        <stop
           offset="1"
           style="stop-color:#005826"
           id="stop9038" />
      </linearGradient>
      <path
         inkscape:connector-curvature="0"
         d="m 334.7,881.5 c 0,0 -92.6,9.2 -143.6,-36.7 0,0 30.6,23.4 81.7,25.6 51,2.3 61.9,11.1 61.9,11.1 z"
         style="fill:#000000"
         id="path9041" />
      <linearGradient
         id="SVGID_4_"
         gradientUnits="userSpaceOnUse"
         x1="112.2303"
         y1="764.5025"
         x2="176.5636"
         y2="764.5025"
         gradientTransform="matrix(0.6794,-0.7338,0.7338,0.6794,-405.8327,434.1327)">
        <stop
           offset="0"
           style="stop-color:#54B948"
           id="stop9043" />
        <stop
           offset="0.3764"
           style="stop-color:#00A651"
           id="stop9045" />
        <stop
           offset="1"
           style="stop-color:#005826"
           id="stop9047" />
      </linearGradient>
      <path
         inkscape:connector-curvature="0"
         d="m 317.8,863.5 c 0,0 -76,3.6 -129.1,-31.8 0,0 46,16.8 84.4,20.5 24.5,2.3 44.7,11.3 44.7,11.3 z"
         style="fill:#000000"
         id="path9050" />
      <linearGradient
         id="SVGID_5_"
         gradientUnits="userSpaceOnUse"
         x1="118.5636"
         y1="734.66913"
         x2="179.897"
         y2="734.66913"
         gradientTransform="matrix(0.6794,-0.7338,0.7338,0.6794,-405.8327,434.1327)">
        <stop
           offset="0"
           style="stop-color:#54B948"
           id="stop9052" />
        <stop
           offset="0.3764"
           style="stop-color:#00A651"
           id="stop9054" />
        <stop
           offset="1"
           style="stop-color:#005826"
           id="stop9056" />
      </linearGradient>
      <path
         inkscape:connector-curvature="0"
         d="m 161.9,798.3 c 0,0 59,48.7 145.4,51 0,0 -28.7,-15.3 -68.5,-21.7 -39.8,-6.3 -76.9,-29.3 -76.9,-29.3 z"
         style="fill:#000000"
         id="path9059" />
      <linearGradient
         id="SVGID_6_"
         gradientUnits="userSpaceOnUse"
         x1="126.5636"
         y1="714.91913"
         x2="182.5636"
         y2="714.91913"
         gradientTransform="matrix(0.6794,-0.7338,0.7338,0.6794,-405.8327,434.1327)">
        <stop
           offset="0"
           style="stop-color:#54B948"
           id="stop9061" />
        <stop
           offset="0.3764"
           style="stop-color:#00A651"
           id="stop9063" />
        <stop
           offset="1"
           style="stop-color:#005826"
           id="stop9065" />
      </linearGradient>
      <path
         inkscape:connector-curvature="0"
         d="m 155.4,781.3 c 0,0 47.9,43.9 136.7,50.3 0,0 -26.2,-15.2 -52.3,-19.3 -26.1,-4.2 -52,-9.6 -84.4,-31 z"
         style="fill:#000000"
         id="path9068" />
      <linearGradient
         id="SVGID_7_"
         gradientUnits="userSpaceOnUse"
         x1="137.2303"
         y1="693.33582"
         x2="186.2303"
         y2="693.33582"
         gradientTransform="matrix(0.6794,-0.7338,0.7338,0.6794,-405.8327,434.1327)">
        <stop
           offset="0"
           style="stop-color:#54B948"
           id="stop9070" />
        <stop
           offset="0.3764"
           style="stop-color:#00A651"
           id="stop9072" />
        <stop
           offset="1"
           style="stop-color:#005826"
           id="stop9074" />
      </linearGradient>
      <path
         inkscape:connector-curvature="0"
         d="m 149.2,761 c 0,0 65.8,55.5 127.2,51 0,0 -22,-12.4 -57.7,-20.1 C 183,784.2 149.2,761 149.2,761 Z"
         style="fill:#000000"
         id="path9077" />
      <linearGradient
         id="SVGID_8_"
         gradientUnits="userSpaceOnUse"
         x1="144.397"
         y1="672.5025"
         x2="189.897"
         y2="672.5025"
         gradientTransform="matrix(0.6794,-0.7338,0.7338,0.6794,-405.8327,434.1327)">
        <stop
           offset="0"
           style="stop-color:#54B948"
           id="stop9079" />
        <stop
           offset="0.3764"
           style="stop-color:#00A651"
           id="stop9081" />
        <stop
           offset="1"
           style="stop-color:#005826"
           id="stop9083" />
      </linearGradient>
      <path
         inkscape:connector-curvature="0"
         d="m 140.1,742.9 c 0,0 60.5,44 122.1,51.1 0,0 -17.5,-13.5 -52.5,-23.2 -35,-9.7 -58.8,-21.4 -69.6,-27.9 z"
         style="fill:#000000"
         id="path9086" />
      <linearGradient
         id="SVGID_9_"
         gradientUnits="userSpaceOnUse"
         x1="152.8951"
         y1="638.5025"
         x2="195.897"
         y2="638.5025"
         gradientTransform="matrix(0.6794,-0.7338,0.7338,0.6794,-405.8327,434.1327)">
        <stop
           offset="0"
           style="stop-color:#54B948"
           id="stop9088" />
        <stop
           offset="0.3764"
           style="stop-color:#00A651"
           id="stop9090" />
        <stop
           offset="1"
           style="stop-color:#005826"
           id="stop9092" />
      </linearGradient>
      <path
         inkscape:connector-curvature="0"
         d="m 116.8,709.7 c 0,0 58.5,55.5 128.8,60.6 0,0 -13.9,-10.6 -37.9,-16.9 -24.1,-6.4 -60.1,-22 -90.9,-43.7 z"
         style="fill:#000000"
         id="path9095" />
      <linearGradient
         id="SVGID_10_"
         gradientUnits="userSpaceOnUse"
         x1="161.6795"
         y1="609.16913"
         x2="202.2303"
         y2="609.16913"
         gradientTransform="matrix(0.6794,-0.7338,0.7338,0.6794,-405.8327,434.1327)">
        <stop
           offset="0"
           style="stop-color:#54B948"
           id="stop9097" />
        <stop
           offset="0.3764"
           style="stop-color:#00A651"
           id="stop9099" />
        <stop
           offset="1"
           style="stop-color:#005826"
           id="stop9101" />
      </linearGradient>
      <path
         inkscape:connector-curvature="0"
         d="m 93.4,676 c 0,0 70,69.1 142.7,77 0,0 -21.6,-15 -39.9,-20.2 C 177.9,727.6 134.7,709.9 93.4,676 Z"
         style="fill:#000000"
         id="path9104" />
      <linearGradient
         id="SVGID_11_"
         gradientUnits="userSpaceOnUse"
         x1="180.6864"
         y1="591.0025"
         x2="207.3221"
         y2="591.0025"
         gradientTransform="matrix(0.6794,-0.7338,0.7338,0.6794,-405.8327,434.1327)">
        <stop
           offset="0"
           style="stop-color:#54B948"
           id="stop9106" />
        <stop
           offset="0.3764"
           style="stop-color:#00A651"
           id="stop9108" />
        <stop
           offset="1"
           style="stop-color:#005826"
           id="stop9110" />
      </linearGradient>
      <path
         inkscape:connector-curvature="0"
         d="m 96.1,645.1 c 0,0 42.3,68.7 130.5,92.6 0,0 -1.2,-5.6 -38.4,-23.8 C 151,695.7 129.4,682.3 96.1,645.1 Z"
         style="fill:#000000"
         id="path9113" />
      <linearGradient
         id="SVGID_12_"
         gradientUnits="userSpaceOnUse"
         x1="195.6622"
         y1="587.33582"
         x2="213.1273"
         y2="587.33582"
         gradientTransform="matrix(0.6794,-0.7338,0.7338,0.6794,-405.8327,434.1327)">
        <stop
           offset="0"
           style="stop-color:#54B948"
           id="stop9115" />
        <stop
           offset="0.3764"
           style="stop-color:#00A651"
           id="stop9117" />
        <stop
           offset="1"
           style="stop-color:#005826"
           id="stop9119" />
      </linearGradient>
      <path
         inkscape:connector-curvature="0"
         d="m 109.5,644.2 c 0,0 69.4,69.7 108.9,78.1 0,0 -12,-15 -41.7,-31.5 C 147,674.4 139,669.2 109.5,644.2 Z"
         style="fill:#000000"
         id="path9122" />
      <linearGradient
         id="SVGID_13_"
         gradientUnits="userSpaceOnUse"
         x1="208.26871"
         y1="554.5423"
         x2="217.82809"
         y2="554.5423"
         gradientTransform="matrix(0.6794,-0.7338,0.7338,0.6794,-405.8327,434.1327)">
        <stop
           offset="0"
           style="stop-color:#54B948"
           id="stop9124" />
        <stop
           offset="0.3764"
           style="stop-color:#00A651"
           id="stop9126" />
        <stop
           offset="1"
           style="stop-color:#005826"
           id="stop9128" />
      </linearGradient>
      <path
         inkscape:connector-curvature="0"
         d="m 87.6,599.9 c 0,0 76.3,90.3 120.1,105.5 0,0 -28.3,-27 -53.8,-44.2 -25.6,-17.1 -66.3,-61.3 -66.3,-61.3 z"
         style="fill:#000000"
         id="path9131" />
      <linearGradient
         id="SVGID_14_"
         gradientUnits="userSpaceOnUse"
         x1="218.5032"
         y1="544.18707"
         x2="226.5584"
         y2="544.18707"
         gradientTransform="matrix(0.6794,-0.7338,0.7338,0.6794,-405.8327,434.1327)">
        <stop
           offset="0"
           style="stop-color:#54B948"
           id="stop9133" />
        <stop
           offset="0.3764"
           style="stop-color:#00A651"
           id="stop9135" />
        <stop
           offset="1"
           style="stop-color:#005826"
           id="stop9137" />
      </linearGradient>
      <path
         inkscape:connector-curvature="0"
         d="m 90.4,585.8 c 0,0 64.7,82.3 112.8,104.9 0,0 -10.9,-12.8 -35.5,-33.4 -24.6,-20.6 -52.2,-44.2 -77.3,-71.5 z"
         style="fill:#000000"
         id="path9140" />
      <linearGradient
         id="SVGID_15_"
         gradientUnits="userSpaceOnUse"
         x1="232.1745"
         y1="528.58728"
         x2="247.5636"
         y2="528.58728"
         gradientTransform="matrix(0.6794,-0.7338,0.7338,0.6794,-405.8327,434.1327)">
        <stop
           offset="0"
           style="stop-color:#54B948"
           id="stop9142" />
        <stop
           offset="0.3764"
           style="stop-color:#00A651"
           id="stop9144" />
        <stop
           offset="1"
           style="stop-color:#005826"
           id="stop9146" />
      </linearGradient>
      <path
         inkscape:connector-curvature="0"
         d="m 97.4,562.7 c 0,0 30.5,58.3 96.4,107.5 0,0 -14.4,-18.5 -32.7,-38.1 -18.3,-19.6 -41.2,-32.7 -63.7,-69.4 z"
         style="fill:#000000"
         id="path9149" />
      <path
         inkscape:connector-curvature="0"
         d="m 360.3,904.9 c 0,0 -29.4,15.8 -88.6,6.2 0,0 34.1,1.6 54.8,-2.2 13.4,-2.4 28.3,-3.2 33.8,-4 z"
         style="fill:#000000"
         id="path9151" />
      <path
         inkscape:connector-curvature="0"
         d="m 347.2,892.9 c 0,0 -71.4,19.3 -134.9,-6.8 0,0 25.1,11.7 76.5,9.9 29.6,-1 42.9,-2 58.4,-3.1 z"
         style="fill:#000000"
         id="path9153" />
      <path
         inkscape:connector-curvature="0"
         d="m 335.1,881.6 c 0,0 -92.9,9.1 -144,-36.8 0,0 30.8,24.1 81.6,29.5 40.2,4.2 62.4,7.3 62.4,7.3 z"
         style="fill:#000000"
         id="path9155" />
      <path
         inkscape:connector-curvature="0"
         d="m 318.1,863.6 c 0,0 -76.4,3.5 -129.4,-31.9 0,0 33.4,17.4 84.1,24.7 19.3,2.8 45.3,7.2 45.3,7.2 z"
         style="fill:#000000"
         id="path9157" />
      <path
         inkscape:connector-curvature="0"
         d="m 161.9,798.3 c 0,0 59.3,48.8 145.7,51.1 0,0 -34,-8 -66.6,-16.3 -39,-9.9 -79.1,-34.8 -79.1,-34.8 z"
         style="fill:#000000"
         id="path9159" />
      <path
         inkscape:connector-curvature="0"
         d="m 155.4,781.3 c 0,0 47.9,43.9 136.7,50.3 0,0 -26.8,-9.9 -52.9,-14 -26.1,-4.1 -51.4,-14.9 -83.8,-36.3 z"
         style="fill:#000000"
         id="path9161" />
      <path
         inkscape:connector-curvature="0"
         d="m 149.5,761.1 c 0,0 65.8,55.5 127.2,51 0,0 -15.9,-3.6 -49.4,-12.1 -44.8,-11.4 -77.8,-38.9 -77.8,-38.9 z"
         style="fill:#000000"
         id="path9163" />
      <path
         inkscape:connector-curvature="0"
         d="m 140.5,743 c 0,0 60.5,44 122.1,51.1 0,0 -22.7,-8.3 -53.6,-18.6 -34.5,-11.6 -57.8,-26 -68.5,-32.5 z"
         style="fill:#000000"
         id="path9165" />
      <path
         inkscape:connector-curvature="0"
         d="m 117.1,709.8 c 0,0 58.5,55.5 128.8,60.6 0,0 -15.8,-6.5 -39.9,-12.7 -33.4,-8.4 -58.1,-26.2 -88.9,-47.9 z"
         style="fill:#000000"
         id="path9167" />
      <path
         inkscape:connector-curvature="0"
         d="m 93.8,676.1 c 0,0 70,69.1 142.7,77 0,0 -23.9,-10 -42.2,-15.2 C 175.9,732.7 135.1,710 93.8,676.1 Z"
         style="fill:#000000"
         id="path9169" />
      <path
         inkscape:connector-curvature="0"
         d="m 96.1,645.1 c 0,0 42.6,68.8 130.8,92.7 0,0 -3.6,-1.9 -40.9,-20.1 -37.3,-18.2 -63.5,-38.8 -89.9,-72.6 z"
         style="fill:#000000"
         id="path9171" />
      <path
         inkscape:connector-curvature="0"
         d="m 109.5,644.2 c 0,0 69.4,69.7 108.9,78.1 0,0 -9.6,-7.1 -36.9,-22.9 -30.4,-17.6 -42.5,-30.2 -72,-55.2 z"
         style="fill:#000000"
         id="path9173" />
      <path
         inkscape:connector-curvature="0"
         d="m 86.7,598.8 c 0,0 76.3,90.3 120.1,105.5 0,0 -20.7,-14.3 -49.2,-36.7 -24.2,-18.9 -70.9,-68.8 -70.9,-68.8 z"
         style="fill:#000000"
         id="path9175" />
      <path
         inkscape:connector-curvature="0"
         d="m 90.4,585.8 c 0,0 64.7,82.3 112.8,104.9 0,0 -12.9,-9.9 -37.5,-30.4 -24.6,-20.5 -50.2,-47.2 -75.3,-74.5 z"
         style="fill:#000000"
         id="path9177" />
      <path
         inkscape:connector-curvature="0"
         d="m 97.4,562.7 c 0,0 30.3,58 96.2,107.2 0,0 -18.4,-15.8 -36.6,-35.4 -18.2,-19.6 -37.1,-35.1 -59.6,-71.8 z"
         style="fill:#000000"
         id="path9179" />
      <g
         id="g9192">
        <linearGradient
           id="SVGID_16_"
           gradientUnits="userSpaceOnUse"
           x1="249.2355"
           y1="504.97891"
           x2="267.897"
           y2="504.97891"
           gradientTransform="matrix(0.6794,-0.7338,0.7338,0.6794,-405.8327,434.1327)">
          <stop
             offset="0"
             style="stop-color:#54B948"
             id="stop9181" />
          <stop
             offset="0.3764"
             style="stop-color:#00A651"
             id="stop9183" />
          <stop
             offset="1"
             style="stop-color:#005826"
             id="stop9185" />
        </linearGradient>
        <path
           inkscape:connector-curvature="0"
           d="m 100.5,537.9 c 0,0 41.6,69.2 80.1,98.8 0,0 -15.9,-24 -29.7,-39.5 -13.8,-15.5 -35.4,-36.3 -50.4,-59.3 z"
           style="fill:#000000"
           id="path9188" />
        <path
           inkscape:connector-curvature="0"
           d="m 100.5,537.9 c 0,0 41.6,69.2 80.1,98.8 0,0 -18.7,-18.2 -32.7,-36.1 -12.7,-16.3 -32.4,-39.7 -47.4,-62.7 z"
           style="fill:#000000"
           id="path9190" />
      </g>
      <g
         id="g9205">
        <linearGradient
           id="SVGID_17_"
           gradientUnits="userSpaceOnUse"
           x1="261.92249"
           y1="491.1781"
           x2="293.5636"
           y2="491.1781"
           gradientTransform="matrix(0.6794,-0.7338,0.7338,0.6794,-405.8327,434.1327)">
          <stop
             offset="0"
             style="stop-color:#54B948"
             id="stop9194" />
          <stop
             offset="0.3764"
             style="stop-color:#00A651"
             id="stop9196" />
          <stop
             offset="1"
             style="stop-color:#005826"
             id="stop9198" />
        </linearGradient>
        <path
           inkscape:connector-curvature="0"
           d="m 114.3,515.6 c 0,0 20.4,61.9 58,96.8 0,0 -3.4,-7.2 -14.7,-24.9 -11.3,-17.7 -30.2,-37 -43.3,-71.9 z"
           style="fill:#000000"
           id="path9201" />
        <path
           inkscape:connector-curvature="0"
           d="m 114.3,515.6 c 0,0 20.4,61.9 58,96.8 0,0 -8.3,-8.4 -19.6,-26.1 -11.3,-17.7 -25.3,-35.8 -38.4,-70.7 z"
           style="fill:#000000"
           id="path9203" />
      </g>
      <g
         id="g9218">
        <linearGradient
           id="SVGID_18_"
           gradientUnits="userSpaceOnUse"
           x1="-597.16931"
           y1="94.3386"
           x2="-578.50781"
           y2="94.3386"
           gradientTransform="matrix(-0.9975,-0.07095607,-0.07095607,0.9975,-404.5641,434.8991)">
          <stop
             offset="0"
             style="stop-color:#54B948"
             id="stop9207" />
          <stop
             offset="0.3764"
             style="stop-color:#00A651"
             id="stop9209" />
          <stop
             offset="1"
             style="stop-color:#005826"
             id="stop9211" />
        </linearGradient>
        <path
           inkscape:connector-curvature="0"
           d="m 170.3,507.2 c 0,0 16.9,79 9.1,126.9 0,0 -4.8,-28.4 -5.3,-49.1 -0.5,-20.7 0.9,-50.7 -3.8,-77.8 z"
           style="fill:#000000"
           id="path9214" />
        <path
           inkscape:connector-curvature="0"
           d="m 170.3,507.2 c 0,0 16.9,79 9.1,126.9 0,0 1.2,-26.1 -0.8,-48.7 -1.9,-20.6 -3.6,-51.1 -8.3,-78.2 z"
           style="fill:#000000"
           id="path9216" />
      </g>
      <g
         id="g9231">
        <linearGradient
           id="SVGID_19_"
           gradientUnits="userSpaceOnUse"
           x1="-490.08069"
           y1="29.7125"
           x2="-458.43951"
           y2="29.7125"
           gradientTransform="matrix(-1.1796,-0.2452,-0.2027,0.9752,-391.6209,399.2818)">
          <stop
             offset="0"
             style="stop-color:#54B948"
             id="stop9220" />
          <stop
             offset="0.3764"
             style="stop-color:#00A651"
             id="stop9222" />
          <stop
             offset="1"
             style="stop-color:#005826"
             id="stop9224" />
        </linearGradient>
        <path
           inkscape:connector-curvature="0"
           d="m 154.1,487.8 c 0,0 25.7,63.4 15.4,113.4 0,0 -2,-7.9 -4.2,-29 -2.2,-21.1 1.7,-47.8 -11.2,-84.4 z"
           style="fill:#000000"
           id="path9227" />
        <path
           inkscape:connector-curvature="0"
           d="m 154.1,487.8 c 0,0 25.7,63.4 15.4,113.4 0,0 1.8,-11.6 -0.4,-32.8 -2.2,-21.2 -2.1,-44 -15,-80.6 z"
           style="fill:#000000"
           id="path9229" />
      </g>
      <g
         id="g9244">
        <linearGradient
           id="SVGID_20_"
           gradientUnits="userSpaceOnUse"
           x1="267.897"
           y1="484.7525"
           x2="322.46051"
           y2="484.7525"
           gradientTransform="matrix(0.6794,-0.7338,0.7338,0.6794,-405.8327,434.1327)">
          <stop
             offset="0"
             style="stop-color:#54B948"
             id="stop9233" />
          <stop
             offset="0.3764"
             style="stop-color:#00A651"
             id="stop9235" />
          <stop
             offset="1"
             style="stop-color:#005826"
             id="stop9237" />
        </linearGradient>
        <path
           inkscape:connector-curvature="0"
           d="m 169.2,601.5 c 0,0 -28.7,-49 -37.6,-109.2 0,0 32.6,71 37.6,109.2 z"
           style="fill:#000000"
           id="path9240" />
        <path
           inkscape:connector-curvature="0"
           d="m 169.2,601.5 c 0,0 -28.7,-49 -37.6,-109.2 0,0 20.1,67.6 37.6,109.2 z"
           style="fill:#000000"
           id="path9242" />
      </g>
      <g
         id="g9257">
        <linearGradient
           id="SVGID_21_"
           gradientUnits="userSpaceOnUse"
           x1="-880.60181"
           y1="787.59662"
           x2="-815.69818"
           y2="787.59662"
           gradientTransform="matrix(-0.813,0.5823,0.5823,0.813,-780.3392,714.4459)">
          <stop
             offset="0"
             style="stop-color:#54B948"
             id="stop9246" />
          <stop
             offset="0.3764"
             style="stop-color:#00A651"
             id="stop9248" />
          <stop
             offset="1"
             style="stop-color:#005826"
             id="stop9250" />
        </linearGradient>
        <path
           inkscape:connector-curvature="0"
           d="m 359.2,904.6 c 0,0 19.7,-29.9 17.2,-87.5 0,0 -5.6,31.7 -11.4,48.5 -7,20 -6.2,36.8 -5.8,39 z"
           style="fill:#000000"
           id="path9253" />
        <path
           inkscape:connector-curvature="0"
           d="m 359.2,904.6 c 0,0 19.3,-27.2 17.3,-87.1 0,0 -2.7,34 -9,54.1 -4.2,13 -6.9,27.7 -8.3,33 z"
           style="fill:#000000"
           id="path9255" />
      </g>
      <g
         id="g9270">
        <linearGradient
           id="SVGID_22_"
           gradientUnits="userSpaceOnUse"
           x1="-901.17889"
           y1="748.00818"
           x2="-814.51221"
           y2="748.00818"
           gradientTransform="matrix(-0.813,0.5823,0.5823,0.813,-780.3392,714.4459)">
          <stop
             offset="0"
             style="stop-color:#54B948"
             id="stop9259" />
          <stop
             offset="0.3764"
             style="stop-color:#00A651"
             id="stop9261" />
          <stop
             offset="1"
             style="stop-color:#005826"
             id="stop9263" />
        </linearGradient>
        <path
           inkscape:connector-curvature="0"
           d="m 347.6,890.4 c 0,0 28.1,-68.4 10.1,-134.7 0,0 8.3,36.3 -1.8,71.8 -10.2,35.7 -10.5,55.3 -8.3,62.9 z"
           style="fill:#000000"
           id="path9266" />
        <path
           inkscape:connector-curvature="0"
           d="m 347.6,890.8 c 0,0 28.1,-68.4 10.1,-134.7 0,0 8.4,26.3 0.3,77.2 -4.7,29.1 -7.3,42.1 -10.4,57.5 z"
           style="fill:#000000"
           id="path9268" />
      </g>
      <g
         id="g9283">
        <linearGradient
           id="SVGID_23_"
           gradientUnits="userSpaceOnUse"
           x1="-868.19757"
           y1="666.11719"
           x2="-797.53088"
           y2="666.11719"
           gradientTransform="matrix(-0.8699,0.4932,0.4932,0.8699,-717.2872,635.9059)">
          <stop
             offset="0"
             style="stop-color:#54B948"
             id="stop9272" />
          <stop
             offset="0.3764"
             style="stop-color:#00A651"
             id="stop9274" />
          <stop
             offset="1"
             style="stop-color:#005826"
             id="stop9276" />
        </linearGradient>
        <path
           inkscape:connector-curvature="0"
           d="m 337.2,878.7 c 0,0 30.2,-88 -2.8,-148.2 0,0 15.8,35.1 6.2,85.4 -9.5,50.1 -3.4,62.8 -3.4,62.8 z"
           style="fill:#000000"
           id="path9279" />
        <path
           inkscape:connector-curvature="0"
           d="m 337.2,879 c 0,0 30.2,-88.4 -2.8,-148.6 0,0 16.4,35.5 10,86.2 -5.1,40.1 -7.2,62.4 -7.2,62.4 z"
           style="fill:#000000"
           id="path9281" />
      </g>
      <g
         id="g9296">
        <linearGradient
           id="SVGID_24_"
           gradientUnits="userSpaceOnUse"
           x1="-847.12109"
           y1="624.41272"
           x2="-782.78778"
           y2="624.41272"
           gradientTransform="matrix(-0.8951,0.446,0.446,0.8951,-686.0966,601.3076)">
          <stop
             offset="0"
             style="stop-color:#54B948"
             id="stop9285" />
          <stop
             offset="0.3764"
             style="stop-color:#00A651"
             id="stop9287" />
          <stop
             offset="1"
             style="stop-color:#005826"
             id="stop9289" />
        </linearGradient>
        <path
           inkscape:connector-curvature="0"
           d="m 318.9,863.2 c 0,0 24.8,-72 5.7,-132.8 0,0 3.2,48.8 -4.1,86.8 -4.6,24.1 -1.6,46 -1.6,46 z"
           style="fill:#000000"
           id="path9292" />
        <path
           inkscape:connector-curvature="0"
           d="m 319,863.5 c 0,0 24.8,-72.3 5.7,-133.2 0,0 7.3,37 0.1,87.6 -2.8,19.4 -5.8,45.6 -5.8,45.6 z"
           style="fill:#000000"
           id="path9294" />
      </g>
      <g
         id="g9309">
        <linearGradient
           id="SVGID_25_"
           gradientUnits="userSpaceOnUse"
           x1="-849.87128"
           y1="607.46149"
           x2="-788.53802"
           y2="607.46149"
           gradientTransform="matrix(-0.88,0.475,0.475,0.88,-707.9734,624.7328)">
          <stop
             offset="0"
             style="stop-color:#54B948"
             id="stop9298" />
          <stop
             offset="0.3764"
             style="stop-color:#00A651"
             id="stop9300" />
          <stop
             offset="1"
             style="stop-color:#005826"
             id="stop9302" />
        </linearGradient>
        <path
           inkscape:connector-curvature="0"
           d="m 294.9,693.4 c 0,0 32.4,69.2 13.2,153.5 0,0 -7.7,-31.6 -3.9,-71.8 3.7,-40.1 -9.3,-81.7 -9.3,-81.7 z"
           style="fill:#000000"
           id="path9305" />
        <path
           inkscape:connector-curvature="0"
           d="m 294.9,693.4 c 0,0 32.5,69.6 13.2,153.9 0,0 0.8,-34.9 0.9,-68.6 0,-40.3 -14.1,-85.3 -14.1,-85.3 z"
           style="fill:#000000"
           id="path9307" />
      </g>
      <g
         id="g9322">
        <linearGradient
           id="SVGID_26_"
           gradientUnits="userSpaceOnUse"
           x1="-840.6239"
           y1="586.20172"
           x2="-784.6239"
           y2="586.20172"
           gradientTransform="matrix(-0.8829,0.4695,0.4695,0.8829,-706.2335,622.0685)">
          <stop
             offset="0"
             style="stop-color:#54B948"
             id="stop9311" />
          <stop
             offset="0.3764"
             style="stop-color:#00A651"
             id="stop9313" />
          <stop
             offset="1"
             style="stop-color:#005826"
             id="stop9315" />
        </linearGradient>
        <path
           inkscape:connector-curvature="0"
           d="m 279.6,685.6 c 0,0 30.2,57.5 13.7,145 0,0 -8,-29.2 -5.3,-55.5 2.6,-26.3 4,-52.7 -8.4,-89.5 z"
           style="fill:#000000"
           id="path9318" />
        <path
           inkscape:connector-curvature="0"
           d="m 279.6,685.6 c 0,0 30.2,57.5 13.7,145 0,0 -2.7,-28.4 -0.1,-54.8 2.7,-26.2 -1.2,-53.4 -13.6,-90.2 z"
           style="fill:#000000"
           id="path9320" />
      </g>
      <g
         id="g9335">
        <linearGradient
           id="SVGID_27_"
           gradientUnits="userSpaceOnUse"
           x1="-821.49908"
           y1="536.3551"
           x2="-772.49908"
           y2="536.3551"
           gradientTransform="matrix(-0.9072,0.4207,0.4207,0.9072,-676.3171,589.7834)">
          <stop
             offset="0"
             style="stop-color:#54B948"
             id="stop9324" />
          <stop
             offset="0.3764"
             style="stop-color:#00A651"
             id="stop9326" />
          <stop
             offset="1"
             style="stop-color:#005826"
             id="stop9328" />
        </linearGradient>
        <path
           inkscape:connector-curvature="0"
           d="m 267.7,672.7 c 0,0 32.5,79.7 9.4,136.7 0,0 -5,-24.7 -1.3,-61.1 3.7,-36.4 -8.1,-75.6 -8.1,-75.6 z"
           style="fill:#000000"
           id="path9331" />
        <path
           inkscape:connector-curvature="0"
           d="m 267.7,673.1 c 0,0 32.5,79.7 9.4,136.7 0,0 1.5,-16.2 3.6,-50.7 2.9,-46.2 -13,-86 -13,-86 z"
           style="fill:#000000"
           id="path9333" />
      </g>
      <g
         id="g9348">
        <linearGradient
           id="SVGID_28_"
           gradientUnits="userSpaceOnUse"
           x1="-834.40552"
           y1="467.2778"
           x2="-788.90552"
           y2="467.2778"
           gradientTransform="matrix(-0.9478,0.3188,0.3188,0.9478,-655.9698,539.6083)">
          <stop
             offset="0"
             style="stop-color:#54B948"
             id="stop9337" />
          <stop
             offset="0.3764"
             style="stop-color:#00A651"
             id="stop9339" />
          <stop
             offset="1"
             style="stop-color:#005826"
             id="stop9341" />
        </linearGradient>
        <path
           inkscape:connector-curvature="0"
           d="m 264,657.6 c 0,0 15.3,73.3 -3.5,132.4 0,0 -5.1,-21.5 0.4,-57.4 5.5,-36.1 4.7,-62.5 3.1,-75 z"
           style="fill:#000000"
           id="path9344" />
        <path
           inkscape:connector-curvature="0"
           d="m 264,657.9 c 0,0 15.3,73.3 -3.5,132.4 0,0 1.8,-24.2 5,-56.5 3.6,-36.2 0.1,-63.4 -1.5,-75.9 z"
           style="fill:#000000"
           id="path9346" />
      </g>
      <g
         id="g9361">
        <linearGradient
           id="SVGID_29_"
           gradientUnits="userSpaceOnUse"
           x1="-802.49408"
           y1="404.4552"
           x2="-759.49219"
           y2="404.4552"
           gradientTransform="matrix(-0.9694,0.2453,0.2453,0.9694,-605.6367,497.9318)">
          <stop
             offset="0"
             style="stop-color:#54B948"
             id="stop9350" />
          <stop
             offset="0.3764"
             style="stop-color:#00A651"
             id="stop9352" />
          <stop
             offset="1"
             style="stop-color:#005826"
             id="stop9354" />
        </linearGradient>
        <path
           inkscape:connector-curvature="0"
           d="m 254.9,627.4 c 0,0 20.8,78 -8.4,142.1 0,0 -2.6,-17.2 3.3,-41.4 5.9,-24.2 9.4,-63.3 5.1,-100.7 z"
           style="fill:#000000"
           id="path9357" />
        <path
           inkscape:connector-curvature="0"
           d="m 254.8,627.8 c 0,0 20.8,78 -8.4,142.1 0,0 1.8,-17 8,-41.1 8.6,-33.5 4.8,-63.6 0.4,-101 z"
           style="fill:#000000"
           id="path9359" />
      </g>
      <g
         id="g9374">
        <linearGradient
           id="SVGID_30_"
           gradientUnits="userSpaceOnUse"
           x1="-789.75677"
           y1="370.33179"
           x2="-749.20599"
           y2="370.33179"
           gradientTransform="matrix(-0.9732,0.2302,0.2302,0.9732,-596.031,490.48)">
          <stop
             offset="0"
             style="stop-color:#54B948"
             id="stop9363" />
          <stop
             offset="0.3764"
             style="stop-color:#00A651"
             id="stop9365" />
          <stop
             offset="1"
             style="stop-color:#005826"
             id="stop9367" />
        </linearGradient>
        <path
           inkscape:connector-curvature="0"
           d="m 239.6,592.7 c 0,0 25.7,95 -3.3,162.1 0,0 -2.4,-26.1 2.1,-44.7 4.6,-18.5 10.4,-64.7 1.2,-117.4 z"
           style="fill:#000000"
           id="path9370" />
        <path
           inkscape:connector-curvature="0"
           d="m 239.6,593.1 c 0,0 25.7,95 -3.3,162.1 0,0 3,-25.7 7.5,-44.3 4.6,-18.5 5,-65.2 -4.2,-117.8 z"
           style="fill:#000000"
           id="path9372" />
      </g>
      <g
         id="g9387">
        <linearGradient
           id="SVGID_31_"
           gradientUnits="userSpaceOnUse"
           x1="-747.19019"
           y1="320.42209"
           x2="-720.5545"
           y2="320.42209"
           gradientTransform="matrix(-0.9868,0.1617,0.1617,0.9868,-550.7617,458.8362)">
          <stop
             offset="0"
             style="stop-color:#54B948"
             id="stop9376" />
          <stop
             offset="0.3764"
             style="stop-color:#00A651"
             id="stop9378" />
          <stop
             offset="1"
             style="stop-color:#005826"
             id="stop9380" />
        </linearGradient>
        <path
           inkscape:connector-curvature="0"
           d="m 220.1,576.9 c 0,0 33.9,73.1 5.3,159.9 0,0 -4,-4.1 1.4,-45.2 5.4,-41.1 5.9,-66.5 -6.7,-114.7 z"
           style="fill:#000000"
           id="path9383" />
        <path
           inkscape:connector-curvature="0"
           d="m 220.1,576.9 c 0,0 33.8,73.5 5.2,160.3 0,0 0.4,-4.1 5.8,-45.2 5.4,-41.1 2.6,-74.6 -11,-115.1 z"
           style="fill:#000000"
           id="path9385" />
      </g>
      <g
         id="g9400">
        <linearGradient
           id="SVGID_32_"
           gradientUnits="userSpaceOnUse"
           x1="-728.1568"
           y1="304.19531"
           x2="-710.69171"
           y2="304.19531"
           gradientTransform="matrix(-0.9899,0.1414,0.1414,0.9899,-539.3928,451.1502)">
          <stop
             offset="0"
             style="stop-color:#54B948"
             id="stop9389" />
          <stop
             offset="0.3764"
             style="stop-color:#00A651"
             id="stop9391" />
          <stop
             offset="1"
             style="stop-color:#005826"
             id="stop9393" />
        </linearGradient>
        <path
           inkscape:connector-curvature="0"
           d="m 214.8,583.5 c 0,0 17.9,96.8 2.3,134 0,0 -5.5,-18.4 -2.2,-52.2 3.3,-33.8 3.7,-43.3 -0.1,-81.8 z"
           style="fill:#000000"
           id="path9396" />
        <path
           inkscape:connector-curvature="0"
           d="m 214.8,583.5 c 0,0 17.9,96.8 2.3,134 0,0 -0.4,-12 2.1,-43.4 2.8,-34.9 -0.6,-52.1 -4.4,-90.6 z"
           style="fill:#000000"
           id="path9398" />
      </g>
      <g
         id="g9413">
        <linearGradient
           id="SVGID_33_"
           gradientUnits="userSpaceOnUse"
           x1="-706.01801"
           y1="265.0199"
           x2="-696.4585"
           y2="265.0199"
           gradientTransform="matrix(-0.9938,0.1114,0.1114,0.9938,-521.5274,440.1482)">
          <stop
             offset="0"
             style="stop-color:#54B948"
             id="stop9402" />
          <stop
             offset="0.3764"
             style="stop-color:#00A651"
             id="stop9404" />
          <stop
             offset="1"
             style="stop-color:#005826"
             id="stop9406" />
        </linearGradient>
        <path
           inkscape:connector-curvature="0"
           d="m 195.4,546 c 0,0 27.5,115 13.7,159.3 0,0 -4.9,-38.8 -3.6,-69.5 1.3,-30.7 -10.1,-89.8 -10.1,-89.8 z"
           style="fill:#000000"
           id="path9409" />
        <path
           inkscape:connector-curvature="0"
           d="m 195.4,546 c 0,0 27.5,115 13.7,159.3 0,0 0.7,-25.2 -0.3,-61.4 C 207.9,613.2 195.4,546 195.4,546 Z"
           style="fill:#000000"
           id="path9411" />
      </g>
      <g
         id="g9426">
        <linearGradient
           id="SVGID_34_"
           gradientUnits="userSpaceOnUse"
           x1="-693.14587"
           y1="205.35539"
           x2="-685.09058"
           y2="205.35539"
           gradientTransform="matrix(-0.9964,0.08439438,0.08439438,0.9964,-516.5507,441.6334)">
          <stop
             offset="0"
             style="stop-color:#54B948"
             id="stop9415" />
          <stop
             offset="0.3764"
             style="stop-color:#00A651"
             id="stop9417" />
          <stop
             offset="1"
             style="stop-color:#005826"
             id="stop9419" />
        </linearGradient>
        <path
           inkscape:connector-curvature="0"
           d="m 177.6,511.6 c 0,0 25.1,101.7 13.4,153.5 0,0 -3.4,-16.5 -4.5,-48.5 -1.1,-32 -2.8,-68.3 -8.9,-105 z"
           style="fill:#000000"
           id="path9422" />
        <path
           inkscape:connector-curvature="0"
           d="m 177.6,511.6 c 0,0 25.1,101.7 13.4,153.5 0,0 0.1,-16.2 -0.9,-48.3 -1,-32.1 -6.4,-68.5 -12.5,-105.2 z"
           style="fill:#000000"
           id="path9424" />
      </g>
      <g
         id="g9439">
        <linearGradient
           id="SVGID_35_"
           gradientUnits="userSpaceOnUse"
           x1="283.76859"
           y1="557.46997"
           x2="237.1019"
           y2="607.30328"
           gradientTransform="matrix(0.6794,-0.7338,0.7338,0.6794,-405.8327,434.1327)">
          <stop
             offset="0"
             style="stop-color:#54B948"
             id="stop9428" />
          <stop
             offset="0.3764"
             style="stop-color:#00A651"
             id="stop9430" />
          <stop
             offset="1"
             style="stop-color:#005826"
             id="stop9432" />
        </linearGradient>
        <path
           inkscape:connector-curvature="0"
           d="m 187.5,544 c 0,0 21.7,63.1 12.9,144.9 0,0 -3.6,-24.2 -5.5,-50.8 -2,-26.7 4.1,-52.7 -7.4,-94.1 z"
           style="fill:#000000"
           id="path9435" />
        <path
           inkscape:connector-curvature="0"
           d="m 187.5,544 c 0,0 21.7,63.1 12.9,144.9 0,0 1,-25.6 -0.9,-52.3 -2,-26.7 -0.5,-51.2 -12,-92.6 z"
           style="fill:#000000"
           id="path9437" />
      </g>
      <linearGradient
         id="SVGID_36_"
         gradientUnits="userSpaceOnUse"
         x1="222.14951"
         y1="675.95001"
         x2="212.0276"
         y2="961.38849"
         gradientTransform="matrix(0.6794,-0.7338,0.7338,0.6794,-405.8327,434.1327)">
        <stop
           offset="0"
           style="stop-color:#54B948"
           id="stop9441" />
        <stop
           offset="0.3764"
           style="stop-color:#00A651"
           id="stop9443" />
        <stop
           offset="1"
           style="stop-color:#005826"
           id="stop9445" />
      </linearGradient>
      <path
         inkscape:connector-curvature="0"
         d="m 385.7,935.1 c 0,0 -180.3,-156 -216.8,-333.2 -0.5,-2.3 0.4,-3.4 0,-5.7 0,0 32.6,172.4 227.4,335.5 z"
         style="fill:#000000"
         id="path9448" />
    </g>
    <path
       inkscape:connector-curvature="0"
       d="m 15.52443,284.06295 c 0,0 0.560631,0.0921 0.969268,0.048 0.408641,-0.0439 0.313953,-0.0741 0.448505,-0.22796 0.13455,-0.15397 0.03488,-0.0701 -0.127072,-0.0979 -0.161962,-0.0273 0.03737,-0.0303 0.2093,-0.0621 0.171927,-0.032 0.371263,0.0114 0.495846,-0.12794 0.124599,-0.14201 0.284054,-0.38398 0.284054,-0.38398 l -1.427741,0.14387 -0.583057,0.19601 z"
       style="fill:#000000;stroke-width:0.02232352"
       id="path10378" />
    <path
       inkscape:connector-curvature="0"
       d="m 15.778583,283.63297 c 0,0 0.72259,-0.11187 1.17608,-0.15995 0.453485,-0.0481 0.662788,-0.0542 0.737542,-0.12979 0.07476,-0.0761 0.224264,-0.26411 0.09467,-0.21005 -0.12956,0.0537 -0.617939,0.10804 -0.510796,0.0421 0.107128,-0.0638 0.284052,-0.0817 0.598007,-0.19027 0.313954,-0.10804 0.313954,-0.08 0.428572,-0.23614 0.117107,-0.15603 -0.129589,-0.0499 -0.249171,-0.007 -0.122097,0.0439 -0.104655,-0.007 0.169435,-0.1322 0.274085,-0.12595 0.221759,-0.032 0.388703,-0.25591 0,0 -0.707642,0.13391 -1.377908,0.28785 -0.667772,0.15397 -1.171098,0.47402 -1.171098,0.47402 z"
       style="fill:#000000;stroke-width:0.02232352"
       id="path10387" />
    <path
       inkscape:connector-curvature="0"
       d="m 16.107489,283.13696 c 0,0 0.53073,-0.314 1.258304,-0.438 0.730064,-0.12382 0.832228,-0.15397 1.021591,-0.22406 0.189381,-0.0682 0.189381,-0.0682 0.254155,-0.16408 0.06478,-0.094 -0.06977,-0.0303 -0.206821,0.0358 -0.137052,0.066 -0.677742,0.1758 -0.874587,0.12979 -0.194343,-0.0459 -0.06728,-0.062 0.0922,-0.11998 0.156978,-0.0577 0.6304,-0.0698 1.053988,-0.34798 0.423586,-0.27814 0.485881,-0.61602 0.485881,-0.61602 0,0 -0.622926,0.45001 -1.4701,0.48401 -0.847178,0.034 -1.2309,0.61799 -1.2309,0.61799 z"
       style="fill:#000000;stroke-width:0.02232352"
       id="path10396" />
    <path
       inkscape:connector-curvature="0"
       d="m 16.618284,282.38896 c 0,0 0.166943,-0.18982 0.82226,-0.30399 0.655313,-0.11429 1.325581,-0.23794 1.507474,-0.37998 0.181889,-0.14002 0.289037,-0.33399 0.234222,-0.34002 -0.05483,-0.007 -0.762463,0.324 -0.949337,0.31001 -0.186876,-0.0161 -0.166953,-0.0421 0.04984,-0.12595 0.216772,-0.0861 0.73754,-0.16018 0.941859,-0.314 0.204318,-0.15397 0.286545,-0.416 0.286545,-0.416 l -1.004152,0.32398 -1.161132,0.009 c 0,0 -0.154475,0.23402 -0.318934,0.434 -0.164453,0.19994 -0.408639,0.80401 -0.408639,0.80401 z"
       style="fill:#000000;stroke-width:0.02232352"
       id="path10405" />
    <path
       inkscape:connector-curvature="0"
       d="m 17.091705,281.52896 c 0,0 0.279072,-0.182 1.011629,-0.23797 0.732557,-0.0581 1.116279,-0.10988 1.288205,-0.29788 0.174422,-0.18799 0.151993,-0.23399 -0.02741,-0.15006 -0.179407,0.0839 -1.497507,0.26594 -1.462625,0.15006 0.03489,-0.11813 0.353822,-0.0741 0.931893,-0.17396 0.578074,-0.10022 0.792363,-0.10022 1.016615,-0.48801 0,0 -0.959306,-0.10406 -1.51246,-0.009 -0.555647,0.0958 -0.510799,-0.048 -0.752494,0.216 -0.239204,0.26414 -0.493356,0.99202 -0.493356,0.99202 z"
       style="fill:#000000;stroke-width:0.02232352"
       id="path10414" />
    <path
       inkscape:connector-curvature="0"
       d="m 17.570112,280.64898 c 0,0 0.164447,-0.116 1.07641,-0.16615 0.914453,-0.0499 1.101332,0.0208 1.240867,-0.2059 0.137038,-0.22612 0.2068,-0.31199 -0.04235,-0.21602 -0.249171,0.098 -1.046511,0.17006 -0.979237,0.092 0.06727,-0.0761 0.86462,-0.0439 1.101331,-0.30798 0.236708,-0.26414 0.303986,-0.558 0.303986,-0.558 0,0 -0.465949,0.29393 -1.333056,0.29788 l -0.730066,0.088 c 0,0 -0.186876,0.0921 -0.41113,0.53399 -0.226745,0.442 -0.226745,0.442 -0.226745,0.442 z"
       style="fill:#000000;stroke-width:0.02232352"
       id="path10423" />
    <path
       inkscape:connector-curvature="0"
       d="m 18.048518,279.79099 c 0,0 0.249168,-0.0779 0.956809,-0.10406 0.707641,-0.0273 1.034057,-0.0542 1.173588,-0.25012 0.139539,-0.19602 0.147005,-0.31399 0.04734,-0.24586 -0.09966,0.0678 -0.884552,0.13789 -0.705149,0.0439 0.179407,-0.0958 0.575581,-0.08 0.717608,-0.22796 0.142013,-0.14777 0.179407,-0.38401 0.179407,-0.38401 0,0 -1.335545,0.0678 -1.716777,0.37198 -0.381231,0.30603 -0.652823,0.79603 -0.652823,0.79603 z"
       style="fill:#000000;stroke-width:0.02232352"
       id="path10432" />
    <path
       inkscape:connector-curvature="0"
       d="m 18.678913,279.03896 c 0,0 0.986714,-0.41002 1.69934,-0.2979 0,0 0.109645,-0.21785 -0.02742,-0.21003 -0.137052,0.009 -0.722594,0.0621 -0.530729,-0.0273 0.191862,-0.0901 0.590528,-0.11998 0.67774,-0.25193 0.08721,-0.1322 0.194344,-0.32799 0.03987,-0.34201 -0.154474,-0.0161 -0.169433,-0.0958 0,-0.20383 0.169433,-0.10804 0.127087,-0.18408 0.15946,-0.47599 0,0 -1.305649,0.632 -2.018277,1.80999 z"
       style="fill:#000000;stroke-width:0.02232352"
       id="path10441" />
    <path
       inkscape:connector-curvature="0"
       d="m 18.900677,277.61896 c -0.02988,0.10022 -0.11961,0.55801 0.04486,0.338 0.166951,-0.22223 0.06977,-0.30799 0.580565,-0.456 0.510796,-0.14776 0.505815,-0.18798 0.54319,-0.14387 0.03736,0.0441 -0.112117,0.23399 0.07224,0.0979 0.184393,-0.13604 0.446015,-0.21394 0.553153,-0.22405 0,0 -0.715115,0.40601 -1.163624,0.86001 -0.448499,0.452 -0.909464,1.04399 -1.086376,1.22199 -0.176902,0.17581 -0.321427,-1.10198 -0.221759,-1.264 0.09967,-0.16178 0.712625,-0.54002 0.677741,-0.43 z"
       style="fill:#000000;stroke-width:0.02232352"
       id="path10450" />
    <path
       inkscape:connector-curvature="0"
       d="m 17.485393,278.57296 c 0,0 0.296515,-0.24405 0.368772,-0.316 0.07224,-0.0741 0.03737,0.15006 0.06727,0.35002 0.02992,0.19993 0.122097,0.51999 0.179407,0.11188 0.05732,-0.40799 -0.02491,-0.57199 0.127086,-0.722 0.154496,-0.15006 0.142013,-0.12197 0.234219,-0.16177 0.08969,-0.0398 0.01494,0.41201 0.0922,0.78002 0.07726,0.36798 0.142041,0.362 0.05982,0.51398 -0.08222,0.15212 -0.680232,0.86999 -0.819772,1.078 -0.137051,0.2082 -0.308969,-1.63401 -0.308969,-1.63401 z"
       style="fill:#000000;stroke-width:0.02232352"
       id="path10459" />
    <path
       inkscape:connector-curvature="0"
       d="m 17.886555,280.09295 c -0.02741,0.0537 -0.535711,1.04601 -0.655313,1.20001 -0.119596,0.15396 -0.161966,-1.196 -0.321432,-1.53 -0.159465,-0.33198 -0.259135,-0.26411 -0.169436,-0.37799 0.129575,-0.16408 0.421099,-0.47202 0.42359,-0.40601 0.0026,0.066 0.279071,1.26401 0.294019,0.97599 0.01494,-0.28815 -0.139539,-1.04999 -0.109644,-1.18398 0.02988,-0.13391 0.161966,-0.21602 0.229229,-0.27386 0,0 0.191861,0.42399 0.239203,0.84797 0.04734,0.42399 0.14951,0.59001 0.06977,0.74799 z"
       style="fill:#000000;stroke-width:0.02232352"
       id="path10468" />
    <path
       inkscape:connector-curvature="0"
       d="m 16.96463,281.75297 c 0,0 0.485877,-0.61401 0.411129,-0.91998 -0.07476,-0.30604 -0.525749,-1.58601 -0.505813,-1.60403 0.04734,-0.0459 -0.211796,0.16799 -0.211796,0.33599 0,0.16798 0.10963,0.65003 0.05482,0.59202 -0.05482,-0.0581 -0.0897,-0.53202 -0.161957,-0.454 -0.07226,0.0761 -0.171926,0.10405 -0.239201,0.20591 -0.06727,0.10207 0.528238,1.88401 0.652824,1.84402 z"
       style="fill:#000000;stroke-width:0.02232352"
       id="path10477" />
    <path
       inkscape:connector-curvature="0"
       d="m 15.554331,284.02097 0.485877,-0.70401 c 0,0 -0.209302,-0.84201 -0.725082,-1.00801 0,0 -0.03737,0.12595 0.02988,0.24587 0.06727,0.12027 0.326411,0.60402 0.269103,0.85402 -0.05981,0.25012 -0.251662,-0.40401 -0.383722,-0.25804 -0.13455,0.14614 0.24917,0.97797 0.323923,0.86998 z"
       style="fill:#000000;stroke-width:0.02232352"
       id="path10486" />
    <path
       inkscape:connector-curvature="0"
       d="m 16.937221,281.82695 c 0,0 -0.323923,0.65602 -0.448508,0.83402 -0.12457,0.17809 -0.670267,-1.484 -0.670267,-1.484 0,0 -0.01237,-0.25195 0.01494,-0.32401 0.02741,-0.0722 0.104654,-0.33999 0.142027,-0.14201 0.01237,0.0638 0.08224,0.44602 0.224251,0.64599 0.142027,0.19994 0.1495,0.24587 -0.02742,-0.52397 -0.176908,-0.77201 0.184392,-0.98203 0.184392,-0.98203 0,0 0.289034,1.07803 0.433551,1.34002 0.14452,0.26198 0.246677,0.43998 0.147012,0.63597 z"
       style="fill:#000000;stroke-width:0.02232352"
       id="path10495" />
    <path
       inkscape:connector-curvature="0"
       d="m 16.037719,283.31696 c 0,0 -0.229236,-0.83799 -0.72508,-1.00801 0,0 0.01991,-0.12595 0.16943,-0.0701 0.149506,0.056 -0.127073,-0.23003 -0.09966,-0.32799 0.02742,-0.098 0.129574,-0.37998 0.19186,-0.324 0.06229,0.056 0.341361,0.84599 0.426078,0.836 0.08471,-0.009 -0.269104,-0.64401 -0.371259,-0.984 -0.102167,-0.33999 0.147004,-0.49598 0.204318,-0.58599 0,0 0.306475,0.85799 0.493355,1.29598 0.186878,0.43801 0.159466,0.512 0.159466,0.512 z"
       style="fill:#000000;stroke-width:0.02232352"
       id="path10504" />
    <path
       inkscape:connector-curvature="0"
       d="m 15.250343,283.13297 c 0,0 0.341364,0.65199 0.406147,0.73798 l -0.129574,0.18982 c 0,0 -0.465947,-0.63796 -0.391197,-0.75999 0.07475,-0.11998 0.102167,-0.19211 0.11462,-0.16798 z"
       style="fill:#000000;stroke-width:0.02232352"
       id="path10513" />
    <path
       inkscape:connector-curvature="0"
       d="m 20.69719,277.22897 c -0.468443,0.25196 -0.75997,0.48398 -1.05897,0.764 -0.301497,0.27994 -0.570598,0.58598 -0.822259,0.89997 -0.251665,0.31403 -0.548174,0.62604 -0.77492,0.95403 -0.226748,0.32799 -0.398671,0.666 -0.610465,1 l -0.137052,0.25803 c -0.05233,0.0839 -0.104655,0.16798 -0.154474,0.25195 l -0.151994,0.25193 -0.151994,0.25196 -0.301498,0.50601 c -0.102167,0.16799 -0.201827,0.33599 -0.303985,0.50397 -0.204323,0.33603 -0.411133,0.67002 -0.622927,1.00002 -0.05231,0.0817 -0.107142,0.16614 -0.159467,0.24797 -0.05481,0.0817 -0.10963,0.16408 -0.16445,0.24588 -0.05482,0.0817 -0.112132,0.16407 -0.166943,0.24402 -0.02742,0.0399 -0.0573,0.08 -0.08721,0.11998 l -0.04484,0.0581 c -0.01494,0.0183 -0.02988,0.0402 -0.04236,0.0542 l -0.0024,0.003 c -0.0324,0.0402 -0.02991,0.0901 0.0074,0.11188 0.03737,0.0206 0.0922,0.009 0.127072,-0.032 0,0 0,-0.003 0,-0.003 0.01993,-0.0243 0.0324,-0.0439 0.04983,-0.0638 l 0.04485,-0.0621 c 0.02988,-0.0421 0.0573,-0.0817 0.08721,-0.1241 0.0573,-0.0817 0.112132,-0.16615 0.166943,-0.25013 0.05481,-0.0839 0.107142,-0.16616 0.161963,-0.25013 0.05233,-0.0839 0.104655,-0.16798 0.156978,-0.25192 0.206811,-0.33606 0.408637,-0.67203 0.607975,-1.01203 0.09967,-0.17006 0.196843,-0.33801 0.294018,-0.50801 l 0.291529,-0.50798 0.144519,-0.25407 0.147004,-0.25409 c 0.04984,-0.0839 0.09967,-0.16798 0.14951,-0.25194 l 0.132062,-0.25804 c 0.204317,-0.33601 0.371263,-0.67401 0.588038,-1.00401 0.219277,-0.33 0.508309,-0.64197 0.754984,-0.95797 0.244185,-0.31601 0.505816,-0.62601 0.802324,-0.90803 0.294021,-0.27995 0.585551,-0.49598 1.044026,-0.77396 z"
       style="fill:#000000;stroke-width:0.02232352"
       id="path10522" />
    <g
       transform="matrix(0.03010597,0,0,0.02119494,-11.282191,269.23647)"
       id="g10626">
      <linearGradient
         id="SVGID_96_"
         gradientUnits="userSpaceOnUse"
         x1="676.23181"
         y1="780.95813"
         x2="738.42279"
         y2="780.95813"
         gradientTransform="matrix(0.9913,-0.1315,0.1315,0.9913,-86.0899,149.6173)">
        <stop
           offset="0"
           style="stop-color:#54B948"
           id="stop10615" />
        <stop
           offset="0.3764"
           style="stop-color:#00A651"
           id="stop10617" />
        <stop
           offset="1"
           style="stop-color:#005826"
           id="stop10619" />
      </linearGradient>
      <path
         inkscape:connector-curvature="0"
         d="m 695,895.1 c 0,0 14.8,-69 45.7,-128.6 -0.1,0 -13.2,95.6 -45.7,128.6 z"
         style="fill:#000000"
         id="path10622" />
      <path
         inkscape:connector-curvature="0"
         d="m 695,895.1 c 0,0 -16.2,-34.8 45.7,-128.6 -0.1,0 -32.8,90.4 -45.7,128.6 z"
         style="fill:#000000"
         id="path10624" />
    </g>
    <path
       inkscape:connector-curvature="0"
       d="m 9.7438296,288.49419 c 0,0 -1.1891866,-0.52779 -2.7516872,-0.78634 -0.00301,0 1.4300343,0.80964 2.7516872,0.78634 z"
       style="fill:#000000;stroke-width:0.02526053"
       id="path10635" />
    <path
       inkscape:connector-curvature="0"
       d="m 9.7438296,288.49419 c 0,0 0.099348,-0.51929 -2.7516872,-0.78634 -0.00301,0 1.9508674,0.54684 2.7516872,0.78634 z"
       style="fill:#000000;stroke-width:0.02526053"
       id="path10637" />
    <path
       inkscape:connector-curvature="0"
       d="m 9.1597727,287.82441 c 0,0 -1.4270226,-1.00249 -3.1490851,-1.66591 0,-0.003 1.7762534,1.4688 3.1490851,1.66591 z"
       style="fill:#000000;stroke-width:0.02526053"
       id="path10646" />
    <path
       inkscape:connector-curvature="0"
       d="m 9.1597727,287.82441 c 0,0 -0.078269,-0.76722 -3.1490851,-1.66591 0,-0.003 2.2308525,1.16362 3.1490851,1.66591 z"
       style="fill:#000000;stroke-width:0.02526053"
       id="path10648" />
    <path
       inkscape:connector-curvature="0"
       d="m 8.6058233,286.79225 c 0,0 -1.3908972,-1.11489 -3.010599,-1.89272 0,0 1.755179,1.61718 3.010599,1.89272 z"
       style="fill:#000000;stroke-width:0.02526053"
       id="path10657" />
    <path
       inkscape:connector-curvature="0"
       d="m 8.6058233,286.79225 c 0,0 -0.1505299,-0.80118 -3.010599,-1.89272 0,0 2.1315037,1.32467 3.010599,1.89272 z"
       style="fill:#000000;stroke-width:0.02526053"
       id="path10659" />
    <path
       inkscape:connector-curvature="0"
       d="m 8.3469113,286.04617 c 0,0 -1.4511076,-1.25263 -3.1129586,-2.14919 0,0 1.8485083,1.81009 3.1129586,2.14919 z"
       style="fill:#000000;stroke-width:0.02526053"
       id="path10668" />
    <path
       inkscape:connector-curvature="0"
       d="m 8.3469113,286.04617 c 0,0 -0.2047197,-0.87111 -3.1129586,-2.14919 0,0 2.2037586,1.50699 3.1129586,2.14919 z"
       style="fill:#000000;stroke-width:0.02526053"
       id="path10670" />
    <path
       inkscape:connector-curvature="0"
       d="m 8.0849903,285.46116 c 0,0 -1.1440285,-1.40097 -2.5770734,-2.47555 0,0 1.4089602,1.99655 2.5770734,2.47555 z"
       style="fill:#000000;stroke-width:0.02526053"
       id="path10679" />
    <path
       inkscape:connector-curvature="0"
       d="m 8.0849903,285.46116 c 0,0 0,-0.88382 -2.5770734,-2.47555 0,0 1.8274338,1.73797 2.5770734,2.47555 z"
       style="fill:#000000;stroke-width:0.02526053"
       id="path10681" />
    <path
       inkscape:connector-curvature="0"
       d="m 7.7417816,284.26791 c 0,0 -1.3096109,-1.42431 -2.9955457,-2.49464 0,-0.003 1.5926067,2.03471 2.9955457,2.49464 z"
       style="fill:#000000;stroke-width:0.02526053"
       id="path10690" />
    <path
       inkscape:connector-curvature="0"
       d="m 7.7417816,284.26791 c 0,0 0.060208,-0.92196 -2.9955457,-2.49464 0,-0.003 2.1254829,1.74856 2.9955457,2.49464 z"
       style="fill:#000000;stroke-width:0.02526053"
       id="path10692" />
    <path
       inkscape:connector-curvature="0"
       d="m 7.6364104,283.75922 c 0,0 -0.6201831,-1.64047 -1.7491579,-3.02664 0,0 0.617173,2.28482 1.7491579,3.02664 z"
       style="fill:#000000;stroke-width:0.02526053"
       id="path10701" />
    <path
       inkscape:connector-curvature="0"
       d="m 7.6364104,283.75922 c 0,0 0.4636323,-0.86474 -1.7491579,-3.02664 0,0 1.2493994,2.12799 1.7491579,3.02664 z"
       style="fill:#000000;stroke-width:0.02526053"
       id="path10703" />
    <path
       inkscape:connector-curvature="0"
       d="m 7.6334,282.66345 c 0,0 -0.3913785,-1.57478 -1.1440269,-2.89947 -0.00301,-0.003 0.3703026,2.19581 1.1440269,2.89947 z"
       style="fill:#000000;stroke-width:0.02526053"
       id="path10712" />
    <path
       inkscape:connector-curvature="0"
       d="m 7.6334,282.66345 c 0,0 0.3492297,-0.84145 -1.1440269,-2.89947 -0.00301,-0.003 0.8158719,2.03684 1.1440269,2.89947 z"
       style="fill:#000000;stroke-width:0.02526053"
       id="path10714" />
    <path
       inkscape:connector-curvature="0"
       d="m 9.1718161,287.56795 c 0,0 0.3612713,-1.41157 1.1530599,-2.62604 0,0 -0.310093,1.96053 -1.1530599,2.62604 z"
       style="fill:#000000;stroke-width:0.02526053"
       id="path10734" />
    <path
       inkscape:connector-curvature="0"
       d="m 9.1718161,287.56795 c 0,0 -0.4395484,-0.71851 1.1530599,-2.62604 0,0 -0.824905,1.8482 -1.1530599,2.62604 z"
       style="fill:#000000;stroke-width:0.02526053"
       id="path10736" />
    <path
       inkscape:connector-curvature="0"
       d="m 8.8376385,286.84732 c 0,0 0.5539509,-1.3798 1.5083105,-2.53488 0,0 -0.5750241,1.92869 -1.5083105,2.53488 z"
       style="fill:#000000;stroke-width:0.02526053"
       id="path10745" />
    <path
       inkscape:connector-curvature="0"
       d="m 8.8376385,286.84732 c 0,0 -0.3401965,-0.74604 1.5083105,-2.53488 0,0 -1.074783,1.78247 -1.5083105,2.53488 z"
       style="fill:#000000;stroke-width:0.02526053"
       id="path10747" />
    <path
       inkscape:connector-curvature="0"
       d="m 8.5185162,286.31746 c 0,0 0.4606215,-1.32893 1.2644504,-2.43954 0,0 -0.478684,1.85669 -1.2644504,2.43954 z"
       style="fill:#000000;stroke-width:0.02526053"
       id="path10756" />
    <path
       inkscape:connector-curvature="0"
       d="m 8.5185162,286.31746 c 0,0 -0.2920282,-0.71851 1.2644504,-2.43954 0,0 -0.9031789,1.71467 -1.2644504,2.43954 z"
       style="fill:#000000;stroke-width:0.02526053"
       id="path10758" />
    <path
       inkscape:connector-curvature="0"
       d="m 8.2626146,285.52264 c 0,0 0.7165231,-1.3925 1.7371152,-2.51795 0,-0.003 -0.8339348,1.96053 -1.7371152,2.51795 z"
       style="fill:#000000;stroke-width:0.02526053"
       id="path10767" />
    <path
       inkscape:connector-curvature="0"
       d="m 8.2626146,285.52264 c 0,0 -0.1565507,-0.80328 1.7371152,-2.51795 0,-0.003 -1.2343444,1.76768 -1.7371152,2.51795 z"
       style="fill:#000000;stroke-width:0.02526053"
       id="path10769" />
    <path
       inkscape:connector-curvature="0"
       d="m 8.0217667,284.90588 c 0,0 0.7165234,-1.3925 1.7371163,-2.51796 0,-0.003 -0.833936,1.96053 -1.7371163,2.51796 z"
       style="fill:#000000;stroke-width:0.02526053"
       id="path10778" />
    <path
       inkscape:connector-curvature="0"
       d="m 8.0217667,284.90588 c 0,0 -0.1565507,-0.80329 1.7371163,-2.51796 0,-0.003 -1.2343457,1.76767 -1.7371163,2.51796 z"
       style="fill:#000000;stroke-width:0.02526053"
       id="path10780" />
    <path
       inkscape:connector-curvature="0"
       d="m 7.8170467,283.98176 c 0,0 0.716522,-1.39249 1.7371151,-2.51795 0,0 -0.8339361,1.96055 -1.7371151,2.51795 z"
       style="fill:#000000;stroke-width:0.02526053"
       id="path10789" />
    <path
       inkscape:connector-curvature="0"
       d="m 7.8170467,283.98176 c 0,0 -0.1565506,-0.80327 1.7371151,-2.51795 0,0 -1.2343458,1.76764 -1.7371151,2.51795 z"
       style="fill:#000000;stroke-width:0.02526053"
       id="path10791" />
    <path
       inkscape:connector-curvature="0"
       d="m 7.6695269,282.79274 c 0,0 0.7195332,-1.27381 1.7551787,-2.29966 0,0 -0.8309241,1.79522 -1.7551787,2.29966 z"
       style="fill:#000000;stroke-width:0.02526053"
       id="path10800" />
    <path
       inkscape:connector-curvature="0"
       d="m 7.6695269,282.79274 c 0,0 -0.1746133,-0.73758 1.7551787,-2.29966 0,0 -1.2463877,1.61505 -1.7551787,2.29966 z"
       style="fill:#000000;stroke-width:0.02526053"
       id="path10802" />
    <path
       inkscape:connector-curvature="0"
       d="m 7.6635058,281.78599 c 0,0 0.6502893,-1.15303 1.5865859,-2.08133 0,0 -0.7496396,1.62564 -1.5865859,2.08133 z"
       style="fill:#000000;stroke-width:0.02526053"
       id="path10811" />
    <path
       inkscape:connector-curvature="0"
       d="m 7.6635058,281.78599 c 0,0 -0.1565509,-0.66766 1.5865859,-2.08133 0,0 -1.1259644,1.4624 -1.5865859,2.08133 z"
       style="fill:#000000;stroke-width:0.02526053"
       id="path10813" />
    <path
       inkscape:connector-curvature="0"
       d="m 7.7207071,281.45959 c 0,0 -0.3552503,1.33529 0.03914,2.92913 0.3943877,1.59389 1.4059494,4.07367 2.4987959,4.66502 0,0 0.252888,-0.0657 0.0572,-0.19924 -0.198699,-0.13576 -0.8911362,-0.81812 -1.3096089,-1.70618 -0.4184734,-0.89019 -0.9092006,-1.76765 -1.0868266,-2.90796 -0.1776236,-1.14029 -0.1986988,-2.78077 -0.1987004,-2.78077 z"
       style="fill:#000000;stroke-width:0.02526053"
       id="path10822" />
    <text
       xml:space="preserve"
       style="font-style:normal;font-variant:normal;font-weight:normal;font-stretch:normal;font-size:2.38373303px;line-height:1.25;font-family:Webdings;-inkscape-font-specification:Webdings;letter-spacing:0px;word-spacing:0px;fill:#000000;fill-opacity:1;stroke:none;stroke-width:0.05959332"
       x="7.4917846"
       y="277.81702"
       id="text11801"><tspan
         sodipodi:role="line"
         id="tspan11799"
         x="7.4917846"
         y="277.81702"
         style="font-style:normal;font-variant:normal;font-weight:normal;font-stretch:normal;font-size:3.81397319px;font-family:'Palatino Linotype';-inkscape-font-specification:'Palatino Linotype';stroke-width:0.05959332">ELLY</tspan></text>
  </g>
</svg>
