<?xml version="1.0" encoding="utf-8"?>
<!-- Generator: Adobe Illustrator 22.0.0, SVG Export Plug-In . SVG Version: 6.00 Build 0)  -->
<svg version="1.1" id="Layer_1" xmlns="http://www.w3.org/2000/svg" xmlns:xlink="http://www.w3.org/1999/xlink" x="0px" y="0px"
	 viewBox="0 0 560 477" style="enable-background:new 0 0 560 477;" xml:space="preserve">
<style type="text/css">
	.st0{fill:#FFFFFF;}
	.st1{fill:#006E21;}
	.st2{fill:#404D58;}
</style>
<title>best</title>
<rect y="-0.6" class="st0" width="560" height="477"/>
<path class="st1" d="M284.1,358.5l0.1,41.3l-3.1,3.7c-61.9-2.8-111.7-41.2-127.9-100.7c-3.3-12.2-7.2-11.5-16.5-8.5
	c-20.2,6.5-41.1,9.8-63.4,6.7c8.7-3.8,17.6-7.3,26-11.5c13.1-6.6,25.9-13.8,38.9-20.5c7.9-4.1,10.1-10.2,10.3-19.1
	c0.8-32.2-4.2-64.9,3.1-96.7c15-65.7,68.2-107.5,135.8-107.5c11.8,0,23.5,0.4,35.2,0.6l2.8,0.2c65.2,2.2,121.5,63,123.6,133.7
	c0.4,11.8-0.5,23.5,0.2,35.3c0.8,13.5-5.3,21.2-17.8,24.7c-5.3-3.6-11.3-2.4-17-2.4c-30.2-0.1-60.4,0-90.5,0
	c-6.3,0-12.7,0.4-18.5-2.8c7.2-23.2,14.5-46.4,21.7-69.5c-20,21.5-30.1,48.1-44.2,72.6l-4.6,3.1c-16.1,0.7-32.4,0.3-48.4,2.3
	c-24.9,3-32.8,15-28.1,39.6c7.5,39.7,34.9,64.8,79.6,73.1L284.1,358.5z M244.9,174.5c-1.4-3.6-2.7-7.4-7.6-7.4
	c-4.5,0-7.6,2.7-7.6,6.9c0,4,2.5,7.4,7.2,7.5C241.5,181.6,243.7,178.5,244.9,174.5L244.9,174.5z"/>
<path class="st2" d="M325.6,46.5l-2.8-0.2C323.7,45.9,324.7,46,325.6,46.5z"/>
<path class="st1" d="M278.4,241l4.6-3.1C282,239.8,280.7,241.1,278.4,241z"/>
<path class="st1" d="M284.1,358.5l-2.6-2.5C283.3,355.8,284.3,356.6,284.1,358.5z"/>
<path class="st1" d="M281.1,403.5l3.1-3.7C284.3,402,283.7,403.5,281.1,403.5z"/>
</svg>
