<?xml version="1.0" encoding="UTF-8" standalone="no"?>
<!-- Created with Inkscape (http://www.inkscape.org/) -->

<svg
 xmlns:dc="http://purl.org/dc/elements/1.1/"
 xmlns:cc="http://creativecommons.org/ns#"
 xmlns:rdf="http://www.w3.org/1999/02/22-rdf-syntax-ns#"
 xmlns:svg="http://www.w3.org/2000/svg"
 xmlns="http://www.w3.org/2000/svg"
 xmlns:sodipodi="http://sodipodi.sourceforge.net/DTD/sodipodi-0.dtd"
 xmlns:inkscape="http://www.inkscape.org/namespaces/inkscape"
 width="192"
 height="192"
 viewBox="0 0 50.8 50.8"
 version="1.1"
 id="svg8"
 inkscape:version="0.92.3 (2405546, 2018-03-11)"
 sodipodi:docname="ELLY.svg"
 inkscape:export-filename="/home/vivek/Desktop/drawing.svg.png"
 inkscape:export-xdpi="96"
 inkscape:export-ydpi="96">
<defs
 id="defs2">
<marker
 inkscape:stockid="Arrow1Lstart"
 orient="auto"
 refY="0"
 refX="0"
 id="marker1146"
 style="overflow:visible"
 inkscape:isstock="true">
<path
 id="path1144"
 d="M 0,0 5,-5 -12.5,0 5,5 Z"
 style="fill:#fd7ab1;fill-opacity:1;fill-rule:evenodd;stroke:#000000;stroke-width:1.00000003pt;stroke-opacity:1"
 transform="matrix(0.8,0,0,0.8,10,0)"
 inkscape:connector-curvature="0" />
</marker>
<marker
 inkscape:stockid="Arrow1Lstart"
 orient="auto"
 refY="0"
 refX="0"
 id="marker1124"
 style="overflow:visible"
 inkscape:isstock="true">
<path
 id="path1122"
 d="M 0,0 5,-5 -12.5,0 5,5 Z"
 style="fill:#fd7ab1;fill-opacity:1;fill-rule:evenodd;stroke:#000000;stroke-width:1.00000003pt;stroke-opacity:1"
 transform="matrix(0.8,0,0,0.8,10,0)"
 inkscape:connector-curvature="0" />
</marker>
<marker
 inkscape:stockid="Arrow1Lstart"
 orient="auto"
 refY="0"
 refX="0"
 id="Arrow1Lstart"
 style="overflow:visible"
 inkscape:isstock="true">
<path
 id="path816"
 d="M 0,0 5,-5 -12.5,0 5,5 Z"
 style="fill:#fd7ab1;fill-opacity:1;fill-rule:evenodd;stroke:#000000;stroke-width:1.00000003pt;stroke-opacity:1"
 transform="matrix(0.8,0,0,0.8,10,0)"
 inkscape:connector-curvature="0" />
</marker>
</defs>
<sodipodi:namedview
 id="base"
 pagecolor="#ffffff"
 bordercolor="#666666"
 borderopacity="1.0"
 inkscape:pageopacity="0.0"
 inkscape:pageshadow="2"
 inkscape:zoom="1.28"
 inkscape:cx="-77.902368"
 inkscape:cy="54.691358"
 inkscape:document-units="mm"
 inkscape:current-layer="layer1"
 showgrid="false"
 showborder="true"
 inkscape:window-width="1366"
 inkscape:window-height="680"
 inkscape:window-x="0"
 inkscape:window-y="24"
 inkscape:window-maximized="1"
 fit-margin-top="0"
 fit-margin-left="0"
 fit-margin-right="0"
 fit-margin-bottom="0"
 units="px" />
<metadata
 id="metadata5">
<rdf:RDF>
<cc:Work
 rdf:about="">
<dc:format>image/svg+xml</dc:format>
<dc:type
 rdf:resource="http://purl.org/dc/dcmitype/StillImage" />
<dc:title></dc:title>
</cc:Work>
</rdf:RDF>
</metadata>
<g
 inkscape:label="Layer 1"
 inkscape:groupmode="layer"
 id="layer1"
 transform="translate(-153.67983,-288.92618)">
<g
 id="g1594"
 transform="matrix(0.11877132,0,0,0.11877132,149.46081,296.57039)"
 inkscape:export-filename="/home/vivek/Desktop/g1594.png"
 inkscape:export-xdpi="96"
 inkscape:export-ydpi="96">
<g
 transform="matrix(1.8901655,0,0,1.6261911,-393.84861,13.989095)"
 id="g1552">
<g
 transform="matrix(1.2156578,0,0,1.2156578,-58.566843,8.7825789)"
 style="stroke:#ffffff;stroke-width:11.72302055;stroke-miterlimit:4;stroke-dasharray:none;stroke-opacity:0.97326199"
 id="g1559">
<circle
 r="49.514877"
 cy="14.651785"
 cx="326.9494"
 id="path1524"
 style="opacity:1;fill:#000000;fill-opacity:1;stroke:#ffffff;stroke-width:11.72302055;stroke-linejoin:bevel;stroke-miterlimit:4;stroke-dasharray:none;stroke-dashoffset:0;stroke-opacity:0.97326199" />
<path
 sodipodi:nodetypes="ccc"
 inkscape:connector-curvature="0"
 id="path1528"
 d="m 280.98325,33.173138 c 19.53968,34.417826 30.54077,82.164442 46.18257,119.439352 17.43516,-45.6004 40.94563,-98.649518 48.54216,-133.802361"
 style="fill:#000000;fill-opacity:1;stroke:#ffffff;stroke-width:11.72302055;stroke-linecap:butt;stroke-linejoin:miter;stroke-miterlimit:4;stroke-dasharray:none;stroke-opacity:0.97326199" />
<ellipse
 ry="22.019657"
 rx="21.097246"
 cy="13.614907"
 cx="326.50201"
 id="path1530"
 style="opacity:1;fill:#ff0000;fill-opacity:1;stroke:#ffffff;stroke-width:11.72302055;stroke-linejoin:bevel;stroke-miterlimit:4;stroke-dasharray:none;stroke-dashoffset:0;stroke-opacity:0.97326199" />
</g>
</g>
<g
 style="stroke:#ff1212;stroke-opacity:0.97326199"
 transform="matrix(0.42508895,0,0,0.42701368,209.49418,-0.48104262)"
 id="g1547">
<path
 id="path1404-6"
 style="opacity:1;fill:#fd7ab1;fill-opacity:1;stroke:#ff1212;stroke-width:1.19575298;stroke-linecap:butt;stroke-linejoin:miter;stroke-miterlimit:4;stroke-dasharray:none;stroke-opacity:0.97326199"
 d="m 121.90737,160.70736 c 0.4366,16.00814 2.19836,50.05431 2.19836,50.05431 l -25.595835,5.14749 -2.554285,-37.64215 c 0.304967,0.11121 0.670146,0.0742 1.091387,-0.0465 0.09563,-0.0497 0.193897,-0.0915 0.28665,-0.14883 0.02917,-0.018 0.04567,-0.062 0.07647,-0.0754 0.373251,-0.16219 0.792646,-0.23583 1.135268,-0.49455 0.472769,0.057 1.000243,0.0666 1.425333,-0.17828 0.03783,-0.005 0.07949,-0.0104 0.106392,-0.0139 0.44036,-0.0576 0.65229,-0.18404 0.97736,-0.48215 0.0175,-0.016 0.0132,-0.0544 0.0304,-0.0708 0.0511,-0.0489 0.11232,-0.0792 0.16845,-0.11886 0.1549,-0.0848 0.31327,-0.16028 0.46441,-0.25476 0.0954,-0.0597 0.18631,-0.1311 0.27357,-0.20723 0.007,-0.007 -0.005,-0.0301 0.003,-0.0346 0.37386,-0.19252 0.76249,-0.32938 1.11628,-0.58498 0.0123,-0.17401 -0.0101,-0.0666 0.27148,-0.185 0.21621,-0.0908 0.4397,-0.15683 0.65186,-0.26096 0.33214,-0.16308 0.6108,-0.52303 0.97739,-0.59428 0.46599,-0.34922 0.7153,-0.54695 1.18845,-0.75448 0.16429,-0.0859 0.33379,-0.15805 0.49271,-0.25786 0.53489,-0.33595 0.19242,-0.18209 0.57503,-0.45889 0.34814,-0.25187 0.71697,-0.46273 1.04831,-0.75034 1.0855,-0.71923 2.14506,-1.53254 2.9908,-2.64894 0.11335,-0.12175 0.42441,-0.45211 0.55097,-0.51263 0.47453,-0.22695 1.00298,-0.29183 1.40508,-0.72295 0.1807,-0.16127 0.34462,-0.35021 0.53111,-0.50126 0.47343,-0.38342 1.00213,-0.64349 1.56085,-0.76275 0.2442,-0.0965 0.49726,-0.16389 0.7325,-0.28939 0.54296,-0.28967 0.98548,-0.85129 1.43588,-1.29914 0.28926,-0.22036 0.47975,-0.35363 0.76037,-0.63769 0.37599,-0.38062 0.68696,-0.86922 1.08968,-1.21543 0.41698,-0.56247 -0.0286,-5.3e-4 0.76459,-0.75654 0.62632,-0.59689 1.25577,-1.27418 1.67441,-2.1053 0.0568,-0.0789 0.0571,-0.0825 0.095,-0.13487 z"
 inkscape:connector-curvature="0" />
<circle
 style="opacity:1;fill:#fd7ab1;fill-opacity:1;stroke:#ff1212;stroke-width:1.86894596;stroke-linejoin:bevel;stroke-miterlimit:4;stroke-dasharray:none;stroke-dashoffset:0;stroke-opacity:0.97326199"
 id="path1350"
 cx="44.601204"
 cy="118.97321"
 r="87.03949" />
<path
 id="path1404"
 style="opacity:1;fill:#fd7ab1;fill-opacity:1;stroke:#ff1212;stroke-width:1.32291663;stroke-linecap:butt;stroke-linejoin:miter;stroke-miterlimit:4;stroke-dasharray:none;stroke-opacity:0.97326199"
 d="m -23.930964,165.58089 c -0.534403,16.00814 -2.690791,50.05431 -2.690791,50.05431 l 31.3293408,5.14749 3.1264489,-37.64215 c -0.3732741,0.11121 -0.8202612,0.0742 -1.3358547,-0.0465 -0.1170517,-0.0497 -0.2373313,-0.0915 -0.350864,-0.14883 -0.035719,-0.018 -0.055854,-0.062 -0.093557,-0.0754 -0.456856,-0.16219 -0.9702006,-0.23583 -1.3895651,-0.49455 -0.5786703,0.057 -1.2243065,0.0666 -1.7446096,-0.17828 -0.046329,-0.005 -0.097261,-0.0104 -0.1302279,-0.0139 -0.5390092,-0.0576 -0.7984067,-0.18404 -1.1962871,-0.48215 -0.021431,-0.016 -0.01614,-0.0544 -0.037227,-0.0708 -0.062494,-0.0489 -0.1374775,-0.0792 -0.2061898,-0.11886 -0.1896004,-0.0848 -0.38343417,-0.16028 -0.56843083,-0.25476 -0.11681354,-0.0597 -0.22804438,-0.1311 -0.33485667,-0.20723 -0.008996,-0.007 0.005821,-0.0301 -0.004233,-0.0346 -0.45759687,-0.19252 -0.93329125,-0.32938 -1.36633485,-0.58498 -0.015081,-0.17401 0.012436,-0.0666 -0.33229015,-0.185 -0.2646362,-0.0908 -0.5381889,-0.15683 -0.7978774,-0.26096 -0.4065323,-0.16308 -0.7476067,-0.52303 -1.1963136,-0.59428 -0.5703887,-0.34922 -0.8755327,-0.54695 -1.4546791,-0.75448 -0.2010834,-0.0859 -0.4085431,-0.15805 -0.6030648,-0.25786 -0.6547115,-0.33595 -0.2355321,-0.18209 -0.7038446,-0.45889 -0.4261114,-0.25187 -0.87757,-0.46273 -1.2831233,-0.75034 -1.3286581,-0.71923 -2.6255658,-1.53254 -3.6607482,-2.64894 -0.138748,-0.12175 -0.519483,-0.45211 -0.674397,-0.51263 -0.580787,-0.22695 -1.227608,-0.29183 -1.719778,-0.72295 -0.221181,-0.16127 -0.42182,-0.35021 -0.650089,-0.50126 -0.579472,-0.38342 -1.226619,-0.64349 -1.91048,-0.76275 -0.2989,-0.0965 -0.608655,-0.16389 -0.896585,-0.28939 -0.664581,-0.28967 -1.206225,-0.85129 -1.757516,-1.29914 -0.35406,-0.22036 -0.587222,-0.35363 -0.930693,-0.63769 -0.460219,-0.38062 -0.840838,-0.86922 -1.333768,-1.21543 -0.510389,-0.56247 0.035,-5.3e-4 -0.93586,-0.75654 -0.76662,-0.59689 -1.537068,-1.27418 -2.049486,-2.1053 -0.0695,-0.0789 -0.06994,-0.0825 -0.116274,-0.13487 z"
 inkscape:connector-curvature="0" />
<g
 style="stroke:#ff1212;stroke-opacity:0.97326199"
 id="g1372"
 transform="translate(103.56548,-36.285714)">
<g
 style="stroke:#ff1212;stroke-opacity:0.97326199"
 id="g1400"
 transform="translate(49.136905,-2.2678571)">
<path
 style="fill:#fd7ab1;fill-opacity:1;stroke:#ff1212;stroke-width:1.46577048;stroke-linecap:butt;stroke-linejoin:miter;stroke-miterlimit:4;stroke-dasharray:none;stroke-opacity:0.97326199"
 d="M -80.186124,175.66964 C -157.27517,146.97152 -111.39044,54.890889 -66.145831,111.79167"
 id="path1276"
 inkscape:connector-curvature="0"
 sodipodi:nodetypes="cc" />
<path
 style="fill:#fd7ab1;fill-opacity:1;stroke:#ff1212;stroke-width:1.32429886;stroke-linecap:butt;stroke-linejoin:miter;stroke-miterlimit:4;stroke-dasharray:none;stroke-opacity:0.97326199"
 d="M 17.45991,151.78189 C 93.166244,127.92829 48.104525,51.39176 3.6714493,98.687138"
 id="path1276-3"
 inkscape:connector-curvature="0"
 sodipodi:nodetypes="cc" />
<path
 style="fill:#fc3385;fill-opacity:1;stroke:#ff1212;stroke-width:0.92884898;stroke-linecap:butt;stroke-linejoin:miter;stroke-miterlimit:4;stroke-dasharray:none;stroke-opacity:0.97326199"
 d="m -85.794249,158.9123 c -48.850811,-18.18581 -19.773961,-76.536692 8.897244,-40.47905"
 id="path1276-6"
 inkscape:connector-curvature="0"
 sodipodi:nodetypes="cc" />
<ellipse
 style="opacity:1;fill:#fd7ab1;fill-opacity:1;stroke:#ff1212;stroke-width:1.21478677;stroke-linejoin:bevel;stroke-miterlimit:4;stroke-dasharray:none;stroke-dashoffset:0;stroke-opacity:0.97326199"
 id="path817"
 cx="-19.428402"
 cy="146.56548"
 rx="71.215736"
 ry="68.089775" />
<path
 sodipodi:type="spiral"
 style="fill:#fd7ab1;fill-opacity:1;fill-rule:evenodd;stroke:#ff1212;stroke-width:1.29245746;stroke-miterlimit:4;stroke-dasharray:none;stroke-opacity:0.97326199"
 id="path1274"
 sodipodi:cx="38.65247"
 sodipodi:cy="138.31067"
 sodipodi:expansion="8.1800003"
 sodipodi:revolution="5.4499998"
 sodipodi:radius="44.961994"
 sodipodi:argument="-18.256998"
 sodipodi:t0="0.094999999"
 d="m 38.652469,138.31067 c 0,0 2e-6,0 4e-6,0 1.8e-5,-10e-6 3.2e-5,2e-5 3.4e-5,3e-5 2.5e-5,1.2e-4 -1.41e-4,1.9e-4 -2.29e-4,1.9e-4 -5.35e-4,6e-5 -7.91e-4,-6.4e-4 -7.93e-4,-0.001 -1e-5,-0.002 0.0024,-0.003 0.0039,-0.003 0.0057,3.9e-4 0.0078,0.007 0.0072,0.012 -0.002,0.0148 -0.01986,0.02 -0.03245,0.0177 -0.03492,-0.006 -0.04651,-0.0486 -0.03953,-0.0789 0.01751,-0.0759 0.109326,-0.0997 0.175855,-0.0817 0.154024,0.0417 0.200062,0.22885 0.158287,0.36545 -0.09033,0.29535 -0.451206,0.37996 -0.715684,0.29085 -0.539602,-0.18179 -0.688433,-0.84527 -0.510792,-1.33249 0.344772,-0.94561 1.515266,-1.19772 2.375234,-0.86279 1.598133,0.62242 2.011324,2.61406 1.408889,4.07662 -1.077686,2.61635 -4.360246,3.27414 -6.767955,2.2334 -4.164368,-1.80006 -5.18487,-7.05924 -3.448783,-10.91041 2.913929,-6.46399 11.129334,-8.0111 17.13349,-5.20262 9.810068,4.58872 12.107375,17.13325 7.685748,26.28145 C 49.033632,167.70474 30.26882,171.05264 16.615804,164.2577 2.437939,157.20155 -5.2591097,141.44672 -4.578357,125.95443"
 transform="matrix(1.3010359,-0.29941114,0.35490105,1.299741,-60.325446,-7.2590914)" />
<circle
 style="opacity:1;fill:#000000;fill-opacity:0.79679141;stroke:#ff1212;stroke-width:1.32291663;stroke-linejoin:bevel;stroke-miterlimit:4;stroke-dasharray:none;stroke-dashoffset:0;stroke-opacity:0.97326199"
 id="path1314"
 cx="-19.843748"
 cy="121.80803"
 r="5.4806542" />
<ellipse
 style="opacity:1;fill:#000000;fill-opacity:0.79679141;stroke:#ff1212;stroke-width:1.20865691;stroke-linejoin:bevel;stroke-miterlimit:4;stroke-dasharray:none;stroke-dashoffset:0;stroke-opacity:0.97326199"
 id="path1314-7"
 cx="9.4494038"
 cy="121.43005"
 rx="5.1026783"
 ry="4.9136906" />
<circle
 style="opacity:1;fill:#ffffff;fill-opacity:1;stroke:#ff1212;stroke-width:1.32291663;stroke-linejoin:bevel;stroke-miterlimit:4;stroke-dasharray:none;stroke-dashoffset:0;stroke-opacity:0.97326199"
 id="path1333"
 cx="-18.520834"
 cy="120.10714"
 r="3.0238097" />
<circle
 style="opacity:1;fill:#ffffff;fill-opacity:1;stroke:#ff1212;stroke-width:1.32291663;stroke-linejoin:bevel;stroke-miterlimit:4;stroke-dasharray:none;stroke-dashoffset:0;stroke-opacity:0.97326199"
 id="path1333-5"
 cx="10.961309"
 cy="119.72916"
 r="3.0238097" />
</g>
</g>
<path
 id="path1404-5"
 style="opacity:1;fill:#fd7ab1;fill-opacity:1;stroke:#ff1212;stroke-width:1.21601939;stroke-linecap:butt;stroke-linejoin:miter;stroke-miterlimit:4;stroke-dasharray:none;stroke-opacity:0.97326199"
 d="m 83.224687,170.1135 c 0.450278,16.05249 2.267223,50.19298 2.267223,50.19298 l -26.39768,5.16175 -2.634305,-37.74644 c 0.314513,0.11152 0.69114,0.0744 1.12557,-0.0466 0.09863,-0.0498 0.199971,-0.0918 0.295638,-0.14925 0.03008,-0.0181 0.0471,-0.0622 0.07887,-0.0756 0.384936,-0.16264 0.817478,-0.23648 1.170825,-0.49592 0.487579,0.0572 1.031587,0.0668 1.469985,-0.17877 0.03901,-0.005 0.08198,-0.0104 0.10973,-0.0139 0.454162,-0.0578 0.672729,-0.18455 1.007978,-0.48348 0.01803,-0.0161 0.01356,-0.0546 0.03134,-0.071 0.05266,-0.049 0.115839,-0.0794 0.173733,-0.11919 0.159754,-0.085 0.323073,-0.16072 0.478951,-0.25547 0.09842,-0.0599 0.192144,-0.13146 0.282149,-0.2078 0.0076,-0.007 -0.0051,-0.0302 0.0034,-0.0347 0.385559,-0.19305 0.786378,-0.33029 1.151252,-0.5866 0.01272,-0.17449 -0.01045,-0.0668 0.279983,-0.18551 0.222982,-0.091 0.453471,-0.15726 0.672283,-0.26168 0.342536,-0.16353 0.629917,-0.52448 1.007994,-0.59593 0.480603,-0.35019 0.73771,-0.54846 1.225694,-0.75657 0.169428,-0.0861 0.344231,-0.15849 0.508139,-0.25857 0.55165,-0.33688 0.198454,-0.1826 0.593046,-0.46016 0.359035,-0.25257 0.739429,-0.46402 1.08114,-0.75242 1.119511,-0.72122 2.21227,-1.53679 3.084499,-2.65628 0.116909,-0.12209 0.437707,-0.45336 0.56824,-0.51405 0.489383,-0.22758 1.034385,-0.29264 1.449081,-0.72495 0.186363,-0.16172 0.355419,-0.35118 0.547757,-0.50265 0.488253,-0.38448 1.033532,-0.64528 1.609743,-0.76487 0.251849,-0.0968 0.512849,-0.16434 0.755455,-0.29019 0.559966,-0.29047 1.016344,-0.85365 1.480854,-1.30274 0.298326,-0.22097 0.494784,-0.35461 0.784195,-0.63945 0.387767,-0.38168 0.708472,-0.87163 1.123809,-1.2188 0.430047,-0.56403 -0.02949,-5.3e-4 0.788543,-0.75864 0.645943,-0.59854 1.295114,-1.27771 1.726872,-2.11113 0.05856,-0.0791 0.0589,-0.0827 0.09797,-0.13524 z"
 inkscape:connector-curvature="0" />
</g>
<flowRoot
 transform="matrix(0.25915923,0,0,0.24965504,329.44165,81.964745)"
 style="font-style:normal;font-variant:normal;font-weight:normal;font-stretch:normal;font-size:40px;line-height:1.25;font-family:'Open 24 Display St';-inkscape-font-specification:'Open 24 Display St';letter-spacing:0px;word-spacing:0px;fill:#000000;fill-opacity:1;stroke:none"
 id="flowRoot1561"
 xml:space="preserve"><flowRegion
 style="font-style:normal;font-variant:normal;font-weight:normal;font-stretch:normal;font-family:'Open 24 Display St';-inkscape-font-specification:'Open 24 Display St'"
 id="flowRegion1563"><rect
 style="font-style:normal;font-variant:normal;font-weight:normal;font-stretch:normal;font-family:'Open 24 Display St';-inkscape-font-specification:'Open 24 Display St'"
 y="189.13873"
 x="-472.7514"
 height="299.00516"
 width="941.46216"
 id="rect1565" /></flowRegion><flowPara
 style="font-style:normal;font-variant:normal;font-weight:normal;font-stretch:normal;font-size:192px;font-family:'Open 24 Display St';-inkscape-font-specification:'Open 24 Display St';fill:#ffffff"
 id="flowPara1567">ELLY</flowPara></flowRoot></g>
</g>
</svg>
