<?xml version="1.0" encoding="UTF-8" standalone="no" ?>
<!DOCTYPE svg PUBLIC "-//W3C//DTD SVG 1.1//EN" "http://www.w3.org/Graphics/SVG/1.1/DTD/svg11.dtd">
<svg xmlns="http://www.w3.org/2000/svg" xmlns:xlink="http://www.w3.org/1999/xlink" version="1.1" width="230.32998779296872" height="165.3188" xml:space="preserve">
<desc>Created with Fabric.js 1.6.0-rc.1</desc>
<defs></defs>
<g style="stroke: none; stroke-width: 1; stroke-dasharray: none; stroke-linecap: butt; stroke-linejoin: miter; stroke-miterlimit: 10; fill: none; fill-rule: nonzero; opacity: 1;" transform="translate(10 57.05000000000001) scale(0.28 0.28)" >
  <path d="M 137.124 232.286 h -42 c -7.7 0 -14 6.3 -14 14 v 89.672 c 0 7.7 6.3 14 14 14 h 56 V 246.286 C 151.124 238.586 144.825 232.286 137.124 232.286 z" style="stroke: none; stroke-width: 1; stroke-dasharray: none; stroke-linecap: butt; stroke-linejoin: miter; stroke-miterlimit: 10; fill: #4A5159; fill-rule: nonzero; opacity: 1;" transform=" matrix(1 0 0 1 0 0) " stroke-linecap="round" />
  <path d="M 142.041 340.459 v 9.499 h 9.083 v -18.583 C 146.108 331.375 142.041 335.442 142.041 340.459 z" style="stroke: none; stroke-width: 1; stroke-dasharray: none; stroke-linecap: butt; stroke-linejoin: miter; stroke-miterlimit: 10; fill: #A4A9AD; fill-rule: nonzero; opacity: 1;" transform=" matrix(1 0 0 1 0 0) " stroke-linecap="round" />
  <path d="M 137.808 313.047 c -1.632 0 -2.956 1.323 -2.956 2.956 c 0 1.632 1.323 2.955 2.956 2.955 h 13.316 v -5.911 L 137.808 313.047 L 137.808 313.047 z" style="stroke: none; stroke-width: 1; stroke-dasharray: none; stroke-linecap: butt; stroke-linejoin: miter; stroke-miterlimit: 10; fill: #7D868C; fill-rule: nonzero; opacity: 1;" transform=" matrix(1 0 0 1 0 0) " stroke-linecap="round" />
  <path d="M 276.147 232.286 h -42 c -7.7 0 -14 6.3 -14 14 v 89.672 c 0 7.7 6.3 14 14 14 h 56 V 246.286 C 290.147 238.586 283.848 232.286 276.147 232.286 z" style="stroke: none; stroke-width: 1; stroke-dasharray: none; stroke-linecap: butt; stroke-linejoin: miter; stroke-miterlimit: 10; fill: #4A5159; fill-rule: nonzero; opacity: 1;" transform=" matrix(1 0 0 1 0 0) " stroke-linecap="round" />
  <path d="M 281.064 340.459 v 9.499 h 9.083 v -18.583 C 285.131 331.375 281.064 335.442 281.064 340.459 z" style="stroke: none; stroke-width: 1; stroke-dasharray: none; stroke-linecap: butt; stroke-linejoin: miter; stroke-miterlimit: 10; fill: #A4A9AD; fill-rule: nonzero; opacity: 1;" transform=" matrix(1 0 0 1 0 0) " stroke-linecap="round" />
  <path d="M 276.831 313.047 c -1.632 0 -2.956 1.323 -2.956 2.956 c 0 1.632 1.323 2.955 2.956 2.955 h 13.316 v -5.911 L 276.831 313.047 L 276.831 313.047 z" style="stroke: none; stroke-width: 1; stroke-dasharray: none; stroke-linecap: butt; stroke-linejoin: miter; stroke-miterlimit: 10; fill: #7D868C; fill-rule: nonzero; opacity: 1;" transform=" matrix(1 0 0 1 0 0) " stroke-linecap="round" />
  <path d="M 4.5 180.552 c -2.485 0 -4.5 -2.015 -4.5 -4.5 c 0 -33.337 27.122 -60.459 60.458 -60.459 c 2.485 0 4.5 2.015 4.5 4.5 s -2.015 4.5 -4.5 4.5 C 32.084 124.593 9 147.677 9 176.052 C 9 178.537 6.985 180.552 4.5 180.552 z" style="stroke: none; stroke-width: 1; stroke-dasharray: none; stroke-linecap: butt; stroke-linejoin: miter; stroke-miterlimit: 10; fill: #0e1119; fill-rule: nonzero; opacity: 1;" transform=" matrix(1 0 0 1 0 0) " stroke-linecap="round" />
  <path d="M 193.032 78.896 h -57.408 c -61.027 0 -110.5 49.473 -110.5 110.5 s 49.473 110.5 110.5 110.5 h 57.408 c 61.027 0 110.5 -49.473 110.5 -110.5 C 303.532 128.369 254.06 78.896 193.032 78.896 z" style="stroke: none; stroke-width: 1; stroke-dasharray: none; stroke-linecap: butt; stroke-linejoin: miter; stroke-miterlimit: 10; fill: #0e1119; fill-rule: nonzero; opacity: 1;" transform=" matrix(1 0 0 1 0 0) " stroke-linecap="round" />
  <path d="M 111.124 232.286 h -42 c -7.7 0 -14 6.3 -14 14 v 89.672 c 0 7.7 6.3 14 14 14 h 56 V 246.286 C 125.124 238.586 118.825 232.286 111.124 232.286 z" style="stroke: none; stroke-width: 1; stroke-dasharray: none; stroke-linecap: butt; stroke-linejoin: miter; stroke-miterlimit: 10; fill: #0e1119; fill-rule: nonzero; opacity: 1;" transform=" matrix(1 0 0 1 0 0) " stroke-linecap="round" />
  <path d="M 116.041 340.459 v 9.499 h 9.083 v -18.583 C 120.108 331.375 116.041 335.442 116.041 340.459 z" style="stroke: none; stroke-width: 1; stroke-dasharray: none; stroke-linecap: butt; stroke-linejoin: miter; stroke-miterlimit: 10; fill: #A4A9AD; fill-rule: nonzero; opacity: 1;" transform=" matrix(1 0 0 1 0 0) " stroke-linecap="round" />
  <path d="M 111.808 313.047 c -1.632 0 -2.956 1.323 -2.956 2.956 c 0 1.632 1.323 2.955 2.956 2.955 h 13.316 v -5.911 L 111.808 313.047 L 111.808 313.047 z" style="stroke: none; stroke-width: 1; stroke-dasharray: none; stroke-linecap: butt; stroke-linejoin: miter; stroke-miterlimit: 10; fill: #7D868C; fill-rule: nonzero; opacity: 1;" transform=" matrix(1 0 0 1 0 0) " stroke-linecap="round" />
  <path d="M 250.147 232.286 h -42 c -7.7 0 -14 6.3 -14 14 v 89.672 c 0 7.7 6.3 14 14 14 h 56 V 246.286 C 264.147 238.586 257.848 232.286 250.147 232.286 z" style="stroke: none; stroke-width: 1; stroke-dasharray: none; stroke-linecap: butt; stroke-linejoin: miter; stroke-miterlimit: 10; fill: #0e1119; fill-rule: nonzero; opacity: 1;" transform=" matrix(1 0 0 1 0 0) " stroke-linecap="round" />
  <path d="M 255.064 340.459 v 9.499 h 9.083 v -18.583 C 259.131 331.375 255.064 335.442 255.064 340.459 z" style="stroke: none; stroke-width: 1; stroke-dasharray: none; stroke-linecap: butt; stroke-linejoin: miter; stroke-miterlimit: 10; fill: #A4A9AD; fill-rule: nonzero; opacity: 1;" transform=" matrix(1 0 0 1 0 0) " stroke-linecap="round" />
  <path d="M 250.831 313.047 c -1.632 0 -2.956 1.323 -2.956 2.956 c 0 1.632 1.323 2.955 2.956 2.955 h 13.316 v -5.911 L 250.831 313.047 L 250.831 313.047 z" style="stroke: none; stroke-width: 1; stroke-dasharray: none; stroke-linecap: butt; stroke-linejoin: miter; stroke-miterlimit: 10; fill: #7D868C; fill-rule: nonzero; opacity: 1;" transform=" matrix(1 0 0 1 0 0) " stroke-linecap="round" />
  <path d="M 412.176 222.958 c -9.113 0 -16.5 7.388 -16.5 16.5 c 0 11.212 -9.122 20.333 -20.333 20.333 s -20.333 -9.121 -20.333 -20.333 v -59.819 c 0.115 -1.42 0.189 -2.851 0.189 -4.3 v -27.362 c 0 -21.991 -13.483 -40.825 -32.629 -48.71 c -9.63 -12.493 -24.733 -20.549 -41.727 -20.549 h -27.362 c -29.087 0 -52.667 23.579 -52.667 52.667 v 96.621 h 101.718 c 6.883 0 13.451 -1.335 19.478 -3.735 v 15.188 c 0 29.408 23.925 53.333 53.333 53.333 c 29.408 0 53.333 -23.925 53.333 -53.333 C 428.676 230.346 421.289 222.958 412.176 222.958 z" style="stroke: none; stroke-width: 1; stroke-dasharray: none; stroke-linecap: butt; stroke-linejoin: miter; stroke-miterlimit: 10; fill: #0e1119; fill-rule: nonzero; opacity: 1;" transform=" matrix(1 0 0 1 0 0) " stroke-linecap="round" />
  <path d="M 338.51 196.605 c 0 1.632 1.323 2.956 2.956 2.956 h 13.316 v -5.912 h -13.316 C 339.833 193.649 338.51 194.973 338.51 196.605 z M 338.51 235.811 c 0 1.633 1.323 2.955 2.956 2.955 h 13.316 v -5.91 h -13.316 C 339.833 232.855 338.51 234.179 338.51 235.811 z M 341.465 174.047 c -1.632 0 -2.956 1.323 -2.956 2.956 c 0 1.632 1.323 2.955 2.956 2.955 h 13.316 v -5.911 H 341.465 z M 338.51 216.208 c 0 1.633 1.323 2.955 2.956 2.955 h 13.316 v -5.91 h -13.316 C 339.833 213.253 338.51 214.575 338.51 216.208 z" style="stroke: none; stroke-width: 1; stroke-dasharray: none; stroke-linecap: butt; stroke-linejoin: miter; stroke-miterlimit: 10; fill: #7D868C; fill-rule: nonzero; opacity: 1;" transform=" matrix(1 0 0 1 0 0) " stroke-linecap="round" />
  <path d="M 366.791 269.702 h -13.892 c -27.478 0 -49.833 -22.355 -49.833 -49.833 c 0 -7.18 5.82 -13 13 -13 s 13 5.82 13 13 c 0 13.142 10.691 23.833 23.833 23.833 h 13.892 c 7.18 0 13 5.82 13 13 S 373.971 269.702 366.791 269.702 z" style="stroke: none; stroke-width: 1; stroke-dasharray: none; stroke-linecap: butt; stroke-linejoin: miter; stroke-miterlimit: 10; fill: #FADF8D; fill-rule: nonzero; opacity: 1;" transform=" matrix(1 0 0 1 0 0) " stroke-linecap="round" />
  <circle cx="313.875" cy="146.385" r="7.375" style="stroke: none; stroke-width: 1; stroke-dasharray: none; stroke-linecap: butt; stroke-linejoin: miter; stroke-miterlimit: 10; fill: #333E48; fill-rule: nonzero; opacity: 1;" transform="  matrix(1 0 0 1 0 0) "/>
  <path d="M 176.465 192.017 c -0.001 19.721 15.985 35.706 35.706 35.706 c 19.719 0 35.705 -15.986 35.704 -35.706 l 0.001 -91.052 c -39.438 0 -71.41 31.972 -71.41 71.409 L 176.465 192.017 z" style="stroke: none; stroke-width: 1; stroke-dasharray: none; stroke-linecap: butt; stroke-linejoin: miter; stroke-miterlimit: 10; fill: #A4A9AD; fill-rule: nonzero; opacity: 1;" transform=" matrix(1 0 0 1 0 0) " stroke-linecap="round" />
</g>
  <g transform="translate(138.38 97.96) rotate(316.54)">
   <text font-family="Broad" font-size="40" font-weight="normal" style="stroke: none; stroke-width: 1; stroke-dasharray: none; stroke-linecap: butt; stroke-linejoin: miter; stroke-miterlimit: 10; fill: #000000; fill-rule: nonzero; opacity: 1;" ><tspan x="-13.46" y="8.98" style="stroke: none; stroke-width: 0; stroke-dasharray: none; stroke-linecap: butt; stroke-linejoin: miter; stroke-miterlimit: 4; fill: #000000; fill-rule: ; opacity: 1;">E</tspan></text>
 </g>
  <g transform="translate(159.37 70.89) rotate(309.68)">
   <text font-family="Broad" font-size="40" font-weight="normal" style="stroke: none; stroke-width: 1; stroke-dasharray: none; stroke-linecap: butt; stroke-linejoin: miter; stroke-miterlimit: 10; fill: #000000; fill-rule: nonzero; opacity: 1;" ><tspan x="-12.56" y="8.98" style="stroke: none; stroke-width: 0; stroke-dasharray: none; stroke-linecap: butt; stroke-linejoin: miter; stroke-miterlimit: 4; fill: #000000; fill-rule: ; opacity: 1;">L</tspan></text>
 </g>
  <g transform="translate(181.37 47.89) rotate(324.35)">
   <text font-family="Broad" font-size="40" font-weight="normal" style="stroke: none; stroke-width: 1; stroke-dasharray: none; stroke-linecap: butt; stroke-linejoin: miter; stroke-miterlimit: 10; fill: #000000; fill-rule: nonzero; opacity: 1;" ><tspan x="-12.56" y="8.98" style="stroke: none; stroke-width: 0; stroke-dasharray: none; stroke-linecap: butt; stroke-linejoin: miter; stroke-miterlimit: 4; fill: #000000; fill-rule: ; opacity: 1;">L</tspan></text>
 </g>
  <g transform="translate(213.9 26.36) rotate(333.94)">
   <text font-family="Broad" font-size="40" font-weight="normal" style="stroke: none; stroke-width: 1; stroke-dasharray: none; stroke-linecap: butt; stroke-linejoin: miter; stroke-miterlimit: 10; fill: #000000; fill-rule: nonzero; opacity: 1;" ><tspan x="-16.9" y="8.98" style="stroke: none; stroke-width: 0; stroke-dasharray: none; stroke-linecap: butt; stroke-linejoin: miter; stroke-miterlimit: 4; fill: #000000; fill-rule: ; opacity: 1;">Y</tspan></text>
 </g>
</svg>