<svg id="svg" version="1.1" xmlns="http://www.w3.org/2000/svg" xmlns:xlink="http://www.w3.org/1999/xlink" width="400" height="411.68451801363193" viewBox="0, 0, 400,411.68451801363193"><g id="svgg"><path id="path0" d="M151.509 115.150 C 124.317 117.696,102.639 133.374,93.159 157.352 C 90.690 163.595,88.348 178.125,89.020 183.033 C 91.364 200.172,98.205 217.911,108.856 234.469 C 116.995 247.122,121.705 253.556,132.660 266.991 C 136.480 271.676,153.582 290.220,155.219 291.453 C 156.503 292.419,156.665 292.301,163.072 285.739 C 166.111 282.626,169.266 279.653,170.083 279.131 C 172.271 277.733,182.472 266.805,185.537 262.574 C 185.994 261.943,187.612 259.962,189.132 258.172 C 200.349 244.960,212.389 225.815,218.460 211.536 C 222.308 202.484,225.389 191.991,224.717 190.223 C 224.483 189.606,224.555 188.188,224.929 186.074 C 226.608 176.579,223.948 162.076,218.588 151.509 C 206.574 127.822,178.529 112.621,151.509 115.150 M166.589 135.533 C 184.324 139.422,197.832 154.195,200.217 172.310 C 200.734 176.235,200.563 182.083,199.897 183.252 C 199.653 183.681,199.009 185.825,198.466 188.018 C 194.893 202.449,183.854 214.123,169.503 218.649 C 167.724 219.210,165.969 219.669,165.602 219.669 C 165.235 219.669,164.236 220.058,163.383 220.533 C 162.011 221.297,161.310 221.391,157.352 221.344 C 130.466 221.025,110.598 198.344,114.089 171.957 C 115.546 160.947,123.302 147.886,130.729 143.937 C 131.769 143.384,134.197 141.974,136.125 140.804 C 141.518 137.531,142.345 137.133,145.980 136.070 C 152.170 134.258,159.862 134.058,166.589 135.533 " stroke="none" fill="#ea3814" fill-rule="evenodd"></path><path id="path1" d="M0.000 205.842 L 0.000 411.685 200.000 411.685 L 400.000 411.685 400.000 205.842 L 400.000 0.000 200.000 0.000 L 0.000 0.000 0.000 205.842 M166.783 113.929 C 193.609 117.528,215.391 134.863,223.767 159.279 C 226.449 167.099,227.878 180.661,226.602 186.190 C 225.992 188.833,226.352 189.095,231.055 189.423 C 245.598 190.438,258.031 198.495,267.510 213.048 C 269.254 215.725,271.187 218.617,271.805 219.474 C 272.423 220.331,273.132 221.425,273.380 221.904 C 275.102 225.239,281.207 224.327,281.207 220.735 C 281.207 218.520,280.233 217.660,279.228 218.987 C 277.780 220.898,275.625 220.115,275.625 217.679 C 275.625 214.079,281.919 213.558,284.403 216.952 C 287.560 221.264,283.377 227.621,277.029 228.160 C 274.371 228.385,274.430 228.273,273.453 235.021 C 272.351 242.627,268.209 253.074,262.843 261.781 C 258.975 268.056,258.321 271.399,258.991 281.470 L 259.469 288.674 258.581 289.620 C 255.299 293.113,239.596 293.821,238.549 290.523 C 238.319 289.800,238.121 289.742,236.866 290.032 C 231.097 291.363,221.839 290.060,220.725 287.760 C 220.137 286.546,220.150 286.427,221.251 283.057 C 221.681 281.741,222.285 273.653,222.654 264.265 C 222.772 261.266,223.050 258.589,223.272 258.316 C 223.998 257.422,223.215 257.310,220.844 257.969 C 217.838 258.805,217.368 258.787,216.312 257.795 L 215.436 256.972 215.118 258.476 C 214.569 261.077,214.850 269.867,215.684 276.144 C 217.785 291.962,218.160 291.334,206.621 291.334 C 196.454 291.334,196.553 291.394,196.142 284.907 C 195.543 275.457,192.241 262.170,190.404 261.816 C 190.059 261.749,189.208 262.264,188.513 262.959 C 186.931 264.541,187.020 266.644,188.866 271.254 C 190.281 274.788,190.327 275.438,189.282 277.130 C 187.010 280.806,173.629 284.942,170.922 282.804 C 169.469 281.656,169.852 281.401,163.376 287.829 C 158.326 292.841,157.318 293.671,156.280 293.671 C 154.224 293.671,135.479 273.392,124.598 259.396 C 119.974 253.449,114.224 245.544,111.991 242.064 C 111.166 240.779,109.748 238.588,108.841 237.196 C 96.712 218.591,90.047 202.131,87.548 184.606 C 86.672 178.465,88.750 164.094,91.574 156.767 C 102.758 127.748,134.599 109.612,166.783 113.929 M152.678 136.297 C 150.157 136.556,144.158 137.979,143.208 138.544 C 143.034 138.648,143.934 139.676,145.208 140.829 C 149.027 144.284,148.775 146.650,144.047 151.744 C 137.159 159.165,135.126 162.390,134.865 166.310 C 134.379 173.634,141.864 176.106,153.349 172.415 C 167.721 167.796,178.648 170.970,185.009 181.612 C 186.648 184.355,187.356 184.589,190.644 183.479 C 192.013 183.016,194.301 182.394,195.729 182.095 C 199.255 181.357,199.421 180.901,198.706 173.905 C 196.344 150.788,175.716 133.934,152.678 136.297 M130.171 146.111 C 127.767 147.009,121.456 155.219,118.959 160.697 C 114.702 170.038,114.099 182.880,117.491 191.936 C 123.757 208.662,139.230 219.666,156.487 219.668 C 161.001 219.669,161.343 219.238,158.865 216.678 C 151.312 208.872,144.899 205.535,135.735 204.640 C 131.120 204.189,130.455 203.073,133.204 200.389 C 135.304 198.338,135.408 198.624,131.428 195.521 C 118.403 185.366,118.998 164.484,132.619 153.669 C 136.398 150.670,139.015 147.062,138.085 146.136 C 137.741 145.793,131.077 145.772,130.171 146.111 " stroke="none" fill="#fbfbf5" fill-rule="evenodd"></path><path id="path2" d="M135.027 141.407 C 132.501 142.994,132.808 143.483,136.480 143.720 C 143.492 144.172,142.218 148.228,132.461 156.511 C 129.498 159.026,125.813 164.932,125.032 168.418 C 122.560 179.447,125.340 188.053,133.470 194.538 C 137.470 197.729,137.809 198.648,135.805 200.875 C 134.750 202.047,134.834 202.093,139.898 203.104 C 147.753 204.673,151.756 207.012,159.354 214.474 L 164.667 219.692 166.365 219.426 C 176.711 217.803,191.025 206.357,195.288 196.297 C 195.696 195.334,196.429 193.633,196.916 192.516 C 197.404 191.398,198.026 189.153,198.300 187.525 C 198.998 183.370,198.863 183.321,192.069 185.249 C 186.425 186.851,185.844 186.659,183.028 182.269 C 177.147 173.101,167.942 170.400,154.964 174.034 C 147.433 176.143,143.602 176.683,140.635 176.053 C 129.641 173.720,130.513 160.775,142.354 150.536 C 145.689 147.651,146.428 144.724,144.321 142.737 C 141.551 140.124,137.902 139.602,135.027 141.407 M225.354 192.099 C 225.015 192.616,224.403 194.343,223.995 195.936 C 223.243 198.870,222.046 202.448,219.575 209.153 C 215.578 219.994,198.589 248.008,190.390 257.279 C 189.396 258.403,189.493 258.784,190.939 259.423 C 193.917 260.739,196.743 270.353,198.260 284.323 C 198.504 286.573,198.885 288.632,199.107 288.900 C 199.669 289.577,213.463 289.595,214.138 288.919 C 214.775 288.282,214.735 283.504,214.056 279.113 C 212.231 267.325,212.356 257.430,214.404 251.627 C 215.919 247.332,217.961 247.853,218.349 252.633 C 218.661 256.476,218.558 256.344,220.723 255.687 C 226.329 253.986,235.638 256.070,235.638 259.026 C 235.638 259.966,235.000 260.116,232.522 259.761 C 225.840 258.802,224.741 259.293,224.805 263.207 C 224.886 268.228,223.925 280.244,223.197 283.313 C 222.082 288.017,222.366 288.218,230.135 288.218 C 235.931 288.218,236.255 288.105,237.514 285.657 C 238.039 284.635,239.138 276.351,239.160 273.239 C 239.183 270.121,240.231 267.031,241.319 266.875 C 243.974 266.496,244.067 272.749,241.584 284.713 C 240.332 290.746,240.603 290.958,248.651 290.245 C 257.652 289.448,257.444 289.698,256.958 280.234 C 256.442 270.175,257.278 266.730,262.180 258.719 C 262.998 257.382,264.097 255.279,264.622 254.045 C 265.146 252.811,266.102 250.837,266.744 249.659 C 269.596 244.432,271.068 239.113,271.859 231.187 C 272.169 228.077,272.411 227.141,273.098 226.411 L 273.951 225.502 272.784 224.241 C 272.141 223.547,270.937 221.928,270.108 220.643 C 268.412 218.015,266.504 215.154,264.106 211.644 C 255.877 199.597,243.721 192.410,229.928 191.437 C 226.032 191.162,225.961 191.172,225.354 192.099 M181.851 267.478 C 175.734 273.832,171.762 278.522,171.762 279.391 C 171.762 281.901,175.516 281.883,181.754 279.342 C 187.812 276.875,188.461 275.979,186.988 272.119 C 186.484 270.798,185.792 268.710,185.449 267.478 C 185.107 266.246,184.642 265.239,184.417 265.239 C 184.191 265.239,183.037 266.246,181.851 267.478 " stroke="none" fill="#080808" fill-rule="evenodd"></path><path id="path3" d="M140.604 139.203 C 140.604 139.290,141.547 139.893,142.700 140.544 C 148.302 143.706,147.911 145.924,140.290 154.218 C 126.385 169.351,134.316 179.524,155.034 173.130 C 167.667 169.231,177.649 172.280,183.839 181.930 C 186.314 185.789,186.546 185.854,192.152 184.277 C 194.541 183.605,197.099 183.056,197.838 183.056 C 198.667 183.057,199.040 182.920,198.812 182.698 C 198.336 182.236,195.136 182.809,190.923 184.111 C 186.877 185.361,186.451 185.198,184.055 181.495 C 180.958 176.708,177.885 174.341,171.373 171.726 C 168.411 170.536,159.725 171.013,154.820 172.635 C 141.558 177.019,134.168 174.834,134.182 166.533 C 134.188 162.755,136.036 159.492,141.558 153.505 C 147.183 147.407,148.058 145.465,146.336 142.901 C 145.303 141.364,140.604 138.333,140.604 139.203 M131.646 144.909 C 131.999 145.150,133.352 145.211,135.069 145.063 C 141.736 144.489,140.523 148.022,131.474 155.542 C 119.399 165.576,119.882 184.875,132.471 195.413 C 135.948 198.323,136.083 198.737,134.162 200.599 C 131.889 202.802,132.324 203.391,136.655 203.969 C 146.295 205.257,153.594 209.347,160.078 217.096 C 162.208 219.641,163.552 220.643,162.093 218.598 C 156.188 210.319,143.903 203.311,135.296 203.311 C 133.413 203.311,133.197 202.393,134.710 200.832 C 136.402 199.086,136.332 197.806,134.469 196.426 C 120.489 186.069,119.253 166.885,131.860 155.937 C 136.996 151.478,138.283 150.163,139.032 148.616 C 140.680 145.212,139.949 144.496,134.831 144.505 C 132.137 144.509,131.228 144.624,131.646 144.909 M226.290 190.028 C 226.611 190.207,228.511 190.464,230.511 190.598 C 246.257 191.660,256.658 198.799,268.555 216.711 C 273.022 223.437,273.340 223.814,275.528 224.979 C 278.001 226.296,277.824 227.069,275.049 227.069 C 273.501 227.069,273.162 227.607,272.840 230.574 C 271.707 241.005,268.542 249.955,262.442 259.981 C 257.980 267.313,257.220 270.648,257.770 280.466 C 258.025 285.018,258.051 288.211,257.834 288.615 C 257.108 289.972,253.485 290.896,247.682 291.206 C 240.185 291.605,238.725 290.869,240.043 287.353 C 241.351 283.864,242.882 272.498,242.366 270.107 C 241.449 265.863,240.268 269.252,239.584 278.092 C 238.756 288.772,237.624 289.885,228.289 289.195 C 221.954 288.726,221.185 288.055,222.216 283.892 C 222.896 281.147,223.916 269.025,223.939 263.416 C 223.958 258.657,224.002 258.617,229.272 258.617 C 233.874 258.617,234.287 258.250,231.334 256.783 C 229.215 255.732,224.329 255.578,221.386 256.471 C 217.788 257.562,217.172 257.200,217.569 254.226 C 218.105 250.218,216.191 249.188,215.054 252.872 C 213.240 258.749,213.168 266.624,214.818 278.451 C 215.668 284.545,215.591 289.249,214.631 289.762 C 213.482 290.378,199.352 290.295,198.495 289.668 C 197.970 289.284,197.731 288.238,197.453 285.091 C 196.263 271.664,192.930 260.175,190.223 260.175 C 186.395 260.175,185.297 264.678,187.569 271.065 L 188.964 274.989 188.228 276.248 C 185.871 280.284,172.798 283.846,171.192 280.889 C 170.782 280.133,170.621 280.032,170.610 280.526 C 170.601 280.901,170.966 281.580,171.422 282.035 C 173.576 284.189,186.656 280.049,188.661 276.579 C 189.505 275.116,189.485 274.986,187.575 269.583 C 186.421 266.322,186.320 264.890,187.132 263.319 C 187.903 261.828,190.015 260.509,190.886 260.975 C 192.949 262.079,196.087 274.668,197.039 285.657 C 197.407 289.913,197.783 290.541,199.977 290.572 C 203.492 290.620,212.610 290.640,213.535 290.601 C 216.502 290.474,216.629 289.148,214.945 275.755 C 213.918 267.582,214.053 257.364,215.233 253.969 C 216.319 250.845,216.943 250.948,216.943 254.253 C 216.943 257.911,217.201 258.087,221.067 257.075 C 224.826 256.090,228.225 256.043,229.912 256.952 L 231.159 257.624 228.213 257.874 C 223.540 258.269,223.721 258.009,223.422 264.735 C 222.967 274.991,222.489 280.563,221.814 283.470 C 220.558 288.887,221.434 289.535,230.055 289.563 C 236.815 289.584,237.365 289.381,239.078 286.240 C 239.594 285.293,239.895 284.956,239.746 285.492 C 239.136 287.683,239.084 289.975,239.629 290.700 C 241.075 292.627,253.235 292.031,257.343 289.833 C 258.621 289.149,258.689 288.417,258.210 280.472 C 257.626 270.765,258.395 267.549,263.124 259.928 C 264.073 258.399,264.849 257.032,264.849 256.891 C 264.849 256.749,265.747 254.845,266.845 252.659 C 270.470 245.439,271.854 241.203,272.831 234.328 C 273.756 227.825,273.911 227.475,275.874 227.465 C 284.317 227.419,288.369 216.968,280.333 215.964 C 277.625 215.626,276.534 216.135,276.534 217.735 C 276.534 219.328,277.883 219.321,278.791 217.724 C 280.003 215.595,281.989 217.358,281.985 220.558 C 281.978 226.495,275.429 226.358,271.488 220.338 C 265.573 211.303,263.679 208.647,260.718 205.229 C 254.534 198.092,248.083 194.219,237.194 191.105 C 236.015 190.767,233.123 190.309,230.768 190.085 C 225.715 189.606,225.529 189.604,226.290 190.028 M283.657 219.033 C 284.075 220.288,283.760 222.340,282.987 223.398 C 282.145 224.549,281.915 223.865,282.544 222.082 C 282.953 220.923,283.008 220.125,282.743 219.200 C 282.284 217.601,282.282 217.625,282.838 217.811 C 283.093 217.896,283.461 218.445,283.657 219.033 M241.870 272.901 C 241.870 275.076,240.823 281.607,240.414 281.986 C 240.128 282.251,240.607 271.548,240.902 271.071 C 241.481 270.133,241.870 270.868,241.870 272.901 " stroke="none" fill="#999999" fill-rule="evenodd"></path><path id="path4" d="M138.267 139.630 L 137.293 140.187 138.295 140.200 C 141.540 140.245,145.667 143.026,145.667 145.168 C 145.667 146.376,143.954 149.152,142.354 150.536 C 130.513 160.775,129.641 173.720,140.635 176.053 C 143.602 176.683,147.433 176.143,154.964 174.034 C 167.942 170.400,177.147 173.101,183.028 182.269 C 185.844 186.659,186.425 186.851,192.069 185.249 C 198.506 183.422,198.857 183.497,198.528 186.620 L 198.308 188.705 198.878 186.398 C 199.838 182.513,199.170 182.302,192.152 184.277 C 186.546 185.854,186.314 185.789,183.839 181.930 C 177.649 172.280,167.667 169.231,155.034 173.130 C 134.316 179.524,126.385 169.351,140.290 154.218 C 147.992 145.836,148.316 143.819,142.505 140.413 C 139.901 138.887,139.649 138.840,138.267 139.630 M132.327 143.111 C 130.893 144.162,131.571 144.499,135.123 144.499 C 139.921 144.499,140.653 145.269,139.032 148.616 C 138.283 150.163,136.996 151.478,131.860 155.937 C 119.253 166.885,120.489 186.069,134.469 196.426 C 136.332 197.806,136.402 199.086,134.710 200.832 C 133.197 202.393,133.413 203.311,135.296 203.311 C 143.939 203.311,157.837 211.365,162.336 218.981 C 162.850 219.851,164.752 220.595,164.752 219.927 C 164.752 219.540,154.412 209.642,152.810 208.496 C 149.246 205.946,144.766 204.067,139.980 203.116 C 134.826 202.092,134.745 202.048,135.819 200.875 C 137.832 198.675,137.483 197.739,133.447 194.520 C 125.342 188.054,122.563 179.435,125.032 168.418 C 125.813 164.932,129.498 159.026,132.461 156.511 C 142.193 148.249,143.566 143.720,136.339 143.720 C 134.404 143.720,133.543 143.562,133.320 143.166 C 133.064 142.710,132.888 142.700,132.327 143.111 M225.119 191.049 C 224.535 192.586,224.655 193.079,225.366 192.064 C 225.981 191.185,226.108 191.167,229.942 191.438 C 243.720 192.410,255.880 199.603,264.106 211.644 C 266.504 215.154,268.412 218.015,270.108 220.643 C 270.937 221.928,272.141 223.547,272.784 224.241 L 273.951 225.502 273.098 226.411 C 272.411 227.141,272.169 228.077,271.859 231.187 C 271.068 239.113,269.596 244.432,266.744 249.659 C 266.102 250.837,265.146 252.811,264.622 254.045 C 264.097 255.279,262.998 257.382,262.180 258.719 C 257.278 266.730,256.442 270.175,256.958 280.234 C 257.444 289.698,257.652 289.448,248.651 290.245 C 240.603 290.958,240.332 290.746,241.584 284.713 C 244.067 272.749,243.974 266.496,241.319 266.875 C 240.231 267.031,239.183 270.121,239.160 273.239 C 239.069 285.811,237.619 288.218,230.135 288.218 C 222.366 288.218,222.082 288.017,223.197 283.313 C 223.925 280.244,224.886 268.228,224.805 263.207 C 224.741 259.293,225.840 258.802,232.522 259.761 C 235.000 260.116,235.638 259.966,235.638 259.026 C 235.638 256.070,226.329 253.986,220.723 255.687 C 218.558 256.344,218.661 256.476,218.349 252.633 C 217.961 247.853,215.919 247.332,214.404 251.627 C 212.356 257.430,212.231 267.325,214.056 279.113 C 214.735 283.504,214.775 288.282,214.138 288.919 C 213.463 289.595,199.669 289.577,199.107 288.900 C 198.885 288.632,198.504 286.573,198.260 284.323 C 196.743 270.353,193.917 260.739,190.939 259.423 C 189.702 258.877,189.316 258.109,190.050 257.655 C 190.501 257.376,192.141 255.112,191.892 255.112 C 191.794 255.112,190.690 256.383,189.439 257.936 C 186.512 261.567,183.322 265.358,181.326 267.575 C 179.871 269.192,179.916 269.170,181.902 267.283 C 184.586 264.735,184.688 264.741,185.449 267.478 C 185.792 268.710,186.484 270.798,186.988 272.119 C 188.461 275.979,187.812 276.875,181.754 279.342 C 172.859 282.965,169.066 281.342,173.984 276.018 C 176.092 273.736,176.059 273.755,173.339 276.403 C 170.248 279.412,169.982 280.825,172.273 282.051 C 174.781 283.393,186.557 279.110,188.228 276.248 L 188.964 274.989 187.569 271.065 C 185.297 264.678,186.395 260.175,190.223 260.175 C 192.930 260.175,196.263 271.664,197.453 285.091 C 197.731 288.238,197.970 289.284,198.495 289.668 C 199.352 290.295,213.482 290.378,214.631 289.762 C 215.591 289.249,215.668 284.545,214.818 278.451 C 213.168 266.624,213.240 258.749,215.054 252.872 C 216.191 249.188,218.105 250.218,217.569 254.226 C 217.172 257.200,217.788 257.562,221.386 256.471 C 224.329 255.578,229.215 255.732,231.334 256.783 C 234.287 258.250,233.874 258.617,229.272 258.617 C 224.002 258.617,223.958 258.657,223.939 263.416 C 223.916 269.025,222.896 281.147,222.216 283.892 C 221.185 288.055,221.954 288.726,228.289 289.195 C 237.624 289.885,238.756 288.772,239.584 278.092 C 240.268 269.252,241.449 265.863,242.366 270.107 C 242.882 272.498,241.351 283.864,240.043 287.353 C 238.725 290.869,240.185 291.605,247.682 291.206 C 253.485 290.896,257.108 289.972,257.834 288.615 C 258.051 288.211,258.025 285.018,257.770 280.466 C 257.220 270.648,257.980 267.313,262.442 259.981 C 268.542 249.955,271.707 241.005,272.840 230.574 C 273.162 227.607,273.501 227.069,275.049 227.069 C 277.824 227.069,278.001 226.296,275.528 224.979 C 273.340 223.814,273.022 223.437,268.555 216.711 C 256.811 199.030,246.437 191.800,231.159 190.653 C 229.445 190.524,227.472 190.332,226.774 190.225 C 225.681 190.059,225.452 190.172,225.119 191.049 M196.753 192.616 C 196.100 194.049,196.225 194.354,196.930 193.052 C 197.260 192.444,197.456 191.874,197.367 191.785 C 197.278 191.696,197.002 192.070,196.753 192.616 M187.147 207.517 C 185.433 209.182,183.330 211.122,182.473 211.828 L 180.915 213.113 182.686 211.902 C 184.265 210.824,190.914 204.470,190.449 204.485 C 190.346 204.488,188.861 205.853,187.147 207.517 M282.376 217.789 C 282.376 217.862,282.541 218.497,282.743 219.200 C 283.008 220.125,282.953 220.923,282.544 222.082 C 281.915 223.865,282.145 224.549,282.987 223.398 C 284.160 221.794,284.065 218.220,282.838 217.811 C 282.584 217.726,282.376 217.716,282.376 217.789 " stroke="none" fill="#747474" fill-rule="evenodd"></path><path id="path5" d="M152.678 114.354 C 114.517 117.658,88.413 145.027,88.413 181.734 C 88.413 196.983,100.501 225.142,116.401 246.933 C 128.303 263.244,133.466 269.460,147.513 284.393 C 154.278 291.585,155.656 292.892,156.471 292.892 C 156.594 292.892,159.636 289.983,163.232 286.428 C 166.827 282.873,169.954 280.079,170.181 280.219 C 170.424 280.369,170.594 280.125,170.594 279.628 C 170.594 278.299,169.343 279.316,163.059 285.752 C 156.666 292.300,156.502 292.419,155.219 291.453 C 153.582 290.220,136.480 271.676,132.660 266.991 C 121.705 253.556,116.995 247.122,108.856 234.469 C 98.205 217.911,91.364 200.172,89.020 183.033 C 88.348 178.125,90.690 163.595,93.159 157.352 C 109.296 116.539,160.196 102.195,197.957 127.817 C 216.366 140.308,228.424 166.316,224.940 186.012 C 224.323 189.498,224.479 191.153,225.356 190.425 C 225.705 190.135,225.768 189.769,225.543 189.346 C 225.334 188.955,225.428 187.413,225.783 185.394 C 227.351 176.475,224.756 162.612,219.474 151.704 C 207.991 127.987,179.463 112.035,152.678 114.354 M152.872 134.755 C 147.548 135.246,137.651 138.468,139.951 138.962 C 140.342 139.045,140.975 138.830,141.359 138.483 C 142.866 137.119,149.826 135.542,155.404 135.300 C 177.004 134.364,195.935 149.889,199.392 171.373 C 199.937 174.760,199.915 180.833,199.353 182.067 C 198.847 183.176,199.180 183.839,199.886 183.132 C 200.556 182.462,200.744 176.315,200.217 172.310 C 197.145 148.974,176.475 132.578,152.872 134.755 M129.698 144.553 C 127.822 145.696,123.965 149.697,121.760 152.787 C 103.285 178.678,118.008 214.746,149.462 220.651 C 155.973 221.873,165.575 221.399,163.041 219.981 C 162.582 219.724,162.179 219.769,161.749 220.125 C 161.308 220.490,159.850 220.636,156.803 220.621 C 123.606 220.457,103.533 184.562,120.537 155.767 C 122.635 152.214,128.631 145.653,130.479 144.887 C 131.120 144.622,131.646 144.250,131.646 144.062 C 131.646 143.533,131.180 143.650,129.698 144.553 " stroke="none" fill="#d9826c" fill-rule="evenodd"></path><path id="path6" d="M156.086 114.004 C 156.568 114.097,157.356 114.097,157.838 114.004 C 158.320 113.911,157.926 113.835,156.962 113.835 C 155.998 113.835,155.604 113.911,156.086 114.004 M150.633 114.401 C 151.329 114.487,152.468 114.487,153.165 114.401 C 153.861 114.314,153.291 114.243,151.899 114.243 C 150.506 114.243,149.937 114.314,150.633 114.401 M160.954 114.398 C 161.543 114.487,162.507 114.487,163.096 114.398 C 163.685 114.309,163.204 114.236,162.025 114.236 C 160.847 114.236,160.365 114.309,160.954 114.398 M165.438 114.784 C 165.922 114.877,166.623 114.873,166.996 114.776 C 167.368 114.678,166.972 114.602,166.115 114.606 C 165.258 114.611,164.953 114.691,165.438 114.784 M144.596 115.166 C 144.971 115.264,145.584 115.264,145.959 115.166 C 146.334 115.068,146.027 114.988,145.278 114.988 C 144.528 114.988,144.221 115.068,144.596 115.166 M168.354 115.166 C 168.729 115.264,169.343 115.264,169.718 115.166 C 170.093 115.068,169.786 114.988,169.036 114.988 C 168.286 114.988,167.980 115.068,168.354 115.166 M178.384 117.442 C 179.990 117.965,181.480 118.382,181.694 118.369 C 182.313 118.331,176.741 116.454,176.068 116.473 C 175.735 116.483,176.777 116.919,178.384 117.442 M131.646 118.598 C 131.110 118.904,130.847 119.154,131.061 119.154 C 131.276 119.154,131.889 118.904,132.425 118.598 C 132.960 118.292,133.223 118.041,133.009 118.041 C 132.795 118.041,132.181 118.292,131.646 118.598 M127.361 120.351 C 126.611 120.761,126.173 121.097,126.388 121.097 C 126.602 121.097,127.390 120.761,128.140 120.351 C 128.890 119.940,129.328 119.604,129.114 119.604 C 128.900 119.604,128.111 119.940,127.361 120.351 M191.718 123.053 C 193.589 124.104,195.605 125.299,196.197 125.709 C 197.669 126.729,198.247 127.049,198.247 126.846 C 198.247 126.424,189.342 121.122,188.658 121.137 C 188.469 121.140,189.847 122.003,191.718 123.053 M121.227 123.478 C 120.102 124.123,119.182 124.742,119.182 124.854 C 119.182 125.067,122.610 123.188,123.252 122.623 C 123.935 122.023,123.287 122.297,121.227 123.478 M113.268 128.860 C 105.222 135.292,93.881 149.564,93.878 153.262 C 93.878 153.476,94.795 151.940,95.917 149.848 C 99.989 142.251,106.954 134.071,113.924 128.700 C 116.611 126.630,116.665 126.582,116.351 126.582 C 116.223 126.582,114.835 127.607,113.268 128.860 M198.777 127.272 C 199.085 127.771,201.363 129.457,201.363 129.187 C 201.363 129.090,200.720 128.521,199.933 127.921 C 199.147 127.321,198.626 127.029,198.777 127.272 M206.459 133.986 C 209.154 136.662,212.461 140.385,213.807 142.259 C 215.153 144.133,216.334 145.667,216.430 145.667 C 216.527 145.667,216.210 145.097,215.726 144.401 C 212.142 139.247,208.145 134.760,203.895 131.121 C 202.610 130.021,203.763 131.310,206.459 133.986 M155.516 135.439 C 156.755 135.517,158.683 135.516,159.800 135.438 C 160.917 135.359,159.903 135.296,157.546 135.297 C 155.190 135.297,154.276 135.362,155.516 135.439 M150.248 135.816 C 150.732 135.909,151.434 135.906,151.806 135.808 C 152.178 135.711,151.782 135.634,150.925 135.639 C 150.068 135.643,149.763 135.723,150.248 135.816 M147.420 136.319 C 146.929 136.530,146.857 136.654,147.225 136.654 C 147.546 136.654,148.160 136.503,148.588 136.319 C 149.079 136.108,149.151 135.985,148.783 135.985 C 148.462 135.985,147.848 136.135,147.420 136.319 M170.931 137.698 C 171.652 138.011,172.353 138.261,172.489 138.253 C 172.995 138.225,170.766 137.126,170.204 137.127 C 169.883 137.128,170.210 137.385,170.931 137.698 M141.852 138.099 C 141.373 138.435,141.095 138.895,141.235 139.122 C 141.396 139.382,141.628 139.290,141.859 138.876 C 142.062 138.514,142.608 138.064,143.071 137.877 C 143.594 137.666,143.688 137.528,143.319 137.513 C 142.992 137.499,142.332 137.763,141.852 138.099 M174.489 139.241 C 175.453 139.757,176.417 140.179,176.631 140.179 C 176.845 140.179,176.232 139.757,175.268 139.241 C 174.304 138.724,173.340 138.302,173.126 138.302 C 172.911 138.302,173.525 138.724,174.489 139.241 M177.994 140.712 C 177.994 140.807,179.176 141.649,180.620 142.583 C 183.942 144.731,188.869 149.420,191.125 152.580 C 193.153 155.421,193.810 155.880,191.962 153.165 C 190.291 150.709,185.723 145.979,183.057 143.944 C 180.777 142.203,177.994 140.427,177.994 140.712 M129.893 145.236 C 129.250 145.640,127.498 147.257,125.998 148.828 L 123.272 151.686 126.585 148.579 C 128.408 146.870,130.248 145.263,130.675 145.008 C 131.102 144.753,131.363 144.535,131.256 144.523 C 131.149 144.511,130.536 144.832,129.893 145.236 M219.117 150.925 C 220.499 153.710,222.233 157.829,222.972 160.078 C 223.711 162.327,224.322 163.894,224.329 163.559 C 224.371 161.705,219.001 148.941,217.212 146.641 C 216.879 146.212,217.736 148.140,219.117 150.925 M122.612 152.580 C 121.926 153.379,121.411 154.236,121.617 154.236 C 121.697 154.236,122.151 153.710,122.626 153.067 C 123.565 151.797,123.556 151.482,122.612 152.580 M92.551 156.175 C 91.672 158.371,91.808 158.698,92.733 156.613 C 93.151 155.671,93.423 154.832,93.338 154.747 C 93.254 154.662,92.899 155.305,92.551 156.175 M120.651 155.501 C 119.799 156.815,119.034 158.380,119.462 157.936 C 120.008 157.368,121.615 154.625,121.401 154.625 C 121.301 154.625,120.963 155.019,120.651 155.501 M194.007 156.958 C 194.488 157.812,194.944 158.448,195.022 158.370 C 195.189 158.203,193.579 155.404,193.315 155.404 C 193.216 155.404,193.527 156.103,194.007 156.958 M91.184 159.727 C 90.945 160.412,90.761 161.254,90.776 161.597 C 90.790 161.939,91.045 161.438,91.343 160.483 C 91.966 158.483,91.835 157.859,91.184 159.727 M195.554 159.883 C 195.554 160.097,195.889 160.886,196.300 161.636 C 196.710 162.386,197.046 162.824,197.046 162.610 C 197.046 162.395,196.710 161.607,196.300 160.857 C 195.889 160.107,195.554 159.669,195.554 159.883 M116.908 163.016 C 116.659 163.562,116.463 164.220,116.471 164.478 C 116.479 164.736,116.745 164.350,117.061 163.622 C 117.727 162.088,117.586 161.529,116.908 163.016 M89.825 165.190 C 89.500 166.813,89.815 167.128,90.166 165.531 C 90.313 164.857,90.353 164.225,90.254 164.126 C 90.155 164.027,89.962 164.506,89.825 165.190 M115.712 166.735 C 115.449 167.614,115.305 168.405,115.393 168.492 C 115.480 168.580,115.767 167.932,116.031 167.053 C 116.294 166.174,116.438 165.383,116.350 165.295 C 116.263 165.208,115.976 165.855,115.712 166.735 M225.212 169.426 C 225.212 170.175,225.292 170.482,225.390 170.107 C 225.488 169.732,225.488 169.119,225.390 168.744 C 225.292 168.369,225.212 168.676,225.212 169.426 M88.908 170.594 C 88.908 171.558,88.984 171.952,89.077 171.470 C 89.170 170.988,89.170 170.200,89.077 169.718 C 88.984 169.236,88.908 169.630,88.908 170.594 M114.636 174.684 C 114.638 176.183,114.708 176.749,114.793 175.941 C 114.877 175.133,114.875 173.906,114.789 173.214 C 114.703 172.523,114.634 173.184,114.636 174.684 M88.534 175.073 C 88.536 176.358,88.608 176.837,88.695 176.137 C 88.782 175.437,88.780 174.385,88.691 173.800 C 88.602 173.215,88.531 173.788,88.534 175.073 M199.498 177.040 C 199.447 179.729,199.243 181.517,198.955 181.805 C 198.701 182.058,198.600 182.371,198.729 182.500 C 199.400 183.172,199.821 180.771,199.706 176.924 L 199.581 172.736 199.498 177.040 M225.991 174.489 C 225.991 175.239,226.071 175.545,226.169 175.170 C 226.267 174.796,226.267 174.182,226.169 173.807 C 226.071 173.432,225.991 173.739,225.991 174.489 M88.166 181.305 C 88.167 183.447,88.232 184.274,88.311 183.142 C 88.390 182.010,88.389 180.257,88.309 179.247 C 88.229 178.237,88.165 179.163,88.166 181.305 M114.642 180.915 C 114.643 182.629,114.712 183.282,114.794 182.366 C 114.876 181.449,114.875 180.047,114.791 179.250 C 114.708 178.452,114.640 179.202,114.642 180.915 M90.026 194.352 C 90.026 194.674,90.176 195.287,90.360 195.716 C 90.571 196.207,90.695 196.279,90.695 195.910 C 90.695 195.589,90.544 194.976,90.360 194.547 C 90.149 194.056,90.026 193.984,90.026 194.352 M91.583 199.805 C 91.583 200.127,91.734 200.740,91.918 201.168 C 92.129 201.659,92.253 201.731,92.253 201.363 C 92.253 201.042,92.102 200.428,91.918 200.000 C 91.707 199.509,91.583 199.437,91.583 199.805 M120.621 200.614 C 121.008 201.273,121.573 202.018,121.877 202.269 C 122.182 202.521,121.939 201.981,121.339 201.071 C 120.078 199.159,119.581 198.843,120.621 200.614 M123.458 204.276 C 125.286 206.504,129.895 211.159,131.061 211.956 C 131.704 212.395,131.407 212.026,130.400 211.136 C 129.394 210.245,127.203 208.073,125.532 206.308 C 123.860 204.544,122.927 203.629,123.458 204.276 M93.310 205.258 C 93.453 205.794,93.733 206.495,93.931 206.816 C 94.182 207.222,94.213 207.103,94.032 206.426 C 93.889 205.891,93.609 205.190,93.410 204.869 C 93.160 204.463,93.129 204.581,93.310 205.258 M94.300 207.790 C 94.307 208.004,94.650 208.880,95.062 209.737 C 95.474 210.594,95.702 210.857,95.569 210.321 C 95.294 209.219,94.279 207.194,94.300 207.790 M96.592 213.572 C 96.592 213.996,102.030 224.732,102.245 224.732 C 102.419 224.732,97.110 213.866,96.743 213.470 C 96.660 213.380,96.592 213.427,96.592 213.572 M139.435 216.943 C 140.185 217.353,140.974 217.689,141.188 217.689 C 141.402 217.689,140.964 217.353,140.214 216.943 C 139.464 216.532,138.676 216.196,138.462 216.196 C 138.247 216.196,138.685 216.532,139.435 216.943 M161.074 219.896 C 160.442 220.357,160.423 220.448,160.954 220.448 C 161.304 220.448,161.705 220.261,161.847 220.033 C 162.259 219.365,161.890 219.299,161.074 219.896 M151.217 220.327 C 151.592 220.425,152.205 220.425,152.580 220.327 C 152.955 220.229,152.648 220.149,151.899 220.149 C 151.149 220.149,150.842 220.229,151.217 220.327 M155.706 220.734 C 156.623 220.816,158.025 220.815,158.822 220.731 C 159.620 220.647,158.870 220.580,157.157 220.581 C 155.443 220.583,154.790 220.651,155.706 220.734 M103.213 226.680 C 103.650 227.537,104.096 228.238,104.203 228.238 C 104.310 228.238,104.040 227.537,103.603 226.680 C 103.166 225.823,102.720 225.122,102.613 225.122 C 102.506 225.122,102.776 225.823,103.213 226.680 M104.966 229.796 C 105.298 230.438,105.658 230.964,105.765 230.964 C 105.872 230.964,105.688 230.438,105.355 229.796 C 105.023 229.153,104.664 228.627,104.556 228.627 C 104.449 228.627,104.634 229.153,104.966 229.796 M107.118 233.320 C 107.927 234.831,112.576 241.870,112.765 241.870 C 112.870 241.870,111.962 240.336,110.748 238.462 C 109.534 236.587,108.201 234.484,107.786 233.788 C 106.962 232.405,106.429 232.032,107.118 233.320 M115.682 246.380 C 116.569 247.683,117.731 249.260,118.264 249.885 C 118.797 250.511,118.506 249.957,117.619 248.654 C 116.732 247.351,115.570 245.774,115.037 245.149 C 114.504 244.523,114.794 245.077,115.682 246.380 M121.118 253.890 C 122.224 255.412,123.302 256.763,123.512 256.893 C 123.723 257.023,122.984 255.881,121.871 254.356 C 120.758 252.831,119.681 251.479,119.477 251.353 C 119.273 251.227,120.011 252.369,121.118 253.890 M129.697 264.848 C 130.593 265.918,131.530 266.919,131.778 267.072 C 132.027 267.224,131.376 266.348,130.332 265.125 C 129.289 263.902,128.352 262.902,128.251 262.902 C 128.150 262.902,128.801 263.777,129.697 264.848 M133.105 268.939 C 133.768 269.796,135.476 271.723,136.902 273.223 C 139.137 275.572,139.053 275.437,136.295 272.249 C 132.587 267.962,131.391 266.720,133.105 268.939 M141.414 278.286 C 145.627 282.937,155.169 292.892,155.413 292.892 C 155.551 292.892,154.590 291.796,153.277 290.458 C 151.965 289.119,148.282 285.307,145.094 281.986 C 141.905 278.666,140.249 277.001,141.414 278.286 M163.232 286.428 C 159.636 289.983,156.824 292.892,156.983 292.892 C 157.141 292.892,159.901 290.264,163.116 287.051 C 166.330 283.839,169.358 281.063,169.844 280.884 C 170.458 280.656,170.581 280.467,170.248 280.260 C 169.935 280.067,167.503 282.204,163.232 286.428 " stroke="none" fill="#dda092" fill-rule="evenodd"></path><path id="path7" d="M151.403 113.621 C 152.095 113.707,153.321 113.708,154.130 113.624 C 154.938 113.540,154.372 113.469,152.872 113.468 C 151.373 113.466,150.712 113.535,151.403 113.621 M121.811 122.324 C 121.008 122.749,120.351 123.183,120.351 123.289 C 120.351 123.395,121.052 123.125,121.908 122.687 C 122.765 122.250,123.466 121.809,123.466 121.706 C 123.466 121.451,123.464 121.452,121.811 122.324 M110.784 130.185 L 109.640 131.451 110.906 130.307 C 112.085 129.241,112.350 128.919,112.049 128.919 C 111.982 128.919,111.413 129.489,110.784 130.185 M106.513 134.080 L 103.797 136.904 106.621 134.188 C 109.244 131.665,109.623 131.256,109.337 131.256 C 109.278 131.256,108.007 132.527,106.513 134.080 M152.970 136.205 C 153.452 136.298,154.241 136.298,154.722 136.205 C 155.204 136.112,154.810 136.036,153.846 136.036 C 152.882 136.036,152.488 136.112,152.970 136.205 M102.175 138.754 C 98.756 142.315,94.073 150.332,91.422 157.166 C 89.676 161.666,90.242 160.997,92.254 156.183 C 95.322 148.844,98.977 142.647,102.479 138.848 C 104.526 136.626,104.289 136.553,102.175 138.754 M142.210 138.793 C 141.864 139.209,142.179 139.572,143.713 140.526 C 148.756 143.660,148.342 146.151,141.558 153.505 C 136.036 159.492,134.188 162.755,134.182 166.533 C 134.168 174.834,141.558 177.019,154.820 172.635 C 159.725 171.013,168.411 170.536,171.373 171.726 C 177.885 174.341,180.958 176.708,184.055 181.495 C 186.459 185.212,186.871 185.365,190.991 184.080 C 192.807 183.514,195.109 182.939,196.105 182.802 C 198.053 182.535,199.053 181.835,198.981 180.790 C 198.940 180.188,198.922 180.189,198.761 180.800 C 198.576 181.502,198.192 181.665,195.740 182.081 C 194.896 182.224,192.834 182.784,191.158 183.324 C 187.278 184.576,186.681 184.410,185.009 181.612 C 178.648 170.970,167.721 167.796,153.349 172.415 C 141.864 176.106,134.379 173.634,134.865 166.310 C 135.126 162.390,137.159 159.165,144.047 151.744 C 148.724 146.705,149.010 144.298,145.331 140.926 C 144.124 139.819,143.179 138.768,143.233 138.590 C 143.387 138.077,142.690 138.215,142.210 138.793 M130.522 145.552 C 130.021 145.925,130.707 145.993,133.886 145.883 C 136.168 145.804,137.978 145.905,138.110 146.118 C 138.848 147.312,136.418 150.653,132.619 153.669 C 118.998 164.484,118.403 185.366,131.428 195.521 C 135.408 198.624,135.304 198.338,133.204 200.389 C 130.455 203.073,131.120 204.189,135.735 204.640 C 140.823 205.137,144.192 206.045,147.540 207.823 C 152.544 210.480,160.836 217.758,160.338 219.056 C 160.173 219.486,160.332 219.669,160.869 219.669 C 162.061 219.669,161.800 219.025,159.591 216.510 C 152.982 208.984,146.122 205.234,136.655 203.969 C 132.324 203.391,131.889 202.802,134.162 200.599 C 136.083 198.737,135.948 198.323,132.471 195.413 C 119.882 184.875,119.399 165.576,131.474 155.542 C 138.342 149.835,140.391 146.879,138.541 145.344 C 137.861 144.779,131.331 144.949,130.522 145.552 M126.767 148.880 L 124.051 151.704 126.874 148.988 C 128.427 147.494,129.698 146.224,129.698 146.164 C 129.698 145.879,129.289 146.258,126.767 148.880 M88.852 166.078 C 88.611 167.038,88.427 168.140,88.445 168.527 C 88.463 168.914,88.728 168.196,89.034 166.931 C 89.340 165.666,89.523 164.564,89.441 164.482 C 89.359 164.400,89.094 165.118,88.852 166.078 M88.135 171.568 C 88.138 172.639,88.213 173.031,88.303 172.439 C 88.392 171.847,88.390 170.970,88.298 170.491 C 88.205 170.012,88.132 170.497,88.135 171.568 M226.791 175.463 C 226.794 176.534,226.870 176.926,226.959 176.333 C 227.049 175.741,227.046 174.865,226.954 174.386 C 226.861 173.907,226.788 174.391,226.791 175.463 M87.751 176.047 C 87.751 177.225,87.824 177.707,87.913 177.118 C 88.002 176.529,88.002 175.565,87.913 174.976 C 87.824 174.387,87.751 174.869,87.751 176.047 M115.009 177.410 C 115.012 178.481,115.088 178.873,115.177 178.281 C 115.267 177.689,115.264 176.813,115.172 176.333 C 115.079 175.854,115.006 176.339,115.009 177.410 M87.378 181.305 C 87.379 183.019,87.448 183.671,87.530 182.755 C 87.612 181.839,87.611 180.437,87.528 179.639 C 87.444 178.842,87.377 179.591,87.378 181.305 M115.378 183.447 C 115.378 184.197,115.458 184.503,115.556 184.129 C 115.654 183.754,115.654 183.140,115.556 182.765 C 115.458 182.390,115.378 182.697,115.378 183.447 M226.778 183.642 C 226.782 184.499,226.862 184.803,226.955 184.319 C 227.048 183.834,227.045 183.133,226.947 182.761 C 226.850 182.388,226.774 182.785,226.778 183.642 M87.673 185.622 C 87.694 186.246,87.860 187.196,88.042 187.731 C 88.266 188.388,88.300 188.071,88.148 186.758 C 87.895 184.567,87.614 183.894,87.673 185.622 M225.901 188.673 C 225.901 189.546,226.310 189.663,230.840 190.093 C 233.156 190.312,236.015 190.767,237.194 191.105 C 248.083 194.219,254.534 198.092,260.718 205.229 C 263.679 208.647,265.573 211.303,271.488 220.338 C 275.429 226.358,281.978 226.495,281.985 220.558 C 281.989 217.358,280.003 215.595,278.791 217.724 C 277.883 219.321,276.534 219.328,276.534 217.735 C 276.534 216.135,277.625 215.626,280.333 215.964 C 288.369 216.968,284.317 227.419,275.874 227.465 C 273.911 227.475,273.756 227.825,272.831 234.328 C 271.854 241.203,270.470 245.439,266.845 252.659 C 265.747 254.845,264.849 256.749,264.849 256.891 C 264.849 257.032,264.073 258.399,263.124 259.928 C 258.395 267.549,257.626 270.765,258.210 280.472 C 258.689 288.417,258.621 289.149,257.343 289.833 C 253.235 292.031,241.075 292.627,239.629 290.700 C 239.084 289.975,239.136 287.683,239.746 285.492 C 239.895 284.956,239.594 285.293,239.078 286.240 C 237.365 289.381,236.815 289.584,230.055 289.563 C 221.434 289.535,220.558 288.887,221.814 283.470 C 222.489 280.563,222.967 274.991,223.422 264.735 C 223.721 258.009,223.540 258.269,228.213 257.874 L 231.159 257.624 229.912 256.952 C 228.225 256.043,224.826 256.090,221.067 257.075 C 217.201 258.087,216.943 257.911,216.943 254.253 C 216.943 250.948,216.319 250.845,215.233 253.969 C 214.053 257.364,213.918 267.582,214.945 275.755 C 216.629 289.148,216.502 290.474,213.535 290.601 C 212.610 290.640,203.492 290.620,199.977 290.572 C 197.783 290.541,197.407 289.913,197.039 285.657 C 196.087 274.668,192.949 262.079,190.886 260.975 C 190.015 260.509,187.903 261.828,187.132 263.319 C 186.320 264.890,186.421 266.322,187.575 269.583 C 189.485 274.986,189.505 275.116,188.661 276.579 C 186.492 280.332,173.448 284.205,171.188 281.765 L 170.167 280.664 163.857 287.068 L 157.546 293.473 163.393 287.730 C 169.818 281.419,169.463 281.651,170.922 282.804 C 173.629 284.942,187.010 280.806,189.282 277.130 C 190.327 275.438,190.281 274.788,188.866 271.254 C 187.020 266.644,186.931 264.541,188.513 262.959 C 189.208 262.264,190.059 261.749,190.404 261.816 C 192.241 262.170,195.543 275.457,196.142 284.907 C 196.553 291.394,196.454 291.334,206.621 291.334 C 218.160 291.334,217.785 291.962,215.684 276.144 C 214.850 269.867,214.569 261.077,215.118 258.476 L 215.436 256.972 216.312 257.795 C 217.368 258.787,217.838 258.805,220.844 257.969 C 223.215 257.310,223.998 257.422,223.272 258.316 C 223.050 258.589,222.772 261.266,222.654 264.265 C 222.285 273.653,221.681 281.741,221.251 283.057 C 220.150 286.427,220.137 286.546,220.725 287.760 C 221.839 290.060,231.097 291.363,236.866 290.032 C 238.121 289.742,238.319 289.800,238.549 290.523 C 239.596 293.821,255.299 293.113,258.581 289.620 L 259.469 288.674 258.991 281.470 C 258.321 271.399,258.975 268.056,262.843 261.781 C 268.209 253.074,272.351 242.627,273.453 235.021 C 274.430 228.273,274.371 228.385,277.029 228.160 C 283.377 227.621,287.560 221.264,284.403 216.952 C 281.919 213.558,275.625 214.079,275.625 217.679 C 275.625 220.115,277.780 220.898,279.228 218.987 C 280.233 217.660,281.207 218.520,281.207 220.735 C 281.207 224.327,275.102 225.239,273.380 221.904 C 273.132 221.425,272.423 220.331,271.805 219.474 C 271.187 218.617,269.254 215.725,267.510 213.048 C 258.054 198.530,245.588 190.434,231.159 189.439 C 229.231 189.306,227.259 188.951,226.777 188.650 C 226.018 188.176,225.901 188.179,225.901 188.673 M89.243 194.158 C 89.253 194.979,90.672 199.112,90.714 198.442 C 90.727 198.228,90.400 197.001,89.986 195.716 C 89.572 194.430,89.238 193.729,89.243 194.158 M118.014 194.103 C 118.014 194.569,120.704 199.737,121.063 199.959 C 121.251 200.075,120.703 198.817,119.846 197.164 C 118.191 193.973,118.014 193.677,118.014 194.103 M91.168 200.807 C 91.128 201.395,92.363 204.943,92.545 204.761 C 92.627 204.679,92.358 203.661,91.945 202.500 C 91.533 201.339,91.183 200.577,91.168 200.807 M123.077 203.043 C 123.077 203.110,123.647 203.680,124.343 204.309 L 125.609 205.453 124.465 204.187 C 123.398 203.007,123.077 202.742,123.077 203.043 M127.361 207.790 C 128.525 208.968,129.564 209.932,129.672 209.932 C 129.779 209.932,128.914 208.968,127.751 207.790 C 126.587 206.611,125.548 205.648,125.440 205.648 C 125.333 205.648,126.198 206.611,127.361 207.790 M93.114 206.516 C 93.070 206.977,94.338 209.978,94.507 209.810 C 94.592 209.725,94.319 208.885,93.901 207.944 C 93.484 207.002,93.129 206.360,93.114 206.516 M94.869 211.100 C 95.107 212.239,102.103 226.508,102.986 227.653 C 103.316 228.082,101.867 225.015,99.765 220.837 C 97.664 216.660,95.657 212.541,95.306 211.685 C 94.954 210.828,94.757 210.565,94.869 211.100 M154.528 219.954 C 155.438 220.036,156.928 220.036,157.838 219.954 C 158.749 219.872,158.004 219.805,156.183 219.805 C 154.362 219.805,153.617 219.872,154.528 219.954 M120.342 253.932 C 120.795 254.568,121.365 255.211,121.608 255.362 C 121.851 255.512,121.559 254.991,120.959 254.205 C 119.657 252.498,119.167 252.281,120.342 253.932 M129.698 265.823 C 130.425 266.573,131.107 267.186,131.214 267.186 C 131.321 267.186,130.814 266.573,130.088 265.823 C 129.361 265.073,128.679 264.460,128.572 264.460 C 128.465 264.460,128.971 265.073,129.698 265.823 M132.425 269.255 C 132.425 269.322,132.994 269.892,133.690 270.521 L 134.956 271.665 133.812 270.399 C 132.746 269.219,132.425 268.954,132.425 269.255 M240.902 271.071 C 240.607 271.548,240.128 282.251,240.414 281.986 C 240.823 281.607,241.870 275.076,241.870 272.901 C 241.870 270.868,241.481 270.133,240.902 271.071 M136.319 273.612 C 137.046 274.362,137.728 274.976,137.835 274.976 C 137.942 274.976,137.436 274.362,136.709 273.612 C 135.982 272.863,135.300 272.249,135.193 272.249 C 135.086 272.249,135.593 272.863,136.319 273.612 M139.808 277.410 C 141.422 279.130,141.772 279.439,141.772 279.146 C 141.772 279.084,140.940 278.251,139.922 277.296 L 138.072 275.560 139.808 277.410 M144.693 282.765 C 145.965 284.051,147.093 285.102,147.201 285.102 C 147.308 285.102,146.355 284.051,145.083 282.765 C 143.811 281.480,142.683 280.428,142.576 280.428 C 142.468 280.428,143.421 281.480,144.693 282.765 M151.890 290.263 C 153.706 292.137,155.459 293.657,155.785 293.640 C 156.306 293.613,156.307 293.584,155.794 293.401 C 155.472 293.286,153.720 291.766,151.899 290.024 L 148.588 286.855 151.890 290.263 " stroke="none" fill="#d2c6c3" fill-rule="evenodd"></path><path id="path8" d="M151.899 113.743 C 149.864 113.932,147.322 114.263,146.251 114.479 L 144.304 114.871 146.446 114.667 C 158.409 113.527,164.410 113.797,173.710 115.896 C 193.742 120.417,211.191 133.964,219.833 151.704 C 223.343 158.910,224.350 162.300,225.911 172.185 C 226.374 175.112,226.245 185.452,225.714 187.926 C 225.538 188.750,225.575 188.922,225.840 188.510 C 228.127 184.963,226.603 167.559,223.181 158.130 C 212.875 129.738,182.607 110.890,151.899 113.743 M137.098 116.409 C 120.517 121.365,107.087 131.097,98.278 144.542 C 95.952 148.093,92.072 155.688,92.411 156.027 C 92.493 156.109,93.334 154.469,94.280 152.383 C 102.490 134.281,123.097 118.647,143.330 115.171 C 144.183 115.025,144.159 115.001,143.135 114.979 C 142.493 114.965,139.776 115.609,137.098 116.409 M151.315 135.802 C 148.762 136.118,142.544 138.003,142.075 138.603 C 141.650 139.148,141.662 139.175,142.162 138.787 C 143.698 137.594,150.170 136.231,155.209 136.040 C 179.359 135.125,199.856 154.993,198.960 178.450 C 198.888 180.330,198.983 181.723,199.175 181.604 C 199.364 181.486,199.424 178.830,199.310 175.700 C 198.414 151.193,176.194 132.722,151.315 135.802 M126.372 148.880 C 121.848 153.486,116.375 162.749,116.472 165.638 C 116.480 165.900,117.090 164.596,117.825 162.740 C 120.165 156.837,123.427 151.942,127.715 147.897 C 129.242 146.456,130.361 145.278,130.201 145.278 C 130.042 145.278,128.318 146.899,126.372 148.880 M91.357 158.319 C 90.249 161.220,88.419 169.492,88.469 171.373 C 88.510 172.927,88.550 172.839,88.824 170.594 C 89.194 167.568,90.940 160.261,91.765 158.286 C 92.089 157.512,92.281 156.805,92.192 156.717 C 92.103 156.628,91.728 157.349,91.357 158.319 M115.696 167.957 C 115.424 168.865,115.143 171.014,115.073 172.730 L 114.945 175.852 115.263 172.931 C 115.438 171.324,115.789 169.247,116.044 168.315 C 116.646 166.112,116.342 165.800,115.696 167.957 M88.144 175.463 C 88.146 176.748,88.219 177.227,88.306 176.527 C 88.392 175.827,88.391 174.775,88.302 174.190 C 88.213 173.604,88.142 174.177,88.144 175.463 M87.772 181.305 C 87.771 183.233,87.837 184.071,87.918 183.167 C 88.000 182.263,88.001 180.685,87.921 179.661 C 87.840 178.637,87.773 179.377,87.772 181.305 M114.953 181.368 C 114.642 194.820,125.678 210.551,139.774 216.749 C 141.541 217.526,143.195 218.076,143.450 217.972 C 143.775 217.840,143.758 217.774,143.395 217.752 C 140.390 217.574,131.710 212.051,127.167 207.426 C 119.702 199.827,116.153 192.359,115.308 182.473 C 115.033 179.255,115.004 179.164,114.953 181.368 M88.116 185.784 C 88.116 186.319,88.249 187.283,88.413 187.926 C 88.678 188.968,88.710 188.989,88.710 188.121 C 88.710 187.585,88.576 186.621,88.413 185.979 C 88.148 184.936,88.116 184.915,88.116 185.784 M89.004 191.053 C 89.779 198.969,97.719 218.471,105.335 231.159 C 111.176 240.891,120.080 253.578,127.157 262.253 C 128.876 264.360,131.085 267.077,132.067 268.290 C 134.575 271.391,143.852 281.568,150.013 287.976 C 156.787 295.021,155.736 295.089,163.726 287.098 C 167.181 283.644,169.867 280.818,169.696 280.818 C 169.525 280.818,166.656 283.535,163.320 286.855 C 158.500 291.653,157.040 292.892,156.205 292.892 C 154.945 292.892,139.803 277.210,133.055 268.915 C 107.089 236.999,94.172 214.155,89.354 191.626 C 88.857 189.304,88.828 189.257,89.004 191.053 M144.653 218.525 C 146.560 219.732,159.346 221.025,160.722 220.150 C 160.970 219.992,158.954 219.852,156.243 219.837 C 151.764 219.813,150.323 219.617,144.888 218.294 C 144.010 218.081,143.987 218.103,144.653 218.525 " stroke="none" fill="#e9bca9" fill-rule="evenodd"></path></g></svg>