<?xml version="1.0" encoding="UTF-8" standalone="no"?>
<!-- Created with Inkscape (http://www.inkscape.org/) -->

<svg
   xmlns:dc="http://purl.org/dc/elements/1.1/"
   xmlns:cc="http://creativecommons.org/ns#"
   xmlns:rdf="http://www.w3.org/1999/02/22-rdf-syntax-ns#"
   xmlns:svg="http://www.w3.org/2000/svg"
   xmlns="http://www.w3.org/2000/svg"
   xmlns:sodipodi="http://sodipodi.sourceforge.net/DTD/sodipodi-0.dtd"
   xmlns:inkscape="http://www.inkscape.org/namespaces/inkscape"
   width="144"
   height="144"
   viewBox="0 0 38.1 38.1"
   version="1.1"
   id="svg8"
   inkscape:version="0.92.4 (5da689c313, 2019-01-14)"
   sodipodi:docname="144logo.svg">
  <defs
     id="defs2">
    <inkscape:path-effect
       effect="simplify"
       id="path-effect3894"
       is_visible="true"
       steps="1"
       threshold="0.00113885"
       smooth_angles="360"
       helper_size="0"
       simplify_individual_paths="false"
       simplify_just_coalesce="false"
       simplifyindividualpaths="false"
       simplifyJustCoalesce="false" />
    <inkscape:path-effect
       effect="simplify"
       id="path-effect3890"
       is_visible="true"
       steps="1"
       threshold="0.00113885"
       smooth_angles="360"
       helper_size="0"
       simplify_individual_paths="false"
       simplify_just_coalesce="false"
       simplifyindividualpaths="false"
       simplifyJustCoalesce="false" />
    <inkscape:path-effect
       effect="simplify"
       id="path-effect3886"
       is_visible="true"
       steps="1"
       threshold="0.00113885"
       smooth_angles="360"
       helper_size="0"
       simplify_individual_paths="false"
       simplify_just_coalesce="false"
       simplifyindividualpaths="false"
       simplifyJustCoalesce="false" />
    <inkscape:path-effect
       effect="simplify"
       id="path-effect3882"
       is_visible="true"
       steps="1"
       threshold="0.00113885"
       smooth_angles="360"
       helper_size="0"
       simplify_individual_paths="false"
       simplify_just_coalesce="false"
       simplifyindividualpaths="false"
       simplifyJustCoalesce="false" />
  </defs>
  <sodipodi:namedview
     id="base"
     pagecolor="#ffffff"
     bordercolor="#666666"
     borderopacity="1.0"
     inkscape:pageopacity="0.0"
     inkscape:pageshadow="2"
     inkscape:zoom="2"
     inkscape:cx="20.230508"
     inkscape:cy="23.839358"
     inkscape:document-units="mm"
     inkscape:current-layer="layer1"
     showgrid="false"
     inkscape:window-width="1366"
     inkscape:window-height="705"
     inkscape:window-x="-8"
     inkscape:window-y="-8"
     inkscape:window-maximized="1"
     units="px"
     height="8.5in"
     fit-margin-left="-0.2"
     fit-margin-bottom="-0.3" />
  <metadata
     id="metadata5">
    <rdf:RDF>
      <cc:Work
         rdf:about="">
        <dc:format>image/svg+xml</dc:format>
        <dc:type
           rdf:resource="http://purl.org/dc/dcmitype/StillImage" />
        <dc:title></dc:title>
      </cc:Work>
    </rdf:RDF>
  </metadata>
  <g
     inkscape:label="Layer 1"
     inkscape:groupmode="layer"
     id="layer1"
     transform="translate(0,-258.9)">
    <path
       inkscape:connector-curvature="0"
       d="m 3.5022155,272.95403 c 0.2935253,0.35782 0.5595305,0.75215 1.0365082,0.91726 0.2568309,0.14637 0.4953228,0.33002 0.8071918,0.35785 0,0 0,0 0,0 0.5136661,0.23839 1.0640246,0.29357 1.6143821,0.37605 0.5320142,0.0736 1.027335,0.0466 1.5410035,-0.055 0.064213,-0.0108 0.1284235,0.0282 0.1926191,0.0374 v 0 c 0,0.0642 0.018313,0.11005 0.091727,0.11005 v 0 c 0,0.0374 0.00928,0.0642 0.00928,0.10082 0,0 0,0 0,0 0.027555,0.20196 0.1559385,0.33956 0.3118689,0.4496 0,0 0,0 0,0 v 0 c 0.027555,0.17439 -0.073392,0.36672 0.1008826,0.50452 v 0 0 c 0.027553,0.0549 0.064213,0.11005 0.091727,0.16476 v 0 c 0,0.0108 0,0.0282 0.00928,0.0374 0.00928,0.10082 0.073392,0.15601 0.1559384,0.20196 v 0 0 0 c 0.082549,0.0736 0.1284235,0.16475 0.091727,0.28438 -0.018313,0.0642 -0.027555,0.13761 0.05503,0.17439 v 0 c 0.045853,0.055 0.091727,0.11006 0.1375833,0.156 v 0 c 0.027555,0.11005 0.1009071,0.17439 0.2018001,0.21072 v 0 c 0.2843535,0.12837 0.4494625,0.39436 0.7062935,0.55034 0,0 0,0 0,0 0.06421,0.0919 0.165099,0.12837 0.266006,0.14638 0.201798,0.0551 0.403597,0.10082 0.605394,0.15601 v 0 c 0.183454,0.0736 0.366906,0.0825 0.559531,0.11006 0.05503,0.0546 0.128423,0.0374 0.201798,0.0466 0,0 0,0 0,0 0.155938,0.11006 0.330216,0.11883 0.513669,0.10082 0.100907,0 0.201795,0 0.293525,0 0.01831,-0.0108 0.03667,-0.0175 0.06421,-0.0282 0,0 0,0 0,0 0.155938,-0.0374 0.137583,0.156 0.247655,0.17438 v 0 0 c 0.08255,0.0736 0.05503,0.22957 0.192637,0.27555 0,0 0,0 0,0 0.14676,0.79798 0.330216,1.59603 0.210972,2.42152 v 0 c 0,0.0374 0,0.0736 0,0.11005 v 0 c -0.07339,0.0825 -0.05503,0.16478 -0.0093,0.25681 -0.0093,0.0175 -0.0093,0.0282 0,0.0466 v 0 c -0.06421,0.23838 -0.05503,0.4861 -0.14676,0.71544 v 0 0 0 c -0.01831,0.0176 -0.01831,0.0282 -0.01831,0.0466 -0.07337,0.15601 -0.07337,0.33 -0.09173,0.50446 0,0 0,0 0,0 -0.119245,0.27519 -0.06421,0.58703 -0.119245,0.87142 -0.09173,0.47697 -0.201798,0.95397 -0.302694,1.4309 -0.0093,0.0642 -0.01831,0.12837 -0.01831,0.20195 -0.07339,0.30242 -0.14676,0.61454 -0.210973,0.92641 -0.02755,0.12837 -0.14676,0.20195 -0.155938,0.33002 0,0 0,0 0,0 -0.05503,0.11883 -0.100907,0.2384 -0.155938,0.36672 -0.110066,0.14638 -0.06421,0.32118 -0.09173,0.477 -0.03667,0.19232 -0.0093,0.39434 -0.0093,0.58707 0,0.0642 0,0.1376 0,0.20196 0,0.27519 0.01831,0.54116 0.201798,0.76129 v 0 c 0.02756,0.15601 0.119245,0.27484 0.256838,0.34841 0.01831,0.0175 0.02756,0.0374 0.04585,0.055 v 0 c 0.07337,0.19232 0.155938,0.37606 0.229316,0.56869 0,0.0176 0.0093,0.0282 0.01831,0.0466 0.08255,0.31198 0.08255,0.62377 -0.02755,0.93563 -0.02756,0.0825 -0.02756,0.18358 -0.03667,0.27555 -0.05503,0.10082 -0.128407,0.19232 -0.14676,0.30242 v 0 c -0.05503,0.0736 -0.01831,0.11883 0.04585,0.15602 v 0 c 0.100907,0.0919 0.137602,0.25678 0.311869,0.24795 0.1376,0.0175 0.275178,0.0282 0.403597,0.0466 v 0 0 c 0.03667,0 0.06421,0 0.100907,0 v 0 c 0.100907,0 0.2018,0 0.302697,0 0.155938,0.055 0.302694,0.0825 0.458629,0 v 0 0 0 c 0,0 0,0 0,0 0.137583,-0.0282 0.229316,-0.12853 0.311869,-0.23841 v 0 c 0.128423,-0.0642 0.210973,-0.17439 0.311869,-0.26599 0.01832,-0.0176 0.02755,-0.0374 0.04585,-0.055 0,-0.0282 0,-0.0466 0,-0.0642 0.0092,0.0108 0.0092,0.0282 0,0.0642 0.03668,-0.0466 0.06422,-0.10082 0.10091,-0.14638 0.183453,-0.2107 0.403597,-0.4037 0.522842,-0.66043 0.192614,-0.18356 0.06422,-0.3208 -0.05503,-0.46788 v 0 c -0.0092,-0.0642 -0.04585,-0.11006 -0.10091,-0.15602 -0.05503,-0.14637 -0.155938,-0.25678 -0.311872,-0.30242 -0.431113,-0.31198 -0.623737,-0.73377 -0.550358,-1.26578 v 0 c 0.100907,-0.0642 0.0093,-0.12837 0,-0.19232 0.14676,-0.14638 0.08255,-0.36672 0.201801,-0.52285 0.146763,-0.38544 0.293517,-0.77966 0.449458,-1.16494 v 0 c 0.110069,-0.23839 0.22014,-0.47696 0.321044,-0.70628 v 0 c 0.08255,-0.14637 0.1651,-0.29358 0.247655,-0.44025 0,0 0,0 0,0 0.06422,-0.11883 0.137589,-0.2476 0.2018,-0.3667 v 0 c 0.06422,-0.10082 0.13759,-0.20196 0.201798,-0.30244 0,0 0,0 0,0 0.02755,-0.0736 0.06421,-0.13761 0.09172,-0.21092 0.110068,-0.0736 0.08255,-0.19234 0.10091,-0.30242 v 0 c 0.229317,-0.0466 0.09172,0.19234 0.192638,0.24761 0,0.11005 -0.0092,0.22 0.05503,0.32082 0.05503,0.57792 0,1.15578 0.155939,1.72444 0.201795,0.50449 0,1.00904 0,1.5135 0,0 0,0 0,0 -0.05503,0.14638 -0.09172,0.29359 -0.100911,0.45853 v 0 c -0.02755,0.0374 -0.01832,0.0736 0.0092,0.10082 v 0 c 0.01832,0.11944 -0.04585,0.24761 0.05503,0.34841 v 0 c 0.01832,0.0108 0.02755,0.0176 0.04585,0.0282 v 0 c 0,0.11005 -0.04585,0.22957 0.04585,0.33038 0.22014,0.3761 0.266005,0.75214 0.05503,1.14661 0,0 0,0 0,0 -0.146763,0.27553 -0.155938,0.5962 -0.302701,0.88056 v 0 c -0.110068,0.055 -0.110068,0.16476 -0.146763,0.25679 v 0 c -0.07337,0.0736 -0.110069,0.15601 -0.09172,0.25678 -0.01832,0.0176 -0.03668,0.0374 -0.04585,0.055 v 0 0 c -0.08255,0.0282 -0.128416,0.0736 -0.155938,0.156 -0.0092,0.0175 -0.0092,0.0282 0,0.0466 -0.22014,0.22957 -0.192636,0.63288 0.04585,0.76129 v 0 0 c 0.08255,0 0.174275,0 0.256832,0 0.04585,0.0175 0.09172,0.0374 0.146763,0.0466 0.284354,0.19232 0.605394,0.0736 0.908092,0.10082 0.210966,0.0642 0.412767,0.0282 0.623741,0 v 0 c 0.100895,0 0.201796,-0.0108 0.302694,-0.0108 0,0 0,0 0,0 0,0 0,0 0,0 0.284352,0 0.587046,0.0551 0.816363,-0.20196 0.05503,-0.10081 0.110068,-0.20196 0.165118,-0.2936 0.05503,-0.055 0.10091,-0.11883 0.09172,-0.20196 0,0 0,0 0,0 0.06422,-0.0919 0.05503,-0.20196 0.05503,-0.31196 0,0 0,0 0,0 0.08255,-0.11883 0.04585,-0.2476 0,-0.36675 0.0092,-0.0176 0.0092,-0.0282 0,-0.0374 -0.06422,-0.22956 -0.09172,-0.46788 -0.247663,-0.66959 0.0092,-0.0736 -0.02755,-0.12837 -0.05503,-0.19232 0,0 0,0 0,0 0,0 0,0 0,0 -0.05503,-0.4037 -0.03668,-0.80713 -0.03668,-1.21077 -0.0092,-0.0108 -0.01832,-0.0108 -0.01832,-0.0175 v 0 c 0,0 0,0 0,0 0.0092,0.0108 0.01832,0.0108 0.01832,0.0175 0.146763,-0.13714 0.08255,-0.32082 0.08255,-0.47695 -0.0092,-0.93564 0.22014,-1.83453 0.330216,-2.75181 0.06422,-0.5412 0.155938,-1.07319 0.229315,-1.61439 0.02755,-0.0642 0.04585,-0.12837 0.07339,-0.18358 v 0 c 0.08255,-0.13761 0.155943,-0.27481 0.238488,-0.4126 v 0 0 c 0.02755,-0.0374 0.02755,-0.0825 0.02755,-0.12837 0.07339,-0.21115 0.275179,-0.20196 0.495323,-0.17439 0.110053,0.0175 0.22014,0 0.330215,0 0.0092,0.0108 0.01838,0.0108 0.02755,0.0108 0.128415,0.0642 0.266006,0.0282 0.394421,0.0282 0.174279,0 0.311873,0.0108 0.238492,0.23839 -0.0092,0.0466 0.01838,0.10082 0.06422,0.12852 v 0 c 0.119242,0.23841 0.183447,0.50454 0.357731,0.70633 0.165112,0.0919 -0.02755,0.32118 0.155943,0.40373 v 0 c 0.01838,0.0642 0.02755,0.13761 0.04587,0.20196 v 0 c 0,0.0825 0.0092,0.16476 0.0092,0.24758 0.06421,0.27557 0.01838,0.57785 0.201805,0.81635 0.09172,0.0642 0.01838,0.19232 0.09172,0.26599 0.09172,0.42197 0.02755,0.8439 0.05503,1.25667 v 0 c -0.08255,0.12837 -0.05503,0.266 -0.04587,0.40372 v 0 c -0.01838,0.1376 -0.03668,0.266 -0.04587,0.40374 v 0 c -0.13759,0.22955 -0.385251,0.39435 -0.458634,0.66042 v 0 c -0.192614,0.19233 -0.192614,0.45855 -0.25683,0.70629 v 0 c -0.174279,0.12837 -0.128416,0.27553 -0.04587,0.42199 0.0092,0.0175 0.02755,0.0374 0.03668,0.0549 v 0 0 c 0.07339,0.11005 0.201805,0.0919 0.302697,0.11005 v 0 c 0.137589,0.11005 0.302697,0.0825 0.467804,0.0919 0.32104,0.10082 0.642087,0.0374 0.972302,0.0466 0.201805,0 0.394422,-0.0374 0.587047,-0.0825 0.02755,0 0.05503,-0.0108 0.08255,-0.0175 0.05503,0.0108 0.10091,0.0175 0.146748,-0.0374 v 0 c 0.155942,-0.0374 0.321042,-0.0549 0.458627,-0.16476 v 0 c 0.10091,-0.0175 0.155943,-0.0736 0.192638,-0.15601 v 0 c 0.02755,-0.0374 0.06422,-0.0733 0.09172,-0.11006 v 0 0 c 0.174279,-0.10081 0.04587,-0.25678 0.07339,-0.39435 v 0 c -0.05503,-0.30243 0.10091,-0.62375 -0.06422,-0.92645 -0.09172,-0.11883 -0.0092,-0.29359 -0.119242,-0.41262 0,0 0,0 0,0 -0.07336,-0.62377 -0.110053,-1.24746 -0.06422,-1.87125 v 0 c 0.08256,-0.10082 0.04587,-0.23838 0.09172,-0.35781 0.09172,-0.26599 0.210972,-0.51363 0.210972,-0.80717 0,-0.0825 0.05503,-0.11005 0.100911,-0.16476 v 0 c 0.09172,-0.0642 0.04587,-0.12837 0,-0.19234 0,0 0,0 0,0 0.05503,-0.0825 0.119242,-0.15601 0.10091,-0.266 0.08255,-0.14638 0.0092,-0.32999 0.137589,-0.4585 v 0 c 0,0 0,0 0,0 0.128447,-0.0642 0.192636,-0.16477 0.201804,-0.31198 0.128446,-0.0825 0.08255,-0.30242 0.256833,-0.3484 0.0642,0.0825 0.137589,0.16476 0.201782,0.25679 0.04584,0.16477 0.155943,0.28438 0.247669,0.41264 0.0276,0.0642 0.07339,0.11883 0.137589,0.15602 0.146748,0.22001 0.265991,0.45851 0.376078,0.70627 v 0 0 c 0.01838,0.0175 0.0276,0.0374 0.04584,0.055 0.04584,0.0919 0.01838,0.21072 0.110084,0.29361 v 0 c 0.03666,0.0549 0.07339,0.11005 0.10091,0.16475 v 0 c 0.10091,0.32082 0.210949,0.63289 0.476978,0.8622 0.119226,0.11006 0.155943,0.27555 0.220152,0.4126 v 0 c 0,0.0736 -0.0276,0.14638 0.03668,0.20196 v 0 c 0.0642,0.23839 0.110084,0.47699 0.220151,0.70633 0.201784,0.39436 0.119227,0.81635 0,1.21992 -0.0092,0.0108 -0.01838,0.0282 -0.0092,0.0374 0,0 0,0 0,0 -0.220152,0.22957 -0.394426,0.47695 -0.495324,0.77052 -0.01838,0.0374 -0.03668,0.0736 -0.05503,0.11006 v 0 c 0,0 0,0 0,0 0,0.0108 -0.0092,0.0108 -0.0092,0.0175 -0.09172,0.22 -0.04584,0.45853 -0.13759,0.67882 0.03666,0.0825 0.07336,0.16476 0.10091,0.23839 v 0 0 c 0.17428,0.20196 0.394417,0.0919 0.605394,0.11006 v 0 c 0.0642,0.0175 0.137589,0.0374 0.201782,0.055 0,0 0,0 0,0 v 0 c 0.0642,0.0736 0.146748,0.0639 0.229314,0.0546 0.376073,-0.0466 0.761325,0 1.146574,-0.0642 0.155943,-0.0175 0.302709,-0.0374 0.458632,-0.0466 v 0 c 0.27519,-0.0282 0.559527,-0.0175 0.761328,-0.26598 v 0 c 0,0 0,0 0,0 0.01838,-0.0176 0.03666,-0.0282 0.05503,-0.0466 v 0 0 c 0.146748,-0.11005 0.146748,-0.24759 0.110084,-0.4126 -0.04584,-0.22957 -0.01838,-0.47699 -0.110084,-0.69718 -0.01838,-0.0175 -0.0276,-0.0374 -0.04584,-0.055 0,0 0,0 0,0 -0.03666,-0.24761 -0.09172,-0.48614 -0.210995,-0.70631 v 0 c -0.01838,-0.0642 -0.02758,-0.1376 -0.04584,-0.20196 -0.03666,-0.23839 -0.07336,-0.46784 -0.110084,-0.70623 0,0 0,0 0,0 v 0 c -0.09172,-0.14638 0.09172,-0.32118 -0.04584,-0.45853 0.0092,-0.1376 0,-0.266 -0.08255,-0.38548 0,-0.0108 -0.0092,-0.0175 -0.01838,-0.0282 -0.04584,-0.156 -0.09172,-0.31197 -0.146748,-0.46788 v 0 c -0.0092,-0.0642 0.0092,-0.1376 -0.05503,-0.19232 -0.07337,-0.53201 -0.05503,-1.07319 -0.04584,-1.60517 0,-0.13761 0.0276,-0.28439 0.04584,-0.42202 0,0 0,0 0,0 -0.03668,-0.19233 -0.0276,-0.37606 0.05503,-0.55034 0.0092,-0.0108 0.0092,-0.0175 0.0092,-0.0282 0.16511,-0.38545 0.385248,-0.75215 0.348548,-1.19245 -0.0092,-0.11006 0,-0.22002 -0.05503,-0.31199 0,-0.0642 0,-0.12837 0,-0.19232 -0.01838,-0.25678 0,-0.51366 0.09172,-0.76134 v 0 c -0.0092,-0.0374 -0.0276,-0.0642 -0.03666,-0.10081 v 0 c 0.03666,-0.31198 0.0092,-0.62375 -0.04584,-0.92645 v 0 c 0.01838,-0.0282 0.0642,-0.0549 0.0092,-0.0917 0,0 0,0 0,0 0.0092,-0.0466 0.04584,-0.0466 0.08255,-0.0466 v 0 c 0.04584,0.0736 0.10091,0.1376 0.146747,0.21091 0.0276,0.0546 0.0276,0.12837 0.09172,0.16477 0,0 0,0 0.0092,-0.0108 0,0 0,0 0,0 0,0 0,0 -0.0092,0 v 0 c 0.0092,0.0642 0.05503,0.10082 0.10091,0.14638 v 0 c 0.01838,0.11005 0.0276,0.22957 0.155941,0.266 v 0 c -0.0092,0.0108 0,0.0282 0.0092,0.0282 0.0092,0.0642 0.03668,0.11883 0.08255,0.16476 v 0 c 0.0642,0.10081 0.110084,0.22001 0.220151,0.2844 0.01838,0.0374 0.03668,0.0736 0.05503,0.11005 v 0 c -0.0092,0.0825 0.04584,0.14638 0.10091,0.20196 v 0 c 0.0642,0.0825 0.128447,0.17437 0.201784,0.25678 0.03668,0.11006 0.110084,0.19233 0.210949,0.24795 v 0 0 c 0.01838,0.0176 0.0276,0.0374 0.04584,0.055 0,0.14638 0.09172,0.22956 0.192636,0.31198 0.220152,0.27554 0.412768,0.58706 0.770501,0.71549 0.266028,0.16475 0.467793,0.4037 0.706291,0.60537 0,0 0,0 0,0 0.119227,0.21114 0.275153,0.36674 0.532012,0.36674 0.0092,0 0.0276,0 0.0459,0 0.01838,0.0108 0.0276,0.0282 0.0459,0.0374 v 0 0 c 0.03654,0.0825 0.100864,0.11882 0.192637,0.11882 v 0 c 0.03654,0.0642 0.09172,0.13761 0.174278,0.0919 0.09172,-0.0466 0.0276,-0.11882 0.0092,-0.19232 -0.0459,-0.13761 -0.08255,-0.28438 -0.128446,-0.42202 -0.0459,-0.0825 -0.100895,-0.17395 -0.146702,-0.2568 v 0 0 0 0 0 c -0.01838,-0.10082 0,-0.22001 -0.110084,-0.28438 -0.0276,-0.0282 -0.05503,-0.0466 -0.08255,-0.0736 0,0 0,0 0,0 -0.265995,-0.18356 -0.577882,-0.21115 -0.871404,-0.30242 0,0 0,0 0,0 v 0 0 0 0 c 0,0 0,0 0,0 -0.174278,-0.12852 -0.366911,-0.23839 -0.449435,-0.45851 -0.09172,-0.11883 -0.183469,-0.22958 -0.275188,-0.34843 v 0 c 0,0 0,0 0,0 -0.110084,-0.18358 -0.165111,-0.39435 -0.302708,-0.55957 -0.0092,-0.0108 -0.0276,-0.0108 -0.03668,-0.0108 v 0 c -0.03668,-0.0466 -0.07339,-0.10082 -0.110084,-0.14638 v 0 c -0.174278,-0.40375 -0.339387,-0.80717 -0.513669,-1.21994 -0.128447,-0.17438 -0.183447,-0.38542 -0.247672,-0.58701 -0.03666,-0.11944 -0.07339,-0.2384 -0.155943,-0.33002 v 0 c -0.0642,-0.0736 -0.05503,-0.19234 -0.155941,-0.24759 -0.03668,-0.14638 -0.128447,-0.26599 -0.210951,-0.38497 -0.146748,-0.32119 -0.385255,-0.5871 -0.504499,-0.9265 -0.02758,-0.16475 -0.137605,-0.266 -0.24767,-0.3667 v 0 c 0,-0.0736 -0.03666,-0.11005 -0.09172,-0.14638 0,0 0,0 0,0 -0.119227,-0.21114 -0.293513,-0.38541 -0.458637,-0.56866 0,0 0,0 0,0 -0.110084,-0.19232 -0.265991,-0.33956 -0.458632,-0.44963 -0.04584,-0.1376 -0.155943,-0.22001 -0.265991,-0.29357 -0.01838,-0.0175 -0.0276,-0.0374 -0.04584,-0.0549 -0.01838,-0.0176 -0.03668,-0.0282 -0.05503,-0.0466 v 0 0 c -0.155942,-0.22955 -0.412773,-0.3761 -0.605393,-0.5687 v 0 c -0.08255,-0.10082 -0.165112,-0.21115 -0.302708,-0.2476 0,-0.0175 -0.0092,-0.0282 -0.01838,-0.0374 v 0 c -0.0276,-0.0736 -0.08255,-0.11883 -0.146748,-0.15602 v 0 c -0.04584,-0.0736 -0.10091,-0.1376 -0.192637,-0.15599 v 0 c -0.03666,-0.0282 -0.07339,-0.0642 -0.110084,-0.0919 v 0 0 c -0.192636,-0.25679 -0.440289,-0.44026 -0.706296,-0.61453 -0.0642,-0.0736 -0.119227,-0.15601 -0.210949,-0.19234 v 0 0 c -0.04584,-0.0736 -0.128432,-0.0825 -0.192638,-0.11883 -0.01838,-0.0108 -0.0276,-0.0282 -0.04584,-0.0374 0,0 0,0 0,0 -0.119226,-0.10082 -0.256831,-0.18358 -0.412773,-0.20196 -0.03666,-0.0374 -0.07339,-0.0642 -0.110083,-0.10082 v 0 c -0.0092,-0.0175 -0.0276,-0.0374 -0.03666,-0.0551 0,0 0,0 0,0 -0.155943,-0.11883 -0.321032,-0.20196 -0.504499,-0.2568 -0.02755,0 -0.05503,0 -0.09172,-0.0108 0,0 0,0 0,0 -0.110053,-0.0642 -0.238492,-0.10082 -0.366906,-0.10082 -0.07336,-0.0282 -0.13759,-0.0642 -0.210973,-0.0919 0,0 0,0 0,0 0,0 0,0 0,0 -0.330215,-0.11883 -0.678775,-0.0825 -1.01816,-0.11883 -0.165132,-0.0175 -0.385251,-0.0642 -0.55953,0.0642 -0.266006,-0.0282 -0.522842,0.0175 -0.761328,0.156 -0.192636,0.0642 -0.394427,0.0919 -0.568706,0.19234 0,0 0,0 0,0 -0.174278,0.0551 -0.210973,-0.0175 -0.201804,-0.18358 0.0092,-0.22954 0.06422,-0.46789 -0.09172,-0.67873 -0.03666,-0.0919 -0.06422,-0.17439 -0.100895,-0.26599 v 0 c 0,-0.0374 -0.0092,-0.0736 -0.03668,-0.0919 -0.110053,-0.35783 -0.284356,-0.67875 -0.513668,-0.97227 v 0 c -0.02755,-0.10081 -0.06422,-0.18358 -0.155943,-0.24759 -0.247661,-0.15602 -0.348559,-0.4679 -0.614565,-0.59623 v 0 c -0.01838,-0.0108 -0.02755,-0.0108 -0.04587,-0.0108 v 0 c -0.07339,-0.0642 -0.146747,-0.10082 -0.247661,-0.10082 0,0 0,0 0,0 -0.192614,-0.0825 -0.385252,-0.0282 -0.568702,0 -0.559533,0.0919 -1.119063,0.0466 -1.678593,0.0108 -0.412766,-0.0549 -0.816363,-0.0825 -1.21996,0.0466 v 0 c -0.100911,0 -0.201798,0.0175 -0.275178,0.10082 -0.119242,0.12837 -0.293518,0.10082 -0.440288,0.15601 -0.04585,0 -0.10091,0 -0.146763,0 v 0 c -0.06422,-0.0175 -0.128415,-0.0374 -0.201797,-0.055 v 0 c -0.210973,-0.11005 -0.431113,-0.11005 -0.66043,-0.10081 -0.486147,-0.16521 -0.981471,-0.10082 -1.467623,-0.0736 -0.1651,0.0108 -0.311865,-0.0466 -0.467804,-0.0282 -0.07339,-0.0466 -0.155938,-0.0549 -0.238487,-0.0549 0,0 0,0 0,0 -0.155939,-0.0736 -0.311869,-0.0642 -0.467804,0.0108 -0.01831,0.0108 -0.03667,0.0175 -0.04585,0.0282 0,0 0,0 0,0 -0.284353,-0.11883 -0.366905,0.1376 -0.513669,0.27555 -0.128423,0.11005 -0.302697,0.15601 -0.412771,0.30243 0,0 0,0 0,0 -0.1651,0.0466 -0.330216,0.0919 -0.495321,0.13761 -0.01831,0 -0.03668,0.0108 -0.06421,0.0175 -0.247663,0.17439 -0.476979,0.0825 -0.706295,-0.0466 v 0 c -0.04585,-0.0374 -0.091727,-0.0736 -0.137583,-0.10082 v 0 c -0.1284251,-0.0736 -0.091729,-0.26597 -0.2201413,-0.3484 v 0 0 c -0.045851,-0.10082 -0.1009072,-0.20196 -0.1467601,-0.30241 -0.045851,-0.17439 -0.091727,-0.33956 -0.1376017,-0.51372 v 0 c -0.00928,-0.3208 -0.00928,-0.64203 -0.018313,-0.96311 0,-0.0175 0.00928,-0.0282 0.00928,-0.0466 v 0 c 0.036672,-0.0374 0.018313,-0.0736 -0.00928,-0.10082 0,-0.0642 0.00928,-0.12852 0.00928,-0.19234 v 0 c 0.082549,-0.11005 0.027553,-0.2384 0.05503,-0.3578 0.05503,-0.0551 0.1100654,-0.12852 0.05503,-0.19234 -0.091727,-0.11005 0.00928,-0.18358 0.027555,-0.26599 0,-0.0374 0,-0.0642 0,-0.10082 0,-0.0642 0.00928,-0.13714 0.00928,-0.20196 v 0 c 0,-0.0825 -0.018313,-0.17439 0.045851,-0.24759 0.082549,-0.0466 0.1284235,-0.11883 0.091727,-0.21115 -0.036675,-0.0825 0,-0.14638 0.064213,-0.20196 v 0 0 c 0.00928,-0.0108 0.018313,-0.0282 0.018313,-0.0374 0.091727,-0.21115 0.1100654,-0.44026 0.082549,-0.66965 v 0 c 0,0 0,0 0,0 0,0 0,0 0,0 -0.00928,-0.0825 0.1192452,-0.16477 0,-0.2568 -0.018313,-0.0175 -0.036675,-0.0374 -0.045851,-0.055 0.073368,-0.18358 0.018313,-0.36673 0,-0.55956 v 0 0 c -0.018313,-0.0175 -0.036675,-0.0374 -0.045853,-0.055 0,-0.0825 0,-0.16476 0,-0.25679 0.036675,-0.0374 0.045853,-0.0642 0.00928,-0.11005 -0.036675,-0.0466 -0.073368,-0.10082 -0.1100654,-0.14638 0.027555,-0.0549 0.036675,-0.10081 0,-0.15601 -0.05503,-0.22001 -0.036672,-0.47697 -0.2293122,-0.65125 -0.027555,-0.0917 -0.05503,-0.19234 -0.1284235,-0.26598 v 0 c -0.036675,-0.0825 -0.1284235,-0.11005 -0.1926365,-0.15601 v 0 c -0.045853,-0.16476 -0.2017979,-0.21093 -0.3210408,-0.2936 0,0 0,0 0,0 0,0 0,0 0,0 C 8.7128053,262.58214 8.575225,262.5178 8.4101204,262.5178 8.235846,262.36179 8.024869,262.30708 7.804726,262.31584 c -0.2018001,-0.0175 -0.4035967,-0.0175 -0.5962236,-0.0825 -0.2017978,-0.0642 -0.3577306,0.0282 -0.4861482,0.18358 -0.064213,0.0825 -0.1375802,0.15602 -0.027555,0.25682 v 0 c 0.018314,0.0374 0.027555,0.0736 0.045851,0.11005 0.018313,0.0282 0.036675,0.0642 0.055031,0.0919 -0.091727,0.62375 0.1834532,0.77967 0.8163647,0.51371 v 0 c 0.1559385,-0.0175 0.2660029,0.0374 0.3393913,0.16476 0,0.0108 0.00928,0.0175 0.00928,0.0282 0,0 0,0 0,0 v 0 0 c 0.1100654,0.10081 0.064213,0.25678 0.14676,0.36674 v 0 0 c 0.018314,0.0374 0.036672,0.0642 0.05503,0.10082 v 0 0 c 0,0.0374 0,0.0642 0,0.10082 v 0 c -0.027555,0.0736 -0.018313,0.14638 0.045853,0.21071 0.018314,0.0374 0.036672,0.0642 0.045851,0.10082 v 0 c 0,0.0282 0,0.0642 0,0.0917 0,0 0,0 0,0 -0.036675,0.0282 -0.05503,0.0642 -0.045851,0.10082 v 0 c 0,0.0175 0,0.0374 0.00928,0.055 0,0 0,0 0,0 0,0 0,0 0,0 0,0.0825 0,0.16475 0,0.25678 0.036675,0.13761 0.045853,0.26599 0,0.40372 v 0 c 0,0.0919 -0.082549,0.16477 -0.055031,0.25682 -0.064213,0.0736 -0.05503,0.15601 -0.05503,0.23839 -0.1009071,0.1376 -0.2109724,0.27555 -0.2017978,0.46788 -0.055033,0.055 -0.1375802,0.10082 -0.1559384,0.19234 0,0 0,0.0108 0,0.0108 -0.027555,0.0825 -0.055031,0.17394 -0.082549,0.2568 v 0 c -0.045853,0.0546 -0.073374,0.11883 -0.055031,0.19234 0,0 0,0 0,0 -0.036675,0.0736 -0.1009071,0.11882 -0.1009071,0.21115 v 0 c -0.036671,0.10081 -0.064213,0.19232 -0.1009071,0.29358 -0.073392,0.11006 -0.1009072,0.22956 -0.1009072,0.35782 0,0 0,0 0,0 -0.055031,0.20196 -0.1009071,0.41265 -0.091727,0.6237 v 0 0 c 0,0.0466 0,0.10082 0,0.14638 0,0.22002 0,0.4309 0,0.65125 0,0 0,0 0,0 -0.036675,0.0642 -0.091727,0.12853 -0.055031,0.22002 0,0.0374 0,0.0642 0,0.10082 v 0 c -0.027555,0.32117 -0.045851,0.64209 0.1467601,0.92644 0,0 0,0 0,0 v 0 0 0 c 0,0.0466 0.00928,0.0917 0.00928,0.14638 0,0.0917 0.00928,0.17396 0.05503,0.2568 0.045853,0.13761 0.027555,0.30241 0.1926191,0.37606 -0.018314,0.13761 0.073392,0.22957 0.1376002,0.33956 0,0.0108 0.00928,0.0282 0,0.0374 -0.1192452,0.28438 0.082549,0.46784 0.2201407,0.66957 0,0 0,0 0,0 0.1009071,0.33002 0.3577305,0.55032 0.5595302,0.81636 0.027555,0.156 -0.05503,0.2107 -0.2018001,0.2568 -0.3852511,0.12852 -0.7796712,0.16477 -1.1832686,0.14638 -0.055031,0 -0.1009071,0 -0.1375802,0.0466 v 0 0 c -0.5870467,0.0466 -1.1557504,-0.0642 -1.7244537,-0.20195 0,0 0,0.0108 0,0.0108 0,0 0,0 0,0 v -0.0108 c -0.073392,-0.0825 -0.1651195,-0.0374 -0.256831,-0.055 v 0 c -0.1926146,-0.12837 -0.3944218,-0.22955 -0.6053922,-0.30242 -0.2201476,-0.12837 -0.4311178,-0.27555 -0.6604314,-0.39436 -0.091727,-0.0466 -0.1834532,0 -0.2017979,0.11883 -0.045851,0.0374 -0.055031,0.11882 -0.00928,0.18358 z m 10.0898945,9.66795 v 0 c 0,0 0,0 0,0 0,0 -0.0093,-0.0108 0,0 -0.0093,-0.0108 0,-0.0108 0,0 z"
       id="path7173"
       style="stroke-width:0.09172628" />
    <g
       transform="matrix(0.03873958,0,0,0.03209884,-0.75116767,260.85981)"
       id="g9450">
      <linearGradient
         id="SVGID_1_"
         gradientUnits="userSpaceOnUse"
         x1="110.147"
         y1="851.46082"
         x2="175.0506"
         y2="851.46082"
         gradientTransform="matrix(0.6794,-0.7338,0.7338,0.6794,-405.8327,434.1327)">
        <stop
           offset="0"
           style="stop-color:#54B948"
           id="stop9016" />
        <stop
           offset="0.3764"
           style="stop-color:#00A651"
           id="stop9018" />
        <stop
           offset="1"
           style="stop-color:#005826"
           id="stop9020" />
      </linearGradient>
      <path
         inkscape:connector-curvature="0"
         d="m 360.3,904.9 c 0,0 -32.1,15.8 -88.9,6.1 0,0 32.1,-1.6 49.5,-5.3 20.6,-4.3 37.2,-1.4 39.4,-0.8 z"
         style="fill:#000000"
         id="path9023" />
      <linearGradient
         id="SVGID_2_"
         gradientUnits="userSpaceOnUse"
         x1="88.230301"
         y1="812.1275"
         x2="174.897"
         y2="812.1275"
         gradientTransform="matrix(0.6794,-0.7338,0.7338,0.6794,-405.8327,434.1327)">
        <stop
           offset="0"
           style="stop-color:#54B948"
           id="stop9025" />
        <stop
           offset="0.3764"
           style="stop-color:#00A651"
           id="stop9027" />
        <stop
           offset="1"
           style="stop-color:#005826"
           id="stop9029" />
      </linearGradient>
      <path
         inkscape:connector-curvature="0"
         d="m 346.9,892.8 c 0,0 -71.4,19.3 -134.9,-6.8 0,0 34.9,12.8 71.5,7.2 36.6,-5.7 56.1,-3.5 63.4,-0.4 z"
         style="fill:#000000"
         id="path9032" />
      <linearGradient
         id="SVGID_3_"
         gradientUnits="userSpaceOnUse"
         x1="104.2303"
         y1="782.16913"
         x2="174.897"
         y2="782.16913"
         gradientTransform="matrix(0.6794,-0.7338,0.7338,0.6794,-405.8327,434.1327)">
        <stop
           offset="0"
           style="stop-color:#54B948"
           id="stop9034" />
        <stop
           offset="0.3764"
           style="stop-color:#00A651"
           id="stop9036" />
        <stop
           offset="1"
           style="stop-color:#005826"
           id="stop9038" />
      </linearGradient>
      <path
         inkscape:connector-curvature="0"
         d="m 334.7,881.5 c 0,0 -92.6,9.2 -143.6,-36.7 0,0 30.6,23.4 81.7,25.6 51,2.3 61.9,11.1 61.9,11.1 z"
         style="fill:#000000"
         id="path9041" />
      <linearGradient
         id="SVGID_4_"
         gradientUnits="userSpaceOnUse"
         x1="112.2303"
         y1="764.5025"
         x2="176.5636"
         y2="764.5025"
         gradientTransform="matrix(0.6794,-0.7338,0.7338,0.6794,-405.8327,434.1327)">
        <stop
           offset="0"
           style="stop-color:#54B948"
           id="stop9043" />
        <stop
           offset="0.3764"
           style="stop-color:#00A651"
           id="stop9045" />
        <stop
           offset="1"
           style="stop-color:#005826"
           id="stop9047" />
      </linearGradient>
      <path
         inkscape:connector-curvature="0"
         d="m 317.8,863.5 c 0,0 -76,3.6 -129.1,-31.8 0,0 46,16.8 84.4,20.5 24.5,2.3 44.7,11.3 44.7,11.3 z"
         style="fill:#000000"
         id="path9050" />
      <linearGradient
         id="SVGID_5_"
         gradientUnits="userSpaceOnUse"
         x1="118.5636"
         y1="734.66913"
         x2="179.897"
         y2="734.66913"
         gradientTransform="matrix(0.6794,-0.7338,0.7338,0.6794,-405.8327,434.1327)">
        <stop
           offset="0"
           style="stop-color:#54B948"
           id="stop9052" />
        <stop
           offset="0.3764"
           style="stop-color:#00A651"
           id="stop9054" />
        <stop
           offset="1"
           style="stop-color:#005826"
           id="stop9056" />
      </linearGradient>
      <path
         inkscape:connector-curvature="0"
         d="m 161.9,798.3 c 0,0 59,48.7 145.4,51 0,0 -28.7,-15.3 -68.5,-21.7 -39.8,-6.3 -76.9,-29.3 -76.9,-29.3 z"
         style="fill:#000000"
         id="path9059" />
      <linearGradient
         id="SVGID_6_"
         gradientUnits="userSpaceOnUse"
         x1="126.5636"
         y1="714.91913"
         x2="182.5636"
         y2="714.91913"
         gradientTransform="matrix(0.6794,-0.7338,0.7338,0.6794,-405.8327,434.1327)">
        <stop
           offset="0"
           style="stop-color:#54B948"
           id="stop9061" />
        <stop
           offset="0.3764"
           style="stop-color:#00A651"
           id="stop9063" />
        <stop
           offset="1"
           style="stop-color:#005826"
           id="stop9065" />
      </linearGradient>
      <path
         inkscape:connector-curvature="0"
         d="m 155.4,781.3 c 0,0 47.9,43.9 136.7,50.3 0,0 -26.2,-15.2 -52.3,-19.3 -26.1,-4.2 -52,-9.6 -84.4,-31 z"
         style="fill:#000000"
         id="path9068" />
      <linearGradient
         id="SVGID_7_"
         gradientUnits="userSpaceOnUse"
         x1="137.2303"
         y1="693.33582"
         x2="186.2303"
         y2="693.33582"
         gradientTransform="matrix(0.6794,-0.7338,0.7338,0.6794,-405.8327,434.1327)">
        <stop
           offset="0"
           style="stop-color:#54B948"
           id="stop9070" />
        <stop
           offset="0.3764"
           style="stop-color:#00A651"
           id="stop9072" />
        <stop
           offset="1"
           style="stop-color:#005826"
           id="stop9074" />
      </linearGradient>
      <path
         inkscape:connector-curvature="0"
         d="m 149.2,761 c 0,0 65.8,55.5 127.2,51 0,0 -22,-12.4 -57.7,-20.1 C 183,784.2 149.2,761 149.2,761 Z"
         style="fill:#000000"
         id="path9077" />
      <linearGradient
         id="SVGID_8_"
         gradientUnits="userSpaceOnUse"
         x1="144.397"
         y1="672.5025"
         x2="189.897"
         y2="672.5025"
         gradientTransform="matrix(0.6794,-0.7338,0.7338,0.6794,-405.8327,434.1327)">
        <stop
           offset="0"
           style="stop-color:#54B948"
           id="stop9079" />
        <stop
           offset="0.3764"
           style="stop-color:#00A651"
           id="stop9081" />
        <stop
           offset="1"
           style="stop-color:#005826"
           id="stop9083" />
      </linearGradient>
      <path
         inkscape:connector-curvature="0"
         d="m 140.1,742.9 c 0,0 60.5,44 122.1,51.1 0,0 -17.5,-13.5 -52.5,-23.2 -35,-9.7 -58.8,-21.4 -69.6,-27.9 z"
         style="fill:#000000"
         id="path9086" />
      <linearGradient
         id="SVGID_9_"
         gradientUnits="userSpaceOnUse"
         x1="152.8951"
         y1="638.5025"
         x2="195.897"
         y2="638.5025"
         gradientTransform="matrix(0.6794,-0.7338,0.7338,0.6794,-405.8327,434.1327)">
        <stop
           offset="0"
           style="stop-color:#54B948"
           id="stop9088" />
        <stop
           offset="0.3764"
           style="stop-color:#00A651"
           id="stop9090" />
        <stop
           offset="1"
           style="stop-color:#005826"
           id="stop9092" />
      </linearGradient>
      <path
         inkscape:connector-curvature="0"
         d="m 116.8,709.7 c 0,0 58.5,55.5 128.8,60.6 0,0 -13.9,-10.6 -37.9,-16.9 -24.1,-6.4 -60.1,-22 -90.9,-43.7 z"
         style="fill:#000000"
         id="path9095" />
      <linearGradient
         id="SVGID_10_"
         gradientUnits="userSpaceOnUse"
         x1="161.6795"
         y1="609.16913"
         x2="202.2303"
         y2="609.16913"
         gradientTransform="matrix(0.6794,-0.7338,0.7338,0.6794,-405.8327,434.1327)">
        <stop
           offset="0"
           style="stop-color:#54B948"
           id="stop9097" />
        <stop
           offset="0.3764"
           style="stop-color:#00A651"
           id="stop9099" />
        <stop
           offset="1"
           style="stop-color:#005826"
           id="stop9101" />
      </linearGradient>
      <path
         inkscape:connector-curvature="0"
         d="m 93.4,676 c 0,0 70,69.1 142.7,77 0,0 -21.6,-15 -39.9,-20.2 C 177.9,727.6 134.7,709.9 93.4,676 Z"
         style="fill:#000000"
         id="path9104" />
      <linearGradient
         id="SVGID_11_"
         gradientUnits="userSpaceOnUse"
         x1="180.6864"
         y1="591.0025"
         x2="207.3221"
         y2="591.0025"
         gradientTransform="matrix(0.6794,-0.7338,0.7338,0.6794,-405.8327,434.1327)">
        <stop
           offset="0"
           style="stop-color:#54B948"
           id="stop9106" />
        <stop
           offset="0.3764"
           style="stop-color:#00A651"
           id="stop9108" />
        <stop
           offset="1"
           style="stop-color:#005826"
           id="stop9110" />
      </linearGradient>
      <path
         inkscape:connector-curvature="0"
         d="m 96.1,645.1 c 0,0 42.3,68.7 130.5,92.6 0,0 -1.2,-5.6 -38.4,-23.8 C 151,695.7 129.4,682.3 96.1,645.1 Z"
         style="fill:#000000"
         id="path9113" />
      <linearGradient
         id="SVGID_12_"
         gradientUnits="userSpaceOnUse"
         x1="195.6622"
         y1="587.33582"
         x2="213.1273"
         y2="587.33582"
         gradientTransform="matrix(0.6794,-0.7338,0.7338,0.6794,-405.8327,434.1327)">
        <stop
           offset="0"
           style="stop-color:#54B948"
           id="stop9115" />
        <stop
           offset="0.3764"
           style="stop-color:#00A651"
           id="stop9117" />
        <stop
           offset="1"
           style="stop-color:#005826"
           id="stop9119" />
      </linearGradient>
      <path
         inkscape:connector-curvature="0"
         d="m 109.5,644.2 c 0,0 69.4,69.7 108.9,78.1 0,0 -12,-15 -41.7,-31.5 C 147,674.4 139,669.2 109.5,644.2 Z"
         style="fill:#000000"
         id="path9122" />
      <linearGradient
         id="SVGID_13_"
         gradientUnits="userSpaceOnUse"
         x1="208.26871"
         y1="554.5423"
         x2="217.82809"
         y2="554.5423"
         gradientTransform="matrix(0.6794,-0.7338,0.7338,0.6794,-405.8327,434.1327)">
        <stop
           offset="0"
           style="stop-color:#54B948"
           id="stop9124" />
        <stop
           offset="0.3764"
           style="stop-color:#00A651"
           id="stop9126" />
        <stop
           offset="1"
           style="stop-color:#005826"
           id="stop9128" />
      </linearGradient>
      <path
         inkscape:connector-curvature="0"
         d="m 87.6,599.9 c 0,0 76.3,90.3 120.1,105.5 0,0 -28.3,-27 -53.8,-44.2 -25.6,-17.1 -66.3,-61.3 -66.3,-61.3 z"
         style="fill:#000000"
         id="path9131" />
      <linearGradient
         id="SVGID_14_"
         gradientUnits="userSpaceOnUse"
         x1="218.5032"
         y1="544.18707"
         x2="226.5584"
         y2="544.18707"
         gradientTransform="matrix(0.6794,-0.7338,0.7338,0.6794,-405.8327,434.1327)">
        <stop
           offset="0"
           style="stop-color:#54B948"
           id="stop9133" />
        <stop
           offset="0.3764"
           style="stop-color:#00A651"
           id="stop9135" />
        <stop
           offset="1"
           style="stop-color:#005826"
           id="stop9137" />
      </linearGradient>
      <path
         inkscape:connector-curvature="0"
         d="m 90.4,585.8 c 0,0 64.7,82.3 112.8,104.9 0,0 -10.9,-12.8 -35.5,-33.4 -24.6,-20.6 -52.2,-44.2 -77.3,-71.5 z"
         style="fill:#000000"
         id="path9140" />
      <linearGradient
         id="SVGID_15_"
         gradientUnits="userSpaceOnUse"
         x1="232.1745"
         y1="528.58728"
         x2="247.5636"
         y2="528.58728"
         gradientTransform="matrix(0.6794,-0.7338,0.7338,0.6794,-405.8327,434.1327)">
        <stop
           offset="0"
           style="stop-color:#54B948"
           id="stop9142" />
        <stop
           offset="0.3764"
           style="stop-color:#00A651"
           id="stop9144" />
        <stop
           offset="1"
           style="stop-color:#005826"
           id="stop9146" />
      </linearGradient>
      <path
         inkscape:connector-curvature="0"
         d="m 97.4,562.7 c 0,0 30.5,58.3 96.4,107.5 0,0 -14.4,-18.5 -32.7,-38.1 -18.3,-19.6 -41.2,-32.7 -63.7,-69.4 z"
         style="fill:#000000"
         id="path9149" />
      <path
         inkscape:connector-curvature="0"
         d="m 360.3,904.9 c 0,0 -29.4,15.8 -88.6,6.2 0,0 34.1,1.6 54.8,-2.2 13.4,-2.4 28.3,-3.2 33.8,-4 z"
         style="fill:#000000"
         id="path9151" />
      <path
         inkscape:connector-curvature="0"
         d="m 347.2,892.9 c 0,0 -71.4,19.3 -134.9,-6.8 0,0 25.1,11.7 76.5,9.9 29.6,-1 42.9,-2 58.4,-3.1 z"
         style="fill:#000000"
         id="path9153" />
      <path
         inkscape:connector-curvature="0"
         d="m 335.1,881.6 c 0,0 -92.9,9.1 -144,-36.8 0,0 30.8,24.1 81.6,29.5 40.2,4.2 62.4,7.3 62.4,7.3 z"
         style="fill:#000000"
         id="path9155" />
      <path
         inkscape:connector-curvature="0"
         d="m 318.1,863.6 c 0,0 -76.4,3.5 -129.4,-31.9 0,0 33.4,17.4 84.1,24.7 19.3,2.8 45.3,7.2 45.3,7.2 z"
         style="fill:#000000"
         id="path9157" />
      <path
         inkscape:connector-curvature="0"
         d="m 161.9,798.3 c 0,0 59.3,48.8 145.7,51.1 0,0 -34,-8 -66.6,-16.3 -39,-9.9 -79.1,-34.8 -79.1,-34.8 z"
         style="fill:#000000"
         id="path9159" />
      <path
         inkscape:connector-curvature="0"
         d="m 155.4,781.3 c 0,0 47.9,43.9 136.7,50.3 0,0 -26.8,-9.9 -52.9,-14 -26.1,-4.1 -51.4,-14.9 -83.8,-36.3 z"
         style="fill:#000000"
         id="path9161" />
      <path
         inkscape:connector-curvature="0"
         d="m 149.5,761.1 c 0,0 65.8,55.5 127.2,51 0,0 -15.9,-3.6 -49.4,-12.1 -44.8,-11.4 -77.8,-38.9 -77.8,-38.9 z"
         style="fill:#000000"
         id="path9163" />
      <path
         inkscape:connector-curvature="0"
         d="m 140.5,743 c 0,0 60.5,44 122.1,51.1 0,0 -22.7,-8.3 -53.6,-18.6 -34.5,-11.6 -57.8,-26 -68.5,-32.5 z"
         style="fill:#000000"
         id="path9165" />
      <path
         inkscape:connector-curvature="0"
         d="m 117.1,709.8 c 0,0 58.5,55.5 128.8,60.6 0,0 -15.8,-6.5 -39.9,-12.7 -33.4,-8.4 -58.1,-26.2 -88.9,-47.9 z"
         style="fill:#000000"
         id="path9167" />
      <path
         inkscape:connector-curvature="0"
         d="m 93.8,676.1 c 0,0 70,69.1 142.7,77 0,0 -23.9,-10 -42.2,-15.2 C 175.9,732.7 135.1,710 93.8,676.1 Z"
         style="fill:#000000"
         id="path9169" />
      <path
         inkscape:connector-curvature="0"
         d="m 96.1,645.1 c 0,0 42.6,68.8 130.8,92.7 0,0 -3.6,-1.9 -40.9,-20.1 -37.3,-18.2 -63.5,-38.8 -89.9,-72.6 z"
         style="fill:#000000"
         id="path9171" />
      <path
         inkscape:connector-curvature="0"
         d="m 109.5,644.2 c 0,0 69.4,69.7 108.9,78.1 0,0 -9.6,-7.1 -36.9,-22.9 -30.4,-17.6 -42.5,-30.2 -72,-55.2 z"
         style="fill:#000000"
         id="path9173" />
      <path
         inkscape:connector-curvature="0"
         d="m 86.7,598.8 c 0,0 76.3,90.3 120.1,105.5 0,0 -20.7,-14.3 -49.2,-36.7 -24.2,-18.9 -70.9,-68.8 -70.9,-68.8 z"
         style="fill:#000000"
         id="path9175" />
      <path
         inkscape:connector-curvature="0"
         d="m 90.4,585.8 c 0,0 64.7,82.3 112.8,104.9 0,0 -12.9,-9.9 -37.5,-30.4 -24.6,-20.5 -50.2,-47.2 -75.3,-74.5 z"
         style="fill:#000000"
         id="path9177" />
      <path
         inkscape:connector-curvature="0"
         d="m 97.4,562.7 c 0,0 30.3,58 96.2,107.2 0,0 -18.4,-15.8 -36.6,-35.4 -18.2,-19.6 -37.1,-35.1 -59.6,-71.8 z"
         style="fill:#000000"
         id="path9179" />
      <g
         id="g9192">
        <linearGradient
           id="SVGID_16_"
           gradientUnits="userSpaceOnUse"
           x1="249.2355"
           y1="504.97891"
           x2="267.897"
           y2="504.97891"
           gradientTransform="matrix(0.6794,-0.7338,0.7338,0.6794,-405.8327,434.1327)">
          <stop
             offset="0"
             style="stop-color:#54B948"
             id="stop9181" />
          <stop
             offset="0.3764"
             style="stop-color:#00A651"
             id="stop9183" />
          <stop
             offset="1"
             style="stop-color:#005826"
             id="stop9185" />
        </linearGradient>
        <path
           inkscape:connector-curvature="0"
           d="m 100.5,537.9 c 0,0 41.6,69.2 80.1,98.8 0,0 -15.9,-24 -29.7,-39.5 -13.8,-15.5 -35.4,-36.3 -50.4,-59.3 z"
           style="fill:#000000"
           id="path9188" />
        <path
           inkscape:connector-curvature="0"
           d="m 100.5,537.9 c 0,0 41.6,69.2 80.1,98.8 0,0 -18.7,-18.2 -32.7,-36.1 -12.7,-16.3 -32.4,-39.7 -47.4,-62.7 z"
           style="fill:#000000"
           id="path9190" />
      </g>
      <g
         id="g9205">
        <linearGradient
           id="SVGID_17_"
           gradientUnits="userSpaceOnUse"
           x1="261.92249"
           y1="491.1781"
           x2="293.5636"
           y2="491.1781"
           gradientTransform="matrix(0.6794,-0.7338,0.7338,0.6794,-405.8327,434.1327)">
          <stop
             offset="0"
             style="stop-color:#54B948"
             id="stop9194" />
          <stop
             offset="0.3764"
             style="stop-color:#00A651"
             id="stop9196" />
          <stop
             offset="1"
             style="stop-color:#005826"
             id="stop9198" />
        </linearGradient>
        <path
           inkscape:connector-curvature="0"
           d="m 114.3,515.6 c 0,0 20.4,61.9 58,96.8 0,0 -3.4,-7.2 -14.7,-24.9 -11.3,-17.7 -30.2,-37 -43.3,-71.9 z"
           style="fill:#000000"
           id="path9201" />
        <path
           inkscape:connector-curvature="0"
           d="m 114.3,515.6 c 0,0 20.4,61.9 58,96.8 0,0 -8.3,-8.4 -19.6,-26.1 -11.3,-17.7 -25.3,-35.8 -38.4,-70.7 z"
           style="fill:#000000"
           id="path9203" />
      </g>
      <g
         id="g9218">
        <linearGradient
           id="SVGID_18_"
           gradientUnits="userSpaceOnUse"
           x1="-597.16931"
           y1="94.3386"
           x2="-578.50781"
           y2="94.3386"
           gradientTransform="matrix(-0.9975,-0.07095607,-0.07095607,0.9975,-404.5641,434.8991)">
          <stop
             offset="0"
             style="stop-color:#54B948"
             id="stop9207" />
          <stop
             offset="0.3764"
             style="stop-color:#00A651"
             id="stop9209" />
          <stop
             offset="1"
             style="stop-color:#005826"
             id="stop9211" />
        </linearGradient>
        <path
           inkscape:connector-curvature="0"
           d="m 170.3,507.2 c 0,0 16.9,79 9.1,126.9 0,0 -4.8,-28.4 -5.3,-49.1 -0.5,-20.7 0.9,-50.7 -3.8,-77.8 z"
           style="fill:#000000"
           id="path9214" />
        <path
           inkscape:connector-curvature="0"
           d="m 170.3,507.2 c 0,0 16.9,79 9.1,126.9 0,0 1.2,-26.1 -0.8,-48.7 -1.9,-20.6 -3.6,-51.1 -8.3,-78.2 z"
           style="fill:#000000"
           id="path9216" />
      </g>
      <g
         id="g9231">
        <linearGradient
           id="SVGID_19_"
           gradientUnits="userSpaceOnUse"
           x1="-490.08069"
           y1="29.7125"
           x2="-458.43951"
           y2="29.7125"
           gradientTransform="matrix(-1.1796,-0.2452,-0.2027,0.9752,-391.6209,399.2818)">
          <stop
             offset="0"
             style="stop-color:#54B948"
             id="stop9220" />
          <stop
             offset="0.3764"
             style="stop-color:#00A651"
             id="stop9222" />
          <stop
             offset="1"
             style="stop-color:#005826"
             id="stop9224" />
        </linearGradient>
        <path
           inkscape:connector-curvature="0"
           d="m 154.1,487.8 c 0,0 25.7,63.4 15.4,113.4 0,0 -2,-7.9 -4.2,-29 -2.2,-21.1 1.7,-47.8 -11.2,-84.4 z"
           style="fill:#000000"
           id="path9227" />
        <path
           inkscape:connector-curvature="0"
           d="m 154.1,487.8 c 0,0 25.7,63.4 15.4,113.4 0,0 1.8,-11.6 -0.4,-32.8 -2.2,-21.2 -2.1,-44 -15,-80.6 z"
           style="fill:#000000"
           id="path9229" />
      </g>
      <g
         id="g9244">
        <linearGradient
           id="SVGID_20_"
           gradientUnits="userSpaceOnUse"
           x1="267.897"
           y1="484.7525"
           x2="322.46051"
           y2="484.7525"
           gradientTransform="matrix(0.6794,-0.7338,0.7338,0.6794,-405.8327,434.1327)">
          <stop
             offset="0"
             style="stop-color:#54B948"
             id="stop9233" />
          <stop
             offset="0.3764"
             style="stop-color:#00A651"
             id="stop9235" />
          <stop
             offset="1"
             style="stop-color:#005826"
             id="stop9237" />
        </linearGradient>
        <path
           inkscape:connector-curvature="0"
           d="m 169.2,601.5 c 0,0 -28.7,-49 -37.6,-109.2 0,0 32.6,71 37.6,109.2 z"
           style="fill:#000000"
           id="path9240" />
        <path
           inkscape:connector-curvature="0"
           d="m 169.2,601.5 c 0,0 -28.7,-49 -37.6,-109.2 0,0 20.1,67.6 37.6,109.2 z"
           style="fill:#000000"
           id="path9242" />
      </g>
      <g
         id="g9257">
        <linearGradient
           id="SVGID_21_"
           gradientUnits="userSpaceOnUse"
           x1="-880.60181"
           y1="787.59662"
           x2="-815.69818"
           y2="787.59662"
           gradientTransform="matrix(-0.813,0.5823,0.5823,0.813,-780.3392,714.4459)">
          <stop
             offset="0"
             style="stop-color:#54B948"
             id="stop9246" />
          <stop
             offset="0.3764"
             style="stop-color:#00A651"
             id="stop9248" />
          <stop
             offset="1"
             style="stop-color:#005826"
             id="stop9250" />
        </linearGradient>
        <path
           inkscape:connector-curvature="0"
           d="m 359.2,904.6 c 0,0 19.7,-29.9 17.2,-87.5 0,0 -5.6,31.7 -11.4,48.5 -7,20 -6.2,36.8 -5.8,39 z"
           style="fill:#000000"
           id="path9253" />
        <path
           inkscape:connector-curvature="0"
           d="m 359.2,904.6 c 0,0 19.3,-27.2 17.3,-87.1 0,0 -2.7,34 -9,54.1 -4.2,13 -6.9,27.7 -8.3,33 z"
           style="fill:#000000"
           id="path9255" />
      </g>
      <g
         id="g9270">
        <linearGradient
           id="SVGID_22_"
           gradientUnits="userSpaceOnUse"
           x1="-901.17889"
           y1="748.00818"
           x2="-814.51221"
           y2="748.00818"
           gradientTransform="matrix(-0.813,0.5823,0.5823,0.813,-780.3392,714.4459)">
          <stop
             offset="0"
             style="stop-color:#54B948"
             id="stop9259" />
          <stop
             offset="0.3764"
             style="stop-color:#00A651"
             id="stop9261" />
          <stop
             offset="1"
             style="stop-color:#005826"
             id="stop9263" />
        </linearGradient>
        <path
           inkscape:connector-curvature="0"
           d="m 347.6,890.4 c 0,0 28.1,-68.4 10.1,-134.7 0,0 8.3,36.3 -1.8,71.8 -10.2,35.7 -10.5,55.3 -8.3,62.9 z"
           style="fill:#000000"
           id="path9266" />
        <path
           inkscape:connector-curvature="0"
           d="m 347.6,890.8 c 0,0 28.1,-68.4 10.1,-134.7 0,0 8.4,26.3 0.3,77.2 -4.7,29.1 -7.3,42.1 -10.4,57.5 z"
           style="fill:#000000"
           id="path9268" />
      </g>
      <g
         id="g9283">
        <linearGradient
           id="SVGID_23_"
           gradientUnits="userSpaceOnUse"
           x1="-868.19757"
           y1="666.11719"
           x2="-797.53088"
           y2="666.11719"
           gradientTransform="matrix(-0.8699,0.4932,0.4932,0.8699,-717.2872,635.9059)">
          <stop
             offset="0"
             style="stop-color:#54B948"
             id="stop9272" />
          <stop
             offset="0.3764"
             style="stop-color:#00A651"
             id="stop9274" />
          <stop
             offset="1"
             style="stop-color:#005826"
             id="stop9276" />
        </linearGradient>
        <path
           inkscape:connector-curvature="0"
           d="m 337.2,878.7 c 0,0 30.2,-88 -2.8,-148.2 0,0 15.8,35.1 6.2,85.4 -9.5,50.1 -3.4,62.8 -3.4,62.8 z"
           style="fill:#000000"
           id="path9279" />
        <path
           inkscape:connector-curvature="0"
           d="m 337.2,879 c 0,0 30.2,-88.4 -2.8,-148.6 0,0 16.4,35.5 10,86.2 -5.1,40.1 -7.2,62.4 -7.2,62.4 z"
           style="fill:#000000"
           id="path9281" />
      </g>
      <g
         id="g9296">
        <linearGradient
           id="SVGID_24_"
           gradientUnits="userSpaceOnUse"
           x1="-847.12109"
           y1="624.41272"
           x2="-782.78778"
           y2="624.41272"
           gradientTransform="matrix(-0.8951,0.446,0.446,0.8951,-686.0966,601.3076)">
          <stop
             offset="0"
             style="stop-color:#54B948"
             id="stop9285" />
          <stop
             offset="0.3764"
             style="stop-color:#00A651"
             id="stop9287" />
          <stop
             offset="1"
             style="stop-color:#005826"
             id="stop9289" />
        </linearGradient>
        <path
           inkscape:connector-curvature="0"
           d="m 318.9,863.2 c 0,0 24.8,-72 5.7,-132.8 0,0 3.2,48.8 -4.1,86.8 -4.6,24.1 -1.6,46 -1.6,46 z"
           style="fill:#000000"
           id="path9292" />
        <path
           inkscape:connector-curvature="0"
           d="m 319,863.5 c 0,0 24.8,-72.3 5.7,-133.2 0,0 7.3,37 0.1,87.6 -2.8,19.4 -5.8,45.6 -5.8,45.6 z"
           style="fill:#000000"
           id="path9294" />
      </g>
      <g
         id="g9309">
        <linearGradient
           id="SVGID_25_"
           gradientUnits="userSpaceOnUse"
           x1="-849.87128"
           y1="607.46149"
           x2="-788.53802"
           y2="607.46149"
           gradientTransform="matrix(-0.88,0.475,0.475,0.88,-707.9734,624.7328)">
          <stop
             offset="0"
             style="stop-color:#54B948"
             id="stop9298" />
          <stop
             offset="0.3764"
             style="stop-color:#00A651"
             id="stop9300" />
          <stop
             offset="1"
             style="stop-color:#005826"
             id="stop9302" />
        </linearGradient>
        <path
           inkscape:connector-curvature="0"
           d="m 294.9,693.4 c 0,0 32.4,69.2 13.2,153.5 0,0 -7.7,-31.6 -3.9,-71.8 3.7,-40.1 -9.3,-81.7 -9.3,-81.7 z"
           style="fill:#000000"
           id="path9305" />
        <path
           inkscape:connector-curvature="0"
           d="m 294.9,693.4 c 0,0 32.5,69.6 13.2,153.9 0,0 0.8,-34.9 0.9,-68.6 0,-40.3 -14.1,-85.3 -14.1,-85.3 z"
           style="fill:#000000"
           id="path9307" />
      </g>
      <g
         id="g9322">
        <linearGradient
           id="SVGID_26_"
           gradientUnits="userSpaceOnUse"
           x1="-840.6239"
           y1="586.20172"
           x2="-784.6239"
           y2="586.20172"
           gradientTransform="matrix(-0.8829,0.4695,0.4695,0.8829,-706.2335,622.0685)">
          <stop
             offset="0"
             style="stop-color:#54B948"
             id="stop9311" />
          <stop
             offset="0.3764"
             style="stop-color:#00A651"
             id="stop9313" />
          <stop
             offset="1"
             style="stop-color:#005826"
             id="stop9315" />
        </linearGradient>
        <path
           inkscape:connector-curvature="0"
           d="m 279.6,685.6 c 0,0 30.2,57.5 13.7,145 0,0 -8,-29.2 -5.3,-55.5 2.6,-26.3 4,-52.7 -8.4,-89.5 z"
           style="fill:#000000"
           id="path9318" />
        <path
           inkscape:connector-curvature="0"
           d="m 279.6,685.6 c 0,0 30.2,57.5 13.7,145 0,0 -2.7,-28.4 -0.1,-54.8 2.7,-26.2 -1.2,-53.4 -13.6,-90.2 z"
           style="fill:#000000"
           id="path9320" />
      </g>
      <g
         id="g9335">
        <linearGradient
           id="SVGID_27_"
           gradientUnits="userSpaceOnUse"
           x1="-821.49908"
           y1="536.3551"
           x2="-772.49908"
           y2="536.3551"
           gradientTransform="matrix(-0.9072,0.4207,0.4207,0.9072,-676.3171,589.7834)">
          <stop
             offset="0"
             style="stop-color:#54B948"
             id="stop9324" />
          <stop
             offset="0.3764"
             style="stop-color:#00A651"
             id="stop9326" />
          <stop
             offset="1"
             style="stop-color:#005826"
             id="stop9328" />
        </linearGradient>
        <path
           inkscape:connector-curvature="0"
           d="m 267.7,672.7 c 0,0 32.5,79.7 9.4,136.7 0,0 -5,-24.7 -1.3,-61.1 3.7,-36.4 -8.1,-75.6 -8.1,-75.6 z"
           style="fill:#000000"
           id="path9331" />
        <path
           inkscape:connector-curvature="0"
           d="m 267.7,673.1 c 0,0 32.5,79.7 9.4,136.7 0,0 1.5,-16.2 3.6,-50.7 2.9,-46.2 -13,-86 -13,-86 z"
           style="fill:#000000"
           id="path9333" />
      </g>
      <g
         id="g9348">
        <linearGradient
           id="SVGID_28_"
           gradientUnits="userSpaceOnUse"
           x1="-834.40552"
           y1="467.2778"
           x2="-788.90552"
           y2="467.2778"
           gradientTransform="matrix(-0.9478,0.3188,0.3188,0.9478,-655.9698,539.6083)">
          <stop
             offset="0"
             style="stop-color:#54B948"
             id="stop9337" />
          <stop
             offset="0.3764"
             style="stop-color:#00A651"
             id="stop9339" />
          <stop
             offset="1"
             style="stop-color:#005826"
             id="stop9341" />
        </linearGradient>
        <path
           inkscape:connector-curvature="0"
           d="m 264,657.6 c 0,0 15.3,73.3 -3.5,132.4 0,0 -5.1,-21.5 0.4,-57.4 5.5,-36.1 4.7,-62.5 3.1,-75 z"
           style="fill:#000000"
           id="path9344" />
        <path
           inkscape:connector-curvature="0"
           d="m 264,657.9 c 0,0 15.3,73.3 -3.5,132.4 0,0 1.8,-24.2 5,-56.5 3.6,-36.2 0.1,-63.4 -1.5,-75.9 z"
           style="fill:#000000"
           id="path9346" />
      </g>
      <g
         id="g9361">
        <linearGradient
           id="SVGID_29_"
           gradientUnits="userSpaceOnUse"
           x1="-802.49408"
           y1="404.4552"
           x2="-759.49219"
           y2="404.4552"
           gradientTransform="matrix(-0.9694,0.2453,0.2453,0.9694,-605.6367,497.9318)">
          <stop
             offset="0"
             style="stop-color:#54B948"
             id="stop9350" />
          <stop
             offset="0.3764"
             style="stop-color:#00A651"
             id="stop9352" />
          <stop
             offset="1"
             style="stop-color:#005826"
             id="stop9354" />
        </linearGradient>
        <path
           inkscape:connector-curvature="0"
           d="m 254.9,627.4 c 0,0 20.8,78 -8.4,142.1 0,0 -2.6,-17.2 3.3,-41.4 5.9,-24.2 9.4,-63.3 5.1,-100.7 z"
           style="fill:#000000"
           id="path9357" />
        <path
           inkscape:connector-curvature="0"
           d="m 254.8,627.8 c 0,0 20.8,78 -8.4,142.1 0,0 1.8,-17 8,-41.1 8.6,-33.5 4.8,-63.6 0.4,-101 z"
           style="fill:#000000"
           id="path9359" />
      </g>
      <g
         id="g9374">
        <linearGradient
           id="SVGID_30_"
           gradientUnits="userSpaceOnUse"
           x1="-789.75677"
           y1="370.33179"
           x2="-749.20599"
           y2="370.33179"
           gradientTransform="matrix(-0.9732,0.2302,0.2302,0.9732,-596.031,490.48)">
          <stop
             offset="0"
             style="stop-color:#54B948"
             id="stop9363" />
          <stop
             offset="0.3764"
             style="stop-color:#00A651"
             id="stop9365" />
          <stop
             offset="1"
             style="stop-color:#005826"
             id="stop9367" />
        </linearGradient>
        <path
           inkscape:connector-curvature="0"
           d="m 239.6,592.7 c 0,0 25.7,95 -3.3,162.1 0,0 -2.4,-26.1 2.1,-44.7 4.6,-18.5 10.4,-64.7 1.2,-117.4 z"
           style="fill:#000000"
           id="path9370" />
        <path
           inkscape:connector-curvature="0"
           d="m 239.6,593.1 c 0,0 25.7,95 -3.3,162.1 0,0 3,-25.7 7.5,-44.3 4.6,-18.5 5,-65.2 -4.2,-117.8 z"
           style="fill:#000000"
           id="path9372" />
      </g>
      <g
         id="g9387">
        <linearGradient
           id="SVGID_31_"
           gradientUnits="userSpaceOnUse"
           x1="-747.19019"
           y1="320.42209"
           x2="-720.5545"
           y2="320.42209"
           gradientTransform="matrix(-0.9868,0.1617,0.1617,0.9868,-550.7617,458.8362)">
          <stop
             offset="0"
             style="stop-color:#54B948"
             id="stop9376" />
          <stop
             offset="0.3764"
             style="stop-color:#00A651"
             id="stop9378" />
          <stop
             offset="1"
             style="stop-color:#005826"
             id="stop9380" />
        </linearGradient>
        <path
           inkscape:connector-curvature="0"
           d="m 220.1,576.9 c 0,0 33.9,73.1 5.3,159.9 0,0 -4,-4.1 1.4,-45.2 5.4,-41.1 5.9,-66.5 -6.7,-114.7 z"
           style="fill:#000000"
           id="path9383" />
        <path
           inkscape:connector-curvature="0"
           d="m 220.1,576.9 c 0,0 33.8,73.5 5.2,160.3 0,0 0.4,-4.1 5.8,-45.2 5.4,-41.1 2.6,-74.6 -11,-115.1 z"
           style="fill:#000000"
           id="path9385" />
      </g>
      <g
         id="g9400">
        <linearGradient
           id="SVGID_32_"
           gradientUnits="userSpaceOnUse"
           x1="-728.1568"
           y1="304.19531"
           x2="-710.69171"
           y2="304.19531"
           gradientTransform="matrix(-0.9899,0.1414,0.1414,0.9899,-539.3928,451.1502)">
          <stop
             offset="0"
             style="stop-color:#54B948"
             id="stop9389" />
          <stop
             offset="0.3764"
             style="stop-color:#00A651"
             id="stop9391" />
          <stop
             offset="1"
             style="stop-color:#005826"
             id="stop9393" />
        </linearGradient>
        <path
           inkscape:connector-curvature="0"
           d="m 214.8,583.5 c 0,0 17.9,96.8 2.3,134 0,0 -5.5,-18.4 -2.2,-52.2 3.3,-33.8 3.7,-43.3 -0.1,-81.8 z"
           style="fill:#000000"
           id="path9396" />
        <path
           inkscape:connector-curvature="0"
           d="m 214.8,583.5 c 0,0 17.9,96.8 2.3,134 0,0 -0.4,-12 2.1,-43.4 2.8,-34.9 -0.6,-52.1 -4.4,-90.6 z"
           style="fill:#000000"
           id="path9398" />
      </g>
      <g
         id="g9413">
        <linearGradient
           id="SVGID_33_"
           gradientUnits="userSpaceOnUse"
           x1="-706.01801"
           y1="265.0199"
           x2="-696.4585"
           y2="265.0199"
           gradientTransform="matrix(-0.9938,0.1114,0.1114,0.9938,-521.5274,440.1482)">
          <stop
             offset="0"
             style="stop-color:#54B948"
             id="stop9402" />
          <stop
             offset="0.3764"
             style="stop-color:#00A651"
             id="stop9404" />
          <stop
             offset="1"
             style="stop-color:#005826"
             id="stop9406" />
        </linearGradient>
        <path
           inkscape:connector-curvature="0"
           d="m 195.4,546 c 0,0 27.5,115 13.7,159.3 0,0 -4.9,-38.8 -3.6,-69.5 1.3,-30.7 -10.1,-89.8 -10.1,-89.8 z"
           style="fill:#000000"
           id="path9409" />
        <path
           inkscape:connector-curvature="0"
           d="m 195.4,546 c 0,0 27.5,115 13.7,159.3 0,0 0.7,-25.2 -0.3,-61.4 C 207.9,613.2 195.4,546 195.4,546 Z"
           style="fill:#000000"
           id="path9411" />
      </g>
      <g
         id="g9426">
        <linearGradient
           id="SVGID_34_"
           gradientUnits="userSpaceOnUse"
           x1="-693.14587"
           y1="205.35539"
           x2="-685.09058"
           y2="205.35539"
           gradientTransform="matrix(-0.9964,0.08439438,0.08439438,0.9964,-516.5507,441.6334)">
          <stop
             offset="0"
             style="stop-color:#54B948"
             id="stop9415" />
          <stop
             offset="0.3764"
             style="stop-color:#00A651"
             id="stop9417" />
          <stop
             offset="1"
             style="stop-color:#005826"
             id="stop9419" />
        </linearGradient>
        <path
           inkscape:connector-curvature="0"
           d="m 177.6,511.6 c 0,0 25.1,101.7 13.4,153.5 0,0 -3.4,-16.5 -4.5,-48.5 -1.1,-32 -2.8,-68.3 -8.9,-105 z"
           style="fill:#000000"
           id="path9422" />
        <path
           inkscape:connector-curvature="0"
           d="m 177.6,511.6 c 0,0 25.1,101.7 13.4,153.5 0,0 0.1,-16.2 -0.9,-48.3 -1,-32.1 -6.4,-68.5 -12.5,-105.2 z"
           style="fill:#000000"
           id="path9424" />
      </g>
      <g
         id="g9439">
        <linearGradient
           id="SVGID_35_"
           gradientUnits="userSpaceOnUse"
           x1="283.76859"
           y1="557.46997"
           x2="237.1019"
           y2="607.30328"
           gradientTransform="matrix(0.6794,-0.7338,0.7338,0.6794,-405.8327,434.1327)">
          <stop
             offset="0"
             style="stop-color:#54B948"
             id="stop9428" />
          <stop
             offset="0.3764"
             style="stop-color:#00A651"
             id="stop9430" />
          <stop
             offset="1"
             style="stop-color:#005826"
             id="stop9432" />
        </linearGradient>
        <path
           inkscape:connector-curvature="0"
           d="m 187.5,544 c 0,0 21.7,63.1 12.9,144.9 0,0 -3.6,-24.2 -5.5,-50.8 -2,-26.7 4.1,-52.7 -7.4,-94.1 z"
           style="fill:#000000"
           id="path9435" />
        <path
           inkscape:connector-curvature="0"
           d="m 187.5,544 c 0,0 21.7,63.1 12.9,144.9 0,0 1,-25.6 -0.9,-52.3 -2,-26.7 -0.5,-51.2 -12,-92.6 z"
           style="fill:#000000"
           id="path9437" />
      </g>
      <linearGradient
         id="SVGID_36_"
         gradientUnits="userSpaceOnUse"
         x1="222.14951"
         y1="675.95001"
         x2="212.0276"
         y2="961.38849"
         gradientTransform="matrix(0.6794,-0.7338,0.7338,0.6794,-405.8327,434.1327)">
        <stop
           offset="0"
           style="stop-color:#54B948"
           id="stop9441" />
        <stop
           offset="0.3764"
           style="stop-color:#00A651"
           id="stop9443" />
        <stop
           offset="1"
           style="stop-color:#005826"
           id="stop9445" />
      </linearGradient>
      <path
         inkscape:connector-curvature="0"
         d="m 385.7,935.1 c 0,0 -180.3,-156 -216.8,-333.2 -0.5,-2.3 0.4,-3.4 0,-5.7 0,0 32.6,172.4 227.4,335.5 z"
         style="fill:#000000"
         id="path9448" />
    </g>
    <path
       inkscape:connector-curvature="0"
       d="m 23.507381,277.51838 c 0,0 0.862926,0.14176 1.491901,0.0739 0.628982,-0.0676 0.483238,-0.11406 0.690341,-0.35088 0.2071,-0.23699 0.05369,-0.1079 -0.19559,-0.15069 -0.249292,-0.042 0.05752,-0.0466 0.322156,-0.0956 0.264631,-0.0493 0.571449,0.0175 0.763208,-0.19693 0.191783,-0.21858 0.437217,-0.59102 0.437217,-0.59102 l -2.197585,0.22144 -0.897443,0.3017 z"
       style="fill:#000000;stroke-width:0.03436045"
       id="path10378" />
    <path
       inkscape:connector-curvature="0"
       d="m 23.898575,276.85656 c 0,0 1.112213,-0.17219 1.810227,-0.2462 0.698006,-0.074 1.020166,-0.0834 1.135227,-0.19977 0.115071,-0.11714 0.345188,-0.40652 0.145717,-0.32331 -0.199419,0.0827 -0.951134,0.16629 -0.78622,0.0648 0.164892,-0.0982 0.437214,-0.12575 0.920455,-0.29287 0.48324,-0.16629 0.48324,-0.12313 0.65966,-0.36346 0.180252,-0.24017 -0.199464,-0.0768 -0.383525,-0.0108 -0.187932,0.0676 -0.161085,-0.0108 0.260795,-0.20348 0.421873,-0.19386 0.341332,-0.0492 0.598293,-0.3939 0,0 -1.089205,0.20612 -2.120881,0.44306 -1.027838,0.23699 -1.802559,0.72962 -1.802559,0.72962 z"
       style="fill:#000000;stroke-width:0.03436045"
       id="path10387" />
    <path
       inkscape:connector-curvature="0"
       d="m 24.404828,276.0931 c 0,0 0.816902,-0.48331 1.936787,-0.67417 1.123717,-0.19059 1.280968,-0.237 1.572437,-0.34488 0.291496,-0.10497 0.291496,-0.10497 0.391196,-0.25255 0.09971,-0.14469 -0.10739,-0.0466 -0.31834,0.0551 -0.210951,0.10159 -1.043183,0.27059 -1.346168,0.19978 -0.299133,-0.0707 -0.103557,-0.0954 0.141915,-0.18468 0.241621,-0.0888 0.970314,-0.10743 1.622303,-0.53561 0.651985,-0.42811 0.74787,-0.94818 0.74787,-0.94818 0,0 -0.95881,0.69266 -2.262784,0.74499 -1.30398,0.0523 -1.894606,0.95121 -1.894606,0.95121 z"
       style="fill:#000000;stroke-width:0.03436045"
       id="path10396" />
    <path
       inkscape:connector-curvature="0"
       d="m 25.191046,274.94177 c 0,0 0.256959,-0.29217 1.265626,-0.4679 1.00866,-0.17592 2.040339,-0.36624 2.32031,-0.58487 0.279964,-0.21552 0.444887,-0.51408 0.360515,-0.52336 -0.08439,-0.0108 -1.173586,0.4987 -1.461223,0.47717 -0.28764,-0.0248 -0.256975,-0.0648 0.07671,-0.19386 0.333656,-0.13253 1.135224,-0.24655 1.449713,-0.48331 0.314487,-0.23699 0.441051,-0.64031 0.441051,-0.64031 l -1.545595,0.49867 -1.787219,0.0138 c 0,0 -0.237768,0.36021 -0.490904,0.66802 -0.253127,0.30775 -0.628979,1.23753 -0.628979,1.23753 z"
       style="fill:#000000;stroke-width:0.03436045"
       id="path10405" />
    <path
       inkscape:connector-curvature="0"
       d="m 25.919737,273.61806 c 0,0 0.429549,-0.28014 1.557104,-0.36629 1.127554,-0.0894 1.718181,-0.16913 1.98281,-0.4585 0.268471,-0.28935 0.233948,-0.36015 -0.04219,-0.23097 -0.276144,0.12914 -2.304969,0.40934 -2.251279,0.23097 0.0537,-0.18182 0.544604,-0.11405 1.434374,-0.26776 0.889774,-0.15425 1.219608,-0.15425 1.564778,-0.75114 0,0 -1.476568,-0.16017 -2.327985,-0.0139 -0.855254,0.14746 -0.786224,-0.0739 -1.158242,0.33247 -0.368184,0.40657 -0.759375,1.52692 -0.759375,1.52692 z"
       style="fill:#000000;stroke-width:0.03436045"
       id="path10414" />
    <path
       inkscape:connector-curvature="0"
       d="m 26.656103,272.26359 c 0,0 0.253118,-0.17855 1.656815,-0.25574 1.40753,-0.0768 1.695175,0.032 1.909947,-0.31692 0.21093,-0.34805 0.318308,-0.48022 -0.06518,-0.3325 -0.383525,0.15084 -1.610794,0.26176 -1.507245,0.1416 0.103542,-0.11713 1.330826,-0.0676 1.695173,-0.47404 0.364342,-0.40656 0.467896,-0.85888 0.467896,-0.85888 0,0 -0.71719,0.45242 -2.051845,0.4585 l -1.123721,0.13545 c 0,0 -0.28764,0.14176 -0.632812,0.82192 -0.349007,0.68033 -0.349007,0.68033 -0.349007,0.68033 z"
       style="fill:#000000;stroke-width:0.03436045"
       id="path10423" />
    <path
       inkscape:connector-curvature="0"
       d="m 27.392468,270.94297 c 0,0 0.38352,-0.11991 1.472724,-0.16017 1.089204,-0.042 1.591625,-0.0834 1.806391,-0.38499 0.214779,-0.30171 0.226271,-0.48329 0.07287,-0.37843 -0.153397,0.10436 -1.361506,0.21224 -1.085368,0.0676 0.276144,-0.14745 0.885937,-0.12313 1.104545,-0.35087 0.218587,-0.22745 0.276144,-0.59107 0.276144,-0.59107 0,0 -2.055676,0.10435 -2.64247,0.57255 -0.586792,0.47104 -1.004828,1.22525 -1.004828,1.22525 z"
       style="fill:#000000;stroke-width:0.03436045"
       id="path10432" />
    <path
       inkscape:connector-curvature="0"
       d="m 28.362774,269.78544 c 0,0 1.518755,-0.63111 2.615631,-0.45853 0,0 0.168766,-0.33532 -0.0422,-0.32328 -0.210951,0.0138 -1.112219,0.0956 -0.8169,-0.042 0.295315,-0.13868 0.908943,-0.18467 1.04318,-0.38777 0.134234,-0.20348 0.299135,-0.50485 0.06137,-0.52642 -0.237767,-0.0248 -0.260792,-0.14746 0,-0.31374 0.260792,-0.1663 0.195613,-0.28334 0.245442,-0.73265 0,0 -2.00966,0.97278 -3.10654,2.78595 z"
       style="fill:#000000;stroke-width:0.03436045"
       id="path10441" />
    <path
       inkscape:connector-curvature="0"
       d="m 28.704114,267.59977 c -0.04599,0.15426 -0.184104,0.85889 0.06905,0.52025 0.256972,-0.34206 0.10739,-0.47406 0.893608,-0.70188 0.786219,-0.22743 0.778553,-0.28934 0.83608,-0.22144 0.0575,0.0679 -0.172571,0.36016 0.111192,0.15069 0.283819,-0.2094 0.686509,-0.3293 0.851416,-0.34486 0,0 -1.100708,0.62493 -1.791055,1.32373 -0.690332,0.69572 -1.399851,1.60691 -1.672154,1.88089 -0.272289,0.27061 -0.494742,-1.69617 -0.341333,-1.94555 0.153413,-0.24902 1.096876,-0.83121 1.043182,-0.66186 z"
       style="fill:#000000;stroke-width:0.03436045"
       id="path10450" />
    <path
       inkscape:connector-curvature="0"
       d="m 26.525703,269.06817 c 0,0 0.456398,-0.37564 0.567616,-0.48639 0.111192,-0.11405 0.05752,0.23097 0.103542,0.53875 0.04605,0.30774 0.187932,0.80037 0.276144,0.17221 0.08823,-0.62798 -0.03834,-0.88041 0.195611,-1.11131 0.237801,-0.23097 0.218587,-0.18773 0.360511,-0.24899 0.138051,-0.0613 0.023,0.63416 0.141915,1.20061 0.118919,0.56639 0.21863,0.55719 0.09208,0.79112 -0.126553,0.23414 -1.047016,1.33909 -1.261796,1.65926 -0.21095,0.32046 -0.475567,-2.51508 -0.475567,-2.51508 z"
       style="fill:#000000;stroke-width:0.03436045"
       id="path10459" />
    <path
       inkscape:connector-curvature="0"
       d="m 27.143174,271.40774 c -0.04219,0.0827 -0.824569,1.61003 -1.008661,1.84706 -0.184082,0.23698 -0.249299,-1.84088 -0.494749,-2.35498 -0.245449,-0.51098 -0.398862,-0.40652 -0.260797,-0.5818 0.199443,-0.25255 0.648157,-0.72654 0.651992,-0.62493 0.004,0.10158 0.429547,1.94557 0.452555,1.50224 0.023,-0.44352 -0.214779,-1.61614 -0.168765,-1.82238 0.04599,-0.20612 0.249299,-0.3325 0.352831,-0.42153 0,0 0.295313,0.65261 0.368182,1.3052 0.07287,0.65261 0.230126,0.90815 0.10739,1.15131 z"
       style="fill:#000000;stroke-width:0.03436045"
       id="path10468" />
    <path
       inkscape:connector-curvature="0"
       d="m 25.724143,273.96285 c 0,0 0.747864,-0.94508 0.632811,-1.41603 -0.115071,-0.47106 -0.809235,-2.4412 -0.778549,-2.46893 0.07287,-0.0707 -0.325997,0.25857 -0.325997,0.51715 0,0.25856 0.168743,1.00053 0.08438,0.91124 -0.08438,-0.0894 -0.138067,-0.81888 -0.249285,-0.69879 -0.111223,0.11713 -0.264629,0.16015 -0.368179,0.31693 -0.103542,0.15711 0.813066,2.89988 1.004829,2.83833 z"
       style="fill:#000000;stroke-width:0.03436045"
       id="path10477" />
    <path
       inkscape:connector-curvature="0"
       d="m 23.553405,277.45377 0.747864,-1.08362 c 0,0 -0.322159,-1.29602 -1.116049,-1.55153 0,0 -0.05752,0.19386 0.04599,0.37844 0.103542,0.18512 0.502413,0.92971 0.414205,1.31452 -0.09206,0.38498 -0.38736,-0.62186 -0.590627,-0.39718 -0.2071,0.22494 0.383524,1.50529 0.498584,1.33908 z"
       style="fill:#000000;stroke-width:0.03436045"
       id="path10486" />
    <path
       inkscape:connector-curvature="0"
       d="m 25.681955,274.07672 c 0,0 -0.498584,1.00975 -0.690345,1.28373 -0.191739,0.27412 -1.031678,-2.28418 -1.031678,-2.28418 0,0 -0.01904,-0.3878 0.023,-0.49872 0.04219,-0.11113 0.161083,-0.52331 0.218608,-0.21858 0.01904,0.0982 0.126584,0.68652 0.345168,0.99431 0.218609,0.30775 0.230111,0.37845 -0.0422,-0.80649 -0.272297,-1.18829 0.283817,-1.51155 0.283817,-1.51155 0,0 0.444882,1.65931 0.667324,2.06257 0.222445,0.40324 0.379686,0.67721 0.226281,0.97888 z"
       style="fill:#000000;stroke-width:0.03436045"
       id="path10495" />
    <path
       inkscape:connector-curvature="0"
       d="m 24.297438,276.37015 c 0,0 -0.352841,-1.28983 -1.116046,-1.55153 0,0 0.03064,-0.19386 0.260787,-0.1079 0.23012,0.0862 -0.195591,-0.35406 -0.153397,-0.50484 0.0422,-0.15084 0.199441,-0.58487 0.295312,-0.4987 0.09588,0.0862 0.525424,1.30215 0.655821,1.28677 0.130386,-0.0138 -0.414206,-0.99126 -0.571444,-1.51458 -0.157256,-0.52331 0.226269,-0.76341 0.314487,-0.90195 0,0 0.471728,1.32062 0.759374,1.99477 0.287644,0.67419 0.245451,0.78808 0.245451,0.78808 z"
       style="fill:#000000;stroke-width:0.03436045"
       id="path10504" />
    <path
       inkscape:connector-curvature="0"
       d="m 23.085505,276.08696 c 0,0 0.525429,1.00354 0.625144,1.1359 l -0.199441,0.29217 c 0,0 -0.717188,-0.98195 -0.602132,-1.16978 0.115055,-0.18467 0.157256,-0.2957 0.176423,-0.25856 z"
       style="fill:#000000;stroke-width:0.03436045"
       id="path10513" />
    <path
       inkscape:connector-curvature="0"
       d="m 31.469314,266.99949 c -0.721029,0.38782 -1.169748,0.74495 -1.62997,1.17596 -0.464066,0.43088 -0.878267,0.90194 -1.265625,1.38523 -0.387364,0.48336 -0.843752,0.96361 -1.19276,1.46845 -0.349011,0.50484 -0.613636,1.02511 -0.93963,1.5392 l -0.210951,0.39717 c -0.08055,0.12913 -0.161085,0.25855 -0.237767,0.3878 l -0.23395,0.38777 -0.23395,0.38782 -0.464067,0.77885 c -0.157255,0.25857 -0.310653,0.51716 -0.467895,0.77571 -0.314494,0.51722 -0.632817,1.0313 -0.958811,1.53924 -0.08052,0.12575 -0.164914,0.25572 -0.245453,0.38167 -0.08436,0.12576 -0.168743,0.25256 -0.253122,0.37846 -0.08438,0.12576 -0.172594,0.25254 -0.256959,0.3756 -0.0422,0.0614 -0.0882,0.12314 -0.134234,0.18467 l -0.06902,0.0894 c -0.023,0.0282 -0.04599,0.0619 -0.0652,0.0834 l -0.0037,0.005 c -0.04987,0.0619 -0.04604,0.13869 0.01139,0.17221 0.05752,0.0317 0.141915,0.0138 0.19559,-0.0493 0,0 0,-0.005 0,-0.005 0.03068,-0.0374 0.04987,-0.0676 0.0767,-0.0982 l 0.06903,-0.0956 c 0.04599,-0.0648 0.0882,-0.12575 0.134234,-0.19101 0.0882,-0.12576 0.172594,-0.25574 0.256959,-0.385 0.08436,-0.12914 0.164914,-0.25576 0.249294,-0.38501 0.08055,-0.12913 0.161086,-0.25855 0.241622,-0.38775 0.318324,-0.51727 0.628975,-1.03439 0.935797,-1.55772 0.153413,-0.26176 0.302982,-0.52027 0.452554,-0.78193 l 0.448723,-0.78189 0.222444,-0.39106 0.226269,-0.3911 c 0.07671,-0.12914 0.153412,-0.25856 0.230126,-0.38779 l 0.203271,-0.39717 c 0.314485,-0.51719 0.571449,-1.03744 0.90511,-1.54538 0.337512,-0.50794 0.782391,-0.98812 1.162075,-1.47451 0.37585,-0.4864 0.778554,-0.96356 1.23494,-1.39764 0.452558,-0.4309 0.901282,-0.76342 1.606969,-1.19129 z"
       style="fill:#000000;stroke-width:0.03436045"
       id="path10522" />
    <g
       transform="matrix(0.04633923,0,0,0.03262334,-17.753479,254.69741)"
       id="g10626">
      <linearGradient
         id="SVGID_96_"
         gradientUnits="userSpaceOnUse"
         x1="676.23181"
         y1="780.95813"
         x2="738.42279"
         y2="780.95813"
         gradientTransform="matrix(0.9913,-0.1315,0.1315,0.9913,-86.0899,149.6173)">
        <stop
           offset="0"
           style="stop-color:#54B948"
           id="stop10615" />
        <stop
           offset="0.3764"
           style="stop-color:#00A651"
           id="stop10617" />
        <stop
           offset="1"
           style="stop-color:#005826"
           id="stop10619" />
      </linearGradient>
      <path
         inkscape:connector-curvature="0"
         d="m 695,895.1 c 0,0 14.8,-69 45.7,-128.6 -0.1,0 -13.2,95.6 -45.7,128.6 z"
         style="fill:#000000"
         id="path10622" />
      <path
         inkscape:connector-curvature="0"
         d="m 695,895.1 c 0,0 -16.2,-34.8 45.7,-128.6 -0.1,0 -32.8,90.4 -45.7,128.6 z"
         style="fill:#000000"
         id="path10624" />
    </g>
    <path
       inkscape:connector-curvature="0"
       d="m 14.609858,284.33897 c 0,0 -1.830401,-0.81238 -4.235408,-1.21034 -0.0046,0 2.201114,1.2462 4.235408,1.21034 z"
       style="fill:#000000;stroke-width:0.03888111"
       id="path10635" />
    <path
       inkscape:connector-curvature="0"
       d="m 14.609858,284.33897 c 0,0 0.152916,-0.7993 -4.235408,-1.21034 -0.0046,0 3.002782,0.8417 4.235408,1.21034 z"
       style="fill:#000000;stroke-width:0.03888111"
       id="path10637" />
    <path
       inkscape:connector-curvature="0"
       d="m 13.710875,283.30804 c 0,0 -2.196479,-1.54304 -4.8470845,-2.56418 0,-0.005 2.7340165,2.26079 4.8470845,2.56418 z"
       style="fill:#000000;stroke-width:0.03888111"
       id="path10646" />
    <path
       inkscape:connector-curvature="0"
       d="m 13.710875,283.30804 c 0,0 -0.120472,-1.18091 -4.8470845,-2.56418 0,-0.005 3.4337365,1.79105 4.8470845,2.56418 z"
       style="fill:#000000;stroke-width:0.03888111"
       id="path10648" />
    <path
       inkscape:connector-curvature="0"
       d="m 12.858234,281.71933 c 0,0 -2.140875,-1.71604 -4.6339263,-2.91328 0,0 2.7015783,2.48917 4.6339263,2.91328 z"
       style="fill:#000000;stroke-width:0.03888111"
       id="path10657" />
    <path
       inkscape:connector-curvature="0"
       d="m 12.858234,281.71933 c 0,0 -0.231697,-1.23318 -4.6339263,-2.91328 0,0 3.2808193,2.03894 4.6339263,2.91328 z"
       style="fill:#000000;stroke-width:0.03888111"
       id="path10659" />
    <path
       inkscape:connector-curvature="0"
       d="m 12.459715,280.57096 c 0,0 -2.23355,-1.92805 -4.7914781,-3.30804 0,0 2.8452311,2.7861 4.7914781,3.30804 z"
       style="fill:#000000;stroke-width:0.03888111"
       id="path10668" />
    <path
       inkscape:connector-curvature="0"
       d="m 12.459715,280.57096 c 0,0 -0.315105,-1.34081 -4.7914781,-3.30804 0,0 3.3920341,2.31957 4.7914781,3.30804 z"
       style="fill:#000000;stroke-width:0.03888111"
       id="path10670" />
    <path
       inkscape:connector-curvature="0"
       d="m 12.056565,279.67051 c 0,0 -1.760893,-2.15637 -3.9666413,-3.81037 0,0 2.1686773,3.0731 3.9666413,3.81037 z"
       style="fill:#000000;stroke-width:0.03888111"
       id="path10679" />
    <path
       inkscape:connector-curvature="0"
       d="m 12.056565,279.67051 c 0,0 0,-1.36037 -3.9666413,-3.81037 0,0 2.8127933,2.67509 3.9666413,3.81037 z"
       style="fill:#000000;stroke-width:0.03888111"
       id="path10681" />
    <path
       inkscape:connector-curvature="0"
       d="m 11.528297,277.83386 c 0,0 -2.015758,-2.1923 -4.6107558,-3.83976 0,-0.005 2.4513468,3.13183 4.6107558,3.83976 z"
       style="fill:#000000;stroke-width:0.03888111"
       id="path10690" />
    <path
       inkscape:connector-curvature="0"
       d="m 11.528297,277.83386 c 0,0 0.09267,-1.41909 -4.6107558,-3.83976 0,-0.005 3.2715518,2.69139 4.6107558,3.83976 z"
       style="fill:#000000;stroke-width:0.03888111"
       id="path10692" />
    <path
       inkscape:connector-curvature="0"
       d="m 11.366109,277.05088 c 0,0 -0.954588,-2.52502 -2.6923104,-4.65861 0,0 0.9499552,3.5168 2.6923104,4.65861 z"
       style="fill:#000000;stroke-width:0.03888111"
       id="path10701" />
    <path
       inkscape:connector-curvature="0"
       d="m 11.366109,277.05088 c 0,0 0.713625,-1.33101 -2.6923104,-4.65861 0,0 1.9230804,3.27541 2.6923104,4.65861 z"
       style="fill:#000000;stroke-width:0.03888111"
       id="path10703" />
    <path
       inkscape:connector-curvature="0"
       d="m 11.361476,275.36427 c 0,0 -0.602412,-2.42391 -1.7608909,-4.46288 -0.00463,-0.005 0.5699709,3.3798 1.7608909,4.46288 z"
       style="fill:#000000;stroke-width:0.03888111"
       id="path10712" />
    <path
       inkscape:connector-curvature="0"
       d="m 11.361476,275.36427 c 0,0 0.537535,-1.29517 -1.7608909,-4.46288 -0.00463,-0.005 1.2557929,3.13511 1.7608909,4.46288 z"
       style="fill:#000000;stroke-width:0.03888111"
       id="path10714" />
    <path
       inkscape:connector-curvature="0"
       d="m 13.729412,282.91329 c 0,0 0.55607,-2.17269 1.774795,-4.04201 0,0 -0.477297,3.01766 -1.774795,4.04201 z"
       style="fill:#000000;stroke-width:0.03888111"
       id="path10734" />
    <path
       inkscape:connector-curvature="0"
       d="m 13.729412,282.91329 c 0,0 -0.676555,-1.10593 1.774795,-4.04201 0,0 -1.269698,2.84476 -1.774795,4.04201 z"
       style="fill:#000000;stroke-width:0.03888111"
       id="path10736" />
    <path
       inkscape:connector-curvature="0"
       d="m 13.215045,281.8041 c 0,0 0.852643,-2.1238 2.321597,-3.9017 0,0 -0.885079,2.96865 -2.321597,3.9017 z"
       style="fill:#000000;stroke-width:0.03888111"
       id="path10745" />
    <path
       inkscape:connector-curvature="0"
       d="m 13.215045,281.8041 c 0,0 -0.523632,-1.14831 2.321597,-3.9017 0,0 -1.65431,2.74359 -2.321597,3.9017 z"
       style="fill:#000000;stroke-width:0.03888111"
       id="path10747" />
    <path
       inkscape:connector-curvature="0"
       d="m 12.72385,280.98854 c 0,0 0.708991,-2.0455 1.946247,-3.75495 0,0 -0.736792,2.85782 -1.946247,3.75495 z"
       style="fill:#000000;stroke-width:0.03888111"
       id="path10756" />
    <path
       inkscape:connector-curvature="0"
       d="m 12.72385,280.98854 c 0,0 -0.449491,-1.10594 1.946247,-3.75495 0,0 -1.390176,2.63922 -1.946247,3.75495 z"
       style="fill:#000000;stroke-width:0.03888111"
       id="path10758" />
    <path
       inkscape:connector-curvature="0"
       d="m 12.329965,279.76515 c 0,0 1.102876,-2.14335 2.673775,-3.87564 0,-0.005 -1.283596,3.01765 -2.673775,3.87564 z"
       style="fill:#000000;stroke-width:0.03888111"
       id="path10767" />
    <path
       inkscape:connector-curvature="0"
       d="m 12.329965,279.76515 c 0,0 -0.240963,-1.23642 2.673775,-3.87564 0,-0.005 -1.899908,2.72082 -2.673775,3.87564 z"
       style="fill:#000000;stroke-width:0.03888111"
       id="path10769" />
    <path
       inkscape:connector-curvature="0"
       d="m 11.959251,278.81583 c 0,0 1.102876,-2.14335 2.673777,-3.87566 0,-0.005 -1.283598,3.01766 -2.673777,3.87566 z"
       style="fill:#000000;stroke-width:0.03888111"
       id="path10778" />
    <path
       inkscape:connector-curvature="0"
       d="m 11.959251,278.81583 c 0,0 -0.240963,-1.23643 2.673777,-3.87566 0,-0.005 -1.89991,2.72081 -2.673777,3.87566 z"
       style="fill:#000000;stroke-width:0.03888111"
       id="path10780" />
    <path
       inkscape:connector-curvature="0"
       d="m 11.644145,277.39342 c 0,0 1.102874,-2.14333 2.673775,-3.87564 0,0 -1.283598,3.01768 -2.673775,3.87564 z"
       style="fill:#000000;stroke-width:0.03888111"
       id="path10789" />
    <path
       inkscape:connector-curvature="0"
       d="m 11.644145,277.39342 c 0,0 -0.240963,-1.2364 2.673775,-3.87564 0,0 -1.89991,2.72076 -2.673775,3.87564 z"
       style="fill:#000000;stroke-width:0.03888111"
       id="path10791" />
    <path
       inkscape:connector-curvature="0"
       d="m 11.417082,275.56327 c 0,0 1.107509,-1.96065 2.701579,-3.53964 0,0 -1.278962,2.76321 -2.701579,3.53964 z"
       style="fill:#000000;stroke-width:0.03888111"
       id="path10800" />
    <path
       inkscape:connector-curvature="0"
       d="m 11.417082,275.56327 c 0,0 -0.268765,-1.13528 2.701579,-3.53964 0,0 -1.918445,2.48589 -2.701579,3.53964 z"
       style="fill:#000000;stroke-width:0.03888111"
       id="path10802" />
    <path
       inkscape:connector-curvature="0"
       d="m 11.407815,274.01368 c 0,0 1.000928,-1.77475 2.442079,-3.20359 0,0 -1.153848,2.50219 -2.442079,3.20359 z"
       style="fill:#000000;stroke-width:0.03888111"
       id="path10811" />
    <path
       inkscape:connector-curvature="0"
       d="m 11.407815,274.01368 c 0,0 -0.240964,-1.02767 2.442079,-3.20359 0,0 -1.733089,2.25093 -2.442079,3.20359 z"
       style="fill:#000000;stroke-width:0.03888111"
       id="path10813" />
    <path
       inkscape:connector-curvature="0"
       d="m 11.495859,273.51128 c 0,0 -0.546803,2.05529 0.06025,4.50853 0.607043,2.45332 2.164043,6.27021 3.846156,7.18042 0,0 0.389247,-0.10113 0.08804,-0.30667 -0.305838,-0.20896 -1.371641,-1.25926 -2.015755,-2.62616 -0.644116,-1.37019 -1.399446,-2.72078 -1.672848,-4.47595 -0.273399,-1.75513 -0.305838,-4.28017 -0.305841,-4.28017 z"
       style="fill:#000000;stroke-width:0.03888111"
       id="path10822" />
    <text
       xml:space="preserve"
       style="font-style:normal;font-variant:normal;font-weight:normal;font-stretch:normal;font-size:3.66905165px;line-height:1.25;font-family:Webdings;-inkscape-font-specification:Webdings;letter-spacing:0px;word-spacing:0px;fill:#000000;fill-opacity:1;stroke:none;stroke-width:0.09172628"
       x="11.1435"
       y="267.90463"
       id="text11801"><tspan
         sodipodi:role="line"
         id="tspan11799"
         x="11.1435"
         y="267.90463"
         style="font-style:normal;font-variant:normal;font-weight:normal;font-stretch:normal;font-size:5.87048292px;font-family:'Palatino Linotype';-inkscape-font-specification:'Palatino Linotype';stroke-width:0.09172628">ELLY</tspan></text>
  </g>
</svg>
