<?xml version="1.0" encoding="UTF-8" standalone="no"?>
<!-- Created with Inkscape (http://www.inkscape.org/) -->

<svg
   xmlns:dc="http://purl.org/dc/elements/1.1/"
   xmlns:cc="http://creativecommons.org/ns#"
   xmlns:rdf="http://www.w3.org/1999/02/22-rdf-syntax-ns#"
   xmlns:svg="http://www.w3.org/2000/svg"
   xmlns="http://www.w3.org/2000/svg"
   xmlns:sodipodi="http://sodipodi.sourceforge.net/DTD/sodipodi-0.dtd"
   xmlns:inkscape="http://www.inkscape.org/namespaces/inkscape"
   width="192"
   height="192"
   viewBox="0 0 50.8 50.8"
   version="1.1"
   id="svg8"
   inkscape:version="0.92.4 (5da689c313, 2019-01-14)"
   sodipodi:docname="192logo.svg">
  <defs
     id="defs2">
    <inkscape:path-effect
       effect="simplify"
       id="path-effect3894"
       is_visible="true"
       steps="1"
       threshold="0.00113885"
       smooth_angles="360"
       helper_size="0"
       simplify_individual_paths="false"
       simplify_just_coalesce="false"
       simplifyindividualpaths="false"
       simplifyJustCoalesce="false" />
    <inkscape:path-effect
       effect="simplify"
       id="path-effect3890"
       is_visible="true"
       steps="1"
       threshold="0.00113885"
       smooth_angles="360"
       helper_size="0"
       simplify_individual_paths="false"
       simplify_just_coalesce="false"
       simplifyindividualpaths="false"
       simplifyJustCoalesce="false" />
    <inkscape:path-effect
       effect="simplify"
       id="path-effect3886"
       is_visible="true"
       steps="1"
       threshold="0.00113885"
       smooth_angles="360"
       helper_size="0"
       simplify_individual_paths="false"
       simplify_just_coalesce="false"
       simplifyindividualpaths="false"
       simplifyJustCoalesce="false" />
    <inkscape:path-effect
       effect="simplify"
       id="path-effect3882"
       is_visible="true"
       steps="1"
       threshold="0.00113885"
       smooth_angles="360"
       helper_size="0"
       simplify_individual_paths="false"
       simplify_just_coalesce="false"
       simplifyindividualpaths="false"
       simplifyJustCoalesce="false" />
  </defs>
  <sodipodi:namedview
     id="base"
     pagecolor="#ffffff"
     bordercolor="#666666"
     borderopacity="1.0"
     inkscape:pageopacity="0.0"
     inkscape:pageshadow="2"
     inkscape:zoom="1"
     inkscape:cx="20.230508"
     inkscape:cy="23.839358"
     inkscape:document-units="mm"
     inkscape:current-layer="layer1"
     showgrid="false"
     inkscape:window-width="1366"
     inkscape:window-height="705"
     inkscape:window-x="-8"
     inkscape:window-y="-8"
     inkscape:window-maximized="1"
     units="px"
     height="8.5in"
     fit-margin-left="-0.2"
     fit-margin-bottom="-0.3" />
  <metadata
     id="metadata5">
    <rdf:RDF>
      <cc:Work
         rdf:about="">
        <dc:format>image/svg+xml</dc:format>
        <dc:type
           rdf:resource="http://purl.org/dc/dcmitype/StillImage" />
        <dc:title></dc:title>
      </cc:Work>
    </rdf:RDF>
  </metadata>
  <g
     inkscape:label="Layer 1"
     inkscape:groupmode="layer"
     id="layer1"
     transform="translate(0,-246.2)">
    <path
       inkscape:connector-curvature="0"
       d="m 4.3177088,265.27917 c 0.3874648,0.47233 0.7386021,0.99287 1.3682312,1.21082 0.3390269,0.19321 0.6538455,0.43564 1.0655247,0.47237 0,0 0,0 0,0 0.6780593,0.31469 1.404554,0.38753 2.1310473,0.4964 0.7022795,0.0972 1.356122,0.0615 2.034185,-0.0726 0.08476,-0.0142 0.169524,0.0372 0.254265,0.0494 v 0 c 0,0.0848 0.02417,0.14527 0.121083,0.14527 v 0 c 0,0.0494 0.01225,0.0847 0.01225,0.13309 0,0 0,0 0,0 0.03637,0.26659 0.205845,0.44823 0.411679,0.59349 0,0 0,0 0,0 v 0 c 0.03637,0.2302 -0.09688,0.48408 0.133169,0.66598 v 0 0 c 0.03637,0.0725 0.08476,0.14527 0.121083,0.21749 v 0 c 0,0.0143 0,0.0372 0.01225,0.0494 0.01225,0.13309 0.09688,0.20594 0.205845,0.2666 v 0 0 0 c 0.108968,0.0971 0.169524,0.21747 0.121083,0.37539 -0.02417,0.0847 -0.03637,0.18165 0.07264,0.2302 v 0 c 0.06053,0.0726 0.121083,0.14529 0.181615,0.20593 v 0 c 0.03637,0.14527 0.133202,0.2302 0.266384,0.27816 v 0 c 0.375358,0.16945 0.593308,0.52057 0.932335,0.72647 0,0 0,0 0,0 0.08476,0.12131 0.217937,0.16945 0.351139,0.19322 0.266381,0.0727 0.532763,0.13309 0.799143,0.20594 v 0 c 0.242167,0.0972 0.48433,0.10891 0.738603,0.14529 0.07264,0.0721 0.169523,0.0494 0.266381,0.0615 0,0 0,0 0,0 0.205844,0.14528 0.435898,0.15686 0.678063,0.13309 0.133201,0 0.266378,0 0.387465,0 0.02417,-0.0143 0.04841,-0.0231 0.08476,-0.0372 0,0 0,0 0,0 0.205845,-0.0494 0.181615,0.20593 0.326915,0.23019 v 0 0 c 0.108969,0.0972 0.07264,0.30304 0.254288,0.36374 0,0 0,0 0,0 0.193729,1.05336 0.435898,2.10682 0.278491,3.1965 v 0 c 0,0.0494 0,0.0971 0,0.14527 v 0 c -0.09688,0.1089 -0.07264,0.21751 -0.01228,0.339 -0.01228,0.0231 -0.01228,0.0372 0,0.0615 v 0 c -0.08476,0.31467 -0.07264,0.64167 -0.193729,0.94441 v 0 0 0 c -0.02417,0.0232 -0.02417,0.0372 -0.02417,0.0615 -0.09685,0.20594 -0.09685,0.43562 -0.121087,0.66591 0,0 0,0 0,0 -0.157408,0.36326 -0.08476,0.7749 -0.157408,1.15031 -0.121087,0.62962 -0.266381,1.25928 -0.399568,1.88884 -0.01228,0.0847 -0.02417,0.16946 -0.02417,0.26658 -0.09688,0.39921 -0.193729,0.81122 -0.278492,1.2229 -0.03637,0.16946 -0.193729,0.26658 -0.205845,0.43564 0,0 0,0 0,0 -0.07264,0.15686 -0.133201,0.3147 -0.205844,0.48409 -0.145291,0.19322 -0.08476,0.42397 -0.121087,0.62965 -0.04841,0.25387 -0.01228,0.52055 -0.01228,0.77496 0,0.0847 0,0.18164 0,0.26659 0,0.36327 0.02417,0.71436 0.266382,1.00494 v 0 c 0.03638,0.20594 0.157408,0.3628 0.339036,0.45991 0.02417,0.0231 0.03638,0.0494 0.06052,0.0726 v 0 c 0.09685,0.25387 0.205844,0.49642 0.302706,0.7507 0,0.0232 0.01228,0.0372 0.02417,0.0615 0.108969,0.41183 0.108969,0.8234 -0.03637,1.23507 -0.03638,0.1089 -0.03638,0.24233 -0.04841,0.36374 -0.07264,0.13308 -0.169502,0.25387 -0.193729,0.3992 v 0 c -0.07264,0.0972 -0.02417,0.15686 0.06052,0.20595 v 0 c 0.133201,0.12132 0.18164,0.33896 0.411679,0.32731 0.181637,0.0231 0.363246,0.0372 0.532764,0.0615 v 0 0 c 0.04841,0 0.08476,0 0.133201,0 v 0 c 0.133201,0 0.266384,0 0.399572,0 0.205844,0.0726 0.399568,0.10891 0.605408,0 v 0 0 0 c 0,0 0,0 0,0 0.181615,-0.0372 0.302706,-0.16966 0.411679,-0.31471 v 0 c 0.169523,-0.0847 0.278493,-0.2302 0.411679,-0.35112 0.02418,-0.0232 0.03637,-0.0494 0.06052,-0.0726 0,-0.0372 0,-0.0615 0,-0.0847 0.01214,0.0143 0.01214,0.0372 0,0.0847 0.04842,-0.0615 0.08477,-0.13308 0.133205,-0.19322 0.242165,-0.27814 0.532764,-0.5329 0.690172,-0.8718 0.254258,-0.2423 0.08477,-0.42347 -0.07264,-0.61762 v 0 c -0.01214,-0.0847 -0.06052,-0.14528 -0.133205,-0.20595 -0.07264,-0.19321 -0.205844,-0.33896 -0.411683,-0.39921 -0.569086,-0.41182 -0.823357,-0.9686 -0.726494,-1.67088 v 0 c 0.133201,-0.0847 0.01228,-0.16945 0,-0.25387 0.193729,-0.19322 0.108969,-0.48408 0.266385,-0.69018 0.193733,-0.50879 0.387454,-1.02918 0.593302,-1.53776 v 0 c 0.145296,-0.31469 0.290594,-0.62961 0.423791,-0.93232 v 0 c 0.108969,-0.19322 0.217938,-0.38754 0.326914,-0.58115 0,0 0,0 0,0 0.08477,-0.15686 0.181623,-0.32684 0.266384,-0.48406 v 0 c 0.08477,-0.13308 0.181624,-0.26659 0.266381,-0.39923 0,0 0,0 0,0 0.03637,-0.0971 0.08476,-0.18165 0.121074,-0.27842 0.145294,-0.0972 0.108969,-0.2539 0.133205,-0.39921 v 0 c 0.302708,-0.0615 0.121074,0.2539 0.25429,0.32686 0,0.14527 -0.01214,0.29041 0.07264,0.42349 0.07264,0.76288 0,1.52568 0.205845,2.27633 0.266378,0.66595 0,1.33197 0,1.99788 0,0 0,0 0,0 -0.07264,0.19323 -0.121074,0.38755 -0.133206,0.60528 v 0 c -0.03637,0.0494 -0.02418,0.0971 0.01214,0.13308 v 0 c 0.02418,0.15767 -0.06052,0.32686 0.07264,0.45992 v 0 c 0.02418,0.0143 0.03637,0.0232 0.06052,0.0372 v 0 c 0,0.14527 -0.06052,0.30304 0.06052,0.43612 0.290593,0.49646 0.351137,0.99285 0.07264,1.51357 0,0 0,0 0,0 -0.193733,0.36371 -0.205844,0.787 -0.399577,1.16237 v 0 c -0.145294,0.0726 -0.145294,0.21749 -0.193733,0.33897 v 0 c -0.09685,0.0972 -0.145295,0.20594 -0.121074,0.33896 -0.02418,0.0232 -0.04842,0.0494 -0.06052,0.0726 v 0 0 c -0.108969,0.0372 -0.169514,0.0972 -0.205844,0.20593 -0.01214,0.0231 -0.01214,0.0372 0,0.0615 -0.290593,0.30305 -0.254287,0.83543 0.06052,1.00494 v 0 0 c 0.108969,0 0.23005,0 0.339028,0 0.06052,0.0231 0.121074,0.0494 0.193733,0.0615 0.375359,0.25387 0.799144,0.0972 1.198717,0.13309 0.278483,0.0847 0.544869,0.0372 0.823362,0 v 0 c 0.133186,0 0.266379,-0.0143 0.399568,-0.0143 0,0 0,0 0,0 0,0 0,0 0,0 0.375356,0 0.774924,0.0727 1.077631,-0.26659 0.07264,-0.13308 0.145294,-0.2666 0.217963,-0.38757 0.07264,-0.0726 0.133205,-0.15686 0.121074,-0.26659 0,0 0,0 0,0 0.08477,-0.12131 0.07264,-0.2666 0.07264,-0.4118 0,0 0,0 0,0 0.10897,-0.15686 0.06052,-0.32684 0,-0.48413 0.01215,-0.0232 0.01215,-0.0372 0,-0.0494 -0.08477,-0.30302 -0.121074,-0.61762 -0.326925,-0.88388 0.01215,-0.0972 -0.03637,-0.16945 -0.07264,-0.25387 0,0 0,0 0,0 0,0 0,0 0,0 -0.07264,-0.5329 -0.04842,-1.06544 -0.04842,-1.59826 -0.01215,-0.0143 -0.02418,-0.0143 -0.02418,-0.0231 v 0 c 0,0 0,0 0,0 0.01214,0.0143 0.02418,0.0143 0.02418,0.0231 0.193733,-0.18103 0.108969,-0.4235 0.108969,-0.6296 -0.01214,-1.23508 0.290593,-2.42165 0.435898,-3.63249 0.08477,-0.71441 0.205844,-1.41666 0.302705,-2.13106 0.03637,-0.0847 0.06052,-0.16945 0.09688,-0.24233 v 0 c 0.10897,-0.18165 0.205851,-0.36276 0.314814,-0.54465 v 0 0 c 0.03637,-0.0494 0.03637,-0.10891 0.03637,-0.16946 0.09688,-0.27872 0.363247,-0.26659 0.653846,-0.2302 0.145274,0.0231 0.290593,0 0.435896,0 0.01214,0.0143 0.02426,0.0143 0.03637,0.0143 0.169513,0.0847 0.351139,0.0372 0.520651,0.0372 0.230055,0 0.411685,0.0143 0.314819,0.31469 -0.01214,0.0615 0.02426,0.13308 0.08477,0.16965 v 0 c 0.157404,0.31471 0.242157,0.66601 0.472219,0.93238 0.217954,0.12131 -0.03637,0.42397 0.205851,0.53294 v 0 c 0.02426,0.0847 0.03637,0.18165 0.06055,0.2666 v 0 c 0,0.1089 0.01214,0.21749 0.01214,0.32681 0.08476,0.36377 0.02426,0.76279 0.266391,1.07762 0.121074,0.0847 0.02426,0.25387 0.121074,0.35111 0.121074,0.55702 0.03637,1.11398 0.07264,1.65886 v 0 c -0.108969,0.16945 -0.07264,0.35113 -0.06055,0.53292 v 0 c -0.02426,0.18164 -0.04842,0.35113 -0.06055,0.53296 v 0 c -0.181624,0.30301 -0.508546,0.52055 -0.605415,0.87178 v 0 c -0.254258,0.25388 -0.254258,0.6053 -0.339025,0.93233 v 0 c -0.230055,0.16945 -0.169514,0.36371 -0.06055,0.55704 0.01214,0.0231 0.03637,0.0494 0.04842,0.0725 v 0 0 c 0.09688,0.14527 0.26639,0.12131 0.399571,0.14527 v 0 c 0.181623,0.14527 0.399572,0.1089 0.61752,0.12131 0.423785,0.13309 0.84758,0.0494 1.283476,0.0615 0.266391,0 0.520653,-0.0494 0.774925,-0.10891 0.03637,0 0.07264,-0.0143 0.10897,-0.0231 0.07264,0.0143 0.133205,0.0231 0.193713,-0.0494 v 0 c 0.205849,-0.0494 0.423788,-0.0725 0.605405,-0.21749 v 0 c 0.133205,-0.0231 0.205851,-0.0971 0.25429,-0.20594 v 0 c 0.03637,-0.0494 0.08477,-0.0968 0.121074,-0.14528 v 0 0 c 0.230055,-0.13307 0.06055,-0.33896 0.09688,-0.52056 v 0 c -0.07264,-0.39922 0.133205,-0.82337 -0.08477,-1.22295 -0.121074,-0.15686 -0.01214,-0.38755 -0.157404,-0.54467 0,0 0,0 0,0 -0.09684,-0.8234 -0.145275,-1.6467 -0.08477,-2.47013 v 0 c 0.108982,-0.13308 0.06055,-0.31467 0.121074,-0.47232 0.121074,-0.35112 0.278491,-0.67801 0.278491,-1.06549 0,-0.10891 0.07264,-0.14527 0.133206,-0.21749 v 0 c 0.121074,-0.0847 0.06055,-0.16946 0,-0.2539 0,0 0,0 0,0 0.07264,-0.1089 0.157404,-0.20594 0.133206,-0.35113 0.108969,-0.19323 0.01214,-0.4356 0.181622,-0.60524 v 0 c 0,0 0,0 0,0 0.169555,-0.0847 0.254287,-0.2175 0.26639,-0.41182 0.169553,-0.10891 0.108969,-0.39921 0.339029,-0.45991 0.08475,0.10891 0.181623,0.21749 0.26636,0.33898 0.06051,0.2175 0.205851,0.37539 0.326933,0.5447 0.03643,0.0847 0.09688,0.15686 0.181623,0.20595 0.193713,0.29042 0.351118,0.60525 0.496437,0.9323 v 0 0 c 0.02426,0.0231 0.03643,0.0494 0.06051,0.0726 0.06051,0.12131 0.02426,0.27816 0.145315,0.38757 v 0 c 0.04839,0.0725 0.09688,0.14527 0.133205,0.21748 v 0 c 0.133205,0.42349 0.278461,0.83544 0.62963,1.13814 0.157383,0.14528 0.205851,0.36373 0.290609,0.54465 v 0 c 0,0.0971 -0.03643,0.19322 0.04842,0.26659 v 0 c 0.08475,0.31468 0.145315,0.62965 0.290608,0.93238 0.266363,0.52057 0.157384,1.07762 0,1.61035 -0.01214,0.0143 -0.02426,0.0372 -0.01214,0.0494 0,0 0,0 0,0 -0.29061,0.30305 -0.520658,0.6296 -0.653847,1.01712 -0.02426,0.0494 -0.04842,0.0972 -0.07264,0.14528 v 0 c 0,0 0,0 0,0 0,0.0143 -0.01214,0.0143 -0.01214,0.0231 -0.121074,0.2904 -0.06051,0.60527 -0.181625,0.89606 0.04839,0.10891 0.09684,0.21749 0.133206,0.31469 v 0 0 c 0.230056,0.26659 0.520645,0.12131 0.799143,0.14528 v 0 c 0.08475,0.0231 0.181623,0.0494 0.26636,0.0726 0,0 0,0 0,0 v 0 c 0.08475,0.0972 0.193713,0.0843 0.302704,0.0721 0.496431,-0.0615 1.004978,0 1.513522,-0.0847 0.205851,-0.0231 0.399588,-0.0494 0.605412,-0.0615 v 0 c 0.363262,-0.0372 0.738598,-0.0231 1.004983,-0.35111 v 0 c 0,0 0,0 0,0 0.02426,-0.0232 0.04839,-0.0372 0.07264,-0.0615 v 0 0 c 0.193713,-0.14527 0.193713,-0.32683 0.145315,-0.54465 -0.06051,-0.30304 -0.02426,-0.62964 -0.145315,-0.9203 -0.02426,-0.0231 -0.03643,-0.0494 -0.06051,-0.0726 0,0 0,0 0,0 -0.04839,-0.32686 -0.121074,-0.64173 -0.278522,-0.93236 v 0 c -0.02426,-0.0848 -0.03641,-0.18164 -0.06051,-0.2666 -0.04839,-0.31468 -0.09684,-0.61756 -0.145315,-0.93225 0,0 0,0 0,0 v 0 c -0.121074,-0.19323 0.121074,-0.42397 -0.06051,-0.60528 0.01214,-0.18163 0,-0.35113 -0.108969,-0.50884 0,-0.0143 -0.01214,-0.0231 -0.02426,-0.0372 -0.06051,-0.20593 -0.121074,-0.41181 -0.193714,-0.61762 v 0 c -0.01214,-0.0847 0.01214,-0.18164 -0.07264,-0.25387 -0.09685,-0.70227 -0.07264,-1.41665 -0.06051,-2.11889 0,-0.18165 0.03643,-0.3754 0.06051,-0.55708 0,0 0,0 0,0 -0.04842,-0.25388 -0.03643,-0.49641 0.07264,-0.72647 0.01214,-0.0143 0.01214,-0.0231 0.01214,-0.0372 0.217951,-0.50881 0.508542,-0.99287 0.460097,-1.57408 -0.01215,-0.14529 0,-0.29044 -0.07264,-0.41184 0,-0.0848 0,-0.16946 0,-0.25387 -0.02426,-0.33896 0,-0.67805 0.121074,-1.005 v 0 c -0.01214,-0.0494 -0.03643,-0.0848 -0.04839,-0.13307 v 0 c 0.04839,-0.41183 0.01214,-0.82338 -0.06051,-1.22296 v 0 c 0.02426,-0.0372 0.08475,-0.0725 0.01214,-0.12104 0,0 0,0 0,0 0.01214,-0.0615 0.06051,-0.0615 0.108969,-0.0615 v 0 c 0.06051,0.0972 0.133206,0.18164 0.193712,0.27841 0.03643,0.0721 0.03643,0.16946 0.121074,0.21751 0,0 0,0 0.01214,-0.0143 0,0 0,0 0,0 0,0 0,0 -0.01214,0 v 0 c 0.01214,0.0847 0.07264,0.13309 0.133205,0.19323 v 0 c 0.02426,0.14527 0.03643,0.30304 0.205848,0.35113 v 0 c -0.01214,0.0143 0,0.0372 0.01214,0.0372 0.01214,0.0848 0.04842,0.15686 0.108969,0.21749 v 0 c 0.08475,0.13307 0.145315,0.29042 0.290608,0.37542 0.02426,0.0494 0.04842,0.0972 0.07264,0.14527 v 0 c -0.01215,0.1089 0.06051,0.19323 0.133205,0.2666 v 0 c 0.08475,0.1089 0.169555,0.23017 0.266363,0.33896 0.04842,0.14528 0.145315,0.25388 0.27846,0.3273 v 0 0 c 0.02426,0.0232 0.03643,0.0494 0.06051,0.0726 0,0.19323 0.121074,0.30303 0.254287,0.41183 0.290609,0.36372 0.54487,0.77494 1.017091,0.94447 0.351168,0.21748 0.617505,0.5329 0.932332,0.79911 0,0 0,0 0,0 0.157384,0.27872 0.363213,0.48412 0.702277,0.48412 0.01214,0 0.03643,0 0.06059,0 0.02426,0.0143 0.03643,0.0372 0.06059,0.0494 v 0 0 c 0.04824,0.10891 0.133145,0.15685 0.254289,0.15685 v 0 c 0.04823,0.0848 0.121074,0.18165 0.230053,0.12131 0.121074,-0.0615 0.03643,-0.15684 0.01214,-0.25387 -0.06059,-0.18165 -0.108969,-0.37539 -0.169554,-0.55708 -0.06059,-0.1089 -0.133185,-0.22962 -0.193652,-0.33899 v 0 0 0 0 0 c -0.02426,-0.13308 0,-0.29042 -0.145315,-0.37539 -0.03643,-0.0372 -0.07264,-0.0615 -0.10897,-0.0971 0,0 0,0 0,0 -0.351123,-0.24231 -0.762826,-0.27873 -1.150287,-0.39921 0,0 0,0 0,0 v 0 0 0 0 c 0,0 0,0 0,0 -0.230054,-0.16965 -0.484337,-0.31468 -0.593272,-0.60525 -0.121074,-0.15686 -0.242186,-0.30305 -0.363259,-0.45994 v 0 c 0,0 0,0 0,0 -0.145315,-0.24233 -0.217953,-0.52056 -0.399586,-0.73866 -0.01214,-0.0143 -0.03643,-0.0143 -0.04842,-0.0143 v 0 c -0.04842,-0.0615 -0.09688,-0.13309 -0.145315,-0.19323 v 0 c -0.230054,-0.53297 -0.448004,-1.0655 -0.678063,-1.61037 -0.169555,-0.23019 -0.242157,-0.50877 -0.326937,-0.77487 -0.04839,-0.15767 -0.09688,-0.3147 -0.205851,-0.43564 v 0 c -0.08475,-0.0972 -0.07264,-0.2539 -0.205848,-0.32683 -0.04842,-0.19323 -0.169555,-0.35112 -0.278464,-0.50818 -0.193713,-0.42398 -0.508551,-0.77499 -0.665958,-1.22301 -0.03641,-0.21748 -0.181644,-0.35113 -0.326934,-0.48406 v 0 c 0,-0.0972 -0.04839,-0.14527 -0.121074,-0.19323 0,0 0,0 0,0 -0.157384,-0.27871 -0.387449,-0.50876 -0.605419,-0.75065 0,0 0,0 0,0 -0.145315,-0.25387 -0.351118,-0.44823 -0.605412,-0.59353 -0.06051,-0.18164 -0.205851,-0.29042 -0.351118,-0.38753 -0.02426,-0.0231 -0.03643,-0.0494 -0.06051,-0.0725 -0.02426,-0.0232 -0.04842,-0.0372 -0.07264,-0.0615 v 0 0 c -0.205849,-0.30301 -0.544876,-0.49647 -0.799142,-0.75071 v 0 c -0.108969,-0.13308 -0.217954,-0.27872 -0.399586,-0.32684 0,-0.0231 -0.01215,-0.0372 -0.02426,-0.0494 v 0 c -0.03643,-0.0971 -0.108969,-0.15686 -0.193713,-0.20595 v 0 c -0.06051,-0.0971 -0.133205,-0.18164 -0.254288,-0.20591 v 0 c -0.04839,-0.0372 -0.09688,-0.0847 -0.145315,-0.12131 v 0 0 c -0.254287,-0.33898 -0.581199,-0.58116 -0.932339,-0.81121 -0.08475,-0.0971 -0.157384,-0.20594 -0.27846,-0.25389 v 0 0 c -0.06051,-0.0972 -0.169536,-0.10891 -0.25429,-0.15686 -0.02426,-0.0143 -0.03643,-0.0372 -0.06051,-0.0494 0,0 0,0 0,0 -0.157383,-0.13309 -0.339027,-0.24234 -0.544876,-0.2666 -0.04839,-0.0494 -0.09688,-0.0847 -0.145314,-0.13308 v 0 c -0.01214,-0.0231 -0.03643,-0.0494 -0.04839,-0.0727 0,0 0,0 0,0 -0.205851,-0.15686 -0.423774,-0.26659 -0.665958,-0.33898 -0.03637,0 -0.07264,0 -0.121074,-0.0143 0,0 0,0 0,0 -0.145274,-0.0847 -0.314819,-0.13309 -0.48433,-0.13309 -0.09684,-0.0372 -0.181624,-0.0847 -0.278493,-0.12131 0,0 0,0 0,0 0,0 0,0 0,0 -0.435896,-0.15686 -0.896009,-0.1089 -1.344011,-0.15686 -0.21798,-0.0231 -0.508546,-0.0848 -0.738601,0.0847 -0.351138,-0.0372 -0.690172,0.0231 -1.004983,0.20592 -0.254287,0.0847 -0.520659,0.12132 -0.750714,0.2539 0,0 0,0 0,0 -0.230054,0.0727 -0.278492,-0.0231 -0.266389,-0.24233 0.01214,-0.303 0.08477,-0.61764 -0.121074,-0.89595 -0.04839,-0.12131 -0.08477,-0.2302 -0.133185,-0.35112 v 0 c 0,-0.0494 -0.01215,-0.0972 -0.04842,-0.12131 -0.145275,-0.47235 -0.375361,-0.89598 -0.678062,-1.28344 v 0 c -0.03637,-0.13307 -0.08477,-0.24233 -0.205851,-0.32682 -0.326922,-0.20596 -0.460111,-0.61765 -0.81125,-0.78705 v 0 c -0.02426,-0.0143 -0.03637,-0.0143 -0.06055,-0.0143 v 0 c -0.09688,-0.0847 -0.193712,-0.13308 -0.326922,-0.13308 0,0 0,0 0,0 -0.254258,-0.10891 -0.508548,-0.0372 -0.750709,0 -0.738605,0.12131 -1.477207,0.0615 -2.215808,0.0143 -0.544867,-0.0725 -1.077631,-0.1089 -1.610395,0.0615 v 0 c -0.133206,0 -0.266381,0.0231 -0.363246,0.13308 -0.157404,0.16946 -0.387455,0.13309 -0.581197,0.20594 -0.06052,0 -0.133205,0 -0.193733,0 v 0 c -0.08477,-0.0231 -0.169513,-0.0494 -0.26638,-0.0726 v 0 c -0.278492,-0.14527 -0.569086,-0.14527 -0.871793,-0.13307 -0.641733,-0.21809 -1.29558,-0.13309 -1.93732,-0.0972 -0.217938,0.0143 -0.411674,-0.0615 -0.617519,-0.0372 -0.09688,-0.0615 -0.205845,-0.0725 -0.314812,-0.0725 0,0 0,0 0,0 -0.205846,-0.0972 -0.41168,-0.0848 -0.61752,0.0143 -0.02417,0.0143 -0.04841,0.0231 -0.06052,0.0372 0,0 0,0 0,0 -0.375357,-0.15686 -0.484329,0.18164 -0.678063,0.36373 -0.169523,0.14527 -0.399572,0.20594 -0.544874,0.39922 0,0 0,0 0,0 -0.217938,0.0615 -0.435898,0.12132 -0.653843,0.18165 -0.02417,0 -0.04842,0.0143 -0.08476,0.0231 -0.326925,0.2302 -0.629631,0.1089 -0.932337,-0.0615 v 0 c -0.06052,-0.0494 -0.121084,-0.0971 -0.181615,-0.13308 v 0 c -0.169526,-0.0972 -0.121086,-0.3511 -0.290595,-0.45991 v 0 0 c -0.06052,-0.13308 -0.133202,-0.26659 -0.193729,-0.39919 -0.06053,-0.2302 -0.121084,-0.44823 -0.18164,-0.67813 v 0 c -0.01225,-0.42347 -0.01225,-0.8475 -0.02417,-1.27134 0,-0.0231 0.01225,-0.0372 0.01225,-0.0615 v 0 c 0.04841,-0.0494 0.02417,-0.0971 -0.01225,-0.13308 0,-0.0847 0.01225,-0.16965 0.01225,-0.2539 v 0 c 0.108968,-0.14527 0.03637,-0.3147 0.07264,-0.47231 0.07264,-0.0727 0.14529,-0.16965 0.07264,-0.2539 -0.121084,-0.14527 0.01225,-0.24233 0.03637,-0.35111 0,-0.0494 0,-0.0847 0,-0.13309 0,-0.0847 0.01225,-0.18103 0.01225,-0.26659 v 0 c 0,-0.10891 -0.02417,-0.23021 0.06052,-0.32683 0.108968,-0.0615 0.169524,-0.15686 0.121084,-0.27873 -0.04841,-0.1089 0,-0.19323 0.08476,-0.26659 v 0 0 c 0.01225,-0.0143 0.02417,-0.0372 0.02417,-0.0494 0.121083,-0.27873 0.145291,-0.58116 0.108968,-0.88397 v 0 c 0,0 0,0 0,0 0,0 0,0 0,0 -0.01225,-0.1089 0.157408,-0.2175 0,-0.33898 -0.02417,-0.0231 -0.04841,-0.0494 -0.06053,-0.0726 0.09685,-0.24233 0.02417,-0.48409 0,-0.73864 v 0 0 c -0.02417,-0.0231 -0.04841,-0.0494 -0.06053,-0.0726 0,-0.1089 0,-0.21749 0,-0.33897 0.04841,-0.0494 0.06053,-0.0847 0.01225,-0.14527 -0.04841,-0.0615 -0.09685,-0.13309 -0.145291,-0.19323 0.03637,-0.0725 0.04841,-0.13307 0,-0.20594 -0.07264,-0.29042 -0.04841,-0.62962 -0.302701,-0.85967 -0.03637,-0.12105 -0.07264,-0.2539 -0.169524,-0.35111 v 0 c -0.04841,-0.1089 -0.169524,-0.14527 -0.254287,-0.20594 v 0 c -0.06053,-0.21749 -0.266381,-0.27843 -0.423787,-0.38756 0,0 0,0 0,0 0,0 0,0 0,0 -0.133201,-0.18165 -0.314813,-0.26658 -0.532757,-0.26658 -0.230049,-0.20594 -0.508547,-0.27816 -0.7991445,-0.2666 -0.266384,-0.0231 -0.5327634,-0.0231 -0.7870384,-0.1089 -0.266381,-0.0847 -0.4722184,0.0372 -0.6417346,0.24233 -0.084764,0.10891 -0.1816113,0.20595 -0.036374,0.33901 v 0 c 0.024175,0.0494 0.036374,0.0972 0.060525,0.14527 0.024174,0.0372 0.048412,0.0847 0.072643,0.12132 -0.1210833,0.82337 0.2421653,1.02919 1.0776332,0.67811 v 0 c 0.2058449,-0.0231 0.3511343,0.0494 0.4480093,0.21749 0,0.0143 0.01225,0.0231 0.01225,0.0372 0,0 0,0 0,0 v 0 0 c 0.145291,0.13307 0.08476,0.33896 0.193729,0.48411 v 0 0 c 0.02417,0.0494 0.04841,0.0848 0.07264,0.13309 v 0 0 c 0,0.0494 0,0.0847 0,0.13308 v 0 c -0.03637,0.0972 -0.02417,0.19323 0.06053,0.27815 0.02417,0.0494 0.04841,0.0847 0.06053,0.13308 v 0 c 0,0.0372 0,0.0848 0,0.12105 0,0 0,0 0,0 -0.04841,0.0372 -0.07264,0.0848 -0.06053,0.13309 v 0 c 0,0.0231 0,0.0494 0.01225,0.0726 0,0 0,0 0,0 0,0 0,0 0,0 0,0.1089 0,0.21748 0,0.33896 0.04841,0.18165 0.06053,0.35112 0,0.53293 v 0 c 0,0.12131 -0.108968,0.2175 -0.07264,0.33901 -0.08476,0.0971 -0.07264,0.20594 -0.07264,0.31468 -0.133201,0.18164 -0.278491,0.36374 -0.266381,0.61762 -0.07265,0.0726 -0.1816108,0.13309 -0.2058443,0.2539 0,0 0,0.0143 0,0.0143 -0.036374,0.10891 -0.072643,0.22961 -0.1089679,0.33899 v 0 c -0.060528,0.0721 -0.096857,0.15686 -0.072643,0.2539 0,0 0,0 0,0 -0.048412,0.0971 -0.1332013,0.15684 -0.1332013,0.27872 v 0 c -0.048407,0.13308 -0.084764,0.25387 -0.1332013,0.38754 -0.09688,0.14528 -0.1332015,0.30303 -0.1332015,0.47234 0,0 0,0 0,0 -0.072643,0.26659 -0.1332013,0.54471 -0.1210832,0.82331 v 0 0 c 0,0.0615 0,0.13308 0,0.19322 0,0.29044 0,0.56881 0,0.85968 0,0 0,0 0,0 -0.048412,0.0847 -0.1210832,0.16966 -0.072643,0.29043 0,0.0494 0,0.0848 0,0.13309 v 0 c -0.036374,0.42396 -0.060525,0.84758 0.193729,1.22294 0,0 0,0 0,0 v 0 0 0 c 0,0.0615 0.01225,0.12104 0.01225,0.19322 0,0.12105 0.01225,0.22964 0.072642,0.33899 0.060528,0.18165 0.036374,0.39919 0.2542647,0.49641 -0.024175,0.18165 0.09688,0.30304 0.1816377,0.44824 0,0.0143 0.01225,0.0372 0,0.0494 -0.1574083,0.37539 0.1089679,0.61756 0.2905941,0.88385 0,0 0,0 0,0 0.133201,0.43564 0.472218,0.72645 0.738602,1.07763 0.03637,0.20593 -0.07264,0.27813 -0.266384,0.33899 -0.508547,0.16965 -1.0291965,0.2175 -1.5619608,0.19322 -0.072643,0 -0.1332013,0 -0.1816113,0.0615 v 0 0 c -0.7749245,0.0615 -1.5256356,-0.0847 -2.2763461,-0.26658 0,0 0,0.0143 0,0.0143 0,0 0,0 0,0 v -0.0143 c -0.09688,-0.10891 -0.2179642,-0.0494 -0.3390269,-0.0726 v 0 c -0.2542588,-0.16945 -0.5206522,-0.30301 -0.7991414,-0.3992 -0.2906034,-0.16946 -0.5690923,-0.36374 -0.8717952,-0.52057 -0.1210832,-0.0615 -0.2421653,0 -0.2663811,0.15686 -0.060525,0.0494 -0.072643,0.15684 -0.01225,0.24233 z m 13.3190542,12.76207 v 0 c 0,0 0,0 0,0 0,0 -0.01228,-0.0143 0,0 -0.01228,-0.0143 0,-0.0143 0,0 z"
       id="path7173"
       style="stroke-width:0.12108227" />
    <g
       transform="matrix(0.05113776,0,0,0.04237172,-1.2969229,249.31433)"
       id="g9450">
      <linearGradient
         id="SVGID_1_"
         gradientUnits="userSpaceOnUse"
         x1="110.147"
         y1="851.46082"
         x2="175.0506"
         y2="851.46082"
         gradientTransform="matrix(0.6794,-0.7338,0.7338,0.6794,-405.8327,434.1327)">
        <stop
           offset="0"
           style="stop-color:#54B948"
           id="stop9016" />
        <stop
           offset="0.3764"
           style="stop-color:#00A651"
           id="stop9018" />
        <stop
           offset="1"
           style="stop-color:#005826"
           id="stop9020" />
      </linearGradient>
      <path
         inkscape:connector-curvature="0"
         d="m 360.3,904.9 c 0,0 -32.1,15.8 -88.9,6.1 0,0 32.1,-1.6 49.5,-5.3 20.6,-4.3 37.2,-1.4 39.4,-0.8 z"
         style="fill:#000000"
         id="path9023" />
      <linearGradient
         id="SVGID_2_"
         gradientUnits="userSpaceOnUse"
         x1="88.230301"
         y1="812.1275"
         x2="174.897"
         y2="812.1275"
         gradientTransform="matrix(0.6794,-0.7338,0.7338,0.6794,-405.8327,434.1327)">
        <stop
           offset="0"
           style="stop-color:#54B948"
           id="stop9025" />
        <stop
           offset="0.3764"
           style="stop-color:#00A651"
           id="stop9027" />
        <stop
           offset="1"
           style="stop-color:#005826"
           id="stop9029" />
      </linearGradient>
      <path
         inkscape:connector-curvature="0"
         d="m 346.9,892.8 c 0,0 -71.4,19.3 -134.9,-6.8 0,0 34.9,12.8 71.5,7.2 36.6,-5.7 56.1,-3.5 63.4,-0.4 z"
         style="fill:#000000"
         id="path9032" />
      <linearGradient
         id="SVGID_3_"
         gradientUnits="userSpaceOnUse"
         x1="104.2303"
         y1="782.16913"
         x2="174.897"
         y2="782.16913"
         gradientTransform="matrix(0.6794,-0.7338,0.7338,0.6794,-405.8327,434.1327)">
        <stop
           offset="0"
           style="stop-color:#54B948"
           id="stop9034" />
        <stop
           offset="0.3764"
           style="stop-color:#00A651"
           id="stop9036" />
        <stop
           offset="1"
           style="stop-color:#005826"
           id="stop9038" />
      </linearGradient>
      <path
         inkscape:connector-curvature="0"
         d="m 334.7,881.5 c 0,0 -92.6,9.2 -143.6,-36.7 0,0 30.6,23.4 81.7,25.6 51,2.3 61.9,11.1 61.9,11.1 z"
         style="fill:#000000"
         id="path9041" />
      <linearGradient
         id="SVGID_4_"
         gradientUnits="userSpaceOnUse"
         x1="112.2303"
         y1="764.5025"
         x2="176.5636"
         y2="764.5025"
         gradientTransform="matrix(0.6794,-0.7338,0.7338,0.6794,-405.8327,434.1327)">
        <stop
           offset="0"
           style="stop-color:#54B948"
           id="stop9043" />
        <stop
           offset="0.3764"
           style="stop-color:#00A651"
           id="stop9045" />
        <stop
           offset="1"
           style="stop-color:#005826"
           id="stop9047" />
      </linearGradient>
      <path
         inkscape:connector-curvature="0"
         d="m 317.8,863.5 c 0,0 -76,3.6 -129.1,-31.8 0,0 46,16.8 84.4,20.5 24.5,2.3 44.7,11.3 44.7,11.3 z"
         style="fill:#000000"
         id="path9050" />
      <linearGradient
         id="SVGID_5_"
         gradientUnits="userSpaceOnUse"
         x1="118.5636"
         y1="734.66913"
         x2="179.897"
         y2="734.66913"
         gradientTransform="matrix(0.6794,-0.7338,0.7338,0.6794,-405.8327,434.1327)">
        <stop
           offset="0"
           style="stop-color:#54B948"
           id="stop9052" />
        <stop
           offset="0.3764"
           style="stop-color:#00A651"
           id="stop9054" />
        <stop
           offset="1"
           style="stop-color:#005826"
           id="stop9056" />
      </linearGradient>
      <path
         inkscape:connector-curvature="0"
         d="m 161.9,798.3 c 0,0 59,48.7 145.4,51 0,0 -28.7,-15.3 -68.5,-21.7 -39.8,-6.3 -76.9,-29.3 -76.9,-29.3 z"
         style="fill:#000000"
         id="path9059" />
      <linearGradient
         id="SVGID_6_"
         gradientUnits="userSpaceOnUse"
         x1="126.5636"
         y1="714.91913"
         x2="182.5636"
         y2="714.91913"
         gradientTransform="matrix(0.6794,-0.7338,0.7338,0.6794,-405.8327,434.1327)">
        <stop
           offset="0"
           style="stop-color:#54B948"
           id="stop9061" />
        <stop
           offset="0.3764"
           style="stop-color:#00A651"
           id="stop9063" />
        <stop
           offset="1"
           style="stop-color:#005826"
           id="stop9065" />
      </linearGradient>
      <path
         inkscape:connector-curvature="0"
         d="m 155.4,781.3 c 0,0 47.9,43.9 136.7,50.3 0,0 -26.2,-15.2 -52.3,-19.3 -26.1,-4.2 -52,-9.6 -84.4,-31 z"
         style="fill:#000000"
         id="path9068" />
      <linearGradient
         id="SVGID_7_"
         gradientUnits="userSpaceOnUse"
         x1="137.2303"
         y1="693.33582"
         x2="186.2303"
         y2="693.33582"
         gradientTransform="matrix(0.6794,-0.7338,0.7338,0.6794,-405.8327,434.1327)">
        <stop
           offset="0"
           style="stop-color:#54B948"
           id="stop9070" />
        <stop
           offset="0.3764"
           style="stop-color:#00A651"
           id="stop9072" />
        <stop
           offset="1"
           style="stop-color:#005826"
           id="stop9074" />
      </linearGradient>
      <path
         inkscape:connector-curvature="0"
         d="m 149.2,761 c 0,0 65.8,55.5 127.2,51 0,0 -22,-12.4 -57.7,-20.1 C 183,784.2 149.2,761 149.2,761 Z"
         style="fill:#000000"
         id="path9077" />
      <linearGradient
         id="SVGID_8_"
         gradientUnits="userSpaceOnUse"
         x1="144.397"
         y1="672.5025"
         x2="189.897"
         y2="672.5025"
         gradientTransform="matrix(0.6794,-0.7338,0.7338,0.6794,-405.8327,434.1327)">
        <stop
           offset="0"
           style="stop-color:#54B948"
           id="stop9079" />
        <stop
           offset="0.3764"
           style="stop-color:#00A651"
           id="stop9081" />
        <stop
           offset="1"
           style="stop-color:#005826"
           id="stop9083" />
      </linearGradient>
      <path
         inkscape:connector-curvature="0"
         d="m 140.1,742.9 c 0,0 60.5,44 122.1,51.1 0,0 -17.5,-13.5 -52.5,-23.2 -35,-9.7 -58.8,-21.4 -69.6,-27.9 z"
         style="fill:#000000"
         id="path9086" />
      <linearGradient
         id="SVGID_9_"
         gradientUnits="userSpaceOnUse"
         x1="152.8951"
         y1="638.5025"
         x2="195.897"
         y2="638.5025"
         gradientTransform="matrix(0.6794,-0.7338,0.7338,0.6794,-405.8327,434.1327)">
        <stop
           offset="0"
           style="stop-color:#54B948"
           id="stop9088" />
        <stop
           offset="0.3764"
           style="stop-color:#00A651"
           id="stop9090" />
        <stop
           offset="1"
           style="stop-color:#005826"
           id="stop9092" />
      </linearGradient>
      <path
         inkscape:connector-curvature="0"
         d="m 116.8,709.7 c 0,0 58.5,55.5 128.8,60.6 0,0 -13.9,-10.6 -37.9,-16.9 -24.1,-6.4 -60.1,-22 -90.9,-43.7 z"
         style="fill:#000000"
         id="path9095" />
      <linearGradient
         id="SVGID_10_"
         gradientUnits="userSpaceOnUse"
         x1="161.6795"
         y1="609.16913"
         x2="202.2303"
         y2="609.16913"
         gradientTransform="matrix(0.6794,-0.7338,0.7338,0.6794,-405.8327,434.1327)">
        <stop
           offset="0"
           style="stop-color:#54B948"
           id="stop9097" />
        <stop
           offset="0.3764"
           style="stop-color:#00A651"
           id="stop9099" />
        <stop
           offset="1"
           style="stop-color:#005826"
           id="stop9101" />
      </linearGradient>
      <path
         inkscape:connector-curvature="0"
         d="m 93.4,676 c 0,0 70,69.1 142.7,77 0,0 -21.6,-15 -39.9,-20.2 C 177.9,727.6 134.7,709.9 93.4,676 Z"
         style="fill:#000000"
         id="path9104" />
      <linearGradient
         id="SVGID_11_"
         gradientUnits="userSpaceOnUse"
         x1="180.6864"
         y1="591.0025"
         x2="207.3221"
         y2="591.0025"
         gradientTransform="matrix(0.6794,-0.7338,0.7338,0.6794,-405.8327,434.1327)">
        <stop
           offset="0"
           style="stop-color:#54B948"
           id="stop9106" />
        <stop
           offset="0.3764"
           style="stop-color:#00A651"
           id="stop9108" />
        <stop
           offset="1"
           style="stop-color:#005826"
           id="stop9110" />
      </linearGradient>
      <path
         inkscape:connector-curvature="0"
         d="m 96.1,645.1 c 0,0 42.3,68.7 130.5,92.6 0,0 -1.2,-5.6 -38.4,-23.8 C 151,695.7 129.4,682.3 96.1,645.1 Z"
         style="fill:#000000"
         id="path9113" />
      <linearGradient
         id="SVGID_12_"
         gradientUnits="userSpaceOnUse"
         x1="195.6622"
         y1="587.33582"
         x2="213.1273"
         y2="587.33582"
         gradientTransform="matrix(0.6794,-0.7338,0.7338,0.6794,-405.8327,434.1327)">
        <stop
           offset="0"
           style="stop-color:#54B948"
           id="stop9115" />
        <stop
           offset="0.3764"
           style="stop-color:#00A651"
           id="stop9117" />
        <stop
           offset="1"
           style="stop-color:#005826"
           id="stop9119" />
      </linearGradient>
      <path
         inkscape:connector-curvature="0"
         d="m 109.5,644.2 c 0,0 69.4,69.7 108.9,78.1 0,0 -12,-15 -41.7,-31.5 C 147,674.4 139,669.2 109.5,644.2 Z"
         style="fill:#000000"
         id="path9122" />
      <linearGradient
         id="SVGID_13_"
         gradientUnits="userSpaceOnUse"
         x1="208.26871"
         y1="554.5423"
         x2="217.82809"
         y2="554.5423"
         gradientTransform="matrix(0.6794,-0.7338,0.7338,0.6794,-405.8327,434.1327)">
        <stop
           offset="0"
           style="stop-color:#54B948"
           id="stop9124" />
        <stop
           offset="0.3764"
           style="stop-color:#00A651"
           id="stop9126" />
        <stop
           offset="1"
           style="stop-color:#005826"
           id="stop9128" />
      </linearGradient>
      <path
         inkscape:connector-curvature="0"
         d="m 87.6,599.9 c 0,0 76.3,90.3 120.1,105.5 0,0 -28.3,-27 -53.8,-44.2 -25.6,-17.1 -66.3,-61.3 -66.3,-61.3 z"
         style="fill:#000000"
         id="path9131" />
      <linearGradient
         id="SVGID_14_"
         gradientUnits="userSpaceOnUse"
         x1="218.5032"
         y1="544.18707"
         x2="226.5584"
         y2="544.18707"
         gradientTransform="matrix(0.6794,-0.7338,0.7338,0.6794,-405.8327,434.1327)">
        <stop
           offset="0"
           style="stop-color:#54B948"
           id="stop9133" />
        <stop
           offset="0.3764"
           style="stop-color:#00A651"
           id="stop9135" />
        <stop
           offset="1"
           style="stop-color:#005826"
           id="stop9137" />
      </linearGradient>
      <path
         inkscape:connector-curvature="0"
         d="m 90.4,585.8 c 0,0 64.7,82.3 112.8,104.9 0,0 -10.9,-12.8 -35.5,-33.4 -24.6,-20.6 -52.2,-44.2 -77.3,-71.5 z"
         style="fill:#000000"
         id="path9140" />
      <linearGradient
         id="SVGID_15_"
         gradientUnits="userSpaceOnUse"
         x1="232.1745"
         y1="528.58728"
         x2="247.5636"
         y2="528.58728"
         gradientTransform="matrix(0.6794,-0.7338,0.7338,0.6794,-405.8327,434.1327)">
        <stop
           offset="0"
           style="stop-color:#54B948"
           id="stop9142" />
        <stop
           offset="0.3764"
           style="stop-color:#00A651"
           id="stop9144" />
        <stop
           offset="1"
           style="stop-color:#005826"
           id="stop9146" />
      </linearGradient>
      <path
         inkscape:connector-curvature="0"
         d="m 97.4,562.7 c 0,0 30.5,58.3 96.4,107.5 0,0 -14.4,-18.5 -32.7,-38.1 -18.3,-19.6 -41.2,-32.7 -63.7,-69.4 z"
         style="fill:#000000"
         id="path9149" />
      <path
         inkscape:connector-curvature="0"
         d="m 360.3,904.9 c 0,0 -29.4,15.8 -88.6,6.2 0,0 34.1,1.6 54.8,-2.2 13.4,-2.4 28.3,-3.2 33.8,-4 z"
         style="fill:#000000"
         id="path9151" />
      <path
         inkscape:connector-curvature="0"
         d="m 347.2,892.9 c 0,0 -71.4,19.3 -134.9,-6.8 0,0 25.1,11.7 76.5,9.9 29.6,-1 42.9,-2 58.4,-3.1 z"
         style="fill:#000000"
         id="path9153" />
      <path
         inkscape:connector-curvature="0"
         d="m 335.1,881.6 c 0,0 -92.9,9.1 -144,-36.8 0,0 30.8,24.1 81.6,29.5 40.2,4.2 62.4,7.3 62.4,7.3 z"
         style="fill:#000000"
         id="path9155" />
      <path
         inkscape:connector-curvature="0"
         d="m 318.1,863.6 c 0,0 -76.4,3.5 -129.4,-31.9 0,0 33.4,17.4 84.1,24.7 19.3,2.8 45.3,7.2 45.3,7.2 z"
         style="fill:#000000"
         id="path9157" />
      <path
         inkscape:connector-curvature="0"
         d="m 161.9,798.3 c 0,0 59.3,48.8 145.7,51.1 0,0 -34,-8 -66.6,-16.3 -39,-9.9 -79.1,-34.8 -79.1,-34.8 z"
         style="fill:#000000"
         id="path9159" />
      <path
         inkscape:connector-curvature="0"
         d="m 155.4,781.3 c 0,0 47.9,43.9 136.7,50.3 0,0 -26.8,-9.9 -52.9,-14 -26.1,-4.1 -51.4,-14.9 -83.8,-36.3 z"
         style="fill:#000000"
         id="path9161" />
      <path
         inkscape:connector-curvature="0"
         d="m 149.5,761.1 c 0,0 65.8,55.5 127.2,51 0,0 -15.9,-3.6 -49.4,-12.1 -44.8,-11.4 -77.8,-38.9 -77.8,-38.9 z"
         style="fill:#000000"
         id="path9163" />
      <path
         inkscape:connector-curvature="0"
         d="m 140.5,743 c 0,0 60.5,44 122.1,51.1 0,0 -22.7,-8.3 -53.6,-18.6 -34.5,-11.6 -57.8,-26 -68.5,-32.5 z"
         style="fill:#000000"
         id="path9165" />
      <path
         inkscape:connector-curvature="0"
         d="m 117.1,709.8 c 0,0 58.5,55.5 128.8,60.6 0,0 -15.8,-6.5 -39.9,-12.7 -33.4,-8.4 -58.1,-26.2 -88.9,-47.9 z"
         style="fill:#000000"
         id="path9167" />
      <path
         inkscape:connector-curvature="0"
         d="m 93.8,676.1 c 0,0 70,69.1 142.7,77 0,0 -23.9,-10 -42.2,-15.2 C 175.9,732.7 135.1,710 93.8,676.1 Z"
         style="fill:#000000"
         id="path9169" />
      <path
         inkscape:connector-curvature="0"
         d="m 96.1,645.1 c 0,0 42.6,68.8 130.8,92.7 0,0 -3.6,-1.9 -40.9,-20.1 -37.3,-18.2 -63.5,-38.8 -89.9,-72.6 z"
         style="fill:#000000"
         id="path9171" />
      <path
         inkscape:connector-curvature="0"
         d="m 109.5,644.2 c 0,0 69.4,69.7 108.9,78.1 0,0 -9.6,-7.1 -36.9,-22.9 -30.4,-17.6 -42.5,-30.2 -72,-55.2 z"
         style="fill:#000000"
         id="path9173" />
      <path
         inkscape:connector-curvature="0"
         d="m 86.7,598.8 c 0,0 76.3,90.3 120.1,105.5 0,0 -20.7,-14.3 -49.2,-36.7 -24.2,-18.9 -70.9,-68.8 -70.9,-68.8 z"
         style="fill:#000000"
         id="path9175" />
      <path
         inkscape:connector-curvature="0"
         d="m 90.4,585.8 c 0,0 64.7,82.3 112.8,104.9 0,0 -12.9,-9.9 -37.5,-30.4 -24.6,-20.5 -50.2,-47.2 -75.3,-74.5 z"
         style="fill:#000000"
         id="path9177" />
      <path
         inkscape:connector-curvature="0"
         d="m 97.4,562.7 c 0,0 30.3,58 96.2,107.2 0,0 -18.4,-15.8 -36.6,-35.4 -18.2,-19.6 -37.1,-35.1 -59.6,-71.8 z"
         style="fill:#000000"
         id="path9179" />
      <g
         id="g9192">
        <linearGradient
           id="SVGID_16_"
           gradientUnits="userSpaceOnUse"
           x1="249.2355"
           y1="504.97891"
           x2="267.897"
           y2="504.97891"
           gradientTransform="matrix(0.6794,-0.7338,0.7338,0.6794,-405.8327,434.1327)">
          <stop
             offset="0"
             style="stop-color:#54B948"
             id="stop9181" />
          <stop
             offset="0.3764"
             style="stop-color:#00A651"
             id="stop9183" />
          <stop
             offset="1"
             style="stop-color:#005826"
             id="stop9185" />
        </linearGradient>
        <path
           inkscape:connector-curvature="0"
           d="m 100.5,537.9 c 0,0 41.6,69.2 80.1,98.8 0,0 -15.9,-24 -29.7,-39.5 -13.8,-15.5 -35.4,-36.3 -50.4,-59.3 z"
           style="fill:#000000"
           id="path9188" />
        <path
           inkscape:connector-curvature="0"
           d="m 100.5,537.9 c 0,0 41.6,69.2 80.1,98.8 0,0 -18.7,-18.2 -32.7,-36.1 -12.7,-16.3 -32.4,-39.7 -47.4,-62.7 z"
           style="fill:#000000"
           id="path9190" />
      </g>
      <g
         id="g9205">
        <linearGradient
           id="SVGID_17_"
           gradientUnits="userSpaceOnUse"
           x1="261.92249"
           y1="491.1781"
           x2="293.5636"
           y2="491.1781"
           gradientTransform="matrix(0.6794,-0.7338,0.7338,0.6794,-405.8327,434.1327)">
          <stop
             offset="0"
             style="stop-color:#54B948"
             id="stop9194" />
          <stop
             offset="0.3764"
             style="stop-color:#00A651"
             id="stop9196" />
          <stop
             offset="1"
             style="stop-color:#005826"
             id="stop9198" />
        </linearGradient>
        <path
           inkscape:connector-curvature="0"
           d="m 114.3,515.6 c 0,0 20.4,61.9 58,96.8 0,0 -3.4,-7.2 -14.7,-24.9 -11.3,-17.7 -30.2,-37 -43.3,-71.9 z"
           style="fill:#000000"
           id="path9201" />
        <path
           inkscape:connector-curvature="0"
           d="m 114.3,515.6 c 0,0 20.4,61.9 58,96.8 0,0 -8.3,-8.4 -19.6,-26.1 -11.3,-17.7 -25.3,-35.8 -38.4,-70.7 z"
           style="fill:#000000"
           id="path9203" />
      </g>
      <g
         id="g9218">
        <linearGradient
           id="SVGID_18_"
           gradientUnits="userSpaceOnUse"
           x1="-597.16931"
           y1="94.3386"
           x2="-578.50781"
           y2="94.3386"
           gradientTransform="matrix(-0.9975,-0.07095607,-0.07095607,0.9975,-404.5641,434.8991)">
          <stop
             offset="0"
             style="stop-color:#54B948"
             id="stop9207" />
          <stop
             offset="0.3764"
             style="stop-color:#00A651"
             id="stop9209" />
          <stop
             offset="1"
             style="stop-color:#005826"
             id="stop9211" />
        </linearGradient>
        <path
           inkscape:connector-curvature="0"
           d="m 170.3,507.2 c 0,0 16.9,79 9.1,126.9 0,0 -4.8,-28.4 -5.3,-49.1 -0.5,-20.7 0.9,-50.7 -3.8,-77.8 z"
           style="fill:#000000"
           id="path9214" />
        <path
           inkscape:connector-curvature="0"
           d="m 170.3,507.2 c 0,0 16.9,79 9.1,126.9 0,0 1.2,-26.1 -0.8,-48.7 -1.9,-20.6 -3.6,-51.1 -8.3,-78.2 z"
           style="fill:#000000"
           id="path9216" />
      </g>
      <g
         id="g9231">
        <linearGradient
           id="SVGID_19_"
           gradientUnits="userSpaceOnUse"
           x1="-490.08069"
           y1="29.7125"
           x2="-458.43951"
           y2="29.7125"
           gradientTransform="matrix(-1.1796,-0.2452,-0.2027,0.9752,-391.6209,399.2818)">
          <stop
             offset="0"
             style="stop-color:#54B948"
             id="stop9220" />
          <stop
             offset="0.3764"
             style="stop-color:#00A651"
             id="stop9222" />
          <stop
             offset="1"
             style="stop-color:#005826"
             id="stop9224" />
        </linearGradient>
        <path
           inkscape:connector-curvature="0"
           d="m 154.1,487.8 c 0,0 25.7,63.4 15.4,113.4 0,0 -2,-7.9 -4.2,-29 -2.2,-21.1 1.7,-47.8 -11.2,-84.4 z"
           style="fill:#000000"
           id="path9227" />
        <path
           inkscape:connector-curvature="0"
           d="m 154.1,487.8 c 0,0 25.7,63.4 15.4,113.4 0,0 1.8,-11.6 -0.4,-32.8 -2.2,-21.2 -2.1,-44 -15,-80.6 z"
           style="fill:#000000"
           id="path9229" />
      </g>
      <g
         id="g9244">
        <linearGradient
           id="SVGID_20_"
           gradientUnits="userSpaceOnUse"
           x1="267.897"
           y1="484.7525"
           x2="322.46051"
           y2="484.7525"
           gradientTransform="matrix(0.6794,-0.7338,0.7338,0.6794,-405.8327,434.1327)">
          <stop
             offset="0"
             style="stop-color:#54B948"
             id="stop9233" />
          <stop
             offset="0.3764"
             style="stop-color:#00A651"
             id="stop9235" />
          <stop
             offset="1"
             style="stop-color:#005826"
             id="stop9237" />
        </linearGradient>
        <path
           inkscape:connector-curvature="0"
           d="m 169.2,601.5 c 0,0 -28.7,-49 -37.6,-109.2 0,0 32.6,71 37.6,109.2 z"
           style="fill:#000000"
           id="path9240" />
        <path
           inkscape:connector-curvature="0"
           d="m 169.2,601.5 c 0,0 -28.7,-49 -37.6,-109.2 0,0 20.1,67.6 37.6,109.2 z"
           style="fill:#000000"
           id="path9242" />
      </g>
      <g
         id="g9257">
        <linearGradient
           id="SVGID_21_"
           gradientUnits="userSpaceOnUse"
           x1="-880.60181"
           y1="787.59662"
           x2="-815.69818"
           y2="787.59662"
           gradientTransform="matrix(-0.813,0.5823,0.5823,0.813,-780.3392,714.4459)">
          <stop
             offset="0"
             style="stop-color:#54B948"
             id="stop9246" />
          <stop
             offset="0.3764"
             style="stop-color:#00A651"
             id="stop9248" />
          <stop
             offset="1"
             style="stop-color:#005826"
             id="stop9250" />
        </linearGradient>
        <path
           inkscape:connector-curvature="0"
           d="m 359.2,904.6 c 0,0 19.7,-29.9 17.2,-87.5 0,0 -5.6,31.7 -11.4,48.5 -7,20 -6.2,36.8 -5.8,39 z"
           style="fill:#000000"
           id="path9253" />
        <path
           inkscape:connector-curvature="0"
           d="m 359.2,904.6 c 0,0 19.3,-27.2 17.3,-87.1 0,0 -2.7,34 -9,54.1 -4.2,13 -6.9,27.7 -8.3,33 z"
           style="fill:#000000"
           id="path9255" />
      </g>
      <g
         id="g9270">
        <linearGradient
           id="SVGID_22_"
           gradientUnits="userSpaceOnUse"
           x1="-901.17889"
           y1="748.00818"
           x2="-814.51221"
           y2="748.00818"
           gradientTransform="matrix(-0.813,0.5823,0.5823,0.813,-780.3392,714.4459)">
          <stop
             offset="0"
             style="stop-color:#54B948"
             id="stop9259" />
          <stop
             offset="0.3764"
             style="stop-color:#00A651"
             id="stop9261" />
          <stop
             offset="1"
             style="stop-color:#005826"
             id="stop9263" />
        </linearGradient>
        <path
           inkscape:connector-curvature="0"
           d="m 347.6,890.4 c 0,0 28.1,-68.4 10.1,-134.7 0,0 8.3,36.3 -1.8,71.8 -10.2,35.7 -10.5,55.3 -8.3,62.9 z"
           style="fill:#000000"
           id="path9266" />
        <path
           inkscape:connector-curvature="0"
           d="m 347.6,890.8 c 0,0 28.1,-68.4 10.1,-134.7 0,0 8.4,26.3 0.3,77.2 -4.7,29.1 -7.3,42.1 -10.4,57.5 z"
           style="fill:#000000"
           id="path9268" />
      </g>
      <g
         id="g9283">
        <linearGradient
           id="SVGID_23_"
           gradientUnits="userSpaceOnUse"
           x1="-868.19757"
           y1="666.11719"
           x2="-797.53088"
           y2="666.11719"
           gradientTransform="matrix(-0.8699,0.4932,0.4932,0.8699,-717.2872,635.9059)">
          <stop
             offset="0"
             style="stop-color:#54B948"
             id="stop9272" />
          <stop
             offset="0.3764"
             style="stop-color:#00A651"
             id="stop9274" />
          <stop
             offset="1"
             style="stop-color:#005826"
             id="stop9276" />
        </linearGradient>
        <path
           inkscape:connector-curvature="0"
           d="m 337.2,878.7 c 0,0 30.2,-88 -2.8,-148.2 0,0 15.8,35.1 6.2,85.4 -9.5,50.1 -3.4,62.8 -3.4,62.8 z"
           style="fill:#000000"
           id="path9279" />
        <path
           inkscape:connector-curvature="0"
           d="m 337.2,879 c 0,0 30.2,-88.4 -2.8,-148.6 0,0 16.4,35.5 10,86.2 -5.1,40.1 -7.2,62.4 -7.2,62.4 z"
           style="fill:#000000"
           id="path9281" />
      </g>
      <g
         id="g9296">
        <linearGradient
           id="SVGID_24_"
           gradientUnits="userSpaceOnUse"
           x1="-847.12109"
           y1="624.41272"
           x2="-782.78778"
           y2="624.41272"
           gradientTransform="matrix(-0.8951,0.446,0.446,0.8951,-686.0966,601.3076)">
          <stop
             offset="0"
             style="stop-color:#54B948"
             id="stop9285" />
          <stop
             offset="0.3764"
             style="stop-color:#00A651"
             id="stop9287" />
          <stop
             offset="1"
             style="stop-color:#005826"
             id="stop9289" />
        </linearGradient>
        <path
           inkscape:connector-curvature="0"
           d="m 318.9,863.2 c 0,0 24.8,-72 5.7,-132.8 0,0 3.2,48.8 -4.1,86.8 -4.6,24.1 -1.6,46 -1.6,46 z"
           style="fill:#000000"
           id="path9292" />
        <path
           inkscape:connector-curvature="0"
           d="m 319,863.5 c 0,0 24.8,-72.3 5.7,-133.2 0,0 7.3,37 0.1,87.6 -2.8,19.4 -5.8,45.6 -5.8,45.6 z"
           style="fill:#000000"
           id="path9294" />
      </g>
      <g
         id="g9309">
        <linearGradient
           id="SVGID_25_"
           gradientUnits="userSpaceOnUse"
           x1="-849.87128"
           y1="607.46149"
           x2="-788.53802"
           y2="607.46149"
           gradientTransform="matrix(-0.88,0.475,0.475,0.88,-707.9734,624.7328)">
          <stop
             offset="0"
             style="stop-color:#54B948"
             id="stop9298" />
          <stop
             offset="0.3764"
             style="stop-color:#00A651"
             id="stop9300" />
          <stop
             offset="1"
             style="stop-color:#005826"
             id="stop9302" />
        </linearGradient>
        <path
           inkscape:connector-curvature="0"
           d="m 294.9,693.4 c 0,0 32.4,69.2 13.2,153.5 0,0 -7.7,-31.6 -3.9,-71.8 3.7,-40.1 -9.3,-81.7 -9.3,-81.7 z"
           style="fill:#000000"
           id="path9305" />
        <path
           inkscape:connector-curvature="0"
           d="m 294.9,693.4 c 0,0 32.5,69.6 13.2,153.9 0,0 0.8,-34.9 0.9,-68.6 0,-40.3 -14.1,-85.3 -14.1,-85.3 z"
           style="fill:#000000"
           id="path9307" />
      </g>
      <g
         id="g9322">
        <linearGradient
           id="SVGID_26_"
           gradientUnits="userSpaceOnUse"
           x1="-840.6239"
           y1="586.20172"
           x2="-784.6239"
           y2="586.20172"
           gradientTransform="matrix(-0.8829,0.4695,0.4695,0.8829,-706.2335,622.0685)">
          <stop
             offset="0"
             style="stop-color:#54B948"
             id="stop9311" />
          <stop
             offset="0.3764"
             style="stop-color:#00A651"
             id="stop9313" />
          <stop
             offset="1"
             style="stop-color:#005826"
             id="stop9315" />
        </linearGradient>
        <path
           inkscape:connector-curvature="0"
           d="m 279.6,685.6 c 0,0 30.2,57.5 13.7,145 0,0 -8,-29.2 -5.3,-55.5 2.6,-26.3 4,-52.7 -8.4,-89.5 z"
           style="fill:#000000"
           id="path9318" />
        <path
           inkscape:connector-curvature="0"
           d="m 279.6,685.6 c 0,0 30.2,57.5 13.7,145 0,0 -2.7,-28.4 -0.1,-54.8 2.7,-26.2 -1.2,-53.4 -13.6,-90.2 z"
           style="fill:#000000"
           id="path9320" />
      </g>
      <g
         id="g9335">
        <linearGradient
           id="SVGID_27_"
           gradientUnits="userSpaceOnUse"
           x1="-821.49908"
           y1="536.3551"
           x2="-772.49908"
           y2="536.3551"
           gradientTransform="matrix(-0.9072,0.4207,0.4207,0.9072,-676.3171,589.7834)">
          <stop
             offset="0"
             style="stop-color:#54B948"
             id="stop9324" />
          <stop
             offset="0.3764"
             style="stop-color:#00A651"
             id="stop9326" />
          <stop
             offset="1"
             style="stop-color:#005826"
             id="stop9328" />
        </linearGradient>
        <path
           inkscape:connector-curvature="0"
           d="m 267.7,672.7 c 0,0 32.5,79.7 9.4,136.7 0,0 -5,-24.7 -1.3,-61.1 3.7,-36.4 -8.1,-75.6 -8.1,-75.6 z"
           style="fill:#000000"
           id="path9331" />
        <path
           inkscape:connector-curvature="0"
           d="m 267.7,673.1 c 0,0 32.5,79.7 9.4,136.7 0,0 1.5,-16.2 3.6,-50.7 2.9,-46.2 -13,-86 -13,-86 z"
           style="fill:#000000"
           id="path9333" />
      </g>
      <g
         id="g9348">
        <linearGradient
           id="SVGID_28_"
           gradientUnits="userSpaceOnUse"
           x1="-834.40552"
           y1="467.2778"
           x2="-788.90552"
           y2="467.2778"
           gradientTransform="matrix(-0.9478,0.3188,0.3188,0.9478,-655.9698,539.6083)">
          <stop
             offset="0"
             style="stop-color:#54B948"
             id="stop9337" />
          <stop
             offset="0.3764"
             style="stop-color:#00A651"
             id="stop9339" />
          <stop
             offset="1"
             style="stop-color:#005826"
             id="stop9341" />
        </linearGradient>
        <path
           inkscape:connector-curvature="0"
           d="m 264,657.6 c 0,0 15.3,73.3 -3.5,132.4 0,0 -5.1,-21.5 0.4,-57.4 5.5,-36.1 4.7,-62.5 3.1,-75 z"
           style="fill:#000000"
           id="path9344" />
        <path
           inkscape:connector-curvature="0"
           d="m 264,657.9 c 0,0 15.3,73.3 -3.5,132.4 0,0 1.8,-24.2 5,-56.5 3.6,-36.2 0.1,-63.4 -1.5,-75.9 z"
           style="fill:#000000"
           id="path9346" />
      </g>
      <g
         id="g9361">
        <linearGradient
           id="SVGID_29_"
           gradientUnits="userSpaceOnUse"
           x1="-802.49408"
           y1="404.4552"
           x2="-759.49219"
           y2="404.4552"
           gradientTransform="matrix(-0.9694,0.2453,0.2453,0.9694,-605.6367,497.9318)">
          <stop
             offset="0"
             style="stop-color:#54B948"
             id="stop9350" />
          <stop
             offset="0.3764"
             style="stop-color:#00A651"
             id="stop9352" />
          <stop
             offset="1"
             style="stop-color:#005826"
             id="stop9354" />
        </linearGradient>
        <path
           inkscape:connector-curvature="0"
           d="m 254.9,627.4 c 0,0 20.8,78 -8.4,142.1 0,0 -2.6,-17.2 3.3,-41.4 5.9,-24.2 9.4,-63.3 5.1,-100.7 z"
           style="fill:#000000"
           id="path9357" />
        <path
           inkscape:connector-curvature="0"
           d="m 254.8,627.8 c 0,0 20.8,78 -8.4,142.1 0,0 1.8,-17 8,-41.1 8.6,-33.5 4.8,-63.6 0.4,-101 z"
           style="fill:#000000"
           id="path9359" />
      </g>
      <g
         id="g9374">
        <linearGradient
           id="SVGID_30_"
           gradientUnits="userSpaceOnUse"
           x1="-789.75677"
           y1="370.33179"
           x2="-749.20599"
           y2="370.33179"
           gradientTransform="matrix(-0.9732,0.2302,0.2302,0.9732,-596.031,490.48)">
          <stop
             offset="0"
             style="stop-color:#54B948"
             id="stop9363" />
          <stop
             offset="0.3764"
             style="stop-color:#00A651"
             id="stop9365" />
          <stop
             offset="1"
             style="stop-color:#005826"
             id="stop9367" />
        </linearGradient>
        <path
           inkscape:connector-curvature="0"
           d="m 239.6,592.7 c 0,0 25.7,95 -3.3,162.1 0,0 -2.4,-26.1 2.1,-44.7 4.6,-18.5 10.4,-64.7 1.2,-117.4 z"
           style="fill:#000000"
           id="path9370" />
        <path
           inkscape:connector-curvature="0"
           d="m 239.6,593.1 c 0,0 25.7,95 -3.3,162.1 0,0 3,-25.7 7.5,-44.3 4.6,-18.5 5,-65.2 -4.2,-117.8 z"
           style="fill:#000000"
           id="path9372" />
      </g>
      <g
         id="g9387">
        <linearGradient
           id="SVGID_31_"
           gradientUnits="userSpaceOnUse"
           x1="-747.19019"
           y1="320.42209"
           x2="-720.5545"
           y2="320.42209"
           gradientTransform="matrix(-0.9868,0.1617,0.1617,0.9868,-550.7617,458.8362)">
          <stop
             offset="0"
             style="stop-color:#54B948"
             id="stop9376" />
          <stop
             offset="0.3764"
             style="stop-color:#00A651"
             id="stop9378" />
          <stop
             offset="1"
             style="stop-color:#005826"
             id="stop9380" />
        </linearGradient>
        <path
           inkscape:connector-curvature="0"
           d="m 220.1,576.9 c 0,0 33.9,73.1 5.3,159.9 0,0 -4,-4.1 1.4,-45.2 5.4,-41.1 5.9,-66.5 -6.7,-114.7 z"
           style="fill:#000000"
           id="path9383" />
        <path
           inkscape:connector-curvature="0"
           d="m 220.1,576.9 c 0,0 33.8,73.5 5.2,160.3 0,0 0.4,-4.1 5.8,-45.2 5.4,-41.1 2.6,-74.6 -11,-115.1 z"
           style="fill:#000000"
           id="path9385" />
      </g>
      <g
         id="g9400">
        <linearGradient
           id="SVGID_32_"
           gradientUnits="userSpaceOnUse"
           x1="-728.1568"
           y1="304.19531"
           x2="-710.69171"
           y2="304.19531"
           gradientTransform="matrix(-0.9899,0.1414,0.1414,0.9899,-539.3928,451.1502)">
          <stop
             offset="0"
             style="stop-color:#54B948"
             id="stop9389" />
          <stop
             offset="0.3764"
             style="stop-color:#00A651"
             id="stop9391" />
          <stop
             offset="1"
             style="stop-color:#005826"
             id="stop9393" />
        </linearGradient>
        <path
           inkscape:connector-curvature="0"
           d="m 214.8,583.5 c 0,0 17.9,96.8 2.3,134 0,0 -5.5,-18.4 -2.2,-52.2 3.3,-33.8 3.7,-43.3 -0.1,-81.8 z"
           style="fill:#000000"
           id="path9396" />
        <path
           inkscape:connector-curvature="0"
           d="m 214.8,583.5 c 0,0 17.9,96.8 2.3,134 0,0 -0.4,-12 2.1,-43.4 2.8,-34.9 -0.6,-52.1 -4.4,-90.6 z"
           style="fill:#000000"
           id="path9398" />
      </g>
      <g
         id="g9413">
        <linearGradient
           id="SVGID_33_"
           gradientUnits="userSpaceOnUse"
           x1="-706.01801"
           y1="265.0199"
           x2="-696.4585"
           y2="265.0199"
           gradientTransform="matrix(-0.9938,0.1114,0.1114,0.9938,-521.5274,440.1482)">
          <stop
             offset="0"
             style="stop-color:#54B948"
             id="stop9402" />
          <stop
             offset="0.3764"
             style="stop-color:#00A651"
             id="stop9404" />
          <stop
             offset="1"
             style="stop-color:#005826"
             id="stop9406" />
        </linearGradient>
        <path
           inkscape:connector-curvature="0"
           d="m 195.4,546 c 0,0 27.5,115 13.7,159.3 0,0 -4.9,-38.8 -3.6,-69.5 1.3,-30.7 -10.1,-89.8 -10.1,-89.8 z"
           style="fill:#000000"
           id="path9409" />
        <path
           inkscape:connector-curvature="0"
           d="m 195.4,546 c 0,0 27.5,115 13.7,159.3 0,0 0.7,-25.2 -0.3,-61.4 C 207.9,613.2 195.4,546 195.4,546 Z"
           style="fill:#000000"
           id="path9411" />
      </g>
      <g
         id="g9426">
        <linearGradient
           id="SVGID_34_"
           gradientUnits="userSpaceOnUse"
           x1="-693.14587"
           y1="205.35539"
           x2="-685.09058"
           y2="205.35539"
           gradientTransform="matrix(-0.9964,0.08439438,0.08439438,0.9964,-516.5507,441.6334)">
          <stop
             offset="0"
             style="stop-color:#54B948"
             id="stop9415" />
          <stop
             offset="0.3764"
             style="stop-color:#00A651"
             id="stop9417" />
          <stop
             offset="1"
             style="stop-color:#005826"
             id="stop9419" />
        </linearGradient>
        <path
           inkscape:connector-curvature="0"
           d="m 177.6,511.6 c 0,0 25.1,101.7 13.4,153.5 0,0 -3.4,-16.5 -4.5,-48.5 -1.1,-32 -2.8,-68.3 -8.9,-105 z"
           style="fill:#000000"
           id="path9422" />
        <path
           inkscape:connector-curvature="0"
           d="m 177.6,511.6 c 0,0 25.1,101.7 13.4,153.5 0,0 0.1,-16.2 -0.9,-48.3 -1,-32.1 -6.4,-68.5 -12.5,-105.2 z"
           style="fill:#000000"
           id="path9424" />
      </g>
      <g
         id="g9439">
        <linearGradient
           id="SVGID_35_"
           gradientUnits="userSpaceOnUse"
           x1="283.76859"
           y1="557.46997"
           x2="237.1019"
           y2="607.30328"
           gradientTransform="matrix(0.6794,-0.7338,0.7338,0.6794,-405.8327,434.1327)">
          <stop
             offset="0"
             style="stop-color:#54B948"
             id="stop9428" />
          <stop
             offset="0.3764"
             style="stop-color:#00A651"
             id="stop9430" />
          <stop
             offset="1"
             style="stop-color:#005826"
             id="stop9432" />
        </linearGradient>
        <path
           inkscape:connector-curvature="0"
           d="m 187.5,544 c 0,0 21.7,63.1 12.9,144.9 0,0 -3.6,-24.2 -5.5,-50.8 -2,-26.7 4.1,-52.7 -7.4,-94.1 z"
           style="fill:#000000"
           id="path9435" />
        <path
           inkscape:connector-curvature="0"
           d="m 187.5,544 c 0,0 21.7,63.1 12.9,144.9 0,0 1,-25.6 -0.9,-52.3 -2,-26.7 -0.5,-51.2 -12,-92.6 z"
           style="fill:#000000"
           id="path9437" />
      </g>
      <linearGradient
         id="SVGID_36_"
         gradientUnits="userSpaceOnUse"
         x1="222.14951"
         y1="675.95001"
         x2="212.0276"
         y2="961.38849"
         gradientTransform="matrix(0.6794,-0.7338,0.7338,0.6794,-405.8327,434.1327)">
        <stop
           offset="0"
           style="stop-color:#54B948"
           id="stop9441" />
        <stop
           offset="0.3764"
           style="stop-color:#00A651"
           id="stop9443" />
        <stop
           offset="1"
           style="stop-color:#005826"
           id="stop9445" />
      </linearGradient>
      <path
         inkscape:connector-curvature="0"
         d="m 385.7,935.1 c 0,0 -180.3,-156 -216.8,-333.2 -0.5,-2.3 0.4,-3.4 0,-5.7 0,0 32.6,172.4 227.4,335.5 z"
         style="fill:#000000"
         id="path9448" />
    </g>
    <path
       inkscape:connector-curvature="0"
       d="m 30.725308,271.30429 c 0,0 1.139096,0.18713 1.969367,0.0976 0.830281,-0.0892 0.637893,-0.15056 0.911277,-0.46318 0.27338,-0.31283 0.07087,-0.14243 -0.258186,-0.19891 -0.329075,-0.0554 0.07593,-0.0615 0.425258,-0.1262 0.349324,-0.0651 0.754335,0.0231 1.007465,-0.25995 0.253161,-0.28854 0.577143,-0.78017 0.577143,-0.78017 l -2.900898,0.29231 -1.184659,0.39825 z"
       style="fill:#000000;stroke-width:0.04535713"
       id="path10378" />
    <path
       inkscape:connector-curvature="0"
       d="m 31.241699,270.43066 c 0,0 1.468165,-0.2273 2.38957,-0.32499 0.921395,-0.0977 1.346659,-0.11009 1.498544,-0.26371 0.151898,-0.15463 0.455662,-0.53662 0.192352,-0.42678 -0.26324,0.10917 -1.255534,0.21951 -1.037841,0.0855 0.217664,-0.12963 0.57714,-0.166 1.215037,-0.3866 0.637895,-0.21951 0.637895,-0.16254 0.870777,-0.47978 0.237939,-0.31704 -0.263301,-0.10138 -0.506268,-0.0143 -0.248078,0.0892 -0.212639,-0.0143 0.344259,-0.2686 0.556889,-0.2559 0.450572,-0.065 0.78977,-0.51996 0,0 -1.437793,0.27208 -2.799645,0.58485 -1.356786,0.31284 -2.379448,0.96313 -2.379448,0.96313 z"
       style="fill:#000000;stroke-width:0.04535713"
       id="path10387" />
    <path
       inkscape:connector-curvature="0"
       d="m 31.909973,269.42286 c 0,0 1.078342,-0.63798 2.556634,-0.88993 1.48335,-0.25158 1.690928,-0.31285 2.075678,-0.45525 0.384786,-0.13857 0.384786,-0.13857 0.516394,-0.33338 0.131621,-0.19099 -0.141759,-0.0615 -0.420221,0.0727 -0.278463,0.1341 -1.377042,0.35718 -1.776994,0.26371 -0.394867,-0.0933 -0.136699,-0.12593 0.187333,-0.24378 0.318949,-0.11722 1.280852,-0.14181 2.141503,-0.70703 0.860646,-0.56512 0.987218,-1.25163 0.987218,-1.25163 0,0 -1.265667,0.91434 -2.986963,0.98341 -1.721305,0.069 -2.500954,1.25564 -2.500954,1.25564 z"
       style="fill:#000000;stroke-width:0.04535713"
       id="path10396" />
    <path
       inkscape:connector-curvature="0"
       d="m 32.947811,267.90306 c 0,0 0.339196,-0.38567 1.670676,-0.61764 1.33147,-0.23222 2.693327,-0.48345 3.0629,-0.77205 0.369563,-0.2845 0.587268,-0.67861 0.475893,-0.69086 -0.111398,-0.0143 -1.549179,0.6583 -1.928871,0.62988 -0.379696,-0.0327 -0.339217,-0.0855 0.10126,-0.2559 0.440439,-0.17495 1.49854,-0.32546 1.913678,-0.63799 0.415135,-0.31283 0.582205,-0.84523 0.582205,-0.84523 l -2.040246,0.65826 -2.359199,0.0182 c 0,0 -0.313863,0.47549 -0.648012,0.88181 -0.334138,0.40624 -0.830277,1.63359 -0.830277,1.63359 z"
       style="fill:#000000;stroke-width:0.04535713"
       id="path10405" />
    <path
       inkscape:connector-curvature="0"
       d="m 33.909712,266.15571 c 0,0 0.567021,-0.36979 2.055438,-0.48351 1.488415,-0.11801 2.268066,-0.22326 2.617386,-0.60524 0.354392,-0.38195 0.308821,-0.47541 -0.05569,-0.30489 -0.364521,0.17047 -3.042649,0.54034 -2.971776,0.30489 0.07089,-0.24001 0.718898,-0.15055 1.893429,-0.35345 1.174537,-0.20362 1.609931,-0.20362 2.065568,-0.99154 0,0 -1.949127,-0.21143 -3.073031,-0.0183 -1.128968,0.19466 -1.037846,-0.0976 -1.528924,0.43888 -0.486017,0.53668 -1.002405,2.01559 -1.002405,2.01559 z"
       style="fill:#000000;stroke-width:0.04535713"
       id="path10414" />
    <path
       inkscape:connector-curvature="0"
       d="m 34.881744,264.36776 c 0,0 0.334125,-0.23569 2.18706,-0.33759 1.857995,-0.10138 2.237697,0.0422 2.521205,-0.41834 0.278435,-0.45944 0.420179,-0.63391 -0.08604,-0.43892 -0.506268,0.19912 -2.126311,0.34554 -1.989622,0.18692 0.13668,-0.15461 1.756742,-0.0892 2.237695,-0.62575 0.480945,-0.53667 0.617641,-1.13375 0.617641,-1.13375 0,0 -0.946719,0.59721 -2.708516,0.60523 l -1.483355,0.1788 c 0,0 -0.379696,0.18713 -0.835337,1.08497 -0.460703,0.89806 -0.460703,0.89806 -0.460703,0.89806 z"
       style="fill:#000000;stroke-width:0.04535713"
       id="path10423" />
    <path
       inkscape:connector-curvature="0"
       d="m 35.853774,262.62449 c 0,0 0.506261,-0.15829 1.944053,-0.21143 1.437792,-0.0554 2.101007,-0.11009 2.384507,-0.5082 0.283516,-0.39827 0.298686,-0.63796 0.09619,-0.49954 -0.20249,0.13776 -1.797241,0.28016 -1.432728,0.0892 0.364521,-0.19464 1.169471,-0.16254 1.458042,-0.46316 0.288544,-0.30024 0.364521,-0.78024 0.364521,-0.78024 0,0 -2.713572,0.13775 -3.488163,0.75579 -0.774589,0.62179 -1.326412,1.61738 -1.326412,1.61738 z"
       style="fill:#000000;stroke-width:0.04535713"
       id="path10432" />
    <path
       inkscape:connector-curvature="0"
       d="m 37.134616,261.09651 c 0,0 2.004816,-0.83309 3.452735,-0.60528 0,0 0.222778,-0.44264 -0.05571,-0.42674 -0.278463,0.0182 -1.468172,0.12619 -1.07834,-0.0555 0.389828,-0.18306 1.199841,-0.24377 1.377039,-0.51187 0.177194,-0.2686 0.394869,-0.66642 0.08101,-0.69489 -0.313861,-0.0327 -0.344255,-0.19465 0,-0.41415 0.344256,-0.21952 0.258217,-0.37402 0.323993,-0.96713 0,0 -2.652829,1.28411 -4.100754,3.67757 z"
       style="fill:#000000;stroke-width:0.04535713"
       id="path10441" />
    <path
       inkscape:connector-curvature="0"
       d="m 37.585198,258.21134 c -0.06071,0.20363 -0.243024,1.13376 0.09115,0.68675 0.339213,-0.45154 0.141759,-0.62578 1.179597,-0.92651 1.03784,-0.30022 1.02772,-0.38194 1.103658,-0.29231 0.0759,0.0896 -0.2278,0.47542 0.146778,0.19891 0.374652,-0.27641 0.906219,-0.43468 1.123902,-0.45522 0,0 -1.452977,0.82493 -2.364262,1.74737 -0.911265,0.91838 -1.847858,2.12119 -2.207309,2.48285 -0.359432,0.35722 -0.653078,-2.23901 -0.450572,-2.5682 0.202511,-0.32872 1.447919,-1.09723 1.377041,-0.87368 z"
       style="fill:#000000;stroke-width:0.04535713"
       id="path10450" />
    <path
       inkscape:connector-curvature="0"
       d="m 34.709611,260.14968 c 0,0 0.602463,-0.49586 0.749275,-0.64205 0.146778,-0.15055 0.07593,0.30489 0.136679,0.71117 0.06079,0.40623 0.248078,1.05652 0.364521,0.22732 0.116467,-0.82896 -0.05061,-1.16217 0.258214,-1.46697 0.313907,-0.30489 0.288544,-0.24781 0.475889,-0.32868 0.182233,-0.0809 0.03036,0.83712 0.187333,1.58486 0.156978,0.74765 0.2886,0.73551 0.121549,1.0443 -0.167055,0.30908 -1.382102,1.76766 -1.66562,2.19029 -0.278462,0.42302 -0.627767,-3.32 -0.627767,-3.32 z"
       style="fill:#000000;stroke-width:0.04535713"
       id="path10459" />
    <path
       inkscape:connector-curvature="0"
       d="m 35.524696,263.23801 c -0.05569,0.10916 -1.088463,2.1253 -1.331472,2.43819 -0.242995,0.31282 -0.329084,-2.43004 -0.653088,-3.10867 -0.324002,-0.67451 -0.526513,-0.53662 -0.344262,-0.768 0.263273,-0.33337 0.855593,-0.95906 0.860655,-0.82493 0.0053,0.13409 0.567019,2.56823 0.59739,1.98302 0.03036,-0.58547 -0.283516,-2.13337 -0.222776,-2.40562 0.06071,-0.27208 0.329084,-0.43891 0.465751,-0.55643 0,0 0.389824,0.86147 0.486014,1.72291 0.09619,0.86147 0.303776,1.1988 0.141759,1.51978 z"
       style="fill:#000000;stroke-width:0.04535713"
       id="path10468" />
    <path
       inkscape:connector-curvature="0"
       d="m 33.65152,266.61085 c 0,0 0.98721,-1.24754 0.835335,-1.86921 -0.151898,-0.62182 -1.068222,-3.22248 -1.027715,-3.25909 0.09619,-0.0933 -0.430329,0.34132 -0.430329,0.68266 0,0.34131 0.222748,1.32074 0.111385,1.20287 -0.111385,-0.11801 -0.182253,-1.08095 -0.329066,-0.92243 -0.146818,0.15462 -0.34932,0.21141 -0.48601,0.41836 -0.13668,0.20739 1.073279,3.82796 1.326413,3.74671 z"
       style="fill:#000000;stroke-width:0.04535713"
       id="path10477" />
    <path
       inkscape:connector-curvature="0"
       d="m 30.786061,271.219 0.98721,-1.43042 c 0,0 -0.425263,-1.7108 -1.473228,-2.04808 0,0 -0.07593,0.2559 0.06071,0.49956 0.13668,0.24436 0.663205,1.22725 0.546767,1.73521 -0.121523,0.50819 -0.51133,-0.82088 -0.779651,-0.52429 -0.27338,0.29693 0.506267,1.98704 0.658151,1.76764 z"
       style="fill:#000000;stroke-width:0.04535713"
       id="path10486" />
    <path
       inkscape:connector-curvature="0"
       d="m 33.59583,266.76116 c 0,0 -0.65815,1.33291 -0.911282,1.69458 -0.253103,0.36185 -1.361855,-3.01521 -1.361855,-3.01521 0,0 -0.02513,-0.51191 0.03036,-0.65833 0.05569,-0.1467 0.212635,-0.69079 0.288571,-0.28853 0.02513,0.12962 0.167096,0.90623 0.455635,1.31252 0.288572,0.40625 0.303755,0.49957 -0.05571,-1.06459 -0.359442,-1.56859 0.37465,-1.99531 0.37465,-1.99531 0,0 0.587261,2.19035 0.880893,2.72267 0.293637,0.5323 0.501201,0.89395 0.2987,1.29216 z"
       style="fill:#000000;stroke-width:0.04535713"
       id="path10495" />
    <path
       inkscape:connector-curvature="0"
       d="m 31.768214,269.78858 c 0,0 -0.465764,-1.70263 -1.473224,-2.04808 0,0 0.04045,-0.2559 0.344249,-0.14243 0.303767,0.11378 -0.258188,-0.46738 -0.20249,-0.66641 0.0557,-0.19912 0.263269,-0.77205 0.389823,-0.6583 0.126565,0.11378 0.69358,1.71888 0.865709,1.69858 0.172115,-0.0182 -0.546768,-1.3085 -0.754328,-1.9993 -0.207584,-0.69079 0.298684,-1.00773 0.415135,-1.19061 0,0 0.622699,1.74327 1.002403,2.63317 0.379702,0.88996 0.324005,1.0403 0.324005,1.0403 z"
       style="fill:#000000;stroke-width:0.04535713"
       id="path10504" />
    <path
       inkscape:connector-curvature="0"
       d="m 30.168415,269.41476 c 0,0 0.693587,1.32471 0.825214,1.49943 l -0.263269,0.38568 c 0,0 -0.946717,-1.29622 -0.794838,-1.54416 0.151877,-0.24377 0.207584,-0.39033 0.232885,-0.34131 z"
       style="fill:#000000;stroke-width:0.04535713"
       id="path10513" />
    <path
       inkscape:connector-curvature="0"
       d="m 41.23537,257.41894 c -0.951787,0.51194 -1.544113,0.98337 -2.151624,1.55232 -0.612585,0.56877 -1.159347,1.19059 -1.670674,1.82855 -0.511336,0.63806 -1.113786,1.27201 -1.57449,1.93842 -0.460708,0.6664 -0.810024,1.35318 -1.240348,2.0318 l -0.278464,0.52428 c -0.106329,0.17046 -0.212638,0.3413 -0.313862,0.51191 l -0.308823,0.51187 -0.308823,0.51194 -0.612587,1.02811 c -0.207582,0.34132 -0.410074,0.68267 -0.617639,1.02397 -0.415145,0.68275 -0.835343,1.36136 -1.265668,2.03186 -0.10629,0.16599 -0.217693,0.33756 -0.324008,0.50382 -0.111358,0.166 -0.222747,0.33338 -0.334131,0.49958 -0.111384,0.16601 -0.22783,0.33336 -0.339195,0.4958 -0.05571,0.0811 -0.116428,0.16255 -0.177195,0.24378 l -0.09111,0.11801 c -0.03036,0.0372 -0.06071,0.0817 -0.08607,0.11009 l -0.0049,0.007 c -0.06583,0.0817 -0.06078,0.18307 0.01503,0.22732 0.07593,0.0419 0.187333,0.0182 0.258186,-0.0651 0,0 0,-0.007 0,-0.007 0.0405,-0.0494 0.06583,-0.0892 0.101247,-0.12962 l 0.09112,-0.1262 c 0.06071,-0.0855 0.116427,-0.16599 0.177194,-0.25214 0.116427,-0.16601 0.227831,-0.33759 0.339196,-0.50822 0.111358,-0.17046 0.217693,-0.33761 0.329077,-0.50822 0.10633,-0.17046 0.21264,-0.3413 0.318951,-0.51185 0.4202,-0.68281 0.830271,-1.36543 1.235288,-2.05625 0.202512,-0.34553 0.399949,-0.68678 0.597389,-1.03218 l 0.592332,-1.03212 0.293635,-0.51622 0.298684,-0.51626 c 0.10126,-0.17047 0.20251,-0.34131 0.303775,-0.5119 l 0.268326,-0.52428 c 0.415132,-0.68271 0.754335,-1.36946 1.19478,-2.03996 0.445529,-0.6705 1.032787,-1.30436 1.533985,-1.94642 0.496136,-0.64206 1.027721,-1.27193 1.630169,-1.84493 0.597394,-0.56881 1.189727,-1.00775 2.121261,-1.57255 z"
       style="fill:#000000;stroke-width:0.04535713"
       id="path10522" />
    <g
       transform="matrix(0.06116959,0,0,0.04306408,-23.740637,241.17972)"
       id="g10626">
      <linearGradient
         id="SVGID_96_"
         gradientUnits="userSpaceOnUse"
         x1="676.23181"
         y1="780.95813"
         x2="738.42279"
         y2="780.95813"
         gradientTransform="matrix(0.9913,-0.1315,0.1315,0.9913,-86.0899,149.6173)">
        <stop
           offset="0"
           style="stop-color:#54B948"
           id="stop10615" />
        <stop
           offset="0.3764"
           style="stop-color:#00A651"
           id="stop10617" />
        <stop
           offset="1"
           style="stop-color:#005826"
           id="stop10619" />
      </linearGradient>
      <path
         inkscape:connector-curvature="0"
         d="m 695,895.1 c 0,0 14.8,-69 45.7,-128.6 -0.1,0 -13.2,95.6 -45.7,128.6 z"
         style="fill:#000000"
         id="path10622" />
      <path
         inkscape:connector-curvature="0"
         d="m 695,895.1 c 0,0 -16.2,-34.8 45.7,-128.6 -0.1,0 -32.8,90.4 -45.7,128.6 z"
         style="fill:#000000"
         id="path10624" />
    </g>
    <path
       inkscape:connector-curvature="0"
       d="m 18.98023,280.30773 c 0,0 -2.4162,-1.07237 -5.590903,-1.59769 -0.0061,0 2.905556,1.64503 5.590903,1.59769 z"
       style="fill:#000000;stroke-width:0.05132458"
       id="path10635" />
    <path
       inkscape:connector-curvature="0"
       d="m 18.98023,280.30773 c 0,0 0.201855,-1.0551 -5.590903,-1.59769 -0.0061,0 3.963789,1.11107 5.590903,1.59769 z"
       style="fill:#000000;stroke-width:0.05132458"
       id="path10637" />
    <path
       inkscape:connector-curvature="0"
       d="m 17.793538,278.94687 c 0,0 -2.899438,-2.03688 -6.398341,-3.38482 0,-0.007 3.609009,2.98433 6.398341,3.38482 z"
       style="fill:#000000;stroke-width:0.05132458"
       id="path10646" />
    <path
       inkscape:connector-curvature="0"
       d="m 17.793538,278.94687 c 0,0 -0.159028,-1.55885 -6.398341,-3.38482 0,-0.007 4.532666,2.36425 6.398341,3.38482 z"
       style="fill:#000000;stroke-width:0.05132458"
       id="path10648" />
    <path
       inkscape:connector-curvature="0"
       d="m 16.668018,276.84971 c 0,0 -2.826038,-2.26524 -6.116963,-3.84565 0,0 3.566189,3.2858 6.116963,3.84565 z"
       style="fill:#000000;stroke-width:0.05132458"
       id="path10657" />
    <path
       inkscape:connector-curvature="0"
       d="m 16.668018,276.84971 c 0,0 -0.305849,-1.62785 -6.116963,-3.84565 0,0 4.330809,2.69148 6.116963,3.84565 z"
       style="fill:#000000;stroke-width:0.05132458"
       id="path10659" />
    <path
       inkscape:connector-curvature="0"
       d="m 16.141958,275.33381 c 0,0 -2.948373,-2.5451 -6.3249385,-4.36674 0,0 3.7558165,3.67776 6.3249385,4.36674 z"
       style="fill:#000000;stroke-width:0.05132458"
       id="path10668" />
    <path
       inkscape:connector-curvature="0"
       d="m 16.141958,275.33381 c 0,0 -0.415951,-1.76992 -6.3249385,-4.36674 0,0 4.4776175,3.06192 6.3249385,4.36674 z"
       style="fill:#000000;stroke-width:0.05132458"
       id="path10670" />
    <path
       inkscape:connector-curvature="0"
       d="m 15.609784,274.14518 c 0,0 -2.324447,-2.84649 -5.236122,-5.02983 0,0 2.862739,4.05661 5.236122,5.02983 z"
       style="fill:#000000;stroke-width:0.05132458"
       id="path10679" />
    <path
       inkscape:connector-curvature="0"
       d="m 15.609784,274.14518 c 0,0 0,-1.79574 -5.236122,-5.02983 0,0 3.712998,3.53122 5.236122,5.02983 z"
       style="fill:#000000;stroke-width:0.05132458"
       id="path10681" />
    <path
       inkscape:connector-curvature="0"
       d="m 14.91245,271.72073 c 0,0 -2.660879,-2.89392 -6.0863781,-5.06863 0,-0.007 3.2358741,4.13414 6.0863781,5.06863 z"
       style="fill:#000000;stroke-width:0.05132458"
       id="path10690" />
    <path
       inkscape:connector-curvature="0"
       d="m 14.91245,271.72073 c 0,0 0.122328,-1.87325 -6.0863781,-5.06863 0,-0.007 4.3185761,3.55274 6.0863781,5.06863 z"
       style="fill:#000000;stroke-width:0.05132458"
       id="path10692" />
    <path
       inkscape:connector-curvature="0"
       d="m 14.698355,270.68717 c 0,0 -1.260093,-3.33312 -3.553955,-6.14955 0,0 1.253978,4.64232 3.553955,6.14955 z"
       style="fill:#000000;stroke-width:0.05132458"
       id="path10701" />
    <path
       inkscape:connector-curvature="0"
       d="m 14.698355,270.68717 c 0,0 0.942013,-1.75699 -3.553955,-6.14955 0,0 2.538542,4.32367 3.553955,6.14955 z"
       style="fill:#000000;stroke-width:0.05132458"
       id="path10703" />
    <path
       inkscape:connector-curvature="0"
       d="m 14.692239,268.46078 c 0,0 -0.795207,-3.19966 -2.324444,-5.89118 -0.0061,-0.007 0.752384,4.46147 2.324444,5.89118 z"
       style="fill:#000000;stroke-width:0.05132458"
       id="path10712" />
    <path
       inkscape:connector-curvature="0"
       d="m 14.692239,268.46078 c 0,0 0.709568,-1.70968 -2.324444,-5.89118 -0.0061,-0.007 1.657695,4.13847 2.324444,5.89118 z"
       style="fill:#000000;stroke-width:0.05132458"
       id="path10714" />
    <path
       inkscape:connector-curvature="0"
       d="m 17.818007,278.42578 c 0,0 0.734034,-2.86804 2.342799,-5.33561 0,0 -0.630051,3.98343 -2.342799,5.33561 z"
       style="fill:#000000;stroke-width:0.05132458"
       id="path10734" />
    <path
       inkscape:connector-curvature="0"
       d="m 17.818007,278.42578 c 0,0 -0.893079,-1.45987 2.342799,-5.33561 0,0 -1.676051,3.75519 -2.342799,5.33561 z"
       style="fill:#000000;stroke-width:0.05132458"
       id="path10736" />
    <path
       inkscape:connector-curvature="0"
       d="m 17.139023,276.96161 c 0,0 1.125522,-2.8035 3.064598,-5.1504 0,0 -1.168338,3.91873 -3.064598,5.1504 z"
       style="fill:#000000;stroke-width:0.05132458"
       id="path10745" />
    <path
       inkscape:connector-curvature="0"
       d="m 17.139023,276.96161 c 0,0 -0.691215,-1.51582 3.064598,-5.1504 0,0 -2.183753,3.62165 -3.064598,5.1504 z"
       style="fill:#000000;stroke-width:0.05132458"
       id="path10747" />
    <path
       inkscape:connector-curvature="0"
       d="m 16.490626,275.88503 c 0,0 0.935896,-2.70013 2.569122,-4.95668 0,0 -0.972594,3.77244 -2.569122,4.95668 z"
       style="fill:#000000;stroke-width:0.05132458"
       id="path10756" />
    <path
       inkscape:connector-curvature="0"
       d="m 16.490626,275.88503 c 0,0 -0.593345,-1.45988 2.569122,-4.95668 0,0 -1.835086,3.48388 -2.569122,4.95668 z"
       style="fill:#000000;stroke-width:0.05132458"
       id="path10758" />
    <path
       inkscape:connector-curvature="0"
       d="m 15.970683,274.27011 c 0,0 1.455839,-2.8293 3.529487,-5.11599 0,-0.007 -1.694397,3.98341 -3.529487,5.11599 z"
       style="fill:#000000;stroke-width:0.05132458"
       id="path10767" />
    <path
       inkscape:connector-curvature="0"
       d="m 15.970683,274.27011 c 0,0 -0.318081,-1.63212 3.529487,-5.11599 0,-0.007 -2.507953,3.59158 -3.529487,5.11599 z"
       style="fill:#000000;stroke-width:0.05132458"
       id="path10769" />
    <path
       inkscape:connector-curvature="0"
       d="m 15.481326,273.01697 c 0,0 1.455839,-2.8293 3.52949,-5.11602 0,-0.007 -1.6944,3.98343 -3.52949,5.11602 z"
       style="fill:#000000;stroke-width:0.05132458"
       id="path10778" />
    <path
       inkscape:connector-curvature="0"
       d="m 15.481326,273.01697 c 0,0 -0.318081,-1.63213 3.52949,-5.11602 0,-0.007 -2.507956,3.59158 -3.52949,5.11602 z"
       style="fill:#000000;stroke-width:0.05132458"
       id="path10780" />
    <path
       inkscape:connector-curvature="0"
       d="m 15.065374,271.13934 c 0,0 1.455836,-2.82928 3.529487,-5.116 0,0 -1.6944,3.98346 -3.529487,5.116 z"
       style="fill:#000000;stroke-width:0.05132458"
       id="path10789" />
    <path
       inkscape:connector-curvature="0"
       d="m 15.065374,271.13934 c 0,0 -0.318081,-1.6321 3.529487,-5.116 0,0 -2.507955,3.59151 -3.529487,5.116 z"
       style="fill:#000000;stroke-width:0.05132458"
       id="path10791" />
    <path
       inkscape:connector-curvature="0"
       d="m 14.765642,268.72347 c 0,0 1.461955,-2.58814 3.566189,-4.67247 0,0 -1.68828,3.64755 -3.566189,4.67247 z"
       style="fill:#000000;stroke-width:0.05132458"
       id="path10800" />
    <path
       inkscape:connector-curvature="0"
       d="m 14.765642,268.72347 c 0,0 -0.354781,-1.49862 3.566189,-4.67247 0,0 -2.532422,3.28148 -3.566189,4.67247 z"
       style="fill:#000000;stroke-width:0.05132458"
       id="path10802" />
    <path
       inkscape:connector-curvature="0"
       d="m 14.753409,266.67795 c 0,0 1.321264,-2.34274 3.223639,-4.22887 0,0 -1.523124,3.30299 -3.223639,4.22887 z"
       style="fill:#000000;stroke-width:0.05132458"
       id="path10811" />
    <path
       inkscape:connector-curvature="0"
       d="m 14.753409,266.67795 c 0,0 -0.318082,-1.35657 3.223639,-4.22887 0,0 -2.287745,2.97132 -3.223639,4.22887 z"
       style="fill:#000000;stroke-width:0.05132458"
       id="path10813" />
    <path
       inkscape:connector-curvature="0"
       d="m 14.86963,266.01476 c 0,0 -0.721801,2.71306 0.07953,5.95144 0.80132,3.23847 2.856621,8.27692 5.077076,9.47843 0,0 0.513821,-0.1335 0.116216,-0.40482 -0.403718,-0.27583 -1.81062,-1.66227 -2.660875,-3.46663 -0.850259,-1.8087 -1.847324,-3.59154 -2.208225,-5.90843 -0.360897,-2.31684 -0.403718,-5.64999 -0.403722,-5.64999 z"
       style="fill:#000000;stroke-width:0.05132458"
       id="path10822" />
    <text
       xml:space="preserve"
       style="font-style:normal;font-variant:normal;font-weight:normal;font-stretch:normal;font-size:4.84329128px;line-height:1.25;font-family:Webdings;-inkscape-font-specification:Webdings;letter-spacing:0px;word-spacing:0px;fill:#000000;fill-opacity:1;stroke:none;stroke-width:0.12108227"
       x="14.404502"
       y="258.61377"
       id="text11801"><tspan
         sodipodi:role="line"
         id="tspan11799"
         x="14.404502"
         y="258.61377"
         style="font-style:normal;font-variant:normal;font-weight:normal;font-stretch:normal;font-size:7.74926662px;font-family:'Palatino Linotype';-inkscape-font-specification:'Palatino Linotype';stroke-width:0.12108227">ELLY</tspan></text>
  </g>
</svg>
