<?xml version="1.0" encoding="utf-8"?>
<svg id="master-artboard" viewBox="0 0 1096 780" version="1.1" xmlns="http://www.w3.org/2000/svg" x="0px" y="0px" style="enable-background:new 0 0 1096 780;" width="1096px" height="780px">

<path d="M348,178.6c3.2,3.9,6.1,8.2,11.3,10c2.8,1.6,5.4,3.6,8.8,3.9c0,0,0,0,0,0c5.6,2.6,11.6,3.2,17.6,4.1&#10;&#9;c5.8,0.8,11.2,0.5,16.8-0.6c0.7-0.1,1.4,0.3,2.1,0.4l0,0c0,0.7,0.2,1.2,1,1.2h0c0,0.4,0.1,0.7,0.1,1.1c0,0,0,0,0,0&#10;&#9;c0.3,2.2,1.7,3.7,3.4,4.9c0,0,0,0,0,0l0,0c0.3,1.9-0.8,4,1.1,5.5l0,0l0,0c0.3,0.6,0.7,1.2,1,1.8l0,0c0,0.1,0,0.3,0.1,0.4&#10;&#9;c0.1,1.1,0.8,1.7,1.7,2.2l0,0l0,0l0,0c0.9,0.8,1.4,1.8,1,3.1c-0.2,0.7-0.3,1.5,0.6,1.9l0,0c0.5,0.6,1,1.2,1.5,1.7l0,0&#10;&#9;c0.3,1.2,1.1,1.9,2.2,2.3l0,0c3.1,1.4,4.9,4.3,7.7,6c0,0,0,0,0,0c0.7,1,1.8,1.4,2.9,1.6c2.2,0.6,4.4,1.1,6.6,1.7v0&#10;&#9;c2,0.8,4,0.9,6.1,1.2c0.6,0.6,1.4,0.4,2.2,0.5c0,0,0,0,0,0c1.7,1.2,3.6,1.3,5.6,1.1c1.1,0,2.2,0,3.2,0c0.2-0.1,0.4-0.2,0.7-0.3&#10;&#9;c0,0,0,0,0,0c1.7-0.4,1.5,1.7,2.7,1.9l0,0l0,0c0.9,0.8,0.6,2.5,2.1,3c0,0,0,0,0,0c1.6,8.7,3.6,17.4,2.3,26.4l0,0c0,0.4,0,0.8,0,1.2&#10;&#9;l0,0c-0.8,0.9-0.6,1.8-0.1,2.8c-0.1,0.2-0.1,0.3,0,0.5l0,0c-0.7,2.6-0.6,5.3-1.6,7.8l0,0v0l0,0c-0.2,0.2-0.2,0.3-0.2,0.5&#10;&#9;c-0.8,1.7-0.8,3.6-1,5.5c0,0,0,0,0,0c-1.3,3-0.7,6.4-1.3,9.5c-1,5.2-2.2,10.4-3.3,15.6c-0.1,0.7-0.2,1.4-0.2,2.2&#10;&#9;c-0.8,3.3-1.6,6.7-2.3,10.1c-0.3,1.4-1.6,2.2-1.7,3.6c0,0,0,0,0,0c-0.6,1.3-1.1,2.6-1.7,4c-1.2,1.6-0.7,3.5-1,5.2&#10;&#9;c-0.4,2.1-0.1,4.3-0.1,6.4c0,0.7,0,1.5,0,2.2c0,3,0.2,5.9,2.2,8.3l0,0c0.3,1.7,1.3,3,2.8,3.8c0.2,0.2,0.3,0.4,0.5,0.6l0,0&#10;&#9;c0.8,2.1,1.7,4.1,2.5,6.2c0,0.2,0.1,0.3,0.2,0.5c0.9,3.4,0.9,6.8-0.3,10.2c-0.3,0.9-0.3,2-0.4,3c-0.6,1.1-1.4,2.1-1.6,3.3h0&#10;&#9;c-0.6,0.8-0.2,1.3,0.5,1.7l0,0c1.1,1,1.5,2.8,3.4,2.7c1.5,0.2,3,0.3,4.4,0.5v0l0,0c0.4,0,0.7,0,1.1,0v0c1.1,0,2.2,0,3.3,0&#10;&#9;c1.7,0.6,3.3,0.9,5,0l0,0h0l0,0c0,0,0,0,0,0c1.5-0.3,2.5-1.4,3.4-2.6l0,0c1.4-0.7,2.3-1.9,3.4-2.9c0.2-0.2,0.3-0.4,0.5-0.6&#10;&#9;c0-0.3,0-0.5,0-0.7c0.1,0.1,0.1,0.3,0,0.7c0.4-0.5,0.7-1.1,1.1-1.6c2-2.3,4.4-4.4,5.7-7.2c2.1-2,0.7-3.5-0.6-5.1l0,0&#10;&#9;c-0.1-0.7-0.5-1.2-1.1-1.7c-0.6-1.6-1.7-2.8-3.4-3.3c-4.7-3.4-6.8-8-6-13.8v0c1.1-0.7,0.1-1.4,0-2.1c1.6-1.6,0.9-4,2.2-5.7&#10;&#9;c1.6-4.2,3.2-8.5,4.9-12.7l0,0c1.2-2.6,2.4-5.2,3.5-7.7l0,0c0.9-1.6,1.8-3.2,2.7-4.8c0,0,0,0,0,0c0.7-1.3,1.5-2.7,2.2-4l0,0&#10;&#9;c0.7-1.1,1.5-2.2,2.2-3.3c0,0,0,0,0,0c0.3-0.8,0.7-1.5,1-2.3c1.2-0.8,0.9-2.1,1.1-3.3v0c2.5-0.5,1,2.1,2.1,2.7&#10;&#9;c0,1.2-0.1,2.4,0.6,3.5c0.6,6.3,0,12.6,1.7,18.8c2.2,5.5,0,11,0,16.5c0,0,0,0,0,0c-0.6,1.6-1,3.2-1.1,5l0,0&#10;&#9;c-0.3,0.4-0.2,0.8,0.1,1.1v0c0.2,1.3-0.5,2.7,0.6,3.8v0c0.2,0.1,0.3,0.2,0.5,0.3v0c0,1.2-0.5,2.5,0.5,3.6c2.4,4.1,2.9,8.2,0.6,12.5&#10;&#9;c0,0,0,0,0,0c-1.6,3-1.7,6.5-3.3,9.6l0,0c-1.2,0.6-1.2,1.8-1.6,2.8l0,0c-0.8,0.8-1.2,1.7-1,2.8c-0.2,0.2-0.4,0.4-0.5,0.6l0,0l0,0&#10;&#9;c-0.9,0.3-1.4,0.8-1.7,1.7c-0.1,0.2-0.1,0.3,0,0.5c-2.4,2.5-2.1,6.9,0.5,8.3l0,0v0c0.9,0,1.9,0,2.8,0c0.5,0.2,1,0.4,1.6,0.5&#10;&#9;c3.1,2.1,6.6,0.8,9.9,1.1c2.3,0.7,4.5,0.3,6.8,0l0,0c1.1,0,2.2-0.1,3.3-0.1c0,0,0,0,0,0c0,0,0,0,0,0c3.1,0,6.4,0.6,8.9-2.2&#10;&#9;c0.6-1.1,1.2-2.2,1.8-3.2c0.6-0.6,1.1-1.3,1-2.2c0,0,0,0,0,0c0.7-1,0.6-2.2,0.6-3.4c0,0,0,0,0,0c0.9-1.3,0.5-2.7,0-4&#10;&#9;c0.1-0.2,0.1-0.3,0-0.4c-0.7-2.5-1-5.1-2.7-7.3c0.1-0.8-0.3-1.4-0.6-2.1c0,0,0,0,0,0c0,0,0,0,0,0c-0.6-4.4-0.4-8.8-0.4-13.2&#10;&#9;c-0.1-0.1-0.2-0.1-0.2-0.2l0,0c0,0,0,0,0,0c0.1,0.1,0.2,0.1,0.2,0.2c1.6-1.5,0.9-3.5,0.9-5.2c-0.1-10.2,2.4-20,3.6-30&#10;&#9;c0.7-5.9,1.7-11.7,2.5-17.6c0.3-0.7,0.5-1.4,0.8-2l0,0c0.9-1.5,1.7-3,2.6-4.5v0v0c0.3-0.4,0.3-0.9,0.3-1.4c0.8-2.3,3-2.2,5.4-1.9&#10;&#9;c1.2,0.2,2.4,0,3.6,0c0.1,0.1,0.2,0.1,0.3,0.1c1.4,0.7,2.9,0.3,4.3,0.3c1.9,0,3.4,0.1,2.6,2.6c-0.1,0.5,0.2,1.1,0.7,1.4l0,0&#10;&#9;c1.3,2.6,2,5.5,3.9,7.7c1.8,1-0.3,3.5,1.7,4.4v0c0.2,0.7,0.3,1.5,0.5,2.2l0,0c0,0.9,0.1,1.8,0.1,2.7c0.7,3,0.2,6.3,2.2,8.9&#10;&#9;c1,0.7,0.2,2.1,1,2.9c1,4.6,0.3,9.2,0.6,13.7l0,0c-0.9,1.4-0.6,2.9-0.5,4.4l0,0c-0.2,1.5-0.4,2.9-0.5,4.4l0,0&#10;&#9;c-1.5,2.5-4.2,4.3-5,7.2l0,0c-2.1,2.1-2.1,5-2.8,7.7v0c-1.9,1.4-1.4,3-0.5,4.6c0.1,0.2,0.3,0.4,0.4,0.6l0,0v0c0.8,1.2,2.2,1,3.3,1.2&#10;&#9;l0,0c1.5,1.2,3.3,0.9,5.1,1c3.5,1.1,7,0.4,10.6,0.5c2.2,0,4.3-0.4,6.4-0.9c0.3,0,0.6-0.1,0.9-0.2c0.6,0.1,1.1,0.2,1.6-0.4l0,0&#10;&#9;c1.7-0.4,3.5-0.6,5-1.8v0c1.1-0.2,1.7-0.8,2.1-1.7l0,0c0.3-0.4,0.7-0.8,1-1.2l0,0v0c1.9-1.1,0.5-2.8,0.8-4.3l0,0&#10;&#9;c-0.6-3.3,1.1-6.8-0.7-10.1c-1-1.3-0.1-3.2-1.3-4.5c0,0,0,0,0,0c-0.8-6.8-1.2-13.6-0.7-20.4l0,0c0.9-1.1,0.5-2.6,1-3.9&#10;&#9;c1-2.9,2.3-5.6,2.3-8.8c0-0.9,0.6-1.2,1.1-1.8l0,0c1-0.7,0.5-1.4,0-2.1c0,0,0,0,0,0c0.6-0.9,1.3-1.7,1.1-2.9c0.9-1.6,0.1-3.6,1.5-5&#10;&#9;l0,0c0,0,0,0,0,0c1.4-0.7,2.1-1.8,2.2-3.4c1.4-0.9,0.9-3.3,2.8-3.8c0.7,0.9,1.5,1.8,2.2,2.8c0.5,1.8,1.7,3.1,2.7,4.5&#10;&#9;c0.3,0.7,0.8,1.3,1.5,1.7c1.6,2.4,2.9,5,4.1,7.7v0v0c0.2,0.2,0.3,0.4,0.5,0.6c0.5,1,0.2,2.3,1.2,3.2l0,0c0.4,0.6,0.8,1.2,1.1,1.8&#10;&#9;l0,0c1.1,3.5,2.3,6.9,5.2,9.4c1.3,1.2,1.7,3,2.4,4.5l0,0c0,0.8-0.3,1.6,0.4,2.2l0,0c0.7,2.6,1.2,5.2,2.4,7.7c2.2,4.3,1.3,8.9,0,13.3&#10;&#9;c-0.1,0.1-0.2,0.3-0.1,0.4c0,0,0,0,0,0c-2.4,2.5-4.3,5.2-5.4,8.4c-0.2,0.4-0.4,0.8-0.6,1.2v0c0,0,0,0,0,0c0,0.1-0.1,0.1-0.1,0.2&#10;&#9;c-1,2.4-0.5,5-1.5,7.4c0.4,0.9,0.8,1.8,1.1,2.6l0,0l0,0c1.9,2.2,4.3,1,6.6,1.2v0c0.7,0.2,1.5,0.4,2.2,0.6c0,0,0,0,0,0l0,0&#10;&#9;c0.7,0.8,1.6,0.7,2.5,0.6c4.1-0.5,8.3,0,12.5-0.7c1.7-0.2,3.3-0.4,5-0.5l0,0c3-0.3,6.1-0.2,8.3-2.9l0,0c0,0,0,0,0,0&#10;&#9;c0.2-0.2,0.4-0.3,0.6-0.5l0,0l0,0c1.6-1.2,1.6-2.7,1.2-4.5c-0.5-2.5-0.2-5.2-1.2-7.6c-0.2-0.2-0.3-0.4-0.5-0.6c0,0,0,0,0,0&#10;&#9;c-0.4-2.7-1-5.3-2.3-7.7l0,0c-0.2-0.7-0.3-1.5-0.5-2.2c-0.4-2.6-0.8-5.1-1.2-7.7c0,0,0,0,0,0l0,0c-1-1.6,1-3.5-0.5-5&#10;&#9;c0.1-1.5,0-2.9-0.9-4.2c0-0.1-0.1-0.2-0.2-0.3c-0.5-1.7-1-3.4-1.6-5.1l0,0c-0.1-0.7,0.1-1.5-0.6-2.1c-0.8-5.8-0.6-11.7-0.5-17.5&#10;&#9;c0-1.5,0.3-3.1,0.5-4.6c0,0,0,0,0,0c-0.4-2.1-0.3-4.1,0.6-6c0.1-0.1,0.1-0.2,0.1-0.3c1.8-4.2,4.2-8.2,3.8-13c-0.1-1.2,0-2.4-0.6-3.4&#10;&#9;c0-0.7,0-1.4,0-2.1c-0.2-2.8,0-5.6,1-8.3h0c-0.1-0.4-0.3-0.7-0.4-1.1l0,0c0.4-3.4,0.1-6.8-0.5-10.1l0,0c0.2-0.3,0.7-0.6,0.1-1&#10;&#9;c0,0,0,0,0,0c0.1-0.5,0.5-0.5,0.9-0.5v0c0.5,0.8,1.1,1.5,1.6,2.3c0.3,0.6,0.3,1.4,1,1.8c0,0,0,0,0.1-0.1c0,0,0,0,0,0c0,0,0,0-0.1,0&#10;&#9;l0,0c0.1,0.7,0.6,1.1,1.1,1.6v0c0.2,1.2,0.3,2.5,1.7,2.9l0,0c-0.1,0.1,0,0.3,0.1,0.3c0.1,0.7,0.4,1.3,0.9,1.8h0&#10;&#9;c0.7,1.1,1.2,2.4,2.4,3.1c0.2,0.4,0.4,0.8,0.6,1.2h0c-0.1,0.9,0.5,1.6,1.1,2.2v0c0.7,0.9,1.4,1.9,2.2,2.8c0.4,1.2,1.2,2.1,2.3,2.7&#10;&#9;l0,0v0c0.2,0.2,0.3,0.4,0.5,0.6c0,1.6,1,2.5,2.1,3.4c2.4,3,4.5,6.4,8.4,7.8c2.9,1.8,5.1,4.4,7.7,6.6c0,0,0,0,0,0c1.3,2.3,3,4,5.8,4&#10;&#9;c0.1,0,0.3,0,0.5,0c0.2,0.1,0.3,0.3,0.5,0.4l0,0l0,0c0.4,0.9,1.1,1.3,2.1,1.3l0,0c0.4,0.7,1,1.5,1.9,1c1-0.5,0.3-1.3,0.1-2.1&#10;&#9;c-0.5-1.5-0.9-3.1-1.4-4.6c-0.5-0.9-1.1-1.9-1.6-2.8l0,0l0,0l0,0l0,0l0,0c-0.2-1.1,0-2.4-1.2-3.1c-0.3-0.3-0.6-0.5-0.9-0.8&#10;&#9;c0,0,0,0,0,0c-2.9-2-6.3-2.3-9.5-3.3c0,0,0,0,0,0l0,0h0l0,0l0,0c0,0,0,0,0,0c-1.9-1.4-4-2.6-4.9-5c-1-1.3-2-2.5-3-3.8l0,0&#10;&#9;c0,0,0,0,0,0c-1.2-2-1.8-4.3-3.3-6.1c-0.1-0.1-0.3-0.1-0.4-0.1v0c-0.4-0.5-0.8-1.1-1.2-1.6l0,0c-1.9-4.4-3.7-8.8-5.6-13.3&#10;&#9;c-1.4-1.9-2-4.2-2.7-6.4c-0.4-1.3-0.8-2.6-1.7-3.6l0,0c-0.7-0.8-0.6-2.1-1.7-2.7c-0.4-1.6-1.4-2.9-2.3-4.2&#10;&#9;c-1.6-3.5-4.2-6.4-5.5-10.1c-0.3-1.8-1.5-2.9-2.7-4l0,0c0-0.8-0.4-1.2-1-1.6c0,0,0,0,0,0c-1.3-2.3-3.2-4.2-5-6.2c0,0,0,0,0,0&#10;&#9;c-1.2-2.1-2.9-3.7-5-4.9c-0.5-1.5-1.7-2.4-2.9-3.2c-0.2-0.2-0.3-0.4-0.5-0.6c-0.2-0.2-0.4-0.3-0.6-0.5l0,0l0,0&#10;&#9;c-1.7-2.5-4.5-4.1-6.6-6.2l0,0c-0.9-1.1-1.8-2.3-3.3-2.7c0-0.2-0.1-0.3-0.2-0.4l0,0c-0.3-0.8-0.9-1.3-1.6-1.7l0,0&#10;&#9;c-0.5-0.8-1.1-1.5-2.1-1.7l0,0c-0.4-0.3-0.8-0.7-1.2-1v0l0,0c-2.1-2.8-4.8-4.8-7.7-6.7c-0.7-0.8-1.3-1.7-2.3-2.1l0,0h0&#10;&#9;c-0.5-0.8-1.4-0.9-2.1-1.3c-0.2-0.1-0.3-0.3-0.5-0.4c0,0,0,0,0,0c-1.3-1.1-2.8-2-4.5-2.2c-0.4-0.4-0.8-0.7-1.2-1.1l0,0&#10;&#9;c-0.1-0.2-0.3-0.4-0.4-0.6c0,0,0,0,0,0c-1.7-1.3-3.5-2.2-5.5-2.8c-0.3,0-0.6,0-1-0.1c0,0,0,0,0,0c-1.2-0.7-2.6-1.1-4-1.1&#10;&#9;c-0.8-0.3-1.5-0.7-2.3-1c0,0,0,0,0,0c0,0,0,0,0,0c-3.6-1.3-7.4-0.9-11.1-1.3c-1.8-0.2-4.2-0.7-6.1,0.7c-2.9-0.3-5.7,0.2-8.3,1.7&#10;&#9;c-2.1,0.7-4.3,1-6.2,2.1c0,0,0,0,0,0c-1.9,0.6-2.3-0.2-2.2-2c0.1-2.5,0.7-5.1-1-7.4c-0.4-1-0.7-1.9-1.1-2.9l0,0c0-0.4-0.1-0.8-0.4-1&#10;&#9;c-1.2-3.9-3.1-7.4-5.6-10.6l0,0c-0.3-1.1-0.7-2-1.7-2.7c-2.7-1.7-3.8-5.1-6.7-6.5v0c-0.2-0.1-0.3-0.1-0.5-0.1v0&#10;&#9;c-0.8-0.7-1.6-1.1-2.7-1.1c0,0,0,0,0,0c-2.1-0.9-4.2-0.3-6.2,0c-6.1,1-12.2,0.5-18.3,0.1c-4.5-0.6-8.9-0.9-13.3,0.5l0,0&#10;&#9;c-1.1,0-2.2,0.2-3,1.1c-1.3,1.4-3.2,1.1-4.8,1.7c-0.5,0-1.1,0-1.6,0v0c-0.7-0.2-1.4-0.4-2.2-0.6l0,0c-2.3-1.2-4.7-1.2-7.2-1.1&#10;&#9;c-5.3-1.8-10.7-1.1-16-0.8c-1.8,0.1-3.4-0.5-5.1-0.3c-0.8-0.5-1.7-0.6-2.6-0.6c0,0,0,0,0,0c-1.7-0.8-3.4-0.7-5.1,0.1&#10;&#9;c-0.2,0.1-0.4,0.2-0.5,0.3c0,0,0,0,0,0c-3.1-1.3-4,1.5-5.6,3c-1.4,1.2-3.3,1.7-4.5,3.3c0,0,0,0,0,0c-1.8,0.5-3.6,1-5.4,1.5&#10;&#9;c-0.2,0-0.4,0.1-0.7,0.2c-2.7,1.9-5.2,0.9-7.7-0.5v0c-0.5-0.4-1-0.8-1.5-1.1v0c-1.4-0.8-1-2.9-2.4-3.8l0,0h0&#10;&#9;c-0.5-1.1-1.1-2.2-1.6-3.3c-0.5-1.9-1-3.7-1.5-5.6l0,0c-0.1-3.5-0.1-7-0.2-10.5c0-0.2,0.1-0.3,0.1-0.5l0,0c0.4-0.4,0.2-0.8-0.1-1.1&#10;&#9;c0-0.7,0.1-1.4,0.1-2.1l0,0c0.9-1.2,0.3-2.6,0.6-3.9c0.6-0.6,1.2-1.4,0.6-2.1c-1-1.2,0.1-2,0.3-2.9c0-0.4,0-0.7,0-1.1&#10;&#9;c0-0.7,0.1-1.5,0.1-2.2l0,0c0-0.9-0.2-1.9,0.5-2.7c0.9-0.5,1.4-1.3,1-2.3c-0.4-0.9,0-1.6,0.7-2.2l0,0v0c0.1-0.1,0.2-0.3,0.2-0.4&#10;&#9;c1-2.3,1.2-4.8,0.9-7.3l0,0c0,0,0,0,0,0c0,0,0,0,0,0c-0.1-0.9,1.3-1.8,0-2.8c-0.2-0.2-0.4-0.4-0.5-0.6c0.8-2,0.2-4,0-6.1l0,0v0&#10;&#9;c-0.2-0.2-0.4-0.4-0.5-0.6c0-0.9,0-1.8,0-2.8c0.4-0.4,0.5-0.7,0.1-1.2c-0.4-0.5-0.8-1.1-1.2-1.6c0.3-0.6,0.4-1.1,0-1.7&#10;&#9;c-0.6-2.4-0.4-5.2-2.5-7.1c-0.3-1-0.6-2.1-1.4-2.9v0c-0.4-0.9-1.4-1.2-2.1-1.7l0,0c-0.5-1.8-2.2-2.3-3.5-3.2c0,0,0,0,0,0s0,0,0,0&#10;&#9;c-1.1-1.5-2.6-2.2-4.4-2.2c-1.9-1.7-4.2-2.3-6.6-2.2c-2.2-0.2-4.4-0.2-6.5-0.9c-2.2-0.7-3.9,0.3-5.3,2c-0.7,0.9-1.5,1.7-0.3,2.8l0,0&#10;&#9;c0.2,0.4,0.3,0.8,0.5,1.2c0.2,0.3,0.4,0.7,0.6,1c-1,6.8,2,8.5,8.9,5.6l0,0c1.7-0.2,2.9,0.4,3.7,1.8c0,0.1,0.1,0.2,0.1,0.3&#10;&#9;c0,0,0,0,0,0l0,0v0c1.2,1.1,0.7,2.8,1.6,4l0,0v0c0.2,0.4,0.4,0.7,0.6,1.1l0,0l0,0c0,0.4,0,0.7,0,1.1h0c-0.3,0.8-0.2,1.6,0.5,2.3&#10;&#9;c0.2,0.4,0.4,0.7,0.5,1.1l0,0c0,0.3,0,0.7,0,1c0,0,0,0,0,0c-0.4,0.3-0.6,0.7-0.5,1.1v0c0,0.2,0,0.4,0.1,0.6c0,0,0,0,0,0c0,0,0,0,0,0&#10;&#9;c0,0.9,0,1.8,0,2.8c0.4,1.5,0.5,2.9,0,4.4h0c0,1-0.9,1.8-0.6,2.8c-0.7,0.8-0.6,1.7-0.6,2.6c-1.1,1.5-2.3,3-2.2,5.1&#10;&#9;c-0.6,0.6-1.5,1.1-1.7,2.1c0,0,0,0.1,0,0.1c-0.3,0.9-0.6,1.9-0.9,2.8l0,0c-0.5,0.6-0.8,1.3-0.6,2.1c0,0,0,0,0,0&#10;&#9;c-0.4,0.8-1.1,1.3-1.1,2.3l0,0c-0.4,1.1-0.7,2.1-1.1,3.2c-0.8,1.2-1.1,2.5-1.1,3.9c0,0,0,0,0,0c-0.6,2.2-1.1,4.5-1,6.8l0,0l0,0&#10;&#9;c0,0.5,0,1.1,0,1.6c0,2.4,0,4.7,0,7.1c0,0,0,0,0,0c-0.4,0.7-1,1.4-0.6,2.4c0,0.4,0,0.7,0,1.1l0,0c-0.3,3.5-0.5,7,1.6,10.1&#10;&#9;c0,0,0,0,0,0v0l0,0l0,0c0,0.5,0.1,1,0.1,1.6c0,1,0.1,1.9,0.6,2.8c0.5,1.5,0.3,3.3,2.1,4.1c-0.2,1.5,0.8,2.5,1.5,3.7&#10;&#9;c0,0.1,0.1,0.3,0,0.4c-1.3,3.1,0.9,5.1,2.4,7.3c0,0,0,0,0,0c1.1,3.6,3.9,6,6.1,8.9c0.3,1.7-0.6,2.3-2.2,2.8&#10;&#9;c-4.2,1.4-8.5,1.8-12.9,1.6c-0.6,0-1.1,0-1.5,0.5l0,0h0c-6.4,0.5-12.6-0.7-18.8-2.2c0,0,0,0.1,0,0.1c0,0,0,0,0,0l0-0.1&#10;&#9;c-0.8-0.9-1.8-0.4-2.8-0.6l0,0c-2.1-1.4-4.3-2.5-6.6-3.3c-2.4-1.4-4.7-3-7.2-4.3c-1-0.5-2,0-2.2,1.3&#10;&#9;C347.6,177,347.5,177.9,348,178.6z M458,284L458,284C458,284,458,284,458,284C458,284,457.9,283.9,458,284&#10;&#9;C457.9,283.9,458,283.9,458,284z" transform="matrix(1, 0, 0, 1, 25.360822698337472, -22.69126241430193)"/>
<path d="M744.3,417.2c0.8,0,1.6-0.1,2.4-0.2c0-0.1,0-0.1,0-0.2c-0.9-0.1-1.8,0.1-2.6-0.3l0,0c-0.4,0-0.6-0.1-0.6-0.5&#10;&#9;c0-0.5,0.2-1,0.3-1.5v0l0,0c0-0.3,0.1-0.5,0.4-0.6l0,0v0c0.3-1,1-1.6,1.8-2.2c0.9-0.7,1.9-1.3,2.9-1.9c1.2-0.8,2.4-1.5,3.5-2.4&#10;&#9;c2.2-2,4.4-4,6.4-6.2h0c0.1-0.3,0.3-0.6,0.7-0.7l0,0c1-1,2-2,3-3c0.3-0.5,0.7-0.9,1.1-1.3c1.3-1.1,2.3-2.4,3.3-3.8&#10;&#9;c1.4-1.9,2.8-3.8,4.3-5.7c0.5-0.8,1.1-1.7,1.6-2.5c0.1-0.4,0.2-0.8,0.6-1l0,0c0.7-0.9,1.4-1.9,2.1-2.8c1.6-2.1,3.7-3.4,6.3-3.9&#10;&#9;c2-0.3,3.9-0.7,5.9-1l0,0v0c0.8-0.5,1.6-0.8,2.5-1l0,0c0.2-0.1,0.4-0.3,0.7-0.4c2.1-0.7,4.2-1.5,6.3-2.2c1.9-0.7,3.9-1.3,5.9-1.9&#10;&#9;c0.3-0.4,0.7-0.3,1-0.3v0l0,0c2.8-0.8,5.6-1.6,8.3-2.6c1.4-0.5,2.8-1,4.2-1.3c3.4-0.7,6.8-1.4,10.3-2.2c0.3-0.1,0.6,0,0.9-0.1&#10;&#9;c1.1-0.4,2.3-0.6,3.5-0.6c0.4-0.3,0.9-0.3,1.4-0.3c0.2-0.1,0.4-0.2,0.6-0.2c2.4-0.4,4.7-1.3,6.9-2.3c1.3-0.6,2.6-1.1,4-1.5&#10;&#9;c1.5-0.5,3.1-0.8,4.7-0.8c1.8-0.1,3.5,0.3,5.2,0.7h0c0.7,0.1,1.4,0.2,1.9,0.6c0.6,0.2,1.3,0.4,1.9,0.7c0.4,0.1,0.4,0.5,0.7,0.7&#10;&#9;c0.6-0.2,1.1,0.1,1.7,0.3c1,0.5,2.1,0.8,3.2,1c0.9,0.2,1.8,0.4,2.6,0.5c1.3,0.3,2.7,0.5,4,1.1c1.9,0.8,2.8,2.5,2.3,4.5&#10;&#9;c-0.2,0.7-0.5,1.4-0.7,2.1c-0.1,0.4-0.4,0.6-0.8,0.7c-0.9,0.3-1.8,0.6-2.7,0.9c0.2,0.2,0.4,0.3,0.6,0.3c0.2,0,0.4,0,0.6,0&#10;&#9;c0.1-0.1,0.2-0.1,0.2-0.1c0.2-0.2,0.4-0.3,0.7-0.2l0,0c0.1,0,0.2,0,0.3,0c0-0.1,0.2-0.2,0.2-0.1c0.1,0.2,0,0.4-0.2,0.5l0,0&#10;&#9;c0,0.1,0,0.2-0.1,0.2c0,0.3-0.1,0.5-0.3,0.7c0,0.1,0,0.1,0,0.2c-0.2,0.8-0.2,0.8-1.3,0.8c-0.3,0.3-0.7,0.2-1,0.3&#10;&#9;c0.2,0.2,0.4,0.3,0.7,0.3c0,0,0,0,0,0s0,0,0,0c0.3,0,0.5,0,0.8,0c0.3,0,0.4,0.3,0.4,0.5c0,0.1-0.1,0.3-0.2,0.4h0h0&#10;&#9;c0,0.5,0,1.1,0,1.6c0,0.9,0.4,1.8,1,2.4c0.2,0.2,0.4,0.4,0.7,0.7c1.7,1,3.4,0.9,5.2,0.1c0.7-0.3,1.4-0.7,2.1-1.1&#10;&#9;c0.9-0.6,1.8-1.2,2.6-1.8c1.4-1,2.8-2.1,4.2-3.2c1.9-1.5,3.9-2.5,6.3-2.8c0.2,0,0.4-0.1,0.6-0.1c-0.1-0.6-0.1-0.6,0.4-0.6&#10;&#9;c0.1,0,0.2,0,0.3,0c1.4,0,2.8,0,4.2,0c0.4,0,0.8-0.1,1.2,0.3c0.6,0.1,1.3-0.2,1.9,0.3c0.4,0,0.8,0,1.2,0.1l0,0&#10;&#9;c0.9,0.1,1.8,0.3,2.3,1.2l0,0c1.2,0.5,2.4,1.2,3.4,2.1c0.9,0.7,1.9,1.2,2.9,1.6c2.1,0.8,4,0.4,5.7-0.9c0.4-0.3,0.8-0.7,1.2-1&#10;&#9;c1.2-1.1,2.6-1.6,4.2-1.6c1.5,0,3.1-0.1,4.6,0c1.2,0,2.4,0.2,3.6,0.6c2.6,0.9,5.2,2,7.4,3.6c1.8,1.3,3.8,2.1,6,2.4&#10;&#9;c0.6,0.1,1.1,0.1,1.7-0.1l0,0c0.1-0.2,0.3-0.4,0.4-0.6l0,0v0c0.2-0.4,0.3-0.9,0.3-1.4c0-0.3,0-0.6,0.3-0.9l0,0&#10;&#9;c0.3-1.2,0.3-2.4,0.2-3.6c-0.2-1.6-0.5-3.2-0.5-4.9c0-1.4,0.5-2.6,1.3-3.7c0.9-1.1,1.9-2,3.1-2.7c0.2-0.1,0.5-0.2,0.7-0.4&#10;&#9;c0-0.2,0.1-0.3,0.3-0.3v0c0.7-0.1,1.3-0.7,2.1-0.6c0.2,0.5,0.3,1,0.5,1.6h0c0.4-0.2,0.2-0.7,0.3-1l0,0l0,0c0-1,0.1-1.2,1-1.2&#10;&#9;c0.6,0,1.2,0,1.7,0.1c1.7,0.3,3.4,0.5,5.2,0.8l0,0v0c0.4-0.1,0.7-0.1,1,0.3c0.5,0.2,1,0.4,1.6,0.4c0.4-0.1,0.7,0.2,1.1,0.4l0,0h0&#10;&#9;c1.7,0.5,3.5,1,5.2,1.4c2.7,0.6,5.5,1.3,8.3,1.4c0,0,0,0,0,0c0,0,0,0,0,0c0.4,0.1,0.4,0.4,0.4,0.7c0,0.5-0.2,1,0.3,1.5&#10;&#9;c0-0.5,0-1,0.1-1.6c0-0.3,0.2-0.5,0.5-0.5c0.4,0,0.7-0.1,1.1,0.2c0.2-0.1,0.5-0.2,0.7-0.3v0v0c0.8,0,1.5-0.3,2.2-0.5&#10;&#9;c0.4-0.1,0.8-0.2,1.2-0.2c2.1-0.1,4.1-0.2,6.2-0.3c1.8-0.1,3.5,0.1,5.2,0.5c1.7,0.5,3.5,0.9,5.2,1.4h0l0,0c0.4,0,0.6,0.2,0.7,0.6&#10;&#9;c0.1,0.5-0.2,1.1,0.3,1.6l0,0c0.1-0.4,0.2-0.8,0.2-1.2c0.1-0.3,0.3-0.4,0.6-0.4c0.9,0.2,1.8,0.4,2.7,0.7c0.5,0,0.9-0.1,1.3,0.3&#10;&#9;c1.2,0.5,2.6,0.4,3.8,0.7c0.9,0,1.7-0.1,2.5,0.2c0,0,0.1,0,0.1,0c2.3,0,4.7,0.3,6.9,0.9c1.8,0.4,3.6,1,5.4,1.4v0&#10;&#9;c0.6,0.1,1.2,0.2,1.6,0.6v0c0.6,0.4,1.3,0.4,1.8,0.9c0.1,0.1,0.3,0.3,0.4,0.4c0.4-0.1,0.7-0.1,1.1,0.1c0.5,0.3,1,0.5,1.5,0.8&#10;&#9;c4.9,2.8,9.5,6.2,13.9,9.7c2.6,2.1,5.1,4.4,7.5,6.6c0.3,0.1,0.4,0.3,0.4,0.6h0c0.3,0.2,0.8,0.3,0.9,0.7l0,0c1.1,1.2,2.2,2.4,3.3,3.6&#10;&#9;c1.2,1.3,2.3,2.6,3.1,4.2c1.3,2.4,3.1,4.5,5.3,6.3c0,0.2,0,0.3,0,0.4c0.1-0.1,0-0.2,0-0.4c0.5,0.3,1.3,1.1,1.7,1.6l0,0l0,0&#10;&#9;c0.7,1,1.8,1.8,2.4,2.9c-0.3,0.3-0.7,0.1-1,0.2c0,0,0,0,0,0c0,0,0,0,0,0c-0.4,0.2-1-0.1-1.3,0.3l0,0c0.5,0.1,1.1,0.3,1.6,0.2&#10;&#9;c1.4-0.2,2,0.6,2.6,1.7c0.3,0.6,0.6,1.1,0.8,1.7c0.3,0.6,0.3,1.2-0.1,1.8c-0.4,0.7-0.7,1.4-1.1,2.1c-0.5,1.1-0.5,2.1-0.1,3.2&#10;&#9;c0.2,0.4,0.3,0.9,0.5,1.3c0.3,0.8,0.3,1.6,0.3,2.3c0,0.3-0.1,0.5-0.3,0.7c-1.5,0.7-2,2.1-2.3,3.6v0v0c0.2,0.6-0.2,1.1-0.3,1.7v0v0&#10;&#9;c-0.3,1.2-0.8,2.2-2.2,2.5c-0.3,0.1-0.6,0.2-0.9,0.3c-0.5,0.4-0.5,1.1-0.8,1.7c-0.7,1.3-1.3,2.7-1.5,4.1c-0.2,1-0.7,1.8-1.5,2.3&#10;&#9;c-0.4,0.3-0.8,0.5-1.2,0.8c-0.9,0.8-1.9,1-3,0.3c0,0-0.1,0-0.1,0c0.2,1.5,0.2,1.5,0.9,2.4c0.6,0.9,0.9,1.8,0.7,2.8&#10;&#9;c-0.2,1.4-0.9,2.7-1.7,3.9c-0.2,0.4-0.6,0.5-0.9,0.7c-0.3,0.4-0.7,0.8-1,1.2c0,0.2-0.1,0.3-0.3,0.3c-0.2,0.1-0.4,0.2-0.6,0.3&#10;&#9;c-1,0.5-1.9,0.4-2.9-0.1c-0.4-0.2-0.8-0.4-1.2-0.7c-0.7-0.4-1.4-0.5-2.1-0.7c-0.4-0.1-0.7,0.1-0.9,0.4l0,0l0,0&#10;&#9;c0.1,0.6-0.5,0.7-0.7,1.1l0,0l0,0c0.1,0.4,0.3,0.8,0.5,1.1c0.5,0.7,0.8,1.5,1,2.3c0.6,2.1-0.2,4.1-2,5.2c-0.7,0.4-1.1,0.8-1.2,1.6&#10;&#9;c-0.1,0.4-0.2,0.7-0.3,1.1c-0.5,1.7-1.7,2.6-3.3,3.2c-0.3,0.1-0.5-0.1-0.6-0.3c-0.1-0.1-0.1-0.3-0.2-0.4c-0.3,0.1-0.3,0.4-0.3,0.7v0&#10;&#9;c0,0,0,0,0,0c-0.1,0.2-0.1,0.4-0.4,0.5c-0.5,0.1-1,0.3-1.5,0.1c-0.2,0.1-0.5,0.2-0.7,0.3v0l0,0c-0.7,0-1.2,0.3-1.7,0.7&#10;&#9;c-0.4,0.4-0.9,0.8-1.2,1.3c-0.5,0.6-1,0.7-1.7,0.6c-0.4-0.1-0.8-0.1-1.1-0.3c-0.8-0.5-1.5-0.2-2.2,0.1c-1,0.5-1.6,1.3-1.7,2.3&#10;&#9;c-0.1,0.3-0.1,0.6-0.2,0.9c-0.2,0.8-0.5,1.6-1.1,2.3c-0.6,0.7-1.3,1.4-2.1,2l0,0c-0.2,0.4-0.5,0.8-0.9,1l0,0&#10;&#9;c-0.1,0.1-0.3,0.3-0.4,0.4c-0.2,0.2-0.4,0.2-0.6-0.1c-0.1-0.2-0.2-0.4-0.4-0.7c-0.1,0.1-0.2,0.3-0.4,0.4l0,0v0&#10;&#9;c0.1,0.3,0.1,0.5,0.2,0.8c0.4,0.8,0.3,1.5-0.2,2.3c-0.4,0.6-0.8,1.1-1.2,1.7c-0.4,0.6-0.8,0.8-1.4,0.5c-1-0.4-1.8-1-2.3-1.8&#10;&#9;c-0.8-1.4-1.9-2.7-3-3.9c-0.5-0.6-1-1.3-1-2.1c-0.2-0.2-0.4-0.4-0.6-0.6c-0.6,0-1.3,0.1-1.6-0.6c-0.1,0.1-0.2,0.2-0.3,0.3l0,0l0,0&#10;&#9;c0,0.5,0.4,1,0.3,1.6v0l0,0c0.3,0.3,0.2,0.7,0.3,1c0.1,0.6,0.1,1.3,0.2,1.9c0.6,2.9,1.9,5.6,3.9,7.9c0.1,0.1,0.2,0.2,0.3,0.4&#10;&#9;c0.3,0.5,0.1,1.4-0.4,1.5c-0.7,0.2-1.5,0.4-2-0.4c-0.5-0.7-1.2-1-2-1.2c-0.1,0.5,0,0.7,0.6,0.9c0.3-0.3,0.5-0.1,0.6,0.1&#10;&#9;c0.1,0.2,0.1,0.4-0.2,0.5c0,0,0,0,0,0c-0.1,0-0.3,0-0.4,0l0,0c0,0.1,0,0.2,0,0.3v0l0,0c0.6,1,1.1,2,1.4,3.2c0.2,0.9,0.4,1.9,0.6,2.8&#10;&#9;c0.2,1,0.2,1-0.7,1.6l0,0h0c-0.2,0.3-0.4,0.3-0.7,0.3l0,0l0,0c-0.2,0-0.3,0-0.5,0v0c-0.4,0.2-0.8,0.4-1.3,0.4l0,0l0,0&#10;&#9;c-0.4,0.2-0.7,0.4-1.1,0.5c-1,0.2-1.3,0.9-1.3,1.9c0,0.5,0.1,1.1,0.1,1.6c0.1,2-0.9,3.5-2.9,4c-0.5,0.1-0.9,0.2-1.4,0.3&#10;&#9;c-1,0.3-2,0.7-2.7,1.5c-0.3,0.4-0.7,0.6-1.2,0.8c-0.3,0.4-0.7,0.3-1,0.3v0v0c-1.2,0.1-1.2,0.1-1.6-0.8c-0.1-0.1-0.2-0.3-0.2-0.4&#10;&#9;c-0.3,0.1-0.3,0.4-0.3,0.7v0v0c0.2,1,0.2,1-0.6,1.2c-0.7,0.2-1.3,0.5-1.9,0.7c-0.2,0.1-0.5,0.2-0.7,0.3c-0.2,0.1-0.4,0-0.5-0.2&#10;&#9;c-0.1-0.3-0.2-0.6-0.2-0.9c-0.1-0.3-0.2-0.5-0.5-0.6c-0.6-0.1-0.9-0.6-1.4-1.2c-0.1,0.5-0.1,0.8-0.1,1.1c0,0.6-0.1,1.3-0.3,1.9&#10;&#9;c-0.2,0.6-0.3,1.2-0.4,1.9c-0.2,2.3-1.2,3.9-3.4,4.8c-0.2,0.1-0.5,0.2-0.7,0.4c-0.3,0.4-0.7,0.3-1,0c-0.1,0-0.2,0-0.3,0&#10;&#9;c-0.3,0.3-0.7,0.6-1,0.9l0,0l0,0c0.2,1.4,0.2,2.7,0,4.1c-0.2,1.5-0.8,2.7-2.4,3.2c-0.3,0.1-0.7,0.3-1,0.4c-1.3,0.4-2.6,0.9-3.9,1.3&#10;&#9;c-0.1,0.1-0.2,0.2-0.2,0.2c-1.6,0.2-3.3,0.2-4.9,0c-0.1,0-0.2-0.1-0.3-0.2c-0.2-0.1-0.5-0.1-0.6-0.4c-0.9-0.4-1.7-0.8-2.6-1.3&#10;&#9;c-0.2,0-0.4,0-0.6,0c-0.5,0.1-1.1,0.2-1.6,0.3c-0.1,0.1-0.2,0.1-0.3,0.1v0c-0.2,0.1-0.4,0.2-0.5,0.3c-0.8,0.3-1,0.2-1.5-0.4&#10;&#9;c-0.3-0.4-0.5-0.8-0.7-1.2c-0.9-1.9-2.2-3.6-4.2-4.6c-1-0.5-1.6-1.4-1.9-2.4c-0.1-0.4-0.3-0.8-0.3-1.2c-0.2-1.1-0.7-2.1-1.4-2.9l0,0&#10;&#9;c-0.2-0.2-0.3-0.4-0.3-0.7c0-1.6-1.6,0.3-1.9,0.3l0,0c-0.1,0.2-0.3,0.3-0.4,0.5c0,1.9,0.3,3.8,0.5,5.7c0.2,1.1,0.3,2.3,0.5,3.4v0&#10;&#9;c0.3,0.8,0.5,1.7,0.6,2.6l0,0c0.3,1,0.6,2,0.9,3.1c1.6,5.6,2.6,11.4,3.2,17.2c0.4,4,0.7,8,1.1,12c0.4,4.2,0.6,8.5,0.8,12.7&#10;&#9;c0.3,6.6-0.4,13.2-1,19.8c-0.1,1.5-0.4,2.9-0.9,4.4c0.1,0.6-0.1,1.1-0.3,1.6l0,0l0,0c0,0.2,0,0.3,0,0.5c-0.6,2.8-1.1,5.7-1.9,8.5&#10;&#9;c0.1,0.7-0.3,1.2-0.3,1.9h0c0,0.2-0.1,0.3-0.3,0.4l-0.1,0.1l0,0c0-0.1,0.1-0.1,0.1-0.2c0,0.1-0.1,0.2,0,0.3l0,0v0&#10;&#9;c0,1-0.4,1.8-0.9,2.6c-0.2,0.4-0.2,1-0.7,1.2c0,0-0.1,0-0.1,0.1c0,0,0,0,0,0.1c0-0.1,0.1-0.1,0.1-0.2c0,0.1,0,0.2,0,0.3&#10;&#9;c0.1,0.3-0.1,0.5-0.3,0.7c0,0.2-0.1,0.4-0.3,0.3c0,0.3-0.1,0.6-0.2,0.9c-0.6,1.4-2.3,4.6-2.4,4.8l0,0c-0.1,0.2-0.2,0.4-0.3,0.6&#10;&#9;c0,0-3,5.7-3.9,6.6c0.1-1.2,3.6-14.9,4-16.8c-0.1-0.6-0.1-1.1,0.2-1.7v0c0-0.1,0-0.2,0-0.3c0-0.3,0-0.5,0-0.8&#10;&#9;c0.4-2.2,0.3-4.3,0.5-6.5c0.1-1.5-0.1-10.3,0.1-11.3l0,0v0c0-1.5,0-3-0.2-4.4c-0.5-5.5-1-11.1-1.8-16.6c-0.8-5.9-1.9-11.7-3.7-17.4&#10;&#9;c-0.7-2.3-1.3-4.6-1.6-7c-0.1-1.2-0.3-2.4-0.6-3.6c-1-4.3-2.6-8.4-3.8-12.6c-0.1-0.3-0.2-0.5-0.6-0.5c-0.7,0-1.3,0.4-1.9,0.6l0,0&#10;&#9;c-0.9,0.5-1.4,1.4-1.9,2.3c-0.5,0.9-0.8,1.9-1,2.8c-0.6,2.3-0.7,4.6-0.9,6.9c-0.4,5.8-0.7,11.5-1.7,17.2c0.1,0.6,0.1,1.1-0.3,1.6&#10;&#9;c-0.2,1.7-0.4,3.5-0.7,5.2c-0.5,3.5-1,7-1.5,10.6c-0.5,3.7-1.1,7.4-1.5,11.2c0,0.5-0.2,0.9-0.3,1.4c0.1,1.4-0.2,2.8-0.3,4.2&#10;&#9;c-0.1,2.3-0.3,4.6-0.4,6.9c0,0.6-0.1,1.3-0.2,1.9c0.1,0.1,0.1,0.2,0,0.3c0,0.2,0,0.4,0,0.7l0,0v0c0,1.4,0,2.8-0.2,4.1&#10;&#9;c0,0.3,0,0.5-0.1,0.8c0,0.4,0.1,0.7,0,1.1c-0.2,7.5,0.1,15,0.1,22.5c0,1.9,0.1,3.7,0.1,5.6c0,0.5,0.1,1.1,0.1,1.6&#10;&#9;c0,2.7-0.1,5.3,0.1,8c0.3,5.7,0.2,11.5-0.2,17.2c-0.4,4.7-0.8,9.3-1.1,14c-0.4,4.8-0.8,9.5-1.3,14.3c-0.6,5.4-1.3,10.7-2.3,16.1&#10;&#9;c-0.9,4.5-1.9,8.9-3.5,13.2c-0.3,0.7-0.5,1.5-0.9,2.2c-0.3,1.1-0.8,2.1-1.3,3.1c0,0.3,0,0.5-0.3,0.7c-0.3,0.6-0.7,1.2-1,1.8v0l0,0&#10;&#9;c0,0.3-0.2,0.6-0.5,0.7l0,0c-0.5,0.6-0.8,1.4-1.4,1.9c-0.6,1.1-1.5,2.1-2.5,2.9c-0.1,0.3-0.4,0.5-0.7,0.6l-0.1,0.1c0,0-0.1,0-0.1,0&#10;&#9;c-0.7,0.8-1.6,1.3-2.6,1.6l0,0c-0.1,0.2-0.4,0.3-0.6,0.3c-0.1,0-0.2,0-0.3,0c0,0,0,0,0,0s0,0,0,0c-1.1,0.6-2.3,0.8-3.5,0.6l0,0l0,0&#10;&#9;c-1,0.1-2-0.2-2.9-0.6l0,0c-0.4,0-0.7-0.1-0.9-0.3l0-0.1c0,0,0,0,0,0c0,0,0,0,0,0.1c-0.3,0-0.5-0.1-0.7-0.3c-0.3,0-0.7,0-0.9-0.3&#10;&#9;c-0.1,0-0.1-0.1-0.2-0.1l0,0c-0.3-0.1-0.4-0.3-0.4-0.6c-2.5-1.1-4.7-3.7-5.4-6.4c-0.1-0.2-0.2-0.5-0.3-0.7c-0.4-1.4-0.6-2.8-0.8-4.2&#10;&#9;c-0.2-1.7-0.6-3.4-0.5-5.2c-0.3-0.4-0.2-0.9-0.2-1.4c0-0.5,0-1.1,0-1.6c0-0.4-0.1-0.9,0.2-1.3c0.8,0.5,1,1.5,1.8,1.9&#10;&#9;c0.2,0,0.5,0,0.6-0.3c-0.1-0.2-0.2-0.4-0.4-0.6l0,0l0,0c-0.5-0.6-1.1-1.2-1.3-2c-0.6-1.1-0.5-2.2,0.2-3.1c1.1-1.3,2.4-2.3,4.3-2.3&#10;&#9;l0,0l0,0c0.8,0.1,1.6,0.2,2.4,0.2c0.3,0,0.6,0.1,0.9,0.3c1,0.2,2.1,0.5,3.1,0.7c0.2,0.1,0.4,0.2,0.7,0.3c0.8-0.3,1.3-0.9,1.2-1.8&#10;&#9;c0-0.3,0-0.6,0.1-1c0.1-2.1,0.3-4.1,0.4-6.2c0.3-3.7,0.4-7.3,0.3-11c-0.1-6.2-0.4-12.3-0.8-18.4c-0.2-3.3-0.6-6.5-1.1-9.8&#10;&#9;c-0.7-4-1.6-8-2.6-12c-0.6-2.4-1.2-4.7-1.7-7.1c-0.4-0.7-0.5-1.5-0.6-2.3c-0.2-0.6-0.4-1.1-0.5-1.7c-0.5-2.1-1.2-4.2-1.4-6.3&#10;&#9;c-0.7-1.6-0.8-3.3-1-5c-0.5-1-0.5-2-0.7-3.1c-0.3-1.5-0.6-3-0.8-4.5c0-0.3-0.2-0.6,0.3-0.7c0,0,0,0,0,0c0,0,0,0,0,0&#10;&#9;c-0.4-0.4-0.6-0.9-0.7-1.5c-0.4-1.8-0.8-3.7-1.2-5.5l0,0l0,0c-0.4-0.4-0.4-0.8-0.3-1.3l0,0l0,0c-0.4-1.1-0.6-2.3-0.7-3.4h0&#10;&#9;c-0.3-0.3-0.3-0.8-0.4-1.2c-0.3-1.1-0.6-2.1-0.9-3.2c-0.1-0.4,0.1-0.4,0.4-0.4l0,0c0,0,0,0,0,0c0,0,0,0,0,0c0,0,0,0,0,0&#10;&#9;c-0.3-0.4-0.8-0.8-0.9-1.2c-0.5-1.5-1.1-2.9-1.3-4.5c-0.3-0.3-0.3-0.6-0.3-1c0,0,0,0,0,0c-0.3-0.4-0.3-0.8-0.3-1.2&#10;&#9;c-0.1-0.2-0.2-0.4-0.3-0.6c-0.7-2.4-1.2-4.9-1.6-7.4c-0.2-1.6-0.6-3.1-0.4-4.7c0,0,0,0,0,0c-0.4-1.5-0.3-3-0.3-4.6&#10;&#9;c-0.3-0.5-0.2-1-0.2-1.5c0-1.5,0-3.1-0.1-4.6c-0.1-2.7-0.5-5.5-1.3-8.1c-0.5-1.6-1-3.2-1.5-4.8c-0.2-0.5-0.4-1.1-0.4-1.7&#10;&#9;c-0.1-0.2-0.2-0.4-0.2-0.6c-0.3-2-0.7-3.9-1-5.9c-0.2-1.3-0.5-2.6-0.4-3.9c0,0,0,0,0,0c-0.4-1.3-0.5-2.7-0.6-4.1&#10;&#9;c-0.2-1.8-0.2-3.7-0.4-5.5c-0.1-1.2-0.2-2.3-0.3-3.5c-0.1-1.5-0.3-3.1-0.7-4.5c-0.1,0-0.2,0-0.3,0c0,0.3,0,0.6,0,0.9h0l0,0&#10;&#9;c0,0,0,0.1-0.1,0.1c-0.2,0.3-0.5,0.3-0.8,0.1l0,0c0,0,0,0,0,0c0,0,0-0.1,0-0.1l0,0v0c-0.1,0-0.2-0.1-0.2-0.1&#10;&#9;c-0.1-0.2,0.1-0.2,0.2-0.3l0,0c0-0.1,0-0.2,0-0.3c0-0.1,0-0.2-0.1-0.3c-0.2,0-0.4,0-0.7,0c0.2,0.4,0.1,0.7-0.3,1l0,0&#10;&#9;c-0.5,1.3-1.1,2.5-1.6,3.8c-0.4,0.9-0.7,1.8-1.2,2.6c-1.4,2.5-2.4,5.1-3,7.8c-1.5,6.8-3.2,13.6-4.4,20.5c-0.6,3.1-0.9,6.3-0.9,9.5&#10;&#9;c0,1.5-0.1,3-0.2,4.4c-0.3,3.5-0.3,7-0.2,10.5c0,1.7,0.3,3.4,0.4,5.1l0,0c0.3,0.6,0.3,1.3,0.3,2c0,0.2,0,0.4,0.1,0.6v0&#10;&#9;c0.1,0.2,0.2,0.4,0.2,0.6c0.2,2.1,2.3,10.6,2.3,10.6c0.2,0.2,1.3,5.3,0.9,6.2c0,0.1,0,0.2,0,0.3v0v0c0.2,1,0.5,2,0.7,3.1&#10;&#9;c0.5,0.9,0.7,1.9,0.9,2.9c0,0,0,0,0,0.1c0.6,0.9,0.6,1.9,0.6,2.9h0l0,0c0.4,0.6,0.7,1.3,0.7,2.1c0.4,0.7,0.5,1.5,0.6,2.3&#10;&#9;c0.4,0.4,0.3,0.9,0.3,1.3l0,0v0c0.1,0.5,0.5,1,0.2,1.5c-0.6-0.2-0.9-0.6-1.1-1.1c-0.5-0.8-4.4-9.1-4.4-9.1l0,0&#10;&#9;c0.1,0-2.4-8.6-2.6-9.9c-0.8-2.1-1.2-4.2-1.7-6.3c-0.2-0.1-0.4-0.1-0.5-0.3c-0.1-0.5-0.5-0.8-0.4-1.3c-0.1-0.4-0.4-0.8-0.3-1.3&#10;&#9;c-0.4-1-0.8-2-1-3.1c-0.2-0.2-0.3-0.5-0.3-0.7c-0.6-2-1.2-4-1.8-6.1c-0.1-0.2,0-0.4,0-0.6c-0.1-0.4-0.2-0.7-0.3-1.1&#10;&#9;c-1-4.1-1.6-8.3-2-12.6c-0.6-6.4-0.5-12.8-0.1-19.3c0.1-1.5,0.2-3.1,0.3-4.6c0.3-2.8,0.5-5.6,0.9-8.4c0.3-2.6,0.6-5.3,1.1-7.9&#10;&#9;c0.9-4.9,2.4-9.6,4-14.2c0.3-0.8,0.5-1.6,0.8-2.4c0.2-0.9,0.3-1.9-0.1-2.8c0,0,0-0.1,0-0.1c0,0,0,0.1,0,0.1&#10;&#9;c-0.1-0.5-0.3-0.7-0.9-0.7c-0.2,0-0.3,0-0.5,0l0,0c-0.1,0-0.2,0-0.3,0c-0.2,0.2-0.3,0.5-0.4,0.9c-0.1,0.6-0.2,1.1-0.3,1.7&#10;&#9;c-0.2,0.8-0.6,1.3-1.4,1.6c-0.3,0.1-0.5,0.2-0.7,0.3c-0.8,0.3-1.6,0.7-1.9,1.5c-0.5,1-1.4,1.9-1,3.2c0.3,1-0.2,1.7-1,2.3&#10;&#9;c-0.6,0.5-1.3,0.8-2.1,1.1c-0.6,0.2-1.1,0.3-1.7,0.5h0c-0.5,0.5-0.9,0.1-1.3-0.1l0,0l0,0c-1.4-0.7-2.6-1.6-3-3.2&#10;&#9;c0-0.1-0.1-0.2-0.2-0.2l0,0l0,0c-0.3,0-0.6,0-0.9,0h0c-0.8-0.1-1.4,0.2-1.9,0.8c-0.7,0.9-1.7,0.9-2.5,0.1c-0.3-0.3-0.5-0.6-0.8-1&#10;&#9;c-1-1.2-2.2-1.8-3.8-1.6c-0.5,0.1-1,0.2-1.6,0.2c-0.8,0.1-1.7,0.2-2.5,0.1c-0.7-0.1-0.9-0.4-0.9-1c0-0.4,0-0.7,0-1.1l0,0l0,0&#10;&#9;c-0.1-0.1-0.3-0.3-0.4-0.4c-0.3,0-0.5-0.1-0.6-0.3c-0.2-0.3-0.5-0.6-0.8-0.7c-0.1-0.2-0.1-0.3-0.1-0.5c0,0,0,0,0,0&#10;&#9;c0,0.2,0.1,0.3,0.1,0.5c-0.4-0.1-0.4-0.4-0.5-0.7c0-0.5,0.2-1-0.3-1.5c0,0.3-0.1,0.5-0.1,0.8c-0.1,0.7-0.1,0.7-0.9,0.9&#10;&#9;c-0.7,0.1-1.3,0.4-1.9,0.7c-0.3,0.2-0.7,0.4-1,0.5c-0.6,0.2-1.2-0.1-1.3-0.7c-0.3-1.3-0.7-2.6-0.3-4.1c0.3-1.2,0.9-2.2,1.6-3.2&#10;&#9;c0.7-1,1.5-1.9,2.1-3c0.8-1.5,1-3.1,0.8-4.8c0-0.3-0.3-0.3-0.5-0.2c-0.4,0.2-0.7,0.4-1.1,0.7c-1.2,0.9-2.2,2-3.2,3.1&#10;&#9;c-1.7,2-1.5,2.2-4.5,1.7c-0.8-0.1-1.4-0.4-2-0.9c-0.4-0.3-0.7-0.7-1.2-0.8h0l0,0c-0.1,0.1-0.2,0.1-0.2,0.2c-0.3,0.6-0.3,0.6-0.9,0.3&#10;&#9;v0c-0.1-0.1-0.2-0.2-0.3-0.3c0-0.1,0-0.2,0-0.2c0,0-0.1,0-0.1,0c-0.2-0.1-0.5-0.2-0.7-0.3c0,0.1,0,0.1-0.1,0.2&#10;&#9;c-0.3-0.2-0.6-0.3-1-0.5c-0.1,0-0.1-0.2-0.1-0.2c0.1-0.2,0.2-0.1,0.4-0.1l0,0c0.1,0,0.2,0,0.3,0h0c-0.1-0.2-0.2-0.5-0.3-0.7v0&#10;&#9;c0,0,0,0,0,0c-1.1-0.4-1.9-1.3-2.8-1.9c-0.5-0.2-0.8-0.5-1-1l0,0v0c-0.3-0.4-0.5-0.8-0.8-1.2c-0.7-1.2-0.9-2.4-0.2-3.6&#10;&#9;c0.3-0.6,0.5-1.2,0.7-1.7c0.3-0.7,0.4-1.3,0.2-2c-0.1,0-0.2,0-0.3-0.1v0v0c-0.8-0.1-1.3,0.2-1.8,0.7c-0.6,0.7-1.3,1.4-1.9,2.1&#10;&#9;c-0.9,1-2.8,0.8-3.4-0.4c-0.5-1.1-1.1-2.2-1.5-3.3c-0.5-1.3-0.9-2.6-1.6-3.8c-0.9-1.3-1.9-2.6-2.8-3.9c-0.4-0.4-0.9-0.8-1.3-1.2&#10;&#9;c-0.1,0.1-0.2,0.2-0.3,0.3c-0.1,0.2-0.2,0.1-0.3,0l0,0l0,0c-0.3,0-0.5,0-0.6-0.3v0c-0.4,0-0.7-0.1-1-0.3l0,0c-0.3,0-0.6-0.1-0.9-0.1&#10;&#9;l0,0c-0.1,0-0.2,0-0.3,0c-0.1,0-0.1-0.1-0.1-0.2c0,0,0.1-0.1,0.1-0.1c0.1,0,0.2,0,0.3,0l0-0.1l0,0v0c-0.2-0.3-0.5-0.3-0.7-0.4l0,0&#10;&#9;l0,0c-0.5,0.1-1.1,0.1-1.6,0.2c-0.5,0.1-1.1,0.1-1.6,0c-0.3-0.1-0.6-0.2-0.6-0.6c0-0.8-0.4-1.5-0.8-2.2c-0.4-0.6-0.7-1.3-0.9-2&#10;&#9;c-0.5-1.4-1.1-2.8-1.8-4.1c-0.3-0.5-0.5-1-0.5-1.7c0-0.5,0-1-0.4-1.3c-0.4-0.2-0.8-0.3-0.9-0.8l0,0l0,0c-0.2-0.4-0.5-0.7-0.7-1.1&#10;&#9;c-1.1-0.8-2.2-1.7-3.3-2.5c-1.3-0.8-2.1-1.8-2.3-3.4c-0.4-2.7-1.9-3.2-3.8-3.1c-1.1,0-2.1,0.2-3.2,0.2c-0.7,0.2-1.2-0.1-1.7-0.6&#10;&#9;c-0.2-0.1-0.4-0.3-0.4-0.6l0,0c-1.2-1.6-2.3-3.3-3-5.2c-0.5-1.3-0.4-2.6,0.1-3.9c0.3-0.6,0.6-1.3,0.9-1.8c0.4-0.7,0.9-1.4,1.4-2.1&#10;&#9;c0.5-0.7,1-1.5,1.5-2.3c0.3-0.5,0.6-1.1,0.7-1.8c0.1-0.5-0.2-0.9-0.8-0.9c-0.2,0-0.3,0-0.5,0c-1.3,0.6-2.7,0.3-4.1,0.5&#10;&#9;c-0.9,0.1-1.9,0.2-2.9,0.2c-1.9,0-3.5-0.6-4.9-2c-1.2-0.9-2-2.1-2.5-3.5c-0.2-0.1-0.3-0.2-0.3-0.4c-1-2-1.8-4.1-2.5-6.2&#10;&#9;c-0.8-2.4-1.7-4.8-3-7c-0.4-0.8-0.8-1.6-1.2-2.4c-0.6-1.4-1-2.8-1.1-4.3C743.4,417.3,743.5,417.2,744.3,417.2z" transform="matrix(1, 0, 0, 1, -13.347801465187672, -57.39554610676369)"/>
<path d="M494,537.4c0,0.3-0.1,0.6,0.1,0.9c0,0,0,0.1,0,0.1c0,0.3,0.1,0.5,0.3,0.7c0,0.1,0,0.1,0,0.1c0,0.2,0,0.5,0.1,0.7&#10;&#9;c0,0,0,0,0,0c0,0.1,0,0.2,0,0.3c0.1,0.9,0.4,1.6,0.8,2.4c0,0.3,0,0.6,0.2,0.8c0,0.9,0.6,1.7,0.9,2.5c0.4,1.4,1.1,2.6,1.7,4&#10;&#9;c0,0.2,0.2,0.4,0.3,0.5c0.4,0.8,0.6,1.7,1.2,2.4c0.2,0.4,0.5,0.8,0.7,1.2c0,0.5,0.3,0.8,0.6,1.2c0.6,1,1.2,2.1,1.9,3&#10;&#9;c0.6,0.8,1,1.9,1.9,2.6c0.2,0.3,0.4,0.6,0.6,0.9c0.2,0.5,0.5,0.9,0.8,1.3c1,0.8,1.4,2.2,2.6,2.9c0.1,0,0.1,0.1,0.2,0.1&#10;&#9;c0.4,0.6,0.8,1.3,1.5,1.7c1.3,1.4,2.8,2.5,4.2,3.8c0.3,0.2,0.6,0.5,0.9,0.5c0.1,0.1,0.2,0.1,0.3,0.2c0.4,0.6,1,1.1,1.7,1.4&#10;&#9;c0.3,0.2,0.5,0.4,0.9,0.5c0.5,0.4,0.9,0.9,1.5,1c0.3,0.2,0.7,0.4,1,0.6c0.5,0.3,0.8,0.9,1.5,0.9c0.4,0.2,0.7,0.4,1.1,0.6&#10;&#9;c0.4,0.3,0.7,0.6,1.1,0.7c0.4,0.2,0.8,0.4,1.3,0.6c0.6,0.3,1,0.8,1.7,0.9c0.3,0.2,0.7,0.3,1,0.5c0.5,0.3,1.1,0.6,1.7,0.8&#10;&#9;c0.2,0.1,0.4,0.2,0.5,0.2c0.6,0.2,1,0.7,1.7,0.7c0.4,0.3,0.8,0.3,1.2,0.5c-2.3,2.4-4.6,4.7-6.9,7.1c-0.2,0.2-0.1,0.8,0.3,0.7&#10;&#9;c5.8-0.5,11.3-2.4,16.2-5.4c0.1,0,0.1,0,0.2,0c0.3,0,0.6,0,0.8,0.1c0.1,0,0.2,0.1,0.3,0c1.1,0.2,2.2,0.3,3.3,0.3&#10;&#9;c2.1,0.3,4.3,0.2,6.4,0.1c4.3-0.3,8.6-1,12.8-2c0.1,0,0.2-0.1,0.3-0.1c0.6-0.1,1.1-0.3,1.7-0.4c1.2-0.3,2.4,0,3.6,0.1&#10;&#9;c4.3,0.3,8.6,0.3,12.9-0.2c0.2,0,0.4,0,0.7-0.1c-0.9,1.3-1.8,2.5-2.7,3.7c-9.1,11.7-21.6,20.7-35.6,25.5c-0.5,0.2-1.2,1.2,1.2,1.3&#10;&#9;c5.7,0.1,11.4-0.9,16.8-2.6c9.6-3,18.5-8.4,25.5-15.6c3.5-3.6,6.4-7.7,9-11.9c0.2-0.3,0.4-0.6,0.6-0.9c0.4-0.5,0.9-1,1.3-1.5&#10;&#9;c0.8-0.8,1.7-1.6,2.5-2.4c1.8-1.5,3.7-2.7,5.7-3.9c2.7-1.3,5.4-2.5,8.2-3.5c0.4,0,0.7-0.1,1.1-0.3c0.1,0,0.2,0,0.3,0&#10;&#9;c0.5,0.1,1-0.3,1.4,0.1c0.6,0.7,1.1,1.4,1.9,1.9c0.1,0.1,0.2,0.2,0.3,0.3c0.6,0.7,0.8,1.6,1.4,2.3l0.5,1.5c0,0.4,0.1,0.8,0.4,1.2&#10;&#9;c0.5,1.5,1.2,2.8,2.4,3.9c0.2,0.5,0.8,0.7,1,1.2c-0.1,1.4,0.3,2.7,0.6,4.1c0.1,0.2,0.1,0.4,0.2,0.7c0.4,1.5,0.2,3.1,0.5,4.6&#10;&#9;c0.1,0.2,0.1,0.3,0,0.5c-0.1,0.5-0.2,1-0.2,1.5c-0.4,1.1-0.2,2.2-0.1,3.3c0.2,1.5,0.5,2.9,1.1,4.3c0.1,0.4,0.2,0.8,0.4,1.2&#10;&#9;c0.3,2.5,0.8,5,1.3,7.5c1,5.1,1.8,10.2,1.8,15.5c-0.1,8.1-2.1,15.6-5.7,22.8c-0.6,1.2-1.3,2.5-1.7,3.8c-1.4,2.7-2.1,5.5-2.5,8.5&#10;&#9;c-0.3,2.2-0.4,4.4-0.4,6.5c0,0.5,0,9.1-1,13.3c0,0-0.5,2.4-0.9,3.6c-0.2,0.6-0.4,1.1-0.5,1.7c-0.3,0.8-0.4,1.6-0.5,2.4&#10;&#9;c-0.9,1.8-1.6,3.6-1.8,5.6c0,0.3,0,0.6,0,0.9c-0.1,1.1-0.1,2.1,0.3,3.1c0,0,0,0.1,0.1,0.1c0.5,1.9,1.9,2.9,3.4,3.9&#10;&#9;c0.5,0.3,1.1,0.6,1.7,0.7c0.2,0.2,0.5,0.3,0.7,0.3c1.6,0.5,3.2,0.9,4.9,1.1c1.5,0.4,3.1,0.4,4.7,0.3c-0.2,0-0.3-0.1-0.5-0.1&#10;&#9;c0.2,0,0.3,0,0.5,0.1c0.5,0,1,0,1.5,0c1.5,0,3,0,4.5-0.3c0.1,0,0.3,0,0.4-0.1c0.5,0,1,0.1,1.5-0.2c2.1-0.2,4.2-0.6,6.1-1.5&#10;&#9;c1.8-0.6,3.5-1.7,5-2.9c0.7-0.5,1.3-1.1,1.8-1.9c0.9-1.1,1.4-2.3,1.5-3.8c0.2-0.3,0.1-0.6,0.1-0.9c0-0.2,0-0.3,0-0.5&#10;&#9;c0.1-1.9-0.3-3.7-0.7-5.4c-0.3-1.3-0.7-2.6-1-3.9c-0.1-0.4-0.1-0.8-0.3-1.2c-0.1-0.7-0.2-1.4-0.3-2c0.1-0.1-1.3-1.5-0.9-11.4&#10;&#9;c-0.4-1.7,1-3.4,1.3-5c0-0.3,0.1-0.6,0.1-0.8c0.6-2.4,1.5-4.7,2.4-7c1.7-3.7,2.9-7.5,4.1-11.4c0.8-2.6,1.5-5.2,2.2-7.7&#10;&#9;c0-0.1,0-0.2,0-0.3c0,0.1,0,0.2,0,0.3c0.9-2.5,1.8-5,2.7-7.5c0.8-2,1.4-4,1.8-6.1c0-0.3,0-0.6,0.3-0.7c1.5,4.2,3.2,8.4,5,12.4&#10;&#9;c0.7,1.7,1.3,3.4,2,5.1c0.6,2.3,1.4,4.6,1.9,6.9c1.1,4.4,1.3,8.9,0.9,13.4c-0.3,3.4-0.6,6.7-1.1,10.1c-0.3,2.1-0.3,5.7-0.7,7.8&#10;&#9;l-2.9,12.9c-0.9,3.2-2.5,6.2-3,9.5c-0.1,0.4-0.1,0.7-0.1,1.1c0,0,0,0.1,0,0.1c-0.2,0.5-0.4,0.9-0.5,1.5c-0.6,1.8-0.8,3.7-0.5,5.7&#10;&#9;c0.1,1.3,0.7,2.4,1.7,3.3c0.9,0.9,2,1.7,3.3,2.2c1,0.6,2,1,3.1,1.3c3.2,1.1,6.6,1.6,10,1.8c2.3,0.2,4.7,0.4,7,0.2&#10;&#9;c1.1-0.1,2.1,0.1,3.2-0.2c4.4-0.3,8.7-1,12.5-3.6c2.2-1.5,3.3-3.6,3.3-6.3c0.1-2.7-0.6-5.2-1.3-7.7c-0.5-1.8-1.2-3.7-1.5-5.6&#10;&#9;c-0.1-0.4-0.2-0.8,0-1.2l-0.2-7c0,0,0.9-5.5,0.8-6c0.1-3.1,0.7-6.2,1-9.2c0.5-3.2,1-6.4,1.6-9.6c0-0.3,0-0.5,0-0.8&#10;&#9;c0.4-1.6,0.6-3.3,0.9-5c0.2-0.6,0.3-1.3,0.5-1.9c0.5-2.4,1-4.8,1.5-7.2c0.4-1.9,0.7-3.8,1.1-5.7c0,0,0-0.1,0-0.1&#10;&#9;c0.3-0.8,0.5-1.7,0.5-2.6c0,0,0,0,0,0c0.4,0.1,0.2,0.4,0.3,0.7c0.1,0.6-0.1,1.3,0.2,1.9c0,1.1,0,2.3,0.2,3.4c0,1.5,0.1,3,0.3,4.4&#10;&#9;c0,0.1,0,0.1,0,0.2c0.3,1.5-0.3,5.4-0.8,10.3c-0.1,0.7-0.4,1.4-0.6,2.2c-0.1,0.3-0.2,0.7-0.3,1.1c-0.5,2.3-2.1,4.2-2.7,6.6&#10;&#9;c-0.2,0.7-0.4,1.3-0.4,2c0,0.8-0.3,1.7,0.1,2.5c0.3,0.8,0.9,1.3,1.6,1.7c1.3,0.8,2.8,1.5,4.3,1.9c2.6,0.9,5.3,1.3,8,1.4&#10;&#9;c0.1,0,0.2,0.1,0.3,0c1.9,0.3,3.7,0.1,5.6,0.1c2.2-0.1,4.5-0.4,6.7-0.8c0.1,0,0.3-0.1,0.4-0.1l0.1,0l0.1,0c0.8-0.1,1.7-0.3,2.4-0.7&#10;&#9;c0.7-0.1,1.3-0.4,1.8-0.7c1.4-0.7,2-1.9,2-3.3c0.1-0.9,0-1.9-0.2-2.8c-0.1-1.2-0.4-2.4-0.8-3.6c-0.3-1.3-0.7-2.5-1-3.8&#10;&#9;c-1.5-5.8-0.6-11.6-0.7-12.3c0-0.1,0-0.1,0-0.2c0-0.3,0-0.6,0-0.8c0.2-1.5,0.4-3.1,0.6-4.6c0.4-2.7,1.1-5.4,1.4-8.1&#10;&#9;c0.3-2.1,0.5-4.2,0.8-6.2c0,0,0-0.1,0-0.1c0,0,0,0.1,0,0.1c0.1-1.5,0.2-3.1,0.4-4.6c0-0.4,0-0.8,0.1-1.2c0.2-0.2,0.1-0.5,0.1-0.7&#10;&#9;c0.1-1.1,0.2-2.2,0.3-3.2c0.1-1.5,0.2-3,0.3-4.5c0.2-2.3,0.5-4.7,0.7-7c0.3-2,0.6-3.9,1.2-5.8c0.1-0.3,0.1-0.6,0.3-0.7&#10;&#9;c3,2.5,5.1,5.7,6.8,9.2c1,1.9,1.9,3.8,3.1,5.7c1.1,2.1,2.5,4,3.9,5.8c1.1,1.6,2.2,3.2,3.4,4.7c2.5,3.3,3.8,7.1,4.8,11&#10;&#9;c0,0.1,0.1,0.3,0.2,0.4c0.5,2.2,1,4.5,1.5,6.7c0,0.1,0,0.2,0.1,0.3c1.7,12.2,1.4,17.1-0.9,25.8c-0.5,2-1.7,3.8-2,5.9&#10;&#9;c-0.6,3.3-0.1,4.4,2.8,6.1c0.7,0.4,1.5,0.7,2.3,1.1c1.7,0.7,3.5,1.2,5.3,1.6c0.4,0.2,0.9,0.3,1.4,0.3c0.2,0,0.3,0,0.5,0.1&#10;&#9;c1.7,0.4,3.5,0.6,5.3,0.7c0,0,0,0,0,0c1.2,0.3,2.4,0.2,3.5,0.2c4.1,0,8.1-0.2,12-1.4c0.1,0,0.2-0.1,0.3-0.1c0.5-0.1,1-0.3,1.5-0.5&#10;&#9;c1.2-0.5,2.2-1.2,2.6-2.5c0.6-1.3,0.5-2.6,0.3-4c-0.5-3.5-1.3-6.8-2.7-10.1c-1-7.7-1.9-16.4-1.9-16.4c0-0.5,0-0.9,0-1.4l0-0.3&#10;&#9;c0.2-0.8,0.1-1.6,0.1-2.4c0-2.2,0.1-4.4,0-6.6c0-1.1-0.1-2.2-0.3-3.3c0-0.3,0-0.6-0.1-0.9c0-0.4,0.1-0.9-0.1-1.3&#10;&#9;c-0.1-0.5,0-0.9-0.2-1.4c-0.1-2.2-0.6-4.4-0.9-6.6c-0.8-5.2-1.9-10.4-2.5-15.7c0-0.1-0.1-0.2-0.1-0.3c-2-4.9-1.8-11.1-2.1-16.3&#10;&#9;c-0.4-7.2-0.9-14.6-0.4-21.8c0.5-6.3-1.4-11.7-1.7-18c-0.2-3.9-0.1-6.4-2.2-9.7c-0.7-1.1,0-2.3-0.4-3.3c-0.3-0.7-1.3-1-1.5-1.8&#10;&#9;c-0.6-2.4-0.7-3.3-2.1-5.7c-1.2-2.1-2.1-4.4-3.2-6.7c-1.2-2.4-2.8-4.5-4.4-6.6c-4.6-6-9.3-12-15.1-16.9c-0.3-0.4-0.6-0.8-1.1-1&#10;&#9;c-0.1-0.1-0.2-0.1-0.3-0.2c-0.5-0.5-1-0.9-1.5-1.4c-2.1-0.8-3.4-3.3-5.2-4.7c-2.3-1.8-4.8-3.2-7.3-4.6c-4.6-2.5-9.8-4.6-14.2-7.1&#10;&#9;c-0.5-0.3-1.1-0.6-1.8-0.5c-0.1,0-0.2,0-0.3,0c-0.4-0.9-1.2-0.8-1.9-1c-2-0.6-3.9-1.3-6-1.5c-0.5-0.2-1-0.5-1.5-0.5&#10;&#9;c-0.4-0.2-0.9-0.3-1.4-0.3c-0.1,0-0.2,0-0.3,0c-1.1-0.2-2.1-0.8-3.3-0.5c-0.1-0.1-0.2-0.1-0.3-0.2c-0.4-0.3-0.9-0.4-1.4-0.3&#10;&#9;c0,0,0,0.1,0,0.1c0,0,0-0.1,0-0.1c-0.1-0.1-0.2-0.1-0.4-0.2c-1.4-0.3-2.8-0.6-4.1-1.1c-0.4-0.2-0.8-0.1-1.2-0.1c0,0,0,0.1,0,0.1&#10;&#9;c0,0,0,0,0,0c0,0,0,0,0,0c0,0,0,0,0,0c0,0,0-0.1,0-0.1c-0.4-0.2-0.8-0.4-1.3-0.4c-0.5-0.3-1.2-0.1-1.7-0.3c-0.9-0.2,4-5.9,6.7-13.8&#10;&#9;c0.5-1.5-0.1-12.3-1.9-11c-0.6-0.8-12.7,0.9-18,1.3c-4.7,0.3-10.5,1.4-15.1-0.2c-3.8-1.4-8.1,0-12,0.7c-8.8,1.7-17.3,4.6-25.3,8.5&#10;&#9;c-0.2,0-0.5-0.1-0.7,0c-0.1,0-0.2-0.1-0.3-0.1c-1-0.9-2.3-1.4-3.5-1.8c-0.8-1-2-1.2-3.1-1.6c-1.9-0.7-3.8-1.3-5.8-1.6&#10;&#9;c-0.7-0.3-1.4-0.1-2.1-0.1c-0.3-0.1-0.6-0.3-0.8-0.4c-1.5-0.4-3.1-0.5-4.7-0.2c-0.2,0-0.3,0-0.5,0c-0.8-0.3-1.7-0.1-2.6-0.2&#10;&#9;c-0.3,0-0.7,0-1,0c-0.8,0.1-1.6,0.3-2.4,0.7c-0.1,0-0.1,0-0.2,0c-0.4,0-0.7,0.1-1,0.3c-0.4,0.1-0.8,0.3-1.2,0.4&#10;&#9;c-0.5,0.2-0.9,0.4-1.4,0.6c-0.9,0.2-1.6,0.7-2.4,1.2c-0.3,0-0.7-0.2-1,0c-0.3,0.1-0.7,0.2-1,0.4c-0.9-0.1-1.8,0-2.5,0.6&#10;&#9;c-1-0.1-1.8,0.5-2.7,0.9c-0.5,0.3-0.9,0.6-1.5,0.7c-1.5,0.8-2.8,1.9-4.1,2.9c-0.4,0.2-0.6,0.5-0.9,0.8c-0.3,0.1-0.3,0.4-0.5,0.5&#10;&#9;c-0.2,0.1-0.3,0.2-0.4,0.5c-0.1,0.2-0.2,0.4-0.3,0.6c-0.1,0.1-0.2,0.2-0.2,0.3c-0.5,0.5-1.2,0.9-1.7,1.6c-0.1,0-0.2,0.1-0.2,0.2&#10;&#9;c-0.2,1-1,1.6-1.7,2.2c-0.2,0.1-0.4,0.2-0.5,0.3c-0.6,0.2-1.3,0.4-1.9,0.7c-0.7,0.3-1.1,0.8-1.5,1.4c-0.2,0.4-0.4,0.7-0.4,1.2&#10;&#9;c-0.6,1.1-1.2,2.1-1.7,3.2c-1.4,1.6-2.6,3.4-3.6,5.3c-0.7,0.8-1.5,1.6-2.2,2.5c-0.2,0.2-0.4,0.4-0.7,0.6c-1,0.2-1.4,0.9-1.8,1.7&#10;&#9;c-0.2,0.1-0.3,0.3-0.3,0.5c-0.1,0.2-0.4,0.4-0.4,0.7c-0.1,0.2-0.2,0.4-0.3,0.5c-0.3,0-0.3,0.3-0.4,0.5c-1.3,1.7-2.7,3.2-3.5,5.2&#10;&#9;c-0.2,0.4-0.6,0.8-1,1.2c-0.5,0.5-0.8,1.2-1.2,1.7c-0.7,0.5-0.7,1.3-0.9,2c-0.4,0.8-0.3,1.6-0.3,2.4c-2.1,3.4-3.9,7-4.7,10.9&#10;&#9;c0,0.2-0.1,0.4-0.1,0.7c-0.3,0.5-0.3,1-0.4,1.5c-0.5,2.1-0.9,4.2-1.4,6.3c-0.6,2.1-1.3,4.1-2.4,6c-1.7,2.6-3.8,4.8-6,7&#10;&#9;c-1.3,1.1-2.6,2.2-4,3.2c-1.5,0.9-3.1,1.5-4.7,1.9c-0.4,0.3-0.9,0-1.4,0.2c-1.3-0.1-2.5-0.3-3.8-0.4c-0.6-0.3-1.3-0.2-2-0.4&#10;&#9;c-1.5-0.5-2.9-1.2-4.1-2.3c-0.2-0.2-0.5-0.3-0.8-0.5c-0.4-1.1-1.5-1.7-2.1-2.6c-0.6-1-1.2-1.9-1.8-2.9c-0.1-0.3-0.4-0.5-0.6-0.7&#10;&#9;c-0.5-1.9-1.1-3.7-1.6-5.6c0-0.2,0.2-0.5,0.1-0.7c-0.4-1.5,0-3.1-0.3-4.6c0-0.1,0-0.2,0-0.3c0.3-0.7,0.4-1.3,0.2-2.1&#10;&#9;c0.2-0.2,0.2-0.4,0.2-0.7c0,0,0,0,0-0.1c0.4-0.7,0.3-1.4,0.3-2.1l0.1-0.4c0.3-0.4,0.5-0.9,0.5-1.3c0-0.5,0.2-0.9,0.4-1.4&#10;&#9;c0.5-0.5,0.5-1.3,0.6-1.9c0.2-0.3,0.5-0.5,0.5-0.8c0.4-0.4,0.4-0.9,0.5-1.4c0.8-0.7,1-1.8,1.7-2.6c0.7-0.4,0.8-1.3,1.4-1.9&#10;&#9;c0.2-0.1,0.4-0.2,0.4-0.4c0.5-0.3,0.7-0.9,1.1-1.3c0.9-0.4,1.4-1.4,2.2-1.9c0.7-0.3,1.1-1,1.7-1.5c0.1,0,0.3,0,0.3-0.1&#10;&#9;c0.6-0.3,1-0.8,1.5-1.2c0.4-0.1,0.7-0.3,1-0.6c0.4-0.3,0.8-0.6,1.2-0.8c0.4-0.1,0.7-0.3,1-0.5c0.5-0.2,0.8-0.5,1.2-0.8&#10;&#9;c0.2-0.1,0.5-0.1,0.7-0.3c0.7-0.5,1.4-0.9,2-1.4c0.7-0.3,1.2-0.9,1.9-1.4c1-0.5,1.8-1.3,2.7-2c1.3-1,2.6-1.9,3.7-3&#10;&#9;c1.1-0.7,1.9-1.6,2.9-2.4c1.8-1.6,3.5-3.4,5-5.3c0.2-0.2,0.3-0.3,0.5-0.5c0.3-0.5,0.7-0.9,1-1.4c0.9-0.8,1.2-1.9,2-2.8&#10;&#9;c0.6-1.1,1.5-2.1,2-3.3c0.2-0.5,0.6-0.8,0.8-1.3c0.6-0.7,0.6-1.6,1.2-2.3c0.2-0.2,0.3-0.5,0.4-0.8c0.2-0.5,0.5-1,0.7-1.6&#10;&#9;c0.2-0.2,0.3-0.4,0.3-0.7c0.4-1.3,1.3-2.4,1.4-3.8c0.1-0.1,0.1-0.2,0.1-0.3c0.3-0.4,0.5-0.7,0.5-1.2c0.1-0.5,0.2-0.9,0.4-1.4&#10;&#9;c0.3-0.4,0.5-0.8,0.5-1.3c0.2-0.2,0.2-0.4,0.1-0.5c0.6-1.5,0.9-3.1,1.2-4.6c0.2-1.3,0.7-2.6,0.6-3.9c0.5-1.2,0.4-2.5,0.5-3.8&#10;&#9;c0.2-2.8,0.1-5.7-0.3-8.5c0-0.2,0-0.4-0.1-0.5c0-0.2,0-0.4-0.2-0.5c0.1-1.7-0.7-3.1-0.9-4.7c-0.3-0.6-0.5-1.2-0.7-1.9&#10;&#9;c-0.1-1-0.7-1.8-1-2.8c-1.1-2.9-2.5-5.6-4.3-8.2c-0.6-1.1-1.3-2.1-2-3.1c-0.6-0.9-1.3-1.7-2.1-2.4c-2.3-2.8-4.6-5.6-7-8.5&#10;&#9;c-0.3-0.3-0.6-0.6-0.9-0.9c-1.3-1.6-2.8-3.1-4.4-4.5c-0.6-0.5-1.1-1.1-1.8-1.5c-0.2-0.2-0.4-0.4-0.7-0.6c-0.1,0-0.1-0.1-0.2-0.1&#10;&#9;c-0.1-0.2-0.3-0.3-0.5-0.3c-0.1-0.1-0.1-0.1-0.2-0.2c-1.2-1.1-2.7-1.9-4.1-2.7c-0.5-0.5-1.2-0.7-1.9-1c-2.7-1.5-5.6-2.5-8.6-3.2&#10;&#9;c-0.2-0.1-0.4,0-0.7,0c-0.3-0.2-0.6-0.2-0.9-0.1c-0.6,0-1.2-0.1-1.7,0.1c-0.1,0-0.1,0-0.2,0.1c-0.3,0.1-0.6,0.1-0.8,0.2&#10;&#9;c-0.4,0.1-0.8,0.3-1,0.7c-0.2,0.3-0.4,0.6-0.4,1c-0.5,0.2-0.3,0.7-0.3,1.1c0.1,0.5,0.2,1,0.5,1.5c0.1,0.4,0.2,0.7,0.5,1&#10;&#9;c0.1,0.2,0.3,0.5,0.4,0.7c0.7,1.3,1.6,2.5,2.5,3.6c1,1.6,2,3.3,2.6,5.1c0.2,0.5,0.1,1,0.2,1.5c0,0.3,0,0.7,0,1c0,0.3,0,0.6-0.1,0.8&#10;&#9;c-0.1,0.5-0.4,0.7-0.9,0.7c-1.7,0.2-3.4,0.5-5,0.7c-0.4,0.1-0.9,0.1-1.2,0.5c-0.2,0.1-0.4,0.3-0.5,0.5c-0.8,0.9-0.7,1.9-0.2,2.9&#10;&#9;c0.3,0.8,0.8,1.4,1.4,1.9c0.2,0.3,0.5,0.6,0.8,0.7l0,0c0.2,0.3,0.5,0.5,0.9,0.6c0.4,0.4,1,0.7,1.5,0.9c0.2,0.2,0.4,0.3,0.7,0.3&#10;&#9;c1.6,0.8,3.3,1,5,1.4c1.9,0.5,3.7,0.9,5.5,1.8c0.1,0,0.2,0,0.3,0c0.8,0.5,1.6,1,2.4,1.5c0.2,0.2,0.4,0.4,0.7,0.6&#10;&#9;c1.3,1.8,2.6,3.6,3.9,5.3c0.3,0.8,0.5,1.5,1.1,2.1c0.3,0.8,0.3,1.7,0.8,2.4c0.1,0.1,0.1,0.2,0.2,0.3c0.1,0.7-0.1,1.6,0.4,2.2&#10;&#9;c0,0.1,0,0.1,0,0.1c0.2,0.9-0.3,1.7,0,2.6c0.1,0.4-0.1,0.7-0.2,1c-0.2,1.2-0.3,2.4-0.7,3.6c0.2,0.9-0.7,1.5-0.7,2.4&#10;&#9;c0,0.7-0.6,1.2-0.8,1.9c-0.3,0.7-0.6,1.4-0.9,2c-0.1,0.2-0.2,0.3-0.3,0.5c-0.2,0.5-0.5,1-0.8,1.4c-0.6,0.7-0.9,1.6-1.5,2.3&#10;&#9;c-0.1,0.1-0.1,0.1-0.2,0.2c-0.4,0.3-0.4,0.8-0.7,1.1c-0.5,0.2-0.7,0.6-1,1.1c-0.4,0.4-0.7,0.8-1.1,1.2c-0.1,0.1-0.1,0.1-0.2,0.2&#10;&#9;c-0.6,0.8-1.3,1.4-2,2.1c-0.3,0.5-0.8,0.8-1.3,1.1c-0.2,0.1-0.3,0.3-0.5,0.4c-0.5,0.4-0.9,0.8-1.4,1.2c-0.3,0.1-0.5,0.3-0.7,0.5&#10;&#9;c-0.4,0.4-0.9,0.5-1.2,1c-0.1,0-0.1,0-0.2,0c-0.8,0.3-1.3,1.1-2.1,1.3c-0.9,0.5-1.6,1.2-2.5,1.5c-0.7,0.4-1.4,0.8-2.1,1.2&#10;&#9;c-0.3,0.1-0.5,0.2-0.6,0.4c-0.5,0.3-1,0.6-1.6,0.8c0,0,0,0,0,0c0,0,0,0,0,0c-0.1,0.1-0.2,0.1-0.3,0.2c-0.7,0.4-1.5,0.8-2.2,1.2&#10;&#9;c-0.6,0.3-1.1,0.7-1.7,1c-0.2,0.1-0.4,0.3-0.7,0.4c-0.2-0.1-0.4,0.1-0.5,0.2c-0.6,0.3-1.2,0.7-1.7,1c-0.3,0.1-0.6,0.3-0.8,0.5&#10;&#9;c0,0,0.1,0.1,0.1,0.1c0,0-0.1-0.1-0.1-0.1c-0.3,0.2-0.7,0.4-1,0.7c-0.6,0.1-1.1,0.5-1.5,0.9c-0.4,0.2-0.7,0.4-1.1,0.6&#10;&#9;c-0.4,0.2-0.8,0.4-1.1,0.7c-0.5,0.5-1.2,0.6-1.6,1.2c-0.1,0-0.1,0.1-0.2,0.1c-0.2,0.1-0.3,0.1-0.5,0.2c-0.5,0.4-1.1,0.8-1.6,1.1&#10;&#9;c0,0-0.1,0-0.1,0.1c-0.5,0.1-0.8,0.5-1.2,0.9c-0.3,0.3-0.8,0.4-1,0.8c-0.1,0.1-0.3,0.2-0.4,0.3c-0.4,0-0.6,0.3-0.8,0.6&#10;&#9;c-0.4,0.3-0.8,0.6-1,1c-0.9,0.5-1.6,1.4-2.4,2.1c-0.5,0.2-0.8,0.6-1.1,1c-0.4,0.5-0.8,0.9-1.3,1.4c-0.8,0.7-1.3,1.7-2.1,2.4&#10;&#9;c-0.3,0.3-0.6,0.6-0.7,1c-0.3,0.5-1,0.7-1.2,1.4c-0.2,0.2-0.5,0.5-0.5,0.8c-0.3,0.5-0.8,0.8-1,1.4c-0.3,0.2-0.4,0.5-0.5,0.9&#10;&#9;c-0.2,0.7-1,1.1-1.2,1.9c-0.2,0.2-0.4,0.5-0.4,0.8c-0.4,0.8-1.2,1.4-1.3,2.4c-0.3,0.9-1,1.6-1.2,2.5c-0.2,0.2-0.1,0.5-0.2,0.7&#10;&#9;c-0.3,0.6-0.8,1.1-0.8,1.9c-0.1,0.2-0.1,0.3-0.2,0.5c0,0,0,0.1,0,0.1c-0.3,0.7-0.5,1.3-0.8,2c-0.7,2.1-1.3,4.3-1.7,6.5l0,0.3&#10;&#9;c0,0.1,0,0.1,0,0.2c-0.1,0.9-0.6,1.7-0.5,2.7c-0.2,0.9-0.3,1.8-0.4,2.8c0,0,0,0.1,0,0.1c-0.1,0.9-0.2,1.9-0.2,2.8c0,0.1,0,0.2,0,0.3&#10;&#9;c0.2,1.1-0.4,2.3,0,3.4C492.8,530.3,493.1,533.9,494,537.4z" transform="matrix(1, 0, 0, 1, -407.1079433154169, -130.8084539177405)"/>



</svg>