<?xml version="1.0" encoding="UTF-8" standalone="no"?>
<!-- Created with Inkscape (http://www.inkscape.org/) -->

<svg
   xmlns:dc="http://purl.org/dc/elements/1.1/"
   xmlns:cc="http://creativecommons.org/ns#"
   xmlns:rdf="http://www.w3.org/1999/02/22-rdf-syntax-ns#"
   xmlns:svg="http://www.w3.org/2000/svg"
   xmlns="http://www.w3.org/2000/svg"
   xmlns:sodipodi="http://sodipodi.sourceforge.net/DTD/sodipodi-0.dtd"
   xmlns:inkscape="http://www.inkscape.org/namespaces/inkscape"
   width="576"
   height="576"
   viewBox="0 0 152.4 152.4"
   version="1.1"
   id="svg8"
   inkscape:version="0.92.4 (5da689c313, 2019-01-14)"
   sodipodi:docname="logo.svg">
  <defs
     id="defs2">
    <inkscape:path-effect
       effect="simplify"
       id="path-effect3894"
       is_visible="true"
       steps="1"
       threshold="0.00113885"
       smooth_angles="360"
       helper_size="0"
       simplify_individual_paths="false"
       simplify_just_coalesce="false"
       simplifyindividualpaths="false"
       simplifyJustCoalesce="false" />
    <inkscape:path-effect
       effect="simplify"
       id="path-effect3890"
       is_visible="true"
       steps="1"
       threshold="0.00113885"
       smooth_angles="360"
       helper_size="0"
       simplify_individual_paths="false"
       simplify_just_coalesce="false"
       simplifyindividualpaths="false"
       simplifyJustCoalesce="false" />
    <inkscape:path-effect
       effect="simplify"
       id="path-effect3886"
       is_visible="true"
       steps="1"
       threshold="0.00113885"
       smooth_angles="360"
       helper_size="0"
       simplify_individual_paths="false"
       simplify_just_coalesce="false"
       simplifyindividualpaths="false"
       simplifyJustCoalesce="false" />
    <inkscape:path-effect
       effect="simplify"
       id="path-effect3882"
       is_visible="true"
       steps="1"
       threshold="0.00113885"
       smooth_angles="360"
       helper_size="0"
       simplify_individual_paths="false"
       simplify_just_coalesce="false"
       simplifyindividualpaths="false"
       simplifyJustCoalesce="false" />
  </defs>
  <sodipodi:namedview
     id="base"
     pagecolor="#ffffff"
     bordercolor="#666666"
     borderopacity="1.0"
     inkscape:pageopacity="0.0"
     inkscape:pageshadow="2"
     inkscape:zoom="1"
     inkscape:cx="151.18234"
     inkscape:cy="293.31335"
     inkscape:document-units="mm"
     inkscape:current-layer="layer1"
     showgrid="false"
     inkscape:window-width="1366"
     inkscape:window-height="705"
     inkscape:window-x="-8"
     inkscape:window-y="-8"
     inkscape:window-maximized="1"
     units="px"
     height="8.5in" />
  <metadata
     id="metadata5">
    <rdf:RDF>
      <cc:Work
         rdf:about="">
        <dc:format>image/svg+xml</dc:format>
        <dc:type
           rdf:resource="http://purl.org/dc/dcmitype/StillImage" />
        <dc:title></dc:title>
      </cc:Work>
    </rdf:RDF>
  </metadata>
  <g
     inkscape:label="Layer 1"
     inkscape:groupmode="layer"
     id="layer1"
     transform="translate(0,-144.6)">
    <path
       inkscape:connector-curvature="0"
       d="m 29.023389,200.44004 c 0.846667,1.03187 1.613959,2.16958 2.989792,2.64583 0.740833,0.42333 1.42875,0.9525 2.328333,1.03188 0,0 0,0 0,0 1.481667,0.68791 3.069167,0.84666 4.656667,1.08479 1.534583,0.21166 2.963333,0.13229 4.445003,-0.15875 0.18521,-0.0265 0.37041,0.0794 0.55562,0.10583 v 0 c 0,0.18521 0.0529,0.3175 0.26459,0.3175 v 0 c 0,0.10583 0.0265,0.18521 0.0265,0.29104 0,0 0,0 0,0 0.0794,0.58209 0.44979,0.97896 0.89958,1.29646 0,0 0,0 0,0 v 0 c 0.0794,0.50271 -0.21167,1.05833 0.29104,1.45521 v 0 0 c 0.0794,0.15875 0.18521,0.3175 0.26458,0.47625 v 0 c 0,0.0265 0,0.0794 0.0265,0.10583 0.0265,0.29104 0.21167,0.44979 0.4498,0.58209 v 0 0 0 c 0.23812,0.21166 0.37041,0.47625 0.26458,0.8202 -0.0529,0.18521 -0.0794,0.39688 0.15875,0.50271 v 0 c 0.13229,0.15875 0.26458,0.3175 0.39687,0.44979 v 0 c 0.0794,0.3175 0.29105,0.50271 0.58209,0.60855 v 0 c 0.82021,0.37041 1.29646,1.1377 2.03729,1.5875 0,0 0,0 0,0 0.18521,0.26458 0.47625,0.37041 0.76729,0.42333 0.58208,0.15875 1.16417,0.29104 1.74625,0.44979 v 0 c 0.52917,0.21167 1.05833,0.23813 1.61396,0.3175 0.15875,0.15875 0.37042,0.10583 0.58208,0.13229 0,0 0,0 0,0 0.44979,0.3175 0.9525,0.34396 1.48167,0.29104 0.29104,0 0.58208,0 0.84667,0 0.0529,-0.0265 0.10583,-0.0529 0.18521,-0.0794 0,0 0,0 0,0 0.44979,-0.10583 0.39687,0.44979 0.71437,0.50271 v 0 0 c 0.23813,0.21166 0.15875,0.66146 0.55563,0.79375 0,0 0,0 0,0 0.42333,2.30187 0.9525,4.60375 0.60854,6.985 v 0 c 0,0.10583 0,0.21166 0,0.3175 v 0 c -0.21167,0.23812 -0.15875,0.47625 -0.0265,0.74083 -0.0265,0.0529 -0.0265,0.0794 0,0.13229 v 0 c -0.18521,0.68792 -0.15875,1.40229 -0.42334,2.06375 v 0 0 0 c -0.0529,0.0529 -0.0529,0.0794 -0.0529,0.13229 -0.21166,0.4498 -0.21166,0.9525 -0.26458,1.45521 0,0 0,0 0,0 -0.34396,0.79375 -0.18521,1.69334 -0.34396,2.51354 -0.26458,1.37584 -0.58208,2.75167 -0.87312,4.1275 -0.0265,0.18521 -0.0529,0.37042 -0.0529,0.58209 -0.21167,0.87312 -0.42334,1.77271 -0.60854,2.67229 -0.0794,0.37042 -0.42334,0.58208 -0.4498,0.9525 0,0 0,0 0,0 -0.15875,0.34396 -0.29104,0.68792 -0.44979,1.05833 -0.3175,0.42334 -0.18521,0.92604 -0.26458,1.37584 -0.10584,0.55562 -0.0265,1.1377 -0.0265,1.69333 0,0.18521 0,0.39687 0,0.58208 0,0.79375 0.0529,1.56104 0.58208,2.19604 v 0 c 0.0794,0.4498 0.34396,0.79375 0.74084,1.00542 0.0529,0.0529 0.0794,0.10583 0.13229,0.15875 v 0 c 0.21166,0.55563 0.44979,1.08479 0.66146,1.64042 0,0.0529 0.0265,0.0794 0.0529,0.13229 0.23812,0.89958 0.23812,1.79917 -0.0794,2.69875 -0.0794,0.23812 -0.0794,0.52917 -0.10584,0.79375 -0.15875,0.29104 -0.37041,0.55562 -0.42333,0.87312 v 0 c -0.15875,0.21167 -0.0529,0.34396 0.13229,0.4498 v 0 c 0.29104,0.26458 0.39688,0.74083 0.89958,0.71437 0.39688,0.0529 0.79375,0.0794 1.16417,0.13229 v 0 0 c 0.10583,0 0.18521,0 0.29104,0 v 0 c 0.29104,0 0.58209,0 0.87313,0 0.44979,0.15875 0.87312,0.23813 1.32291,0 v 0 0 0 c 0,0 0,0 0,0 0.39688,-0.0794 0.66146,-0.37041 0.89959,-0.68791 v 0 c 0.37041,-0.18521 0.60854,-0.50271 0.89958,-0.7673 0.0529,-0.0529 0.0794,-0.10583 0.13229,-0.15875 0,-0.0794 0,-0.13229 0,-0.1852 0.0265,0.0265 0.0265,0.0794 0,0.1852 0.10584,-0.13229 0.18521,-0.29104 0.29104,-0.42333 0.52917,-0.60854 1.16417,-1.16417 1.50813,-1.905 0.55562,-0.52917 0.18521,-0.92604 -0.15875,-1.34937 v 0 c -0.0265,-0.18521 -0.13229,-0.3175 -0.29104,-0.4498 -0.15875,-0.42333 -0.44979,-0.74083 -0.89959,-0.87312 -1.24354,-0.89958 -1.79916,-2.11667 -1.5875,-3.65125 v 0 c 0.29105,-0.18521 0.0265,-0.37042 0,-0.55563 0.42334,-0.42333 0.23813,-1.05833 0.58209,-1.50812 0.42333,-1.11125 0.84666,-2.24896 1.29646,-3.36021 v 0 c 0.3175,-0.68792 0.635,-1.37583 0.92604,-2.03729 v 0 c 0.23812,-0.42333 0.47625,-0.84667 0.71437,-1.27 0,0 0,0 0,0 0.18521,-0.34396 0.39688,-0.71438 0.58209,-1.05833 v 0 c 0.1852,-0.29105 0.39687,-0.58209 0.58208,-0.87313 0,0 0,0 0,0 0.0794,-0.21167 0.18521,-0.39687 0.26458,-0.60854 0.3175,-0.21167 0.23813,-0.55563 0.29104,-0.87313 v 0 c 0.66146,-0.13229 0.26459,0.55563 0.55563,0.71438 0,0.3175 -0.0265,0.635 0.15875,0.92604 0.15875,1.66688 0,3.33375 0.44979,4.97417 0.58208,1.45521 0,2.91041 0,4.36562 0,0 0,0 0,0 -0.15875,0.42334 -0.26458,0.84667 -0.29104,1.32292 v 0 c -0.0794,0.10583 -0.0529,0.21167 0.0265,0.29104 v 0 c 0.0529,0.34396 -0.13229,0.71438 0.15875,1.00542 v 0 c 0.0529,0.0265 0.0794,0.0529 0.13229,0.0794 v 0 c 0,0.3175 -0.13229,0.66146 0.13229,0.9525 0.635,1.08479 0.76729,2.16959 0.15875,3.30729 0,0 0,0 0,0 -0.42333,0.79375 -0.44979,1.7198 -0.87312,2.54 v 0 c -0.3175,0.15875 -0.3175,0.47625 -0.42334,0.74084 v 0 c -0.21166,0.21166 -0.3175,0.44979 -0.26458,0.74083 -0.0529,0.0529 -0.10583,0.10583 -0.13229,0.15875 v 0 0 c -0.23813,0.0794 -0.37042,0.21167 -0.44979,0.44979 -0.0265,0.0529 -0.0265,0.0794 0,0.13229 -0.635,0.66146 -0.55563,1.82563 0.13229,2.19605 v 0 0 c 0.23812,0 0.50271,0 0.74083,0 0.13229,0.0529 0.26458,0.10583 0.42333,0.13229 0.82021,0.55562 1.74625,0.21166 2.61938,0.29104 0.60854,0.18521 1.19062,0.0794 1.79917,0 v 0 c 0.29104,0 0.58208,-0.0265 0.87312,-0.0265 0,0 0,0 0,0 0,0 0,0 0,0 0.82021,0 1.69333,0.15875 2.35479,-0.58208 0.15875,-0.29104 0.3175,-0.58209 0.47625,-0.84667 0.15875,-0.15875 0.29104,-0.34396 0.26459,-0.58208 0,0 0,0 0,0 0.1852,-0.26459 0.15875,-0.58209 0.15875,-0.89959 0,0 0,0 0,0 0.23812,-0.34395 0.13229,-0.71437 0,-1.05833 0.0265,-0.0529 0.0265,-0.0794 0,-0.10583 -0.18521,-0.66146 -0.26459,-1.34938 -0.71438,-1.93146 0.0265,-0.21167 -0.0794,-0.37042 -0.15875,-0.55563 0,0 0,0 0,0 0,0 0,0 0,0 -0.15875,-1.16416 -0.10583,-2.32833 -0.10583,-3.4925 -0.0265,-0.0265 -0.0529,-0.0265 -0.0529,-0.0529 v 0 c 0,0 0,0 0,0 0.0265,0.0265 0.0529,0.0265 0.0529,0.0529 0.42333,-0.39687 0.23812,-0.92604 0.23812,-1.37583 -0.0265,-2.69875 0.635,-5.29167 0.9525,-7.9375 0.18521,-1.56104 0.44979,-3.09562 0.66146,-4.65667 0.0794,-0.1852 0.13229,-0.37041 0.21167,-0.52916 v 0 c 0.23812,-0.39688 0.44979,-0.79375 0.68791,-1.19063 v 0 0 c 0.0794,-0.10583 0.0794,-0.23812 0.0794,-0.37041 0.21167,-0.60855 0.79375,-0.58209 1.42875,-0.50271 0.3175,0.0529 0.635,0 0.9525,0 0.0265,0.0265 0.0529,0.0265 0.0794,0.0265 0.37042,0.1852 0.7673,0.0794 1.13771,0.0794 0.50271,0 0.89959,0.0265 0.68792,0.68792 -0.0265,0.13229 0.0529,0.29104 0.18521,0.37041 v 0 c 0.34396,0.68792 0.52916,1.45521 1.03187,2.0373 0.47625,0.26458 -0.0794,0.92604 0.44979,1.16416 v 0 c 0.0529,0.18521 0.0794,0.39688 0.1323,0.58209 v 0 c 0,0.23812 0.0265,0.47625 0.0265,0.71437 0.18521,0.79375 0.0529,1.66688 0.58208,2.35479 0.26458,0.18521 0.0529,0.55563 0.26458,0.76729 0.26459,1.21709 0.0794,2.43417 0.15875,3.6248 v 0 c -0.23812,0.37041 -0.15875,0.76729 -0.13229,1.16416 v 0 c -0.0529,0.39688 -0.10583,0.76729 -0.13229,1.16417 v 0 c -0.39687,0.66146 -1.11125,1.13771 -1.32292,1.905 v 0 c -0.55562,0.55562 -0.55562,1.32292 -0.74083,2.03729 v 0 c -0.50271,0.37042 -0.37042,0.79375 -0.13229,1.21708 0.0265,0.0529 0.0794,0.10584 0.10583,0.15875 v 0 0 c 0.21167,0.3175 0.58209,0.26459 0.87313,0.3175 v 0 c 0.39687,0.3175 0.87312,0.23813 1.34937,0.26459 0.92604,0.29104 1.85209,0.10583 2.80459,0.13229 0.58208,0 1.1377,-0.10583 1.69333,-0.23813 0.0794,0 0.15875,-0.0265 0.23812,-0.0529 0.15875,0.0265 0.29105,0.0529 0.42334,-0.10584 v 0 c 0.44979,-0.10583 0.92604,-0.15875 1.32291,-0.47625 v 0 c 0.29105,-0.0529 0.4498,-0.21166 0.55563,-0.44979 v 0 c 0.0794,-0.10583 0.18521,-0.21166 0.26458,-0.3175 v 0 0 c 0.50271,-0.29104 0.13229,-0.74083 0.21167,-1.13771 v 0 c -0.15875,-0.87312 0.29104,-1.79916 -0.18521,-2.67229 -0.26458,-0.34396 -0.0265,-0.84666 -0.34396,-1.19062 0,0 0,0 0,0 -0.21166,-1.79917 -0.3175,-3.59834 -0.18521,-5.3975 v 0 c 0.23813,-0.29104 0.1323,-0.68792 0.26459,-1.03188 0.26458,-0.76729 0.60854,-1.48166 0.60854,-2.32833 0,-0.23813 0.15875,-0.3175 0.29104,-0.47625 v 0 c 0.26458,-0.18521 0.13229,-0.37042 0,-0.55563 0,0 0,0 0,0 0.15875,-0.23812 0.34396,-0.44979 0.29104,-0.76729 0.23813,-0.42333 0.0265,-0.9525 0.39688,-1.32291 v 0 c 0,0 0,0 0,0 0.37041,-0.18521 0.55562,-0.47625 0.58208,-0.89959 0.37042,-0.23812 0.23813,-0.87312 0.74083,-1.00541 0.18521,0.23812 0.39688,0.47625 0.58209,0.74083 0.13229,0.47625 0.44979,0.82021 0.71437,1.19062 0.0794,0.18521 0.21167,0.34396 0.39688,0.4498 0.42333,0.635 0.76729,1.32291 1.08479,2.03729 v 0 0 c 0.0529,0.0529 0.0794,0.10583 0.13229,0.15875 0.13229,0.26458 0.0529,0.60854 0.3175,0.84666 v 0 c 0.10583,0.15875 0.21167,0.3175 0.29104,0.47625 v 0 c 0.29104,0.92605 0.60854,1.82563 1.375836,2.48709 0.34395,0.3175 0.44979,0.79375 0.635,1.19062 v 0 c 0,0.21167 -0.0794,0.42334 0.10583,0.58209 v 0 c 0.18521,0.68791 0.3175,1.37583 0.635,2.03729 0.58208,1.13771 0.34396,2.35479 0,3.51896 -0.0265,0.0265 -0.0529,0.0794 -0.0265,0.10583 0,0 0,0 0,0 -0.635,0.66146 -1.13771,1.37583 -1.42875,2.2225 -0.0529,0.10583 -0.105836,0.21167 -0.158746,0.3175 v 0 c 0,0 0,0 0,0 0,0.0265 -0.0265,0.0265 -0.0265,0.0529 -0.26458,0.635 -0.13229,1.32291 -0.39688,1.95791 0.10584,0.23813 0.21167,0.47625 0.29105,0.68792 v 0 0 c 0.502696,0.58208 1.137696,0.26458 1.746246,0.3175 v 0 c 0.1852,0.0529 0.39687,0.10583 0.58208,0.15875 0,0 0,0 0,0 v 0 c 0.18521,0.21167 0.42333,0.18521 0.66146,0.15875 1.08479,-0.13229 2.19604,0 3.30729,-0.18521 0.44979,-0.0529 0.87312,-0.10583 1.32292,-0.13229 v 0 c 0.79375,-0.0794 1.61395,-0.0529 2.19604,-0.76729 v 0 c 0,0 0,0 0,0 0.0529,-0.0529 0.10583,-0.0794 0.15875,-0.13229 v 0 0 c 0.42333,-0.3175 0.42333,-0.71438 0.3175,-1.19063 -0.13229,-0.66146 -0.0529,-1.37583 -0.3175,-2.01083 -0.0529,-0.0529 -0.0794,-0.10584 -0.13229,-0.15875 0,0 0,0 0,0 -0.10584,-0.71438 -0.26459,-1.40229 -0.60855,-2.03729 v 0 c -0.0529,-0.18521 -0.0794,-0.39688 -0.13229,-0.58209 -0.10583,-0.68791 -0.21166,-1.34937 -0.3175,-2.03729 0,0 0,0 0,0 v 0 c -0.26458,-0.42333 0.26459,-0.92604 -0.13229,-1.32292 0.0265,-0.39687 0,-0.76729 -0.23812,-1.11125 0,-0.0265 -0.0265,-0.0529 -0.0529,-0.0794 -0.1323,-0.44979 -0.26459,-0.89958 -0.42334,-1.34938 v 0 c -0.0265,-0.1852 0.0265,-0.39687 -0.15875,-0.55562 -0.21166,-1.53458 -0.15875,-3.09563 -0.13229,-4.63021 0,-0.39687 0.0794,-0.82021 0.13229,-1.21708 0,0 0,0 0,0 -0.10583,-0.55563 -0.0794,-1.08479 0.15875,-1.5875 0.0265,-0.0265 0.0265,-0.0529 0.0265,-0.0794 0.47625,-1.11125 1.11125,-2.16958 1.00542,-3.43958 -0.0265,-0.3175 0,-0.635 -0.15875,-0.89958 0,-0.18521 0,-0.37042 0,-0.55563 -0.0529,-0.74083 0,-1.48167 0.26458,-2.19604 v 0 c -0.0265,-0.10583 -0.0794,-0.18521 -0.10583,-0.29104 v 0 c 0.10583,-0.89959 0.0265,-1.79917 -0.13229,-2.67229 v 0 c 0.0529,-0.0794 0.18521,-0.15875 0.0265,-0.26459 0,0 0,0 0,0 0.0265,-0.13229 0.13229,-0.13229 0.23812,-0.13229 v 0 c 0.13229,0.21167 0.29104,0.39688 0.42334,0.60854 0.0794,0.15875 0.0794,0.37042 0.26458,0.47625 0,0 0,0 0.0265,-0.0265 0,0 0,0 0,0 0,0 0,0 -0.0265,0 v 0 c 0.0265,0.18521 0.15875,0.29105 0.29104,0.42334 v 0 c 0.0529,0.3175 0.0794,0.66146 0.44979,0.76729 v 0 c -0.0265,0.0265 0,0.0794 0.0265,0.0794 0.0265,0.18521 0.10584,0.34396 0.23813,0.47625 v 0 c 0.18521,0.29105 0.3175,0.635 0.635,0.82021 0.0529,0.10584 0.10583,0.21167 0.15875,0.3175 v 0 c -0.0265,0.23813 0.13229,0.42334 0.29104,0.58209 v 0 c 0.18521,0.23812 0.37042,0.5027 0.58208,0.74083 0.10584,0.3175 0.3175,0.55562 0.60854,0.71437 v 0 0 c 0.0529,0.0529 0.0794,0.10584 0.1323,0.15875 0,0.42334 0.26458,0.66146 0.55562,0.89959 0.635,0.79375 1.19063,1.69333 2.2225,2.06375 0.76729,0.47625 1.34938,1.16416 2.03729,1.74625 0,0 0,0 0,0 0.34396,0.60854 0.79375,1.05833 1.53459,1.05833 0.0265,0 0.0794,0 0.13229,0 0.0529,0.0265 0.0794,0.0794 0.13229,0.10583 v 0 0 c 0.10583,0.23813 0.29104,0.34396 0.55562,0.34396 v 0 c 0.10584,0.18521 0.26459,0.39688 0.50271,0.26459 0.26459,-0.1323 0.0794,-0.34396 0.0265,-0.55563 -0.13229,-0.39687 -0.23812,-0.82021 -0.37041,-1.21708 -0.1323,-0.23813 -0.29105,-0.50271 -0.42334,-0.74084 v 0 0 0 0 0 c -0.0529,-0.29104 0,-0.635 -0.3175,-0.8202 -0.0794,-0.0794 -0.15875,-0.1323 -0.23812,-0.21167 0,0 0,0 0,0 -0.76729,-0.52917 -1.66688,-0.60854 -2.51354,-0.87313 0,0 0,0 0,0 v 0 0 0 0 c 0,0 0,0 0,0 -0.50271,-0.37041 -1.05834,-0.68791 -1.29646,-1.32291 -0.26459,-0.34396 -0.52917,-0.66146 -0.79375,-1.00542 v 0 c 0,0 0,0 0,0 -0.3175,-0.52917 -0.47625,-1.13771 -0.87313,-1.61396 -0.0265,-0.0265 -0.0794,-0.0265 -0.10583,-0.0265 v 0 c -0.10583,-0.13229 -0.21167,-0.29104 -0.3175,-0.42333 v 0 c -0.50271,-1.16417 -0.97896,-2.32833 -1.48167,-3.51896 -0.37041,-0.50271 -0.52916,-1.11125 -0.71437,-1.69333 -0.10584,-0.34396 -0.21167,-0.68792 -0.44979,-0.9525 v 0 c -0.18521,-0.21167 -0.15875,-0.55563 -0.4498,-0.71438 -0.10583,-0.42333 -0.37041,-0.76729 -0.60854,-1.11125 -0.42333,-0.92604 -1.11125,-1.69333 -1.45521,-2.67229 -0.0794,-0.47625 -0.39687,-0.76729 -0.71437,-1.05833 v 0 c 0,-0.21167 -0.10583,-0.3175 -0.26458,-0.42333 0,0 0,0 0,0 -0.34396,-0.60855 -0.84667,-1.11125 -1.32292,-1.64042 0,0 0,0 0,0 -0.3175,-0.55563 -0.76729,-0.97896 -1.32292,-1.29646 -0.13229,-0.39687 -0.44979,-0.635 -0.76729,-0.84667 -0.0529,-0.0529 -0.0794,-0.10583 -0.13229,-0.15875 -0.0529,-0.0529 -0.10583,-0.0794 -0.15875,-0.13229 v 0 0 c -0.44979,-0.66146 -1.19063,-1.08479 -1.74625,-1.64041 v 0 c -0.23813,-0.29105 -0.47625,-0.60855 -0.87313,-0.71438 0,-0.0529 -0.0265,-0.0794 -0.0529,-0.10583 v 0 c -0.0794,-0.21167 -0.23812,-0.34396 -0.42333,-0.44979 v 0 c -0.13229,-0.21167 -0.29104,-0.39688 -0.555616,-0.4498 v 0 c -0.10584,-0.0794 -0.21167,-0.1852 -0.3175,-0.26458 v 0 0 c -0.55563,-0.74083 -1.27,-1.27 -2.0373,-1.77271 -0.1852,-0.21166 -0.34395,-0.44979 -0.60854,-0.55562 v 0 0 c -0.13229,-0.21167 -0.37041,-0.23813 -0.55562,-0.34396 -0.0529,-0.0265 -0.0794,-0.0794 -0.13229,-0.10583 0,0 0,0 0,0 -0.34396,-0.29105 -0.74084,-0.52917 -1.19063,-0.58209 -0.10583,-0.10583 -0.21167,-0.18521 -0.3175,-0.29104 v 0 c -0.0265,-0.0529 -0.0794,-0.10583 -0.10583,-0.15875 0,0 0,0 0,0 -0.44979,-0.34396 -0.92604,-0.58208 -1.45521,-0.74083 -0.0794,0 -0.15875,0 -0.26458,-0.0265 0,0 0,0 0,0 -0.3175,-0.18521 -0.68792,-0.29104 -1.05834,-0.29104 -0.21166,-0.0794 -0.39687,-0.18521 -0.60854,-0.26459 0,0 0,0 0,0 0,0 0,0 0,0 -0.9525,-0.34395 -1.95792,-0.23812 -2.93687,-0.34395 -0.47625,-0.0529 -1.11125,-0.18521 -1.61396,0.1852 -0.76729,-0.0794 -1.50813,0.0529 -2.19604,0.4498 -0.55563,0.1852 -1.13771,0.26458 -1.64042,0.55562 0,0 0,0 0,0 -0.50271,0.15875 -0.60854,-0.0529 -0.58208,-0.52917 0.0265,-0.66145 0.1852,-1.34937 -0.26459,-1.95791 -0.10583,-0.26459 -0.18521,-0.50271 -0.29104,-0.76729 v 0 c 0,-0.10584 -0.0265,-0.21167 -0.10583,-0.26459 -0.3175,-1.03187 -0.82021,-1.95791 -1.48167,-2.80458 v 0 c -0.0794,-0.29104 -0.18521,-0.52917 -0.44979,-0.71438 -0.71438,-0.44979 -1.00542,-1.34937 -1.77271,-1.71979 v 0 c -0.0529,-0.0265 -0.0794,-0.0265 -0.13229,-0.0265 v 0 c -0.21167,-0.1852 -0.42333,-0.29104 -0.71438,-0.29104 0,0 0,0 0,0 -0.55562,-0.23812 -1.11125,-0.0794 -1.64041,0 -1.61396,0.26459 -3.22792,0.13229 -4.84188,0.0265 -1.19062,-0.15875 -2.35479,-0.23812 -3.51896,0.13229 v 0 c -0.29104,0 -0.58208,0.0529 -0.79375,0.29104 -0.34395,0.37042 -0.84666,0.29105 -1.27,0.4498 -0.13229,0 -0.29104,0 -0.42333,0 v 0 c -0.18521,-0.0529 -0.37042,-0.10584 -0.58208,-0.15875 v 0 c -0.60854,-0.3175 -1.24354,-0.3175 -1.905,-0.29105 -1.40229,-0.47625 -2.83104,-0.29104 -4.23334,-0.21166 -0.47625,0.0265 -0.89958,-0.13229 -1.34937,-0.0794 -0.21167,-0.13229 -0.44979,-0.15875 -0.68792,-0.15875 0,0 0,0 0,0 -0.44979,-0.21166 -0.89958,-0.18521 -1.34937,0.0265 -0.0529,0.0265 -0.10584,0.0529 -0.13229,0.0794 0,0 0,0 0,0 -0.82021,-0.34396 -1.05834,0.39687 -1.48167,0.79375 -0.37042,0.3175 -0.87313,0.44979 -1.19063,0.87312 0,0 0,0 0,0 -0.47625,0.13229 -0.9525,0.26458 -1.42875,0.39688 -0.0529,0 -0.10583,0.0265 -0.1852,0.0529 -0.71438,0.50271 -1.37584,0.23813 -2.0373,-0.13229 v 0 c -0.13229,-0.10583 -0.26458,-0.21167 -0.39687,-0.29104 v 0 c -0.37042,-0.21167 -0.26458,-0.76729 -0.635,-1.00542 v 0 0 c -0.13229,-0.29104 -0.29104,-0.58208 -0.42333,-0.87312 -0.1323,-0.50271 -0.26459,-0.97896 -0.39688,-1.48167 v 0 c -0.0265,-0.92604 -0.0265,-1.85208 -0.0529,-2.77812 0,-0.0529 0.0265,-0.0794 0.0265,-0.1323 v 0 c 0.10583,-0.10583 0.0529,-0.21166 -0.0265,-0.29104 0,-0.18521 0.0265,-0.37041 0.0265,-0.55562 v 0 c 0.23813,-0.3175 0.0794,-0.68792 0.15875,-1.03188 0.15875,-0.15875 0.3175,-0.37041 0.15875,-0.55562 -0.26458,-0.3175 0.0265,-0.52917 0.0794,-0.76729 0,-0.10584 0,-0.18521 0,-0.29105 0,-0.1852 0.0265,-0.39687 0.0265,-0.58208 v 0 c 0,-0.23812 -0.0529,-0.50271 0.13229,-0.71437 0.23813,-0.1323 0.37042,-0.34396 0.26459,-0.60855 -0.10584,-0.23812 0,-0.42333 0.1852,-0.58208 v 0 0 c 0.0265,-0.0265 0.0529,-0.0794 0.0529,-0.10583 0.26459,-0.60854 0.3175,-1.27 0.23813,-1.93146 v 0 c 0,0 0,0 0,0 0,0 0,0 0,0 -0.0265,-0.23813 0.34396,-0.47625 0,-0.74083 -0.0529,-0.0529 -0.10584,-0.10584 -0.13229,-0.15875 0.21166,-0.52917 0.0529,-1.05834 0,-1.61396 v 0 0 c -0.0529,-0.0529 -0.10584,-0.10584 -0.1323,-0.15875 0,-0.23813 0,-0.47625 0,-0.74084 0.10584,-0.10583 0.1323,-0.1852 0.0265,-0.3175 -0.10583,-0.13229 -0.21166,-0.29104 -0.3175,-0.42333 0.0794,-0.15875 0.10584,-0.29104 0,-0.44979 -0.15875,-0.635 -0.10583,-1.37583 -0.66145,-1.87854 -0.0794,-0.26459 -0.15875,-0.55563 -0.37042,-0.76729 v 0 c -0.10583,-0.23813 -0.37042,-0.3175 -0.55563,-0.4498 v 0 c -0.13229,-0.47625 -0.58208,-0.60854 -0.92604,-0.84666 0,0 0,0 0,0 0,0 0,0 0,0 -0.29104,-0.39688 -0.68791,-0.58209 -1.16416,-0.58209 -0.50271,-0.44979 -1.11125,-0.60854 -1.74625,-0.58208 -0.58209,-0.0529 -1.16417,-0.0529 -1.7198,-0.23812 -0.58208,-0.18521 -1.031871,0.0794 -1.402288,0.52916 -0.185208,0.23813 -0.396875,0.44979 -0.07937,0.74084 v 0 c 0.05292,0.10583 0.07937,0.21166 0.132292,0.3175 0.05292,0.0794 0.105833,0.1852 0.15875,0.26458 -0.264583,1.79917 0.529171,2.24896 2.354791,1.48167 v 0 c 0.44979,-0.0529 0.76729,0.10583 0.97896,0.47625 0,0.0264 0.0265,0.0529 0.0265,0.0794 0,0 0,0 0,0 v 0 0 c 0.3175,0.29104 0.18521,0.74083 0.42333,1.05833 v 0 0 c 0.0529,0.10584 0.10584,0.18521 0.15875,0.29105 v 0 0 c 0,0.10583 0,0.1852 0,0.29104 v 0 c -0.0794,0.21166 -0.0529,0.42333 0.13229,0.60854 0.0529,0.10583 0.10584,0.18521 0.1323,0.29104 v 0 c 0,0.0794 0,0.18521 0,0.26458 0,0 0,0 0,0 -0.10584,0.0794 -0.15875,0.18521 -0.1323,0.29105 v 0 c 0,0.0529 0,0.10583 0.0265,0.15875 0,0 0,0 0,0 0,0 0,0 0,0 0,0.23812 0,0.47625 0,0.74083 0.10584,0.39687 0.1323,0.76729 0,1.16417 v 0 c 0,0.26458 -0.23812,0.47625 -0.15875,0.74083 -0.1852,0.21167 -0.15875,0.44979 -0.15875,0.68792 -0.29104,0.39687 -0.60854,0.79375 -0.58208,1.34937 -0.15875,0.15875 -0.39687,0.29104 -0.44979,0.55563 0,0 0,0.0265 0,0.0265 -0.0794,0.23813 -0.15875,0.50271 -0.23813,0.74084 v 0 c -0.13229,0.15875 -0.21166,0.34396 -0.15875,0.55562 0,0 0,0 0,0 -0.10583,0.21167 -0.29104,0.34396 -0.29104,0.60854 v 0 c -0.10583,0.29105 -0.18521,0.55563 -0.29104,0.84667 -0.21167,0.3175 -0.29104,0.66146 -0.29104,1.03188 0,0 0,0 0,0 -0.15875,0.58208 -0.29104,1.19062 -0.26458,1.79916 v 0 0 c 0,0.13229 0,0.29104 0,0.42334 0,0.635 0,1.24354 0,1.87854 0,0 0,0 0,0 -0.10584,0.18521 -0.26459,0.37041 -0.15875,0.635 0,0.10583 0,0.18521 0,0.29104 v 0 c -0.0794,0.92604 -0.1323,1.85208 0.42333,2.67229 0,0 0,0 0,0 v 0 0 0 c 0,0.13229 0.0265,0.26458 0.0265,0.42333 0,0.26459 0.0265,0.50271 0.15875,0.74084 0.13229,0.39687 0.0794,0.87312 0.55562,1.08479 -0.0529,0.39687 0.21167,0.66146 0.39688,0.97896 0,0.0265 0.0265,0.0794 0,0.10583 -0.34396,0.82021 0.23812,1.34938 0.635,1.93146 0,0 0,0 0,0 0.29104,0.9525 1.03187,1.5875 1.61396,2.35479 0.0794,0.44979 -0.15875,0.60854 -0.58209,0.74083 -1.11125,0.37042 -2.24895,0.47625 -3.41312,0.42334 -0.15875,0 -0.29104,0 -0.396876,0.13229 v 0 0 c -1.693333,0.13229 -3.33375,-0.18521 -4.974167,-0.58208 0,0 0,0.0265 0,0.0265 0,0 0,0 0,0 v -0.0265 c -0.211666,-0.23813 -0.47625,-0.10584 -0.740833,-0.15875 v 0 c -0.555625,-0.37042 -1.137708,-0.66146 -1.74625,-0.87313 -0.635,-0.37042 -1.243542,-0.79375 -1.905,-1.13771 -0.264583,-0.13229 -0.529167,0 -0.582083,0.34396 -0.132292,0.10583 -0.15875,0.34396 -0.02646,0.52917 z m 29.104165,27.88708 v 0 c 0,0 0,0 0,0 0,0 -0.0265,-0.0265 0,0 -0.0265,-0.0265 0,-0.0265 0,0 z"
       id="path7173"
       style="stroke-width:0.26458332" />
    <g
       transform="matrix(0.11174388,0,0,0.09258876,16.754558,165.55443)"
       id="g9450">
      <linearGradient
         id="SVGID_1_"
         gradientUnits="userSpaceOnUse"
         x1="110.147"
         y1="851.46082"
         x2="175.0506"
         y2="851.46082"
         gradientTransform="matrix(0.6794,-0.7338,0.7338,0.6794,-405.8327,434.1327)">
        <stop
           offset="0"
           style="stop-color:#54B948"
           id="stop9016" />
        <stop
           offset="0.3764"
           style="stop-color:#00A651"
           id="stop9018" />
        <stop
           offset="1"
           style="stop-color:#005826"
           id="stop9020" />
      </linearGradient>
      <path
         inkscape:connector-curvature="0"
         d="m 360.3,904.9 c 0,0 -32.1,15.8 -88.9,6.1 0,0 32.1,-1.6 49.5,-5.3 20.6,-4.3 37.2,-1.4 39.4,-0.8 z"
         style="fill:#000000"
         id="path9023" />
      <linearGradient
         id="SVGID_2_"
         gradientUnits="userSpaceOnUse"
         x1="88.230301"
         y1="812.1275"
         x2="174.897"
         y2="812.1275"
         gradientTransform="matrix(0.6794,-0.7338,0.7338,0.6794,-405.8327,434.1327)">
        <stop
           offset="0"
           style="stop-color:#54B948"
           id="stop9025" />
        <stop
           offset="0.3764"
           style="stop-color:#00A651"
           id="stop9027" />
        <stop
           offset="1"
           style="stop-color:#005826"
           id="stop9029" />
      </linearGradient>
      <path
         inkscape:connector-curvature="0"
         d="m 346.9,892.8 c 0,0 -71.4,19.3 -134.9,-6.8 0,0 34.9,12.8 71.5,7.2 36.6,-5.7 56.1,-3.5 63.4,-0.4 z"
         style="fill:#000000"
         id="path9032" />
      <linearGradient
         id="SVGID_3_"
         gradientUnits="userSpaceOnUse"
         x1="104.2303"
         y1="782.16913"
         x2="174.897"
         y2="782.16913"
         gradientTransform="matrix(0.6794,-0.7338,0.7338,0.6794,-405.8327,434.1327)">
        <stop
           offset="0"
           style="stop-color:#54B948"
           id="stop9034" />
        <stop
           offset="0.3764"
           style="stop-color:#00A651"
           id="stop9036" />
        <stop
           offset="1"
           style="stop-color:#005826"
           id="stop9038" />
      </linearGradient>
      <path
         inkscape:connector-curvature="0"
         d="m 334.7,881.5 c 0,0 -92.6,9.2 -143.6,-36.7 0,0 30.6,23.4 81.7,25.6 51,2.3 61.9,11.1 61.9,11.1 z"
         style="fill:#000000"
         id="path9041" />
      <linearGradient
         id="SVGID_4_"
         gradientUnits="userSpaceOnUse"
         x1="112.2303"
         y1="764.5025"
         x2="176.5636"
         y2="764.5025"
         gradientTransform="matrix(0.6794,-0.7338,0.7338,0.6794,-405.8327,434.1327)">
        <stop
           offset="0"
           style="stop-color:#54B948"
           id="stop9043" />
        <stop
           offset="0.3764"
           style="stop-color:#00A651"
           id="stop9045" />
        <stop
           offset="1"
           style="stop-color:#005826"
           id="stop9047" />
      </linearGradient>
      <path
         inkscape:connector-curvature="0"
         d="m 317.8,863.5 c 0,0 -76,3.6 -129.1,-31.8 0,0 46,16.8 84.4,20.5 24.5,2.3 44.7,11.3 44.7,11.3 z"
         style="fill:#000000"
         id="path9050" />
      <linearGradient
         id="SVGID_5_"
         gradientUnits="userSpaceOnUse"
         x1="118.5636"
         y1="734.66913"
         x2="179.897"
         y2="734.66913"
         gradientTransform="matrix(0.6794,-0.7338,0.7338,0.6794,-405.8327,434.1327)">
        <stop
           offset="0"
           style="stop-color:#54B948"
           id="stop9052" />
        <stop
           offset="0.3764"
           style="stop-color:#00A651"
           id="stop9054" />
        <stop
           offset="1"
           style="stop-color:#005826"
           id="stop9056" />
      </linearGradient>
      <path
         inkscape:connector-curvature="0"
         d="m 161.9,798.3 c 0,0 59,48.7 145.4,51 0,0 -28.7,-15.3 -68.5,-21.7 -39.8,-6.3 -76.9,-29.3 -76.9,-29.3 z"
         style="fill:#000000"
         id="path9059" />
      <linearGradient
         id="SVGID_6_"
         gradientUnits="userSpaceOnUse"
         x1="126.5636"
         y1="714.91913"
         x2="182.5636"
         y2="714.91913"
         gradientTransform="matrix(0.6794,-0.7338,0.7338,0.6794,-405.8327,434.1327)">
        <stop
           offset="0"
           style="stop-color:#54B948"
           id="stop9061" />
        <stop
           offset="0.3764"
           style="stop-color:#00A651"
           id="stop9063" />
        <stop
           offset="1"
           style="stop-color:#005826"
           id="stop9065" />
      </linearGradient>
      <path
         inkscape:connector-curvature="0"
         d="m 155.4,781.3 c 0,0 47.9,43.9 136.7,50.3 0,0 -26.2,-15.2 -52.3,-19.3 -26.1,-4.2 -52,-9.6 -84.4,-31 z"
         style="fill:#000000"
         id="path9068" />
      <linearGradient
         id="SVGID_7_"
         gradientUnits="userSpaceOnUse"
         x1="137.2303"
         y1="693.33582"
         x2="186.2303"
         y2="693.33582"
         gradientTransform="matrix(0.6794,-0.7338,0.7338,0.6794,-405.8327,434.1327)">
        <stop
           offset="0"
           style="stop-color:#54B948"
           id="stop9070" />
        <stop
           offset="0.3764"
           style="stop-color:#00A651"
           id="stop9072" />
        <stop
           offset="1"
           style="stop-color:#005826"
           id="stop9074" />
      </linearGradient>
      <path
         inkscape:connector-curvature="0"
         d="m 149.2,761 c 0,0 65.8,55.5 127.2,51 0,0 -22,-12.4 -57.7,-20.1 C 183,784.2 149.2,761 149.2,761 Z"
         style="fill:#000000"
         id="path9077" />
      <linearGradient
         id="SVGID_8_"
         gradientUnits="userSpaceOnUse"
         x1="144.397"
         y1="672.5025"
         x2="189.897"
         y2="672.5025"
         gradientTransform="matrix(0.6794,-0.7338,0.7338,0.6794,-405.8327,434.1327)">
        <stop
           offset="0"
           style="stop-color:#54B948"
           id="stop9079" />
        <stop
           offset="0.3764"
           style="stop-color:#00A651"
           id="stop9081" />
        <stop
           offset="1"
           style="stop-color:#005826"
           id="stop9083" />
      </linearGradient>
      <path
         inkscape:connector-curvature="0"
         d="m 140.1,742.9 c 0,0 60.5,44 122.1,51.1 0,0 -17.5,-13.5 -52.5,-23.2 -35,-9.7 -58.8,-21.4 -69.6,-27.9 z"
         style="fill:#000000"
         id="path9086" />
      <linearGradient
         id="SVGID_9_"
         gradientUnits="userSpaceOnUse"
         x1="152.8951"
         y1="638.5025"
         x2="195.897"
         y2="638.5025"
         gradientTransform="matrix(0.6794,-0.7338,0.7338,0.6794,-405.8327,434.1327)">
        <stop
           offset="0"
           style="stop-color:#54B948"
           id="stop9088" />
        <stop
           offset="0.3764"
           style="stop-color:#00A651"
           id="stop9090" />
        <stop
           offset="1"
           style="stop-color:#005826"
           id="stop9092" />
      </linearGradient>
      <path
         inkscape:connector-curvature="0"
         d="m 116.8,709.7 c 0,0 58.5,55.5 128.8,60.6 0,0 -13.9,-10.6 -37.9,-16.9 -24.1,-6.4 -60.1,-22 -90.9,-43.7 z"
         style="fill:#000000"
         id="path9095" />
      <linearGradient
         id="SVGID_10_"
         gradientUnits="userSpaceOnUse"
         x1="161.6795"
         y1="609.16913"
         x2="202.2303"
         y2="609.16913"
         gradientTransform="matrix(0.6794,-0.7338,0.7338,0.6794,-405.8327,434.1327)">
        <stop
           offset="0"
           style="stop-color:#54B948"
           id="stop9097" />
        <stop
           offset="0.3764"
           style="stop-color:#00A651"
           id="stop9099" />
        <stop
           offset="1"
           style="stop-color:#005826"
           id="stop9101" />
      </linearGradient>
      <path
         inkscape:connector-curvature="0"
         d="m 93.4,676 c 0,0 70,69.1 142.7,77 0,0 -21.6,-15 -39.9,-20.2 C 177.9,727.6 134.7,709.9 93.4,676 Z"
         style="fill:#000000"
         id="path9104" />
      <linearGradient
         id="SVGID_11_"
         gradientUnits="userSpaceOnUse"
         x1="180.6864"
         y1="591.0025"
         x2="207.3221"
         y2="591.0025"
         gradientTransform="matrix(0.6794,-0.7338,0.7338,0.6794,-405.8327,434.1327)">
        <stop
           offset="0"
           style="stop-color:#54B948"
           id="stop9106" />
        <stop
           offset="0.3764"
           style="stop-color:#00A651"
           id="stop9108" />
        <stop
           offset="1"
           style="stop-color:#005826"
           id="stop9110" />
      </linearGradient>
      <path
         inkscape:connector-curvature="0"
         d="m 96.1,645.1 c 0,0 42.3,68.7 130.5,92.6 0,0 -1.2,-5.6 -38.4,-23.8 C 151,695.7 129.4,682.3 96.1,645.1 Z"
         style="fill:#000000"
         id="path9113" />
      <linearGradient
         id="SVGID_12_"
         gradientUnits="userSpaceOnUse"
         x1="195.6622"
         y1="587.33582"
         x2="213.1273"
         y2="587.33582"
         gradientTransform="matrix(0.6794,-0.7338,0.7338,0.6794,-405.8327,434.1327)">
        <stop
           offset="0"
           style="stop-color:#54B948"
           id="stop9115" />
        <stop
           offset="0.3764"
           style="stop-color:#00A651"
           id="stop9117" />
        <stop
           offset="1"
           style="stop-color:#005826"
           id="stop9119" />
      </linearGradient>
      <path
         inkscape:connector-curvature="0"
         d="m 109.5,644.2 c 0,0 69.4,69.7 108.9,78.1 0,0 -12,-15 -41.7,-31.5 C 147,674.4 139,669.2 109.5,644.2 Z"
         style="fill:#000000"
         id="path9122" />
      <linearGradient
         id="SVGID_13_"
         gradientUnits="userSpaceOnUse"
         x1="208.26871"
         y1="554.5423"
         x2="217.82809"
         y2="554.5423"
         gradientTransform="matrix(0.6794,-0.7338,0.7338,0.6794,-405.8327,434.1327)">
        <stop
           offset="0"
           style="stop-color:#54B948"
           id="stop9124" />
        <stop
           offset="0.3764"
           style="stop-color:#00A651"
           id="stop9126" />
        <stop
           offset="1"
           style="stop-color:#005826"
           id="stop9128" />
      </linearGradient>
      <path
         inkscape:connector-curvature="0"
         d="m 87.6,599.9 c 0,0 76.3,90.3 120.1,105.5 0,0 -28.3,-27 -53.8,-44.2 -25.6,-17.1 -66.3,-61.3 -66.3,-61.3 z"
         style="fill:#000000"
         id="path9131" />
      <linearGradient
         id="SVGID_14_"
         gradientUnits="userSpaceOnUse"
         x1="218.5032"
         y1="544.18707"
         x2="226.5584"
         y2="544.18707"
         gradientTransform="matrix(0.6794,-0.7338,0.7338,0.6794,-405.8327,434.1327)">
        <stop
           offset="0"
           style="stop-color:#54B948"
           id="stop9133" />
        <stop
           offset="0.3764"
           style="stop-color:#00A651"
           id="stop9135" />
        <stop
           offset="1"
           style="stop-color:#005826"
           id="stop9137" />
      </linearGradient>
      <path
         inkscape:connector-curvature="0"
         d="m 90.4,585.8 c 0,0 64.7,82.3 112.8,104.9 0,0 -10.9,-12.8 -35.5,-33.4 -24.6,-20.6 -52.2,-44.2 -77.3,-71.5 z"
         style="fill:#000000"
         id="path9140" />
      <linearGradient
         id="SVGID_15_"
         gradientUnits="userSpaceOnUse"
         x1="232.1745"
         y1="528.58728"
         x2="247.5636"
         y2="528.58728"
         gradientTransform="matrix(0.6794,-0.7338,0.7338,0.6794,-405.8327,434.1327)">
        <stop
           offset="0"
           style="stop-color:#54B948"
           id="stop9142" />
        <stop
           offset="0.3764"
           style="stop-color:#00A651"
           id="stop9144" />
        <stop
           offset="1"
           style="stop-color:#005826"
           id="stop9146" />
      </linearGradient>
      <path
         inkscape:connector-curvature="0"
         d="m 97.4,562.7 c 0,0 30.5,58.3 96.4,107.5 0,0 -14.4,-18.5 -32.7,-38.1 -18.3,-19.6 -41.2,-32.7 -63.7,-69.4 z"
         style="fill:#000000"
         id="path9149" />
      <path
         inkscape:connector-curvature="0"
         d="m 360.3,904.9 c 0,0 -29.4,15.8 -88.6,6.2 0,0 34.1,1.6 54.8,-2.2 13.4,-2.4 28.3,-3.2 33.8,-4 z"
         style="fill:#000000"
         id="path9151" />
      <path
         inkscape:connector-curvature="0"
         d="m 347.2,892.9 c 0,0 -71.4,19.3 -134.9,-6.8 0,0 25.1,11.7 76.5,9.9 29.6,-1 42.9,-2 58.4,-3.1 z"
         style="fill:#000000"
         id="path9153" />
      <path
         inkscape:connector-curvature="0"
         d="m 335.1,881.6 c 0,0 -92.9,9.1 -144,-36.8 0,0 30.8,24.1 81.6,29.5 40.2,4.2 62.4,7.3 62.4,7.3 z"
         style="fill:#000000"
         id="path9155" />
      <path
         inkscape:connector-curvature="0"
         d="m 318.1,863.6 c 0,0 -76.4,3.5 -129.4,-31.9 0,0 33.4,17.4 84.1,24.7 19.3,2.8 45.3,7.2 45.3,7.2 z"
         style="fill:#000000"
         id="path9157" />
      <path
         inkscape:connector-curvature="0"
         d="m 161.9,798.3 c 0,0 59.3,48.8 145.7,51.1 0,0 -34,-8 -66.6,-16.3 -39,-9.9 -79.1,-34.8 -79.1,-34.8 z"
         style="fill:#000000"
         id="path9159" />
      <path
         inkscape:connector-curvature="0"
         d="m 155.4,781.3 c 0,0 47.9,43.9 136.7,50.3 0,0 -26.8,-9.9 -52.9,-14 -26.1,-4.1 -51.4,-14.9 -83.8,-36.3 z"
         style="fill:#000000"
         id="path9161" />
      <path
         inkscape:connector-curvature="0"
         d="m 149.5,761.1 c 0,0 65.8,55.5 127.2,51 0,0 -15.9,-3.6 -49.4,-12.1 -44.8,-11.4 -77.8,-38.9 -77.8,-38.9 z"
         style="fill:#000000"
         id="path9163" />
      <path
         inkscape:connector-curvature="0"
         d="m 140.5,743 c 0,0 60.5,44 122.1,51.1 0,0 -22.7,-8.3 -53.6,-18.6 -34.5,-11.6 -57.8,-26 -68.5,-32.5 z"
         style="fill:#000000"
         id="path9165" />
      <path
         inkscape:connector-curvature="0"
         d="m 117.1,709.8 c 0,0 58.5,55.5 128.8,60.6 0,0 -15.8,-6.5 -39.9,-12.7 -33.4,-8.4 -58.1,-26.2 -88.9,-47.9 z"
         style="fill:#000000"
         id="path9167" />
      <path
         inkscape:connector-curvature="0"
         d="m 93.8,676.1 c 0,0 70,69.1 142.7,77 0,0 -23.9,-10 -42.2,-15.2 C 175.9,732.7 135.1,710 93.8,676.1 Z"
         style="fill:#000000"
         id="path9169" />
      <path
         inkscape:connector-curvature="0"
         d="m 96.1,645.1 c 0,0 42.6,68.8 130.8,92.7 0,0 -3.6,-1.9 -40.9,-20.1 -37.3,-18.2 -63.5,-38.8 -89.9,-72.6 z"
         style="fill:#000000"
         id="path9171" />
      <path
         inkscape:connector-curvature="0"
         d="m 109.5,644.2 c 0,0 69.4,69.7 108.9,78.1 0,0 -9.6,-7.1 -36.9,-22.9 -30.4,-17.6 -42.5,-30.2 -72,-55.2 z"
         style="fill:#000000"
         id="path9173" />
      <path
         inkscape:connector-curvature="0"
         d="m 86.7,598.8 c 0,0 76.3,90.3 120.1,105.5 0,0 -20.7,-14.3 -49.2,-36.7 -24.2,-18.9 -70.9,-68.8 -70.9,-68.8 z"
         style="fill:#000000"
         id="path9175" />
      <path
         inkscape:connector-curvature="0"
         d="m 90.4,585.8 c 0,0 64.7,82.3 112.8,104.9 0,0 -12.9,-9.9 -37.5,-30.4 -24.6,-20.5 -50.2,-47.2 -75.3,-74.5 z"
         style="fill:#000000"
         id="path9177" />
      <path
         inkscape:connector-curvature="0"
         d="m 97.4,562.7 c 0,0 30.3,58 96.2,107.2 0,0 -18.4,-15.8 -36.6,-35.4 -18.2,-19.6 -37.1,-35.1 -59.6,-71.8 z"
         style="fill:#000000"
         id="path9179" />
      <g
         id="g9192">
        <linearGradient
           id="SVGID_16_"
           gradientUnits="userSpaceOnUse"
           x1="249.2355"
           y1="504.97891"
           x2="267.897"
           y2="504.97891"
           gradientTransform="matrix(0.6794,-0.7338,0.7338,0.6794,-405.8327,434.1327)">
          <stop
             offset="0"
             style="stop-color:#54B948"
             id="stop9181" />
          <stop
             offset="0.3764"
             style="stop-color:#00A651"
             id="stop9183" />
          <stop
             offset="1"
             style="stop-color:#005826"
             id="stop9185" />
        </linearGradient>
        <path
           inkscape:connector-curvature="0"
           d="m 100.5,537.9 c 0,0 41.6,69.2 80.1,98.8 0,0 -15.9,-24 -29.7,-39.5 -13.8,-15.5 -35.4,-36.3 -50.4,-59.3 z"
           style="fill:#000000"
           id="path9188" />
        <path
           inkscape:connector-curvature="0"
           d="m 100.5,537.9 c 0,0 41.6,69.2 80.1,98.8 0,0 -18.7,-18.2 -32.7,-36.1 -12.7,-16.3 -32.4,-39.7 -47.4,-62.7 z"
           style="fill:#000000"
           id="path9190" />
      </g>
      <g
         id="g9205">
        <linearGradient
           id="SVGID_17_"
           gradientUnits="userSpaceOnUse"
           x1="261.92249"
           y1="491.1781"
           x2="293.5636"
           y2="491.1781"
           gradientTransform="matrix(0.6794,-0.7338,0.7338,0.6794,-405.8327,434.1327)">
          <stop
             offset="0"
             style="stop-color:#54B948"
             id="stop9194" />
          <stop
             offset="0.3764"
             style="stop-color:#00A651"
             id="stop9196" />
          <stop
             offset="1"
             style="stop-color:#005826"
             id="stop9198" />
        </linearGradient>
        <path
           inkscape:connector-curvature="0"
           d="m 114.3,515.6 c 0,0 20.4,61.9 58,96.8 0,0 -3.4,-7.2 -14.7,-24.9 -11.3,-17.7 -30.2,-37 -43.3,-71.9 z"
           style="fill:#000000"
           id="path9201" />
        <path
           inkscape:connector-curvature="0"
           d="m 114.3,515.6 c 0,0 20.4,61.9 58,96.8 0,0 -8.3,-8.4 -19.6,-26.1 -11.3,-17.7 -25.3,-35.8 -38.4,-70.7 z"
           style="fill:#000000"
           id="path9203" />
      </g>
      <g
         id="g9218">
        <linearGradient
           id="SVGID_18_"
           gradientUnits="userSpaceOnUse"
           x1="-597.16931"
           y1="94.3386"
           x2="-578.50781"
           y2="94.3386"
           gradientTransform="matrix(-0.9975,-0.07095607,-0.07095607,0.9975,-404.5641,434.8991)">
          <stop
             offset="0"
             style="stop-color:#54B948"
             id="stop9207" />
          <stop
             offset="0.3764"
             style="stop-color:#00A651"
             id="stop9209" />
          <stop
             offset="1"
             style="stop-color:#005826"
             id="stop9211" />
        </linearGradient>
        <path
           inkscape:connector-curvature="0"
           d="m 170.3,507.2 c 0,0 16.9,79 9.1,126.9 0,0 -4.8,-28.4 -5.3,-49.1 -0.5,-20.7 0.9,-50.7 -3.8,-77.8 z"
           style="fill:#000000"
           id="path9214" />
        <path
           inkscape:connector-curvature="0"
           d="m 170.3,507.2 c 0,0 16.9,79 9.1,126.9 0,0 1.2,-26.1 -0.8,-48.7 -1.9,-20.6 -3.6,-51.1 -8.3,-78.2 z"
           style="fill:#000000"
           id="path9216" />
      </g>
      <g
         id="g9231">
        <linearGradient
           id="SVGID_19_"
           gradientUnits="userSpaceOnUse"
           x1="-490.08069"
           y1="29.7125"
           x2="-458.43951"
           y2="29.7125"
           gradientTransform="matrix(-1.1796,-0.2452,-0.2027,0.9752,-391.6209,399.2818)">
          <stop
             offset="0"
             style="stop-color:#54B948"
             id="stop9220" />
          <stop
             offset="0.3764"
             style="stop-color:#00A651"
             id="stop9222" />
          <stop
             offset="1"
             style="stop-color:#005826"
             id="stop9224" />
        </linearGradient>
        <path
           inkscape:connector-curvature="0"
           d="m 154.1,487.8 c 0,0 25.7,63.4 15.4,113.4 0,0 -2,-7.9 -4.2,-29 -2.2,-21.1 1.7,-47.8 -11.2,-84.4 z"
           style="fill:#000000"
           id="path9227" />
        <path
           inkscape:connector-curvature="0"
           d="m 154.1,487.8 c 0,0 25.7,63.4 15.4,113.4 0,0 1.8,-11.6 -0.4,-32.8 -2.2,-21.2 -2.1,-44 -15,-80.6 z"
           style="fill:#000000"
           id="path9229" />
      </g>
      <g
         id="g9244">
        <linearGradient
           id="SVGID_20_"
           gradientUnits="userSpaceOnUse"
           x1="267.897"
           y1="484.7525"
           x2="322.46051"
           y2="484.7525"
           gradientTransform="matrix(0.6794,-0.7338,0.7338,0.6794,-405.8327,434.1327)">
          <stop
             offset="0"
             style="stop-color:#54B948"
             id="stop9233" />
          <stop
             offset="0.3764"
             style="stop-color:#00A651"
             id="stop9235" />
          <stop
             offset="1"
             style="stop-color:#005826"
             id="stop9237" />
        </linearGradient>
        <path
           inkscape:connector-curvature="0"
           d="m 169.2,601.5 c 0,0 -28.7,-49 -37.6,-109.2 0,0 32.6,71 37.6,109.2 z"
           style="fill:#000000"
           id="path9240" />
        <path
           inkscape:connector-curvature="0"
           d="m 169.2,601.5 c 0,0 -28.7,-49 -37.6,-109.2 0,0 20.1,67.6 37.6,109.2 z"
           style="fill:#000000"
           id="path9242" />
      </g>
      <g
         id="g9257">
        <linearGradient
           id="SVGID_21_"
           gradientUnits="userSpaceOnUse"
           x1="-880.60181"
           y1="787.59662"
           x2="-815.69818"
           y2="787.59662"
           gradientTransform="matrix(-0.813,0.5823,0.5823,0.813,-780.3392,714.4459)">
          <stop
             offset="0"
             style="stop-color:#54B948"
             id="stop9246" />
          <stop
             offset="0.3764"
             style="stop-color:#00A651"
             id="stop9248" />
          <stop
             offset="1"
             style="stop-color:#005826"
             id="stop9250" />
        </linearGradient>
        <path
           inkscape:connector-curvature="0"
           d="m 359.2,904.6 c 0,0 19.7,-29.9 17.2,-87.5 0,0 -5.6,31.7 -11.4,48.5 -7,20 -6.2,36.8 -5.8,39 z"
           style="fill:#000000"
           id="path9253" />
        <path
           inkscape:connector-curvature="0"
           d="m 359.2,904.6 c 0,0 19.3,-27.2 17.3,-87.1 0,0 -2.7,34 -9,54.1 -4.2,13 -6.9,27.7 -8.3,33 z"
           style="fill:#000000"
           id="path9255" />
      </g>
      <g
         id="g9270">
        <linearGradient
           id="SVGID_22_"
           gradientUnits="userSpaceOnUse"
           x1="-901.17889"
           y1="748.00818"
           x2="-814.51221"
           y2="748.00818"
           gradientTransform="matrix(-0.813,0.5823,0.5823,0.813,-780.3392,714.4459)">
          <stop
             offset="0"
             style="stop-color:#54B948"
             id="stop9259" />
          <stop
             offset="0.3764"
             style="stop-color:#00A651"
             id="stop9261" />
          <stop
             offset="1"
             style="stop-color:#005826"
             id="stop9263" />
        </linearGradient>
        <path
           inkscape:connector-curvature="0"
           d="m 347.6,890.4 c 0,0 28.1,-68.4 10.1,-134.7 0,0 8.3,36.3 -1.8,71.8 -10.2,35.7 -10.5,55.3 -8.3,62.9 z"
           style="fill:#000000"
           id="path9266" />
        <path
           inkscape:connector-curvature="0"
           d="m 347.6,890.8 c 0,0 28.1,-68.4 10.1,-134.7 0,0 8.4,26.3 0.3,77.2 -4.7,29.1 -7.3,42.1 -10.4,57.5 z"
           style="fill:#000000"
           id="path9268" />
      </g>
      <g
         id="g9283">
        <linearGradient
           id="SVGID_23_"
           gradientUnits="userSpaceOnUse"
           x1="-868.19757"
           y1="666.11719"
           x2="-797.53088"
           y2="666.11719"
           gradientTransform="matrix(-0.8699,0.4932,0.4932,0.8699,-717.2872,635.9059)">
          <stop
             offset="0"
             style="stop-color:#54B948"
             id="stop9272" />
          <stop
             offset="0.3764"
             style="stop-color:#00A651"
             id="stop9274" />
          <stop
             offset="1"
             style="stop-color:#005826"
             id="stop9276" />
        </linearGradient>
        <path
           inkscape:connector-curvature="0"
           d="m 337.2,878.7 c 0,0 30.2,-88 -2.8,-148.2 0,0 15.8,35.1 6.2,85.4 -9.5,50.1 -3.4,62.8 -3.4,62.8 z"
           style="fill:#000000"
           id="path9279" />
        <path
           inkscape:connector-curvature="0"
           d="m 337.2,879 c 0,0 30.2,-88.4 -2.8,-148.6 0,0 16.4,35.5 10,86.2 -5.1,40.1 -7.2,62.4 -7.2,62.4 z"
           style="fill:#000000"
           id="path9281" />
      </g>
      <g
         id="g9296">
        <linearGradient
           id="SVGID_24_"
           gradientUnits="userSpaceOnUse"
           x1="-847.12109"
           y1="624.41272"
           x2="-782.78778"
           y2="624.41272"
           gradientTransform="matrix(-0.8951,0.446,0.446,0.8951,-686.0966,601.3076)">
          <stop
             offset="0"
             style="stop-color:#54B948"
             id="stop9285" />
          <stop
             offset="0.3764"
             style="stop-color:#00A651"
             id="stop9287" />
          <stop
             offset="1"
             style="stop-color:#005826"
             id="stop9289" />
        </linearGradient>
        <path
           inkscape:connector-curvature="0"
           d="m 318.9,863.2 c 0,0 24.8,-72 5.7,-132.8 0,0 3.2,48.8 -4.1,86.8 -4.6,24.1 -1.6,46 -1.6,46 z"
           style="fill:#000000"
           id="path9292" />
        <path
           inkscape:connector-curvature="0"
           d="m 319,863.5 c 0,0 24.8,-72.3 5.7,-133.2 0,0 7.3,37 0.1,87.6 -2.8,19.4 -5.8,45.6 -5.8,45.6 z"
           style="fill:#000000"
           id="path9294" />
      </g>
      <g
         id="g9309">
        <linearGradient
           id="SVGID_25_"
           gradientUnits="userSpaceOnUse"
           x1="-849.87128"
           y1="607.46149"
           x2="-788.53802"
           y2="607.46149"
           gradientTransform="matrix(-0.88,0.475,0.475,0.88,-707.9734,624.7328)">
          <stop
             offset="0"
             style="stop-color:#54B948"
             id="stop9298" />
          <stop
             offset="0.3764"
             style="stop-color:#00A651"
             id="stop9300" />
          <stop
             offset="1"
             style="stop-color:#005826"
             id="stop9302" />
        </linearGradient>
        <path
           inkscape:connector-curvature="0"
           d="m 294.9,693.4 c 0,0 32.4,69.2 13.2,153.5 0,0 -7.7,-31.6 -3.9,-71.8 3.7,-40.1 -9.3,-81.7 -9.3,-81.7 z"
           style="fill:#000000"
           id="path9305" />
        <path
           inkscape:connector-curvature="0"
           d="m 294.9,693.4 c 0,0 32.5,69.6 13.2,153.9 0,0 0.8,-34.9 0.9,-68.6 0,-40.3 -14.1,-85.3 -14.1,-85.3 z"
           style="fill:#000000"
           id="path9307" />
      </g>
      <g
         id="g9322">
        <linearGradient
           id="SVGID_26_"
           gradientUnits="userSpaceOnUse"
           x1="-840.6239"
           y1="586.20172"
           x2="-784.6239"
           y2="586.20172"
           gradientTransform="matrix(-0.8829,0.4695,0.4695,0.8829,-706.2335,622.0685)">
          <stop
             offset="0"
             style="stop-color:#54B948"
             id="stop9311" />
          <stop
             offset="0.3764"
             style="stop-color:#00A651"
             id="stop9313" />
          <stop
             offset="1"
             style="stop-color:#005826"
             id="stop9315" />
        </linearGradient>
        <path
           inkscape:connector-curvature="0"
           d="m 279.6,685.6 c 0,0 30.2,57.5 13.7,145 0,0 -8,-29.2 -5.3,-55.5 2.6,-26.3 4,-52.7 -8.4,-89.5 z"
           style="fill:#000000"
           id="path9318" />
        <path
           inkscape:connector-curvature="0"
           d="m 279.6,685.6 c 0,0 30.2,57.5 13.7,145 0,0 -2.7,-28.4 -0.1,-54.8 2.7,-26.2 -1.2,-53.4 -13.6,-90.2 z"
           style="fill:#000000"
           id="path9320" />
      </g>
      <g
         id="g9335">
        <linearGradient
           id="SVGID_27_"
           gradientUnits="userSpaceOnUse"
           x1="-821.49908"
           y1="536.3551"
           x2="-772.49908"
           y2="536.3551"
           gradientTransform="matrix(-0.9072,0.4207,0.4207,0.9072,-676.3171,589.7834)">
          <stop
             offset="0"
             style="stop-color:#54B948"
             id="stop9324" />
          <stop
             offset="0.3764"
             style="stop-color:#00A651"
             id="stop9326" />
          <stop
             offset="1"
             style="stop-color:#005826"
             id="stop9328" />
        </linearGradient>
        <path
           inkscape:connector-curvature="0"
           d="m 267.7,672.7 c 0,0 32.5,79.7 9.4,136.7 0,0 -5,-24.7 -1.3,-61.1 3.7,-36.4 -8.1,-75.6 -8.1,-75.6 z"
           style="fill:#000000"
           id="path9331" />
        <path
           inkscape:connector-curvature="0"
           d="m 267.7,673.1 c 0,0 32.5,79.7 9.4,136.7 0,0 1.5,-16.2 3.6,-50.7 2.9,-46.2 -13,-86 -13,-86 z"
           style="fill:#000000"
           id="path9333" />
      </g>
      <g
         id="g9348">
        <linearGradient
           id="SVGID_28_"
           gradientUnits="userSpaceOnUse"
           x1="-834.40552"
           y1="467.2778"
           x2="-788.90552"
           y2="467.2778"
           gradientTransform="matrix(-0.9478,0.3188,0.3188,0.9478,-655.9698,539.6083)">
          <stop
             offset="0"
             style="stop-color:#54B948"
             id="stop9337" />
          <stop
             offset="0.3764"
             style="stop-color:#00A651"
             id="stop9339" />
          <stop
             offset="1"
             style="stop-color:#005826"
             id="stop9341" />
        </linearGradient>
        <path
           inkscape:connector-curvature="0"
           d="m 264,657.6 c 0,0 15.3,73.3 -3.5,132.4 0,0 -5.1,-21.5 0.4,-57.4 5.5,-36.1 4.7,-62.5 3.1,-75 z"
           style="fill:#000000"
           id="path9344" />
        <path
           inkscape:connector-curvature="0"
           d="m 264,657.9 c 0,0 15.3,73.3 -3.5,132.4 0,0 1.8,-24.2 5,-56.5 3.6,-36.2 0.1,-63.4 -1.5,-75.9 z"
           style="fill:#000000"
           id="path9346" />
      </g>
      <g
         id="g9361">
        <linearGradient
           id="SVGID_29_"
           gradientUnits="userSpaceOnUse"
           x1="-802.49408"
           y1="404.4552"
           x2="-759.49219"
           y2="404.4552"
           gradientTransform="matrix(-0.9694,0.2453,0.2453,0.9694,-605.6367,497.9318)">
          <stop
             offset="0"
             style="stop-color:#54B948"
             id="stop9350" />
          <stop
             offset="0.3764"
             style="stop-color:#00A651"
             id="stop9352" />
          <stop
             offset="1"
             style="stop-color:#005826"
             id="stop9354" />
        </linearGradient>
        <path
           inkscape:connector-curvature="0"
           d="m 254.9,627.4 c 0,0 20.8,78 -8.4,142.1 0,0 -2.6,-17.2 3.3,-41.4 5.9,-24.2 9.4,-63.3 5.1,-100.7 z"
           style="fill:#000000"
           id="path9357" />
        <path
           inkscape:connector-curvature="0"
           d="m 254.8,627.8 c 0,0 20.8,78 -8.4,142.1 0,0 1.8,-17 8,-41.1 8.6,-33.5 4.8,-63.6 0.4,-101 z"
           style="fill:#000000"
           id="path9359" />
      </g>
      <g
         id="g9374">
        <linearGradient
           id="SVGID_30_"
           gradientUnits="userSpaceOnUse"
           x1="-789.75677"
           y1="370.33179"
           x2="-749.20599"
           y2="370.33179"
           gradientTransform="matrix(-0.9732,0.2302,0.2302,0.9732,-596.031,490.48)">
          <stop
             offset="0"
             style="stop-color:#54B948"
             id="stop9363" />
          <stop
             offset="0.3764"
             style="stop-color:#00A651"
             id="stop9365" />
          <stop
             offset="1"
             style="stop-color:#005826"
             id="stop9367" />
        </linearGradient>
        <path
           inkscape:connector-curvature="0"
           d="m 239.6,592.7 c 0,0 25.7,95 -3.3,162.1 0,0 -2.4,-26.1 2.1,-44.7 4.6,-18.5 10.4,-64.7 1.2,-117.4 z"
           style="fill:#000000"
           id="path9370" />
        <path
           inkscape:connector-curvature="0"
           d="m 239.6,593.1 c 0,0 25.7,95 -3.3,162.1 0,0 3,-25.7 7.5,-44.3 4.6,-18.5 5,-65.2 -4.2,-117.8 z"
           style="fill:#000000"
           id="path9372" />
      </g>
      <g
         id="g9387">
        <linearGradient
           id="SVGID_31_"
           gradientUnits="userSpaceOnUse"
           x1="-747.19019"
           y1="320.42209"
           x2="-720.5545"
           y2="320.42209"
           gradientTransform="matrix(-0.9868,0.1617,0.1617,0.9868,-550.7617,458.8362)">
          <stop
             offset="0"
             style="stop-color:#54B948"
             id="stop9376" />
          <stop
             offset="0.3764"
             style="stop-color:#00A651"
             id="stop9378" />
          <stop
             offset="1"
             style="stop-color:#005826"
             id="stop9380" />
        </linearGradient>
        <path
           inkscape:connector-curvature="0"
           d="m 220.1,576.9 c 0,0 33.9,73.1 5.3,159.9 0,0 -4,-4.1 1.4,-45.2 5.4,-41.1 5.9,-66.5 -6.7,-114.7 z"
           style="fill:#000000"
           id="path9383" />
        <path
           inkscape:connector-curvature="0"
           d="m 220.1,576.9 c 0,0 33.8,73.5 5.2,160.3 0,0 0.4,-4.1 5.8,-45.2 5.4,-41.1 2.6,-74.6 -11,-115.1 z"
           style="fill:#000000"
           id="path9385" />
      </g>
      <g
         id="g9400">
        <linearGradient
           id="SVGID_32_"
           gradientUnits="userSpaceOnUse"
           x1="-728.1568"
           y1="304.19531"
           x2="-710.69171"
           y2="304.19531"
           gradientTransform="matrix(-0.9899,0.1414,0.1414,0.9899,-539.3928,451.1502)">
          <stop
             offset="0"
             style="stop-color:#54B948"
             id="stop9389" />
          <stop
             offset="0.3764"
             style="stop-color:#00A651"
             id="stop9391" />
          <stop
             offset="1"
             style="stop-color:#005826"
             id="stop9393" />
        </linearGradient>
        <path
           inkscape:connector-curvature="0"
           d="m 214.8,583.5 c 0,0 17.9,96.8 2.3,134 0,0 -5.5,-18.4 -2.2,-52.2 3.3,-33.8 3.7,-43.3 -0.1,-81.8 z"
           style="fill:#000000"
           id="path9396" />
        <path
           inkscape:connector-curvature="0"
           d="m 214.8,583.5 c 0,0 17.9,96.8 2.3,134 0,0 -0.4,-12 2.1,-43.4 2.8,-34.9 -0.6,-52.1 -4.4,-90.6 z"
           style="fill:#000000"
           id="path9398" />
      </g>
      <g
         id="g9413">
        <linearGradient
           id="SVGID_33_"
           gradientUnits="userSpaceOnUse"
           x1="-706.01801"
           y1="265.0199"
           x2="-696.4585"
           y2="265.0199"
           gradientTransform="matrix(-0.9938,0.1114,0.1114,0.9938,-521.5274,440.1482)">
          <stop
             offset="0"
             style="stop-color:#54B948"
             id="stop9402" />
          <stop
             offset="0.3764"
             style="stop-color:#00A651"
             id="stop9404" />
          <stop
             offset="1"
             style="stop-color:#005826"
             id="stop9406" />
        </linearGradient>
        <path
           inkscape:connector-curvature="0"
           d="m 195.4,546 c 0,0 27.5,115 13.7,159.3 0,0 -4.9,-38.8 -3.6,-69.5 1.3,-30.7 -10.1,-89.8 -10.1,-89.8 z"
           style="fill:#000000"
           id="path9409" />
        <path
           inkscape:connector-curvature="0"
           d="m 195.4,546 c 0,0 27.5,115 13.7,159.3 0,0 0.7,-25.2 -0.3,-61.4 C 207.9,613.2 195.4,546 195.4,546 Z"
           style="fill:#000000"
           id="path9411" />
      </g>
      <g
         id="g9426">
        <linearGradient
           id="SVGID_34_"
           gradientUnits="userSpaceOnUse"
           x1="-693.14587"
           y1="205.35539"
           x2="-685.09058"
           y2="205.35539"
           gradientTransform="matrix(-0.9964,0.08439438,0.08439438,0.9964,-516.5507,441.6334)">
          <stop
             offset="0"
             style="stop-color:#54B948"
             id="stop9415" />
          <stop
             offset="0.3764"
             style="stop-color:#00A651"
             id="stop9417" />
          <stop
             offset="1"
             style="stop-color:#005826"
             id="stop9419" />
        </linearGradient>
        <path
           inkscape:connector-curvature="0"
           d="m 177.6,511.6 c 0,0 25.1,101.7 13.4,153.5 0,0 -3.4,-16.5 -4.5,-48.5 -1.1,-32 -2.8,-68.3 -8.9,-105 z"
           style="fill:#000000"
           id="path9422" />
        <path
           inkscape:connector-curvature="0"
           d="m 177.6,511.6 c 0,0 25.1,101.7 13.4,153.5 0,0 0.1,-16.2 -0.9,-48.3 -1,-32.1 -6.4,-68.5 -12.5,-105.2 z"
           style="fill:#000000"
           id="path9424" />
      </g>
      <g
         id="g9439">
        <linearGradient
           id="SVGID_35_"
           gradientUnits="userSpaceOnUse"
           x1="283.76859"
           y1="557.46997"
           x2="237.1019"
           y2="607.30328"
           gradientTransform="matrix(0.6794,-0.7338,0.7338,0.6794,-405.8327,434.1327)">
          <stop
             offset="0"
             style="stop-color:#54B948"
             id="stop9428" />
          <stop
             offset="0.3764"
             style="stop-color:#00A651"
             id="stop9430" />
          <stop
             offset="1"
             style="stop-color:#005826"
             id="stop9432" />
        </linearGradient>
        <path
           inkscape:connector-curvature="0"
           d="m 187.5,544 c 0,0 21.7,63.1 12.9,144.9 0,0 -3.6,-24.2 -5.5,-50.8 -2,-26.7 4.1,-52.7 -7.4,-94.1 z"
           style="fill:#000000"
           id="path9435" />
        <path
           inkscape:connector-curvature="0"
           d="m 187.5,544 c 0,0 21.7,63.1 12.9,144.9 0,0 1,-25.6 -0.9,-52.3 -2,-26.7 -0.5,-51.2 -12,-92.6 z"
           style="fill:#000000"
           id="path9437" />
      </g>
      <linearGradient
         id="SVGID_36_"
         gradientUnits="userSpaceOnUse"
         x1="222.14951"
         y1="675.95001"
         x2="212.0276"
         y2="961.38849"
         gradientTransform="matrix(0.6794,-0.7338,0.7338,0.6794,-405.8327,434.1327)">
        <stop
           offset="0"
           style="stop-color:#54B948"
           id="stop9441" />
        <stop
           offset="0.3764"
           style="stop-color:#00A651"
           id="stop9443" />
        <stop
           offset="1"
           style="stop-color:#005826"
           id="stop9445" />
      </linearGradient>
      <path
         inkscape:connector-curvature="0"
         d="m 385.7,935.1 c 0,0 -180.3,-156 -216.8,-333.2 -0.5,-2.3 0.4,-3.4 0,-5.7 0,0 32.6,172.4 227.4,335.5 z"
         style="fill:#000000"
         id="path9448" />
    </g>
    <path
       inkscape:connector-curvature="0"
       d="m 86.728024,213.60593 c 0,0 2.489106,0.40847 4.303376,0.21312 1.81429,-0.19536 1.39389,-0.32855 1.99128,-1.01228 0.59738,-0.68373 0.15487,-0.31079 -0.56419,-0.4351 -0.71907,-0.12432 0.16593,-0.1332 0.92926,-0.27527 0.76333,-0.14208 1.64834,0.0533 2.20146,-0.5683 0.55315,-0.63045 1.26115,-1.70489 1.26115,-1.70489 l -6.33891,0.63933 -2.58866,0.87021 z"
       style="fill:#000000;stroke-width:0.09911223"
       id="path10378" />
    <path
       inkscape:connector-curvature="0"
       d="m 87.85642,211.69682 c 0,0 3.20817,-0.49726 5.22158,-0.71037 2.01339,-0.21312 2.94266,-0.23975 3.27455,-0.57718 0.33187,-0.33743 0.99563,-1.17212 0.42038,-0.93236 -0.57526,0.23975 -2.74354,0.4795 -2.26785,0.18647 0.47569,-0.28414 1.26115,-0.36406 2.65504,-0.84356 1.3939,-0.4795 1.3939,-0.35519 1.90278,-1.0478 0.51994,-0.69261 -0.57526,-0.22199 -1.10627,-0.0267 -0.54207,0.19535 -0.46463,-0.0266 0.75226,-0.58606 1.2169,-0.55941 0.98458,-0.14207 1.72578,-1.13659 0,0 -3.1418,0.59494 -6.11765,1.27867 -2.96479,0.68373 -5.19946,2.10447 -5.19946,2.10447 z"
       style="fill:#000000;stroke-width:0.09911223"
       id="path10387" />
    <path
       inkscape:connector-curvature="0"
       d="m 89.3167,209.49467 c 0,0 2.35634,-1.39411 5.58664,-1.94464 3.24135,-0.55053 3.69493,-0.68373 4.53568,-0.99452 0.84078,-0.30191 0.84078,-0.30191 1.1284,-0.72813 0.28763,-0.41734 -0.30975,-0.1332 -0.9182,0.15983 -0.60844,0.29303 -3.00904,0.78141 -3.88299,0.57718 -0.86289,-0.20423 -0.29871,-0.27526 0.40931,-0.53278 0.69695,-0.25751 2.79886,-0.31079 4.67951,-1.54505 1.88065,-1.23427 2.15722,-2.73493 2.15722,-2.73493 0,0 -2.76567,1.99792 -6.52697,2.14887 -3.76131,0.15095 -5.46496,2.74381 -5.46496,2.74381 z"
       style="fill:#000000;stroke-width:0.09911223"
       id="path10396" />
    <path
       inkscape:connector-curvature="0"
       d="m 91.58454,206.17369 c 0,0 0.7412,-0.84357 3.65067,-1.3497 2.90948,-0.50615 5.88534,-1.05668 6.69292,-1.68714 0.80757,-0.62157 1.28327,-1.48289 1.03989,-1.50954 -0.24338,-0.0266 -3.38518,1.43851 -4.21488,1.37634 -0.8297,-0.0622 -0.7412,-0.18646 0.22126,-0.55941 0.96244,-0.38182 3.27454,-0.71037 4.18168,-1.3941 0.90715,-0.68373 1.27221,-1.84696 1.27221,-1.84696 l -4.45825,1.43849 -5.15521,0.0356 c 0,0 -0.68588,1.03892 -1.41601,1.92688 -0.73014,0.88796 -1.81428,3.56961 -1.81428,3.56961 z"
       style="fill:#000000;stroke-width:0.09911223"
       id="path10405" />
    <path
       inkscape:connector-curvature="0"
       d="m 93.68644,202.35544 c 0,0 1.23902,-0.80803 4.49145,-1.05667 3.25241,-0.25751 4.95607,-0.48838 5.71939,-1.32307 0.77439,-0.83468 0.67483,-1.03891 -0.12169,-0.66597 -0.79651,0.37295 -6.64865,1.18099 -6.49378,0.66597 0.15488,-0.52389 1.5709,-0.32854 4.13743,-0.77252 2.56654,-0.44398 3.51794,-0.44398 4.51358,-2.16663 0,0 -4.25914,-0.46174 -6.71504,-0.0444 -2.46697,0.42622 -2.26785,-0.21311 -3.34093,0.95899 -1.06202,1.17212 -2.19041,4.4043 -2.19041,4.4043 z"
       style="fill:#000000;stroke-width:0.09911223"
       id="path10414" />
    <path
       inkscape:connector-curvature="0"
       d="m 95.81048,198.44841 c 0,0 0.73013,-0.51502 4.77906,-0.73701 4.06,-0.22199 4.8897,0.0888 5.50922,-0.9146 0.60844,-1.0034 0.91819,-1.38523 -0.18807,-0.959 -1.10627,0.43511 -4.64632,0.75477 -4.34763,0.40846 0.29869,-0.33743 3.83875,-0.19534 4.8897,-1.36746 1.05095,-1.17211 1.34964,-2.47741 1.34964,-2.47741 0,0 -2.06872,1.3053 -5.91852,1.32306 l -3.24136,0.39071 c 0,0 -0.8297,0.40845 -1.82534,2.37085 -1.0067,1.9624 -1.0067,1.9624 -1.0067,1.9624 z"
       style="fill:#000000;stroke-width:0.09911223"
       id="path10423" />
    <path
       inkscape:connector-curvature="0"
       d="m 97.93451,194.63904 c 0,0 1.10627,-0.34629 4.24806,-0.46173 3.14179,-0.11544 4.59101,-0.23974 5.21051,-1.10995 0.61951,-0.87021 0.65271,-1.3941 0.2102,-1.0922 -0.44251,0.30191 -3.92725,0.61269 -3.13074,0.19536 0.79651,-0.42623 2.55548,-0.35519 3.18605,-1.01229 0.63057,-0.65709 0.79651,-1.70488 0.79651,-1.70488 0,0 -5.92958,0.3019 -7.62217,1.65161 -1.6926,1.35858 -2.89842,3.53408 -2.89842,3.53408 z"
       style="fill:#000000;stroke-width:0.09911223"
       id="path10432" />
    <path
       inkscape:connector-curvature="0"
       d="m 100.73335,191.30031 c 0,0 4.38083,-1.82032 7.54475,-1.32307 0,0 0.48676,-0.96788 -0.12169,-0.93236 -0.60844,0.0356 -3.20818,0.27527 -2.35634,-0.1243 0.85182,-0.3996 2.62184,-0.53279 3.00904,-1.11885 0.38719,-0.58605 0.86288,-1.45625 0.17699,-1.51841 -0.68588,-0.0621 -0.75224,-0.42622 0,-0.90573 0.75227,-0.47949 0.5642,-0.81691 0.70802,-2.11334 0,0 -5.79684,2.80596 -8.96077,8.03606 z"
       style="fill:#000000;stroke-width:0.09911223"
       id="path10441" />
    <path
       inkscape:connector-curvature="0"
       d="m 101.71794,184.99577 c -0.13275,0.44398 -0.53101,2.47742 0.19912,1.50067 0.7412,-0.98565 0.30975,-1.36747 2.57761,-2.02456 2.26784,-0.6571 2.24572,-0.83469 2.41166,-0.63934 0.16593,0.19536 -0.49782,1.03892 0.32082,0.4351 0.81864,-0.60382 1.98022,-0.95011 2.4559,-0.99451 0,0 -3.17498,1.80257 -5.16627,3.81823 -1.99126,2.0068 -4.03786,4.63518 -4.82331,5.42546 -0.78545,0.7814 -1.42708,-4.89268 -0.98458,-5.61193 0.44251,-0.71924 3.16392,-2.39749 3.00905,-1.90912 z"
       style="fill:#000000;stroke-width:0.09911223"
       id="path10450" />
    <path
       inkscape:connector-curvature="0"
       d="m 95.43434,189.23135 c 0,0 1.31647,-1.0833 1.63728,-1.40297 0.32081,-0.32855 0.16594,0.66597 0.29869,1.55393 0.13276,0.88796 0.54207,2.3087 0.79651,0.49726 0.25444,-1.81145 -0.11064,-2.53957 0.5642,-3.20554 0.68589,-0.66598 0.63057,-0.54167 1.03989,-0.71926 0.39826,-0.17759 0.0664,1.82921 0.40931,3.46306 0.34295,1.63385 0.63058,1.60721 0.26551,2.28206 -0.36507,0.67485 -3.0201,3.86264 -3.63962,4.78612 -0.60844,0.92349 -1.37177,-7.25466 -1.37177,-7.25466 z"
       style="fill:#000000;stroke-width:0.09911223"
       id="path10459" />
    <path
       inkscape:connector-curvature="0"
       d="m 97.21543,195.97988 c -0.12169,0.23974 -2.37846,4.64404 -2.90948,5.32777 -0.531,0.68374 -0.71907,-5.31002 -1.42709,-6.79291 -0.70799,-1.47403 -1.15051,-1.17212 -0.75226,-1.67825 0.57527,-0.72813 1.86959,-2.09559 1.88066,-1.80257 0.0113,0.29303 1.23902,5.61193 1.30539,4.33326 0.0664,-1.27867 -0.6195,-4.6618 -0.48675,-5.25674 0.13275,-0.59494 0.71907,-0.959 1.01776,-1.21651 0,0 0.85183,1.88248 1.06202,3.76496 0.21019,1.88248 0.66377,2.61949 0.30975,3.32099 z"
       style="fill:#000000;stroke-width:0.09911223"
       id="path10468" />
    <path
       inkscape:connector-curvature="0"
       d="m 93.12225,203.34996 c 0,0 2.15721,-2.72604 1.82534,-4.08463 -0.33188,-1.35858 -2.33423,-7.04153 -2.24572,-7.12146 0.21019,-0.20423 -0.94033,0.7459 -0.94033,1.49178 0,0.7459 0.48675,2.88588 0.24337,2.62837 -0.24337,-0.2575 -0.39824,-2.36198 -0.71907,-2.01567 -0.32081,0.33742 -0.76332,0.46174 -1.06201,0.9146 -0.29869,0.45286 2.34528,8.36461 2.89842,8.18701 z"
       style="fill:#000000;stroke-width:0.09911223"
       id="path10477" />
    <path
       inkscape:connector-curvature="0"
       d="m 86.860784,213.41946 2.157206,-3.12563 c 0,0 -0.92926,-3.73832 -3.219226,-4.47533 0,0 -0.16594,0.55942 0.13275,1.0922 0.29869,0.53278 1.44921,2.68164 1.19477,3.7916 -0.2655,1.10996 -1.11733,-1.79369 -1.70365,-1.14548 -0.59738,0.64822 1.10627,4.34215 1.43815,3.86264 z"
       style="fill:#000000;stroke-width:0.09911223"
       id="path10486" />
    <path
       inkscape:connector-curvature="0"
       d="m 93.00056,203.67851 c 0,0 -1.43816,2.91252 -1.99129,3.70281 -0.55313,0.79028 -2.97586,-6.58868 -2.97586,-6.58868 0,0 -0.0553,-1.11884 0.0663,-1.43851 0.12168,-0.31966 0.46463,-1.50954 0.63057,-0.63045 0.0553,0.28415 0.36507,1.98016 0.99564,2.86812 0.63057,0.88797 0.66376,1.09219 -0.12169,-2.32647 -0.78544,-3.42753 0.81865,-4.3599 0.81865,-4.3599 0,0 1.28326,4.78613 1.92489,5.94936 0.64164,1.16323 1.0952,1.95352 0.6527,2.82372 z"
       style="fill:#000000;stroke-width:0.09911223"
       id="path10495" />
    <path
       inkscape:connector-curvature="0"
       d="m 89.00694,210.29383 c 0,0 -1.01777,-3.72056 -3.219226,-4.47533 0,0 0.0885,-0.55941 0.75224,-0.31079 0.66377,0.24864 -0.56418,-1.02115 -0.44249,-1.45626 0.12169,-0.4351 0.57525,-1.68713 0.85182,-1.43849 0.27656,0.24863 1.515576,3.75608 1.891706,3.71168 0.37614,-0.0444 -1.19476,-2.85924 -1.648326,-4.36878 -0.45357,-1.50953 0.652686,-2.20215 0.907136,-2.60173 0,0 1.3607,3.80936 2.19041,5.754 0.8297,1.94464 0.70801,2.27319 0.70801,2.27319 z"
       style="fill:#000000;stroke-width:0.09911223"
       id="path10504" />
    <path
       inkscape:connector-curvature="0"
       d="m 85.511134,209.47691 c 0,0 1.5156,2.89476 1.80322,3.27658 l -0.57526,0.84356 c 0,0 -2.06872,-2.83259 -1.73684,-3.37425 0.33188,-0.53278 0.45357,-0.85245 0.50888,-0.74589 z"
       style="fill:#000000;stroke-width:0.09911223"
       id="path10513" />
    <path
       inkscape:connector-curvature="0"
       d="m 109.69412,183.26425 c -2.07979,1.11883 -3.37412,2.14887 -4.70163,3.39202 -1.33859,1.24314 -2.53335,2.60173 -3.65068,3.99582 -1.11733,1.39411 -2.43379,2.77933 -3.4405,4.23559 -1.0067,1.45626 -1.77002,2.95691 -2.71035,4.43981 l -0.60844,1.14547 c -0.23232,0.37295 -0.46464,0.7459 -0.68588,1.11884 l -0.67482,1.11883 -0.67482,1.11883 -1.33859,2.24655 c -0.45358,0.74589 -0.89608,1.49178 -1.34965,2.23767 -0.90714,1.49177 -1.82535,2.97467 -2.765676,4.43981 -0.2323,0.36407 -0.47568,0.73701 -0.708,1.10108 -0.24338,0.36406 -0.48675,0.72812 -0.73013,1.09219 -0.24337,0.36406 -0.49782,0.72813 -0.7412,1.08331 -0.12169,0.1776 -0.25444,0.35519 -0.3872,0.53278 l -0.19912,0.25752 c -0.0663,0.0799 -0.13275,0.17759 -0.18807,0.23974 l -0.0113,0.009 c -0.14382,0.17759 -0.13276,0.39959 0.0332,0.49727 0.16594,0.0977 0.40933,0.0356 0.5642,-0.14207 0,0 0,-0.009 0,-0.009 0.0885,-0.10656 0.14381,-0.19535 0.22124,-0.28415 l 0.19914,-0.27527 c 0.13275,-0.18647 0.25444,-0.36406 0.3872,-0.55053 0.25444,-0.36407 0.49781,-0.73701 0.74119,-1.10995 0.24337,-0.37296 0.47569,-0.73701 0.71907,-1.10997 0.23232,-0.37294 0.46463,-0.74588 0.696946,-1.11882 0.9182,-1.49178 1.81428,-2.98355 2.6993,-4.49309 0.4425,-0.75478 0.87395,-1.50066 1.30539,-2.25543 l 1.29433,-2.25543 0.64163,-1.12771 0.6527,-1.12772 c 0.22125,-0.37294 0.44251,-0.74588 0.66376,-1.11882 l 0.58633,-1.14548 c 0.90713,-1.49179 1.64833,-2.99244 2.61078,-4.45758 0.97352,-1.46514 2.25679,-2.85036 3.35199,-4.25334 1.08414,-1.40297 2.24573,-2.77932 3.56217,-4.03135 1.3054,-1.24315 2.59973,-2.20214 4.63527,-3.43641 z"
       style="fill:#000000;stroke-width:0.09911223"
       id="path10522" />
    <g
       transform="matrix(0.13366498,0,0,0.09410156,-32.288387,147.77903)"
       id="g10626">
      <linearGradient
         id="SVGID_96_"
         gradientUnits="userSpaceOnUse"
         x1="676.23181"
         y1="780.95813"
         x2="738.42279"
         y2="780.95813"
         gradientTransform="matrix(0.9913,-0.1315,0.1315,0.9913,-86.0899,149.6173)">
        <stop
           offset="0"
           style="stop-color:#54B948"
           id="stop10615" />
        <stop
           offset="0.3764"
           style="stop-color:#00A651"
           id="stop10617" />
        <stop
           offset="1"
           style="stop-color:#005826"
           id="stop10619" />
      </linearGradient>
      <path
         inkscape:connector-curvature="0"
         d="m 695,895.1 c 0,0 14.8,-69 45.7,-128.6 -0.1,0 -13.2,95.6 -45.7,128.6 z"
         style="fill:#000000"
         id="path10622" />
      <path
         inkscape:connector-curvature="0"
         d="m 695,895.1 c 0,0 -16.2,-34.8 45.7,-128.6 -0.1,0 -32.8,90.4 -45.7,128.6 z"
         style="fill:#000000"
         id="path10624" />
    </g>
    <path
       inkscape:connector-curvature="0"
       d="m 61.063236,233.27972 c 0,0 -5.279767,-2.34313 -12.21698,-3.49117 -0.0133,0 6.349088,3.59468 12.21698,3.49117 z"
       style="fill:#000000;stroke-width:0.11215205"
       id="path10635" />
    <path
       inkscape:connector-curvature="0"
       d="m 61.063236,233.27972 c 0,0 0.441094,-2.30548 -12.21698,-3.49117 -0.0133,0 8.661492,2.42781 12.21698,3.49117 z"
       style="fill:#000000;stroke-width:0.11215205"
       id="path10637" />
    <path
       inkscape:connector-curvature="0"
       d="m 58.470135,230.30611 c 0,0 -6.33572,-4.451 -13.981357,-7.39638 0,-0.01 7.886234,6.52123 13.981357,7.39638 z"
       style="fill:#000000;stroke-width:0.11215205"
       id="path10646" />
    <path
       inkscape:connector-curvature="0"
       d="m 58.470135,230.30611 c 0,0 -0.347529,-3.40647 -13.981357,-7.39638 0,-0.01 9.904575,5.16617 13.981357,7.39638 z"
       style="fill:#000000;stroke-width:0.11215205"
       id="path10648" />
    <path
       inkscape:connector-curvature="0"
       d="m 56.010699,225.72337 c 0,0 -6.175321,-4.94974 -13.366498,-8.40328 0,0 7.792669,7.17995 13.366498,8.40328 z"
       style="fill:#000000;stroke-width:0.11215205"
       id="path10657" />
    <path
       inkscape:connector-curvature="0"
       d="m 56.010699,225.72337 c 0,0 -0.668324,-3.55705 -13.366498,-8.40328 0,0 9.46348,5.88135 13.366498,8.40328 z"
       style="fill:#000000;stroke-width:0.11215205"
       id="path10659" />
    <path
       inkscape:connector-curvature="0"
       d="m 54.861181,222.41099 c 0,0 -6.442652,-5.56141 -13.820958,-9.54191 0,0 8.207029,8.03629 13.820958,9.54191 z"
       style="fill:#000000;stroke-width:0.11215205"
       id="path10668" />
    <path
       inkscape:connector-curvature="0"
       d="m 54.861181,222.41099 c 0,0 -0.908922,-3.86757 -13.820958,-9.54191 0,0 9.784275,6.69063 13.820958,9.54191 z"
       style="fill:#000000;stroke-width:0.11215205"
       id="path10670" />
    <path
       inkscape:connector-curvature="0"
       d="m 53.698295,219.81378 c 0,0 -5.079268,-6.22011 -11.441721,-10.99107 0,0 6.255519,8.86438 11.441721,10.99107 z"
       style="fill:#000000;stroke-width:0.11215205"
       id="path10679" />
    <path
       inkscape:connector-curvature="0"
       d="m 53.698295,219.81378 c 0,0 0,-3.92403 -11.441721,-10.99107 0,0 8.113463,7.71634 11.441721,10.99107 z"
       style="fill:#000000;stroke-width:0.11215205"
       id="path10681" />
    <path
       inkscape:connector-curvature="0"
       d="m 52.174514,214.51587 c 0,0 -5.814426,-6.32364 -13.299665,-11.07576 0,-0.01 7.070877,9.03376 13.299665,11.07576 z"
       style="fill:#000000;stroke-width:0.11215205"
       id="path10690" />
    <path
       inkscape:connector-curvature="0"
       d="m 52.174514,214.51587 c 0,0 0.267331,-4.09342 -13.299665,-11.07576 0,-0.01 9.436748,7.76338 13.299665,11.07576 z"
       style="fill:#000000;stroke-width:0.11215205"
       id="path10692" />
    <path
       inkscape:connector-curvature="0"
       d="m 51.706688,212.25743 c 0,0 -2.7535,-7.28346 -7.765937,-13.43771 0,0 2.740133,10.14415 7.765937,13.43771 z"
       style="fill:#000000;stroke-width:0.11215205"
       id="path10701" />
    <path
       inkscape:connector-curvature="0"
       d="m 51.706688,212.25743 c 0,0 2.05844,-3.83935 -7.765937,-13.43771 0,0 5.547098,9.44781 7.765937,13.43771 z"
       style="fill:#000000;stroke-width:0.11215205"
       id="path10703" />
    <path
       inkscape:connector-curvature="0"
       d="m 51.693321,207.39237 c 0,0 -1.737645,-6.99175 -5.079269,-12.87309 -0.0133,-0.01 1.644079,9.74893 5.079269,12.87309 z"
       style="fill:#000000;stroke-width:0.11215205"
       id="path10712" />
    <path
       inkscape:connector-curvature="0"
       d="m 51.693321,207.39237 c 0,0 1.550513,-3.73583 -5.079269,-12.87309 -0.0133,-0.01 3.62232,9.04316 5.079269,12.87309 z"
       style="fill:#000000;stroke-width:0.11215205"
       id="path10714" />
    <path
       inkscape:connector-curvature="0"
       d="m 58.523601,229.16748 c 0,0 1.60398,-6.26716 5.11937,-11.65918 0,0 -1.37675,8.7044 -5.11937,11.65918 z"
       style="fill:#000000;stroke-width:0.11215205"
       id="path10734" />
    <path
       inkscape:connector-curvature="0"
       d="m 58.523601,229.16748 c 0,0 -1.951509,-3.19004 5.11937,-11.65918 0,0 -3.662421,8.20566 -5.11937,11.65918 z"
       style="fill:#000000;stroke-width:0.11215205"
       id="path10736" />
    <path
       inkscape:connector-curvature="0"
       d="m 57.03992,225.96802 c 0,0 2.459436,-6.12601 6.696615,-11.25454 0,0 -2.553,8.56324 -6.696615,11.25454 z"
       style="fill:#000000;stroke-width:0.11215205"
       id="path10745" />
    <path
       inkscape:connector-curvature="0"
       d="m 57.03992,225.96802 c 0,0 -1.510415,-3.31237 6.696615,-11.25454 0,0 -4.771839,7.91394 -6.696615,11.25454 z"
       style="fill:#000000;stroke-width:0.11215205"
       id="path10747" />
    <path
       inkscape:connector-curvature="0"
       d="m 55.623071,223.61548 c 0,0 2.045074,-5.90016 5.613929,-10.83108 0,0 -2.125273,8.24329 -5.613929,10.83108 z"
       style="fill:#000000;stroke-width:0.11215205"
       id="path10756" />
    <path
       inkscape:connector-curvature="0"
       d="m 55.623071,223.61548 c 0,0 -1.296551,-3.19003 5.613929,-10.83108 0,0 -4.009949,7.61282 -5.613929,10.83108 z"
       style="fill:#000000;stroke-width:0.11215205"
       id="path10758" />
    <path
       inkscape:connector-curvature="0"
       d="m 54.486919,220.08668 c 0,0 3.181226,-6.18248 7.712469,-11.17927 0,-0.01 -3.70252,8.70439 -7.712469,11.17927 z"
       style="fill:#000000;stroke-width:0.11215205"
       id="path10767" />
    <path
       inkscape:connector-curvature="0"
       d="m 54.486919,220.08668 c 0,0 -0.695058,-3.56645 7.712469,-11.17927 0,-0.01 -5.480263,7.84807 -7.712469,11.17927 z"
       style="fill:#000000;stroke-width:0.11215205"
       id="path10769" />
    <path
       inkscape:connector-curvature="0"
       d="m 53.417599,217.34832 c 0,0 3.181226,-6.18246 7.712469,-11.17926 0,-0.01 -3.702519,8.70439 -7.712469,11.17926 z"
       style="fill:#000000;stroke-width:0.11215205"
       id="path10778" />
    <path
       inkscape:connector-curvature="0"
       d="m 53.417599,217.34832 c 0,0 -0.695058,-3.56644 7.712469,-11.17926 0,-0.01 -5.480264,7.84807 -7.712469,11.17926 z"
       style="fill:#000000;stroke-width:0.11215205"
       id="path10780" />
    <path
       inkscape:connector-curvature="0"
       d="m 52.508677,213.2455 c 0,0 3.181227,-6.18248 7.71247,-11.17928 0,0 -3.70252,8.7044 -7.71247,11.17928 z"
       style="fill:#000000;stroke-width:0.11215205"
       id="path10789" />
    <path
       inkscape:connector-curvature="0"
       d="m 52.508677,213.2455 c 0,0 -0.695058,-3.56646 7.71247,-11.17928 0,0 -5.480264,7.84808 -7.71247,11.17928 z"
       style="fill:#000000;stroke-width:0.11215205"
       id="path10791" />
    <path
       inkscape:connector-curvature="0"
       d="m 51.853719,207.9664 c 0,0 3.194592,-5.65551 7.792668,-10.21003 0,0 -3.689153,7.97041 -7.792668,10.21003 z"
       style="fill:#000000;stroke-width:0.11215205"
       id="path10800" />
    <path
       inkscape:connector-curvature="0"
       d="m 51.853719,207.9664 c 0,0 -0.775256,-3.27473 7.792668,-10.21003 0,0 -5.53373,7.17054 -7.792668,10.21003 z"
       style="fill:#000000;stroke-width:0.11215205"
       id="path10802" />
    <path
       inkscape:connector-curvature="0"
       d="m 51.826985,203.49658 c 0,0 2.887165,-5.11913 7.044145,-9.24077 0,0 -3.328257,7.21758 -7.044145,9.24077 z"
       style="fill:#000000;stroke-width:0.11215205"
       id="path10811" />
    <path
       inkscape:connector-curvature="0"
       d="m 51.826985,203.49658 c 0,0 -0.695058,-2.96422 7.044145,-9.24077 0,0 -4.999071,6.49299 -7.044145,9.24077 z"
       style="fill:#000000;stroke-width:0.11215205"
       id="path10813" />
    <path
       inkscape:connector-curvature="0"
       d="m 52.08095,202.04742 c 0,0 -1.577247,5.92839 0.173764,13.00483 1.75101,7.07643 6.242154,18.08632 11.094192,20.71175 0,0 1.122787,-0.29171 0.253965,-0.88456 -0.882189,-0.60224 -3.956484,-3.63231 -5.814426,-7.57517 -1.857944,-3.95226 -4.036683,-7.84806 -4.825307,-12.91074 -0.788624,-5.06267 -0.882188,-12.34611 -0.882188,-12.34611 z"
       style="fill:#000000;stroke-width:0.11215205"
       id="path10822" />
    <text
       xml:space="preserve"
       style="font-style:normal;font-variant:normal;font-weight:normal;font-stretch:normal;font-size:10.58333302px;line-height:1.25;font-family:Webdings;-inkscape-font-specification:Webdings;letter-spacing:0px;word-spacing:0px;fill:#000000;fill-opacity:1;stroke:none;stroke-width:0.26458332"
       x="51.064583"
       y="185.875"
       id="text11801"><tspan
         sodipodi:role="line"
         id="tspan11799"
         x="51.064583"
         y="185.875"
         style="font-style:normal;font-variant:normal;font-weight:normal;font-stretch:normal;font-size:16.93333244px;font-family:'Palatino Linotype';-inkscape-font-specification:'Palatino Linotype';stroke-width:0.26458332">ELLY</tspan></text>
  </g>
</svg>
