<?xml version="1.0" standalone="no"?>
<!DOCTYPE svg PUBLIC "-//W3C//DTD SVG 20010904//EN"
 "http://www.w3.org/TR/2001/REC-SVG-20010904/DTD/svg10.dtd">
<svg version="1.0" xmlns="http://www.w3.org/2000/svg"
 width="144.000000pt" height="144.000000pt" viewBox="0 0 144.000000 144.000000"
 preserveAspectRatio="xMidYMid meet">
<metadata>
Created by potrace 1.15, written by Peter Selinger 2001-2017
</metadata>
<g transform="translate(0.000000,144.000000) scale(0.100000,-0.100000)"
fill="#000000" stroke="none">
<path d="M574 747 c-6 -17 2 -296 13 -427 l8 -95 43 0 42 0 1 90 c0 50 1 169
2 265 l2 175 -53 3 c-38 2 -54 -1 -58 -11z"/>
<path d="M439 741 c-1 -3 0 -14 1 -24 1 -10 -4 -24 -10 -32 -8 -10 -8 -19 -1
-34 7 -12 11 -98 11 -223 l0 -204 43 1 44 0 6 194 c4 107 7 224 7 261 l0 68
-50 -1 c-27 0 -51 -3 -51 -6z m60 -59 c-4 -26 -2 -69 3 -97 6 -27 12 -116 15
-197 l4 -148 -35 0 -36 0 0 200 c0 171 2 200 15 200 8 0 15 6 15 14 0 8 3 21
6 30 4 11 0 16 -13 16 -11 0 -19 7 -20 18 -1 15 4 17 26 14 27 -4 28 -5 20
-50z"/>
<path d="M710 587 c0 -7 7 -22 15 -33 8 -10 15 -27 15 -37 0 -9 9 -34 20 -54
11 -21 20 -43 20 -50 0 -7 5 -13 10 -13 7 0 7 7 0 21 -7 11 -9 23 -6 26 3 3
-1 21 -9 40 -8 20 -15 37 -15 38 0 2 18 -2 40 -7 37 -10 41 -14 55 -60 8 -28
12 -54 9 -59 -3 -5 0 -9 5 -9 6 0 11 -7 11 -16 0 -10 7 -14 23 -12 13 2 22 10
21 20 -1 14 2 15 25 5 14 -6 31 -15 36 -20 7 -7 6 -8 -1 -4 -7 4 -11 -5 -11
-24 0 -28 2 -27 24 18 25 52 83 214 83 232 0 7 -22 11 -54 11 l-54 0 -15 -47
c-8 -27 -23 -78 -33 -115 -9 -38 -20 -68 -25 -68 -9 0 -36 88 -53 170 l-11 55
-62 3 c-48 2 -63 0 -63 -11z"/>
<path d="M122 574 c-50 -25 -87 -96 -86 -164 1 -76 30 -131 84 -160 29 -16
110 -30 110 -20 0 8 -51 20 -83 21 -10 0 -15 5 -11 11 5 7 2 8 -5 4 -7 -5 -21
0 -32 10 -22 20 -26 42 -4 24 13 -11 14 -10 9 4 -4 10 -13 15 -21 12 -8 -4
-17 4 -23 20 -13 32 -13 124 -1 124 5 0 7 8 5 18 -2 9 5 28 17 42 11 14 18 19
14 13 -3 -7 -1 -13 4 -13 6 0 11 9 11 20 0 25 25 37 44 21 10 -8 16 -9 21 -1
3 5 17 7 31 4 16 -4 24 -2 24 6 0 9 10 11 30 7 36 -8 80 -35 80 -50 0 -7 -4
-7 -12 1 -7 7 -16 12 -21 12 -5 0 -1 -7 7 -16 9 -8 20 -13 24 -10 13 8 32 -40
32 -79 l0 -35 -122 -1 c-68 -1 -126 -1 -130 0 -3 0 -5 -11 -3 -24 1 -14 -2
-25 -7 -25 -15 0 14 -23 54 -44 41 -21 89 -17 119 10 16 14 20 14 45 -3 28
-18 28 -18 5 -21 -15 -2 -21 -8 -17 -18 3 -9 -1 -14 -12 -14 -24 -1 -73 -29
-50 -30 26 0 61 16 86 39 29 28 28 37 -7 55 -25 14 -32 13 -68 -5 -33 -16 -45
-18 -69 -9 -39 15 -64 39 -64 62 0 16 10 18 125 18 l125 0 0 43 c0 54 -26 106
-69 134 -36 24 -108 33 -95 11 5 -8 2 -9 -12 -4 -38 16 -50 16 -82 0z"/>
<path d="M195 539 c-4 -6 -14 -8 -22 -5 -8 3 -11 2 -8 -3 3 -5 -3 -12 -12 -15
-23 -8 -47 -57 -32 -66 7 -5 6 -12 -4 -22 -14 -13 -12 -15 16 -15 18 -1 26 1
20 4 -32 12 -6 18 71 17 l84 -2 -9 32 c-5 17 -18 38 -28 47 -11 9 -18 19 -15
22 3 3 -3 3 -15 0 -12 -3 -21 -1 -21 6 0 14 -17 14 -25 0z"/>
</g>
</svg>
