<?xml version="1.0" standalone="no"?>
<!DOCTYPE svg PUBLIC "-//W3C//DTD SVG 20010904//EN"
 "http://www.w3.org/TR/2001/REC-SVG-20010904/DTD/svg10.dtd">
<svg version="1.0" xmlns="http://www.w3.org/2000/svg"
 width="72.000000pt" height="72.000000pt" viewBox="0 0 72.000000 72.000000"
 preserveAspectRatio="xMidYMid meet">
<metadata>
Created by potrace 1.15, written by Peter Selinger 2001-2017
</metadata>
<g transform="translate(0.000000,72.000000) scale(0.100000,-0.100000)"
fill="#000000" stroke="none">
<path d="M50 282 c-32 -26 -38 -90 -10 -124 17 -22 30 -28 61 -28 45 0 83 16
73 31 -3 6 -24 7 -49 4 -37 -6 -45 -4 -59 16 -15 22 -16 22 -16 4 -1 -19 -1
-19 -11 -2 -18 31 13 107 44 107 6 0 1 -11 -12 -23 -35 -38 -20 -55 55 -59
l65 -3 -7 30 c-12 60 -86 86 -134 47z"/>
</g>
</svg>
