<?xml version="1.0" encoding="UTF-8" standalone="no"?>
<!-- Created with Inkscape (http://www.inkscape.org/) -->

<svg
   xmlns:dc="http://purl.org/dc/elements/1.1/"
   xmlns:cc="http://creativecommons.org/ns#"
   xmlns:rdf="http://www.w3.org/1999/02/22-rdf-syntax-ns#"
   xmlns:svg="http://www.w3.org/2000/svg"
   xmlns="http://www.w3.org/2000/svg"
   xmlns:sodipodi="http://sodipodi.sourceforge.net/DTD/sodipodi-0.dtd"
   xmlns:inkscape="http://www.inkscape.org/namespaces/inkscape"
   width="35cm"
   height="40cm"
   viewBox="0 0 350 399.99998"
   version="1.1"
   id="svg4888"
   inkscape:version="0.92.0 r15299"
   sodipodi:docname="ELE LOGO.svg">
  <defs
     id="defs4882">
    <inkscape:path-effect
       effect="skeletal"
       id="path-effect4548"
       is_visible="true"
       pattern="M 0,5 C 0,2.24 2.24,0 5,0 7.76,0 10,2.24 10,5 10,7.76 7.76,10 5,10 2.24,10 0,7.76 0,5 Z"
       copytype="single_stretched"
       prop_scale="0.26458334"
       scale_y_rel="false"
       spacing="0"
       normal_offset="0"
       tang_offset="0"
       prop_units="false"
       vertical_pattern="false"
       fuse_tolerance="0" />
    <inkscape:path-effect
       effect="bspline"
       id="path-effect4546"
       is_visible="true"
       weight="33.333333"
       steps="2"
       helper_size="0"
       apply_no_weight="true"
       apply_with_weight="true"
       only_selected="false" />
    <inkscape:path-effect
       effect="skeletal"
       id="path-effect4532"
       is_visible="true"
       pattern="M 0,5 C 0,2.24 2.24,0 5,0 7.76,0 10,2.24 10,5 10,7.76 7.76,10 5,10 2.24,10 0,7.76 0,5 Z"
       copytype="single_stretched"
       prop_scale="0.26458334"
       scale_y_rel="false"
       spacing="0"
       normal_offset="0"
       tang_offset="0"
       prop_units="false"
       vertical_pattern="false"
       fuse_tolerance="0" />
    <inkscape:path-effect
       effect="bspline"
       id="path-effect4530"
       is_visible="true"
       weight="33.333333"
       steps="2"
       helper_size="0"
       apply_no_weight="true"
       apply_with_weight="true"
       only_selected="false" />
    <inkscape:path-effect
       effect="skeletal"
       id="path-effect4526"
       is_visible="true"
       pattern="M 0,5 C 0,2.24 2.24,0 5,0 7.76,0 10,2.24 10,5 10,7.76 7.76,10 5,10 2.24,10 0,7.76 0,5 Z"
       copytype="single_stretched"
       prop_scale="0.41053371"
       scale_y_rel="false"
       spacing="0"
       normal_offset="0"
       tang_offset="0"
       prop_units="false"
       vertical_pattern="false"
       fuse_tolerance="0" />
    <inkscape:path-effect
       effect="spiro"
       id="path-effect4524"
       is_visible="true" />
    <inkscape:path-effect
       effect="skeletal"
       id="path-effect5509"
       is_visible="true"
       pattern="M 0,5 C 0,2.24 2.24,0 5,0 7.76,0 10,2.24 10,5 10,7.76 7.76,10 5,10 2.24,10 0,7.76 0,5 Z"
       copytype="single_stretched"
       prop_scale="0.26458334"
       scale_y_rel="false"
       spacing="0"
       normal_offset="0"
       tang_offset="0"
       prop_units="false"
       vertical_pattern="false"
       fuse_tolerance="0" />
    <inkscape:path-effect
       effect="bspline"
       id="path-effect5507"
       is_visible="true"
       weight="33.333333"
       steps="2"
       helper_size="0"
       apply_no_weight="true"
       apply_with_weight="true"
       only_selected="false" />
    <inkscape:path-effect
       effect="skeletal"
       id="path-effect5503"
       is_visible="true"
       pattern="m 529.19367,-200.263 c 0,-2.76 2.24,-5 5,-5 2.76,0 5,2.24 5,5 0,2.76 -2.24,5 -5,5 -2.76,0 -5,-2.24 -5,-5 z"
       copytype="single_stretched"
       prop_scale="0.24869755"
       scale_y_rel="false"
       spacing="0"
       normal_offset="0"
       tang_offset="0"
       prop_units="false"
       vertical_pattern="false"
       fuse_tolerance="0" />
    <inkscape:path-effect
       effect="bspline"
       id="path-effect5501"
       is_visible="true"
       weight="33.333333"
       steps="2"
       helper_size="0"
       apply_no_weight="true"
       apply_with_weight="true"
       only_selected="false" />
    <inkscape:path-effect
       effect="skeletal"
       id="path-effect5497"
       is_visible="true"
       pattern="m 529.19367,-200.263 c 0,-2.76 2.24,-5 5,-5 2.76,0 5,2.24 5,5 0,2.76 -2.24,5 -5,5 -2.76,0 -5,-2.24 -5,-5 z"
       copytype="single_stretched"
       prop_scale="-0.36636199"
       scale_y_rel="false"
       spacing="0"
       normal_offset="0"
       tang_offset="0"
       prop_units="false"
       vertical_pattern="false"
       fuse_tolerance="0" />
    <inkscape:path-effect
       effect="bspline"
       id="path-effect5495"
       is_visible="true"
       weight="33.333333"
       steps="2"
       helper_size="0"
       apply_no_weight="true"
       apply_with_weight="true"
       only_selected="false" />
    <inkscape:path-effect
       effect="skeletal"
       id="path-effect5491"
       is_visible="true"
       pattern="m 529.19367,-200.263 c 0,-2.76 2.24,-5 5,-5 2.76,0 5,2.24 5,5 0,2.76 -2.24,5 -5,5 -2.76,0 -5,-2.24 -5,-5 z"
       copytype="single_stretched"
       prop_scale="-0.38602811"
       scale_y_rel="false"
       spacing="0"
       normal_offset="0"
       tang_offset="0"
       prop_units="false"
       vertical_pattern="false"
       fuse_tolerance="0" />
    <inkscape:path-effect
       effect="bspline"
       id="path-effect5489"
       is_visible="true"
       weight="33.333333"
       steps="2"
       helper_size="0"
       apply_no_weight="true"
       apply_with_weight="true"
       only_selected="false" />
    <inkscape:path-effect
       effect="skeletal"
       id="path-effect5485"
       is_visible="true"
       pattern="m 529.19367,-200.263 c 0,-2.76 2.24,-5 5,-5 2.76,0 5,2.24 5,5 0,2.76 -2.24,5 -5,5 -2.76,0 -5,-2.24 -5,-5 z"
       copytype="single_stretched"
       prop_scale="-0.28556126"
       scale_y_rel="false"
       spacing="0"
       normal_offset="0"
       tang_offset="0"
       prop_units="false"
       vertical_pattern="false"
       fuse_tolerance="0" />
    <inkscape:path-effect
       effect="bspline"
       id="path-effect5483"
       is_visible="true"
       weight="33.333333"
       steps="2"
       helper_size="0"
       apply_no_weight="true"
       apply_with_weight="true"
       only_selected="false" />
    <inkscape:path-effect
       effect="skeletal"
       id="path-effect5479"
       is_visible="true"
       pattern="m 529.19367,-200.263 c 0,-2.76 2.24,-5 5,-5 2.76,0 5,2.24 5,5 0,2.76 -2.24,5 -5,5 -2.76,0 -5,-2.24 -5,-5 z"
       copytype="single_stretched"
       prop_scale="0.20999042"
       scale_y_rel="false"
       spacing="0"
       normal_offset="0"
       tang_offset="0"
       prop_units="false"
       vertical_pattern="false"
       fuse_tolerance="0" />
    <inkscape:path-effect
       effect="bspline"
       id="path-effect5477"
       is_visible="true"
       weight="33.333333"
       steps="2"
       helper_size="0"
       apply_no_weight="true"
       apply_with_weight="true"
       only_selected="false" />
    <inkscape:path-effect
       effect="skeletal"
       id="path-effect5473"
       is_visible="true"
       pattern="M 0,5 C 0,2.24 2.24,0 5,0 7.76,0 10,2.24 10,5 10,7.76 7.76,10 5,10 2.24,10 0,7.76 0,5 Z"
       copytype="single_stretched"
       prop_scale="0.26458334"
       scale_y_rel="false"
       spacing="0"
       normal_offset="0"
       tang_offset="0"
       prop_units="false"
       vertical_pattern="false"
       fuse_tolerance="0" />
    <inkscape:path-effect
       effect="bspline"
       id="path-effect5471"
       is_visible="true"
       weight="33.333333"
       steps="2"
       helper_size="0"
       apply_no_weight="true"
       apply_with_weight="true"
       only_selected="false" />
    <inkscape:path-effect
       effect="skeletal"
       id="path-effect5467"
       is_visible="true"
       pattern="m 529.19367,-200.263 c 0,-2.76 2.24,-5 5,-5 2.76,0 5,2.24 5,5 0,2.76 -2.24,5 -5,5 -2.76,0 -5,-2.24 -5,-5 z"
       copytype="single_stretched"
       prop_scale="0.13243215"
       scale_y_rel="false"
       spacing="0"
       normal_offset="0"
       tang_offset="0"
       prop_units="false"
       vertical_pattern="false"
       fuse_tolerance="0" />
    <inkscape:path-effect
       effect="bspline"
       id="path-effect5465"
       is_visible="true"
       weight="33.333333"
       steps="2"
       helper_size="0"
       apply_no_weight="true"
       apply_with_weight="true"
       only_selected="false" />
    <inkscape:path-effect
       effect="skeletal"
       id="path-effect5461"
       is_visible="true"
       pattern="m 529.19367,-200.263 c 0,-2.76 2.24,-5 5,-5 2.76,0 5,2.24 5,5 0,2.76 -2.24,5 -5,5 -2.76,0 -5,-2.24 -5,-5 z"
       copytype="single_stretched"
       prop_scale="-0.32931715"
       scale_y_rel="false"
       spacing="0"
       normal_offset="0"
       tang_offset="0"
       prop_units="false"
       vertical_pattern="false"
       fuse_tolerance="0" />
    <inkscape:path-effect
       effect="bspline"
       id="path-effect5459"
       is_visible="true"
       weight="33.333333"
       steps="2"
       helper_size="0"
       apply_no_weight="true"
       apply_with_weight="true"
       only_selected="false" />
    <inkscape:path-effect
       effect="skeletal"
       id="path-effect5455"
       is_visible="true"
       pattern="m 529.19367,-200.263 c 0,-2.76 2.24,-5 5,-5 2.76,0 5,2.24 5,5 0,2.76 -2.24,5 -5,5 -2.76,0 -5,-2.24 -5,-5 z"
       copytype="single_stretched"
       prop_scale="0.13243215"
       scale_y_rel="false"
       spacing="0"
       normal_offset="0"
       tang_offset="0"
       prop_units="false"
       vertical_pattern="false"
       fuse_tolerance="0" />
    <inkscape:path-effect
       effect="bspline"
       id="path-effect5453"
       is_visible="true"
       weight="33.333333"
       steps="2"
       helper_size="0"
       apply_no_weight="true"
       apply_with_weight="true"
       only_selected="false" />
    <inkscape:path-effect
       effect="skeletal"
       id="path-effect5449"
       is_visible="true"
       pattern="m 529.19367,-200.263 c 0,-2.76 2.24,-5 5,-5 2.76,0 5,2.24 5,5 0,2.76 -2.24,5 -5,5 -2.76,0 -5,-2.24 -5,-5 z"
       copytype="single_stretched"
       prop_scale="-0.43003205"
       scale_y_rel="false"
       spacing="0"
       normal_offset="0"
       tang_offset="0"
       prop_units="false"
       vertical_pattern="false"
       fuse_tolerance="0" />
    <inkscape:path-effect
       effect="spiro"
       id="path-effect5447"
       is_visible="true" />
    <inkscape:path-effect
       effect="skeletal"
       id="path-effect5443"
       is_visible="true"
       pattern="m 529.19367,-200.263 c 0,-2.76 2.24,-5 5,-5 2.76,0 5,2.24 5,5 0,2.76 -2.24,5 -5,5 -2.76,0 -5,-2.24 -5,-5 z"
       copytype="single_stretched"
       prop_scale="0.22127392"
       scale_y_rel="false"
       spacing="0"
       normal_offset="0"
       tang_offset="0"
       prop_units="false"
       vertical_pattern="false"
       fuse_tolerance="0" />
    <inkscape:path-effect
       effect="spiro"
       id="path-effect5441"
       is_visible="true" />
    <inkscape:path-effect
       effect="skeletal"
       id="path-effect5437"
       is_visible="true"
       pattern="m 529.19367,-200.263 c 0,-2.76 2.24,-5 5,-5 2.76,0 5,2.24 5,5 0,2.76 -2.24,5 -5,5 -2.76,0 -5,-2.24 -5,-5 z"
       copytype="single_stretched"
       prop_scale="0.3660653"
       scale_y_rel="false"
       spacing="0"
       normal_offset="0"
       tang_offset="0"
       prop_units="false"
       vertical_pattern="false"
       fuse_tolerance="0" />
    <inkscape:path-effect
       effect="spiro"
       id="path-effect5435"
       is_visible="true" />
  </defs>
  <sodipodi:namedview
     id="base"
     pagecolor="#ffffff"
     bordercolor="#666666"
     borderopacity="1.0"
     inkscape:pageopacity="0.0"
     inkscape:pageshadow="2"
     inkscape:zoom="0.49497474"
     inkscape:cx="537.1573"
     inkscape:cy="1068.3108"
     inkscape:document-units="mm"
     inkscape:current-layer="layer1"
     showgrid="false"
     units="cm"
     width="35cm"
     inkscape:window-width="1920"
     inkscape:window-height="1001"
     inkscape:window-x="-9"
     inkscape:window-y="-9"
     inkscape:window-maximized="1" />
  <metadata
     id="metadata4885">
    <rdf:RDF>
      <cc:Work
         rdf:about="">
        <dc:format>image/svg+xml</dc:format>
        <dc:type
           rdf:resource="http://purl.org/dc/dcmitype/StillImage" />
        <dc:title />
      </cc:Work>
    </rdf:RDF>
  </metadata>
  <g
     inkscape:label="Layer 1"
     inkscape:groupmode="layer"
     id="layer1"
     transform="translate(0,102.99999)">
    <path
       style="fill:#ccff00;stroke:none;stroke-width:0.13087665px;stroke-linecap:butt;stroke-linejoin:miter;stroke-opacity:1"
       d="m 251.31249,34.771993 c -0.13302,0.345095 -3.81923,-0.913969 -10.28797,-2.072125 -6.45941,-1.156485 -15.8,-2.081717 -26.58461,-0.247423 -3.17771,0.549777 -6.52687,1.321633 -9.5115,2.773369 -2.7917,1.36603 -5.45046,3.353562 -7.08125,6.008804 -0.90212,1.430368 -1.522,3.074579 -1.83058,4.805296 -0.20005,1.122019 -0.266,2.262593 -0.20088,3.382666 0.16735,2.933629 1.25078,5.772213 2.86963,8.111499 2.84423,4.201698 7.6891,6.942439 12.03457,9.002663 9.21099,4.283086 17.7035,5.97047 23.68917,6.751085 5.99914,0.782373 9.55256,0.785629 9.56911,1.138631 0.013,0.277501 -3.50483,1.01976 -9.7296,0.781396 -6.18446,-0.236822 -15.09329,-1.510892 -24.85456,-5.703126 -4.65929,-1.962245 -10.0092,-4.92402 -13.63549,-9.90947 -2.01464,-2.820125 -3.35069,-6.267492 -3.59023,-9.948306 -0.0905,-1.410073 -0.0114,-2.840978 0.24235,-4.252803 0.39137,-2.177747 1.18804,-4.255511 2.35245,-6.103551 2.17087,-3.375724 5.35789,-5.763689 8.65426,-7.268796 3.49441,-1.603753 7.15682,-2.390048 10.50779,-2.861161 11.35739,-1.628141 21.03097,-0.173112 27.53874,1.583722 6.55046,1.768357 9.94888,3.767475 9.8486,4.02763 z"
       id="path5433"
       inkscape:connector-curvature="0"
       inkscape:path-effect="#path-effect5435;#path-effect5437"
       inkscape:original-d="m 251.31249,34.771993 c -12.37649,-1.321918 -24.75315,-2.643741 -37.12996,-3.96545 -12.37683,-1.321709 -11.91811,6.303936 -17.8774,9.456065 -5.95929,3.15213 0.61135,12.201271 0.9168,18.302061 0.30543,6.100802 8.55685,6.303937 12.83503,9.456066 4.27821,3.15213 24.60068,4.778769 33.92122,6.405723"
       sodipodi:nodetypes="cssscc" />
    <path
       style="fill:#00aad4;stroke:none;stroke-width:0.13087665px;stroke-linecap:butt;stroke-linejoin:miter;stroke-opacity:1"
       d="m 240.76941,36.29717 c -0.13209,0.625452 6.49822,-0.933394 13.01516,7.456307 0,1e-6 0,2e-6 0,2e-6 3.39476,4.394959 5.59944,11.045759 4.52812,18.624159 -0.63345,4.525712 -2.358,9.109784 -5.16635,13.277046 -0.26151,0.386646 -0.53097,0.76845 -0.80813,1.145628 -3.48209,4.738828 -7.9862,8.470053 -12.13156,11.485868 -5.48113,4.001612 -10.59729,7.195275 -14.52203,10.244266 -1.86563,1.45049 -3.33337,2.719484 -4.61559,4.070874 0,0 0,0 0,0 -3.67971,3.87233 -4.83772,6.99315 -5.05292,6.9041 -0.0364,-0.0151 0.45245,-3.34188 4.11496,-7.73757 0,0 0,-10e-6 0,-10e-6 1.24537,-1.49253 2.71795,-2.91549 4.55231,-4.470066 3.87048,-3.282661 8.95618,-6.668471 14.28004,-10.686592 4.00846,-3.03608 8.34122,-6.666922 11.59389,-11.11624 0.25952,-0.354995 0.51123,-0.713765 0.75489,-1.07657 2.62559,-3.894309 4.27426,-8.153115 4.91837,-12.345842 1.06515,-7.001071 -0.7451,-13.191014 -3.723,-17.369893 0,0 -10e-6,-2e-6 -10e-6,-2e-6 -5.13871,-7.25664 -11.80266,-8.099998 -11.73815,-8.405465 z"
       id="path5439"
       inkscape:connector-curvature="0"
       inkscape:path-effect="#path-effect5441;#path-effect5443"
       inkscape:original-d="m 240.76941,36.29717 c 4.12571,2.643521 8.25127,5.287148 12.37666,7.930888 4.12539,2.643741 2.75054,11.997916 4.12556,17.997026 1.37501,5.999119 -3.36141,8.540854 -5.04236,12.811444 -1.68093,4.27059 -18.03002,15.251613 -27.04527,22.877582 -9.01526,7.62596 -3.05581,2.84687 -4.58395,4.27047 -1.52814,1.4236 -3.05581,4.88044 -4.58394,7.32084" />
    <path
       style="fill:#ff0000;stroke:none;stroke-width:0.13087665px;stroke-linecap:butt;stroke-linejoin:miter;stroke-opacity:1"
       d="m 233.55125,29.45685 c 0.27822,0.351954 6.93858,-5.822288 20.7914,-8.759244 8.47514,-1.813958 17.1801,-1.611865 29.36065,-0.380265 3.25342,0.353088 7.03571,0.774308 10.86959,0.116085 1.85735,-0.326806 3.74867,-0.962418 5.49735,-2.017306 1.70804,-1.028909 3.23217,-2.507068 4.27872,-4.385786 1.11719,-2.079845 1.55372,-4.4358272 1.38068,-6.7350171 -0.16458,-2.2306145 -0.80019,-4.3597299 -1.71327,-6.31747153 -2.1409,-4.56192897 -5.23878,-7.98254027 -7.99926,-11.78242837 -1.28373,-1.792522 -2.46984,-3.632447 -3.28813,-5.566014 -0.79632,-1.895699 -1.31206,-3.904607 -1.24269,-5.848091 0,0 0,-9e-6 0,-9e-6 0.0376,-2.880584 1.38283,-5.806198 3.35648,-8.267352 1.62554,-2.014968 3.73989,-3.698953 6.08635,-5.208249 0.47265,-0.304025 0.95293,-0.599819 1.43804,-0.88856 2.66837,-1.566426 5.43233,-2.863635 8.27559,-3.779317 0.64287,-0.192657 1.15737,-0.35997 1.55539,-0.366317 0.37779,0.01228 0.68661,0.02155 0.76171,0.124245 0,0 0,0 0,0 0.12561,0.01661 0.29632,0.321748 0.59883,0.739111 0.27071,0.454696 0.61446,1.103221 1.18661,1.844622 0.62391,0.757891 1.14186,1.167177 1.32294,1.435127 0.0852,0.133044 0.14214,0.200577 0.12694,0.201922 -0.024,-0.01177 -0.003,-0.075 0.024,-0.247251 0.0477,-0.11317 0.0743,-0.172465 0.10473,-0.191102 0,0 0,-10e-7 0,-10e-7 0.0259,-0.01576 0.005,-0.0082 -0.0436,0.02709 -0.0962,0.08576 -0.40501,0.144703 -0.86532,0.2845 -1.96269,0.511469 -3.97907,1.077801 -5.97731,1.951059 -2.04106,0.881481 -3.99091,2.151591 -5.57031,3.902777 -1.92803,2.124986 -3.01543,5.00244 -2.76795,7.970368 0,0 0,1.3e-5 0,1.3e-5 0.17316,1.559531 0.6891,2.976141 1.3802,4.197873 0,0 1e-5,10e-6 1e-5,10e-6 0.69308,1.236578 1.50831,2.308572 2.31546,3.267882 3.7338,4.482702 7.85194,7.9441743 10.53401,11.960836 3.66263,5.3906948 5.05465,11.8183839 4.97479,17.544993 -0.15601,11.269868 -5.81502,20.194008 -10.56523,25.272126 -6.44157,6.880983 -11.81728,8.917175 -11.66994,9.245873 -0.0205,-0.04579 5.71366,-0.880441 13.08336,-7.836067 5.32618,-5.02394 11.78623,-14.236835 12.35455,-26.583702 0.28857,-6.2829396 -1.08304,-13.41683495 -5.10991,-19.6691989 -3.00539,-4.5949436 -7.18482,-8.2870881 -10.55215,-12.4419101 -0.71776,-0.895527 -1.38179,-1.774058 -1.85729,-2.676815 0,0 -10e-6,-7e-6 -10e-6,-7e-6 -0.46174,-0.888798 -0.80416,-1.799943 -0.86457,-2.66884 0,0 0,-7e-6 0,-7e-6 -0.19355,-1.617772 0.59209,-3.436 1.81599,-4.841075 1.04732,-1.190648 2.52777,-2.09408 4.17032,-2.823618 1.62729,-0.712364 3.43579,-1.190796 5.36822,-1.693708 0.46687,-0.10167 1.10129,-0.287023 1.84685,-0.666593 0.37133,-0.196895 0.74314,-0.476627 1.09646,-0.844474 0,0 2e-5,-1.6e-5 2e-5,-1.6e-5 0.35721,-0.370047 0.6446,-0.846978 0.83648,-1.418785 0.22776,-0.810254 0.21642,-1.572358 0.002,-2.227057 -0.20533,-0.640024 -0.4899,-1.161877 -0.8102,-1.56304 -0.62682,-0.796374 -1.16852,-1.24123 -1.38479,-1.530865 -0.22934,-0.257933 -0.46685,-0.760261 -0.86664,-1.403991 -0.36363,-0.673899 -0.97644,-1.436163 -1.93186,-2.112951 0,0 -2e-5,-1.1e-5 -2e-5,-1.1e-5 -1.11986,-0.6637 -2.28708,-0.900286 -3.33322,-0.799292 -1.02014,0.082 -1.88471,0.312954 -2.6008,0.55722 -3.1903,1.024194 -6.24533,2.44542 -9.14339,4.151581 -0.53158,0.30899 -1.06142,0.631064 -1.5868,0.967495 -2.60792,1.669987 -5.05617,3.661927 -7.08308,6.123231 -2.50963,3.033354 -4.15841,6.840825 -4.28579,10.878761 0,0 0,1.2e-5 0,1.2e-5 -0.0418,2.71918 0.60492,5.315653 1.62701,7.623538 1.03288,2.345774 2.38524,4.439969 3.7904,6.3425198 2.95576,4.0554035 5.94087,7.1903853 7.72263,11.0328097 0.76192,1.6309455 1.30321,3.2832847 1.42424,4.9079732 0.11985,1.6544571 -0.12496,3.2980563 -0.84005,4.6120763 -0.62217,1.212157 -1.67419,2.242978 -2.87171,3.016242 -1.23845,0.79788 -2.69862,1.305376 -4.19491,1.614131 -3.08896,0.653521 -6.58548,0.303966 -9.8761,0.06385 -12.27241,-0.985621 -21.52755,-0.816678 -30.23065,1.449946 -14.83923,3.893669 -20.06398,11.326221 -20.23182,11.113906 z"
       id="path5445"
       inkscape:connector-curvature="0"
       inkscape:path-effect="#path-effect5447;#path-effect5449"
       inkscape:original-d="m 233.55125,29.45685 c 6.99016,-3.108943 13.67457,-6.624487 20.51161,-9.936575 6.83705,-3.312087 19.86393,-0.610175 29.79565,-0.915106 9.93173,-0.30492 12.52962,-3.660518 18.79419,-5.490616 6.26457,-1.830097 -0.30545,-7.5242862 -0.45839,-11.2862676 -0.15296,-3.7619917 -8.55655,-16.0652564 -12.83506,-24.0977124 -4.2785,-8.032466 7.94568,-10.777993 11.91827,-16.166824 3.97259,-5.38884 5.8065,-2.643741 8.70949,-3.965449 2.90301,-1.321708 2.75054,-1.05e-4 4.12556,0 1.37502,1.05e-4 1.52814,2.033451 2.29198,3.050343 0.76383,1.016893 1.22253,2.236816 1.83357,3.35538 0.61104,1.118563 -1.52782,1.016672 -2.29198,1.525176 -0.76414,0.508493 -7.02855,3.456946 -10.54308,5.185581 -3.5145,1.728635 -1.52782,4.27037 -2.29197,6.405722 -0.76414,2.135342 2.13935,4.270371 3.20877,6.405723 1.06942,2.135341 7.02888,8.1341375 10.54308,12.2013735 3.51419,4.06722553 3.36172,12.4046228 5.04235,18.6070955 1.68061,6.202474 -7.63976,17.285169 -11.45989,25.927914 -3.8201,8.642747 -8.25094,5.693876 -12.37665,8.54097" />
    <path
       style="fill:#4400aa;stroke:none;stroke-width:0.13087665px;stroke-linecap:butt;stroke-linejoin:miter;stroke-opacity:1"
       d="m 298.06875,48.803578 c -0.0451,-0.158263 3.43273,-1.168901 9.0319,-3.15434 0.76633,-0.271716 1.5725,-0.476265 2.32828,-0.794867 0.41699,-0.06793 0.70825,0.04284 0.81556,0.246438 0,0 1e-5,4e-6 1e-5,4e-6 0.15643,0.198821 0.24814,0.396513 0.30269,0.565587 0.13029,0.326999 0.23307,0.728344 0.20394,1.182628 0,0 -10e-6,6e-6 -10e-6,6e-6 -0.059,0.29725 -0.15445,0.463999 -0.21172,0.510544 0,0 0,10e-7 0,10e-7 -0.11998,0.191209 -0.24767,0.36532 -0.374,0.530598 0,0 0,2e-6 0,2e-6 -0.36844,0.483841 -0.76342,0.94553 -1.17948,1.408952 -0.84466,0.945795 -1.81719,1.98558 -2.97731,2.840483 0,0 0,2e-6 0,2e-6 -2.17818,1.587206 -4.88426,2.496559 -7.21587,3.997325 -1.46032,0.932828 -2.73749,2.157497 -4.0929,3.491001 -1.23888,1.225252 -2.46229,2.528726 -3.58142,3.926201 -0.21108,0.26357 -0.4174,0.529176 -0.61874,0.797097 -1.18694,1.582148 -2.21295,3.170717 -3.62583,4.609595 -1.85605,1.871586 -4.13522,3.129266 -6.39887,3.913812 -3.88324,1.346087 -8.08023,1.849001 -11.26844,2.208037 0,0 0,0 0,0 -8.66928,0.983171 -14.22056,0.94506 -14.22689,0.86895 -0.0169,-0.203165 5.51576,-0.658533 14.09836,-1.8764 0,0 0,0 0,0 3.15674,-0.450289 7.30348,-1.029783 10.98277,-2.367609 2.11171,-0.768331 4.21828,-1.948599 5.88209,-3.661088 1.29161,-1.314955 2.26957,-2.857594 3.49841,-4.490564 0.20982,-0.279277 0.4245,-0.55567 0.64377,-0.829438 1.16296,-1.451988 2.42371,-2.790555 3.69461,-4.034058 1.36532,-1.342765 2.72814,-2.618245 4.33027,-3.630565 2.54563,-1.597064 5.21192,-2.436251 7.22064,-3.863928 0,0 0,-10e-7 0,-10e-7 1.05987,-0.743697 2.00338,-1.71714 2.86304,-2.626673 0.41628,-0.442657 0.80384,-0.872142 1.16016,-1.315526 0,0 10e-6,-2e-6 10e-6,-2e-6 0.12351,-0.154364 0.23699,-0.298858 0.33253,-0.443543 0,0 0,-3e-6 0,-3e-6 0.0517,-0.118517 0.1102,-0.159139 0.0647,-0.05788 0,0 0,2e-6 0,2e-6 0.0339,-0.212284 -0.0408,-0.480667 -0.12447,-0.766616 -0.051,-0.133235 -0.0817,-0.233484 -0.12507,-0.278591 0,0 0,1e-6 0,1e-6 -0.0249,0.04162 0.0544,0.01909 0.27979,0.02777 -0.85755,0.325533 -1.67762,0.503901 -2.40847,0.730322 -5.71752,1.779926 -9.28425,2.40582 -9.30407,2.336338 z"
       id="path5451"
       inkscape:connector-curvature="0"
       inkscape:path-effect="#path-effect5453;#path-effect5455"
       inkscape:original-d="m 298.06875,48.803578 c 3.20894,-0.711856 6.41769,-1.830316 9.62628,-2.745318 3.20862,-0.914992 1.52816,-0.610175 2.29199,-0.915095 0.76382,-0.304931 0.30576,1.220027 0.45838,1.830202 0.15265,0.610175 -3.0558,3.456946 -4.58393,5.18558 -1.52815,1.728635 -5.19498,2.033462 -7.79272,3.050343 -2.59772,1.016893 -5.80616,5.693876 -8.7095,8.54097 -1.68076,3.253864 -3.36139,6.50729 -5.04235,9.761102 -9.77891,0.813309 -19.55801,1.626733 -29.33725,2.440272"
       sodipodi:nodetypes="cscsssssc" />
    <path
       style="fill:#ff6600;stroke:none;stroke-width:0.13087665px;stroke-linecap:butt;stroke-linejoin:miter;stroke-opacity:1"
       d="m 199.0555,61.920048 c -0.11576,-0.281023 -8.73013,3.636974 -24.38411,8.046376 -8.00193,2.253378 -19.25742,5.09826 -31.07999,5.996277 -7.96964,0.615167 -16.75523,-0.330811 -26.30736,-0.215448 -9.03848,0.10731 -18.726286,1.682112 -28.101516,5.451685 -5.047495,2.027761 -10.104914,4.642145 -14.719453,8.093831 -4.080791,3.018468 -8.022217,6.934929 -10.20215,12.019831 -1.921854,4.65645 -2.017702,9.87015 -0.880629,14.74626 1.144019,4.98127 3.369507,9.68382 6.273125,13.94319 2.824259,4.12872 6.252815,7.74043 9.997517,11.07647 2.802976,2.49709 5.749131,4.8095 8.652505,7.01232 2.087292,1.59525 4.112299,3.08561 5.87284,4.77839 1.044821,1.07509 2.001705,2.03601 2.204682,3.05882 0.676638,1.70004 -0.74021,3.90872 -2.064172,6.07478 -1.4574,2.06938 -3.360671,4.20756 -4.364676,7.15484 -0.963757,3.26461 -0.525764,6.47339 -0.362311,9.20223 0.1629,3.60869 0.08915,7.14014 0.574409,10.85862 0.180688,2.23522 0.959084,4.8433 3.184302,6.60421 2.464718,1.57491 5.210291,1.64751 7.407667,1.63057 4.06667,0.11552 8.09624,-0.034 11.96392,-0.2536 1.76701,-0.0994 3.52157,-0.21963 5.2834,-0.42588 0,0 2e-5,0 2e-5,0 1.14464,-0.12248 2.39908,-0.27302 3.69182,-0.71701 0.74822,-0.0915 1.58272,-0.80625 1.99935,-2.17933 0.002,-0.99624 -0.29216,-1.69444 -0.64954,-2.06326 -0.76145,-1.03189 -1.5634,-1.5996 -1.91403,-2.12776 0,0 0,-1e-5 0,-1e-5 -0.57012,-0.76697 -0.95706,-1.88458 -1.61745,-3.06338 -1.11353,-2.07262 -2.11118,-4.00518 -2.01093,-5.90829 0.0386,-2.96264 1.27828,-5.88926 2.90185,-8.35503 1.31399,-2.06662 3.80279,-3.50203 6.05505,-5.05872 4.01168,-2.71677 8.24667,-5.81594 11.71679,-8.30872 3.86668,-2.72799 7.43428,-5.12072 9.59397,-9.02213 2.11154,-3.94585 1.88829,-8.38105 0.59375,-11.70418 -1.62268,-4.10715 -4.95797,-7.06766 -7.2468,-8.89493 -5.44885,-4.3776 -9.02147,-5.78301 -8.98748,-5.83409 -0.1066,0.16019 3.17594,2.13077 8.27884,6.67243 2.13169,1.90909 5.23542,4.89049 6.50501,8.59361 1.04572,2.99746 1.12451,6.96377 -0.78138,10.25827 -1.88146,3.38174 -5.2538,5.39594 -9.20016,8.16136 -3.50119,2.40925 -7.84198,5.4651 -11.8145,8.06173 -2.22321,1.42157 -4.94523,3.01695 -6.82235,5.64039 -1.89968,2.71299 -3.34051,6.07602 -3.47314,9.72055 -0.0204,2.74707 1.06199,5.17308 2.26899,7.31239 0.4946,0.91762 0.91701,2.11677 1.74255,3.3399 0,0 0,1e-5 0,1e-5 0.74119,1.02869 1.54618,1.6167 1.89608,2.15517 0.0984,0.27811 0.21513,0.31945 0.13323,0.11359 0.28711,-0.34286 0.11923,-0.48065 -0.11516,-0.21244 -0.86766,0.31334 -1.90909,0.40312 -3.06889,0.54035 0,0 -1e-5,0 -1e-5,0 -1.67023,0.18054 -3.36634,0.28003 -5.11225,0.36383 -3.83039,0.18172 -7.77983,0.29797 -11.71258,0.15566 -2.263932,-0.16079 -4.469475,-0.0766 -5.73064,-1.11819 -1.178332,-0.62919 -1.495226,-2.51718 -1.858249,-4.47881 -0.438109,-3.40921 -0.337517,-6.84446 -0.495192,-10.5954 -0.08458,-2.9666 -0.555381,-5.81717 0.249039,-8.08305 0.608731,-2.09692 2.376981,-3.93676 3.970685,-6.29251 1.679733,-2.19037 3.264097,-5.27913 2.546672,-8.76611 -0.608907,-1.99733 -1.862325,-3.46876 -3.091823,-4.57526 -1.965007,-1.88086 -4.083132,-3.45582 -6.147217,-5.02746 -2.865798,-2.19821 -5.748183,-4.46292 -8.455568,-6.86348 -3.618324,-3.20827 -6.871116,-6.61209 -9.474017,-10.45863 -2.708547,-3.98775 -4.782958,-8.31293 -5.817088,-12.82356 -0.985448,-4.3734 -0.970202,-8.92466 0.666605,-12.78314 1.7563,-4.333366 5.341838,-7.846123 9.128857,-10.756351 4.315179,-3.277211 9.126844,-5.797755 13.974185,-7.796989 8.942497,-3.685363 18.269491,-5.290621 27.012611,-5.500216 9.30842,-0.220784 18.22334,0.596037 26.45935,-0.164177 12.09741,-1.132373 23.35024,-4.248143 31.3551,-6.767139 15.70077,-4.938401 23.86938,-9.737117 23.90804,-9.64326 z"
       id="path5457"
       inkscape:connector-curvature="0"
       inkscape:path-effect="#path-effect5459;#path-effect5461"
       inkscape:original-d="m 199.0555,61.920048 c -7.28296,2.999801 -14.4681,5.959466 -21.84913,8.999977 -11.97502,2.729868 -23.63332,5.387731 -35.4502,8.081953 -7.94549,-1.016904 -15.89087,-2.03367 -23.83654,-3.050344 -9.16787,1.321729 -18.33563,2.643522 -27.503665,3.96544 -10.543143,6.609106 -21.085999,13.42141 -31.629249,20.132276 3.361776,10.47289 6.723291,20.94558 10.084686,31.41853 7.640145,5.69391 15.279979,11.38784 22.919742,17.08193 2.59773,2.23681 5.500895,4.47372 8.251106,6.71075 -1.375032,2.74522 -2.750211,5.28715 -4.125558,7.93089 -1.98631,2.03357 -3.667008,4.06703 -5.500727,6.1007 0.305757,2.74537 0.611347,5.49051 0.91677,8.23591 1.67e-4,4.27054 1.67e-4,8.54086 0,12.81145 0.764189,1.62678 1.528165,3.25359 2.291985,4.88056 1.98661,0.30494 3.972921,0.60995 5.959125,0.91509 4.431045,-1e-4 9.168055,-0.20346 13.751835,-0.30502 3.20881,-0.20347 6.41769,-0.61019 9.62628,-0.91511 -0.3054,-0.71182 -0.61101,-1.62695 -0.91677,-2.44029 -0.61098,-0.50844 -1.52782,-1.22023 -2.29198,-1.83018 -0.30542,-0.9152 -0.61102,-1.83033 -0.91679,-2.74533 -1.52768,-2.03349 -2.7502,-4.27059 -4.12555,-6.40572 1.52811,-3.7621 3.05613,-7.52428 4.58396,-11.28626 1.68088,-0.81351 3.36171,-1.83032 5.04233,-2.74532 4.58363,-3.25345 9.16806,-6.5075 13.75184,-9.76109 3.5144,-2.4403 7.02888,-4.88065 10.54308,-7.32083 0.15294,-4.16872 0.30576,-8.33771 0.45838,-12.5064 -2.75012,-2.84702 -5.50057,-5.69408 -8.25109,-8.54096 -2.90297,-1.93198 -5.80617,-3.86389 -8.7095,-5.79567"
       sodipodi:nodetypes="cccccccccccccccccccccccccccc" />
    <path
       style="fill:#552200;stroke:none;stroke-width:0.13087665px;stroke-linecap:butt;stroke-linejoin:miter;stroke-opacity:1"
       d="m 64.287456,111.33561 c 0.05815,0.17478 -1.289228,0.7184 -3.549934,1.63086 -2.048203,0.8267 -5.60011,2.21927 -8.075883,4.63554 0,0 -10e-7,0 -10e-7,0 -0.783009,0.74187 -1.462481,1.60879 -2.054512,2.59477 -1.362304,2.26882 -2.122397,4.9553 -2.628018,7.16761 -1.171486,5.22806 -1.314146,8.99771 -1.569051,8.98403 -0.07775,-0.004 -0.568639,-3.75512 0.417373,-9.21651 0.40756,-2.313 1.146652,-5.12523 2.656097,-7.61342 0.651041,-1.07318 1.410988,-2.03034 2.287793,-2.85801 0,0 10e-7,0 10e-7,0 2.842934,-2.61189 6.517148,-3.84934 8.686042,-4.49546 2.354284,-0.70135 3.789014,-0.95287 3.830093,-0.82941 z"
       id="path5463"
       inkscape:connector-curvature="0"
       inkscape:path-effect="#path-effect5465;#path-effect5467"
       inkscape:original-d="m 64.287456,111.33561 c -4.583779,1.52506 -9.167725,3.05025 -13.75185,4.57552 -1.222253,3.96551 -2.444601,7.93079 -3.667152,11.89634 -0.152628,2.84696 -0.305435,5.69386 -0.458397,8.54095" />
    <path
       style="fill:#552200;stroke:none;stroke-width:0.13087665px;stroke-linecap:butt;stroke-linejoin:miter;stroke-opacity:1"
       d="m 45.951672,136.34842 c -0.676269,-0.0275 1.652198,3.99234 -0.828798,10.52935 -0.914163,2.30784 -2.655674,4.28333 -5.001576,6.10548 -1.136554,0.9416 -2.51731,1.78346 -2.876956,2.88605 -0.49365,1.1568 -0.408591,2.58625 -0.122196,4.08153 0.277065,1.09836 0.569405,2.21425 1.253846,2.75657 0.0061,0.20697 0.442165,0.0683 0.882289,-0.0803 0,0 2e-6,-1e-5 2e-6,-1e-5 0.756124,-0.36267 1.461507,-0.85386 2.019678,-1.46737 0.582137,-0.61657 0.942769,-1.4925 1.12762,-2.43128 0.240439,-1.25348 0.198589,-2.60347 0.204381,-4.07801 -0.0052,-0.31576 -9.07e-4,-0.6414 0.01895,-0.97322 0.06186,-1.03357 0.273351,-2.10773 0.796716,-3.13494 0.909807,-1.65412 2.108672,-2.83983 2.754756,-4.09653 0.459085,-0.80264 0.557042,-1.88534 0.668556,-3.00918 0.08638,-0.99193 0.263825,-1.9455 0.410485,-2.82086 0.192554,-1.15848 0.331712,-2.28972 0.402864,-3.40388 0,0 0,0 0,0 0.0922,-1.53798 0.07828,-3.02753 0.457052,-4.62761 0.385574,-1.48607 1.195968,-2.70236 1.952686,-3.6987 1.266767,-1.70394 2.613711,-3.14053 4.026146,-4.32653 2.582735,-2.16588 4.950301,-3.59697 6.911127,-4.53688 2.863129,-1.37016 4.64954,-1.08341 4.653333,-1.06061 0.0277,0.16648 -1.730223,0.39002 -4.20869,1.88792 -1.817466,1.09135 -3.980857,2.60491 -6.382566,4.81754 -1.267079,1.16765 -2.468671,2.56257 -3.613729,4.21442 -0.671292,0.99054 -1.354292,2.03604 -1.561661,3.11363 -0.295306,1.31552 -0.228464,2.67756 -0.306979,4.32022 0,0 0,0 0,0 -0.05264,1.19247 -0.177828,2.3943 -0.361127,3.61186 -0.135173,0.90632 -0.293694,1.81344 -0.353521,2.66969 -0.06967,1.16663 -0.225878,2.50536 -0.859315,3.80329 -0.852177,1.62366 -2.058337,2.84063 -2.746112,4.13946 -0.363367,0.61178 -0.485313,1.39153 -0.532048,2.25816 -0.015,0.27807 -0.02221,0.56385 -0.02745,0.85275 0.0058,1.4403 0.03009,2.92439 -0.253939,4.46305 -0.226412,1.25071 -0.770824,2.46649 -1.663384,3.44559 -0.773562,0.82748 -1.698427,1.46342 -2.676464,1.90855 0,0 -4e-6,1e-5 -4e-6,1e-5 -0.871231,0.46212 -2.05451,0.46307 -3.090298,-0.28378 -1.156394,-1.14211 -1.610242,-2.60937 -1.802284,-3.8525 -0.354548,-1.70367 -0.351529,-3.52007 0.336328,-5.17105 0.84389,-1.75416 2.421141,-2.74532 3.540637,-3.51992 2.266346,-1.68541 3.90488,-3.31084 4.777357,-5.28248 2.580487,-5.60082 1.817628,-10.01989 2.074287,-10.00947 z"
       id="path5475"
       inkscape:connector-curvature="0"
       inkscape:path-effect="#path-effect5477;#path-effect5479"
       inkscape:original-d="m 45.951672,136.34842 c -0.15264,3.76199 -0.305447,7.52408 -0.458397,11.28628 -2.139083,1.72848 -4.278189,3.45696 -6.417522,5.18559 -1.069506,0.71168 -2.139023,1.42338 -3.208756,2.13524 1.55e-4,1.83037 1.55e-4,3.66031 0,5.49061 0.611372,1.22011 1.22254,2.44017 1.833565,3.66041 0.611395,-0.10181 1.222551,-0.20345 1.833576,-0.30503 0.916675,-0.60998 1.833743,-1.22024 2.750381,-1.83021 0.458469,-0.81338 0.916939,-1.83031 1.37518,-2.7453 1.55e-4,-1.52507 1.55e-4,-3.25381 0,-4.88055 1.55e-4,-1.01682 1.55e-4,-2.03366 0,-3.05034 1.375191,-1.52513 2.750513,-3.05045 4.125549,-4.57551 1.66e-4,-1.11848 1.66e-4,-2.23704 0,-3.35539 0.152951,-0.81345 0.305757,-1.62696 0.458397,-2.44028 0.152938,-1.1184 0.305757,-2.23702 0.458396,-3.35537 1.68e-4,-1.72845 1.68e-4,-3.45716 0,-5.18559 0.611312,-0.91515 1.22254,-1.83031 1.833565,-2.7453 1.069613,-1.42341 2.139357,-2.8471 3.208767,-4.27049 2.750286,-1.93181 5.500895,-3.86387 8.25111,-5.79564 1.222479,-0.20346 2.444935,-0.40683 3.667152,-0.61007" />
    <path
       style="fill:#ff6600;stroke:none;stroke-width:0.13087665px;stroke-linecap:butt;stroke-linejoin:miter;stroke-opacity:1"
       d="m 94.999899,155.56558 c 0.126841,0.22071 -5.635305,0.64009 -10.643905,7.44247 -2.426922,3.35612 -4.286846,7.28809 -5.941324,12.027 -0.423817,1.21394 -0.813694,2.4196 -1.176212,3.58638 -1.087515,3.02455 -2.279691,6.11356 -1.221575,9.42475 1.143059,2.46855 3.554859,3.25362 5.059162,3.57488 0,0 1e-6,0 1e-6,0 4.798426,1.32132 7.894982,1.4282 7.964716,1.15873 0.133088,-0.51429 -2.822784,-1.33905 -7.314934,-3.11168 0,0 -1e-6,0 -1e-6,0 -1.350065,-0.62997 -3.262416,-1.31997 -3.344694,-2.42426 -0.789371,-2.1274 0.568697,-4.37071 1.547115,-7.75556 0.381341,-1.14156 0.780646,-2.33181 1.191933,-3.5079 1.626532,-4.65114 3.188848,-8.30958 5.271148,-11.58866 3.730713,-6.03338 8.869603,-8.37194 8.60857,-8.82615 z"
       id="path5481"
       inkscape:connector-curvature="0"
       inkscape:path-effect="#path-effect5483;#path-effect5485"
       inkscape:original-d="m 94.999899,155.56558 c -3.361395,1.9318 -6.722957,3.86367 -10.084686,5.79567 -2.44472,6.60931 -4.889368,13.21805 -7.334305,19.82723 -0.458241,2.33854 -0.916627,4.88044 -1.37519,7.32082 1.528225,0.71169 3.056128,1.42338 4.583958,2.13526 2.750465,0.71161 5.500895,1.42338 8.251086,2.13523" />
    <path
       style="fill:#ffcc00;stroke:none;stroke-width:0.13087665px;stroke-linecap:butt;stroke-linejoin:miter;stroke-opacity:1"
       d="m 146.3401,133.60313 c -0.15007,0.63146 2.35061,2.27316 6.62343,3.01853 1.55105,0.27308 3.32714,0.4143 5.21526,0.28321 1.23899,-0.086 2.42278,-0.28223 3.53708,-0.57689 0,0 0,0 0,0 5.23687,-1.43472 7.78695,-4.34281 7.54397,-4.8601 -0.50293,-1.0707 -3.85444,0.52186 -8.34686,1.24056 0,0 0,0 0,0 -0.94587,0.1622 -1.93462,0.27671 -2.99564,0.3469 -1.59913,0.10578 -3.1842,0.0983 -4.60144,0.0712 -3.88467,-0.0735 -6.7656,-0.4079 -6.9758,0.47657 z"
       id="path5487"
       inkscape:connector-curvature="0"
       inkscape:path-effect="#path-effect5489;#path-effect5491"
       inkscape:original-d="m 146.3401,133.60313 c 2.13935,0.50828 4.27853,1.01666 6.41753,1.52516 2.9032,-1e-4 5.80649,-1e-4 8.7095,0 2.5976,-1.22017 5.19531,-2.44038 7.79271,-3.66041" />
    <path
       style="fill:#ffd42a;stroke:none;stroke-width:0.13522385px;stroke-linecap:butt;stroke-linejoin:miter;stroke-opacity:1"
       d="m 172.46859,122.04036 c 0.17506,0.12322 -3.20921,2.07951 -4.62124,8.59868 0,0 0,0 0,0 -1.14788,5.39466 -1.17155,10.83351 -0.67032,19.182 0.4281,7.34388 1.28545,15.32102 2.66292,24.47393 0.69874,4.72605 1.37864,10.30067 3.26256,15.49703 0.35941,1.13332 0.99372,2.47068 2.2266,3.62428 1.12087,0.87638 2.31721,1.26656 3.35331,1.3876 0,0 1e-5,0 1e-5,0 2.90948,0.45696 5.72113,0.37085 8.48723,0.31751 2.82071,-0.0434 5.74134,-0.11948 8.67924,-0.36372 0.42691,-0.0241 0.87283,-0.0515 1.33206,-0.0916 1.63851,-0.1432 3.42372,-0.4472 5.17975,-1.32519 1.48721,-0.75199 2.53475,-2.26925 2.64571,-4.16543 -0.0549,-1.67527 -0.92229,-3.09805 -2.27339,-3.89956 0,0 0,0 0,0 -0.62315,-0.3765 -1.12556,-0.68301 -1.37206,-1.04999 0,0 0,-1e-5 0,-1e-5 -1.32452,-1.5692 -2.16526,-3.74423 -3.09541,-5.93005 -1.99934,-4.83273 -3.52547,-9.69708 -4.68966,-14.42236 0,0 0,0 0,0 -1.56364,-6.39337 -2.4184,-12.21034 -2.2042,-17.82265 0.38706,-11.44289 5.86021,-21.43993 9.02034,-26.63719 1.59752,-2.60896 2.40409,-3.87514 3.58852,-5.32254 0,0 0,0 0,0 1.15171,-1.42199 2.03537,-2.01153 1.95086,-2.14537 -0.0394,-0.0623 -1.10962,0.15706 -2.61363,1.51177 0,0 0,0 0,0 -1.35703,1.22525 -2.53468,2.66878 -4.26695,5.06195 -3.68066,5.0599 -9.8084,15.00768 -10.64729,27.37874 -0.3816,5.97574 0.3617,12.15157 1.88277,18.75598 0,0 0,0 0,1e-5 1.1187,4.89406 2.63523,9.94833 4.66931,14.99324 0.85648,2.1895 1.85175,4.66512 3.59005,6.86582 0,0 1e-5,1e-5 1e-5,1e-5 0.75468,0.86532 1.57919,1.45556 2.33322,1.8944 0,0 1e-5,0 1e-5,0 0.26908,0.15769 0.53184,0.54109 0.47689,0.76782 0.11091,0.23963 -0.29775,0.67286 -0.71578,0.93613 -0.96845,0.57377 -2.28849,0.72283 -3.79561,0.86668 -0.42326,0.0404 -0.85734,0.0801 -1.30122,0.12896 -2.79883,0.23617 -5.64183,0.31531 -8.43823,0.3717 -2.81786,0.0458 -5.40932,0.16431 -7.86215,-0.22517 0,0 0,0 0,0 -0.74997,-0.16091 -1.35491,-0.26708 -1.59356,-0.55261 -0.49675,-0.32471 -0.80868,-1.17456 -1.23054,-2.14226 -1.77057,-4.63192 -2.48762,-10.01728 -3.30787,-14.78711 -1.54194,-9.09504 -2.5956,-16.87516 -3.29618,-24.15415 -0.79441,-8.42322 -1.08522,-13.31006 -0.36463,-18.70001 0,0 0,-10e-6 0,-10e-6 0.74391,-5.83629 3.2574,-8.7091 3.01855,-8.87721 z"
       id="path5493"
       inkscape:connector-curvature="0"
       inkscape:path-effect="#path-effect5495;#path-effect5497"
       inkscape:original-d="m 172.46859,122.04036 c -1.52781,2.1708 -3.05579,4.34169 -4.58394,6.5127 1.6e-4,6.62155 1.6e-4,13.24238 0,19.86374 1.22258,9.22637 2.44495,18.45253 3.66716,27.67897 1.06977,5.10155 2.13934,10.20311 3.20877,15.30484 1.06977,0.65117 2.13934,1.30242 3.20876,1.9538 3.05609,-1.2e-4 6.1121,-1.2e-4 9.1679,0 3.05596,-0.10864 6.11208,-0.21719 9.16789,-0.32562 1.83363,-0.32575 3.97292,-0.65139 5.95912,-0.97691 0.45852,-0.97694 0.91696,-1.95393 1.3752,-2.93072 -0.45817,-0.86834 -0.91664,-1.73683 -1.3752,-2.60509 -1.37492,-0.21718 -2.7502,-0.43428 -4.12554,-0.65126 -4.43137,-14.00362 -8.86214,-28.00471 -13.29344,-42.00691 5.65366,-9.76908 11.30722,-19.53821 16.9606,-29.30713 1.52812,-0.86848 2.75052,-1.73683 4.12555,-2.60509" />
    <path
       style="fill:#ffd42a;stroke:none;stroke-width:0.13087665px;stroke-linecap:butt;stroke-linejoin:miter;stroke-opacity:1"
       d="m 194.47156,136.34842 c 0.24881,-0.31548 4.65258,3.18415 12.36706,8.59118 2.35175,1.62576 6.48144,3.92213 8.76577,7.37307 1.34446,2.1557 1.70542,4.77284 1.4515,7.36988 -0.0628,1.04212 -0.35338,2.27206 -1.25944,3.34118 -0.88151,0.95602 -1.86496,1.69328 -2.23586,2.51461 -0.22319,0.40703 -0.15554,1.14249 0.20885,1.23832 1.15199,0.90021 3.00274,0.79772 5.11871,1.20554 2.96948,0.48858 6.12922,1.02687 9.22128,1.26467 2.56201,0.17469 5.19514,0.29741 7.44294,-0.51549 1.47433,-0.49151 2.79026,-1.55928 3.87082,-2.86789 0.1589,-0.1976 0.30546,-0.40544 0.43623,-0.62047 0.51834,-0.85238 0.78085,-1.80437 0.60024,-2.67088 -0.30898,-2.11936 -1.3981,-4.22495 -2.15274,-6.57364 -0.60043,-1.74392 -0.96933,-3.71411 -0.55529,-5.72973 0.35308,-1.66119 1.08835,-2.8634 0.91242,-3.78977 -0.0443,-1.83396 -1.85924,-3.45754 -3.5449,-4.88783 0,0 0,0 0,0 -3.21128,-2.53803 -7.72142,-4.8921 -10.93098,-6.90349 -3.39111,-2.03813 -6.46685,-4.24515 -7.77154,-7.74399 0,0 0,-1e-5 0,-1e-5 -1.30562,-3.91398 0.0219,-7.86437 1.28681,-10.40192 3.31513,-6.75864 7.31875,-8.93388 7.02216,-9.17159 0.19251,0.15429 -3.07708,3.24445 -5.8027,9.72771 -1.01736,2.4662 -2.10367,6.15381 -0.84597,9.23744 0,0 0,0 0,0 1.01461,2.83142 3.83479,4.51531 7.18623,6.59004 3.17258,1.8815 7.73217,4.15467 11.26702,6.84552 0,0 1e-5,0 1e-5,0 1.94859,1.3868 4.08754,3.49195 4.51122,6.47762 0.0989,1.92108 -0.63757,3.3503 -0.92134,4.54762 -0.32884,1.32065 0.0338,2.8486 0.52433,4.43715 0.68514,2.05029 1.83376,4.36522 2.26856,6.95078 0.20198,1.5521 -0.1658,3.06128 -0.92102,4.33586 -0.19057,0.32163 -0.40512,0.6271 -0.64014,0.91344 -1.29161,1.60568 -2.98561,2.93028 -4.99142,3.63965 -2.85999,0.94954 -5.81597,0.84985 -8.44807,0.60304 -3.24401,-0.27639 -6.45911,-0.85274 -9.42026,-1.37899 -1.84339,-0.26948 -4.03654,-0.34485 -6.03122,-1.66621 -1.30871,-1.084 -1.5633,-2.78092 -0.865,-4.12595 0.77406,-1.35454 1.88637,-2.22517 2.65337,-2.97587 0.47606,-0.3621 0.60417,-1.17384 0.72718,-2.04806 0.22285,-2.32114 0.047,-4.50042 -0.99326,-6.15311 -1.72502,-2.94868 -5.69323,-5.33833 -8.042,-7.16677 -7.50742,-5.77685 -11.57408,-9.68014 -11.46956,-9.81266 z"
       id="path5499"
       inkscape:connector-curvature="0"
       inkscape:path-effect="#path-effect5501;#path-effect5503"
       inkscape:original-d="m 194.47156,136.34842 c 4.12571,3.2536 8.25125,6.5073 12.37665,9.76111 3.20892,2.13515 6.41769,4.27037 9.62629,6.40573 -0.15264,2.7452 -0.30544,5.49051 -0.45839,8.23593 -0.15265,0.40661 -0.30544,0.81331 -0.45841,1.22012 -1.22259,1.017 -2.44461,2.03346 -3.66716,3.05035 0.15298,1.01679 0.30578,2.03346 0.4584,3.05034 1.6811,0.30496 3.66731,0.60996 5.50074,0.9151 3.51431,0.60994 7.02888,1.22005 10.54308,1.83022 2.75044,-0.10181 5.5009,-0.20347 8.2511,-0.30504 1.37526,-1.32183 2.75052,-2.64374 4.12555,-3.96545 0.6113,-1.11846 1.22255,-2.23702 1.83359,-3.35538 -1.22209,-2.7451 -2.44462,-5.49073 -3.66717,-8.23592 -0.15262,-1.42356 -0.30543,-3.05046 -0.45839,-4.57552 0.76411,-1.22016 1.52815,-2.44038 2.29197,-3.6604 -1.0693,-1.93179 -2.13901,-3.86389 -3.20875,-5.79567 -4.58365,-2.33862 -9.16774,-4.88065 -13.75184,-7.32081 -2.75023,-2.03367 -5.50059,-4.06724 -8.25112,-6.1007 0.61136,-3.76219 1.22255,-7.32092 1.83358,-10.98123 2.59765,-2.94868 4.88971,-6.10079 7.33432,-9.15103" />
    <g
       id="g4562">
      <g
         transform="matrix(0.53883801,0.18507234,-0.27812009,0.35856459,493.29736,102.17081)"
         id="g5517">
        <path
           style="fill:#000000;stroke:none;stroke-width:0.26458332px;stroke-linecap:butt;stroke-linejoin:miter;stroke-opacity:1"
           d="m -408.21427,15.785725 c -0.28723,-0.05222 -0.44234,-0.968805 -0.36106,-2.484982 0.077,-1.437004 0.39624,-3.7521753 1.49789,-6.04802 0,-2e-7 0,-5e-7 0,-8e-7 0.44079,-0.9057172 1.00562,-1.8061776 1.70312,-2.6561936 1.22759,-1.4960075 2.6713,-2.6005149 4.13584,-3.3301259 3.88998,-1.87474491 6.61422,-0.73663389 6.63133,-0.59972301 0.065,0.51966541 -2.77355,0.85520881 -5.4636,2.67580941 -1.12795,0.7285653 -2.23892,1.6951402 -3.25297,2.9345033 -0.57571,0.7036286 -1.0713,1.436045 -1.4916,2.1663798 0,2e-7 0,5e-7 0,7e-7 -0.99865,1.7064381 -1.71116,3.9642621 -2.16188,5.1836831 -0.51441,1.391718 -0.92555,2.215307 -1.23707,2.158669 z"
           id="path5505"
           inkscape:connector-curvature="0"
           inkscape:path-effect="#path-effect5507;#path-effect5509"
           inkscape:original-d="m -408.21427,15.785725 c 0.25223,-2.77209 1.0082,-5.543915 1.51188,-8.3154755 2.01594,-2.0159159 4.03201,-4.0320092 6.04764,-6.0476182 2.01586,-0.2522167 4.03201,-0.50423232 6.0476,-0.75595161" />
        <ellipse
           style="opacity:1;fill:#000000;fill-opacity:1;stroke:none;stroke-width:10.26500034;stroke-miterlimit:4;stroke-dasharray:none;stroke-opacity:0.54726371"
           id="path5511"
           cx="-400.27679"
           cy="7.4702497"
           rx="3.4017856"
           ry="3.0238097" />
      </g>
      <g
         id="g4550">
        <path
           style="opacity:1;fill:#ff0000;fill-opacity:1;stroke:none;stroke-width:9.8149147;stroke-miterlimit:4;stroke-dasharray:none;stroke-opacity:0.54726371"
           d="m 255.81708,14.414238 c -5.35986,-12.3318179 -12.09036,-21.7822969 -13.73761,-26.031657 -4.28226,-11.046755 -4.36912,-23.186021 0.59742,-26.362177 6.53032,-4.17621 15.98286,-5.235909 22.75513,-3.043285 4.33583,1.403787 7.73788,6.575705 9.48362,10.363265 3.22704,7.001341 1.97867,11.532337 -6.71403,24.3690011 -5.01782,7.409895 -8.17218,12.995352 -10.66077,18.8771779 l -1.24213,2.935788 z"
           id="path4554"
           inkscape:connector-curvature="0"
           sodipodi:nodetypes="ccsscsscc" />
        <ellipse
           style="opacity:1;fill:#ff0000;fill-opacity:1;stroke:none;stroke-width:11.23732185;stroke-miterlimit:4;stroke-dasharray:none;stroke-opacity:0.54726371"
           id="path4536"
           cx="256.81821"
           cy="-26.25572"
           rx="19.300865"
           ry="19.125311" />
        <ellipse
           style="opacity:1;fill:#d40000;fill-opacity:1;stroke:none;stroke-width:10.26500034;stroke-miterlimit:4;stroke-dasharray:none;stroke-opacity:0.54726371"
           id="path4557"
           cx="256.28372"
           cy="15.335102"
           rx="4.6302085"
           ry="1.6063988" />
      </g>
      <ellipse
         ry="13.630747"
         rx="14.165285"
         cy="-26.128853"
         cx="256.84601"
         id="path4552"
         style="opacity:1;fill:#800000;fill-opacity:1;stroke:none;stroke-width:14.82448006;stroke-miterlimit:4;stroke-dasharray:none;stroke-opacity:0.54726371" />
    </g>
  </g>
</svg>
